<?xml version="1.0" encoding="UTF-8" standalone="no"?><svg xmlns="http://www.w3.org/2000/svg" xmlns:xlink="http://www.w3.org/1999/xlink" contentScriptType="application/ecmascript" contentStyleType="text/css" height="719px" preserveAspectRatio="none" style="width:680px;height:719px;background:#FFFFFF;" version="1.1" viewBox="0 0 680 719" width="680px" zoomAndPan="magnify"><defs><filter height="300%" id="f1rb8w6wmw1pnd" width="300%" x="-1" y="-1"><feGaussianBlur result="blurOut" stdDeviation="2.0"/><feColorMatrix in="blurOut" result="blurOut2" type="matrix" values="0 0 0 0 0 0 0 0 0 0 0 0 0 0 0 0 0 0 .4 0"/><feOffset dx="4.0" dy="4.0" in="blurOut2" result="blurOut3"/><feBlend in="SourceGraphic" in2="blurOut3" mode="normal"/></filter></defs><g><!--MD5=[961d2d9d64dd788fc6cab6f128e01efa]
class ClosenessPlacesController--><rect codeLine="4" fill="#FEFECE" filter="url(#f1rb8w6wmw1pnd)" height="60.8047" id="ClosenessPlacesController" style="stroke:#A80036;stroke-width:1.5;" width="209" x="148" y="7"/><ellipse cx="173.8" cy="23" fill="#ADD1B2" rx="11" ry="11" style="stroke:#A80036;stroke-width:1.0;"/><path d="M176.2688,28.875 Q175.6906,29.1875 175.05,29.3438 Q174.4094,29.5 173.7063,29.5 Q171.2063,29.5 169.8781,27.8281 Q168.5656,26.1563 168.5656,23 Q168.5656,19.8438 169.8781,18.1719 Q171.2063,16.5 173.7063,16.5 Q174.4094,16.5 175.05,16.6563 Q175.7063,16.8125 176.2688,17.125 L176.2688,19.9219 Q175.6438,19.3594 175.05,19.0938 Q174.4563,18.8125 173.8313,18.8125 Q172.4875,18.8125 171.8,19.875 Q171.1125,20.9375 171.1125,23 Q171.1125,25.0781 171.8,26.1406 Q172.4875,27.1875 173.8313,27.1875 Q174.4563,27.1875 175.05,26.9219 Q175.6438,26.6563 176.2688,26.0781 L176.2688,28.875 Z " fill="#000000"/><text fill="#000000" font-family="sans-serif" font-size="12" lengthAdjust="spacing" textLength="153" x="190.2" y="27.1543">ClosenessPlacesController</text><line style="stroke:#A80036;stroke-width:1.5;" x1="149" x2="356" y1="39" y2="39"/><line style="stroke:#A80036;stroke-width:1.5;" x1="149" x2="356" y1="47" y2="47"/><text fill="#000000" font-family="sans-serif" font-size="11" lengthAdjust="spacing" textLength="197" x="154" y="61.2104">+getClosenessPlacesByContinent()</text><!--MD5=[02e4b9b7573f1156f41e60aa5b4e25a4]
class Company--><rect codeLine="8" fill="#FEFECE" filter="url(#f1rb8w6wmw1pnd)" height="73.6094" id="Company" style="stroke:#A80036;stroke-width:1.5;" width="132" x="186.5" y="129"/><ellipse cx="220.85" cy="145" fill="#ADD1B2" rx="11" ry="11" style="stroke:#A80036;stroke-width:1.0;"/><path d="M223.3188,150.875 Q222.7406,151.1875 222.1,151.3438 Q221.4594,151.5 220.7563,151.5 Q218.2563,151.5 216.9281,149.8281 Q215.6156,148.1563 215.6156,145 Q215.6156,141.8438 216.9281,140.1719 Q218.2563,138.5 220.7563,138.5 Q221.4594,138.5 222.1,138.6563 Q222.7563,138.8125 223.3188,139.125 L223.3188,141.9219 Q222.6938,141.3594 222.1,141.0938 Q221.5063,140.8125 220.8813,140.8125 Q219.5375,140.8125 218.85,141.875 Q218.1625,142.9375 218.1625,145 Q218.1625,147.0781 218.85,148.1406 Q219.5375,149.1875 220.8813,149.1875 Q221.5063,149.1875 222.1,148.9219 Q222.6938,148.6563 223.3188,148.0781 L223.3188,150.875 Z " fill="#000000"/><text fill="#000000" font-family="sans-serif" font-size="12" lengthAdjust="spacing" textLength="57" x="239.15" y="149.1543">Company</text><line style="stroke:#A80036;stroke-width:1.5;" x1="187.5" x2="317.5" y1="161" y2="161"/><text fill="#000000" font-family="sans-serif" font-size="11" lengthAdjust="spacing" textLength="69" x="192.5" y="175.2104">-designation</text><line style="stroke:#A80036;stroke-width:1.5;" x1="187.5" x2="317.5" y1="181.8047" y2="181.8047"/><text fill="#000000" font-family="sans-serif" font-size="11" lengthAdjust="spacing" textLength="120" x="192.5" y="196.0151">+getFreightNetwork()</text><!--MD5=[074ba6ad47b234bd73d65012320c1634]
class FreightNetwork--><rect codeLine="13" fill="#FEFECE" filter="url(#f1rb8w6wmw1pnd)" height="86.4141" id="FreightNetwork" style="stroke:#A80036;stroke-width:1.5;" width="209" x="148" y="280"/><ellipse cx="201.75" cy="296" fill="#ADD1B2" rx="11" ry="11" style="stroke:#A80036;stroke-width:1.0;"/><path d="M204.2188,301.875 Q203.6406,302.1875 203,302.3438 Q202.3594,302.5 201.6563,302.5 Q199.1563,302.5 197.8281,300.8281 Q196.5156,299.1563 196.5156,296 Q196.5156,292.8438 197.8281,291.1719 Q199.1563,289.5 201.6563,289.5 Q202.3594,289.5 203,289.6563 Q203.6563,289.8125 204.2188,290.125 L204.2188,292.9219 Q203.5938,292.3594 203,292.0938 Q202.4063,291.8125 201.7813,291.8125 Q200.4375,291.8125 199.75,292.875 Q199.0625,293.9375 199.0625,296 Q199.0625,298.0781 199.75,299.1406 Q200.4375,300.1875 201.7813,300.1875 Q202.4063,300.1875 203,299.9219 Q203.5938,299.6563 204.2188,299.0781 L204.2188,301.875 Z " fill="#000000"/><text fill="#000000" font-family="sans-serif" font-size="12" lengthAdjust="spacing" textLength="93" x="222.25" y="300.1543">FreightNetwork</text><line style="stroke:#A80036;stroke-width:1.5;" x1="149" x2="356" y1="312" y2="312"/><line style="stroke:#A80036;stroke-width:1.5;" x1="149" x2="356" y1="320" y2="320"/><text fill="#000000" font-family="sans-serif" font-size="11" lengthAdjust="spacing" textLength="197" x="154" y="334.2104">+getClosenessPlacesByContinent()</text><text fill="#000000" font-family="sans-serif" font-size="11" lengthAdjust="spacing" textLength="145" x="154" y="347.0151">+getContinentSubGraph()</text><text fill="#000000" font-family="sans-serif" font-size="11" lengthAdjust="spacing" textLength="123" x="154" y="359.8198">-getClosenessPlaces()</text><!--MD5=[4f1f3706c1a355a8488e154afcaed5df]
class Location--><rect codeLine="19" fill="#FEFECE" filter="url(#f1rb8w6wmw1pnd)" height="86.4141" id="Location" style="stroke:#A80036;stroke-width:1.5;" width="92" x="421.5" y="443"/><ellipse cx="440.55" cy="459" fill="#A9DCDF" rx="11" ry="11" style="stroke:#A80036;stroke-width:1.0;"/><path d="M440.6594,454.2969 L439.5031,459.625 L441.8313,459.625 L440.6594,454.2969 Z M439.175,451.75 L442.1594,451.75 L445.5188,464.75 L443.0656,464.75 L442.3,461.75 L439.0188,461.75 L438.2688,464.75 L435.8313,464.75 L439.175,451.75 Z " fill="#000000"/><text fill="#000000" font-family="sans-serif" font-size="12" font-style="italic" lengthAdjust="spacing" textLength="51" x="455.45" y="463.1543">Location</text><line style="stroke:#A80036;stroke-width:1.5;" x1="422.5" x2="512.5" y1="475" y2="475"/><text fill="#000000" font-family="sans-serif" font-size="11" lengthAdjust="spacing" textLength="46" x="427.5" y="489.2104">-latitude</text><text fill="#000000" font-family="sans-serif" font-size="11" lengthAdjust="spacing" textLength="56" x="427.5" y="502.0151">-longitude</text><text fill="#000000" font-family="sans-serif" font-size="11" lengthAdjust="spacing" textLength="80" x="427.5" y="514.8198">-countryName</text><line style="stroke:#A80036;stroke-width:1.5;" x1="422.5" x2="512.5" y1="521.4141" y2="521.4141"/><!--MD5=[a0bfe97ac0a38e6e74cc1c7c7b744b71]
class Port--><rect codeLine="25" fill="#FEFECE" filter="url(#f1rb8w6wmw1pnd)" height="99.2188" id="Port" style="stroke:#A80036;stroke-width:1.5;" width="104" x="562.5" y="606"/><ellipse cx="599.1" cy="622" fill="#ADD1B2" rx="11" ry="11" style="stroke:#A80036;stroke-width:1.0;"/><path d="M601.5688,627.875 Q600.9906,628.1875 600.35,628.3438 Q599.7094,628.5 599.0063,628.5 Q596.5063,628.5 595.1781,626.8281 Q593.8656,625.1563 593.8656,622 Q593.8656,618.8438 595.1781,617.1719 Q596.5063,615.5 599.0063,615.5 Q599.7094,615.5 600.35,615.6563 Q601.0063,615.8125 601.5688,616.125 L601.5688,618.9219 Q600.9438,618.3594 600.35,618.0938 Q599.7563,617.8125 599.1313,617.8125 Q597.7875,617.8125 597.1,618.875 Q596.4125,619.9375 596.4125,622 Q596.4125,624.0781 597.1,625.1406 Q597.7875,626.1875 599.1313,626.1875 Q599.7563,626.1875 600.35,625.9219 Q600.9438,625.6563 601.5688,625.0781 L601.5688,627.875 Z " fill="#000000"/><text fill="#000000" font-family="sans-serif" font-size="12" lengthAdjust="spacing" textLength="24" x="617.9" y="626.1543">Port</text><line style="stroke:#A80036;stroke-width:1.5;" x1="563.5" x2="665.5" y1="638" y2="638"/><text fill="#000000" font-family="sans-serif" font-size="11" lengthAdjust="spacing" textLength="76" x="568.5" y="652.2104">-identification</text><text fill="#000000" font-family="sans-serif" font-size="11" lengthAdjust="spacing" textLength="36" x="568.5" y="665.0151">-name</text><text fill="#000000" font-family="sans-serif" font-size="11" lengthAdjust="spacing" textLength="56" x="568.5" y="677.8198">-continent</text><text fill="#000000" font-family="sans-serif" font-size="11" lengthAdjust="spacing" textLength="92" x="568.5" y="690.6245">-toPortsDistance</text><line style="stroke:#A80036;stroke-width:1.5;" x1="563.5" x2="665.5" y1="697.2188" y2="697.2188"/><!--MD5=[ea8f20dfdca176213da526d9b557babf]
class Capital--><rect codeLine="32" fill="#FEFECE" filter="url(#f1rb8w6wmw1pnd)" height="60.8047" id="Capital" style="stroke:#A80036;stroke-width:1.5;" width="73" x="431" y="625"/><ellipse cx="446" cy="641" fill="#ADD1B2" rx="11" ry="11" style="stroke:#A80036;stroke-width:1.0;"/><path d="M448.4688,646.875 Q447.8906,647.1875 447.25,647.3438 Q446.6094,647.5 445.9063,647.5 Q443.4063,647.5 442.0781,645.8281 Q440.7656,644.1563 440.7656,641 Q440.7656,637.8438 442.0781,636.1719 Q443.4063,634.5 445.9063,634.5 Q446.6094,634.5 447.25,634.6563 Q447.9063,634.8125 448.4688,635.125 L448.4688,637.9219 Q447.8438,637.3594 447.25,637.0938 Q446.6563,636.8125 446.0313,636.8125 Q444.6875,636.8125 444,637.875 Q443.3125,638.9375 443.3125,641 Q443.3125,643.0781 444,644.1406 Q444.6875,645.1875 446.0313,645.1875 Q446.6563,645.1875 447.25,644.9219 Q447.8438,644.6563 448.4688,644.0781 L448.4688,646.875 Z " fill="#000000"/><text fill="#000000" font-family="sans-serif" font-size="12" lengthAdjust="spacing" textLength="41" x="460" y="645.1543">Capital</text><line style="stroke:#A80036;stroke-width:1.5;" x1="432" x2="503" y1="657" y2="657"/><text fill="#000000" font-family="sans-serif" font-size="11" lengthAdjust="spacing" textLength="36" x="437" y="671.2104">-name</text><line style="stroke:#A80036;stroke-width:1.5;" x1="432" x2="503" y1="677.8047" y2="677.8047"/><!--MD5=[deb4e1f6eb1e3c1256fdb830f96abfbb]
class Country--><rect codeLine="36" fill="#FEFECE" filter="url(#f1rb8w6wmw1pnd)" height="86.4141" id="Country" style="stroke:#A80036;stroke-width:1.5;" width="80" x="306.5" y="443"/><ellipse cx="321.5" cy="459" fill="#ADD1B2" rx="11" ry="11" style="stroke:#A80036;stroke-width:1.0;"/><path d="M323.9688,464.875 Q323.3906,465.1875 322.75,465.3438 Q322.1094,465.5 321.4063,465.5 Q318.9063,465.5 317.5781,463.8281 Q316.2656,462.1563 316.2656,459 Q316.2656,455.8438 317.5781,454.1719 Q318.9063,452.5 321.4063,452.5 Q322.1094,452.5 322.75,452.6563 Q323.4063,452.8125 323.9688,453.125 L323.9688,455.9219 Q323.3438,455.3594 322.75,455.0938 Q322.1563,454.8125 321.5313,454.8125 Q320.1875,454.8125 319.5,455.875 Q318.8125,456.9375 318.8125,459 Q318.8125,461.0781 319.5,462.1406 Q320.1875,463.1875 321.5313,463.1875 Q322.1563,463.1875 322.75,462.9219 Q323.3438,462.6563 323.9688,462.0781 L323.9688,464.875 Z " fill="#000000"/><text fill="#000000" font-family="sans-serif" font-size="12" lengthAdjust="spacing" textLength="48" x="335.5" y="463.1543">Country</text><line style="stroke:#A80036;stroke-width:1.5;" x1="307.5" x2="385.5" y1="475" y2="475"/><text fill="#000000" font-family="sans-serif" font-size="11" lengthAdjust="spacing" textLength="56" x="312.5" y="489.2104">-continent</text><text fill="#000000" font-family="sans-serif" font-size="11" lengthAdjust="spacing" textLength="36" x="312.5" y="502.0151">-name</text><text fill="#000000" font-family="sans-serif" font-size="11" lengthAdjust="spacing" textLength="48" x="312.5" y="514.8198">-borders</text><line style="stroke:#A80036;stroke-width:1.5;" x1="307.5" x2="385.5" y1="521.4141" y2="521.4141"/><!--MD5=[b7b072196a724e538165319251b4d539]
class MatrixGraph--><rect codeLine="42" fill="#FEFECE" filter="url(#f1rb8w6wmw1pnd)" height="48" id="MatrixGraph" style="stroke:#A80036;stroke-width:1.5;" width="106" x="165.5" y="462"/><ellipse cx="180.5" cy="478" fill="#ADD1B2" rx="11" ry="11" style="stroke:#A80036;stroke-width:1.0;"/><path d="M182.9688,483.875 Q182.3906,484.1875 181.75,484.3438 Q181.1094,484.5 180.4063,484.5 Q177.9063,484.5 176.5781,482.8281 Q175.2656,481.1563 175.2656,478 Q175.2656,474.8438 176.5781,473.1719 Q177.9063,471.5 180.4063,471.5 Q181.1094,471.5 181.75,471.6563 Q182.4063,471.8125 182.9688,472.125 L182.9688,474.9219 Q182.3438,474.3594 181.75,474.0938 Q181.1563,473.8125 180.5313,473.8125 Q179.1875,473.8125 178.5,474.875 Q177.8125,475.9375 177.8125,478 Q177.8125,480.0781 178.5,481.1406 Q179.1875,482.1875 180.5313,482.1875 Q181.1563,482.1875 181.75,481.9219 Q182.3438,481.6563 182.9688,481.0781 L182.9688,483.875 Z " fill="#000000"/><text fill="#000000" font-family="sans-serif" font-size="12" lengthAdjust="spacing" textLength="74" x="194.5" y="482.1543">MatrixGraph</text><line style="stroke:#A80036;stroke-width:1.5;" x1="166.5" x2="270.5" y1="494" y2="494"/><line style="stroke:#A80036;stroke-width:1.5;" x1="166.5" x2="270.5" y1="502" y2="502"/><!--MD5=[ef63e85e32976ed6c3ca2a05ce10893d]
class CommonGraph--><rect codeLine="44" fill="#FEFECE" filter="url(#f1rb8w6wmw1pnd)" height="48" id="CommonGraph" style="stroke:#A80036;stroke-width:1.5;" width="123" x="7" y="462"/><ellipse cx="22" cy="478" fill="#A9DCDF" rx="11" ry="11" style="stroke:#A80036;stroke-width:1.0;"/><path d="M22.1094,473.2969 L20.9531,478.625 L23.2813,478.625 L22.1094,473.2969 Z M20.625,470.75 L23.6094,470.75 L26.9688,483.75 L24.5156,483.75 L23.75,480.75 L20.4688,480.75 L19.7188,483.75 L17.2813,483.75 L20.625,470.75 Z " fill="#000000"/><text fill="#000000" font-family="sans-serif" font-size="12" font-style="italic" lengthAdjust="spacing" textLength="91" x="36" y="482.1543">CommonGraph</text><line style="stroke:#A80036;stroke-width:1.5;" x1="8" x2="129" y1="494" y2="494"/><line style="stroke:#A80036;stroke-width:1.5;" x1="8" x2="129" y1="502" y2="502"/><!--MD5=[706e73df52f3df32f52be1ce9adb217e]
class Graph--><rect codeLine="46" fill="#FEFECE" filter="url(#f1rb8w6wmw1pnd)" height="53.9375" id="Graph" style="stroke:#A80036;stroke-width:1.5;" width="95" x="21" y="628.5"/><ellipse cx="36" cy="647.4688" fill="#B4A7E5" rx="11" ry="11" style="stroke:#A80036;stroke-width:1.0;"/><path d="M32.4219,643.25 L32.4219,640.9688 L39.8125,640.9688 L39.8125,643.25 L37.3438,643.25 L37.3438,651.7031 L39.8125,651.7031 L39.8125,653.9688 L32.4219,653.9688 L32.4219,651.7031 L34.8906,651.7031 L34.8906,643.25 L32.4219,643.25 Z " fill="#000000"/><text fill="#000000" font-family="sans-serif" font-size="12" font-style="italic" lengthAdjust="spacing" textLength="67" x="48" y="644.6387">«interface»</text><text fill="#000000" font-family="sans-serif" font-size="12" font-style="italic" lengthAdjust="spacing" textLength="37" x="63" y="658.6074">Graph</text><line style="stroke:#A80036;stroke-width:1.5;" x1="22" x2="115" y1="666.4375" y2="666.4375"/><line style="stroke:#A80036;stroke-width:1.5;" x1="22" x2="115" y1="674.4375" y2="674.4375"/><!--MD5=[187ccc8030f0f5b4620e42336e46a3c3]
class ColorMapController--><rect fill="#FEFECE" filter="url(#f1rb8w6wmw1pnd)" height="48" id="ColorMapController" style="stroke:#A80036;stroke-width:1.5;" width="145" x="409" y="142"/><ellipse cx="424" cy="158" fill="#ADD1B2" rx="11" ry="11" style="stroke:#A80036;stroke-width:1.0;"/><path d="M426.4688,163.875 Q425.8906,164.1875 425.25,164.3438 Q424.6094,164.5 423.9063,164.5 Q421.4063,164.5 420.0781,162.8281 Q418.7656,161.1563 418.7656,158 Q418.7656,154.8438 420.0781,153.1719 Q421.4063,151.5 423.9063,151.5 Q424.6094,151.5 425.25,151.6563 Q425.9063,151.8125 426.4688,152.125 L426.4688,154.9219 Q425.8438,154.3594 425.25,154.0938 Q424.6563,153.8125 424.0313,153.8125 Q422.6875,153.8125 422,154.875 Q421.3125,155.9375 421.3125,158 Q421.3125,160.0781 422,161.1406 Q422.6875,162.1875 424.0313,162.1875 Q424.6563,162.1875 425.25,161.9219 Q425.8438,161.6563 426.4688,161.0781 L426.4688,163.875 Z " fill="#000000"/><text fill="#000000" font-family="sans-serif" font-size="12" lengthAdjust="spacing" textLength="113" x="438" y="162.1543">ColorMapController</text><line style="stroke:#A80036;stroke-width:1.5;" x1="410" x2="553" y1="174" y2="174"/><line style="stroke:#A80036;stroke-width:1.5;" x1="410" x2="553" y1="182" y2="182"/><!--MD5=[1c62d4a649a05181299f9361de61502f]
link ClosenessPlacesController to Company--><path codeLine="48" d="M252.5,68.16 C252.5,84.71 252.5,105.59 252.5,123.72 " fill="none" id="ClosenessPlacesController-to-Company" style="stroke:#A80036;stroke-width:1.0;stroke-dasharray:7.0,7.0;"/><polygon fill="#A80036" points="252.5,128.76,256.5,119.76,252.5,123.76,248.5,119.76,252.5,128.76" style="stroke:#A80036;stroke-width:1.0;"/><!--MD5=[e359b474b5bea3d5e0a05d5f38acf6c5]
link Company to FreightNetwork--><path codeLine="49" d="M252.5,203.34 C252.5,226.25 252.5,255.91 252.5,279.85 " fill="none" id="Company-FreightNetwork" style="stroke:#A80036;stroke-width:1.0;"/><polygon fill="#000000" points="257.5,246.5664,260.4389,237.5213,254.5611,237.5213,257.5,246.5664" style="stroke:#000000;stroke-width:1.0;"/><text fill="#000000" font-family="sans-serif" font-size="13" lengthAdjust="spacing" textLength="42" x="266.5" y="246.0669">knows</text><text fill="#000000" font-family="sans-serif" font-size="13" lengthAdjust="spacing" textLength="8" x="243.8625" y="222.595">1</text><text fill="#000000" font-family="sans-serif" font-size="13" lengthAdjust="spacing" textLength="8" x="243.8625" y="268.8221">1</text><!--MD5=[699bf718bad7577ae286b510ed8e9218]
link ColorMapController to FreightNetwork--><path codeLine="50" d="M447.22,190.21 C413.44,213.07 360.95,248.6 318.97,277.01 " fill="none" id="ColorMapController-to-FreightNetwork" style="stroke:#A80036;stroke-width:1.0;stroke-dasharray:7.0,7.0;"/><polygon fill="#A80036" points="314.69,279.91,324.3837,278.1689,318.8281,277.1035,319.8934,271.5479,314.69,279.91" style="stroke:#A80036;stroke-width:1.0;"/><!--MD5=[e37e8e3161027a4df85a8c5d819b551a]
reverse link Location to Port--><path codeLine="51" d="M517.84,544.36 C535.36,564.32 554.83,586.51 571.69,605.71 " fill="none" id="Location-backto-Port" style="stroke:#A80036;stroke-width:1.0;"/><polygon fill="none" points="512.53,548.92,504.59,529.27,523.05,539.68,512.53,548.92" style="stroke:#A80036;stroke-width:1.0;"/><!--MD5=[656cf771635bff60a827e8d62d536357]
reverse link Location to Capital--><path codeLine="52" d="M467.5,549.59 C467.5,575.4 467.5,604.08 467.5,624.92 " fill="none" id="Location-backto-Capital" style="stroke:#A80036;stroke-width:1.0;"/><polygon fill="none" points="460.5,549.27,467.5,529.27,474.5,549.27,460.5,549.27" style="stroke:#A80036;stroke-width:1.0;"/><!--MD5=[bd392566c8a46ea25d805713a18e8e2e]
link FreightNetwork to Location--><path codeLine="53" d="M308.71,366.09 C343.79,392.36 388.4,425.77 421.4,450.48 " fill="none" id="FreightNetwork-Location" style="stroke:#A80036;stroke-width:1.0;"/><polygon fill="#000000" points="374.5022,407.5635,369.0238,399.7893,365.5005,404.4941,374.5022,407.5635" style="stroke:#000000;stroke-width:1.0;"/><text fill="#000000" font-family="sans-serif" font-size="13" lengthAdjust="spacing" textLength="13" x="379.5" y="409.0669">of</text><text fill="#000000" font-family="sans-serif" font-size="13" lengthAdjust="spacing" textLength="7" x="310.4401" y="386.5126">*</text><text fill="#000000" font-family="sans-serif" font-size="13" lengthAdjust="spacing" textLength="23" x="394.5736" y="438.3047">1..*</text><!--MD5=[8c736de57a0b67374907421adbe5e17c]
link Country to Capital--><path codeLine="54" d="M377.03,529.27 C398.6,559.12 426.95,598.37 446.13,624.92 " fill="none" id="Country-Capital" style="stroke:#A80036;stroke-width:1.0;"/><polygon fill="#000000" points="418.428,571.6194,415.5135,562.5664,410.7489,566.0085,418.428,571.6194" style="stroke:#000000;stroke-width:1.0;"/><text fill="#000000" font-family="sans-serif" font-size="13" lengthAdjust="spacing" textLength="23" x="424.5" y="572.0669">has</text><text fill="#000000" font-family="sans-serif" font-size="13" lengthAdjust="spacing" textLength="8" x="373.2582" y="549.406">1</text><text fill="#000000" font-family="sans-serif" font-size="13" lengthAdjust="spacing" textLength="8" x="432.8974" y="614.1667">1</text><!--MD5=[cb484d98b05c96fc0a7b0f57795eae75]
link FreightNetwork to MatrixGraph--><path codeLine="55" d="M243.57,366.3 C237.54,394.83 229.76,431.69 224.47,456.72 " fill="none" id="FreightNetwork-to-MatrixGraph" style="stroke:#A80036;stroke-width:1.0;stroke-dasharray:7.0,7.0;"/><polygon fill="#A80036" points="223.38,461.87,229.1706,453.9033,224.4237,456.9802,221.3469,452.2333,223.38,461.87" style="stroke:#A80036;stroke-width:1.0;"/><!--MD5=[e9051ba8ebbd537393a9a6534acec112]
reverse link CommonGraph to MatrixGraph--><path codeLine="56" d="M150.13,486 C155.18,486 160.23,486 165.28,486 " fill="none" id="CommonGraph-backto-MatrixGraph" style="stroke:#A80036;stroke-width:1.0;"/><polygon fill="none" points="150.02,493,130.02,486,150.02,479,150.02,493" style="stroke:#A80036;stroke-width:1.0;"/><!--MD5=[73cb6a84480518af2d88af90c1d954ca]
link CommonGraph to Graph--><path codeLine="57" d="M68.5,510.29 C68.5,539.73 68.5,590.5 68.5,623.28 " fill="none" id="CommonGraph-to-Graph" style="stroke:#A80036;stroke-width:1.0;"/><polygon fill="#A80036" points="68.5,628.38,72.5,619.38,68.5,623.38,64.5,619.38,68.5,628.38" style="stroke:#A80036;stroke-width:1.0;"/><!--MD5=[a0aa0b72068d288f57cd5e5a42a1805a]
link ColorMapController to Location--><path codeLine="58" d="M480.48,190.13 C478.2,241.94 472.64,368.23 469.59,437.54 " fill="none" id="ColorMapController-to-Location" style="stroke:#A80036;stroke-width:1.0;stroke-dasharray:7.0,7.0;"/><polygon fill="#A80036" points="469.36,442.84,473.7428,434.0201,469.5747,437.8446,465.7502,433.6765,469.36,442.84" style="stroke:#A80036;stroke-width:1.0;"/><!--MD5=[bd8d886f8f1c3c2f3fd55002f20ced7f]
link ColorMapController to Capital--><path codeLine="59" d="M490.59,190.16 C512.03,248 561.74,403.16 531.5,529 C523.57,562.02 505.41,596.14 490.45,620.46 " fill="none" id="ColorMapController-to-Capital" style="stroke:#A80036;stroke-width:1.0;stroke-dasharray:7.0,7.0;"/><polygon fill="#A80036" points="487.7,624.88,495.8536,619.3557,490.3436,620.636,489.0632,615.1259,487.7,624.88" style="stroke:#A80036;stroke-width:1.0;"/><!--MD5=[febafda13ee82908e13b9cfd1866a292]
link ColorMapController to Port--><path codeLine="60" d="M502.5,190.27 C512.74,202.41 524.72,217.86 533.5,233 C544.81,252.49 546.4,258.31 552.5,280 C583.95,391.83 601.48,527.21 609.35,600.69 " fill="none" id="ColorMapController-to-Port" style="stroke:#A80036;stroke-width:1.0;stroke-dasharray:7.0,7.0;"/><polygon fill="#A80036" points="609.91,605.87,612.936,596.4975,609.3814,600.898,604.9809,597.3433,609.91,605.87" style="stroke:#A80036;stroke-width:1.0;"/><!--MD5=[cfd9002b37db395ae3cf11b75c29271a]
link ColorMapController to MatrixGraph--><path codeLine="61" d="M475.54,190.2 C461,245.21 422.35,381.35 388.5,413 C354.92,444.4 331.59,424.5 289.5,443 C279.04,447.6 268.2,453.41 258.24,459.23 " fill="none" id="ColorMapController-to-MatrixGraph" style="stroke:#A80036;stroke-width:1.0;stroke-dasharray:7.0,7.0;"/><polygon fill="#A80036" points="253.73,461.9,263.51,460.7378,258.0275,459.3443,259.421,453.8618,253.73,461.9" style="stroke:#A80036;stroke-width:1.0;"/><!--MD5=[33f872f74dc98a16992285e5ac876d16]
@startuml

skinparam classAttributeIconSize 0

class ClosenessPlacesController {
    +getClosenessPlacesByContinent()
}

class Company {
    -designation
    +getFreightNetwork()
}

class FreightNetwork {
    +getClosenessPlacesByContinent()
    +getContinentSubGraph()
    -getClosenessPlaces()
}

abstract class Location{
    -latitude
    -longitude
    -countryName
}

class Port {
    -identification
    -name
    -continent
    -toPortsDistance
}

class Capital {
    -name
}

class Country {
    -continent
    -name
    -borders
}

class MatrixGraph {}

abstract class CommonGraph {}

interface Graph <<interface>> {}

ClosenessPlacesController ..> Company
Company "1" - - "1" FreightNetwork : knows >
ColorMapController ..> FreightNetwork
Location <|- - Port
Location <|- - Capital
FreightNetwork "*" - - "1..*" Location : of >
Country "1" - - "1" Capital : has >
FreightNetwork ..> MatrixGraph
CommonGraph <|- MatrixGraph
CommonGraph - -> Graph
ColorMapController ..> Location
ColorMapController ..> Capital
ColorMapController ..> Port
ColorMapController ..> MatrixGraph


@enduml

PlantUML version 1.2021.11(Sat Oct 02 14:26:11 WEST 2021)
(GPL source distribution)
Java Runtime: OpenJDK Runtime Environment
JVM: OpenJDK 64-Bit Server VM
Default Encoding: UTF-8
Language: en
Country: US
--></g></svg>