<?xml version="1.0" encoding="UTF-8" standalone="no"?><svg xmlns="http://www.w3.org/2000/svg" xmlns:xlink="http://www.w3.org/1999/xlink" contentScriptType="application/ecmascript" contentStyleType="text/css" height="536px" preserveAspectRatio="none" style="width:1032px;height:536px;background:#FFFFFF;" version="1.1" viewBox="0 0 1032 536" width="1032px" zoomAndPan="magnify"><defs><filter height="300%" id="fv4ol52sb05wk" width="300%" x="-1" y="-1"><feGaussianBlur result="blurOut" stdDeviation="2.0"/><feColorMatrix in="blurOut" result="blurOut2" type="matrix" values="0 0 0 0 0 0 0 0 0 0 0 0 0 0 0 0 0 0 .4 0"/><feOffset dx="4.0" dy="4.0" in="blurOut2" result="blurOut3"/><feBlend in="SourceGraphic" in2="blurOut3" mode="normal"/></filter></defs><g><!--MD5=[387c7886ca19d97be437717f0ee466a0]
class ShipOccupancyRatesController--><rect codeLine="7" fill="#FEFECE" filter="url(#fv4ol52sb05wk)" height="67.6719" id="ShipOccupancyRatesController" style="stroke:#A80036;stroke-width:1.5;" width="539" x="205.5" y="7"/><ellipse cx="384.75" cy="23" fill="#ADD1B2" rx="11" ry="11" style="stroke:#A80036;stroke-width:1.0;"/><path d="M386.75,19.5 Q386.9531,19 387.1875,18.75 Q387.4219,18.5 387.6875,18.5 Q388.1563,18.5 388.4531,18.7813 Q388.75,19.0625 388.75,19.7188 L388.75,21.2813 Q388.75,21.9375 388.4688,22.2188 Q388.1875,22.5 387.75,22.5 Q387.3594,22.5 387.1094,22.3281 Q386.8594,22.1563 386.75,21.7031 Q386.7031,21.3906 386.5313,21.2188 Q386.2188,20.8906 385.6563,20.7031 Q385.0938,20.5 384.5313,20.5 Q383.8281,20.5 383.2344,20.7813 Q382.6563,21.0625 382.2031,21.6875 Q381.75,22.3125 381.75,23.1719 L381.75,24.0938 Q381.75,25.125 382.5938,25.8125 Q383.4375,26.5 384.9375,26.5 Q385.8281,26.5 386.4531,26.2969 Q386.8125,26.1875 387.2188,25.8281 Q387.4844,25.625 387.625,25.5625 Q387.7656,25.5 387.9375,25.5 Q388.2656,25.5 388.5,25.7656 Q388.75,26.0156 388.75,26.375 Q388.75,26.7188 388.4063,27.125 Q387.9063,27.7188 387.1094,28.0469 Q386.0625,28.5 384.7813,28.5 Q383.2813,28.5 382.0781,27.9063 Q381.1094,27.4375 380.4219,26.4219 Q379.75,25.4063 379.75,24.2031 L379.75,23.1094 Q379.75,21.8594 380.3438,20.7656 Q380.9531,19.6719 382,19.0938 Q383.0625,18.5 384.25,18.5 Q384.9688,18.5 385.5938,18.75 Q386.2188,19 386.75,19.5 Z " fill="#000000"/><text fill="#000000" font-family="sans-serif" font-size="12" lengthAdjust="spacing" textLength="172" x="405.25" y="27.9102">ShipOccupancyRatesController</text><line style="stroke:#A80036;stroke-width:1.5;" x1="206.5" x2="743.5" y1="39" y2="39"/><text fill="#000000" font-family="sans-serif" font-size="11" lengthAdjust="spacing" textLength="296" x="211.5" y="54.4189">-getShipOccupancyRateByCargoManifestID(cargoManifestID)</text><text fill="#000000" font-family="sans-serif" font-size="11" lengthAdjust="spacing" textLength="527" x="211.5" y="68.2549">-calculateOccupancyRate(maxCapacity, initialNumContainers, addedContainersNum, removedContainersNum)</text><!--MD5=[ea2206eefe09474e90beb17e18e6b3d8]
class ShipStore--><rect codeLine="12" fill="#FEFECE" filter="url(#fv4ol52sb05wk)" height="53.8359" id="ShipStore" style="stroke:#A80036;stroke-width:1.5;" width="162" x="7" y="323"/><ellipse cx="56.75" cy="339" fill="#ADD1B2" rx="11" ry="11" style="stroke:#A80036;stroke-width:1.0;"/><path d="M58.75,335.5 Q58.9531,335 59.1875,334.75 Q59.4219,334.5 59.6875,334.5 Q60.1563,334.5 60.4531,334.7813 Q60.75,335.0625 60.75,335.7188 L60.75,337.2813 Q60.75,337.9375 60.4688,338.2188 Q60.1875,338.5 59.75,338.5 Q59.3594,338.5 59.1094,338.3281 Q58.8594,338.1563 58.75,337.7031 Q58.7031,337.3906 58.5313,337.2188 Q58.2188,336.8906 57.6563,336.7031 Q57.0938,336.5 56.5313,336.5 Q55.8281,336.5 55.2344,336.7813 Q54.6563,337.0625 54.2031,337.6875 Q53.75,338.3125 53.75,339.1719 L53.75,340.0938 Q53.75,341.125 54.5938,341.8125 Q55.4375,342.5 56.9375,342.5 Q57.8281,342.5 58.4531,342.2969 Q58.8125,342.1875 59.2188,341.8281 Q59.4844,341.625 59.625,341.5625 Q59.7656,341.5 59.9375,341.5 Q60.2656,341.5 60.5,341.7656 Q60.75,342.0156 60.75,342.375 Q60.75,342.7188 60.4063,343.125 Q59.9063,343.7188 59.1094,344.0469 Q58.0625,344.5 56.7813,344.5 Q55.2813,344.5 54.0781,343.9063 Q53.1094,343.4375 52.4219,342.4219 Q51.75,341.4063 51.75,340.2031 L51.75,339.1094 Q51.75,337.8594 52.3438,336.7656 Q52.9531,335.6719 54,335.0938 Q55.0625,334.5 56.25,334.5 Q56.9688,334.5 57.5938,334.75 Q58.2188,335 58.75,335.5 Z " fill="#000000"/><text fill="#000000" font-family="sans-serif" font-size="12" lengthAdjust="spacing" textLength="54" x="77.25" y="343.9102">ShipStore</text><line style="stroke:#A80036;stroke-width:1.5;" x1="8" x2="168" y1="355" y2="355"/><text fill="#000000" font-family="sans-serif" font-size="11" lengthAdjust="spacing" textLength="150" x="13" y="370.4189">-getMaxCapacityByMmsi(mmsi)</text><!--MD5=[85186c8d8d8def172f594263fe18b8df]
class ShipTripStore--><rect codeLine="16" fill="#FEFECE" filter="url(#fv4ol52sb05wk)" height="109.1797" id="ShipTripStore" style="stroke:#A80036;stroke-width:1.5;" width="316" x="112" y="136"/><ellipse cx="228.25" cy="152" fill="#ADD1B2" rx="11" ry="11" style="stroke:#A80036;stroke-width:1.0;"/><path d="M230.25,148.5 Q230.4531,148 230.6875,147.75 Q230.9219,147.5 231.1875,147.5 Q231.6563,147.5 231.9531,147.7813 Q232.25,148.0625 232.25,148.7188 L232.25,150.2813 Q232.25,150.9375 231.9688,151.2188 Q231.6875,151.5 231.25,151.5 Q230.8594,151.5 230.6094,151.3281 Q230.3594,151.1563 230.25,150.7031 Q230.2031,150.3906 230.0313,150.2188 Q229.7188,149.8906 229.1563,149.7031 Q228.5938,149.5 228.0313,149.5 Q227.3281,149.5 226.7344,149.7813 Q226.1563,150.0625 225.7031,150.6875 Q225.25,151.3125 225.25,152.1719 L225.25,153.0938 Q225.25,154.125 226.0938,154.8125 Q226.9375,155.5 228.4375,155.5 Q229.3281,155.5 229.9531,155.2969 Q230.3125,155.1875 230.7188,154.8281 Q230.9844,154.625 231.125,154.5625 Q231.2656,154.5 231.4375,154.5 Q231.7656,154.5 232,154.7656 Q232.25,155.0156 232.25,155.375 Q232.25,155.7188 231.9063,156.125 Q231.4063,156.7188 230.6094,157.0469 Q229.5625,157.5 228.2813,157.5 Q226.7813,157.5 225.5781,156.9063 Q224.6094,156.4375 223.9219,155.4219 Q223.25,154.4063 223.25,153.2031 L223.25,152.1094 Q223.25,150.8594 223.8438,149.7656 Q224.4531,148.6719 225.5,148.0938 Q226.5625,147.5 227.75,147.5 Q228.4688,147.5 229.0938,147.75 Q229.7188,148 230.25,148.5 Z " fill="#000000"/><text fill="#000000" font-family="sans-serif" font-size="12" lengthAdjust="spacing" textLength="75" x="248.75" y="156.9102">ShipTripStore</text><line style="stroke:#A80036;stroke-width:1.5;" x1="113" x2="427" y1="168" y2="168"/><text fill="#000000" font-family="sans-serif" font-size="11" lengthAdjust="spacing" textLength="304" x="118" y="183.4189">-getMmsiOfChosenShip(databaseConnection, cargoManifestID)</text><text fill="#000000" font-family="sans-serif" font-size="11" lengthAdjust="spacing" textLength="236" x="118" y="197.2549">-getShipTripByCargoManifestID(cargoManifestID)</text><text fill="#000000" font-family="sans-serif" font-size="11" lengthAdjust="spacing" textLength="231" x="118" y="211.0908">-getInitialNumContainersByShipTripID(shipTripID)</text><text fill="#000000" font-family="sans-serif" font-size="11" lengthAdjust="spacing" textLength="252" x="118" y="224.9268">-getLoadingCargoManifestIDByShipTripID(shipTripID)</text><text fill="#000000" font-family="sans-serif" font-size="11" lengthAdjust="spacing" textLength="261" x="118" y="238.7627">-getUnloadingCargoManifestIDByShipTripID(shipTripID)</text><!--MD5=[4ebfed50a2843d6810d5f28a3ed1348c]
class CargoManifestStore--><rect codeLine="24" fill="#FEFECE" filter="url(#fv4ol52sb05wk)" height="67.6719" id="CargoManifestStore" style="stroke:#A80036;stroke-width:1.5;" width="433" x="463.5" y="156.5"/><ellipse cx="621.25" cy="172.5" fill="#ADD1B2" rx="11" ry="11" style="stroke:#A80036;stroke-width:1.0;"/><path d="M623.25,169 Q623.4531,168.5 623.6875,168.25 Q623.9219,168 624.1875,168 Q624.6563,168 624.9531,168.2813 Q625.25,168.5625 625.25,169.2188 L625.25,170.7813 Q625.25,171.4375 624.9688,171.7188 Q624.6875,172 624.25,172 Q623.8594,172 623.6094,171.8281 Q623.3594,171.6563 623.25,171.2031 Q623.2031,170.8906 623.0313,170.7188 Q622.7188,170.3906 622.1563,170.2031 Q621.5938,170 621.0313,170 Q620.3281,170 619.7344,170.2813 Q619.1563,170.5625 618.7031,171.1875 Q618.25,171.8125 618.25,172.6719 L618.25,173.5938 Q618.25,174.625 619.0938,175.3125 Q619.9375,176 621.4375,176 Q622.3281,176 622.9531,175.7969 Q623.3125,175.6875 623.7188,175.3281 Q623.9844,175.125 624.125,175.0625 Q624.2656,175 624.4375,175 Q624.7656,175 625,175.2656 Q625.25,175.5156 625.25,175.875 Q625.25,176.2188 624.9063,176.625 Q624.4063,177.2188 623.6094,177.5469 Q622.5625,178 621.2813,178 Q619.7813,178 618.5781,177.4063 Q617.6094,176.9375 616.9219,175.9219 Q616.25,174.9063 616.25,173.7031 L616.25,172.6094 Q616.25,171.3594 616.8438,170.2656 Q617.4531,169.1719 618.5,168.5938 Q619.5625,168 620.75,168 Q621.4688,168 622.0938,168.25 Q622.7188,168.5 623.25,169 Z " fill="#000000"/><text fill="#000000" font-family="sans-serif" font-size="12" lengthAdjust="spacing" textLength="109" x="641.75" y="177.4102">CargoManifestStore</text><line style="stroke:#A80036;stroke-width:1.5;" x1="464.5" x2="895.5" y1="188.5" y2="188.5"/><text fill="#000000" font-family="sans-serif" font-size="11" lengthAdjust="spacing" textLength="387" x="469.5" y="203.9189">-getNumOfAddedContainersByLoadingCargoManifestID(loadingCargoManifestID)</text><text fill="#000000" font-family="sans-serif" font-size="11" lengthAdjust="spacing" textLength="421" x="469.5" y="217.7549">-getNumOfRemovedContainersByUnloadingCargoManifestID(unloadingCargoManifestID)</text><!--MD5=[02e4b9b7573f1156f41e60aa5b4e25a4]
class Company--><rect codeLine="29" fill="#FEFECE" filter="url(#fv4ol52sb05wk)" height="53.8359" id="Company" style="stroke:#A80036;stroke-width:1.5;" width="86" x="932" y="163.5"/><ellipse cx="947.45" cy="179.5" fill="#ADD1B2" rx="11" ry="11" style="stroke:#A80036;stroke-width:1.0;"/><path d="M949.45,176 Q949.6531,175.5 949.8875,175.25 Q950.1219,175 950.3875,175 Q950.8563,175 951.1531,175.2813 Q951.45,175.5625 951.45,176.2188 L951.45,177.7813 Q951.45,178.4375 951.1688,178.7188 Q950.8875,179 950.45,179 Q950.0594,179 949.8094,178.8281 Q949.5594,178.6563 949.45,178.2031 Q949.4031,177.8906 949.2313,177.7188 Q948.9188,177.3906 948.3563,177.2031 Q947.7938,177 947.2313,177 Q946.5281,177 945.9344,177.2813 Q945.3563,177.5625 944.9031,178.1875 Q944.45,178.8125 944.45,179.6719 L944.45,180.5938 Q944.45,181.625 945.2938,182.3125 Q946.1375,183 947.6375,183 Q948.5281,183 949.1531,182.7969 Q949.5125,182.6875 949.9188,182.3281 Q950.1844,182.125 950.325,182.0625 Q950.4656,182 950.6375,182 Q950.9656,182 951.2,182.2656 Q951.45,182.5156 951.45,182.875 Q951.45,183.2188 951.1063,183.625 Q950.6063,184.2188 949.8094,184.5469 Q948.7625,185 947.4813,185 Q945.9813,185 944.7781,184.4063 Q943.8094,183.9375 943.1219,182.9219 Q942.45,181.9063 942.45,180.7031 L942.45,179.6094 Q942.45,178.3594 943.0438,177.2656 Q943.6531,176.1719 944.7,175.5938 Q945.7625,175 946.95,175 Q947.6688,175 948.2938,175.25 Q948.9188,175.5 949.45,176 Z " fill="#000000"/><text fill="#000000" font-family="sans-serif" font-size="12" lengthAdjust="spacing" textLength="53" x="961.55" y="184.4102">Company</text><line style="stroke:#A80036;stroke-width:1.5;" x1="933" x2="1017" y1="195.5" y2="195.5"/><text fill="#000000" font-family="sans-serif" font-size="11" lengthAdjust="spacing" textLength="74" x="938" y="210.9189">-getShipStore()</text><!--MD5=[0dc7f2ddb409b58bcf52b12238c25399]
class Ship--><rect codeLine="33" fill="#FEFECE" filter="url(#fv4ol52sb05wk)" height="67.6719" id="Ship" style="stroke:#A80036;stroke-width:1.5;" width="57" x="59.5" y="455"/><ellipse cx="74.5" cy="471" fill="#ADD1B2" rx="11" ry="11" style="stroke:#A80036;stroke-width:1.0;"/><path d="M76.5,467.5 Q76.7031,467 76.9375,466.75 Q77.1719,466.5 77.4375,466.5 Q77.9063,466.5 78.2031,466.7813 Q78.5,467.0625 78.5,467.7188 L78.5,469.2813 Q78.5,469.9375 78.2188,470.2188 Q77.9375,470.5 77.5,470.5 Q77.1094,470.5 76.8594,470.3281 Q76.6094,470.1563 76.5,469.7031 Q76.4531,469.3906 76.2813,469.2188 Q75.9688,468.8906 75.4063,468.7031 Q74.8438,468.5 74.2813,468.5 Q73.5781,468.5 72.9844,468.7813 Q72.4063,469.0625 71.9531,469.6875 Q71.5,470.3125 71.5,471.1719 L71.5,472.0938 Q71.5,473.125 72.3438,473.8125 Q73.1875,474.5 74.6875,474.5 Q75.5781,474.5 76.2031,474.2969 Q76.5625,474.1875 76.9688,473.8281 Q77.2344,473.625 77.375,473.5625 Q77.5156,473.5 77.6875,473.5 Q78.0156,473.5 78.25,473.7656 Q78.5,474.0156 78.5,474.375 Q78.5,474.7188 78.1563,475.125 Q77.6563,475.7188 76.8594,476.0469 Q75.8125,476.5 74.5313,476.5 Q73.0313,476.5 71.8281,475.9063 Q70.8594,475.4375 70.1719,474.4219 Q69.5,473.4063 69.5,472.2031 L69.5,471.1094 Q69.5,469.8594 70.0938,468.7656 Q70.7031,467.6719 71.75,467.0938 Q72.8125,466.5 74,466.5 Q74.7188,466.5 75.3438,466.75 Q75.9688,467 76.5,467.5 Z " fill="#000000"/><text fill="#000000" font-family="sans-serif" font-size="12" lengthAdjust="spacing" textLength="25" x="88.5" y="475.9102">Ship</text><line style="stroke:#A80036;stroke-width:1.5;" x1="60.5" x2="115.5" y1="487" y2="487"/><text fill="#000000" font-family="sans-serif" font-size="11" lengthAdjust="spacing" textLength="29" x="65.5" y="502.4189">-MMSI</text><text fill="#000000" font-family="sans-serif" font-size="11" lengthAdjust="spacing" textLength="32" x="65.5" y="516.2549">-cargo</text><!--MD5=[0b4cd8892e13de84c891c5e79895f9c9]
link ShipOccupancyRatesController to Company--><path codeLine="52" d="M735.47,75.03 C796.11,88.83 858.98,108.36 914,136 C926,142.03 937.52,150.99 947.26,159.86 " fill="none" id="ShipOccupancyRatesController-to-Company" style="stroke:#A80036;stroke-width:1.0;stroke-dasharray:7.0,7.0;"/><polygon fill="#A80036" points="951.04,163.38,947.191,154.3144,947.3852,159.9679,941.7317,160.1621,951.04,163.38" style="stroke:#A80036;stroke-width:1.0;"/><!--MD5=[bbbb86c43c2582ff89365539fcaff734]
link ShipOccupancyRatesController to ShipStore--><path codeLine="53" d="M245.01,75.02 C177.1,89.69 115.19,109.71 94,136 C52.19,187.86 66.23,272.14 78.23,317.58 " fill="none" id="ShipOccupancyRatesController-to-ShipStore" style="stroke:#A80036;stroke-width:1.0;stroke-dasharray:7.0,7.0;"/><polygon fill="#A80036" points="79.61,322.66,81.1059,312.9254,78.2968,317.8355,73.3867,315.0265,79.61,322.66" style="stroke:#A80036;stroke-width:1.0;"/><!--MD5=[461a6aa12ed8c7a21b075f924a6c42a5]
link ShipOccupancyRatesController to ShipTripStore--><path codeLine="54" d="M428.99,75.1 C405.35,92.11 375.88,113.32 348.75,132.84 " fill="none" id="ShipOccupancyRatesController-to-ShipTripStore" style="stroke:#A80036;stroke-width:1.0;stroke-dasharray:7.0,7.0;"/><polygon fill="#A80036" points="344.42,135.96,354.0586,133.9358,348.4741,133.0336,349.3763,127.4491,344.42,135.96" style="stroke:#A80036;stroke-width:1.0;"/><!--MD5=[2e303f272ad33883309a53249fb7ca2a]
link ShipOccupancyRatesController to CargoManifestStore--><path codeLine="55" d="M521.01,75.1 C553.2,98.27 596.22,129.22 629.39,153.08 " fill="none" id="ShipOccupancyRatesController-to-CargoManifestStore" style="stroke:#A80036;stroke-width:1.0;stroke-dasharray:7.0,7.0;"/><polygon fill="#A80036" points="633.79,156.25,628.8337,147.7391,629.7359,153.3236,624.1514,154.2258,633.79,156.25" style="stroke:#A80036;stroke-width:1.0;"/><!--MD5=[6b4a94d80660e97c6833bde801bd4c89]
link Company to ShipStore--><path codeLine="56" d="M951.9,217.65 C941.38,227.87 928.13,238.64 914,245 C781.85,304.43 350.03,334.56 169,344.83 " fill="none" id="Company-ShipStore" style="stroke:#A80036;stroke-width:1.0;"/><polygon fill="#000000" points="800.0647,284.9775,809.464,286.4281,808.5215,280.6263,800.0647,284.9775" style="stroke:#000000;stroke-width:1.0;"/><text fill="#000000" font-family="sans-serif" font-size="13" lengthAdjust="spacing" textLength="28" x="814" y="289.4951">uses</text><text fill="#000000" font-family="sans-serif" font-size="13" lengthAdjust="spacing" textLength="7" x="939.0813" y="238.8906">1</text><text fill="#000000" font-family="sans-serif" font-size="13" lengthAdjust="spacing" textLength="7" x="177.0539" y="341.0944">1</text><!--MD5=[f04e04ecc6998d67821b33eb17256457]
link ShipStore to Ship--><path codeLine="57" d="M88,377.09 C88,399.22 88,431.08 88,454.98 " fill="none" id="ShipStore-Ship" style="stroke:#A80036;stroke-width:1.0;"/><polygon fill="#000000" points="93,421.1758,95.9389,412.1307,90.0611,412.1307,93,421.1758" style="stroke:#000000;stroke-width:1.0;"/><text fill="#000000" font-family="sans-serif" font-size="13" lengthAdjust="spacing" textLength="28" x="102" y="421.4951">uses</text><text fill="#000000" font-family="sans-serif" font-size="13" lengthAdjust="spacing" textLength="7" x="80.2344" y="398.3175">1</text><text fill="#000000" font-family="sans-serif" font-size="13" lengthAdjust="spacing" textLength="20" x="66.0313" y="444.2693">1..*</text><!--MD5=[fdd8bcd5a9cc2a8cab1b0ffedd10e5c0]
@startuml

hide empty methods
hide empty attributes
'left to right direction
skinparam classAttributeIconSize 0

class ShipOccupancyRatesController{
- getShipOccupancyRateByCargoManifestID(cargoManifestID)
- calculateOccupancyRate(maxCapacity, initialNumContainers, addedContainersNum, removedContainersNum)
}

class ShipStore{
- getMaxCapacityByMmsi(mmsi)
}

class ShipTripStore{
- getMmsiOfChosenShip(databaseConnection, cargoManifestID)
- getShipTripByCargoManifestID(cargoManifestID)
- getInitialNumContainersByShipTripID(shipTripID)
- getLoadingCargoManifestIDByShipTripID(shipTripID)
- getUnloadingCargoManifestIDByShipTripID(shipTripID)
}

class CargoManifestStore{
- getNumOfAddedContainersByLoadingCargoManifestID(loadingCargoManifestID)
- getNumOfRemovedContainersByUnloadingCargoManifestID(unloadingCargoManifestID)
}

class Company{
- getShipStore()
}

class Ship {
- MMSI
- cargo
}

'class ShipsStore{
'- findShipByAnyCode(code)
'}

'class ShipsBST{
'- findShipByMmsi(MMSI)
'}

'class BST{}

'preciso do cargo manifest com o id
'preciso da ship trip pq ela contem o cargo manifest e o mmsi para o ship
'vou procurar o ship com o mmsi da ship trip

ShipOccupancyRatesController ..> Company
ShipOccupancyRatesController ..> ShipStore
ShipOccupancyRatesController ..> ShipTripStore
ShipOccupancyRatesController ..> CargoManifestStore
Company "1" - - "1" ShipStore : uses >
ShipStore "1" - - "1..*" Ship : uses >

@enduml

@startuml

hide empty methods
hide empty attributes
skinparam classAttributeIconSize 0

class ShipOccupancyRatesController{
- getShipOccupancyRateByCargoManifestID(cargoManifestID)
- calculateOccupancyRate(maxCapacity, initialNumContainers, addedContainersNum, removedContainersNum)
}

class ShipStore{
- getMaxCapacityByMmsi(mmsi)
}

class ShipTripStore{
- getMmsiOfChosenShip(databaseConnection, cargoManifestID)
- getShipTripByCargoManifestID(cargoManifestID)
- getInitialNumContainersByShipTripID(shipTripID)
- getLoadingCargoManifestIDByShipTripID(shipTripID)
- getUnloadingCargoManifestIDByShipTripID(shipTripID)
}

class CargoManifestStore{
- getNumOfAddedContainersByLoadingCargoManifestID(loadingCargoManifestID)
- getNumOfRemovedContainersByUnloadingCargoManifestID(unloadingCargoManifestID)
}

class Company{
- getShipStore()
}

class Ship {
- MMSI
- cargo
}





ShipOccupancyRatesController ..> Company
ShipOccupancyRatesController ..> ShipStore
ShipOccupancyRatesController ..> ShipTripStore
ShipOccupancyRatesController ..> CargoManifestStore
Company "1" - - "1" ShipStore : uses >
ShipStore "1" - - "1..*" Ship : uses >

@enduml

PlantUML version 1.2021.11(Sat Oct 02 14:26:11 BST 2021)
(GPL source distribution)
Java Runtime: OpenJDK Runtime Environment
JVM: OpenJDK 64-Bit Server VM
Default Encoding: Cp1252
Language: pt
Country: PT
--></g></svg>