<?xml version="1.0" encoding="UTF-8" standalone="no"?><svg xmlns="http://www.w3.org/2000/svg" xmlns:xlink="http://www.w3.org/1999/xlink" contentScriptType="application/ecmascript" contentStyleType="text/css" height="462px" preserveAspectRatio="none" style="width:890px;height:462px;background:#FFFFFF;" version="1.1" viewBox="0 0 890 462" width="890px" zoomAndPan="magnify"><defs><filter height="300%" id="f9a8n0f3ldlwq" width="300%" x="-1" y="-1"><feGaussianBlur result="blurOut" stdDeviation="2.0"/><feColorMatrix in="blurOut" result="blurOut2" type="matrix" values="0 0 0 0 0 0 0 0 0 0 0 0 0 0 0 0 0 0 .4 0"/><feOffset dx="4.0" dy="4.0" in="blurOut2" result="blurOut3"/><feBlend in="SourceGraphic" in2="blurOut3" mode="normal"/></filter></defs><g><!--MD5=[387c7886ca19d97be437717f0ee466a0]
class ShipOccupancyRatesController--><rect codeLine="7" fill="#FEFECE" filter="url(#f9a8n0f3ldlwq)" height="89.5078" id="ShipOccupancyRatesController" style="stroke:#A80036;stroke-width:1.5;" width="519" x="42" y="7"/><ellipse cx="211.25" cy="23" fill="#ADD1B2" rx="11" ry="11" style="stroke:#A80036;stroke-width:1.0;"/><path d="M213.25,19.5 Q213.4531,19 213.6875,18.75 Q213.9219,18.5 214.1875,18.5 Q214.6563,18.5 214.9531,18.7813 Q215.25,19.0625 215.25,19.7188 L215.25,21.2813 Q215.25,21.9375 214.9688,22.2188 Q214.6875,22.5 214.25,22.5 Q213.8594,22.5 213.6094,22.3281 Q213.3594,22.1563 213.25,21.7031 Q213.2031,21.3906 213.0313,21.2188 Q212.7188,20.8906 212.1563,20.7031 Q211.5938,20.5 211.0313,20.5 Q210.3281,20.5 209.7344,20.7813 Q209.1563,21.0625 208.7031,21.6875 Q208.25,22.3125 208.25,23.1719 L208.25,24.0938 Q208.25,25.125 209.0938,25.8125 Q209.9375,26.5 211.4375,26.5 Q212.3281,26.5 212.9531,26.2969 Q213.3125,26.1875 213.7188,25.8281 Q213.9844,25.625 214.125,25.5625 Q214.2656,25.5 214.4375,25.5 Q214.7656,25.5 215,25.7656 Q215.25,26.0156 215.25,26.375 Q215.25,26.7188 214.9063,27.125 Q214.4063,27.7188 213.6094,28.0469 Q212.5625,28.5 211.2813,28.5 Q209.7813,28.5 208.5781,27.9063 Q207.6094,27.4375 206.9219,26.4219 Q206.25,25.4063 206.25,24.2031 L206.25,23.1094 Q206.25,21.8594 206.8438,20.7656 Q207.4531,19.6719 208.5,19.0938 Q209.5625,18.5 210.75,18.5 Q211.4688,18.5 212.0938,18.75 Q212.7188,19 213.25,19.5 Z " fill="#000000"/><text fill="#000000" font-family="sans-serif" font-size="12" lengthAdjust="spacing" textLength="172" x="231.75" y="27.9102">ShipOccupancyRatesController</text><line style="stroke:#A80036;stroke-width:1.5;" x1="43" x2="560" y1="39" y2="39"/><text fill="#000000" font-family="sans-serif" font-size="11" lengthAdjust="spacing" textLength="48" x="48" y="54.4189">-company</text><line style="stroke:#A80036;stroke-width:1.5;" x1="43" x2="560" y1="60.8359" y2="60.8359"/><text fill="#000000" font-family="sans-serif" font-size="11" lengthAdjust="spacing" textLength="507" x="48" y="76.2549">-calculateOccupancyRate(maxCapacity, initialNumContainers, alreadyAddedRemovedContainersTripNum)</text><text fill="#000000" font-family="sans-serif" font-size="11" lengthAdjust="spacing" textLength="296" x="48" y="90.0908">-getShipOccupancyRateByCargoManifestID(cargoManifestID)</text><!--MD5=[80429a8c3a07863d2b9a5a642579b4cd]
class ShipStoreDB--><rect codeLine="13" fill="#FEFECE" filter="url(#f9a8n0f3ldlwq)" height="53.8359" id="ShipStoreDB" style="stroke:#A80036;stroke-width:1.5;" width="167" x="7" y="381"/><ellipse cx="50.8" cy="397" fill="#ADD1B2" rx="11" ry="11" style="stroke:#A80036;stroke-width:1.0;"/><path d="M52.8,393.5 Q53.0031,393 53.2375,392.75 Q53.4719,392.5 53.7375,392.5 Q54.2063,392.5 54.5031,392.7813 Q54.8,393.0625 54.8,393.7188 L54.8,395.2813 Q54.8,395.9375 54.5188,396.2188 Q54.2375,396.5 53.8,396.5 Q53.4094,396.5 53.1594,396.3281 Q52.9094,396.1563 52.8,395.7031 Q52.7531,395.3906 52.5813,395.2188 Q52.2688,394.8906 51.7063,394.7031 Q51.1438,394.5 50.5813,394.5 Q49.8781,394.5 49.2844,394.7813 Q48.7063,395.0625 48.2531,395.6875 Q47.8,396.3125 47.8,397.1719 L47.8,398.0938 Q47.8,399.125 48.6438,399.8125 Q49.4875,400.5 50.9875,400.5 Q51.8781,400.5 52.5031,400.2969 Q52.8625,400.1875 53.2688,399.8281 Q53.5344,399.625 53.675,399.5625 Q53.8156,399.5 53.9875,399.5 Q54.3156,399.5 54.55,399.7656 Q54.8,400.0156 54.8,400.375 Q54.8,400.7188 54.4563,401.125 Q53.9563,401.7188 53.1594,402.0469 Q52.1125,402.5 50.8313,402.5 Q49.3313,402.5 48.1281,401.9063 Q47.1594,401.4375 46.4719,400.4219 Q45.8,399.4063 45.8,398.2031 L45.8,397.1094 Q45.8,395.8594 46.3938,394.7656 Q47.0031,393.6719 48.05,393.0938 Q49.1125,392.5 50.3,392.5 Q51.0188,392.5 51.6438,392.75 Q52.2688,393 52.8,393.5 Z " fill="#000000"/><text fill="#000000" font-family="sans-serif" font-size="12" lengthAdjust="spacing" textLength="71" x="71.2" y="401.9102">ShipStoreDB</text><line style="stroke:#A80036;stroke-width:1.5;" x1="8" x2="173" y1="413" y2="413"/><text fill="#000000" font-family="sans-serif" font-size="11" lengthAdjust="spacing" textLength="155" x="13" y="428.4189">-getShipCargo(cargoManifestID)</text><!--MD5=[8d7ca94d2ddad896fa1b7a151fdd57c4]
class ShipTripStoreDB--><rect codeLine="17" fill="#FEFECE" filter="url(#f9a8n0f3ldlwq)" height="81.5078" id="ShipTripStoreDB" style="stroke:#A80036;stroke-width:1.5;" width="356" x="520.5" y="367"/><ellipse cx="648.25" cy="383" fill="#ADD1B2" rx="11" ry="11" style="stroke:#A80036;stroke-width:1.0;"/><path d="M650.25,379.5 Q650.4531,379 650.6875,378.75 Q650.9219,378.5 651.1875,378.5 Q651.6563,378.5 651.9531,378.7813 Q652.25,379.0625 652.25,379.7188 L652.25,381.2813 Q652.25,381.9375 651.9688,382.2188 Q651.6875,382.5 651.25,382.5 Q650.8594,382.5 650.6094,382.3281 Q650.3594,382.1563 650.25,381.7031 Q650.2031,381.3906 650.0313,381.2188 Q649.7188,380.8906 649.1563,380.7031 Q648.5938,380.5 648.0313,380.5 Q647.3281,380.5 646.7344,380.7813 Q646.1563,381.0625 645.7031,381.6875 Q645.25,382.3125 645.25,383.1719 L645.25,384.0938 Q645.25,385.125 646.0938,385.8125 Q646.9375,386.5 648.4375,386.5 Q649.3281,386.5 649.9531,386.2969 Q650.3125,386.1875 650.7188,385.8281 Q650.9844,385.625 651.125,385.5625 Q651.2656,385.5 651.4375,385.5 Q651.7656,385.5 652,385.7656 Q652.25,386.0156 652.25,386.375 Q652.25,386.7188 651.9063,387.125 Q651.4063,387.7188 650.6094,388.0469 Q649.5625,388.5 648.2813,388.5 Q646.7813,388.5 645.5781,387.9063 Q644.6094,387.4375 643.9219,386.4219 Q643.25,385.4063 643.25,384.2031 L643.25,383.1094 Q643.25,381.8594 643.8438,380.7656 Q644.4531,379.6719 645.5,379.0938 Q646.5625,378.5 647.75,378.5 Q648.4688,378.5 649.0938,378.75 Q649.7188,379 650.25,379.5 Z " fill="#000000"/><text fill="#000000" font-family="sans-serif" font-size="12" lengthAdjust="spacing" textLength="92" x="668.75" y="387.9102">ShipTripStoreDB</text><line style="stroke:#A80036;stroke-width:1.5;" x1="521.5" x2="875.5" y1="399" y2="399"/><text fill="#000000" font-family="sans-serif" font-size="11" lengthAdjust="spacing" textLength="310" x="526.5" y="414.4189">-getAddedRemovedContainersShipTripMoment(cargoManifestID)</text><text fill="#000000" font-family="sans-serif" font-size="11" lengthAdjust="spacing" textLength="253" x="526.5" y="428.2549">-getEstDepartureDateFromShipTrip(cargoManifestID)</text><text fill="#000000" font-family="sans-serif" font-size="11" lengthAdjust="spacing" textLength="344" x="526.5" y="442.0908">-getInitialNumContainersPerShipTrip(cargoManifestID,estDepartureDate)</text><!--MD5=[9287bc2a51302962a18a68bfc2848f3a]
class CargoManifestStoreDB--><rect codeLine="23" fill="#FEFECE" filter="url(#f9a8n0f3ldlwq)" height="53.8359" id="CargoManifestStoreDB" style="stroke:#A80036;stroke-width:1.5;" width="276" x="209.5" y="381"/><ellipse cx="280.25" cy="397" fill="#ADD1B2" rx="11" ry="11" style="stroke:#A80036;stroke-width:1.0;"/><path d="M282.25,393.5 Q282.4531,393 282.6875,392.75 Q282.9219,392.5 283.1875,392.5 Q283.6563,392.5 283.9531,392.7813 Q284.25,393.0625 284.25,393.7188 L284.25,395.2813 Q284.25,395.9375 283.9688,396.2188 Q283.6875,396.5 283.25,396.5 Q282.8594,396.5 282.6094,396.3281 Q282.3594,396.1563 282.25,395.7031 Q282.2031,395.3906 282.0313,395.2188 Q281.7188,394.8906 281.1563,394.7031 Q280.5938,394.5 280.0313,394.5 Q279.3281,394.5 278.7344,394.7813 Q278.1563,395.0625 277.7031,395.6875 Q277.25,396.3125 277.25,397.1719 L277.25,398.0938 Q277.25,399.125 278.0938,399.8125 Q278.9375,400.5 280.4375,400.5 Q281.3281,400.5 281.9531,400.2969 Q282.3125,400.1875 282.7188,399.8281 Q282.9844,399.625 283.125,399.5625 Q283.2656,399.5 283.4375,399.5 Q283.7656,399.5 284,399.7656 Q284.25,400.0156 284.25,400.375 Q284.25,400.7188 283.9063,401.125 Q283.4063,401.7188 282.6094,402.0469 Q281.5625,402.5 280.2813,402.5 Q278.7813,402.5 277.5781,401.9063 Q276.6094,401.4375 275.9219,400.4219 Q275.25,399.4063 275.25,398.2031 L275.25,397.1094 Q275.25,395.8594 275.8438,394.7656 Q276.4531,393.6719 277.5,393.0938 Q278.5625,392.5 279.75,392.5 Q280.4688,392.5 281.0938,392.75 Q281.7188,393 282.25,393.5 Z " fill="#000000"/><text fill="#000000" font-family="sans-serif" font-size="12" lengthAdjust="spacing" textLength="126" x="300.75" y="401.9102">CargoManifestStoreDB</text><line style="stroke:#A80036;stroke-width:1.5;" x1="210.5" x2="484.5" y1="413" y2="413"/><text fill="#000000" font-family="sans-serif" font-size="11" lengthAdjust="spacing" textLength="264" x="215.5" y="428.4189">-getNumContainersPerCargoManifest(cargoManifestID)</text><!--MD5=[02e4b9b7573f1156f41e60aa5b4e25a4]
class Company--><rect codeLine="27" fill="#FEFECE" filter="url(#f9a8n0f3ldlwq)" height="131.0156" id="Company" style="stroke:#A80036;stroke-width:1.5;" width="149" x="292" y="158"/><ellipse cx="335.8" cy="174" fill="#ADD1B2" rx="11" ry="11" style="stroke:#A80036;stroke-width:1.0;"/><path d="M337.8,170.5 Q338.0031,170 338.2375,169.75 Q338.4719,169.5 338.7375,169.5 Q339.2063,169.5 339.5031,169.7813 Q339.8,170.0625 339.8,170.7188 L339.8,172.2813 Q339.8,172.9375 339.5188,173.2188 Q339.2375,173.5 338.8,173.5 Q338.4094,173.5 338.1594,173.3281 Q337.9094,173.1563 337.8,172.7031 Q337.7531,172.3906 337.5813,172.2188 Q337.2688,171.8906 336.7063,171.7031 Q336.1438,171.5 335.5813,171.5 Q334.8781,171.5 334.2844,171.7813 Q333.7063,172.0625 333.2531,172.6875 Q332.8,173.3125 332.8,174.1719 L332.8,175.0938 Q332.8,176.125 333.6438,176.8125 Q334.4875,177.5 335.9875,177.5 Q336.8781,177.5 337.5031,177.2969 Q337.8625,177.1875 338.2688,176.8281 Q338.5344,176.625 338.675,176.5625 Q338.8156,176.5 338.9875,176.5 Q339.3156,176.5 339.55,176.7656 Q339.8,177.0156 339.8,177.375 Q339.8,177.7188 339.4563,178.125 Q338.9563,178.7188 338.1594,179.0469 Q337.1125,179.5 335.8313,179.5 Q334.3313,179.5 333.1281,178.9063 Q332.1594,178.4375 331.4719,177.4219 Q330.8,176.4063 330.8,175.2031 L330.8,174.1094 Q330.8,172.8594 331.3938,171.7656 Q332.0031,170.6719 333.05,170.0938 Q334.1125,169.5 335.3,169.5 Q336.0188,169.5 336.6438,169.75 Q337.2688,170 337.8,170.5 Z " fill="#000000"/><text fill="#000000" font-family="sans-serif" font-size="12" lengthAdjust="spacing" textLength="53" x="356.2" y="178.9102">Company</text><line style="stroke:#A80036;stroke-width:1.5;" x1="293" x2="440" y1="190" y2="190"/><text fill="#000000" font-family="sans-serif" font-size="11" lengthAdjust="spacing" textLength="64" x="298" y="205.4189">-shipStoreDB</text><text fill="#000000" font-family="sans-serif" font-size="11" lengthAdjust="spacing" textLength="82" x="298" y="219.2549">-shipTripStoreDB</text><text fill="#000000" font-family="sans-serif" font-size="11" lengthAdjust="spacing" textLength="113" x="298" y="233.0908">-cargoManifestStoreDB</text><line style="stroke:#A80036;stroke-width:1.5;" x1="293" x2="440" y1="239.5078" y2="239.5078"/><text fill="#000000" font-family="sans-serif" font-size="11" lengthAdjust="spacing" textLength="106" x="298" y="254.9268">-getShipTripStoreDB()</text><text fill="#000000" font-family="sans-serif" font-size="11" lengthAdjust="spacing" textLength="88" x="298" y="268.7627">-getShipStoreDB()</text><text fill="#000000" font-family="sans-serif" font-size="11" lengthAdjust="spacing" textLength="137" x="298" y="282.5986">-getCargoManifestStoreDB()</text><!--MD5=[0b4cd8892e13de84c891c5e79895f9c9]
link ShipOccupancyRatesController to Company--><path codeLine="36" d="M318.41,97.09 C324.96,114.18 332.62,134.16 339.88,153.09 " fill="none" id="ShipOccupancyRatesController-to-Company" style="stroke:#A80036;stroke-width:1.0;stroke-dasharray:7.0,7.0;"/><polygon fill="#A80036" points="341.72,157.88,342.2427,148.045,339.9347,153.2096,334.7701,150.9015,341.72,157.88" style="stroke:#A80036;stroke-width:1.0;"/><!--MD5=[0ac4060ffa3778047ef49ab0f91439ff]
link ShipOccupancyRatesController to ShipStoreDB--><path codeLine="37" d="M269.4,97.04 C256.28,115.57 241.23,137.55 228.5,158 C180.8,234.62 130.94,328.63 106.26,376.23 " fill="none" id="ShipOccupancyRatesController-to-ShipStoreDB" style="stroke:#A80036;stroke-width:1.0;stroke-dasharray:7.0,7.0;"/><polygon fill="#A80036" points="103.95,380.69,111.6398,374.5364,106.2487,376.2497,104.5354,370.8586,103.95,380.69" style="stroke:#A80036;stroke-width:1.0;"/><!--MD5=[ab8306d6de959d2844d4ec47a08091b6]
link ShipOccupancyRatesController to ShipTripStoreDB--><path codeLine="38" d="M374.55,97.21 C401.82,114.89 432.47,136.22 458.5,158 C536.37,223.14 616.08,310.87 661.23,362.92 " fill="none" id="ShipOccupancyRatesController-to-ShipTripStoreDB" style="stroke:#A80036;stroke-width:1.0;stroke-dasharray:7.0,7.0;"/><polygon fill="#A80036" points="664.68,366.91,661.8043,357.4903,661.4037,363.133,655.7611,362.7324,664.68,366.91" style="stroke:#A80036;stroke-width:1.0;"/><!--MD5=[11cb4548593705074e1dfef8558619a0]
link ShipOccupancyRatesController to CargoManifestStoreDB--><path codeLine="39" d="M278.1,97.31 C250.87,155.39 214.34,259.02 253.5,337 C261.85,353.62 276.22,367.3 291.24,378.01 " fill="none" id="ShipOccupancyRatesController-to-CargoManifestStoreDB" style="stroke:#A80036;stroke-width:1.0;stroke-dasharray:7.0,7.0;"/><polygon fill="#A80036" points="295.5,380.96,290.3695,372.553,291.3865,378.1177,285.8218,379.1346,295.5,380.96" style="stroke:#A80036;stroke-width:1.0;"/><!--MD5=[507cfa299ee4dba6e3c71a3753442b74]
link Company to ShipStoreDB--><path codeLine="40" d="M291.81,273.89 C239.61,308.41 171.97,353.13 129.91,380.94 " fill="none" id="Company-ShipStoreDB" style="stroke:#A80036;stroke-width:1.0;"/><polygon fill="#000000" points="221.3293,330.9335,230.4951,328.3962,227.2532,323.4932,221.3293,330.9335" style="stroke:#000000;stroke-width:1.0;"/><text fill="#000000" font-family="sans-serif" font-size="13" lengthAdjust="spacing" textLength="28" x="234.5" y="333.4951">uses</text><text fill="#000000" font-family="sans-serif" font-size="13" lengthAdjust="spacing" textLength="7" x="277.1132" y="275.5744">1</text><text fill="#000000" font-family="sans-serif" font-size="13" lengthAdjust="spacing" textLength="7" x="131.6631" y="369.9521">1</text><!--MD5=[8a472e17fa1b8e6b82718bab5653081a]
link Company to ShipTripStoreDB--><path codeLine="41" d="M441.01,265.46 C496.16,295.78 570.92,336.87 625.67,366.97 " fill="none" id="Company-ShipTripStoreDB" style="stroke:#A80036;stroke-width:1.0;"/><polygon fill="#000000" points="570.8816,330.5844,564.371,323.6517,561.5394,328.8026,570.8816,330.5844" style="stroke:#000000;stroke-width:1.0;"/><text fill="#000000" font-family="sans-serif" font-size="13" lengthAdjust="spacing" textLength="28" x="575.5" y="333.4951">uses</text><text fill="#000000" font-family="sans-serif" font-size="13" lengthAdjust="spacing" textLength="7" x="449.0548" y="266.4746">1</text><text fill="#000000" font-family="sans-serif" font-size="13" lengthAdjust="spacing" textLength="7" x="605.5508" y="356.1106">1</text><!--MD5=[4ab6be66d0b2d15e041dac1ecef1ebf3]
link Company to CargoManifestStoreDB--><path codeLine="42" d="M359.77,289.1 C356.49,320.68 352.71,356.93 350.23,380.81 " fill="none" id="Company-CargoManifestStoreDB" style="stroke:#A80036;stroke-width:1.0;"/><polygon fill="#000000" points="359.9827,333.1489,363.8417,324.4565,357.9954,323.8483,359.9827,333.1489" style="stroke:#000000;stroke-width:1.0;"/><text fill="#000000" font-family="sans-serif" font-size="13" lengthAdjust="spacing" textLength="28" x="369.5" y="333.4951">uses</text><text fill="#000000" font-family="sans-serif" font-size="13" lengthAdjust="spacing" textLength="7" x="351.6511" y="310.6635">1</text><text fill="#000000" font-family="sans-serif" font-size="13" lengthAdjust="spacing" textLength="7" x="343.0519" y="370.227">1</text><!--MD5=[9539402a5ae1b693653070d74692e787]
@startuml

hide empty methods
hide empty attributes
'left to right direction
skinparam classAttributeIconSize 0

class ShipOccupancyRatesController{
- company
- calculateOccupancyRate(maxCapacity, initialNumContainers, alreadyAddedRemovedContainersTripNum)
- getShipOccupancyRateByCargoManifestID(cargoManifestID)
}

class ShipStoreDB{
- getShipCargo(cargoManifestID)
}

class ShipTripStoreDB{
- getAddedRemovedContainersShipTripMoment(cargoManifestID)
- getEstDepartureDateFromShipTrip(cargoManifestID)
- getInitialNumContainersPerShipTrip(cargoManifestID,estDepartureDate)
}

class CargoManifestStoreDB{
- getNumContainersPerCargoManifest(cargoManifestID)
}

class Company{
- shipStoreDB
- shipTripStoreDB
- cargoManifestStoreDB
- getShipTripStoreDB()
- getShipStoreDB()
- getCargoManifestStoreDB()
}

ShipOccupancyRatesController ..> Company
ShipOccupancyRatesController ..> ShipStoreDB
ShipOccupancyRatesController ..> ShipTripStoreDB
ShipOccupancyRatesController ..> CargoManifestStoreDB
Company "1" - - "1" ShipStoreDB : uses >
Company "1" - - "1" ShipTripStoreDB : uses >
Company "1" - - "1" CargoManifestStoreDB : uses >

@enduml

@startuml

hide empty methods
hide empty attributes
skinparam classAttributeIconSize 0

class ShipOccupancyRatesController{
- company
- calculateOccupancyRate(maxCapacity, initialNumContainers, alreadyAddedRemovedContainersTripNum)
- getShipOccupancyRateByCargoManifestID(cargoManifestID)
}

class ShipStoreDB{
- getShipCargo(cargoManifestID)
}

class ShipTripStoreDB{
- getAddedRemovedContainersShipTripMoment(cargoManifestID)
- getEstDepartureDateFromShipTrip(cargoManifestID)
- getInitialNumContainersPerShipTrip(cargoManifestID,estDepartureDate)
}

class CargoManifestStoreDB{
- getNumContainersPerCargoManifest(cargoManifestID)
}

class Company{
- shipStoreDB
- shipTripStoreDB
- cargoManifestStoreDB
- getShipTripStoreDB()
- getShipStoreDB()
- getCargoManifestStoreDB()
}

ShipOccupancyRatesController ..> Company
ShipOccupancyRatesController ..> ShipStoreDB
ShipOccupancyRatesController ..> ShipTripStoreDB
ShipOccupancyRatesController ..> CargoManifestStoreDB
Company "1" - - "1" ShipStoreDB : uses >
Company "1" - - "1" ShipTripStoreDB : uses >
Company "1" - - "1" CargoManifestStoreDB : uses >

@enduml

PlantUML version 1.2021.11(Sat Oct 02 14:26:11 BST 2021)
(GPL source distribution)
Java Runtime: OpenJDK Runtime Environment
JVM: OpenJDK 64-Bit Server VM
Default Encoding: Cp1252
Language: pt
Country: PT
--></g></svg>