<?xml version="1.0" encoding="UTF-8" standalone="no"?><svg xmlns="http://www.w3.org/2000/svg" xmlns:xlink="http://www.w3.org/1999/xlink" contentScriptType="application/ecmascript" contentStyleType="text/css" height="345px" preserveAspectRatio="none" style="width:246px;height:345px;background:#FFFFFF;" version="1.1" viewBox="0 0 246 345" width="246px" zoomAndPan="magnify"><defs><filter height="300%" id="fxniiu3ml17cd" width="300%" x="-1" y="-1"><feGaussianBlur result="blurOut" stdDeviation="2.0"/><feColorMatrix in="blurOut" result="blurOut2" type="matrix" values="0 0 0 0 0 0 0 0 0 0 0 0 0 0 0 0 0 0 .4 0"/><feOffset dx="4.0" dy="4.0" in="blurOut2" result="blurOut3"/><feBlend in="SourceGraphic" in2="blurOut3" mode="normal"/></filter></defs><g><!--MD5=[b197415e3d71f730e17342fafd126671]
class GetUnladenCenterMassController--><rect codeLine="3" fill="#FEFECE" filter="url(#fxniiu3ml17cd)" height="61.8359" id="GetUnladenCenterMassController" style="stroke:#A80036;stroke-width:1.5;" width="219" x="13.5" y="7"/><ellipse cx="28.5" cy="23" fill="#ADD1B2" rx="11" ry="11" style="stroke:#A80036;stroke-width:1.0;"/><path d="M30.5,19.5 Q30.7031,19 30.9375,18.75 Q31.1719,18.5 31.4375,18.5 Q31.9063,18.5 32.2031,18.7813 Q32.5,19.0625 32.5,19.7188 L32.5,21.2813 Q32.5,21.9375 32.2188,22.2188 Q31.9375,22.5 31.5,22.5 Q31.1094,22.5 30.8594,22.3281 Q30.6094,22.1563 30.5,21.7031 Q30.4531,21.3906 30.2813,21.2188 Q29.9688,20.8906 29.4063,20.7031 Q28.8438,20.5 28.2813,20.5 Q27.5781,20.5 26.9844,20.7813 Q26.4063,21.0625 25.9531,21.6875 Q25.5,22.3125 25.5,23.1719 L25.5,24.0938 Q25.5,25.125 26.3438,25.8125 Q27.1875,26.5 28.6875,26.5 Q29.5781,26.5 30.2031,26.2969 Q30.5625,26.1875 30.9688,25.8281 Q31.2344,25.625 31.375,25.5625 Q31.5156,25.5 31.6875,25.5 Q32.0156,25.5 32.25,25.7656 Q32.5,26.0156 32.5,26.375 Q32.5,26.7188 32.1563,27.125 Q31.6563,27.7188 30.8594,28.0469 Q29.8125,28.5 28.5313,28.5 Q27.0313,28.5 25.8281,27.9063 Q24.8594,27.4375 24.1719,26.4219 Q23.5,25.4063 23.5,24.2031 L23.5,23.1094 Q23.5,21.8594 24.0938,20.7656 Q24.7031,19.6719 25.75,19.0938 Q26.8125,18.5 28,18.5 Q28.7188,18.5 29.3438,18.75 Q29.9688,19 30.5,19.5 Z " fill="#000000"/><text fill="#000000" font-family="sans-serif" font-size="12" lengthAdjust="spacing" textLength="187" x="42.5" y="27.9102">GetUnladenCenterMassController</text><line style="stroke:#A80036;stroke-width:1.5;" x1="14.5" x2="231.5" y1="39" y2="39"/><line style="stroke:#A80036;stroke-width:1.5;" x1="14.5" x2="231.5" y1="47" y2="47"/><text fill="#000000" font-family="sans-serif" font-size="11" lengthAdjust="spacing" textLength="199" x="19.5" y="62.4189">+getUnLadenCenterOfMassOfShip(mmsi)</text><!--MD5=[02e4b9b7573f1156f41e60aa5b4e25a4]
class Company--><rect codeLine="7" fill="#FEFECE" filter="url(#fxniiu3ml17cd)" height="61.8359" id="Company" style="stroke:#A80036;stroke-width:1.5;" width="88" x="7" y="130"/><ellipse cx="23.35" cy="146" fill="#ADD1B2" rx="11" ry="11" style="stroke:#A80036;stroke-width:1.0;"/><path d="M25.35,142.5 Q25.5531,142 25.7875,141.75 Q26.0219,141.5 26.2875,141.5 Q26.7563,141.5 27.0531,141.7813 Q27.35,142.0625 27.35,142.7188 L27.35,144.2813 Q27.35,144.9375 27.0688,145.2188 Q26.7875,145.5 26.35,145.5 Q25.9594,145.5 25.7094,145.3281 Q25.4594,145.1563 25.35,144.7031 Q25.3031,144.3906 25.1313,144.2188 Q24.8188,143.8906 24.2563,143.7031 Q23.6938,143.5 23.1313,143.5 Q22.4281,143.5 21.8344,143.7813 Q21.2563,144.0625 20.8031,144.6875 Q20.35,145.3125 20.35,146.1719 L20.35,147.0938 Q20.35,148.125 21.1938,148.8125 Q22.0375,149.5 23.5375,149.5 Q24.4281,149.5 25.0531,149.2969 Q25.4125,149.1875 25.8188,148.8281 Q26.0844,148.625 26.225,148.5625 Q26.3656,148.5 26.5375,148.5 Q26.8656,148.5 27.1,148.7656 Q27.35,149.0156 27.35,149.375 Q27.35,149.7188 27.0063,150.125 Q26.5063,150.7188 25.7094,151.0469 Q24.6625,151.5 23.3813,151.5 Q21.8813,151.5 20.6781,150.9063 Q19.7094,150.4375 19.0219,149.4219 Q18.35,148.4063 18.35,147.2031 L18.35,146.1094 Q18.35,144.8594 18.9438,143.7656 Q19.5531,142.6719 20.6,142.0938 Q21.6625,141.5 22.85,141.5 Q23.5688,141.5 24.1938,141.75 Q24.8188,142 25.35,142.5 Z " fill="#000000"/><text fill="#000000" font-family="sans-serif" font-size="12" lengthAdjust="spacing" textLength="53" x="37.65" y="150.9102">Company</text><line style="stroke:#A80036;stroke-width:1.5;" x1="8" x2="94" y1="162" y2="162"/><line style="stroke:#A80036;stroke-width:1.5;" x1="8" x2="94" y1="170" y2="170"/><text fill="#000000" font-family="sans-serif" font-size="11" lengthAdjust="spacing" textLength="76" x="13" y="185.4189">+getShipStore()</text><!--MD5=[ea2206eefe09474e90beb17e18e6b3d8]
class ShipStore--><rect codeLine="11" fill="#FEFECE" filter="url(#fxniiu3ml17cd)" height="61.8359" id="ShipStore" style="stroke:#A80036;stroke-width:1.5;" width="144" x="28" y="270"/><ellipse cx="69.1" cy="286" fill="#ADD1B2" rx="11" ry="11" style="stroke:#A80036;stroke-width:1.0;"/><path d="M71.1,282.5 Q71.3031,282 71.5375,281.75 Q71.7719,281.5 72.0375,281.5 Q72.5063,281.5 72.8031,281.7813 Q73.1,282.0625 73.1,282.7188 L73.1,284.2813 Q73.1,284.9375 72.8188,285.2188 Q72.5375,285.5 72.1,285.5 Q71.7094,285.5 71.4594,285.3281 Q71.2094,285.1563 71.1,284.7031 Q71.0531,284.3906 70.8813,284.2188 Q70.5688,283.8906 70.0063,283.7031 Q69.4438,283.5 68.8813,283.5 Q68.1781,283.5 67.5844,283.7813 Q67.0063,284.0625 66.5531,284.6875 Q66.1,285.3125 66.1,286.1719 L66.1,287.0938 Q66.1,288.125 66.9438,288.8125 Q67.7875,289.5 69.2875,289.5 Q70.1781,289.5 70.8031,289.2969 Q71.1625,289.1875 71.5688,288.8281 Q71.8344,288.625 71.975,288.5625 Q72.1156,288.5 72.2875,288.5 Q72.6156,288.5 72.85,288.7656 Q73.1,289.0156 73.1,289.375 Q73.1,289.7188 72.7563,290.125 Q72.2563,290.7188 71.4594,291.0469 Q70.4125,291.5 69.1313,291.5 Q67.6313,291.5 66.4281,290.9063 Q65.4594,290.4375 64.7719,289.4219 Q64.1,288.4063 64.1,287.2031 L64.1,286.1094 Q64.1,284.8594 64.6938,283.7656 Q65.3031,282.6719 66.35,282.0938 Q67.4125,281.5 68.6,281.5 Q69.3188,281.5 69.9438,281.75 Q70.5688,282 71.1,282.5 Z " fill="#000000"/><text fill="#000000" font-family="sans-serif" font-size="12" lengthAdjust="spacing" textLength="54" x="88.9" y="290.9102">ShipStore</text><line style="stroke:#A80036;stroke-width:1.5;" x1="29" x2="171" y1="302" y2="302"/><line style="stroke:#A80036;stroke-width:1.5;" x1="29" x2="171" y1="310" y2="310"/><text fill="#000000" font-family="sans-serif" font-size="11" lengthAdjust="spacing" textLength="132" x="34" y="325.4189">+getShipByAnyCode(mmsi)</text><!--MD5=[3863c0a2566b19f1bf76343256bda8d0]
link GetUnladenCenterMassController to Company--><path codeLine="15" d="M105.02,69.22 C94.88,86.26 82.17,107.61 71.63,125.32 " fill="none" id="GetUnladenCenterMassController-to-Company" style="stroke:#A80036;stroke-width:1.0;stroke-dasharray:7.0,7.0;"/><polygon fill="#A80036" points="69,129.74,77.0465,124.0608,71.5619,125.4462,70.1765,119.9617,69,129.74" style="stroke:#A80036;stroke-width:1.0;"/><!--MD5=[9178b1c123981ce67ca6500ea03c9500]
link GetUnladenCenterMassController to ShipStore--><path codeLine="16" d="M127.48,69.01 C132.48,108.64 138.36,180.37 126,240 C124.26,248.38 121.3,257.02 117.97,265.05 " fill="none" id="GetUnladenCenterMassController-to-ShipStore" style="stroke:#A80036;stroke-width:1.0;stroke-dasharray:7.0,7.0;"/><polygon fill="#A80036" points="115.87,269.96,123.0919,263.2634,117.8396,265.3643,115.7387,260.112,115.87,269.96" style="stroke:#A80036;stroke-width:1.0;"/><!--MD5=[6b4a94d80660e97c6833bde801bd4c89]
link Company to ShipStore--><path codeLine="17" d="M61.75,192.28 C69.92,215.29 81.11,246.79 89.27,269.79 " fill="none" id="Company-ShipStore" style="stroke:#A80036;stroke-width:1.0;"/><polygon fill="#000000" points="85.6729,235.8876,85.4161,226.3805,79.877,228.3472,85.6729,235.8876" style="stroke:#000000;stroke-width:1.0;"/><text fill="#000000" font-family="sans-serif" font-size="13" lengthAdjust="spacing" textLength="28" x="93" y="236.4951">uses</text><text fill="#000000" font-family="sans-serif" font-size="13" lengthAdjust="spacing" textLength="7" x="56.132" y="213.312">1</text><text fill="#000000" font-family="sans-serif" font-size="13" lengthAdjust="spacing" textLength="7" x="79.3351" y="259.2512">1</text><!--MD5=[bd6f574d31c3b7e64eea2f34c4e59b65]
@startuml
skinparam classAttributeIconSize 0

class GetUnladenCenterMassController{
    +getUnLadenCenterOfMassOfShip(mmsi)
}

class Company {
    +getShipStore()
}

class ShipStore {
    +getShipByAnyCode(mmsi)
}

GetUnladenCenterMassController ..> Company
GetUnladenCenterMassController ..> ShipStore
Company "1" - - "1" ShipStore : uses >

@enduml

PlantUML version 1.2021.11(Sat Oct 02 14:26:11 BST 2021)
(GPL source distribution)
Java Runtime: OpenJDK Runtime Environment
JVM: OpenJDK 64-Bit Server VM
Default Encoding: Cp1252
Language: pt
Country: PT
--></g></svg>