<?xml version="1.0" encoding="UTF-8" standalone="no"?><svg xmlns="http://www.w3.org/2000/svg" xmlns:xlink="http://www.w3.org/1999/xlink" contentScriptType="application/ecmascript" contentStyleType="text/css" height="1136px" preserveAspectRatio="none" style="width:401px;height:1136px;background:#FFFFFF;" version="1.1" viewBox="0 0 401 1136" width="401px" zoomAndPan="magnify"><defs><filter height="300%" id="f195apf6b51i6a" width="300%" x="-1" y="-1"><feGaussianBlur result="blurOut" stdDeviation="2.0"/><feColorMatrix in="blurOut" result="blurOut2" type="matrix" values="0 0 0 0 0 0 0 0 0 0 0 0 0 0 0 0 0 0 .4 0"/><feOffset dx="4.0" dy="4.0" in="blurOut2" result="blurOut3"/><feBlend in="SourceGraphic" in2="blurOut3" mode="normal"/></filter></defs><g><!--MD5=[0dc7f2ddb409b58bcf52b12238c25399]
class Ship--><rect codeLine="7" fill="#FEFECE" filter="url(#f195apf6b51i6a)" height="131.0156" id="Ship" style="stroke:#A80036;stroke-width:1.5;" width="93" x="145.68" y="560"/><ellipse cx="176.88" cy="576" fill="#ADD1B2" rx="11" ry="11" style="stroke:#A80036;stroke-width:1.0;"/><path d="M178.88,572.5 Q179.0831,572 179.3175,571.75 Q179.5519,571.5 179.8175,571.5 Q180.2863,571.5 180.5831,571.7813 Q180.88,572.0625 180.88,572.7188 L180.88,574.2813 Q180.88,574.9375 180.5988,575.2188 Q180.3175,575.5 179.88,575.5 Q179.4894,575.5 179.2394,575.3281 Q178.9894,575.1563 178.88,574.7031 Q178.8331,574.3906 178.6613,574.2188 Q178.3488,573.8906 177.7863,573.7031 Q177.2238,573.5 176.6613,573.5 Q175.9581,573.5 175.3644,573.7813 Q174.7863,574.0625 174.3331,574.6875 Q173.88,575.3125 173.88,576.1719 L173.88,577.0938 Q173.88,578.125 174.7238,578.8125 Q175.5675,579.5 177.0675,579.5 Q177.9581,579.5 178.5831,579.2969 Q178.9425,579.1875 179.3488,578.8281 Q179.6144,578.625 179.755,578.5625 Q179.8956,578.5 180.0675,578.5 Q180.3956,578.5 180.63,578.7656 Q180.88,579.0156 180.88,579.375 Q180.88,579.7188 180.5363,580.125 Q180.0363,580.7188 179.2394,581.0469 Q178.1925,581.5 176.9113,581.5 Q175.4113,581.5 174.2081,580.9063 Q173.2394,580.4375 172.5519,579.4219 Q171.88,578.4063 171.88,577.2031 L171.88,576.1094 Q171.88,574.8594 172.4738,573.7656 Q173.0831,572.6719 174.13,572.0938 Q175.1925,571.5 176.38,571.5 Q177.0988,571.5 177.7238,571.75 Q178.3488,572 178.88,572.5 Z " fill="#000000"/><text fill="#000000" font-family="sans-serif" font-size="12" lengthAdjust="spacing" textLength="25" x="194.48" y="580.9102">Ship</text><line style="stroke:#A80036;stroke-width:1.5;" x1="146.68" x2="237.68" y1="592" y2="592"/><text fill="#000000" font-family="sans-serif" font-size="11" lengthAdjust="spacing" textLength="61" x="151.68" y="607.4189">-mmmsiCode</text><text fill="#000000" font-family="sans-serif" font-size="11" lengthAdjust="spacing" textLength="51" x="151.68" y="621.2549">-shipName</text><text fill="#000000" font-family="sans-serif" font-size="11" lengthAdjust="spacing" textLength="45" x="151.68" y="635.0908">-imoCode</text><text fill="#000000" font-family="sans-serif" font-size="11" lengthAdjust="spacing" textLength="49" x="151.68" y="648.9268">-callSignId</text><text fill="#000000" font-family="sans-serif" font-size="11" lengthAdjust="spacing" textLength="81" x="151.68" y="662.7627">-currentCapacity</text><text fill="#000000" font-family="sans-serif" font-size="11" lengthAdjust="spacing" textLength="27" x="151.68" y="676.5986">-draft</text><line style="stroke:#A80036;stroke-width:1.5;" x1="146.68" x2="237.68" y1="683.0156" y2="683.0156"/><!--MD5=[1c0c3765e68dc4575d559b566278b914]
class ShipPosition--><rect codeLine="16" fill="#FEFECE" filter="url(#f195apf6b51i6a)" height="172.5234" id="ShipPosition" style="stroke:#A80036;stroke-width:1.5;" width="104" x="241.18" y="950"/><ellipse cx="257.08" cy="966" fill="#ADD1B2" rx="11" ry="11" style="stroke:#A80036;stroke-width:1.0;"/><path d="M259.08,962.5 Q259.2831,962 259.5175,961.75 Q259.7519,961.5 260.0175,961.5 Q260.4863,961.5 260.7831,961.7813 Q261.08,962.0625 261.08,962.7188 L261.08,964.2813 Q261.08,964.9375 260.7988,965.2188 Q260.5175,965.5 260.08,965.5 Q259.6894,965.5 259.4394,965.3281 Q259.1894,965.1563 259.08,964.7031 Q259.0331,964.3906 258.8613,964.2188 Q258.5488,963.8906 257.9863,963.7031 Q257.4238,963.5 256.8613,963.5 Q256.1581,963.5 255.5644,963.7813 Q254.9863,964.0625 254.5331,964.6875 Q254.08,965.3125 254.08,966.1719 L254.08,967.0938 Q254.08,968.125 254.9238,968.8125 Q255.7675,969.5 257.2675,969.5 Q258.1581,969.5 258.7831,969.2969 Q259.1425,969.1875 259.5488,968.8281 Q259.8144,968.625 259.955,968.5625 Q260.0956,968.5 260.2675,968.5 Q260.5956,968.5 260.83,968.7656 Q261.08,969.0156 261.08,969.375 Q261.08,969.7188 260.7363,970.125 Q260.2363,970.7188 259.4394,971.0469 Q258.3925,971.5 257.1113,971.5 Q255.6113,971.5 254.4081,970.9063 Q253.4394,970.4375 252.7519,969.4219 Q252.08,968.4063 252.08,967.2031 L252.08,966.1094 Q252.08,964.8594 252.6738,963.7656 Q253.2831,962.6719 254.33,962.0938 Q255.3925,961.5 256.58,961.5 Q257.2988,961.5 257.9238,961.75 Q258.5488,962 259.08,962.5 Z " fill="#000000"/><text fill="#000000" font-family="sans-serif" font-size="12" lengthAdjust="spacing" textLength="70" x="271.28" y="970.9102">ShipPosition</text><line style="stroke:#A80036;stroke-width:1.5;" x1="242.18" x2="344.18" y1="982" y2="982"/><text fill="#000000" font-family="sans-serif" font-size="11" lengthAdjust="spacing" textLength="72" x="247.18" y="997.4189">-baseDateTime</text><text fill="#000000" font-family="sans-serif" font-size="11" lengthAdjust="spacing" textLength="38" x="247.18" y="1011.2549">-latitude</text><text fill="#000000" font-family="sans-serif" font-size="11" lengthAdjust="spacing" textLength="47" x="247.18" y="1025.0908">-longitude</text><text fill="#000000" font-family="sans-serif" font-size="11" lengthAdjust="spacing" textLength="22" x="247.18" y="1038.9268">-sog</text><text fill="#000000" font-family="sans-serif" font-size="11" lengthAdjust="spacing" textLength="22" x="247.18" y="1052.7627">-cog</text><text fill="#000000" font-family="sans-serif" font-size="11" lengthAdjust="spacing" textLength="42" x="247.18" y="1066.5986">-heading</text><text fill="#000000" font-family="sans-serif" font-size="11" lengthAdjust="spacing" textLength="41" x="247.18" y="1080.4346">-position</text><text fill="#000000" font-family="sans-serif" font-size="11" lengthAdjust="spacing" textLength="59" x="247.18" y="1094.2705">-transceiver</text><line style="stroke:#A80036;stroke-width:1.5;" x1="242.18" x2="344.18" y1="1100.6875" y2="1100.6875"/><text fill="#000000" font-family="sans-serif" font-size="11" lengthAdjust="spacing" textLength="92" x="247.18" y="1116.1064">+getPositionsBST()</text><!--MD5=[43adf079e4aaffd3a283c2c0454b404c]
class ShipsBST--><rect codeLine="28" fill="#FEFECE" filter="url(#f195apf6b51i6a)" height="103.3438" id="ShipsBST" style="stroke:#A80036;stroke-width:1.5;" width="298" x="43.18" y="379"/><ellipse cx="160.43" cy="395" fill="#ADD1B2" rx="11" ry="11" style="stroke:#A80036;stroke-width:1.0;"/><path d="M162.43,391.5 Q162.6331,391 162.8675,390.75 Q163.1019,390.5 163.3675,390.5 Q163.8363,390.5 164.1331,390.7813 Q164.43,391.0625 164.43,391.7188 L164.43,393.2813 Q164.43,393.9375 164.1488,394.2188 Q163.8675,394.5 163.43,394.5 Q163.0394,394.5 162.7894,394.3281 Q162.5394,394.1563 162.43,393.7031 Q162.3831,393.3906 162.2113,393.2188 Q161.8988,392.8906 161.3363,392.7031 Q160.7738,392.5 160.2113,392.5 Q159.5081,392.5 158.9144,392.7813 Q158.3363,393.0625 157.8831,393.6875 Q157.43,394.3125 157.43,395.1719 L157.43,396.0938 Q157.43,397.125 158.2738,397.8125 Q159.1175,398.5 160.6175,398.5 Q161.5081,398.5 162.1331,398.2969 Q162.4925,398.1875 162.8988,397.8281 Q163.1644,397.625 163.305,397.5625 Q163.4456,397.5 163.6175,397.5 Q163.9456,397.5 164.18,397.7656 Q164.43,398.0156 164.43,398.375 Q164.43,398.7188 164.0863,399.125 Q163.5863,399.7188 162.7894,400.0469 Q161.7425,400.5 160.4613,400.5 Q158.9613,400.5 157.7581,399.9063 Q156.7894,399.4375 156.1019,398.4219 Q155.43,397.4063 155.43,396.2031 L155.43,395.1094 Q155.43,393.8594 156.0238,392.7656 Q156.6331,391.6719 157.68,391.0938 Q158.7425,390.5 159.93,390.5 Q160.6488,390.5 161.2738,390.75 Q161.8988,391 162.43,391.5 Z " fill="#000000"/><text fill="#000000" font-family="sans-serif" font-size="12" lengthAdjust="spacing" textLength="55" x="180.93" y="399.9102">ShipsBST</text><line style="stroke:#A80036;stroke-width:1.5;" x1="44.18" x2="340.18" y1="411" y2="411"/><line style="stroke:#A80036;stroke-width:1.5;" x1="44.18" x2="340.18" y1="419" y2="419"/><text fill="#000000" font-family="sans-serif" font-size="11" lengthAdjust="spacing" textLength="92" x="49.18" y="434.4189">+getPairsOfShips()</text><text fill="#000000" font-family="sans-serif" font-size="11" lengthAdjust="spacing" textLength="167" x="49.18" y="448.2549">+getShipsInOrderWithIntendedTD()</text><text fill="#000000" font-family="sans-serif" font-size="11" lengthAdjust="spacing" textLength="283" x="49.18" y="462.0908">+fillTreeMapForEachShip(listShipsWithIntendedTD, infoPair,</text><text fill="#000000" font-family="sans-serif" font-size="11" lengthAdjust="spacing" textLength="266" x="49.18" y="475.9268">travelledDistance, positionsBST, ship1MMSI, indexShip)</text><!--MD5=[004e005a2edf96352d0772cab412880f]
class PositionsBST--><rect codeLine="34" fill="#FEFECE" filter="url(#f195apf6b51i6a)" height="103.3438" id="PositionsBST" style="stroke:#A80036;stroke-width:1.5;" width="131" x="227.68" y="769"/><ellipse cx="253.48" cy="785" fill="#ADD1B2" rx="11" ry="11" style="stroke:#A80036;stroke-width:1.0;"/><path d="M255.48,781.5 Q255.6831,781 255.9175,780.75 Q256.1519,780.5 256.4175,780.5 Q256.8863,780.5 257.1831,780.7813 Q257.48,781.0625 257.48,781.7188 L257.48,783.2813 Q257.48,783.9375 257.1988,784.2188 Q256.9175,784.5 256.48,784.5 Q256.0894,784.5 255.8394,784.3281 Q255.5894,784.1563 255.48,783.7031 Q255.4331,783.3906 255.2613,783.2188 Q254.9488,782.8906 254.3863,782.7031 Q253.8238,782.5 253.2613,782.5 Q252.5581,782.5 251.9644,782.7813 Q251.3863,783.0625 250.9331,783.6875 Q250.48,784.3125 250.48,785.1719 L250.48,786.0938 Q250.48,787.125 251.3238,787.8125 Q252.1675,788.5 253.6675,788.5 Q254.5581,788.5 255.1831,788.2969 Q255.5425,788.1875 255.9488,787.8281 Q256.2144,787.625 256.355,787.5625 Q256.4956,787.5 256.6675,787.5 Q256.9956,787.5 257.23,787.7656 Q257.48,788.0156 257.48,788.375 Q257.48,788.7188 257.1363,789.125 Q256.6363,789.7188 255.8394,790.0469 Q254.7925,790.5 253.5113,790.5 Q252.0113,790.5 250.8081,789.9063 Q249.8394,789.4375 249.1519,788.4219 Q248.48,787.4063 248.48,786.2031 L248.48,785.1094 Q248.48,783.8594 249.0738,782.7656 Q249.6831,781.6719 250.73,781.0938 Q251.7925,780.5 252.98,780.5 Q253.6988,780.5 254.3238,780.75 Q254.9488,781 255.48,781.5 Z " fill="#000000"/><text fill="#000000" font-family="sans-serif" font-size="12" lengthAdjust="spacing" textLength="75" x="269.88" y="789.9102">PositionsBST</text><line style="stroke:#A80036;stroke-width:1.5;" x1="228.68" x2="357.68" y1="801" y2="801"/><line style="stroke:#A80036;stroke-width:1.5;" x1="228.68" x2="357.68" y1="809" y2="809"/><text fill="#000000" font-family="sans-serif" font-size="11" lengthAdjust="spacing" textLength="94" x="233.68" y="824.4189">+getTotalDistance()</text><text fill="#000000" font-family="sans-serif" font-size="11" lengthAdjust="spacing" textLength="103" x="233.68" y="838.2549">+getArrivalDistance()</text><text fill="#000000" font-family="sans-serif" font-size="11" lengthAdjust="spacing" textLength="119" x="233.68" y="852.0908">+getDepartureDistance()</text><text fill="#000000" font-family="sans-serif" font-size="11" lengthAdjust="spacing" textLength="34" x="233.68" y="865.9268">+size()</text><!--MD5=[111fa0fa25b4bd8d678455dd96f581e5]
class ShowPairsOfShipsUI--><rect codeLine="41" fill="#FEFECE" filter="url(#f195apf6b51i6a)" height="48" id="ShowPairsOfShipsUI" style="stroke:#A80036;stroke-width:1.5;" width="148" x="162.18" y="7"/><ellipse cx="177.18" cy="23" fill="#ADD1B2" rx="11" ry="11" style="stroke:#A80036;stroke-width:1.0;"/><path d="M179.18,19.5 Q179.3831,19 179.6175,18.75 Q179.8519,18.5 180.1175,18.5 Q180.5863,18.5 180.8831,18.7813 Q181.18,19.0625 181.18,19.7188 L181.18,21.2813 Q181.18,21.9375 180.8988,22.2188 Q180.6175,22.5 180.18,22.5 Q179.7894,22.5 179.5394,22.3281 Q179.2894,22.1563 179.18,21.7031 Q179.1331,21.3906 178.9613,21.2188 Q178.6488,20.8906 178.0863,20.7031 Q177.5238,20.5 176.9613,20.5 Q176.2581,20.5 175.6644,20.7813 Q175.0863,21.0625 174.6331,21.6875 Q174.18,22.3125 174.18,23.1719 L174.18,24.0938 Q174.18,25.125 175.0238,25.8125 Q175.8675,26.5 177.3675,26.5 Q178.2581,26.5 178.8831,26.2969 Q179.2425,26.1875 179.6488,25.8281 Q179.9144,25.625 180.055,25.5625 Q180.1956,25.5 180.3675,25.5 Q180.6956,25.5 180.93,25.7656 Q181.18,26.0156 181.18,26.375 Q181.18,26.7188 180.8363,27.125 Q180.3363,27.7188 179.5394,28.0469 Q178.4925,28.5 177.2113,28.5 Q175.7113,28.5 174.5081,27.9063 Q173.5394,27.4375 172.8519,26.4219 Q172.18,25.4063 172.18,24.2031 L172.18,23.1094 Q172.18,21.8594 172.7738,20.7656 Q173.3831,19.6719 174.43,19.0938 Q175.4925,18.5 176.68,18.5 Q177.3988,18.5 178.0238,18.75 Q178.6488,19 179.18,19.5 Z " fill="#000000"/><text fill="#000000" font-family="sans-serif" font-size="12" lengthAdjust="spacing" textLength="116" x="191.18" y="27.9102">ShowPairsOfShipsUI</text><line style="stroke:#A80036;stroke-width:1.5;" x1="163.18" x2="309.18" y1="39" y2="39"/><line style="stroke:#A80036;stroke-width:1.5;" x1="163.18" x2="309.18" y1="47" y2="47"/><!--MD5=[7bf3f207a17c3ec513cce305ec5a5ed9]
class ShowPairsOfShipsController--><rect codeLine="43" fill="#FEFECE" filter="url(#f195apf6b51i6a)" height="48" id="ShowPairsOfShipsController" style="stroke:#A80036;stroke-width:1.5;" width="190" x="141.18" y="116"/><ellipse cx="156.18" cy="132" fill="#ADD1B2" rx="11" ry="11" style="stroke:#A80036;stroke-width:1.0;"/><path d="M158.18,128.5 Q158.3831,128 158.6175,127.75 Q158.8519,127.5 159.1175,127.5 Q159.5863,127.5 159.8831,127.7813 Q160.18,128.0625 160.18,128.7188 L160.18,130.2813 Q160.18,130.9375 159.8988,131.2188 Q159.6175,131.5 159.18,131.5 Q158.7894,131.5 158.5394,131.3281 Q158.2894,131.1563 158.18,130.7031 Q158.1331,130.3906 157.9613,130.2188 Q157.6488,129.8906 157.0863,129.7031 Q156.5238,129.5 155.9613,129.5 Q155.2581,129.5 154.6644,129.7813 Q154.0863,130.0625 153.6331,130.6875 Q153.18,131.3125 153.18,132.1719 L153.18,133.0938 Q153.18,134.125 154.0238,134.8125 Q154.8675,135.5 156.3675,135.5 Q157.2581,135.5 157.8831,135.2969 Q158.2425,135.1875 158.6488,134.8281 Q158.9144,134.625 159.055,134.5625 Q159.1956,134.5 159.3675,134.5 Q159.6956,134.5 159.93,134.7656 Q160.18,135.0156 160.18,135.375 Q160.18,135.7188 159.8363,136.125 Q159.3363,136.7188 158.5394,137.0469 Q157.4925,137.5 156.2113,137.5 Q154.7113,137.5 153.5081,136.9063 Q152.5394,136.4375 151.8519,135.4219 Q151.18,134.4063 151.18,133.2031 L151.18,132.1094 Q151.18,130.8594 151.7738,129.7656 Q152.3831,128.6719 153.43,128.0938 Q154.4925,127.5 155.68,127.5 Q156.3988,127.5 157.0238,127.75 Q157.6488,128 158.18,128.5 Z " fill="#000000"/><text fill="#000000" font-family="sans-serif" font-size="12" lengthAdjust="spacing" textLength="158" x="170.18" y="136.9102">ShowPairsOfShipsController</text><line style="stroke:#A80036;stroke-width:1.5;" x1="142.18" x2="330.18" y1="148" y2="148"/><line style="stroke:#A80036;stroke-width:1.5;" x1="142.18" x2="330.18" y1="156" y2="156"/><!--MD5=[02e4b9b7573f1156f41e60aa5b4e25a4]
class Company--><rect codeLine="47" fill="#FEFECE" filter="url(#f195apf6b51i6a)" height="75.6719" id="Company" style="stroke:#A80036;stroke-width:1.5;" width="127" x="85.68" y="225"/><ellipse cx="119.58" cy="241" fill="#ADD1B2" rx="11" ry="11" style="stroke:#A80036;stroke-width:1.0;"/><path d="M121.58,237.5 Q121.7831,237 122.0175,236.75 Q122.2519,236.5 122.5175,236.5 Q122.9862,236.5 123.2831,236.7813 Q123.58,237.0625 123.58,237.7188 L123.58,239.2813 Q123.58,239.9375 123.2987,240.2188 Q123.0175,240.5 122.58,240.5 Q122.1894,240.5 121.9394,240.3281 Q121.6894,240.1563 121.58,239.7031 Q121.5331,239.3906 121.3612,239.2188 Q121.0487,238.8906 120.4862,238.7031 Q119.9237,238.5 119.3612,238.5 Q118.6581,238.5 118.0644,238.7813 Q117.4862,239.0625 117.0331,239.6875 Q116.58,240.3125 116.58,241.1719 L116.58,242.0938 Q116.58,243.125 117.4237,243.8125 Q118.2675,244.5 119.7675,244.5 Q120.6581,244.5 121.2831,244.2969 Q121.6425,244.1875 122.0487,243.8281 Q122.3144,243.625 122.455,243.5625 Q122.5956,243.5 122.7675,243.5 Q123.0956,243.5 123.33,243.7656 Q123.58,244.0156 123.58,244.375 Q123.58,244.7188 123.2362,245.125 Q122.7362,245.7188 121.9394,246.0469 Q120.8925,246.5 119.6112,246.5 Q118.1112,246.5 116.9081,245.9063 Q115.9394,245.4375 115.2519,244.4219 Q114.58,243.4063 114.58,242.2031 L114.58,241.1094 Q114.58,239.8594 115.1737,238.7656 Q115.7831,237.6719 116.83,237.0938 Q117.8925,236.5 119.08,236.5 Q119.7987,236.5 120.4237,236.75 Q121.0487,237 121.58,237.5 Z " fill="#000000"/><text fill="#000000" font-family="sans-serif" font-size="12" lengthAdjust="spacing" textLength="53" x="137.78" y="245.9102">Company</text><line style="stroke:#A80036;stroke-width:1.5;" x1="86.68" x2="211.68" y1="257" y2="257"/><text fill="#000000" font-family="sans-serif" font-size="11" lengthAdjust="spacing" textLength="59" x="91.68" y="272.4189">-designation</text><line style="stroke:#A80036;stroke-width:1.5;" x1="86.68" x2="211.68" y1="278.8359" y2="278.8359"/><text fill="#000000" font-family="sans-serif" font-size="11" lengthAdjust="spacing" textLength="115" x="91.68" y="294.2549">+getBstShip(mmsiCode)</text><!--MD5=[1b046338fb2698c0e9f102f85676b8e2]
link Company to ShipsBST--><path codeLine="55" d="M158.83,301.14 C164.79,324.11 172.53,353.89 179.05,378.99 " fill="none" id="Company-ShipsBST" style="stroke:#A80036;stroke-width:1.0;"/><polygon fill="#000000" points="177.4369,345.0152,178.0077,335.5218,172.3186,336.9994,177.4369,345.0152" style="stroke:#000000;stroke-width:1.0;"/><text fill="#000000" font-family="sans-serif" font-size="13" lengthAdjust="spacing" textLength="28" x="185.18" y="345.4951">uses</text><text fill="#000000" font-family="sans-serif" font-size="13" lengthAdjust="spacing" textLength="7" x="152.8102" y="322.0428">1</text><text fill="#000000" font-family="sans-serif" font-size="13" lengthAdjust="spacing" textLength="7" x="169.7114" y="368.1171">1</text><!--MD5=[b457ea32acbd230d0e22037aaab2ac98]
link ShipsBST to Ship--><path codeLine="56" d="M192.18,482.21 C192.18,506 192.18,534.62 192.18,559.94 " fill="none" id="ShipsBST-Ship" style="stroke:#A80036;stroke-width:1.0;"/><polygon fill="#000000" points="197.18,526.1758,200.1189,517.1307,194.2411,517.1307,197.18,526.1758" style="stroke:#000000;stroke-width:1.0;"/><text fill="#000000" font-family="sans-serif" font-size="13" lengthAdjust="spacing" textLength="30" x="206.18" y="526.4951">owns</text><text fill="#000000" font-family="sans-serif" font-size="13" lengthAdjust="spacing" textLength="7" x="184.7097" y="503.7292">1</text><text fill="#000000" font-family="sans-serif" font-size="13" lengthAdjust="spacing" textLength="20" x="171.0238" y="548.9492">1..*</text><!--MD5=[bd16fc4b2a08274ec71edc6d573c9239]
link Ship to PositionsBST--><path codeLine="57" d="M225.95,691.03 C239.2,716.35 254.17,744.97 266.63,768.76 " fill="none" id="Ship-PositionsBST" style="stroke:#A80036;stroke-width:1.0;"/><polygon fill="#000000" points="256.4984,734.6058,254.9082,725.2291,249.7005,727.9546,256.4984,734.6058" style="stroke:#000000;stroke-width:1.0;"/><text fill="#000000" font-family="sans-serif" font-size="13" lengthAdjust="spacing" textLength="28" x="263.18" y="735.4951">uses</text><text fill="#000000" font-family="sans-serif" font-size="13" lengthAdjust="spacing" textLength="7" x="222.2608" y="712.5858">1</text><text fill="#000000" font-family="sans-serif" font-size="13" lengthAdjust="spacing" textLength="7" x="255.592" y="758.2281">1</text><!--MD5=[34b80baad36b2d2bd6b6893c22d217b3]
link PositionsBST to ShipPosition--><path codeLine="58" d="M293.18,872.22 C293.18,895.33 293.18,923.34 293.18,949.59 " fill="none" id="PositionsBST-ShipPosition" style="stroke:#A80036;stroke-width:1.0;"/><polygon fill="#000000" points="298.18,916.1758,301.1189,907.1307,295.2411,907.1307,298.18,916.1758" style="stroke:#000000;stroke-width:1.0;"/><text fill="#000000" font-family="sans-serif" font-size="13" lengthAdjust="spacing" textLength="21" x="307.18" y="916.4951">has</text><text fill="#000000" font-family="sans-serif" font-size="13" lengthAdjust="spacing" textLength="7" x="285.7097" y="893.7405">1</text><text fill="#000000" font-family="sans-serif" font-size="13" lengthAdjust="spacing" textLength="20" x="272.3519" y="939.2597">1..*</text><!--MD5=[f1753cec50872203df2bb2df986bb6f9]
link ShowPairsOfShipsUI to ShowPairsOfShipsController--><path codeLine="59" d="M236.18,55.22 C236.18,71.48 236.18,93.32 236.18,110.62 " fill="none" id="ShowPairsOfShipsUI-to-ShowPairsOfShipsController" style="stroke:#A80036;stroke-width:1.0;stroke-dasharray:7.0,7.0;"/><polygon fill="#A80036" points="236.18,115.83,240.18,106.83,236.18,110.83,232.18,106.83,236.18,115.83" style="stroke:#A80036;stroke-width:1.0;"/><!--MD5=[1bb06696cacca84149cf104bf392efc1]
link ShowPairsOfShipsController to Company--><path codeLine="60" d="M219.61,164.04 C208.15,179.98 192.58,201.63 178.99,220.53 " fill="none" id="ShowPairsOfShipsController-to-Company" style="stroke:#A80036;stroke-width:1.0;stroke-dasharray:7.0,7.0;"/><polygon fill="#A80036" points="175.95,224.77,184.4493,219.7939,178.867,220.7091,177.9519,215.1267,175.95,224.77" style="stroke:#A80036;stroke-width:1.0;"/><!--MD5=[672b517aa0aa5e7c31278b5a31149d91]
link ShowPairsOfShipsController to ShipsBST--><path codeLine="61" d="M237.49,164.25 C239.06,203.2 239.59,283.79 222.18,349 C220.01,357.11 217.35,365.55 214.51,373.78 " fill="none" id="ShowPairsOfShipsController-to-ShipsBST" style="stroke:#A80036;stroke-width:1.0;stroke-dasharray:7.0,7.0;"/><polygon fill="#A80036" points="212.72,378.88,219.4715,371.7094,214.3737,374.1614,211.9217,369.0636,212.72,378.88" style="stroke:#A80036;stroke-width:1.0;"/><!--MD5=[eb21687c847b61808a3ba2cbbb6054e7]
link ShowPairsOfShipsController to Ship--><path codeLine="62" d="M158.57,164.09 C126.48,177.23 91.42,196.83 68.18,225 C22.96,279.82 34.82,308.6 25.18,379 C18.96,424.35 6,440.43 25.18,482 C48.9,533.42 101.34,573.16 141.18,597.45 " fill="none" id="ShowPairsOfShipsController-to-Ship" style="stroke:#A80036;stroke-width:1.0;stroke-dasharray:7.0,7.0;"/><polygon fill="#A80036" points="145.48,600.04,139.8403,591.9657,141.1988,597.457,135.7075,598.8156,145.48,600.04" style="stroke:#A80036;stroke-width:1.0;"/><!--MD5=[0e8a582c0daa7e55be32d3754a6aeb0e]
link ShowPairsOfShipsController to PositionsBST--><path codeLine="63" d="M305.94,164.03 C348.26,182.88 394.18,214.32 394.18,262 C394.18,262 394.18,262 394.18,626.5 C394.18,677.19 366.48,727.72 340.1,764.35 " fill="none" id="ShowPairsOfShipsController-to-PositionsBST" style="stroke:#A80036;stroke-width:1.0;stroke-dasharray:7.0,7.0;"/><polygon fill="#A80036" points="336.89,768.75,345.4206,763.8276,339.8326,764.7076,338.9526,759.1196,336.89,768.75" style="stroke:#A80036;stroke-width:1.0;"/><!--MD5=[9f4de9c29b7b99ffde213c3a03697155]
@startuml

skinparam classAttributeIconSize 0


class Ship {
    -mmmsiCode
    -shipName
    -imoCode
    -callSignId
    -currentCapacity /'added by us'/
    -draft
}

class ShipPosition {
    -baseDateTime
    -latitude
    -longitude
    -sog
    -cog
    -heading
    -position
    -transceiver
    +getPositionsBST()
}

class ShipsBST {
    +getPairsOfShips()
    +getShipsInOrderWithIntendedTD()
    +fillTreeMapForEachShip(listShipsWithIntendedTD, infoPair, \ntravelledDistance, positionsBST, ship1MMSI, indexShip)
}

class PositionsBST {
    +getTotalDistance()
    +getArrivalDistance()
    +getDepartureDistance()
    +size()
}

class ShowPairsOfShipsUI {}

class ShowPairsOfShipsController {

}

class Company {
    -designation
    +getBstShip(mmsiCode)
}

/'Ship "1" - - "1..*" ShipPosition : has >'/
/'Company "1" - - "1..*" Ship : owns >'/

Company "1" - - "1" ShipsBST : uses >
ShipsBST "1" - - "1..*" Ship : owns >
Ship "1" - - "1" PositionsBST : uses >
PositionsBST "1" - - "1..*" ShipPosition : has >
ShowPairsOfShipsUI ..> ShowPairsOfShipsController
ShowPairsOfShipsController ..> Company
ShowPairsOfShipsController ..> ShipsBST
ShowPairsOfShipsController ..> Ship
ShowPairsOfShipsController ..> PositionsBST

@enduml

@startuml

skinparam classAttributeIconSize 0


class Ship {
    -mmmsiCode
    -shipName
    -imoCode
    -callSignId
    -currentCapacity 
    -draft
}

class ShipPosition {
    -baseDateTime
    -latitude
    -longitude
    -sog
    -cog
    -heading
    -position
    -transceiver
    +getPositionsBST()
}

class ShipsBST {
    +getPairsOfShips()
    +getShipsInOrderWithIntendedTD()
    +fillTreeMapForEachShip(listShipsWithIntendedTD, infoPair, \ntravelledDistance, positionsBST, ship1MMSI, indexShip)
}

class PositionsBST {
    +getTotalDistance()
    +getArrivalDistance()
    +getDepartureDistance()
    +size()
}

class ShowPairsOfShipsUI {}

class ShowPairsOfShipsController {

}

class Company {
    -designation
    +getBstShip(mmsiCode)
}


Company "1" - - "1" ShipsBST : uses >
ShipsBST "1" - - "1..*" Ship : owns >
Ship "1" - - "1" PositionsBST : uses >
PositionsBST "1" - - "1..*" ShipPosition : has >
ShowPairsOfShipsUI ..> ShowPairsOfShipsController
ShowPairsOfShipsController ..> Company
ShowPairsOfShipsController ..> ShipsBST
ShowPairsOfShipsController ..> Ship
ShowPairsOfShipsController ..> PositionsBST

@enduml

PlantUML version 1.2021.11(Sat Oct 02 14:26:11 BST 2021)
(GPL source distribution)
Java Runtime: OpenJDK Runtime Environment
JVM: OpenJDK 64-Bit Server VM
Default Encoding: Cp1252
Language: pt
Country: PT
--></g></svg>