<?xml version="1.0" encoding="UTF-8" standalone="no"?><svg xmlns="http://www.w3.org/2000/svg" xmlns:xlink="http://www.w3.org/1999/xlink" contentScriptType="application/ecmascript" contentStyleType="text/css" height="1137px" preserveAspectRatio="none" style="width:558px;height:1137px;background:#FFFFFF;" version="1.1" viewBox="0 0 558 1137" width="558px" zoomAndPan="magnify"><defs><filter height="300%" id="fu5vj4w9bo21y" width="300%" x="-1" y="-1"><feGaussianBlur result="blurOut" stdDeviation="2.0"/><feColorMatrix in="blurOut" result="blurOut2" type="matrix" values="0 0 0 0 0 0 0 0 0 0 0 0 0 0 0 0 0 0 .4 0"/><feOffset dx="4.0" dy="4.0" in="blurOut2" result="blurOut3"/><feBlend in="SourceGraphic" in2="blurOut3" mode="normal"/></filter></defs><g><!--MD5=[0dc7f2ddb409b58bcf52b12238c25399]
class Ship--><rect codeLine="7" fill="#FEFECE" filter="url(#fu5vj4w9bo21y)" height="131.0156" id="Ship" style="stroke:#A80036;stroke-width:1.5;" width="93" x="176" y="574"/><ellipse cx="207.2" cy="590" fill="#ADD1B2" rx="11" ry="11" style="stroke:#A80036;stroke-width:1.0;"/><path d="M209.2,586.5 Q209.4031,586 209.6375,585.75 Q209.8719,585.5 210.1375,585.5 Q210.6063,585.5 210.9031,585.7813 Q211.2,586.0625 211.2,586.7188 L211.2,588.2813 Q211.2,588.9375 210.9188,589.2188 Q210.6375,589.5 210.2,589.5 Q209.8094,589.5 209.5594,589.3281 Q209.3094,589.1563 209.2,588.7031 Q209.1531,588.3906 208.9813,588.2188 Q208.6688,587.8906 208.1063,587.7031 Q207.5438,587.5 206.9813,587.5 Q206.2781,587.5 205.6844,587.7813 Q205.1063,588.0625 204.6531,588.6875 Q204.2,589.3125 204.2,590.1719 L204.2,591.0938 Q204.2,592.125 205.0438,592.8125 Q205.8875,593.5 207.3875,593.5 Q208.2781,593.5 208.9031,593.2969 Q209.2625,593.1875 209.6688,592.8281 Q209.9344,592.625 210.075,592.5625 Q210.2156,592.5 210.3875,592.5 Q210.7156,592.5 210.95,592.7656 Q211.2,593.0156 211.2,593.375 Q211.2,593.7188 210.8563,594.125 Q210.3563,594.7188 209.5594,595.0469 Q208.5125,595.5 207.2313,595.5 Q205.7313,595.5 204.5281,594.9063 Q203.5594,594.4375 202.8719,593.4219 Q202.2,592.4063 202.2,591.2031 L202.2,590.1094 Q202.2,588.8594 202.7938,587.7656 Q203.4031,586.6719 204.45,586.0938 Q205.5125,585.5 206.7,585.5 Q207.4188,585.5 208.0438,585.75 Q208.6688,586 209.2,586.5 Z " fill="#000000"/><text fill="#000000" font-family="sans-serif" font-size="12" lengthAdjust="spacing" textLength="25" x="224.8" y="594.9102">Ship</text><line style="stroke:#A80036;stroke-width:1.5;" x1="177" x2="268" y1="606" y2="606"/><text fill="#000000" font-family="sans-serif" font-size="11" lengthAdjust="spacing" textLength="61" x="182" y="621.4189">-mmmsiCode</text><text fill="#000000" font-family="sans-serif" font-size="11" lengthAdjust="spacing" textLength="51" x="182" y="635.2549">-shipName</text><text fill="#000000" font-family="sans-serif" font-size="11" lengthAdjust="spacing" textLength="45" x="182" y="649.0908">-imoCode</text><text fill="#000000" font-family="sans-serif" font-size="11" lengthAdjust="spacing" textLength="49" x="182" y="662.9268">-callSignId</text><text fill="#000000" font-family="sans-serif" font-size="11" lengthAdjust="spacing" textLength="81" x="182" y="676.7627">-currentCapacity</text><text fill="#000000" font-family="sans-serif" font-size="11" lengthAdjust="spacing" textLength="27" x="182" y="690.5986">-draft</text><line style="stroke:#A80036;stroke-width:1.5;" x1="177" x2="268" y1="697.0156" y2="697.0156"/><!--MD5=[1c0c3765e68dc4575d559b566278b914]
class ShipPosition--><rect codeLine="16" fill="#FEFECE" filter="url(#fu5vj4w9bo21y)" height="172.5234" id="ShipPosition" style="stroke:#A80036;stroke-width:1.5;" width="104" x="110.5" y="951"/><ellipse cx="126.4" cy="967" fill="#ADD1B2" rx="11" ry="11" style="stroke:#A80036;stroke-width:1.0;"/><path d="M128.4,963.5 Q128.6031,963 128.8375,962.75 Q129.0719,962.5 129.3375,962.5 Q129.8063,962.5 130.1031,962.7813 Q130.4,963.0625 130.4,963.7188 L130.4,965.2813 Q130.4,965.9375 130.1188,966.2188 Q129.8375,966.5 129.4,966.5 Q129.0094,966.5 128.7594,966.3281 Q128.5094,966.1563 128.4,965.7031 Q128.3531,965.3906 128.1813,965.2188 Q127.8688,964.8906 127.3063,964.7031 Q126.7438,964.5 126.1813,964.5 Q125.4781,964.5 124.8844,964.7813 Q124.3063,965.0625 123.8531,965.6875 Q123.4,966.3125 123.4,967.1719 L123.4,968.0938 Q123.4,969.125 124.2438,969.8125 Q125.0875,970.5 126.5875,970.5 Q127.4781,970.5 128.1031,970.2969 Q128.4625,970.1875 128.8688,969.8281 Q129.1344,969.625 129.275,969.5625 Q129.4156,969.5 129.5875,969.5 Q129.9156,969.5 130.15,969.7656 Q130.4,970.0156 130.4,970.375 Q130.4,970.7188 130.0563,971.125 Q129.5563,971.7188 128.7594,972.0469 Q127.7125,972.5 126.4313,972.5 Q124.9313,972.5 123.7281,971.9063 Q122.7594,971.4375 122.0719,970.4219 Q121.4,969.4063 121.4,968.2031 L121.4,967.1094 Q121.4,965.8594 121.9938,964.7656 Q122.6031,963.6719 123.65,963.0938 Q124.7125,962.5 125.9,962.5 Q126.6188,962.5 127.2438,962.75 Q127.8688,963 128.4,963.5 Z " fill="#000000"/><text fill="#000000" font-family="sans-serif" font-size="12" lengthAdjust="spacing" textLength="70" x="140.6" y="971.9102">ShipPosition</text><line style="stroke:#A80036;stroke-width:1.5;" x1="111.5" x2="213.5" y1="983" y2="983"/><text fill="#000000" font-family="sans-serif" font-size="11" lengthAdjust="spacing" textLength="72" x="116.5" y="998.4189">-baseDateTime</text><text fill="#000000" font-family="sans-serif" font-size="11" lengthAdjust="spacing" textLength="38" x="116.5" y="1012.2549">-latitude</text><text fill="#000000" font-family="sans-serif" font-size="11" lengthAdjust="spacing" textLength="47" x="116.5" y="1026.0908">-longitude</text><text fill="#000000" font-family="sans-serif" font-size="11" lengthAdjust="spacing" textLength="22" x="116.5" y="1039.9268">-sog</text><text fill="#000000" font-family="sans-serif" font-size="11" lengthAdjust="spacing" textLength="22" x="116.5" y="1053.7627">-cog</text><text fill="#000000" font-family="sans-serif" font-size="11" lengthAdjust="spacing" textLength="42" x="116.5" y="1067.5986">-heading</text><text fill="#000000" font-family="sans-serif" font-size="11" lengthAdjust="spacing" textLength="41" x="116.5" y="1081.4346">-position</text><text fill="#000000" font-family="sans-serif" font-size="11" lengthAdjust="spacing" textLength="59" x="116.5" y="1095.2705">-transceiver</text><line style="stroke:#A80036;stroke-width:1.5;" x1="111.5" x2="213.5" y1="1101.6875" y2="1101.6875"/><text fill="#000000" font-family="sans-serif" font-size="11" lengthAdjust="spacing" textLength="92" x="116.5" y="1117.1064">+getPositionsBST()</text><!--MD5=[43adf079e4aaffd3a283c2c0454b404c]
class ShipsBST--><rect codeLine="28" fill="#FEFECE" filter="url(#fu5vj4w9bo21y)" height="103.3438" id="ShipsBST" style="stroke:#A80036;stroke-width:1.5;" width="298" x="246.5" y="393"/><ellipse cx="363.75" cy="409" fill="#ADD1B2" rx="11" ry="11" style="stroke:#A80036;stroke-width:1.0;"/><path d="M365.75,405.5 Q365.9531,405 366.1875,404.75 Q366.4219,404.5 366.6875,404.5 Q367.1563,404.5 367.4531,404.7813 Q367.75,405.0625 367.75,405.7188 L367.75,407.2813 Q367.75,407.9375 367.4688,408.2188 Q367.1875,408.5 366.75,408.5 Q366.3594,408.5 366.1094,408.3281 Q365.8594,408.1563 365.75,407.7031 Q365.7031,407.3906 365.5313,407.2188 Q365.2188,406.8906 364.6563,406.7031 Q364.0938,406.5 363.5313,406.5 Q362.8281,406.5 362.2344,406.7813 Q361.6563,407.0625 361.2031,407.6875 Q360.75,408.3125 360.75,409.1719 L360.75,410.0938 Q360.75,411.125 361.5938,411.8125 Q362.4375,412.5 363.9375,412.5 Q364.8281,412.5 365.4531,412.2969 Q365.8125,412.1875 366.2188,411.8281 Q366.4844,411.625 366.625,411.5625 Q366.7656,411.5 366.9375,411.5 Q367.2656,411.5 367.5,411.7656 Q367.75,412.0156 367.75,412.375 Q367.75,412.7188 367.4063,413.125 Q366.9063,413.7188 366.1094,414.0469 Q365.0625,414.5 363.7813,414.5 Q362.2813,414.5 361.0781,413.9063 Q360.1094,413.4375 359.4219,412.4219 Q358.75,411.4063 358.75,410.2031 L358.75,409.1094 Q358.75,407.8594 359.3438,406.7656 Q359.9531,405.6719 361,405.0938 Q362.0625,404.5 363.25,404.5 Q363.9688,404.5 364.5938,404.75 Q365.2188,405 365.75,405.5 Z " fill="#000000"/><text fill="#000000" font-family="sans-serif" font-size="12" lengthAdjust="spacing" textLength="55" x="384.25" y="413.9102">ShipsBST</text><line style="stroke:#A80036;stroke-width:1.5;" x1="247.5" x2="543.5" y1="425" y2="425"/><line style="stroke:#A80036;stroke-width:1.5;" x1="247.5" x2="543.5" y1="433" y2="433"/><text fill="#000000" font-family="sans-serif" font-size="11" lengthAdjust="spacing" textLength="92" x="252.5" y="448.4189">+getPairsOfShips()</text><text fill="#000000" font-family="sans-serif" font-size="11" lengthAdjust="spacing" textLength="167" x="252.5" y="462.2549">+getShipsInOrderWithIntendedTD()</text><text fill="#000000" font-family="sans-serif" font-size="11" lengthAdjust="spacing" textLength="283" x="252.5" y="476.0908">+fillTreeMapForEachShip(listShipsWithIntendedTD, infoPair,</text><text fill="#000000" font-family="sans-serif" font-size="11" lengthAdjust="spacing" textLength="266" x="252.5" y="489.9268">travelledDistance, positionsBST, ship1MMSI, indexShip)</text><!--MD5=[004e005a2edf96352d0772cab412880f]
class PositionsBST--><rect codeLine="34" fill="#FEFECE" filter="url(#fu5vj4w9bo21y)" height="89.5078" id="PositionsBST" style="stroke:#A80036;stroke-width:1.5;" width="131" x="97" y="783"/><ellipse cx="122.8" cy="799" fill="#ADD1B2" rx="11" ry="11" style="stroke:#A80036;stroke-width:1.0;"/><path d="M124.8,795.5 Q125.0031,795 125.2375,794.75 Q125.4719,794.5 125.7375,794.5 Q126.2063,794.5 126.5031,794.7813 Q126.8,795.0625 126.8,795.7188 L126.8,797.2813 Q126.8,797.9375 126.5188,798.2188 Q126.2375,798.5 125.8,798.5 Q125.4094,798.5 125.1594,798.3281 Q124.9094,798.1563 124.8,797.7031 Q124.7531,797.3906 124.5813,797.2188 Q124.2688,796.8906 123.7063,796.7031 Q123.1438,796.5 122.5813,796.5 Q121.8781,796.5 121.2844,796.7813 Q120.7063,797.0625 120.2531,797.6875 Q119.8,798.3125 119.8,799.1719 L119.8,800.0938 Q119.8,801.125 120.6438,801.8125 Q121.4875,802.5 122.9875,802.5 Q123.8781,802.5 124.5031,802.2969 Q124.8625,802.1875 125.2688,801.8281 Q125.5344,801.625 125.675,801.5625 Q125.8156,801.5 125.9875,801.5 Q126.3156,801.5 126.55,801.7656 Q126.8,802.0156 126.8,802.375 Q126.8,802.7188 126.4563,803.125 Q125.9563,803.7188 125.1594,804.0469 Q124.1125,804.5 122.8313,804.5 Q121.3313,804.5 120.1281,803.9063 Q119.1594,803.4375 118.4719,802.4219 Q117.8,801.4063 117.8,800.2031 L117.8,799.1094 Q117.8,797.8594 118.3938,796.7656 Q119.0031,795.6719 120.05,795.0938 Q121.1125,794.5 122.3,794.5 Q123.0188,794.5 123.6438,794.75 Q124.2688,795 124.8,795.5 Z " fill="#000000"/><text fill="#000000" font-family="sans-serif" font-size="12" lengthAdjust="spacing" textLength="75" x="139.2" y="803.9102">PositionsBST</text><line style="stroke:#A80036;stroke-width:1.5;" x1="98" x2="227" y1="815" y2="815"/><line style="stroke:#A80036;stroke-width:1.5;" x1="98" x2="227" y1="823" y2="823"/><text fill="#000000" font-family="sans-serif" font-size="11" lengthAdjust="spacing" textLength="94" x="103" y="838.4189">+getTotalDistance()</text><text fill="#000000" font-family="sans-serif" font-size="11" lengthAdjust="spacing" textLength="103" x="103" y="852.2549">+getArrivalDistance()</text><text fill="#000000" font-family="sans-serif" font-size="11" lengthAdjust="spacing" textLength="119" x="103" y="866.0908">+getDepartureDistance()</text><!--MD5=[111fa0fa25b4bd8d678455dd96f581e5]
class ShowPairsOfShipsUI--><rect codeLine="40" fill="#FEFECE" filter="url(#fu5vj4w9bo21y)" height="48" id="ShowPairsOfShipsUI" style="stroke:#A80036;stroke-width:1.5;" width="148" x="158.5" y="7"/><ellipse cx="173.5" cy="23" fill="#ADD1B2" rx="11" ry="11" style="stroke:#A80036;stroke-width:1.0;"/><path d="M175.5,19.5 Q175.7031,19 175.9375,18.75 Q176.1719,18.5 176.4375,18.5 Q176.9063,18.5 177.2031,18.7813 Q177.5,19.0625 177.5,19.7188 L177.5,21.2813 Q177.5,21.9375 177.2188,22.2188 Q176.9375,22.5 176.5,22.5 Q176.1094,22.5 175.8594,22.3281 Q175.6094,22.1563 175.5,21.7031 Q175.4531,21.3906 175.2813,21.2188 Q174.9688,20.8906 174.4063,20.7031 Q173.8438,20.5 173.2813,20.5 Q172.5781,20.5 171.9844,20.7813 Q171.4063,21.0625 170.9531,21.6875 Q170.5,22.3125 170.5,23.1719 L170.5,24.0938 Q170.5,25.125 171.3438,25.8125 Q172.1875,26.5 173.6875,26.5 Q174.5781,26.5 175.2031,26.2969 Q175.5625,26.1875 175.9688,25.8281 Q176.2344,25.625 176.375,25.5625 Q176.5156,25.5 176.6875,25.5 Q177.0156,25.5 177.25,25.7656 Q177.5,26.0156 177.5,26.375 Q177.5,26.7188 177.1563,27.125 Q176.6563,27.7188 175.8594,28.0469 Q174.8125,28.5 173.5313,28.5 Q172.0313,28.5 170.8281,27.9063 Q169.8594,27.4375 169.1719,26.4219 Q168.5,25.4063 168.5,24.2031 L168.5,23.1094 Q168.5,21.8594 169.0938,20.7656 Q169.7031,19.6719 170.75,19.0938 Q171.8125,18.5 173,18.5 Q173.7188,18.5 174.3438,18.75 Q174.9688,19 175.5,19.5 Z " fill="#000000"/><text fill="#000000" font-family="sans-serif" font-size="12" lengthAdjust="spacing" textLength="116" x="187.5" y="27.9102">ShowPairsOfShipsUI</text><line style="stroke:#A80036;stroke-width:1.5;" x1="159.5" x2="305.5" y1="39" y2="39"/><line style="stroke:#A80036;stroke-width:1.5;" x1="159.5" x2="305.5" y1="47" y2="47"/><!--MD5=[7bf3f207a17c3ec513cce305ec5a5ed9]
class ShowPairsOfShipsController--><rect codeLine="42" fill="#FEFECE" filter="url(#fu5vj4w9bo21y)" height="61.8359" id="ShowPairsOfShipsController" style="stroke:#A80036;stroke-width:1.5;" width="190" x="137.5" y="116"/><ellipse cx="152.5" cy="132" fill="#ADD1B2" rx="11" ry="11" style="stroke:#A80036;stroke-width:1.0;"/><path d="M154.5,128.5 Q154.7031,128 154.9375,127.75 Q155.1719,127.5 155.4375,127.5 Q155.9063,127.5 156.2031,127.7813 Q156.5,128.0625 156.5,128.7188 L156.5,130.2813 Q156.5,130.9375 156.2188,131.2188 Q155.9375,131.5 155.5,131.5 Q155.1094,131.5 154.8594,131.3281 Q154.6094,131.1563 154.5,130.7031 Q154.4531,130.3906 154.2813,130.2188 Q153.9688,129.8906 153.4063,129.7031 Q152.8438,129.5 152.2813,129.5 Q151.5781,129.5 150.9844,129.7813 Q150.4063,130.0625 149.9531,130.6875 Q149.5,131.3125 149.5,132.1719 L149.5,133.0938 Q149.5,134.125 150.3438,134.8125 Q151.1875,135.5 152.6875,135.5 Q153.5781,135.5 154.2031,135.2969 Q154.5625,135.1875 154.9688,134.8281 Q155.2344,134.625 155.375,134.5625 Q155.5156,134.5 155.6875,134.5 Q156.0156,134.5 156.25,134.7656 Q156.5,135.0156 156.5,135.375 Q156.5,135.7188 156.1563,136.125 Q155.6563,136.7188 154.8594,137.0469 Q153.8125,137.5 152.5313,137.5 Q151.0313,137.5 149.8281,136.9063 Q148.8594,136.4375 148.1719,135.4219 Q147.5,134.4063 147.5,133.2031 L147.5,132.1094 Q147.5,130.8594 148.0938,129.7656 Q148.7031,128.6719 149.75,128.0938 Q150.8125,127.5 152,127.5 Q152.7188,127.5 153.3438,127.75 Q153.9688,128 154.5,128.5 Z " fill="#000000"/><text fill="#000000" font-family="sans-serif" font-size="12" lengthAdjust="spacing" textLength="158" x="166.5" y="136.9102">ShowPairsOfShipsController</text><line style="stroke:#A80036;stroke-width:1.5;" x1="138.5" x2="326.5" y1="148" y2="148"/><line style="stroke:#A80036;stroke-width:1.5;" x1="138.5" x2="326.5" y1="156" y2="156"/><text fill="#000000" font-family="sans-serif" font-size="11" lengthAdjust="spacing" textLength="92" x="143.5" y="171.4189">+getPairsOfShips()</text><!--MD5=[02e4b9b7573f1156f41e60aa5b4e25a4]
class Company--><rect codeLine="46" fill="#FEFECE" filter="url(#fu5vj4w9bo21y)" height="75.6719" id="Company" style="stroke:#A80036;stroke-width:1.5;" width="127" x="328" y="239"/><ellipse cx="361.9" cy="255" fill="#ADD1B2" rx="11" ry="11" style="stroke:#A80036;stroke-width:1.0;"/><path d="M363.9,251.5 Q364.1031,251 364.3375,250.75 Q364.5719,250.5 364.8375,250.5 Q365.3063,250.5 365.6031,250.7813 Q365.9,251.0625 365.9,251.7188 L365.9,253.2813 Q365.9,253.9375 365.6188,254.2188 Q365.3375,254.5 364.9,254.5 Q364.5094,254.5 364.2594,254.3281 Q364.0094,254.1563 363.9,253.7031 Q363.8531,253.3906 363.6813,253.2188 Q363.3688,252.8906 362.8063,252.7031 Q362.2438,252.5 361.6813,252.5 Q360.9781,252.5 360.3844,252.7813 Q359.8063,253.0625 359.3531,253.6875 Q358.9,254.3125 358.9,255.1719 L358.9,256.0938 Q358.9,257.125 359.7438,257.8125 Q360.5875,258.5 362.0875,258.5 Q362.9781,258.5 363.6031,258.2969 Q363.9625,258.1875 364.3688,257.8281 Q364.6344,257.625 364.775,257.5625 Q364.9156,257.5 365.0875,257.5 Q365.4156,257.5 365.65,257.7656 Q365.9,258.0156 365.9,258.375 Q365.9,258.7188 365.5563,259.125 Q365.0563,259.7188 364.2594,260.0469 Q363.2125,260.5 361.9313,260.5 Q360.4313,260.5 359.2281,259.9063 Q358.2594,259.4375 357.5719,258.4219 Q356.9,257.4063 356.9,256.2031 L356.9,255.1094 Q356.9,253.8594 357.4938,252.7656 Q358.1031,251.6719 359.15,251.0938 Q360.2125,250.5 361.4,250.5 Q362.1188,250.5 362.7438,250.75 Q363.3688,251 363.9,251.5 Z " fill="#000000"/><text fill="#000000" font-family="sans-serif" font-size="12" lengthAdjust="spacing" textLength="53" x="380.1" y="259.9102">Company</text><line style="stroke:#A80036;stroke-width:1.5;" x1="329" x2="454" y1="271" y2="271"/><text fill="#000000" font-family="sans-serif" font-size="11" lengthAdjust="spacing" textLength="59" x="334" y="286.4189">-designation</text><line style="stroke:#A80036;stroke-width:1.5;" x1="329" x2="454" y1="292.8359" y2="292.8359"/><text fill="#000000" font-family="sans-serif" font-size="11" lengthAdjust="spacing" textLength="115" x="334" y="308.2549">+getBstShip(mmsiCode)</text><!--MD5=[b4a9ab6cffd58937cfea07eb2954e1bd]
class BST--><rect codeLine="51" fill="#FEFECE" filter="url(#fu5vj4w9bo21y)" height="61.8359" id="BST" style="stroke:#A80036;stroke-width:1.5;" width="55" x="7" y="797"/><ellipse cx="22" cy="813" fill="#ADD1B2" rx="11" ry="11" style="stroke:#A80036;stroke-width:1.0;"/><path d="M24,809.5 Q24.2031,809 24.4375,808.75 Q24.6719,808.5 24.9375,808.5 Q25.4063,808.5 25.7031,808.7813 Q26,809.0625 26,809.7188 L26,811.2813 Q26,811.9375 25.7188,812.2188 Q25.4375,812.5 25,812.5 Q24.6094,812.5 24.3594,812.3281 Q24.1094,812.1563 24,811.7031 Q23.9531,811.3906 23.7813,811.2188 Q23.4688,810.8906 22.9063,810.7031 Q22.3438,810.5 21.7813,810.5 Q21.0781,810.5 20.4844,810.7813 Q19.9063,811.0625 19.4531,811.6875 Q19,812.3125 19,813.1719 L19,814.0938 Q19,815.125 19.8438,815.8125 Q20.6875,816.5 22.1875,816.5 Q23.0781,816.5 23.7031,816.2969 Q24.0625,816.1875 24.4688,815.8281 Q24.7344,815.625 24.875,815.5625 Q25.0156,815.5 25.1875,815.5 Q25.5156,815.5 25.75,815.7656 Q26,816.0156 26,816.375 Q26,816.7188 25.6563,817.125 Q25.1563,817.7188 24.3594,818.0469 Q23.3125,818.5 22.0313,818.5 Q20.5313,818.5 19.3281,817.9063 Q18.3594,817.4375 17.6719,816.4219 Q17,815.4063 17,814.2031 L17,813.1094 Q17,811.8594 17.5938,810.7656 Q18.2031,809.6719 19.25,809.0938 Q20.3125,808.5 21.5,808.5 Q22.2188,808.5 22.8438,808.75 Q23.4688,809 24,809.5 Z " fill="#000000"/><text fill="#000000" font-family="sans-serif" font-size="12" lengthAdjust="spacing" textLength="23" x="36" y="817.9102">BST</text><line style="stroke:#A80036;stroke-width:1.5;" x1="8" x2="61" y1="829" y2="829"/><line style="stroke:#A80036;stroke-width:1.5;" x1="8" x2="61" y1="837" y2="837"/><text fill="#000000" font-family="sans-serif" font-size="11" lengthAdjust="spacing" textLength="34" x="13" y="852.4189">+size()</text><!--MD5=[1b046338fb2698c0e9f102f85676b8e2]
link Company to ShipsBST--><path codeLine="58" d="M392.4,315.14 C392.95,338.11 393.67,367.89 394.28,392.99 " fill="none" id="Company-ShipsBST" style="stroke:#A80036;stroke-width:1.0;"/><polygon fill="#000000" points="398.6207,359.1743,401.3404,350.0609,395.4643,350.2028,398.6207,359.1743" style="stroke:#000000;stroke-width:1.0;"/><text fill="#000000" font-family="sans-serif" font-size="13" lengthAdjust="spacing" textLength="28" x="407.5" y="359.4951">uses</text><text fill="#000000" font-family="sans-serif" font-size="13" lengthAdjust="spacing" textLength="7" x="384.9856" y="336.0428">1</text><text fill="#000000" font-family="sans-serif" font-size="13" lengthAdjust="spacing" textLength="7" x="386.6163" y="382.1171">1</text><!--MD5=[b457ea32acbd230d0e22037aaab2ac98]
link ShipsBST to Ship--><path codeLine="59" d="M350.05,496.21 C325.12,524.02 294.27,558.43 269.16,586.45 " fill="none" id="ShipsBST-Ship" style="stroke:#A80036;stroke-width:1.0;"/><polygon fill="#000000" points="321.1626,538.8989,329.3884,534.1254,325.0116,530.202,321.1626,538.8989" style="stroke:#000000;stroke-width:1.0;"/><text fill="#000000" font-family="sans-serif" font-size="13" lengthAdjust="spacing" textLength="30" x="333.5" y="540.4951">owns</text><text fill="#000000" font-family="sans-serif" font-size="13" lengthAdjust="spacing" textLength="7" x="336.4723" y="517.7292">1</text><text fill="#000000" font-family="sans-serif" font-size="13" lengthAdjust="spacing" textLength="20" x="277.1278" y="575.3836">1..*</text><!--MD5=[bd16fc4b2a08274ec71edc6d573c9239]
link Ship to PositionsBST--><path codeLine="60" d="M201.68,705.21 C193.42,730.88 184.14,759.74 176.68,782.92 " fill="none" id="Ship-PositionsBST" style="stroke:#A80036;stroke-width:1.0;"/><polygon fill="#000000" points="194.9687,748.9355,200.5365,741.2251,194.9411,739.425,194.9687,748.9355" style="stroke:#000000;stroke-width:1.0;"/><text fill="#000000" font-family="sans-serif" font-size="13" lengthAdjust="spacing" textLength="28" x="205.5" y="749.4951">uses</text><text fill="#000000" font-family="sans-serif" font-size="13" lengthAdjust="spacing" textLength="7" x="192.172" y="726.3238">1</text><text fill="#000000" font-family="sans-serif" font-size="13" lengthAdjust="spacing" textLength="7" x="171.3821" y="772.0227">1</text><!--MD5=[34b80baad36b2d2bd6b6893c22d217b3]
link PositionsBST to ShipPosition--><path codeLine="61" d="M162.5,873.01 C162.5,895.61 162.5,923.95 162.5,950.66 " fill="none" id="PositionsBST-ShipPosition" style="stroke:#A80036;stroke-width:1.0;"/><polygon fill="#000000" points="167.5,917.1758,170.4389,908.1307,164.5611,908.1307,167.5,917.1758" style="stroke:#000000;stroke-width:1.0;"/><text fill="#000000" font-family="sans-serif" font-size="13" lengthAdjust="spacing" textLength="21" x="176.5" y="917.4951">has</text><text fill="#000000" font-family="sans-serif" font-size="13" lengthAdjust="spacing" textLength="7" x="155.0078" y="894.019">1</text><text fill="#000000" font-family="sans-serif" font-size="13" lengthAdjust="spacing" textLength="20" x="141.6406" y="940.0404">1..*</text><!--MD5=[f1753cec50872203df2bb2df986bb6f9]
link ShowPairsOfShipsUI to ShowPairsOfShipsController--><path codeLine="62" d="M232.5,55.07 C232.5,71.01 232.5,92.51 232.5,110.6 " fill="none" id="ShowPairsOfShipsUI-to-ShowPairsOfShipsController" style="stroke:#A80036;stroke-width:1.0;stroke-dasharray:7.0,7.0;"/><polygon fill="#A80036" points="232.5,115.61,236.5,106.61,232.5,110.61,228.5,106.61,232.5,115.61" style="stroke:#A80036;stroke-width:1.0;"/><!--MD5=[1bb06696cacca84149cf104bf392efc1]
link ShowPairsOfShipsController to Company--><path codeLine="63" d="M269.78,178.01 C291.12,195.19 318.19,216.98 341.38,235.65 " fill="none" id="ShowPairsOfShipsController-to-Company" style="stroke:#A80036;stroke-width:1.0;stroke-dasharray:7.0,7.0;"/><polygon fill="#A80036" points="345.36,238.85,340.8584,230.0901,341.4655,235.7143,335.8413,236.3214,345.36,238.85" style="stroke:#A80036;stroke-width:1.0;"/><!--MD5=[672b517aa0aa5e7c31278b5a31149d91]
link ShowPairsOfShipsController to ShipsBST--><path codeLine="64" d="M245.02,178.23 C259.45,212.2 284.54,268.66 310.5,315 C324.47,339.93 341.58,366.44 356.79,388.86 " fill="none" id="ShowPairsOfShipsController-to-ShipsBST" style="stroke:#A80036;stroke-width:1.0;stroke-dasharray:7.0,7.0;"/><polygon fill="#A80036" points="359.6,393,357.8515,383.3076,356.7904,388.864,351.234,387.803,359.6,393" style="stroke:#A80036;stroke-width:1.0;"/><!--MD5=[eb21687c847b61808a3ba2cbbb6054e7]
link ShowPairsOfShipsController to Ship--><path codeLine="65" d="M231.88,178.31 C230.31,255.31 226.14,460 223.93,568.59 " fill="none" id="ShowPairsOfShipsController-to-Ship" style="stroke:#A80036;stroke-width:1.0;stroke-dasharray:7.0,7.0;"/><polygon fill="#A80036" points="223.82,573.68,227.9992,564.7618,223.92,568.681,220.0008,564.6018,223.82,573.68" style="stroke:#A80036;stroke-width:1.0;"/><!--MD5=[0e8a582c0daa7e55be32d3754a6aeb0e]
link ShowPairsOfShipsController to PositionsBST--><path codeLine="66" d="M184.89,178 C155.16,200.79 122.5,235.13 122.5,276 C122.5,276 122.5,276 122.5,640.5 C122.5,687.88 134.99,740.55 146.02,777.81 " fill="none" id="ShowPairsOfShipsController-to-PositionsBST" style="stroke:#A80036;stroke-width:1.0;stroke-dasharray:7.0,7.0;"/><polygon fill="#A80036" points="147.49,782.73,148.7486,772.9619,146.0598,777.9389,141.0828,775.2502,147.49,782.73" style="stroke:#A80036;stroke-width:1.0;"/><!--MD5=[4f67294047c37ade415b9b594b2af08c]
reverse link BST to PositionsBST--><path codeLine="68" d="M82.2,828 C87.11,828 92.03,828 96.94,828 " fill="none" id="BST-backto-PositionsBST" style="stroke:#A80036;stroke-width:1.0;"/><polygon fill="none" points="82,835,62,828,82,821,82,835" style="stroke:#A80036;stroke-width:1.0;"/><!--MD5=[f9a5c6738e300cd1ff933ac1123ee92d]
@startuml

skinparam classAttributeIconSize 0


class Ship {
    -mmmsiCode
    -shipName
    -imoCode
    -callSignId
    -currentCapacity /'added by us'/
    -draft
}

class ShipPosition {
    -baseDateTime
    -latitude
    -longitude
    -sog
    -cog
    -heading
    -position
    -transceiver
    +getPositionsBST()
}

class ShipsBST {
    +getPairsOfShips()
    +getShipsInOrderWithIntendedTD()
    +fillTreeMapForEachShip(listShipsWithIntendedTD, infoPair, \ntravelledDistance, positionsBST, ship1MMSI, indexShip)
}

class PositionsBST {
    +getTotalDistance()
    +getArrivalDistance()
    +getDepartureDistance()
}

class ShowPairsOfShipsUI {}

class ShowPairsOfShipsController {
    +getPairsOfShips()
}

class Company {
    -designation
    +getBstShip(mmsiCode)
}

class BST {
+size()
}

/'Ship "1" - - "1..*" ShipPosition : has >'/
/'Company "1" - - "1..*" Ship : owns >'/

Company "1" - - "1" ShipsBST : uses >
ShipsBST "1" - - "1..*" Ship : owns >
Ship "1" - - "1" PositionsBST : uses >
PositionsBST "1" - - "1..*" ShipPosition : has >
ShowPairsOfShipsUI ..> ShowPairsOfShipsController
ShowPairsOfShipsController ..> Company
ShowPairsOfShipsController ..> ShipsBST
ShowPairsOfShipsController ..> Ship
ShowPairsOfShipsController ..> PositionsBST

BST <|- PositionsBST

@enduml

@startuml

skinparam classAttributeIconSize 0


class Ship {
    -mmmsiCode
    -shipName
    -imoCode
    -callSignId
    -currentCapacity 
    -draft
}

class ShipPosition {
    -baseDateTime
    -latitude
    -longitude
    -sog
    -cog
    -heading
    -position
    -transceiver
    +getPositionsBST()
}

class ShipsBST {
    +getPairsOfShips()
    +getShipsInOrderWithIntendedTD()
    +fillTreeMapForEachShip(listShipsWithIntendedTD, infoPair, \ntravelledDistance, positionsBST, ship1MMSI, indexShip)
}

class PositionsBST {
    +getTotalDistance()
    +getArrivalDistance()
    +getDepartureDistance()
}

class ShowPairsOfShipsUI {}

class ShowPairsOfShipsController {
    +getPairsOfShips()
}

class Company {
    -designation
    +getBstShip(mmsiCode)
}

class BST {
+size()
}


Company "1" - - "1" ShipsBST : uses >
ShipsBST "1" - - "1..*" Ship : owns >
Ship "1" - - "1" PositionsBST : uses >
PositionsBST "1" - - "1..*" ShipPosition : has >
ShowPairsOfShipsUI ..> ShowPairsOfShipsController
ShowPairsOfShipsController ..> Company
ShowPairsOfShipsController ..> ShipsBST
ShowPairsOfShipsController ..> Ship
ShowPairsOfShipsController ..> PositionsBST

BST <|- PositionsBST

@enduml

PlantUML version 1.2021.11(Sat Oct 02 14:26:11 BST 2021)
(GPL source distribution)
Java Runtime: OpenJDK Runtime Environment
JVM: OpenJDK 64-Bit Server VM
Default Encoding: Cp1252
Language: pt
Country: PT
--></g></svg>