<?xml version="1.0" encoding="UTF-8" standalone="no"?><svg xmlns="http://www.w3.org/2000/svg" xmlns:xlink="http://www.w3.org/1999/xlink" contentScriptType="application/ecmascript" contentStyleType="text/css" height="1042px" preserveAspectRatio="none" style="width:543px;height:1042px;background:#FFFFFF;" version="1.1" viewBox="0 0 543 1042" width="543px" zoomAndPan="magnify"><defs><filter height="300%" id="f1vno5k5wavuxq" width="300%" x="-1" y="-1"><feGaussianBlur result="blurOut" stdDeviation="2.0"/><feColorMatrix in="blurOut" result="blurOut2" type="matrix" values="0 0 0 0 0 0 0 0 0 0 0 0 0 0 0 0 0 0 .4 0"/><feOffset dx="4.0" dy="4.0" in="blurOut2" result="blurOut3"/><feBlend in="SourceGraphic" in2="blurOut3" mode="normal"/></filter></defs><g><!--MD5=[0dc7f2ddb409b58bcf52b12238c25399]
class Ship--><rect codeLine="7" fill="#FEFECE" filter="url(#f1vno5k5wavuxq)" height="144.8516" id="Ship" style="stroke:#A80036;stroke-width:1.5;" width="104" x="265.5" y="465"/><ellipse cx="301.65" cy="481" fill="#ADD1B2" rx="11" ry="11" style="stroke:#A80036;stroke-width:1.0;"/><path d="M303.65,477.5 Q303.8531,477 304.0875,476.75 Q304.3219,476.5 304.5875,476.5 Q305.0563,476.5 305.3531,476.7813 Q305.65,477.0625 305.65,477.7188 L305.65,479.2813 Q305.65,479.9375 305.3688,480.2188 Q305.0875,480.5 304.65,480.5 Q304.2594,480.5 304.0094,480.3281 Q303.7594,480.1563 303.65,479.7031 Q303.6031,479.3906 303.4313,479.2188 Q303.1188,478.8906 302.5563,478.7031 Q301.9938,478.5 301.4313,478.5 Q300.7281,478.5 300.1344,478.7813 Q299.5563,479.0625 299.1031,479.6875 Q298.65,480.3125 298.65,481.1719 L298.65,482.0938 Q298.65,483.125 299.4938,483.8125 Q300.3375,484.5 301.8375,484.5 Q302.7281,484.5 303.3531,484.2969 Q303.7125,484.1875 304.1188,483.8281 Q304.3844,483.625 304.525,483.5625 Q304.6656,483.5 304.8375,483.5 Q305.1656,483.5 305.4,483.7656 Q305.65,484.0156 305.65,484.375 Q305.65,484.7188 305.3063,485.125 Q304.8063,485.7188 304.0094,486.0469 Q302.9625,486.5 301.6813,486.5 Q300.1813,486.5 298.9781,485.9063 Q298.0094,485.4375 297.3219,484.4219 Q296.65,483.4063 296.65,482.2031 L296.65,481.1094 Q296.65,479.8594 297.2438,478.7656 Q297.8531,477.6719 298.9,477.0938 Q299.9625,476.5 301.15,476.5 Q301.8688,476.5 302.4938,476.75 Q303.1188,477 303.65,477.5 Z " fill="#000000"/><text fill="#000000" font-family="sans-serif" font-size="12" lengthAdjust="spacing" textLength="25" x="320.35" y="485.9102">Ship</text><line style="stroke:#A80036;stroke-width:1.5;" x1="266.5" x2="368.5" y1="497" y2="497"/><text fill="#000000" font-family="sans-serif" font-size="11" lengthAdjust="spacing" textLength="61" x="271.5" y="512.4189">-mmmsiCode</text><text fill="#000000" font-family="sans-serif" font-size="11" lengthAdjust="spacing" textLength="51" x="271.5" y="526.2549">-shipName</text><text fill="#000000" font-family="sans-serif" font-size="11" lengthAdjust="spacing" textLength="45" x="271.5" y="540.0908">-imoCode</text><text fill="#000000" font-family="sans-serif" font-size="11" lengthAdjust="spacing" textLength="49" x="271.5" y="553.9268">-callSignId</text><text fill="#000000" font-family="sans-serif" font-size="11" lengthAdjust="spacing" textLength="81" x="271.5" y="567.7627">-currentCapacity</text><text fill="#000000" font-family="sans-serif" font-size="11" lengthAdjust="spacing" textLength="27" x="271.5" y="581.5986">-draft</text><line style="stroke:#A80036;stroke-width:1.5;" x1="266.5" x2="368.5" y1="588.0156" y2="588.0156"/><text fill="#000000" font-family="sans-serif" font-size="11" lengthAdjust="spacing" textLength="92" x="271.5" y="603.4346">+getPositionsBST()</text><!--MD5=[1c0c3765e68dc4575d559b566278b914]
class ShipPosition--><rect codeLine="17" fill="#FEFECE" filter="url(#f1vno5k5wavuxq)" height="172.5234" id="ShipPosition" style="stroke:#A80036;stroke-width:1.5;" width="104" x="98.5" y="856"/><ellipse cx="114.4" cy="872" fill="#ADD1B2" rx="11" ry="11" style="stroke:#A80036;stroke-width:1.0;"/><path d="M116.4,868.5 Q116.6031,868 116.8375,867.75 Q117.0719,867.5 117.3375,867.5 Q117.8063,867.5 118.1031,867.7813 Q118.4,868.0625 118.4,868.7188 L118.4,870.2813 Q118.4,870.9375 118.1188,871.2188 Q117.8375,871.5 117.4,871.5 Q117.0094,871.5 116.7594,871.3281 Q116.5094,871.1563 116.4,870.7031 Q116.3531,870.3906 116.1813,870.2188 Q115.8688,869.8906 115.3063,869.7031 Q114.7438,869.5 114.1813,869.5 Q113.4781,869.5 112.8844,869.7813 Q112.3063,870.0625 111.8531,870.6875 Q111.4,871.3125 111.4,872.1719 L111.4,873.0938 Q111.4,874.125 112.2438,874.8125 Q113.0875,875.5 114.5875,875.5 Q115.4781,875.5 116.1031,875.2969 Q116.4625,875.1875 116.8688,874.8281 Q117.1344,874.625 117.275,874.5625 Q117.4156,874.5 117.5875,874.5 Q117.9156,874.5 118.15,874.7656 Q118.4,875.0156 118.4,875.375 Q118.4,875.7188 118.0563,876.125 Q117.5563,876.7188 116.7594,877.0469 Q115.7125,877.5 114.4313,877.5 Q112.9313,877.5 111.7281,876.9063 Q110.7594,876.4375 110.0719,875.4219 Q109.4,874.4063 109.4,873.2031 L109.4,872.1094 Q109.4,870.8594 109.9938,869.7656 Q110.6031,868.6719 111.65,868.0938 Q112.7125,867.5 113.9,867.5 Q114.6188,867.5 115.2438,867.75 Q115.8688,868 116.4,868.5 Z " fill="#000000"/><text fill="#000000" font-family="sans-serif" font-size="12" lengthAdjust="spacing" textLength="70" x="128.6" y="876.9102">ShipPosition</text><line style="stroke:#A80036;stroke-width:1.5;" x1="99.5" x2="201.5" y1="888" y2="888"/><text fill="#000000" font-family="sans-serif" font-size="11" lengthAdjust="spacing" textLength="72" x="104.5" y="903.4189">-baseDateTime</text><text fill="#000000" font-family="sans-serif" font-size="11" lengthAdjust="spacing" textLength="38" x="104.5" y="917.2549">-latitude</text><text fill="#000000" font-family="sans-serif" font-size="11" lengthAdjust="spacing" textLength="47" x="104.5" y="931.0908">-longitude</text><text fill="#000000" font-family="sans-serif" font-size="11" lengthAdjust="spacing" textLength="22" x="104.5" y="944.9268">-sog</text><text fill="#000000" font-family="sans-serif" font-size="11" lengthAdjust="spacing" textLength="22" x="104.5" y="958.7627">-cog</text><text fill="#000000" font-family="sans-serif" font-size="11" lengthAdjust="spacing" textLength="42" x="104.5" y="972.5986">-heading</text><text fill="#000000" font-family="sans-serif" font-size="11" lengthAdjust="spacing" textLength="41" x="104.5" y="986.4346">-position</text><text fill="#000000" font-family="sans-serif" font-size="11" lengthAdjust="spacing" textLength="59" x="104.5" y="1000.2705">-transceiver</text><line style="stroke:#A80036;stroke-width:1.5;" x1="99.5" x2="201.5" y1="1006.6875" y2="1006.6875"/><text fill="#000000" font-family="sans-serif" font-size="11" lengthAdjust="spacing" textLength="92" x="104.5" y="1022.1064">+getPositionsBST()</text><!--MD5=[43adf079e4aaffd3a283c2c0454b404c]
class ShipsBST--><rect codeLine="29" fill="#FEFECE" filter="url(#f1vno5k5wavuxq)" height="103.3438" id="ShipsBST" style="stroke:#A80036;stroke-width:1.5;" width="298" x="168.5" y="284"/><ellipse cx="285.75" cy="300" fill="#ADD1B2" rx="11" ry="11" style="stroke:#A80036;stroke-width:1.0;"/><path d="M287.75,296.5 Q287.9531,296 288.1875,295.75 Q288.4219,295.5 288.6875,295.5 Q289.1563,295.5 289.4531,295.7813 Q289.75,296.0625 289.75,296.7188 L289.75,298.2813 Q289.75,298.9375 289.4688,299.2188 Q289.1875,299.5 288.75,299.5 Q288.3594,299.5 288.1094,299.3281 Q287.8594,299.1563 287.75,298.7031 Q287.7031,298.3906 287.5313,298.2188 Q287.2188,297.8906 286.6563,297.7031 Q286.0938,297.5 285.5313,297.5 Q284.8281,297.5 284.2344,297.7813 Q283.6563,298.0625 283.2031,298.6875 Q282.75,299.3125 282.75,300.1719 L282.75,301.0938 Q282.75,302.125 283.5938,302.8125 Q284.4375,303.5 285.9375,303.5 Q286.8281,303.5 287.4531,303.2969 Q287.8125,303.1875 288.2188,302.8281 Q288.4844,302.625 288.625,302.5625 Q288.7656,302.5 288.9375,302.5 Q289.2656,302.5 289.5,302.7656 Q289.75,303.0156 289.75,303.375 Q289.75,303.7188 289.4063,304.125 Q288.9063,304.7188 288.1094,305.0469 Q287.0625,305.5 285.7813,305.5 Q284.2813,305.5 283.0781,304.9063 Q282.1094,304.4375 281.4219,303.4219 Q280.75,302.4063 280.75,301.2031 L280.75,300.1094 Q280.75,298.8594 281.3438,297.7656 Q281.9531,296.6719 283,296.0938 Q284.0625,295.5 285.25,295.5 Q285.9688,295.5 286.5938,295.75 Q287.2188,296 287.75,296.5 Z " fill="#000000"/><text fill="#000000" font-family="sans-serif" font-size="12" lengthAdjust="spacing" textLength="55" x="306.25" y="304.9102">ShipsBST</text><line style="stroke:#A80036;stroke-width:1.5;" x1="169.5" x2="465.5" y1="316" y2="316"/><line style="stroke:#A80036;stroke-width:1.5;" x1="169.5" x2="465.5" y1="324" y2="324"/><text fill="#000000" font-family="sans-serif" font-size="11" lengthAdjust="spacing" textLength="92" x="174.5" y="339.4189">+getPairsOfShips()</text><text fill="#000000" font-family="sans-serif" font-size="11" lengthAdjust="spacing" textLength="167" x="174.5" y="353.2549">+getShipsInOrderWithIntendedTD()</text><text fill="#000000" font-family="sans-serif" font-size="11" lengthAdjust="spacing" textLength="283" x="174.5" y="367.0908">+fillTreeMapForEachShip(listShipsWithIntendedTD, infoPair,</text><text fill="#000000" font-family="sans-serif" font-size="11" lengthAdjust="spacing" textLength="266" x="174.5" y="380.9268">travelledDistance, positionsBST, ship1MMSI, indexShip)</text><!--MD5=[004e005a2edf96352d0772cab412880f]
class PositionsBST--><rect codeLine="35" fill="#FEFECE" filter="url(#f1vno5k5wavuxq)" height="89.5078" id="PositionsBST" style="stroke:#A80036;stroke-width:1.5;" width="131" x="85" y="688"/><ellipse cx="110.8" cy="704" fill="#ADD1B2" rx="11" ry="11" style="stroke:#A80036;stroke-width:1.0;"/><path d="M112.8,700.5 Q113.0031,700 113.2375,699.75 Q113.4719,699.5 113.7375,699.5 Q114.2063,699.5 114.5031,699.7813 Q114.8,700.0625 114.8,700.7188 L114.8,702.2813 Q114.8,702.9375 114.5188,703.2188 Q114.2375,703.5 113.8,703.5 Q113.4094,703.5 113.1594,703.3281 Q112.9094,703.1563 112.8,702.7031 Q112.7531,702.3906 112.5813,702.2188 Q112.2688,701.8906 111.7063,701.7031 Q111.1438,701.5 110.5813,701.5 Q109.8781,701.5 109.2844,701.7813 Q108.7063,702.0625 108.2531,702.6875 Q107.8,703.3125 107.8,704.1719 L107.8,705.0938 Q107.8,706.125 108.6438,706.8125 Q109.4875,707.5 110.9875,707.5 Q111.8781,707.5 112.5031,707.2969 Q112.8625,707.1875 113.2688,706.8281 Q113.5344,706.625 113.675,706.5625 Q113.8156,706.5 113.9875,706.5 Q114.3156,706.5 114.55,706.7656 Q114.8,707.0156 114.8,707.375 Q114.8,707.7188 114.4563,708.125 Q113.9563,708.7188 113.1594,709.0469 Q112.1125,709.5 110.8313,709.5 Q109.3313,709.5 108.1281,708.9063 Q107.1594,708.4375 106.4719,707.4219 Q105.8,706.4063 105.8,705.2031 L105.8,704.1094 Q105.8,702.8594 106.3938,701.7656 Q107.0031,700.6719 108.05,700.0938 Q109.1125,699.5 110.3,699.5 Q111.0188,699.5 111.6438,699.75 Q112.2688,700 112.8,700.5 Z " fill="#000000"/><text fill="#000000" font-family="sans-serif" font-size="12" lengthAdjust="spacing" textLength="75" x="127.2" y="708.9102">PositionsBST</text><line style="stroke:#A80036;stroke-width:1.5;" x1="86" x2="215" y1="720" y2="720"/><line style="stroke:#A80036;stroke-width:1.5;" x1="86" x2="215" y1="728" y2="728"/><text fill="#000000" font-family="sans-serif" font-size="11" lengthAdjust="spacing" textLength="94" x="91" y="743.4189">+getTotalDistance()</text><text fill="#000000" font-family="sans-serif" font-size="11" lengthAdjust="spacing" textLength="103" x="91" y="757.2549">+getArrivalDistance()</text><text fill="#000000" font-family="sans-serif" font-size="11" lengthAdjust="spacing" textLength="119" x="91" y="771.0908">+getDepartureDistance()</text><!--MD5=[7bf3f207a17c3ec513cce305ec5a5ed9]
class ShowPairsOfShipsController--><rect codeLine="43" fill="#FEFECE" filter="url(#f1vno5k5wavuxq)" height="61.8359" id="ShowPairsOfShipsController" style="stroke:#A80036;stroke-width:1.5;" width="190" x="246.5" y="7"/><ellipse cx="261.5" cy="23" fill="#ADD1B2" rx="11" ry="11" style="stroke:#A80036;stroke-width:1.0;"/><path d="M263.5,19.5 Q263.7031,19 263.9375,18.75 Q264.1719,18.5 264.4375,18.5 Q264.9063,18.5 265.2031,18.7813 Q265.5,19.0625 265.5,19.7188 L265.5,21.2813 Q265.5,21.9375 265.2188,22.2188 Q264.9375,22.5 264.5,22.5 Q264.1094,22.5 263.8594,22.3281 Q263.6094,22.1563 263.5,21.7031 Q263.4531,21.3906 263.2813,21.2188 Q262.9688,20.8906 262.4063,20.7031 Q261.8438,20.5 261.2813,20.5 Q260.5781,20.5 259.9844,20.7813 Q259.4063,21.0625 258.9531,21.6875 Q258.5,22.3125 258.5,23.1719 L258.5,24.0938 Q258.5,25.125 259.3438,25.8125 Q260.1875,26.5 261.6875,26.5 Q262.5781,26.5 263.2031,26.2969 Q263.5625,26.1875 263.9688,25.8281 Q264.2344,25.625 264.375,25.5625 Q264.5156,25.5 264.6875,25.5 Q265.0156,25.5 265.25,25.7656 Q265.5,26.0156 265.5,26.375 Q265.5,26.7188 265.1563,27.125 Q264.6563,27.7188 263.8594,28.0469 Q262.8125,28.5 261.5313,28.5 Q260.0313,28.5 258.8281,27.9063 Q257.8594,27.4375 257.1719,26.4219 Q256.5,25.4063 256.5,24.2031 L256.5,23.1094 Q256.5,21.8594 257.0938,20.7656 Q257.7031,19.6719 258.75,19.0938 Q259.8125,18.5 261,18.5 Q261.7188,18.5 262.3438,18.75 Q262.9688,19 263.5,19.5 Z " fill="#000000"/><text fill="#000000" font-family="sans-serif" font-size="12" lengthAdjust="spacing" textLength="158" x="275.5" y="27.9102">ShowPairsOfShipsController</text><line style="stroke:#A80036;stroke-width:1.5;" x1="247.5" x2="435.5" y1="39" y2="39"/><line style="stroke:#A80036;stroke-width:1.5;" x1="247.5" x2="435.5" y1="47" y2="47"/><text fill="#000000" font-family="sans-serif" font-size="11" lengthAdjust="spacing" textLength="92" x="252.5" y="62.4189">+getPairsOfShips()</text><!--MD5=[02e4b9b7573f1156f41e60aa5b4e25a4]
class Company--><rect codeLine="47" fill="#FEFECE" filter="url(#f1vno5k5wavuxq)" height="75.6719" id="Company" style="stroke:#A80036;stroke-width:1.5;" width="85" x="227" y="130"/><ellipse cx="242" cy="146" fill="#ADD1B2" rx="11" ry="11" style="stroke:#A80036;stroke-width:1.0;"/><path d="M244,142.5 Q244.2031,142 244.4375,141.75 Q244.6719,141.5 244.9375,141.5 Q245.4063,141.5 245.7031,141.7813 Q246,142.0625 246,142.7188 L246,144.2813 Q246,144.9375 245.7188,145.2188 Q245.4375,145.5 245,145.5 Q244.6094,145.5 244.3594,145.3281 Q244.1094,145.1563 244,144.7031 Q243.9531,144.3906 243.7813,144.2188 Q243.4688,143.8906 242.9063,143.7031 Q242.3438,143.5 241.7813,143.5 Q241.0781,143.5 240.4844,143.7813 Q239.9063,144.0625 239.4531,144.6875 Q239,145.3125 239,146.1719 L239,147.0938 Q239,148.125 239.8438,148.8125 Q240.6875,149.5 242.1875,149.5 Q243.0781,149.5 243.7031,149.2969 Q244.0625,149.1875 244.4688,148.8281 Q244.7344,148.625 244.875,148.5625 Q245.0156,148.5 245.1875,148.5 Q245.5156,148.5 245.75,148.7656 Q246,149.0156 246,149.375 Q246,149.7188 245.6563,150.125 Q245.1563,150.7188 244.3594,151.0469 Q243.3125,151.5 242.0313,151.5 Q240.5313,151.5 239.3281,150.9063 Q238.3594,150.4375 237.6719,149.4219 Q237,148.4063 237,147.2031 L237,146.1094 Q237,144.8594 237.5938,143.7656 Q238.2031,142.6719 239.25,142.0938 Q240.3125,141.5 241.5,141.5 Q242.2188,141.5 242.8438,141.75 Q243.4688,142 244,142.5 Z " fill="#000000"/><text fill="#000000" font-family="sans-serif" font-size="12" lengthAdjust="spacing" textLength="53" x="256" y="150.9102">Company</text><line style="stroke:#A80036;stroke-width:1.5;" x1="228" x2="311" y1="162" y2="162"/><text fill="#000000" font-family="sans-serif" font-size="11" lengthAdjust="spacing" textLength="59" x="233" y="177.4189">-designation</text><line style="stroke:#A80036;stroke-width:1.5;" x1="228" x2="311" y1="183.8359" y2="183.8359"/><text fill="#000000" font-family="sans-serif" font-size="11" lengthAdjust="spacing" textLength="66" x="233" y="199.2549">+getBstShip()</text><!--MD5=[b4a9ab6cffd58937cfea07eb2954e1bd]
class BST--><rect codeLine="52" fill="#FEFECE" filter="url(#f1vno5k5wavuxq)" height="61.8359" id="BST" style="stroke:#A80036;stroke-width:1.5;" width="55" x="7" y="304.5"/><ellipse cx="22" cy="320.5" fill="#ADD1B2" rx="11" ry="11" style="stroke:#A80036;stroke-width:1.0;"/><path d="M24,317 Q24.2031,316.5 24.4375,316.25 Q24.6719,316 24.9375,316 Q25.4063,316 25.7031,316.2813 Q26,316.5625 26,317.2188 L26,318.7813 Q26,319.4375 25.7188,319.7188 Q25.4375,320 25,320 Q24.6094,320 24.3594,319.8281 Q24.1094,319.6563 24,319.2031 Q23.9531,318.8906 23.7813,318.7188 Q23.4688,318.3906 22.9063,318.2031 Q22.3438,318 21.7813,318 Q21.0781,318 20.4844,318.2813 Q19.9063,318.5625 19.4531,319.1875 Q19,319.8125 19,320.6719 L19,321.5938 Q19,322.625 19.8438,323.3125 Q20.6875,324 22.1875,324 Q23.0781,324 23.7031,323.7969 Q24.0625,323.6875 24.4688,323.3281 Q24.7344,323.125 24.875,323.0625 Q25.0156,323 25.1875,323 Q25.5156,323 25.75,323.2656 Q26,323.5156 26,323.875 Q26,324.2188 25.6563,324.625 Q25.1563,325.2188 24.3594,325.5469 Q23.3125,326 22.0313,326 Q20.5313,326 19.3281,325.4063 Q18.3594,324.9375 17.6719,323.9219 Q17,322.9063 17,321.7031 L17,320.6094 Q17,319.3594 17.5938,318.2656 Q18.2031,317.1719 19.25,316.5938 Q20.3125,316 21.5,316 Q22.2188,316 22.8438,316.25 Q23.4688,316.5 24,317 Z " fill="#000000"/><text fill="#000000" font-family="sans-serif" font-size="12" lengthAdjust="spacing" textLength="23" x="36" y="325.4102">BST</text><line style="stroke:#A80036;stroke-width:1.5;" x1="8" x2="61" y1="336.5" y2="336.5"/><line style="stroke:#A80036;stroke-width:1.5;" x1="8" x2="61" y1="344.5" y2="344.5"/><text fill="#000000" font-family="sans-serif" font-size="11" lengthAdjust="spacing" textLength="34" x="13" y="359.9189">+size()</text><!--MD5=[1b046338fb2698c0e9f102f85676b8e2]
link Company to ShipsBST--><path codeLine="59" d="M280.27,206.14 C286.93,229.11 295.57,258.89 302.85,283.99 " fill="none" id="Company-ShipsBST" style="stroke:#A80036;stroke-width:1.0;"/><polygon fill="#000000" points="299.8928,249.9779,300.1958,240.4721,294.5506,242.1095,299.8928,249.9779" style="stroke:#000000;stroke-width:1.0;"/><text fill="#000000" font-family="sans-serif" font-size="13" lengthAdjust="spacing" textLength="28" x="307.5" y="250.4951">uses</text><text fill="#000000" font-family="sans-serif" font-size="13" lengthAdjust="spacing" textLength="7" x="274.4287" y="227.0428">1</text><text fill="#000000" font-family="sans-serif" font-size="13" lengthAdjust="spacing" textLength="7" x="293.2977" y="273.1171">1</text><!--MD5=[b457ea32acbd230d0e22037aaab2ac98]
link ShipsBST to Ship--><path codeLine="60" d="M317.5,387.23 C317.5,410.72 317.5,439.05 317.5,464.69 " fill="none" id="ShipsBST-Ship" style="stroke:#A80036;stroke-width:1.0;"/><polygon fill="#000000" points="322.5,431.1758,325.4389,422.1307,319.5611,422.1307,322.5,431.1758" style="stroke:#000000;stroke-width:1.0;"/><text fill="#000000" font-family="sans-serif" font-size="13" lengthAdjust="spacing" textLength="30" x="331.5" y="431.4951">owns</text><text fill="#000000" font-family="sans-serif" font-size="13" lengthAdjust="spacing" textLength="7" x="310.0297" y="408.7519">1</text><text fill="#000000" font-family="sans-serif" font-size="13" lengthAdjust="spacing" textLength="20" x="296.5156" y="454.255">1..*</text><!--MD5=[bd16fc4b2a08274ec71edc6d573c9239]
link Ship to PositionsBST--><path codeLine="61" d="M265.3,609.61 C252.68,625.85 238.94,642.8 225.5,658 C216.65,668 206.75,678.32 197.12,687.95 " fill="none" id="Ship-PositionsBST" style="stroke:#A80036;stroke-width:1.0;"/><polygon fill="#000000" points="241.2175,652.9474,249.3725,648.0539,244.9387,644.1951,241.2175,652.9474" style="stroke:#000000;stroke-width:1.0;"/><text fill="#000000" font-family="sans-serif" font-size="13" lengthAdjust="spacing" textLength="28" x="253.5" y="654.4951">uses</text><text fill="#000000" font-family="sans-serif" font-size="13" lengthAdjust="spacing" textLength="7" x="250.4672" y="616.1557">1</text><text fill="#000000" font-family="sans-serif" font-size="13" lengthAdjust="spacing" textLength="7" x="196.9923" y="677.0575">1</text><!--MD5=[34b80baad36b2d2bd6b6893c22d217b3]
link PositionsBST to ShipPosition--><path codeLine="62" d="M150.5,778.01 C150.5,800.61 150.5,828.95 150.5,855.66 " fill="none" id="PositionsBST-ShipPosition" style="stroke:#A80036;stroke-width:1.0;"/><polygon fill="#000000" points="155.5,822.1758,158.4389,813.1307,152.5611,813.1307,155.5,822.1758" style="stroke:#000000;stroke-width:1.0;"/><text fill="#000000" font-family="sans-serif" font-size="13" lengthAdjust="spacing" textLength="21" x="164.5" y="822.4951">has</text><text fill="#000000" font-family="sans-serif" font-size="13" lengthAdjust="spacing" textLength="7" x="143.0078" y="799.019">1</text><text fill="#000000" font-family="sans-serif" font-size="13" lengthAdjust="spacing" textLength="20" x="129.6406" y="845.0404">1..*</text><!--MD5=[1bb06696cacca84149cf104bf392efc1]
link ShowPairsOfShipsController to Company--><path codeLine="64" d="M324.62,69.01 C315.19,85.77 303.3,106.9 292.98,125.25 " fill="none" id="ShowPairsOfShipsController-to-Company" style="stroke:#A80036;stroke-width:1.0;stroke-dasharray:7.0,7.0;"/><polygon fill="#A80036" points="290.39,129.85,298.2804,123.9558,292.8352,125.4887,291.3023,120.0435,290.39,129.85" style="stroke:#A80036;stroke-width:1.0;"/><!--MD5=[672b517aa0aa5e7c31278b5a31149d91]
link ShowPairsOfShipsController to ShipsBST--><path codeLine="65" d="M344.89,69.14 C348.89,110.94 353.78,188.73 343.5,254 C342.21,262.17 340.23,270.64 337.93,278.88 " fill="none" id="ShowPairsOfShipsController-to-ShipsBST" style="stroke:#A80036;stroke-width:1.0;stroke-dasharray:7.0,7.0;"/><polygon fill="#A80036" points="336.46,283.98,342.814,276.4549,337.8562,279.1789,335.1322,274.2211,336.46,283.98" style="stroke:#A80036;stroke-width:1.0;"/><!--MD5=[eb21687c847b61808a3ba2cbbb6054e7]
link ShowPairsOfShipsController to Ship--><path codeLine="66" d="M370.84,69.05 C426.3,129.67 536.47,270.72 484.5,387 C461.98,437.39 413.15,477.83 374.08,503.88 " fill="none" id="ShowPairsOfShipsController-to-Ship" style="stroke:#A80036;stroke-width:1.0;stroke-dasharray:7.0,7.0;"/><polygon fill="#A80036" points="369.85,506.67,379.5638,505.0444,374.0212,503.913,375.1526,498.3704,369.85,506.67" style="stroke:#A80036;stroke-width:1.0;"/><!--MD5=[0e8a582c0daa7e55be32d3754a6aeb0e]
link ShowPairsOfShipsController to PositionsBST--><path codeLine="67" d="M246.31,54.62 C184.55,70.82 115.5,103.19 115.5,167 C115.5,167 115.5,167 115.5,538.5 C115.5,588.16 126.8,643.86 136.56,682.71 " fill="none" id="ShowPairsOfShipsController-to-PositionsBST" style="stroke:#A80036;stroke-width:1.0;stroke-dasharray:7.0,7.0;"/><polygon fill="#A80036" points="137.86,687.83,139.5241,678.1227,136.6305,682.9835,131.7697,680.0899,137.86,687.83" style="stroke:#A80036;stroke-width:1.0;"/><!--MD5=[8527c01ae7f221c1f2007baa13df9fd5]
link ShipsBST to PositionsBST--><path codeLine="68" d="M287.6,387.19 C274.46,410.48 259.35,438.71 247.5,465 C214.04,539.19 183.41,628.68 165.87,682.91 " fill="none" id="ShipsBST-to-PositionsBST" style="stroke:#A80036;stroke-width:1.0;stroke-dasharray:7.0,7.0;"/><polygon fill="#A80036" points="164.32,687.73,170.8815,680.3851,165.8496,682.9697,163.265,677.9378,164.32,687.73" style="stroke:#A80036;stroke-width:1.0;"/><!--MD5=[4f67294047c37ade415b9b594b2af08c]
reverse link BST to PositionsBST--><path codeLine="70" d="M35.19,386.92 C37.83,452.29 48.51,568.49 89.5,658 C94.28,668.45 100.92,678.64 108.06,687.95 " fill="none" id="BST-backto-PositionsBST" style="stroke:#A80036;stroke-width:1.0;"/><polygon fill="none" points="28.19,387.02,34.58,366.82,42.19,386.59,28.19,387.02" style="stroke:#A80036;stroke-width:1.0;"/><!--MD5=[c0487b7918f81e122b78f0155f13124a]
reverse link BST to ShipsBST--><path codeLine="71" d="M82.47,335.5 C111.1,335.5 139.74,335.5 168.37,335.5 " fill="none" id="BST-backto-ShipsBST" style="stroke:#A80036;stroke-width:1.0;"/><polygon fill="none" points="82.14,342.5,62.14,335.5,82.14,328.5,82.14,342.5" style="stroke:#A80036;stroke-width:1.0;"/><!--MD5=[241584a1b5e8519d72c6f96ff692dbed]
@startuml

skinparam classAttributeIconSize 0


class Ship {
    -mmmsiCode
    -shipName
    -imoCode
    -callSignId
    -currentCapacity /'added by us'/
    -draft
    +getPositionsBST()
}

class ShipPosition {
    -baseDateTime
    -latitude
    -longitude
    -sog
    -cog
    -heading
    -position
    -transceiver
    +getPositionsBST()
}

class ShipsBST {
    +getPairsOfShips()
    +getShipsInOrderWithIntendedTD()
    +fillTreeMapForEachShip(listShipsWithIntendedTD, infoPair, \ntravelledDistance, positionsBST, ship1MMSI, indexShip)
}

class PositionsBST {
    +getTotalDistance()
    +getArrivalDistance()
    +getDepartureDistance()
}

/'class ShowPairsOfShipsUI {}'/

class ShowPairsOfShipsController {
    +getPairsOfShips()
}

class Company {
    -designation
    +getBstShip()
}

class BST {
+size()
}

/'Ship "1" - - "1..*" ShipPosition : has >'/
/'Company "1" - - "1..*" Ship : owns >'/

Company "1" - - "1" ShipsBST : uses >
ShipsBST "1" - - "1..*" Ship : owns >
Ship "1" - - "1" PositionsBST : uses >
PositionsBST "1" - - "1..*" ShipPosition : has >
/'ShowPairsOfShipsUI ..> ShowPairsOfShipsController'/
ShowPairsOfShipsController ..> Company
ShowPairsOfShipsController ..> ShipsBST
ShowPairsOfShipsController ..> Ship
ShowPairsOfShipsController ..> PositionsBST
ShipsBST ..> PositionsBST

BST <|- PositionsBST
BST <|- ShipsBST

@enduml

@startuml

skinparam classAttributeIconSize 0


class Ship {
    -mmmsiCode
    -shipName
    -imoCode
    -callSignId
    -currentCapacity 
    -draft
    +getPositionsBST()
}

class ShipPosition {
    -baseDateTime
    -latitude
    -longitude
    -sog
    -cog
    -heading
    -position
    -transceiver
    +getPositionsBST()
}

class ShipsBST {
    +getPairsOfShips()
    +getShipsInOrderWithIntendedTD()
    +fillTreeMapForEachShip(listShipsWithIntendedTD, infoPair, \ntravelledDistance, positionsBST, ship1MMSI, indexShip)
}

class PositionsBST {
    +getTotalDistance()
    +getArrivalDistance()
    +getDepartureDistance()
}


class ShowPairsOfShipsController {
    +getPairsOfShips()
}

class Company {
    -designation
    +getBstShip()
}

class BST {
+size()
}


Company "1" - - "1" ShipsBST : uses >
ShipsBST "1" - - "1..*" Ship : owns >
Ship "1" - - "1" PositionsBST : uses >
PositionsBST "1" - - "1..*" ShipPosition : has >
ShowPairsOfShipsController ..> Company
ShowPairsOfShipsController ..> ShipsBST
ShowPairsOfShipsController ..> Ship
ShowPairsOfShipsController ..> PositionsBST
ShipsBST ..> PositionsBST

BST <|- PositionsBST
BST <|- ShipsBST

@enduml

PlantUML version 1.2021.11(Sat Oct 02 14:26:11 BST 2021)
(GPL source distribution)
Java Runtime: OpenJDK Runtime Environment
JVM: OpenJDK 64-Bit Server VM
Default Encoding: Cp1252
Language: pt
Country: PT
--></g></svg>