<?xml version="1.0" encoding="UTF-8" standalone="no"?><svg xmlns="http://www.w3.org/2000/svg" xmlns:xlink="http://www.w3.org/1999/xlink" contentScriptType="application/ecmascript" contentStyleType="text/css" height="1983px" preserveAspectRatio="none" style="width:1220px;height:1983px;background:#FFFFFF;" version="1.1" viewBox="0 0 1220 1983" width="1220px" zoomAndPan="magnify"><defs><filter height="300%" id="f1tjuihf30pktr" width="300%" x="-1" y="-1"><feGaussianBlur result="blurOut" stdDeviation="2.0"/><feColorMatrix in="blurOut" result="blurOut2" type="matrix" values="0 0 0 0 0 0 0 0 0 0 0 0 0 0 0 0 0 0 .4 0"/><feOffset dx="4.0" dy="4.0" in="blurOut2" result="blurOut3"/><feBlend in="SourceGraphic" in2="blurOut3" mode="normal"/></filter></defs><g><!--MD5=[990bef4c2f1c4f7830655fe175b8ab92]
class ImportShipsController--><rect codeLine="7" fill="#FEFECE" filter="url(#f1tjuihf30pktr)" height="144.8516" id="ImportShipsController" style="stroke:#A80036;stroke-width:1.5;" width="180" x="221.5" y="7"/><ellipse cx="248.65" cy="23" fill="#ADD1B2" rx="11" ry="11" style="stroke:#A80036;stroke-width:1.0;"/><path d="M250.65,19.5 Q250.8531,19 251.0875,18.75 Q251.3219,18.5 251.5875,18.5 Q252.0563,18.5 252.3531,18.7813 Q252.65,19.0625 252.65,19.7188 L252.65,21.2813 Q252.65,21.9375 252.3688,22.2188 Q252.0875,22.5 251.65,22.5 Q251.2594,22.5 251.0094,22.3281 Q250.7594,22.1563 250.65,21.7031 Q250.6031,21.3906 250.4313,21.2188 Q250.1188,20.8906 249.5563,20.7031 Q248.9938,20.5 248.4313,20.5 Q247.7281,20.5 247.1344,20.7813 Q246.5563,21.0625 246.1031,21.6875 Q245.65,22.3125 245.65,23.1719 L245.65,24.0938 Q245.65,25.125 246.4938,25.8125 Q247.3375,26.5 248.8375,26.5 Q249.7281,26.5 250.3531,26.2969 Q250.7125,26.1875 251.1188,25.8281 Q251.3844,25.625 251.525,25.5625 Q251.6656,25.5 251.8375,25.5 Q252.1656,25.5 252.4,25.7656 Q252.65,26.0156 252.65,26.375 Q252.65,26.7188 252.3063,27.125 Q251.8063,27.7188 251.0094,28.0469 Q249.9625,28.5 248.6813,28.5 Q247.1813,28.5 245.9781,27.9063 Q245.0094,27.4375 244.3219,26.4219 Q243.65,25.4063 243.65,24.2031 L243.65,23.1094 Q243.65,21.8594 244.2438,20.7656 Q244.8531,19.6719 245.9,19.0938 Q246.9625,18.5 248.15,18.5 Q248.8688,18.5 249.4938,18.75 Q250.1188,19 250.65,19.5 Z " fill="#000000"/><text fill="#000000" font-family="sans-serif" font-size="12" lengthAdjust="spacing" textLength="121" x="265.35" y="27.9102">ImportShipsController</text><line style="stroke:#A80036;stroke-width:1.5;" x1="222.5" x2="400.5" y1="39" y2="39"/><text fill="#000000" font-family="sans-serif" font-size="11" lengthAdjust="spacing" textLength="48" x="227.5" y="54.4189">-company</text><text fill="#000000" font-family="sans-serif" font-size="11" lengthAdjust="spacing" textLength="24" x="227.5" y="68.2549">-ship</text><text fill="#000000" font-family="sans-serif" font-size="11" lengthAdjust="spacing" textLength="61" x="227.5" y="82.0908">-shipPosition</text><text fill="#000000" font-family="sans-serif" font-size="11" lengthAdjust="spacing" textLength="67" x="227.5" y="95.9268">-positionsBST</text><line style="stroke:#A80036;stroke-width:1.5;" x1="222.5" x2="400.5" y1="102.3438" y2="102.3438"/><text fill="#000000" font-family="sans-serif" font-size="11" lengthAdjust="spacing" textLength="168" x="227.5" y="117.7627">-createPosition(positionDTO, mmsi)</text><text fill="#000000" font-family="sans-serif" font-size="11" lengthAdjust="spacing" textLength="57" x="227.5" y="131.5986">-saveShip()</text><text fill="#000000" font-family="sans-serif" font-size="11" lengthAdjust="spacing" textLength="165" x="227.5" y="145.4346">-importShipFromFile(shipsFileDTO)</text><!--MD5=[02e4b9b7573f1156f41e60aa5b4e25a4]
class Company--><rect codeLine="17" fill="#FEFECE" filter="url(#f1tjuihf30pktr)" height="89.5078" id="Company" style="stroke:#A80036;stroke-width:1.5;" width="85" x="436" y="337.5"/><ellipse cx="451" cy="353.5" fill="#ADD1B2" rx="11" ry="11" style="stroke:#A80036;stroke-width:1.0;"/><path d="M453,350 Q453.2031,349.5 453.4375,349.25 Q453.6719,349 453.9375,349 Q454.4063,349 454.7031,349.2813 Q455,349.5625 455,350.2188 L455,351.7813 Q455,352.4375 454.7188,352.7188 Q454.4375,353 454,353 Q453.6094,353 453.3594,352.8281 Q453.1094,352.6563 453,352.2031 Q452.9531,351.8906 452.7813,351.7188 Q452.4688,351.3906 451.9063,351.2031 Q451.3438,351 450.7813,351 Q450.0781,351 449.4844,351.2813 Q448.9063,351.5625 448.4531,352.1875 Q448,352.8125 448,353.6719 L448,354.5938 Q448,355.625 448.8438,356.3125 Q449.6875,357 451.1875,357 Q452.0781,357 452.7031,356.7969 Q453.0625,356.6875 453.4688,356.3281 Q453.7344,356.125 453.875,356.0625 Q454.0156,356 454.1875,356 Q454.5156,356 454.75,356.2656 Q455,356.5156 455,356.875 Q455,357.2188 454.6563,357.625 Q454.1563,358.2188 453.3594,358.5469 Q452.3125,359 451.0313,359 Q449.5313,359 448.3281,358.4063 Q447.3594,357.9375 446.6719,356.9219 Q446,355.9063 446,354.7031 L446,353.6094 Q446,352.3594 446.5938,351.2656 Q447.2031,350.1719 448.25,349.5938 Q449.3125,349 450.5,349 Q451.2188,349 451.8438,349.25 Q452.4688,349.5 453,350 Z " fill="#000000"/><text fill="#000000" font-family="sans-serif" font-size="12" lengthAdjust="spacing" textLength="53" x="465" y="358.4102">Company</text><line style="stroke:#A80036;stroke-width:1.5;" x1="437" x2="520" y1="369.5" y2="369.5"/><text fill="#000000" font-family="sans-serif" font-size="11" lengthAdjust="spacing" textLength="59" x="442" y="384.9189">-designation</text><text fill="#000000" font-family="sans-serif" font-size="11" lengthAdjust="spacing" textLength="50" x="442" y="398.7549">-shipsBST</text><line style="stroke:#A80036;stroke-width:1.5;" x1="437" x2="520" y1="405.1719" y2="405.1719"/><text fill="#000000" font-family="sans-serif" font-size="11" lengthAdjust="spacing" textLength="64" x="442" y="420.5908">-getBstShip()</text><!--MD5=[0dc7f2ddb409b58bcf52b12238c25399]
class Ship--><rect codeLine="23" fill="#FEFECE" filter="url(#f1tjuihf30pktr)" height="352.3906" id="Ship" style="stroke:#A80036;stroke-width:1.5;" width="473" x="210" y="1096"/><ellipse cx="429.75" cy="1112" fill="#ADD1B2" rx="11" ry="11" style="stroke:#A80036;stroke-width:1.0;"/><path d="M431.75,1108.5 Q431.9531,1108 432.1875,1107.75 Q432.4219,1107.5 432.6875,1107.5 Q433.1563,1107.5 433.4531,1107.7813 Q433.75,1108.0625 433.75,1108.7188 L433.75,1110.2813 Q433.75,1110.9375 433.4688,1111.2188 Q433.1875,1111.5 432.75,1111.5 Q432.3594,1111.5 432.1094,1111.3281 Q431.8594,1111.1563 431.75,1110.7031 Q431.7031,1110.3906 431.5313,1110.2188 Q431.2188,1109.8906 430.6563,1109.7031 Q430.0938,1109.5 429.5313,1109.5 Q428.8281,1109.5 428.2344,1109.7813 Q427.6563,1110.0625 427.2031,1110.6875 Q426.75,1111.3125 426.75,1112.1719 L426.75,1113.0938 Q426.75,1114.125 427.5938,1114.8125 Q428.4375,1115.5 429.9375,1115.5 Q430.8281,1115.5 431.4531,1115.2969 Q431.8125,1115.1875 432.2188,1114.8281 Q432.4844,1114.625 432.625,1114.5625 Q432.7656,1114.5 432.9375,1114.5 Q433.2656,1114.5 433.5,1114.7656 Q433.75,1115.0156 433.75,1115.375 Q433.75,1115.7188 433.4063,1116.125 Q432.9063,1116.7188 432.1094,1117.0469 Q431.0625,1117.5 429.7813,1117.5 Q428.2813,1117.5 427.0781,1116.9063 Q426.1094,1116.4375 425.4219,1115.4219 Q424.75,1114.4063 424.75,1113.2031 L424.75,1112.1094 Q424.75,1110.8594 425.3438,1109.7656 Q425.9531,1108.6719 427,1108.0938 Q428.0625,1107.5 429.25,1107.5 Q429.9688,1107.5 430.5938,1107.75 Q431.2188,1108 431.75,1108.5 Z " fill="#000000"/><text fill="#000000" font-family="sans-serif" font-size="12" lengthAdjust="spacing" textLength="25" x="450.25" y="1116.9102">Ship</text><line style="stroke:#A80036;stroke-width:1.5;" x1="211" x2="682" y1="1128" y2="1128"/><text fill="#000000" font-family="sans-serif" font-size="11" lengthAdjust="spacing" textLength="67" x="216" y="1143.4189">-positionsBST</text><text fill="#000000" font-family="sans-serif" font-size="11" lengthAdjust="spacing" textLength="29" x="216" y="1157.2549">-MMSI</text><text fill="#000000" font-family="sans-serif" font-size="11" lengthAdjust="spacing" textLength="63" x="216" y="1171.0908">-vesselName</text><text fill="#000000" font-family="sans-serif" font-size="11" lengthAdjust="spacing" textLength="22" x="216" y="1184.9268">-IMO</text><text fill="#000000" font-family="sans-serif" font-size="11" lengthAdjust="spacing" textLength="41" x="216" y="1198.7627">-callSign</text><text fill="#000000" font-family="sans-serif" font-size="11" lengthAdjust="spacing" textLength="69" x="216" y="1212.5986">-vesselTypeID</text><text fill="#000000" font-family="sans-serif" font-size="11" lengthAdjust="spacing" textLength="33" x="216" y="1226.4346">-length</text><text fill="#000000" font-family="sans-serif" font-size="11" lengthAdjust="spacing" textLength="31" x="216" y="1240.2705">-width</text><text fill="#000000" font-family="sans-serif" font-size="11" lengthAdjust="spacing" textLength="27" x="216" y="1254.1064">-draft</text><text fill="#000000" font-family="sans-serif" font-size="11" lengthAdjust="spacing" textLength="32" x="216" y="1267.9424">-cargo</text><line style="stroke:#A80036;stroke-width:1.5;" x1="211" x2="682" y1="1274.3594" y2="1274.3594"/><text fill="#000000" font-family="sans-serif" font-size="11" lengthAdjust="spacing" textLength="461" x="216" y="1289.7783">-Ship(positionsBST, MMSI, vesselName, IMO, callSign, vesselTypeID, length, width, draft, cargo)</text><text fill="#000000" font-family="sans-serif" font-size="11" lengthAdjust="spacing" textLength="167" x="216" y="1303.6143">-checkPositionsBST(positionsBST)</text><text fill="#000000" font-family="sans-serif" font-size="11" lengthAdjust="spacing" textLength="105" x="216" y="1317.4502">-checkMMSI(int MMSI)</text><text fill="#000000" font-family="sans-serif" font-size="11" lengthAdjust="spacing" textLength="161" x="216" y="1331.2861">-checkVesselName(vesselName)</text><text fill="#000000" font-family="sans-serif" font-size="11" lengthAdjust="spacing" textLength="77" x="216" y="1345.1221">-checkIMO(IMO)</text><text fill="#000000" font-family="sans-serif" font-size="11" lengthAdjust="spacing" textLength="103" x="216" y="1358.958">-checkLength(length)</text><text fill="#000000" font-family="sans-serif" font-size="11" lengthAdjust="spacing" textLength="95" x="216" y="1372.7939">-checkWidth(width)</text><text fill="#000000" font-family="sans-serif" font-size="11" lengthAdjust="spacing" textLength="88" x="216" y="1386.6299">-checkDraft(draft)</text><text fill="#000000" font-family="sans-serif" font-size="11" lengthAdjust="spacing" textLength="98" x="216" y="1400.4658">-checkCargo(cargo)</text><text fill="#000000" font-family="sans-serif" font-size="11" lengthAdjust="spacing" textLength="52" x="216" y="1414.3018">-getMMSI()</text><text fill="#000000" font-family="sans-serif" font-size="11" lengthAdjust="spacing" textLength="153" x="216" y="1428.1377">-setPositionsBST(positionsBST)</text><text fill="#000000" font-family="sans-serif" font-size="11" lengthAdjust="spacing" textLength="134" x="216" y="1441.9736">-equals(Object otherObject)</text><!--MD5=[1c0c3765e68dc4575d559b566278b914]
class ShipPosition--><rect codeLine="48" fill="#FEFECE" filter="url(#f1tjuihf30pktr)" height="283.2109" id="ShipPosition" style="stroke:#A80036;stroke-width:1.5;" width="397" x="7" y="1686"/><ellipse cx="166.25" cy="1702" fill="#ADD1B2" rx="11" ry="11" style="stroke:#A80036;stroke-width:1.0;"/><path d="M168.25,1698.5 Q168.4531,1698 168.6875,1697.75 Q168.9219,1697.5 169.1875,1697.5 Q169.6563,1697.5 169.9531,1697.7813 Q170.25,1698.0625 170.25,1698.7188 L170.25,1700.2813 Q170.25,1700.9375 169.9688,1701.2188 Q169.6875,1701.5 169.25,1701.5 Q168.8594,1701.5 168.6094,1701.3281 Q168.3594,1701.1563 168.25,1700.7031 Q168.2031,1700.3906 168.0313,1700.2188 Q167.7188,1699.8906 167.1563,1699.7031 Q166.5938,1699.5 166.0313,1699.5 Q165.3281,1699.5 164.7344,1699.7813 Q164.1563,1700.0625 163.7031,1700.6875 Q163.25,1701.3125 163.25,1702.1719 L163.25,1703.0938 Q163.25,1704.125 164.0938,1704.8125 Q164.9375,1705.5 166.4375,1705.5 Q167.3281,1705.5 167.9531,1705.2969 Q168.3125,1705.1875 168.7188,1704.8281 Q168.9844,1704.625 169.125,1704.5625 Q169.2656,1704.5 169.4375,1704.5 Q169.7656,1704.5 170,1704.7656 Q170.25,1705.0156 170.25,1705.375 Q170.25,1705.7188 169.9063,1706.125 Q169.4063,1706.7188 168.6094,1707.0469 Q167.5625,1707.5 166.2813,1707.5 Q164.7813,1707.5 163.5781,1706.9063 Q162.6094,1706.4375 161.9219,1705.4219 Q161.25,1704.4063 161.25,1703.2031 L161.25,1702.1094 Q161.25,1700.8594 161.8438,1699.7656 Q162.4531,1698.6719 163.5,1698.0938 Q164.5625,1697.5 165.75,1697.5 Q166.4688,1697.5 167.0938,1697.75 Q167.7188,1698 168.25,1698.5 Z " fill="#000000"/><text fill="#000000" font-family="sans-serif" font-size="12" lengthAdjust="spacing" textLength="70" x="186.75" y="1706.9102">ShipPosition</text><line style="stroke:#A80036;stroke-width:1.5;" x1="8" x2="403" y1="1718" y2="1718"/><text fill="#000000" font-family="sans-serif" font-size="11" lengthAdjust="spacing" textLength="29" x="13" y="1733.4189">-MMSI</text><text fill="#000000" font-family="sans-serif" font-size="11" lengthAdjust="spacing" textLength="72" x="13" y="1747.2549">-baseDateTime</text><text fill="#000000" font-family="sans-serif" font-size="11" lengthAdjust="spacing" textLength="15" x="13" y="1761.0908">-lat</text><text fill="#000000" font-family="sans-serif" font-size="11" lengthAdjust="spacing" textLength="18" x="13" y="1774.9268">-lon</text><text fill="#000000" font-family="sans-serif" font-size="11" lengthAdjust="spacing" textLength="22" x="13" y="1788.7627">-sog</text><text fill="#000000" font-family="sans-serif" font-size="11" lengthAdjust="spacing" textLength="22" x="13" y="1802.5986">-cog</text><text fill="#000000" font-family="sans-serif" font-size="11" lengthAdjust="spacing" textLength="42" x="13" y="1816.4346">-heading</text><text fill="#000000" font-family="sans-serif" font-size="11" lengthAdjust="spacing" textLength="86" x="13" y="1830.2705">-transcieverClass</text><line style="stroke:#A80036;stroke-width:1.5;" x1="8" x2="403" y1="1836.6875" y2="1836.6875"/><text fill="#000000" font-family="sans-serif" font-size="11" lengthAdjust="spacing" textLength="385" x="13" y="1852.1064">-ShipPosition(mmsi, baseDateTime, lat, lon, sog, cog, heading, transcieverClass)</text><text fill="#000000" font-family="sans-serif" font-size="11" lengthAdjust="spacing" textLength="90" x="13" y="1865.9424">-checkMMSI(mmsi)</text><text fill="#000000" font-family="sans-serif" font-size="11" lengthAdjust="spacing" textLength="178" x="13" y="1879.7783">-checkBaseDateTime(baseDateTime)</text><text fill="#000000" font-family="sans-serif" font-size="11" lengthAdjust="spacing" textLength="67" x="13" y="1893.6143">-checkLat(lat)</text><text fill="#000000" font-family="sans-serif" font-size="11" lengthAdjust="spacing" textLength="73" x="13" y="1907.4502">-checkLon(lon)</text><text fill="#000000" font-family="sans-serif" font-size="11" lengthAdjust="spacing" textLength="78" x="13" y="1921.2861">-checkSog(sog)</text><text fill="#000000" font-family="sans-serif" font-size="11" lengthAdjust="spacing" textLength="78" x="13" y="1935.1221">-checkCog(cog)</text><text fill="#000000" font-family="sans-serif" font-size="11" lengthAdjust="spacing" textLength="118" x="13" y="1948.958">-checkHeading(heading)</text><text fill="#000000" font-family="sans-serif" font-size="11" lengthAdjust="spacing" textLength="208" x="13" y="1962.7939">-checkTranscieverClass(transcieverClass)</text><!--MD5=[ea2206eefe09474e90beb17e18e6b3d8]
class ShipStore--><rect codeLine="68" fill="#FEFECE" filter="url(#f1tjuihf30pktr)" height="95.3438" id="ShipStore" style="stroke:#A80036;stroke-width:1.5;" width="139" x="377" y="710.5"/><ellipse cx="415.85" cy="726.5" fill="#ADD1B2" rx="11" ry="11" style="stroke:#A80036;stroke-width:1.0;"/><path d="M417.85,723 Q418.0531,722.5 418.2875,722.25 Q418.5219,722 418.7875,722 Q419.2563,722 419.5531,722.2813 Q419.85,722.5625 419.85,723.2188 L419.85,724.7813 Q419.85,725.4375 419.5688,725.7188 Q419.2875,726 418.85,726 Q418.4594,726 418.2094,725.8281 Q417.9594,725.6563 417.85,725.2031 Q417.8031,724.8906 417.6313,724.7188 Q417.3188,724.3906 416.7563,724.2031 Q416.1938,724 415.6313,724 Q414.9281,724 414.3344,724.2813 Q413.7563,724.5625 413.3031,725.1875 Q412.85,725.8125 412.85,726.6719 L412.85,727.5938 Q412.85,728.625 413.6938,729.3125 Q414.5375,730 416.0375,730 Q416.9281,730 417.5531,729.7969 Q417.9125,729.6875 418.3188,729.3281 Q418.5844,729.125 418.725,729.0625 Q418.8656,729 419.0375,729 Q419.3656,729 419.6,729.2656 Q419.85,729.5156 419.85,729.875 Q419.85,730.2188 419.5063,730.625 Q419.0063,731.2188 418.2094,731.5469 Q417.1625,732 415.8813,732 Q414.3813,732 413.1781,731.4063 Q412.2094,730.9375 411.5219,729.9219 Q410.85,728.9063 410.85,727.7031 L410.85,726.6094 Q410.85,725.3594 411.4438,724.2656 Q412.0531,723.1719 413.1,722.5938 Q414.1625,722 415.35,722 Q416.0688,722 416.6938,722.25 Q417.3188,722.5 417.85,723 Z " fill="#000000"/><text fill="#000000" font-family="sans-serif" font-size="12" lengthAdjust="spacing" textLength="54" x="435.15" y="731.4102">ShipStore</text><line style="stroke:#A80036;stroke-width:1.5;" x1="378" x2="515" y1="742.5" y2="742.5"/><text fill="#000000" font-family="sans-serif" font-size="11" lengthAdjust="spacing" textLength="127" x="383" y="757.9189">-createShip(shipsFileDTO)</text><text fill="#000000" font-family="sans-serif" font-size="11" lengthAdjust="spacing" textLength="90" x="383" y="771.7549">-validateShip(ship)</text><text fill="#000000" font-family="sans-serif" font-size="11" lengthAdjust="spacing" textLength="77" x="383" y="785.5908">-saveShip(ship)</text><text fill="#000000" font-family="sans-serif" font-size="11" lengthAdjust="spacing" textLength="94" x="383" y="799.4268">-getShipsBstMmsi()</text><!--MD5=[95f401ea9d0c63da0b3e1cc781f0d3e9]
class ShipBST--><rect codeLine="75" fill="#FEFECE" filter="url(#f1tjuihf30pktr)" height="53.8359" id="ShipBST" style="stroke:#A80036;stroke-width:1.5;" width="171" x="361" y="964"/><ellipse cx="418.25" cy="980" fill="#ADD1B2" rx="11" ry="11" style="stroke:#A80036;stroke-width:1.0;"/><path d="M420.25,976.5 Q420.4531,976 420.6875,975.75 Q420.9219,975.5 421.1875,975.5 Q421.6563,975.5 421.9531,975.7813 Q422.25,976.0625 422.25,976.7188 L422.25,978.2813 Q422.25,978.9375 421.9688,979.2188 Q421.6875,979.5 421.25,979.5 Q420.8594,979.5 420.6094,979.3281 Q420.3594,979.1563 420.25,978.7031 Q420.2031,978.3906 420.0313,978.2188 Q419.7188,977.8906 419.1563,977.7031 Q418.5938,977.5 418.0313,977.5 Q417.3281,977.5 416.7344,977.7813 Q416.1563,978.0625 415.7031,978.6875 Q415.25,979.3125 415.25,980.1719 L415.25,981.0938 Q415.25,982.125 416.0938,982.8125 Q416.9375,983.5 418.4375,983.5 Q419.3281,983.5 419.9531,983.2969 Q420.3125,983.1875 420.7188,982.8281 Q420.9844,982.625 421.125,982.5625 Q421.2656,982.5 421.4375,982.5 Q421.7656,982.5 422,982.7656 Q422.25,983.0156 422.25,983.375 Q422.25,983.7188 421.9063,984.125 Q421.4063,984.7188 420.6094,985.0469 Q419.5625,985.5 418.2813,985.5 Q416.7813,985.5 415.5781,984.9063 Q414.6094,984.4375 413.9219,983.4219 Q413.25,982.4063 413.25,981.2031 L413.25,980.1094 Q413.25,978.8594 413.8438,977.7656 Q414.4531,976.6719 415.5,976.0938 Q416.5625,975.5 417.75,975.5 Q418.4688,975.5 419.0938,975.75 Q419.7188,976 420.25,976.5 Z " fill="#000000"/><text fill="#000000" font-family="sans-serif" font-size="12" lengthAdjust="spacing" textLength="48" x="438.75" y="984.9102">ShipBST</text><line style="stroke:#A80036;stroke-width:1.5;" x1="362" x2="531" y1="996" y2="996"/><text fill="#000000" font-family="sans-serif" font-size="11" lengthAdjust="spacing" textLength="159" x="367" y="1011.4189">-getShipByMmsiCode(mmsiCode)</text><!--MD5=[004e005a2edf96352d0772cab412880f]
class PositionsBST--><rect codeLine="79" fill="#FEFECE" filter="url(#f1tjuihf30pktr)" height="81.5078" id="PositionsBST" style="stroke:#A80036;stroke-width:1.5;" width="155" x="278" y="1526"/><ellipse cx="314.6" cy="1542" fill="#ADD1B2" rx="11" ry="11" style="stroke:#A80036;stroke-width:1.0;"/><path d="M316.6,1538.5 Q316.8031,1538 317.0375,1537.75 Q317.2719,1537.5 317.5375,1537.5 Q318.0063,1537.5 318.3031,1537.7813 Q318.6,1538.0625 318.6,1538.7188 L318.6,1540.2813 Q318.6,1540.9375 318.3188,1541.2188 Q318.0375,1541.5 317.6,1541.5 Q317.2094,1541.5 316.9594,1541.3281 Q316.7094,1541.1563 316.6,1540.7031 Q316.5531,1540.3906 316.3813,1540.2188 Q316.0688,1539.8906 315.5063,1539.7031 Q314.9438,1539.5 314.3813,1539.5 Q313.6781,1539.5 313.0844,1539.7813 Q312.5063,1540.0625 312.0531,1540.6875 Q311.6,1541.3125 311.6,1542.1719 L311.6,1543.0938 Q311.6,1544.125 312.4438,1544.8125 Q313.2875,1545.5 314.7875,1545.5 Q315.6781,1545.5 316.3031,1545.2969 Q316.6625,1545.1875 317.0688,1544.8281 Q317.3344,1544.625 317.475,1544.5625 Q317.6156,1544.5 317.7875,1544.5 Q318.1156,1544.5 318.35,1544.7656 Q318.6,1545.0156 318.6,1545.375 Q318.6,1545.7188 318.2563,1546.125 Q317.7563,1546.7188 316.9594,1547.0469 Q315.9125,1547.5 314.6313,1547.5 Q313.1313,1547.5 311.9281,1546.9063 Q310.9594,1546.4375 310.2719,1545.4219 Q309.6,1544.4063 309.6,1543.2031 L309.6,1542.1094 Q309.6,1540.8594 310.1938,1539.7656 Q310.8031,1538.6719 311.85,1538.0938 Q312.9125,1537.5 314.1,1537.5 Q314.8188,1537.5 315.4438,1537.75 Q316.0688,1538 316.6,1538.5 Z " fill="#000000"/><text fill="#000000" font-family="sans-serif" font-size="12" lengthAdjust="spacing" textLength="75" x="333.4" y="1546.9102">PositionsBST</text><line style="stroke:#A80036;stroke-width:1.5;" x1="279" x2="432" y1="1558" y2="1558"/><text fill="#000000" font-family="sans-serif" font-size="11" lengthAdjust="spacing" textLength="124" x="284" y="1573.4189">-hasPosition(shipPosition)</text><text fill="#000000" font-family="sans-serif" font-size="11" lengthAdjust="spacing" textLength="143" x="284" y="1587.2549">-validatePosition(shipPosition)</text><text fill="#000000" font-family="sans-serif" font-size="11" lengthAdjust="spacing" textLength="130" x="284" y="1601.0908">-savePosition(shipPosition)</text><!--MD5=[99df6c75798d291150dc3def8ab14ac6]
class ShipsFileDTO--><rect codeLine="85" fill="#FEFECE" filter="url(#f1tjuihf30pktr)" height="338.5547" id="ShipsFileDTO" style="stroke:#A80036;stroke-width:1.5;" width="499" x="556" y="213"/><ellipse cx="762.75" cy="229" fill="#ADD1B2" rx="11" ry="11" style="stroke:#A80036;stroke-width:1.0;"/><path d="M764.75,225.5 Q764.9531,225 765.1875,224.75 Q765.4219,224.5 765.6875,224.5 Q766.1563,224.5 766.4531,224.7813 Q766.75,225.0625 766.75,225.7188 L766.75,227.2813 Q766.75,227.9375 766.4688,228.2188 Q766.1875,228.5 765.75,228.5 Q765.3594,228.5 765.1094,228.3281 Q764.8594,228.1563 764.75,227.7031 Q764.7031,227.3906 764.5313,227.2188 Q764.2188,226.8906 763.6563,226.7031 Q763.0938,226.5 762.5313,226.5 Q761.8281,226.5 761.2344,226.7813 Q760.6563,227.0625 760.2031,227.6875 Q759.75,228.3125 759.75,229.1719 L759.75,230.0938 Q759.75,231.125 760.5938,231.8125 Q761.4375,232.5 762.9375,232.5 Q763.8281,232.5 764.4531,232.2969 Q764.8125,232.1875 765.2188,231.8281 Q765.4844,231.625 765.625,231.5625 Q765.7656,231.5 765.9375,231.5 Q766.2656,231.5 766.5,231.7656 Q766.75,232.0156 766.75,232.375 Q766.75,232.7188 766.4063,233.125 Q765.9063,233.7188 765.1094,234.0469 Q764.0625,234.5 762.7813,234.5 Q761.2813,234.5 760.0781,233.9063 Q759.1094,233.4375 758.4219,232.4219 Q757.75,231.4063 757.75,230.2031 L757.75,229.1094 Q757.75,227.8594 758.3438,226.7656 Q758.9531,225.6719 760,225.0938 Q761.0625,224.5 762.25,224.5 Q762.9688,224.5 763.5938,224.75 Q764.2188,225 764.75,225.5 Z " fill="#000000"/><text fill="#000000" font-family="sans-serif" font-size="12" lengthAdjust="spacing" textLength="77" x="783.25" y="233.9102">ShipsFileDTO</text><line style="stroke:#A80036;stroke-width:1.5;" x1="557" x2="1054" y1="245" y2="245"/><text fill="#000000" font-family="sans-serif" font-size="11" lengthAdjust="spacing" textLength="62" x="562" y="260.4189">-positionDTO</text><text fill="#000000" font-family="sans-serif" font-size="11" lengthAdjust="spacing" textLength="28" x="562" y="274.2549">-mmsi</text><text fill="#000000" font-family="sans-serif" font-size="11" lengthAdjust="spacing" textLength="60" x="562" y="288.0908">-vesselType</text><text fill="#000000" font-family="sans-serif" font-size="11" lengthAdjust="spacing" textLength="33" x="562" y="301.9268">-length</text><text fill="#000000" font-family="sans-serif" font-size="11" lengthAdjust="spacing" textLength="31" x="562" y="315.7627">-width</text><text fill="#000000" font-family="sans-serif" font-size="11" lengthAdjust="spacing" textLength="27" x="562" y="329.5986">-draft</text><text fill="#000000" font-family="sans-serif" font-size="11" lengthAdjust="spacing" textLength="63" x="562" y="343.4346">-vesselName</text><text fill="#000000" font-family="sans-serif" font-size="11" lengthAdjust="spacing" textLength="20" x="562" y="357.2705">-imo</text><text fill="#000000" font-family="sans-serif" font-size="11" lengthAdjust="spacing" textLength="41" x="562" y="371.1064">-callSign</text><text fill="#000000" font-family="sans-serif" font-size="11" lengthAdjust="spacing" textLength="32" x="562" y="384.9424">-cargo</text><line style="stroke:#A80036;stroke-width:1.5;" x1="557" x2="1054" y1="391.3594" y2="391.3594"/><text fill="#000000" font-family="sans-serif" font-size="11" lengthAdjust="spacing" textLength="487" x="562" y="406.7783">-ShipsFileDTO(positionDTO, mmsi, vesselName, imo, callSign, vesselType, length, width, draft, cargo)</text><text fill="#000000" font-family="sans-serif" font-size="11" lengthAdjust="spacing" textLength="85" x="562" y="420.6143">-getPositionDTO()</text><text fill="#000000" font-family="sans-serif" font-size="11" lengthAdjust="spacing" textLength="51" x="562" y="434.4502">-getMmsi()</text><text fill="#000000" font-family="sans-serif" font-size="11" lengthAdjust="spacing" textLength="88" x="562" y="448.2861">-getVesselName()</text><text fill="#000000" font-family="sans-serif" font-size="11" lengthAdjust="spacing" textLength="43" x="562" y="462.1221">-getImo()</text><text fill="#000000" font-family="sans-serif" font-size="11" lengthAdjust="spacing" textLength="65" x="562" y="475.958">-getCallSign()</text><text fill="#000000" font-family="sans-serif" font-size="11" lengthAdjust="spacing" textLength="85" x="562" y="489.7939">-getVesselType()</text><text fill="#000000" font-family="sans-serif" font-size="11" lengthAdjust="spacing" textLength="60" x="562" y="503.6299">-getLength()</text><text fill="#000000" font-family="sans-serif" font-size="11" lengthAdjust="spacing" textLength="54" x="562" y="517.4658">-getWidth()</text><text fill="#000000" font-family="sans-serif" font-size="11" lengthAdjust="spacing" textLength="56" x="562" y="531.3018">-getCargo()</text><text fill="#000000" font-family="sans-serif" font-size="11" lengthAdjust="spacing" textLength="51" x="562" y="545.1377">-getDraft()</text><!--MD5=[43e6df9a60263bc05e863967c2e8add9]
class PositionDTO--><rect codeLine="109" fill="#FEFECE" filter="url(#f1tjuihf30pktr)" height="255.5391" id="PositionDTO" style="stroke:#A80036;stroke-width:1.5;" width="367" x="839" y="630"/><ellipse cx="983.25" cy="646" fill="#ADD1B2" rx="11" ry="11" style="stroke:#A80036;stroke-width:1.0;"/><path d="M985.25,642.5 Q985.4531,642 985.6875,641.75 Q985.9219,641.5 986.1875,641.5 Q986.6563,641.5 986.9531,641.7813 Q987.25,642.0625 987.25,642.7188 L987.25,644.2813 Q987.25,644.9375 986.9688,645.2188 Q986.6875,645.5 986.25,645.5 Q985.8594,645.5 985.6094,645.3281 Q985.3594,645.1563 985.25,644.7031 Q985.2031,644.3906 985.0313,644.2188 Q984.7188,643.8906 984.1563,643.7031 Q983.5938,643.5 983.0313,643.5 Q982.3281,643.5 981.7344,643.7813 Q981.1563,644.0625 980.7031,644.6875 Q980.25,645.3125 980.25,646.1719 L980.25,647.0938 Q980.25,648.125 981.0938,648.8125 Q981.9375,649.5 983.4375,649.5 Q984.3281,649.5 984.9531,649.2969 Q985.3125,649.1875 985.7188,648.8281 Q985.9844,648.625 986.125,648.5625 Q986.2656,648.5 986.4375,648.5 Q986.7656,648.5 987,648.7656 Q987.25,649.0156 987.25,649.375 Q987.25,649.7188 986.9063,650.125 Q986.4063,650.7188 985.6094,651.0469 Q984.5625,651.5 983.2813,651.5 Q981.7813,651.5 980.5781,650.9063 Q979.6094,650.4375 978.9219,649.4219 Q978.25,648.4063 978.25,647.2031 L978.25,646.1094 Q978.25,644.8594 978.8438,643.7656 Q979.4531,642.6719 980.5,642.0938 Q981.5625,641.5 982.75,641.5 Q983.4688,641.5 984.0938,641.75 Q984.7188,642 985.25,642.5 Z " fill="#000000"/><text fill="#000000" font-family="sans-serif" font-size="12" lengthAdjust="spacing" textLength="70" x="1003.75" y="650.9102">PositionDTO</text><line style="stroke:#A80036;stroke-width:1.5;" x1="840" x2="1205" y1="662" y2="662"/><text fill="#000000" font-family="sans-serif" font-size="11" lengthAdjust="spacing" textLength="72" x="845" y="677.4189">-baseDateTime</text><text fill="#000000" font-family="sans-serif" font-size="11" lengthAdjust="spacing" textLength="15" x="845" y="691.2549">-lat</text><text fill="#000000" font-family="sans-serif" font-size="11" lengthAdjust="spacing" textLength="18" x="845" y="705.0908">-lon</text><text fill="#000000" font-family="sans-serif" font-size="11" lengthAdjust="spacing" textLength="22" x="845" y="718.9268">-sog</text><text fill="#000000" font-family="sans-serif" font-size="11" lengthAdjust="spacing" textLength="22" x="845" y="732.7627">-cog</text><text fill="#000000" font-family="sans-serif" font-size="11" lengthAdjust="spacing" textLength="42" x="845" y="746.5986">-heading</text><text fill="#000000" font-family="sans-serif" font-size="11" lengthAdjust="spacing" textLength="86" x="845" y="760.4346">-transcieverClass</text><line style="stroke:#A80036;stroke-width:1.5;" x1="840" x2="1205" y1="766.8516" y2="766.8516"/><text fill="#000000" font-family="sans-serif" font-size="11" lengthAdjust="spacing" textLength="355" x="845" y="782.2705">-PositionDTO(baseDateTime, lat, lon, sog, cog, heading, transcieverClass)</text><text fill="#000000" font-family="sans-serif" font-size="11" lengthAdjust="spacing" textLength="96" x="845" y="796.1064">-getBaseDateTime()</text><text fill="#000000" font-family="sans-serif" font-size="11" lengthAdjust="spacing" textLength="42" x="845" y="809.9424">-getLat()</text><text fill="#000000" font-family="sans-serif" font-size="11" lengthAdjust="spacing" textLength="45" x="845" y="823.7783">-getLon()</text><text fill="#000000" font-family="sans-serif" font-size="11" lengthAdjust="spacing" textLength="46" x="845" y="837.6143">-getSog()</text><text fill="#000000" font-family="sans-serif" font-size="11" lengthAdjust="spacing" textLength="46" x="845" y="851.4502">-getCog()</text><text fill="#000000" font-family="sans-serif" font-size="11" lengthAdjust="spacing" textLength="66" x="845" y="865.2861">-getHeading()</text><text fill="#000000" font-family="sans-serif" font-size="11" lengthAdjust="spacing" textLength="112" x="845" y="879.1221">-getTranscieverClass()</text><!--MD5=[d35c42ee36b0bf62989c582280af4af5]
class ShipsFileUtils--><rect codeLine="127" fill="#FEFECE" filter="url(#f1tjuihf30pktr)" height="117.1797" id="ShipsFileUtils" style="stroke:#A80036;stroke-width:1.5;" width="183" x="909" y="21"/><ellipse cx="957.75" cy="37" fill="#ADD1B2" rx="11" ry="11" style="stroke:#A80036;stroke-width:1.0;"/><path d="M959.75,33.5 Q959.9531,33 960.1875,32.75 Q960.4219,32.5 960.6875,32.5 Q961.1563,32.5 961.4531,32.7813 Q961.75,33.0625 961.75,33.7188 L961.75,35.2813 Q961.75,35.9375 961.4688,36.2188 Q961.1875,36.5 960.75,36.5 Q960.3594,36.5 960.1094,36.3281 Q959.8594,36.1563 959.75,35.7031 Q959.7031,35.3906 959.5313,35.2188 Q959.2188,34.8906 958.6563,34.7031 Q958.0938,34.5 957.5313,34.5 Q956.8281,34.5 956.2344,34.7813 Q955.6563,35.0625 955.2031,35.6875 Q954.75,36.3125 954.75,37.1719 L954.75,38.0938 Q954.75,39.125 955.5938,39.8125 Q956.4375,40.5 957.9375,40.5 Q958.8281,40.5 959.4531,40.2969 Q959.8125,40.1875 960.2188,39.8281 Q960.4844,39.625 960.625,39.5625 Q960.7656,39.5 960.9375,39.5 Q961.2656,39.5 961.5,39.7656 Q961.75,40.0156 961.75,40.375 Q961.75,40.7188 961.4063,41.125 Q960.9063,41.7188 960.1094,42.0469 Q959.0625,42.5 957.7813,42.5 Q956.2813,42.5 955.0781,41.9063 Q954.1094,41.4375 953.4219,40.4219 Q952.75,39.4063 952.75,38.2031 L952.75,37.1094 Q952.75,35.8594 953.3438,34.7656 Q953.9531,33.6719 955,33.0938 Q956.0625,32.5 957.25,32.5 Q957.9688,32.5 958.5938,32.75 Q959.2188,33 959.75,33.5 Z " fill="#000000"/><text fill="#000000" font-family="sans-serif" font-size="12" lengthAdjust="spacing" textLength="77" x="978.25" y="41.9102">ShipsFileUtils</text><line style="stroke:#A80036;stroke-width:1.5;" x1="910" x2="1091" y1="53" y2="53"/><text fill="#000000" font-family="sans-serif" font-size="11" lengthAdjust="spacing" textLength="57" x="915" y="68.4189">-dataLabels</text><line style="stroke:#A80036;stroke-width:1.5;" x1="910" x2="1091" y1="74.8359" y2="74.8359"/><text fill="#000000" font-family="sans-serif" font-size="11" lengthAdjust="spacing" textLength="144" x="915" y="90.2549">-getShipsDataToDTO(filePath)</text><text fill="#000000" font-family="sans-serif" font-size="11" lengthAdjust="spacing" textLength="132" x="915" y="104.0908">-attributesToDTO(shipData)</text><text fill="#000000" font-family="sans-serif" font-size="11" lengthAdjust="spacing" textLength="171" x="915" y="117.9268">-getDateOfString(stringFormatDate)</text><text fill="#000000" font-family="sans-serif" font-size="11" lengthAdjust="spacing" textLength="103" x="915" y="131.7627">-positionToDTO(data)</text><!--MD5=[b4a9ab6cffd58937cfea07eb2954e1bd]
class BST--><rect codeLine="135" fill="#FEFECE" filter="url(#f1tjuihf30pktr)" height="32" id="BST" style="stroke:#A80036;stroke-width:1.5;" width="55" x="574" y="1811.5"/><ellipse cx="589" cy="1827.5" fill="#B4A7E5" rx="11" ry="11" style="stroke:#A80036;stroke-width:1.0;"/><path d="M590,1824.5 L590,1830.5 L592,1830.5 L592.4844,1830.5 L593,1831.125 L593,1831.5 L593,1831.875 L592.4844,1832.5 L592,1832.5 L586,1832.5 L585.5156,1832.5 L585,1831.875 L585,1831.5 L585,1831.125 L585.5156,1830.5 L586,1830.5 L588,1830.5 L588,1824.5 L586,1824.5 L585.5156,1824.5 L585,1823.875 L585,1823.5 L585,1823.125 L585.5156,1822.5 L586,1822.5 L592,1822.5 L592.4844,1822.5 L593,1823.125 L593,1823.5 L593,1823.875 L592.4844,1824.5 L592,1824.5 L590,1824.5 Z " fill="#000000"/><text fill="#000000" font-family="sans-serif" font-size="12" font-style="italic" lengthAdjust="spacing" textLength="23" x="603" y="1832.4102">BST</text><!--MD5=[6b4a94d80660e97c6833bde801bd4c89]
link Company to ShipStore--><path codeLine="138" d="M474.7,427.81 C468.61,498.92 456.71,637.87 450.49,710.4 " fill="none" id="Company-ShipStore" style="stroke:#A80036;stroke-width:1.0;"/><polygon fill="#000000" points="466.0732,596.1575,469.7735,587.3963,463.9171,586.8946,466.0732,596.1575" style="stroke:#000000;stroke-width:1.0;"/><text fill="#000000" font-family="sans-serif" font-size="13" lengthAdjust="spacing" textLength="28" x="475.5" y="596.4951">uses</text><text fill="#000000" font-family="sans-serif" font-size="13" lengthAdjust="spacing" textLength="7" x="466.7191" y="448.5253">1</text><text fill="#000000" font-family="sans-serif" font-size="13" lengthAdjust="spacing" textLength="7" x="443.562" y="699.7294">1</text><!--MD5=[b9c0692e8f69729281e4b784c306864d]
link ShipStore to ShipBST--><path codeLine="139" d="M446.5,805.75 C446.5,853.34 446.5,925.42 446.5,963.79 " fill="none" id="ShipStore-ShipBST" style="stroke:#A80036;stroke-width:1.0;"/><polygon fill="#000000" points="451.5,930.1758,454.4389,921.1307,448.5611,921.1307,451.5,930.1758" style="stroke:#000000;stroke-width:1.0;"/><text fill="#000000" font-family="sans-serif" font-size="13" lengthAdjust="spacing" textLength="28" x="460.5" y="930.4951">uses</text><text fill="#000000" font-family="sans-serif" font-size="13" lengthAdjust="spacing" textLength="7" x="438.9859" y="827.434">1</text><text fill="#000000" font-family="sans-serif" font-size="13" lengthAdjust="spacing" textLength="7" x="438.6906" y="953.2024">1</text><!--MD5=[922bf55421258cf59997e7143e4c17d9]
link ShipBST to Ship--><path codeLine="140" d="M446.5,1018.25 C446.5,1037.51 446.5,1065.53 446.5,1095.97 " fill="none" id="ShipBST-Ship" style="stroke:#A80036;stroke-width:1.0;"/><polygon fill="#000000" points="451.5,1062.1758,454.4389,1053.1307,448.5611,1053.1307,451.5,1062.1758" style="stroke:#000000;stroke-width:1.0;"/><text fill="#000000" font-family="sans-serif" font-size="13" lengthAdjust="spacing" textLength="30" x="460.5" y="1062.4951">owns</text><text fill="#000000" font-family="sans-serif" font-size="13" lengthAdjust="spacing" textLength="7" x="438.7344" y="1039.5125">1</text><text fill="#000000" font-family="sans-serif" font-size="13" lengthAdjust="spacing" textLength="20" x="426.0469" y="1085.1254">1..*</text><!--MD5=[bd16fc4b2a08274ec71edc6d573c9239]
link Ship to PositionsBST--><path codeLine="141" d="M392.12,1448.09 C383.09,1477.18 374.54,1504.7 367.98,1525.83 " fill="none" id="Ship-PositionsBST" style="stroke:#A80036;stroke-width:1.0;"/><polygon fill="#000000" points="386.0172,1491.9509,391.5063,1484.1842,385.8929,1482.4411,386.0172,1491.9509" style="stroke:#000000;stroke-width:1.0;"/><text fill="#000000" font-family="sans-serif" font-size="13" lengthAdjust="spacing" textLength="28" x="396.5" y="1492.4951">uses</text><text fill="#000000" font-family="sans-serif" font-size="13" lengthAdjust="spacing" textLength="7" x="382.4973" y="1469.9258">1</text><text fill="#000000" font-family="sans-serif" font-size="13" lengthAdjust="spacing" textLength="7" x="362.4673" y="1515.2512">1</text><!--MD5=[34b80baad36b2d2bd6b6893c22d217b3]
link PositionsBST to ShipPosition--><path codeLine="142" d="M332.23,1608.11 C319.8,1629.52 303.68,1657.3 287.13,1685.83 " fill="none" id="PositionsBST-ShipPosition" style="stroke:#A80036;stroke-width:1.0;"/><polygon fill="#000000" points="313.9905,1651.5004,321.0722,1645.1522,315.9883,1642.202,313.9905,1651.5004" style="stroke:#000000;stroke-width:1.0;"/><text fill="#000000" font-family="sans-serif" font-size="13" lengthAdjust="spacing" textLength="21" x="325.5" y="1652.4951">has</text><text fill="#000000" font-family="sans-serif" font-size="13" lengthAdjust="spacing" textLength="7" x="321.2982" y="1628.8801">1</text><text fill="#000000" font-family="sans-serif" font-size="13" lengthAdjust="spacing" textLength="20" x="271.0473" y="1675.1439">1..*</text><!--MD5=[597720547007695c4a56dcf4561abc5a]
link ImportShipsController to Company--><path codeLine="143" d="M386.71,152.01 C394.7,161.61 402.19,171.71 408.5,182 C437.45,229.21 456.59,290.06 467.43,332.08 " fill="none" id="ImportShipsController-to-Company" style="stroke:#A80036;stroke-width:1.0;stroke-dasharray:7.0,7.0;"/><polygon fill="#A80036" points="468.71,337.11,470.3472,327.3982,467.4671,332.2669,462.5983,329.3868,468.71,337.11" style="stroke:#A80036;stroke-width:1.0;"/><!--MD5=[e2eca9035e272ddec204095862896a95]
link ImportShipsController to ShipBST--><path codeLine="144" d="M301.13,152.16 C283.28,296.94 257.74,632.1 359.5,886 C370.91,914.47 393.25,940.91 412.43,960 " fill="none" id="ImportShipsController-to-ShipBST" style="stroke:#A80036;stroke-width:1.0;stroke-dasharray:7.0,7.0;"/><polygon fill="#A80036" points="416.22,963.72,412.5918,954.5638,412.6489,960.2204,406.9924,960.2775,416.22,963.72" style="stroke:#A80036;stroke-width:1.0;"/><!--MD5=[18af1f6827f6d658162bd46cd3a2d037]
link ImportShipsController to Ship--><path codeLine="145" d="M284.76,152.06 C264.63,212.36 240.5,301.37 240.5,381.5 C240.5,381.5 240.5,381.5 240.5,992 C240.5,1027.01 251.13,1060.5 267.55,1091.37 " fill="none" id="ImportShipsController-to-Ship" style="stroke:#A80036;stroke-width:1.0;stroke-dasharray:7.0,7.0;"/><polygon fill="#A80036" points="270.01,1095.9,269.2231,1086.0826,267.6208,1091.5078,262.1956,1089.9054,270.01,1095.9" style="stroke:#A80036;stroke-width:1.0;"/><!--MD5=[1ee6c4023dc1309e5ab49abb2b5c7ab5]
link ImportShipsController to PositionsBST--><path codeLine="146" d="M250.02,152.23 C206.74,210.14 156.5,295.83 156.5,381.5 C156.5,381.5 156.5,381.5 156.5,1273 C156.5,1352.41 149.41,1381.3 192.5,1448 C212.46,1478.91 243.59,1504.36 273.32,1523.61 " fill="none" id="ImportShipsController-to-PositionsBST" style="stroke:#A80036;stroke-width:1.0;stroke-dasharray:7.0,7.0;"/><polygon fill="#A80036" points="277.69,1526.4,272.2697,1518.1768,273.4799,1523.7027,267.9541,1524.9129,277.69,1526.4" style="stroke:#A80036;stroke-width:1.0;"/><!--MD5=[b099b2e39b9fe30355e18cd0b2ddc868]
link ImportShipsController to ShipPosition--><path codeLine="147" d="M221.47,139.75 C195.21,160.44 168.29,185.46 148.5,213 C101.85,277.93 85.5,301.55 85.5,381.5 C85.5,381.5 85.5,381.5 85.5,1568 C85.5,1606.47 96.57,1645.42 111.99,1681.01 " fill="none" id="ImportShipsController-to-ShipPosition" style="stroke:#A80036;stroke-width:1.0;stroke-dasharray:7.0,7.0;"/><polygon fill="#A80036" points="114.09,1685.79,114.1071,1675.9412,112.0672,1681.2174,106.791,1679.1776,114.09,1685.79" style="stroke:#A80036;stroke-width:1.0;"/><!--MD5=[b1d5fd3bfb64dd662cc4090d8bcc3cff]
link ImportShipsController to ShipStore--><path codeLine="148" d="M330.46,152.17 C332.93,162.17 335.35,172.32 337.5,182 C380.22,373.89 420.63,604.18 437.82,705.21 " fill="none" id="ImportShipsController-to-ShipStore" style="stroke:#A80036;stroke-width:1.0;stroke-dasharray:7.0,7.0;"/><polygon fill="#A80036" points="438.67,710.21,441.0957,700.6645,437.8272,705.2815,433.2101,702.0131,438.67,710.21" style="stroke:#A80036;stroke-width:1.0;"/><!--MD5=[28c7efa8feb8e099916aff7023a57e1d]
link ShipBST to BST--><path codeLine="149" d="M532.17,1002.46 C590.33,1014.51 663.19,1040.41 700.5,1096 C860.6,1334.55 663.8,1716.44 612.91,1806.86 " fill="none" id="ShipBST-to-BST" style="stroke:#A80036;stroke-width:1.0;stroke-dasharray:7.0,7.0;"/><polygon fill="#A80036" points="610.32,1811.43,618.2251,1805.5555,612.7761,1807.0748,611.2567,1801.6258,610.32,1811.43" style="stroke:#A80036;stroke-width:1.0;"/><!--MD5=[1188dce5d03092776280b0cb741a6d56]
link PositionsBST to BST--><path codeLine="150" d="M393.67,1608.11 C447.53,1664.71 543.71,1765.78 583.5,1807.59 " fill="none" id="PositionsBST-to-BST" style="stroke:#A80036;stroke-width:1.0;stroke-dasharray:7.0,7.0;"/><polygon fill="#A80036" points="587.18,1811.45,583.887,1802.168,583.7385,1807.8229,578.0836,1807.6744,587.18,1811.45" style="stroke:#A80036;stroke-width:1.0;"/><!--MD5=[08d9b346c18d5ce7212dd36fb70cfb48]
link ShipsFileUtils to ShipsFileDTO--><path codeLine="151" d="M963.13,138.18 C949.8,158.75 934.01,183.13 917.66,208.37 " fill="none" id="ShipsFileUtils-to-ShipsFileDTO" style="stroke:#A80036;stroke-width:1.0;stroke-dasharray:7.0,7.0;"/><polygon fill="#A80036" points="914.82,212.76,923.0645,207.3722,917.5339,208.5606,916.3455,203.03,914.82,212.76" style="stroke:#A80036;stroke-width:1.0;"/><!--MD5=[e2f8a036422aeca6e102f0abee7e28c8]
link ShipsFileUtils to PositionDTO--><path codeLine="152" d="M1039.99,138.23 C1053.03,160.57 1065.89,186.99 1072.5,213 C1107.49,350.67 1084.42,513.46 1059.26,624.85 " fill="none" id="ShipsFileUtils-to-PositionDTO" style="stroke:#A80036;stroke-width:1.0;stroke-dasharray:7.0,7.0;"/><polygon fill="#A80036" points="1058.13,629.78,1064.0141,621.8821,1059.2313,624.9028,1056.2106,620.12,1058.13,629.78" style="stroke:#A80036;stroke-width:1.0;"/><!--MD5=[d9b96024da7de89a5d201459251f449d]
link ImportShipsController to ShipsFileDTO--><path codeLine="153" d="M401.68,132.18 C443.5,156.39 493.74,185.82 538.5,213 C542.8,215.61 547.14,218.26 551.51,220.92 " fill="none" id="ImportShipsController-to-ShipsFileDTO" style="stroke:#A80036;stroke-width:1.0;stroke-dasharray:7.0,7.0;"/><polygon fill="#A80036" points="555.89,223.6,550.2941,215.4953,551.6229,220.9939,546.1243,222.3227,555.89,223.6" style="stroke:#A80036;stroke-width:1.0;"/><!--MD5=[b1a080a68e30fc93740ec3004519fc14]
link ShipsFileDTO to PositionDTO--><path codeLine="154" d="M903.52,552.22 C917.8,576.79 932.32,601.78 946.08,625.47 " fill="none" id="ShipsFileDTO-to-PositionDTO" style="stroke:#A80036;stroke-width:1.0;stroke-dasharray:7.0,7.0;"/><polygon fill="#A80036" points="948.64,629.87,947.5643,620.0801,946.1224,625.5501,940.6524,624.1082,948.64,629.87" style="stroke:#A80036;stroke-width:1.0;"/><!--MD5=[55d7e624f032f90394f7edc855ea6980]
@startuml

hide empty methods
hide empty attributes
'left to right direction
skinparam classAttributeIconSize 0

class ImportShipsController {
- company
- ship
- shipPosition
- positionsBST
- createPosition(positionDTO, mmsi)
- saveShip()
- importShipFromFile(shipsFileDTO)
}

class Company {
- designation
- shipsBST
- getBstShip()
}

class Ship {
- positionsBST
- MMSI
- vesselName
- IMO
- callSign
- vesselTypeID
- length
- width
- draft
- cargo
- Ship(positionsBST, MMSI, vesselName, IMO, callSign, vesselTypeID, length, width, draft, cargo)
- checkPositionsBST(positionsBST)
- checkMMSI(int MMSI)
- checkVesselName(vesselName)
- checkIMO(IMO)
- checkLength(length)
- checkWidth(width)
- checkDraft(draft)
- checkCargo(cargo)
- getMMSI()
- setPositionsBST(positionsBST)
- equals(Object otherObject)
}

class ShipPosition {
- MMSI
- baseDateTime
- lat
- lon
- sog
- cog
- heading
- transcieverClass
- ShipPosition(mmsi, baseDateTime, lat, lon, sog, cog, heading, transcieverClass)
- checkMMSI(mmsi)
- checkBaseDateTime(baseDateTime)
- checkLat(lat)
- checkLon(lon)
- checkSog(sog)
- checkCog(cog)
- checkHeading(heading)
- checkTranscieverClass(transcieverClass)
}

class ShipStore {
- createShip(shipsFileDTO)
- validateShip(ship)
- saveShip(ship)
- getShipsBstMmsi()
}

class ShipBST {
- getShipByMmsiCode(mmsiCode)
}

class PositionsBST {
- hasPosition(shipPosition)
- validatePosition(shipPosition)
- savePosition(shipPosition)
}

class ShipsFileDTO{
- positionDTO
- mmsi
- vesselType
- length
- width
- draft
- vesselName
- imo
- callSign
- cargo
- ShipsFileDTO(positionDTO, mmsi, vesselName, imo, callSign, vesselType, length, width, draft, cargo)
- getPositionDTO()
- getMmsi()
- getVesselName()
- getImo()
- getCallSign()
- getVesselType()
- getLength()
- getWidth()
- getCargo()
- getDraft()
}

class PositionDTO{
- baseDateTime
- lat
- lon
- sog
- cog
- heading
- transcieverClass
- PositionDTO(baseDateTime, lat, lon, sog, cog, heading, transcieverClass)
- getBaseDateTime()
- getLat()
- getLon()
- getSog()
- getCog()
- getHeading()
- getTranscieverClass()
}

class ShipsFileUtils{
- dataLabels
- getShipsDataToDTO(filePath)
- attributesToDTO(shipData)
- getDateOfString(stringFormatDate)
- positionToDTO(data)
}

Interface BST{
}

Company "1" - - "1" ShipStore : uses >
ShipStore "1" - - "1" ShipBST : uses >
ShipBST "1" - - "1..*" Ship : owns >
Ship "1" - - "1" PositionsBST : uses >
PositionsBST "1" - - "1..*" ShipPosition : has >
ImportShipsController ..> Company
ImportShipsController ..> ShipBST
ImportShipsController ..> Ship
ImportShipsController ..> PositionsBST
ImportShipsController ..> ShipPosition
ImportShipsController ..> ShipStore
ShipBST ..> BST
PositionsBST ..> BST
ShipsFileUtils ..> ShipsFileDTO
ShipsFileUtils ..> PositionDTO
ImportShipsController ..> ShipsFileDTO
ShipsFileDTO ..> PositionDTO



@enduml

@startuml

hide empty methods
hide empty attributes
skinparam classAttributeIconSize 0

class ImportShipsController {
- company
- ship
- shipPosition
- positionsBST
- createPosition(positionDTO, mmsi)
- saveShip()
- importShipFromFile(shipsFileDTO)
}

class Company {
- designation
- shipsBST
- getBstShip()
}

class Ship {
- positionsBST
- MMSI
- vesselName
- IMO
- callSign
- vesselTypeID
- length
- width
- draft
- cargo
- Ship(positionsBST, MMSI, vesselName, IMO, callSign, vesselTypeID, length, width, draft, cargo)
- checkPositionsBST(positionsBST)
- checkMMSI(int MMSI)
- checkVesselName(vesselName)
- checkIMO(IMO)
- checkLength(length)
- checkWidth(width)
- checkDraft(draft)
- checkCargo(cargo)
- getMMSI()
- setPositionsBST(positionsBST)
- equals(Object otherObject)
}

class ShipPosition {
- MMSI
- baseDateTime
- lat
- lon
- sog
- cog
- heading
- transcieverClass
- ShipPosition(mmsi, baseDateTime, lat, lon, sog, cog, heading, transcieverClass)
- checkMMSI(mmsi)
- checkBaseDateTime(baseDateTime)
- checkLat(lat)
- checkLon(lon)
- checkSog(sog)
- checkCog(cog)
- checkHeading(heading)
- checkTranscieverClass(transcieverClass)
}

class ShipStore {
- createShip(shipsFileDTO)
- validateShip(ship)
- saveShip(ship)
- getShipsBstMmsi()
}

class ShipBST {
- getShipByMmsiCode(mmsiCode)
}

class PositionsBST {
- hasPosition(shipPosition)
- validatePosition(shipPosition)
- savePosition(shipPosition)
}

class ShipsFileDTO{
- positionDTO
- mmsi
- vesselType
- length
- width
- draft
- vesselName
- imo
- callSign
- cargo
- ShipsFileDTO(positionDTO, mmsi, vesselName, imo, callSign, vesselType, length, width, draft, cargo)
- getPositionDTO()
- getMmsi()
- getVesselName()
- getImo()
- getCallSign()
- getVesselType()
- getLength()
- getWidth()
- getCargo()
- getDraft()
}

class PositionDTO{
- baseDateTime
- lat
- lon
- sog
- cog
- heading
- transcieverClass
- PositionDTO(baseDateTime, lat, lon, sog, cog, heading, transcieverClass)
- getBaseDateTime()
- getLat()
- getLon()
- getSog()
- getCog()
- getHeading()
- getTranscieverClass()
}

class ShipsFileUtils{
- dataLabels
- getShipsDataToDTO(filePath)
- attributesToDTO(shipData)
- getDateOfString(stringFormatDate)
- positionToDTO(data)
}

Interface BST{
}

Company "1" - - "1" ShipStore : uses >
ShipStore "1" - - "1" ShipBST : uses >
ShipBST "1" - - "1..*" Ship : owns >
Ship "1" - - "1" PositionsBST : uses >
PositionsBST "1" - - "1..*" ShipPosition : has >
ImportShipsController ..> Company
ImportShipsController ..> ShipBST
ImportShipsController ..> Ship
ImportShipsController ..> PositionsBST
ImportShipsController ..> ShipPosition
ImportShipsController ..> ShipStore
ShipBST ..> BST
PositionsBST ..> BST
ShipsFileUtils ..> ShipsFileDTO
ShipsFileUtils ..> PositionDTO
ImportShipsController ..> ShipsFileDTO
ShipsFileDTO ..> PositionDTO



@enduml

PlantUML version 1.2021.11(Sat Oct 02 14:26:11 BST 2021)
(GPL source distribution)
Java Runtime: OpenJDK Runtime Environment
JVM: OpenJDK 64-Bit Server VM
Default Encoding: Cp1252
Language: pt
Country: PT
--></g></svg>