<?xml version="1.0" encoding="UTF-8" standalone="no"?><svg xmlns="http://www.w3.org/2000/svg" xmlns:xlink="http://www.w3.org/1999/xlink" contentScriptType="application/ecmascript" contentStyleType="text/css" height="791px" preserveAspectRatio="none" style="width:364px;height:791px;background:#FFFFFF;" version="1.1" viewBox="0 0 364 791" width="364px" zoomAndPan="magnify"><defs><filter height="300%" id="fvfv63ca0mt0m" width="300%" x="-1" y="-1"><feGaussianBlur result="blurOut" stdDeviation="2.0"/><feColorMatrix in="blurOut" result="blurOut2" type="matrix" values="0 0 0 0 0 0 0 0 0 0 0 0 0 0 0 0 0 0 .4 0"/><feOffset dx="4.0" dy="4.0" in="blurOut2" result="blurOut3"/><feBlend in="SourceGraphic" in2="blurOut3" mode="normal"/></filter></defs><g><!--MD5=[68985b732702cd7a8d1ae9f7e11b3260]
class ImportShipsUI--><rect codeLine="4" fill="#FEFECE" filter="url(#fvfv63ca0mt0m)" height="48" id="ImportShipsUI" style="stroke:#A80036;stroke-width:1.5;" width="111" x="156.41" y="7"/><ellipse cx="171.41" cy="23" fill="#ADD1B2" rx="11" ry="11" style="stroke:#A80036;stroke-width:1.0;"/><path d="M173.41,19.5 Q173.6131,19 173.8475,18.75 Q174.0819,18.5 174.3475,18.5 Q174.8163,18.5 175.1131,18.7813 Q175.41,19.0625 175.41,19.7188 L175.41,21.2813 Q175.41,21.9375 175.1288,22.2188 Q174.8475,22.5 174.41,22.5 Q174.0194,22.5 173.7694,22.3281 Q173.5194,22.1563 173.41,21.7031 Q173.3631,21.3906 173.1913,21.2188 Q172.8788,20.8906 172.3163,20.7031 Q171.7538,20.5 171.1913,20.5 Q170.4881,20.5 169.8944,20.7813 Q169.3163,21.0625 168.8631,21.6875 Q168.41,22.3125 168.41,23.1719 L168.41,24.0938 Q168.41,25.125 169.2538,25.8125 Q170.0975,26.5 171.5975,26.5 Q172.4881,26.5 173.1131,26.2969 Q173.4725,26.1875 173.8788,25.8281 Q174.1444,25.625 174.285,25.5625 Q174.4256,25.5 174.5975,25.5 Q174.9256,25.5 175.16,25.7656 Q175.41,26.0156 175.41,26.375 Q175.41,26.7188 175.0663,27.125 Q174.5663,27.7188 173.7694,28.0469 Q172.7225,28.5 171.4413,28.5 Q169.9413,28.5 168.7381,27.9063 Q167.7694,27.4375 167.0819,26.4219 Q166.41,25.4063 166.41,24.2031 L166.41,23.1094 Q166.41,21.8594 167.0038,20.7656 Q167.6131,19.6719 168.66,19.0938 Q169.7225,18.5 170.91,18.5 Q171.6288,18.5 172.2538,18.75 Q172.8788,19 173.41,19.5 Z " fill="#000000"/><text fill="#000000" font-family="sans-serif" font-size="12" lengthAdjust="spacing" textLength="79" x="185.41" y="27.9102">ImportShipsUI</text><line style="stroke:#A80036;stroke-width:1.5;" x1="157.41" x2="266.41" y1="39" y2="39"/><line style="stroke:#A80036;stroke-width:1.5;" x1="157.41" x2="266.41" y1="47" y2="47"/><!--MD5=[990bef4c2f1c4f7830655fe175b8ab92]
class ImportShipsController--><rect codeLine="6" fill="#FEFECE" filter="url(#fvfv63ca0mt0m)" height="48" id="ImportShipsController" style="stroke:#A80036;stroke-width:1.5;" width="153" x="135.41" y="116"/><ellipse cx="150.41" cy="132" fill="#ADD1B2" rx="11" ry="11" style="stroke:#A80036;stroke-width:1.0;"/><path d="M152.41,128.5 Q152.6131,128 152.8475,127.75 Q153.0819,127.5 153.3475,127.5 Q153.8163,127.5 154.1131,127.7813 Q154.41,128.0625 154.41,128.7188 L154.41,130.2813 Q154.41,130.9375 154.1288,131.2188 Q153.8475,131.5 153.41,131.5 Q153.0194,131.5 152.7694,131.3281 Q152.5194,131.1563 152.41,130.7031 Q152.3631,130.3906 152.1913,130.2188 Q151.8788,129.8906 151.3163,129.7031 Q150.7538,129.5 150.1913,129.5 Q149.4881,129.5 148.8944,129.7813 Q148.3163,130.0625 147.8631,130.6875 Q147.41,131.3125 147.41,132.1719 L147.41,133.0938 Q147.41,134.125 148.2538,134.8125 Q149.0975,135.5 150.5975,135.5 Q151.4881,135.5 152.1131,135.2969 Q152.4725,135.1875 152.8788,134.8281 Q153.1444,134.625 153.285,134.5625 Q153.4256,134.5 153.5975,134.5 Q153.9256,134.5 154.16,134.7656 Q154.41,135.0156 154.41,135.375 Q154.41,135.7188 154.0663,136.125 Q153.5663,136.7188 152.7694,137.0469 Q151.7225,137.5 150.4413,137.5 Q148.9413,137.5 147.7381,136.9063 Q146.7694,136.4375 146.0819,135.4219 Q145.41,134.4063 145.41,133.2031 L145.41,132.1094 Q145.41,130.8594 146.0038,129.7656 Q146.6131,128.6719 147.66,128.0938 Q148.7225,127.5 149.91,127.5 Q150.6288,127.5 151.2538,127.75 Q151.8788,128 152.41,128.5 Z " fill="#000000"/><text fill="#000000" font-family="sans-serif" font-size="12" lengthAdjust="spacing" textLength="121" x="164.41" y="136.9102">ImportShipsController</text><line style="stroke:#A80036;stroke-width:1.5;" x1="136.41" x2="287.41" y1="148" y2="148"/><line style="stroke:#A80036;stroke-width:1.5;" x1="136.41" x2="287.41" y1="156" y2="156"/><!--MD5=[02e4b9b7573f1156f41e60aa5b4e25a4]
class Company--><rect codeLine="10" fill="#FEFECE" filter="url(#fvfv63ca0mt0m)" height="48" id="Company" style="stroke:#A80036;stroke-width:1.5;" width="85" x="73.41" y="225"/><ellipse cx="88.41" cy="241" fill="#ADD1B2" rx="11" ry="11" style="stroke:#A80036;stroke-width:1.0;"/><path d="M90.41,237.5 Q90.6131,237 90.8475,236.75 Q91.0819,236.5 91.3475,236.5 Q91.8163,236.5 92.1131,236.7813 Q92.41,237.0625 92.41,237.7188 L92.41,239.2813 Q92.41,239.9375 92.1288,240.2188 Q91.8475,240.5 91.41,240.5 Q91.0194,240.5 90.7694,240.3281 Q90.5194,240.1563 90.41,239.7031 Q90.3631,239.3906 90.1913,239.2188 Q89.8788,238.8906 89.3163,238.7031 Q88.7538,238.5 88.1913,238.5 Q87.4881,238.5 86.8944,238.7813 Q86.3163,239.0625 85.8631,239.6875 Q85.41,240.3125 85.41,241.1719 L85.41,242.0938 Q85.41,243.125 86.2538,243.8125 Q87.0975,244.5 88.5975,244.5 Q89.4881,244.5 90.1131,244.2969 Q90.4725,244.1875 90.8788,243.8281 Q91.1444,243.625 91.285,243.5625 Q91.4256,243.5 91.5975,243.5 Q91.9256,243.5 92.16,243.7656 Q92.41,244.0156 92.41,244.375 Q92.41,244.7188 92.0663,245.125 Q91.5663,245.7188 90.7694,246.0469 Q89.7225,246.5 88.4413,246.5 Q86.9413,246.5 85.7381,245.9063 Q84.7694,245.4375 84.0819,244.4219 Q83.41,243.4063 83.41,242.2031 L83.41,241.1094 Q83.41,239.8594 84.0038,238.7656 Q84.6131,237.6719 85.66,237.0938 Q86.7225,236.5 87.91,236.5 Q88.6288,236.5 89.2538,236.75 Q89.8788,237 90.41,237.5 Z " fill="#000000"/><text fill="#000000" font-family="sans-serif" font-size="12" lengthAdjust="spacing" textLength="53" x="102.41" y="245.9102">Company</text><line style="stroke:#A80036;stroke-width:1.5;" x1="74.41" x2="157.41" y1="257" y2="257"/><line style="stroke:#A80036;stroke-width:1.5;" x1="74.41" x2="157.41" y1="265" y2="265"/><!--MD5=[0dc7f2ddb409b58bcf52b12238c25399]
class Ship--><rect codeLine="14" fill="#FEFECE" filter="url(#fvfv63ca0mt0m)" height="48" id="Ship" style="stroke:#A80036;stroke-width:1.5;" width="57" x="123.41" y="477"/><ellipse cx="138.41" cy="493" fill="#ADD1B2" rx="11" ry="11" style="stroke:#A80036;stroke-width:1.0;"/><path d="M140.41,489.5 Q140.6131,489 140.8475,488.75 Q141.0819,488.5 141.3475,488.5 Q141.8163,488.5 142.1131,488.7813 Q142.41,489.0625 142.41,489.7188 L142.41,491.2813 Q142.41,491.9375 142.1288,492.2188 Q141.8475,492.5 141.41,492.5 Q141.0194,492.5 140.7694,492.3281 Q140.5194,492.1563 140.41,491.7031 Q140.3631,491.3906 140.1913,491.2188 Q139.8788,490.8906 139.3163,490.7031 Q138.7538,490.5 138.1913,490.5 Q137.4881,490.5 136.8944,490.7813 Q136.3163,491.0625 135.8631,491.6875 Q135.41,492.3125 135.41,493.1719 L135.41,494.0938 Q135.41,495.125 136.2538,495.8125 Q137.0975,496.5 138.5975,496.5 Q139.4881,496.5 140.1131,496.2969 Q140.4725,496.1875 140.8788,495.8281 Q141.1444,495.625 141.285,495.5625 Q141.4256,495.5 141.5975,495.5 Q141.9256,495.5 142.16,495.7656 Q142.41,496.0156 142.41,496.375 Q142.41,496.7188 142.0663,497.125 Q141.5663,497.7188 140.7694,498.0469 Q139.7225,498.5 138.4413,498.5 Q136.9413,498.5 135.7381,497.9063 Q134.7694,497.4375 134.0819,496.4219 Q133.41,495.4063 133.41,494.2031 L133.41,493.1094 Q133.41,491.8594 134.0038,490.7656 Q134.6131,489.6719 135.66,489.0938 Q136.7225,488.5 137.91,488.5 Q138.6288,488.5 139.2538,488.75 Q139.8788,489 140.41,489.5 Z " fill="#000000"/><text fill="#000000" font-family="sans-serif" font-size="12" lengthAdjust="spacing" textLength="25" x="152.41" y="497.9102">Ship</text><line style="stroke:#A80036;stroke-width:1.5;" x1="124.41" x2="179.41" y1="509" y2="509"/><line style="stroke:#A80036;stroke-width:1.5;" x1="124.41" x2="179.41" y1="517" y2="517"/><!--MD5=[1c0c3765e68dc4575d559b566278b914]
class ShipPosition--><rect codeLine="18" fill="#FEFECE" filter="url(#fvfv63ca0mt0m)" height="48" id="ShipPosition" style="stroke:#A80036;stroke-width:1.5;" width="102" x="248.91" y="729"/><ellipse cx="263.91" cy="745" fill="#ADD1B2" rx="11" ry="11" style="stroke:#A80036;stroke-width:1.0;"/><path d="M265.91,741.5 Q266.1131,741 266.3475,740.75 Q266.5819,740.5 266.8475,740.5 Q267.3163,740.5 267.6131,740.7813 Q267.91,741.0625 267.91,741.7188 L267.91,743.2813 Q267.91,743.9375 267.6288,744.2188 Q267.3475,744.5 266.91,744.5 Q266.5194,744.5 266.2694,744.3281 Q266.0194,744.1563 265.91,743.7031 Q265.8631,743.3906 265.6913,743.2188 Q265.3788,742.8906 264.8163,742.7031 Q264.2538,742.5 263.6913,742.5 Q262.9881,742.5 262.3944,742.7813 Q261.8163,743.0625 261.3631,743.6875 Q260.91,744.3125 260.91,745.1719 L260.91,746.0938 Q260.91,747.125 261.7538,747.8125 Q262.5975,748.5 264.0975,748.5 Q264.9881,748.5 265.6131,748.2969 Q265.9725,748.1875 266.3788,747.8281 Q266.6444,747.625 266.785,747.5625 Q266.9256,747.5 267.0975,747.5 Q267.4256,747.5 267.66,747.7656 Q267.91,748.0156 267.91,748.375 Q267.91,748.7188 267.5663,749.125 Q267.0663,749.7188 266.2694,750.0469 Q265.2225,750.5 263.9413,750.5 Q262.4413,750.5 261.2381,749.9063 Q260.2694,749.4375 259.5819,748.4219 Q258.91,747.4063 258.91,746.2031 L258.91,745.1094 Q258.91,743.8594 259.5038,742.7656 Q260.1131,741.6719 261.16,741.0938 Q262.2225,740.5 263.41,740.5 Q264.1288,740.5 264.7538,740.75 Q265.3788,741 265.91,741.5 Z " fill="#000000"/><text fill="#000000" font-family="sans-serif" font-size="12" lengthAdjust="spacing" textLength="70" x="277.91" y="749.9102">ShipPosition</text><line style="stroke:#A80036;stroke-width:1.5;" x1="249.91" x2="349.91" y1="761" y2="761"/><line style="stroke:#A80036;stroke-width:1.5;" x1="249.91" x2="349.91" y1="769" y2="769"/><!--MD5=[43adf079e4aaffd3a283c2c0454b404c]
class ShipsBST--><rect codeLine="22" fill="#FEFECE" filter="url(#fvfv63ca0mt0m)" height="48" id="ShipsBST" style="stroke:#A80036;stroke-width:1.5;" width="87" x="108.41" y="351"/><ellipse cx="123.41" cy="367" fill="#ADD1B2" rx="11" ry="11" style="stroke:#A80036;stroke-width:1.0;"/><path d="M125.41,363.5 Q125.6131,363 125.8475,362.75 Q126.0819,362.5 126.3475,362.5 Q126.8163,362.5 127.1131,362.7813 Q127.41,363.0625 127.41,363.7188 L127.41,365.2813 Q127.41,365.9375 127.1288,366.2188 Q126.8475,366.5 126.41,366.5 Q126.0194,366.5 125.7694,366.3281 Q125.5194,366.1563 125.41,365.7031 Q125.3631,365.3906 125.1913,365.2188 Q124.8788,364.8906 124.3163,364.7031 Q123.7538,364.5 123.1913,364.5 Q122.4881,364.5 121.8944,364.7813 Q121.3163,365.0625 120.8631,365.6875 Q120.41,366.3125 120.41,367.1719 L120.41,368.0938 Q120.41,369.125 121.2538,369.8125 Q122.0975,370.5 123.5975,370.5 Q124.4881,370.5 125.1131,370.2969 Q125.4725,370.1875 125.8788,369.8281 Q126.1444,369.625 126.285,369.5625 Q126.4256,369.5 126.5975,369.5 Q126.9256,369.5 127.16,369.7656 Q127.41,370.0156 127.41,370.375 Q127.41,370.7188 127.0663,371.125 Q126.5663,371.7188 125.7694,372.0469 Q124.7225,372.5 123.4413,372.5 Q121.9413,372.5 120.7381,371.9063 Q119.7694,371.4375 119.0819,370.4219 Q118.41,369.4063 118.41,368.2031 L118.41,367.1094 Q118.41,365.8594 119.0038,364.7656 Q119.6131,363.6719 120.66,363.0938 Q121.7225,362.5 122.91,362.5 Q123.6288,362.5 124.2538,362.75 Q124.8788,363 125.41,363.5 Z " fill="#000000"/><text fill="#000000" font-family="sans-serif" font-size="12" lengthAdjust="spacing" textLength="55" x="137.41" y="371.9102">ShipsBST</text><line style="stroke:#A80036;stroke-width:1.5;" x1="109.41" x2="194.41" y1="383" y2="383"/><line style="stroke:#A80036;stroke-width:1.5;" x1="109.41" x2="194.41" y1="391" y2="391"/><!--MD5=[004e005a2edf96352d0772cab412880f]
class PositionsBST--><rect codeLine="26" fill="#FEFECE" filter="url(#fvfv63ca0mt0m)" height="48" id="PositionsBST" style="stroke:#A80036;stroke-width:1.5;" width="107" x="193.41" y="603"/><ellipse cx="208.41" cy="619" fill="#ADD1B2" rx="11" ry="11" style="stroke:#A80036;stroke-width:1.0;"/><path d="M210.41,615.5 Q210.6131,615 210.8475,614.75 Q211.0819,614.5 211.3475,614.5 Q211.8163,614.5 212.1131,614.7813 Q212.41,615.0625 212.41,615.7188 L212.41,617.2813 Q212.41,617.9375 212.1288,618.2188 Q211.8475,618.5 211.41,618.5 Q211.0194,618.5 210.7694,618.3281 Q210.5194,618.1563 210.41,617.7031 Q210.3631,617.3906 210.1913,617.2188 Q209.8788,616.8906 209.3163,616.7031 Q208.7538,616.5 208.1913,616.5 Q207.4881,616.5 206.8944,616.7813 Q206.3163,617.0625 205.8631,617.6875 Q205.41,618.3125 205.41,619.1719 L205.41,620.0938 Q205.41,621.125 206.2538,621.8125 Q207.0975,622.5 208.5975,622.5 Q209.4881,622.5 210.1131,622.2969 Q210.4725,622.1875 210.8788,621.8281 Q211.1444,621.625 211.285,621.5625 Q211.4256,621.5 211.5975,621.5 Q211.9256,621.5 212.16,621.7656 Q212.41,622.0156 212.41,622.375 Q212.41,622.7188 212.0663,623.125 Q211.5663,623.7188 210.7694,624.0469 Q209.7225,624.5 208.4413,624.5 Q206.9413,624.5 205.7381,623.9063 Q204.7694,623.4375 204.0819,622.4219 Q203.41,621.4063 203.41,620.2031 L203.41,619.1094 Q203.41,617.8594 204.0038,616.7656 Q204.6131,615.6719 205.66,615.0938 Q206.7225,614.5 207.91,614.5 Q208.6288,614.5 209.2538,614.75 Q209.8788,615 210.41,615.5 Z " fill="#000000"/><text fill="#000000" font-family="sans-serif" font-size="12" lengthAdjust="spacing" textLength="75" x="222.41" y="623.9102">PositionsBST</text><line style="stroke:#A80036;stroke-width:1.5;" x1="194.41" x2="299.41" y1="635" y2="635"/><line style="stroke:#A80036;stroke-width:1.5;" x1="194.41" x2="299.41" y1="643" y2="643"/><!--MD5=[1b046338fb2698c0e9f102f85676b8e2]
link Company to ShipsBST--><path codeLine="30" d="M122.6,273.03 C129.02,295.17 138.68,328.44 145.13,350.67 " fill="none" id="Company-ShipsBST" style="stroke:#A80036;stroke-width:1.0;"/><polygon fill="#000000" points="143.3034,316.9777,143.6052,307.4719,137.9602,309.11,143.3034,316.9777" style="stroke:#000000;stroke-width:1.0;"/><text fill="#000000" font-family="sans-serif" font-size="13" lengthAdjust="spacing" textLength="28" x="150.91" y="317.4951">uses</text><text fill="#000000" font-family="sans-serif" font-size="13" lengthAdjust="spacing" textLength="7" x="116.3776" y="294.3753">1</text><text fill="#000000" font-family="sans-serif" font-size="13" lengthAdjust="spacing" textLength="7" x="135.6243" y="340.3275">1</text><!--MD5=[b457ea32acbd230d0e22037aaab2ac98]
link ShipsBST to Ship--><path codeLine="31" d="M151.91,399.03 C151.91,421.17 151.91,454.44 151.91,476.67 " fill="none" id="ShipsBST-Ship" style="stroke:#A80036;stroke-width:1.0;"/><polygon fill="#000000" points="156.91,443.1758,159.8489,434.1307,153.9711,434.1307,156.91,443.1758" style="stroke:#000000;stroke-width:1.0;"/><text fill="#000000" font-family="sans-serif" font-size="13" lengthAdjust="spacing" textLength="30" x="165.91" y="443.4951">owns</text><text fill="#000000" font-family="sans-serif" font-size="13" lengthAdjust="spacing" textLength="7" x="144.0569" y="420.3753">1</text><text fill="#000000" font-family="sans-serif" font-size="13" lengthAdjust="spacing" textLength="20" x="129.4725" y="466.3275">1..*</text><!--MD5=[bd16fc4b2a08274ec71edc6d573c9239]
link Ship to PositionsBST--><path codeLine="32" d="M169.55,525.03 C186.51,547.17 212,580.44 229.03,602.67 " fill="none" id="Ship-PositionsBST" style="stroke:#A80036;stroke-width:1.0;"/><polygon fill="#000000" points="213.9507,568.1449,210.783,559.1774,206.117,562.752,213.9507,568.1449" style="stroke:#000000;stroke-width:1.0;"/><text fill="#000000" font-family="sans-serif" font-size="13" lengthAdjust="spacing" textLength="28" x="219.91" y="569.4951">uses</text><text fill="#000000" font-family="sans-serif" font-size="13" lengthAdjust="spacing" textLength="7" x="165.9966" y="546.3753">1</text><text fill="#000000" font-family="sans-serif" font-size="13" lengthAdjust="spacing" textLength="7" x="216.8186" y="592.3275">1</text><!--MD5=[34b80baad36b2d2bd6b6893c22d217b3]
link PositionsBST to ShipPosition--><path codeLine="33" d="M256.75,651.03 C266.21,673.17 280.43,706.44 289.94,728.67 " fill="none" id="PositionsBST-ShipPosition" style="stroke:#A80036;stroke-width:1.0;"/><polygon fill="#000000" points="282.8754,694.7733,282.0223,685.3011,276.6176,687.6115,282.8754,694.7733" style="stroke:#000000;stroke-width:1.0;"/><text fill="#000000" font-family="sans-serif" font-size="13" lengthAdjust="spacing" textLength="21" x="289.91" y="695.4951">has</text><text fill="#000000" font-family="sans-serif" font-size="13" lengthAdjust="spacing" textLength="7" x="251.2954" y="672.3753">1</text><text fill="#000000" font-family="sans-serif" font-size="13" lengthAdjust="spacing" textLength="20" x="265.0723" y="718.3275">1..*</text><!--MD5=[17525eaa20b39eaec7d1b46d54e761f1]
link ImportShipsUI to ImportShipsController--><path codeLine="34" d="M211.91,55.22 C211.91,71.48 211.91,93.32 211.91,110.62 " fill="none" id="ImportShipsUI-to-ImportShipsController" style="stroke:#A80036;stroke-width:1.0;stroke-dasharray:7.0,7.0;"/><polygon fill="#A80036" points="211.91,115.83,215.91,106.83,211.91,110.83,207.91,106.83,211.91,115.83" style="stroke:#A80036;stroke-width:1.0;"/><!--MD5=[597720547007695c4a56dcf4561abc5a]
link ImportShipsController to Company--><path codeLine="35" d="M191.08,164.22 C176.11,180.9 155.88,203.45 140.18,220.95 " fill="none" id="ImportShipsController-to-Company" style="stroke:#A80036;stroke-width:1.0;stroke-dasharray:7.0,7.0;"/><polygon fill="#A80036" points="136.7,224.83,145.6776,220.7799,140.0298,221.1001,139.7097,215.4523,136.7,224.83" style="stroke:#A80036;stroke-width:1.0;"/><!--MD5=[b685112e70b2bae6ff4c7a1f05877d86]
link ImportShipsController to ShipsBST--><path codeLine="36" d="M212.18,164.28 C211.85,199.41 208.31,267.54 187.91,321 C184.53,329.86 179.41,338.69 174.08,346.53 " fill="none" id="ImportShipsController-to-ShipsBST" style="stroke:#A80036;stroke-width:1.0;stroke-dasharray:7.0,7.0;"/><polygon fill="#A80036" points="171.11,350.78,179.5493,345.7027,173.9783,346.6845,172.9965,341.1135,171.11,350.78" style="stroke:#A80036;stroke-width:1.0;"/><!--MD5=[18af1f6827f6d658162bd46cd3a2d037]
link ImportShipsController to Ship--><path codeLine="37" d="M135.31,163.11 C105.07,176 73.42,195.69 55.91,225 C6,308.57 85.41,421.94 127.9,473.05 " fill="none" id="ImportShipsController-to-Ship" style="stroke:#A80036;stroke-width:1.0;stroke-dasharray:7.0,7.0;"/><polygon fill="#A80036" points="131.14,476.91,128.4339,467.4402,127.9321,473.0747,122.2975,472.5729,131.14,476.91" style="stroke:#A80036;stroke-width:1.0;"/><!--MD5=[1ee6c4023dc1309e5ab49abb2b5c7ab5]
link ImportShipsController to PositionsBST--><path codeLine="38" d="M238.75,164.04 C258.86,183.98 282.91,214.78 282.91,248 C282.91,248 282.91,248 282.91,502 C282.91,536.05 270.24,573.34 259.93,598.04 " fill="none" id="ImportShipsController-to-PositionsBST" style="stroke:#A80036;stroke-width:1.0;stroke-dasharray:7.0,7.0;"/><polygon fill="#A80036" points="257.9,602.81,265.1042,596.0944,259.8575,598.2091,257.7428,592.9624,257.9,602.81" style="stroke:#A80036;stroke-width:1.0;"/><!--MD5=[b099b2e39b9fe30355e18cd0b2ddc868]
link ImportShipsController to ShipPosition--><path codeLine="39" d="M281.24,164.08 C317.29,180.91 353.91,207.87 353.91,248 C353.91,248 353.91,248 353.91,628 C353.91,663.37 335.21,700.04 319.82,724.24 " fill="none" id="ImportShipsController-to-ShipPosition" style="stroke:#A80036;stroke-width:1.0;stroke-dasharray:7.0,7.0;"/><polygon fill="#A80036" points="316.99,728.61,325.2345,723.2222,319.7039,724.4106,318.5155,718.88,316.99,728.61" style="stroke:#A80036;stroke-width:1.0;"/><!--MD5=[e46ccc1e9ce8efa54dda6c6ada6faf6e]
@startuml

skinparam classAttributeIconSize 0

class ImportShipsUI {}

class ImportShipsController {

}

class Company {

}

class Ship {

}

class ShipPosition {

}

class ShipsBST {

}

class PositionsBST {

}

Company "1" - - "1" ShipsBST : uses >
ShipsBST "1" - - "1..*" Ship : owns >
Ship "1" - - "1" PositionsBST : uses >
PositionsBST "1" - - "1..*" ShipPosition : has >
ImportShipsUI ..> ImportShipsController
ImportShipsController ..> Company
ImportShipsController ..> ShipsBST
ImportShipsController ..> Ship
ImportShipsController ..> PositionsBST
ImportShipsController ..> ShipPosition


@enduml

PlantUML version 1.2021.11(Sat Oct 02 14:26:11 BST 2021)
(GPL source distribution)
Java Runtime: OpenJDK Runtime Environment
JVM: OpenJDK 64-Bit Server VM
Default Encoding: Cp1252
Language: pt
Country: PT
--></g></svg>