<?xml version="1.0" encoding="UTF-8" standalone="no"?><svg xmlns="http://www.w3.org/2000/svg" xmlns:xlink="http://www.w3.org/1999/xlink" contentScriptType="application/ecmascript" contentStyleType="text/css" height="500px" preserveAspectRatio="none" style="width:284px;height:500px;background:#FFFFFF;" version="1.1" viewBox="0 0 284 500" width="284px" zoomAndPan="magnify"><defs><filter height="300%" id="fk5x4py01kdge" width="300%" x="-1" y="-1"><feGaussianBlur result="blurOut" stdDeviation="2.0"/><feColorMatrix in="blurOut" result="blurOut2" type="matrix" values="0 0 0 0 0 0 0 0 0 0 0 0 0 0 0 0 0 0 .4 0"/><feOffset dx="4.0" dy="4.0" in="blurOut2" result="blurOut3"/><feBlend in="SourceGraphic" in2="blurOut3" mode="normal"/></filter></defs><g><!--MD5=[ddaf6f62b0bc30921877ec9fb9463c9f]
class TrafficManager--><rect codeLine="4" fill="#FEFECE" filter="url(#fk5x4py01kdge)" height="61.8359" id="TrafficManager" style="stroke:#A80036;stroke-width:1.5;" width="113" x="20.5" y="7"/><ellipse cx="35.5" cy="23" fill="#ADD1B2" rx="11" ry="11" style="stroke:#A80036;stroke-width:1.0;"/><path d="M37.5,19.5 Q37.7031,19 37.9375,18.75 Q38.1719,18.5 38.4375,18.5 Q38.9063,18.5 39.2031,18.7813 Q39.5,19.0625 39.5,19.7188 L39.5,21.2813 Q39.5,21.9375 39.2188,22.2188 Q38.9375,22.5 38.5,22.5 Q38.1094,22.5 37.8594,22.3281 Q37.6094,22.1563 37.5,21.7031 Q37.4531,21.3906 37.2813,21.2188 Q36.9688,20.8906 36.4063,20.7031 Q35.8438,20.5 35.2813,20.5 Q34.5781,20.5 33.9844,20.7813 Q33.4063,21.0625 32.9531,21.6875 Q32.5,22.3125 32.5,23.1719 L32.5,24.0938 Q32.5,25.125 33.3438,25.8125 Q34.1875,26.5 35.6875,26.5 Q36.5781,26.5 37.2031,26.2969 Q37.5625,26.1875 37.9688,25.8281 Q38.2344,25.625 38.375,25.5625 Q38.5156,25.5 38.6875,25.5 Q39.0156,25.5 39.25,25.7656 Q39.5,26.0156 39.5,26.375 Q39.5,26.7188 39.1563,27.125 Q38.6563,27.7188 37.8594,28.0469 Q36.8125,28.5 35.5313,28.5 Q34.0313,28.5 32.8281,27.9063 Q31.8594,27.4375 31.1719,26.4219 Q30.5,25.4063 30.5,24.2031 L30.5,23.1094 Q30.5,21.8594 31.0938,20.7656 Q31.7031,19.6719 32.75,19.0938 Q33.8125,18.5 35,18.5 Q35.7188,18.5 36.3438,18.75 Q36.9688,19 37.5,19.5 Z " fill="#000000"/><text fill="#000000" font-family="sans-serif" font-size="12" lengthAdjust="spacing" textLength="81" x="49.5" y="27.9102">TrafficManager</text><line style="stroke:#A80036;stroke-width:1.5;" x1="21.5" x2="132.5" y1="39" y2="39"/><text fill="#000000" font-family="sans-serif" font-size="11" lengthAdjust="spacing" textLength="30" x="26.5" y="54.4189">-name</text><line style="stroke:#A80036;stroke-width:1.5;" x1="21.5" x2="132.5" y1="60.8359" y2="60.8359"/><!--MD5=[02e4b9b7573f1156f41e60aa5b4e25a4]
class Company--><rect codeLine="8" fill="#FEFECE" filter="url(#fk5x4py01kdge)" height="48" id="Company" style="stroke:#A80036;stroke-width:1.5;" width="85" x="168.5" y="14"/><ellipse cx="183.5" cy="30" fill="#ADD1B2" rx="11" ry="11" style="stroke:#A80036;stroke-width:1.0;"/><path d="M185.5,26.5 Q185.7031,26 185.9375,25.75 Q186.1719,25.5 186.4375,25.5 Q186.9063,25.5 187.2031,25.7813 Q187.5,26.0625 187.5,26.7188 L187.5,28.2813 Q187.5,28.9375 187.2188,29.2188 Q186.9375,29.5 186.5,29.5 Q186.1094,29.5 185.8594,29.3281 Q185.6094,29.1563 185.5,28.7031 Q185.4531,28.3906 185.2813,28.2188 Q184.9688,27.8906 184.4063,27.7031 Q183.8438,27.5 183.2813,27.5 Q182.5781,27.5 181.9844,27.7813 Q181.4063,28.0625 180.9531,28.6875 Q180.5,29.3125 180.5,30.1719 L180.5,31.0938 Q180.5,32.125 181.3438,32.8125 Q182.1875,33.5 183.6875,33.5 Q184.5781,33.5 185.2031,33.2969 Q185.5625,33.1875 185.9688,32.8281 Q186.2344,32.625 186.375,32.5625 Q186.5156,32.5 186.6875,32.5 Q187.0156,32.5 187.25,32.7656 Q187.5,33.0156 187.5,33.375 Q187.5,33.7188 187.1563,34.125 Q186.6563,34.7188 185.8594,35.0469 Q184.8125,35.5 183.5313,35.5 Q182.0313,35.5 180.8281,34.9063 Q179.8594,34.4375 179.1719,33.4219 Q178.5,32.4063 178.5,31.2031 L178.5,30.1094 Q178.5,28.8594 179.0938,27.7656 Q179.7031,26.6719 180.75,26.0938 Q181.8125,25.5 183,25.5 Q183.7188,25.5 184.3438,25.75 Q184.9688,26 185.5,26.5 Z " fill="#000000"/><text fill="#000000" font-family="sans-serif" font-size="12" lengthAdjust="spacing" textLength="53" x="197.5" y="34.9102">Company</text><line style="stroke:#A80036;stroke-width:1.5;" x1="169.5" x2="252.5" y1="46" y2="46"/><line style="stroke:#A80036;stroke-width:1.5;" x1="169.5" x2="252.5" y1="54" y2="54"/><!--MD5=[0dc7f2ddb409b58bcf52b12238c25399]
class Ship--><rect codeLine="10" fill="#FEFECE" filter="url(#fk5x4py01kdge)" height="117.1797" id="Ship" style="stroke:#A80036;stroke-width:1.5;" width="73" x="107.5" y="147"/><ellipse cx="129.7" cy="163" fill="#ADD1B2" rx="11" ry="11" style="stroke:#A80036;stroke-width:1.0;"/><path d="M131.7,159.5 Q131.9031,159 132.1375,158.75 Q132.3719,158.5 132.6375,158.5 Q133.1063,158.5 133.4031,158.7813 Q133.7,159.0625 133.7,159.7188 L133.7,161.2813 Q133.7,161.9375 133.4188,162.2188 Q133.1375,162.5 132.7,162.5 Q132.3094,162.5 132.0594,162.3281 Q131.8094,162.1563 131.7,161.7031 Q131.6531,161.3906 131.4813,161.2188 Q131.1688,160.8906 130.6063,160.7031 Q130.0438,160.5 129.4813,160.5 Q128.7781,160.5 128.1844,160.7813 Q127.6062,161.0625 127.1531,161.6875 Q126.7,162.3125 126.7,163.1719 L126.7,164.0938 Q126.7,165.125 127.5437,165.8125 Q128.3875,166.5 129.8875,166.5 Q130.7781,166.5 131.4031,166.2969 Q131.7625,166.1875 132.1688,165.8281 Q132.4344,165.625 132.575,165.5625 Q132.7156,165.5 132.8875,165.5 Q133.2156,165.5 133.45,165.7656 Q133.7,166.0156 133.7,166.375 Q133.7,166.7188 133.3563,167.125 Q132.8563,167.7188 132.0594,168.0469 Q131.0125,168.5 129.7313,168.5 Q128.2313,168.5 127.0281,167.9063 Q126.0594,167.4375 125.3719,166.4219 Q124.7,165.4063 124.7,164.2031 L124.7,163.1094 Q124.7,161.8594 125.2937,160.7656 Q125.9031,159.6719 126.95,159.0938 Q128.0125,158.5 129.2,158.5 Q129.9188,158.5 130.5438,158.75 Q131.1688,159 131.7,159.5 Z " fill="#000000"/><text fill="#000000" font-family="sans-serif" font-size="12" lengthAdjust="spacing" textLength="25" x="145.3" y="167.9102">Ship</text><line style="stroke:#A80036;stroke-width:1.5;" x1="108.5" x2="179.5" y1="179" y2="179"/><text fill="#000000" font-family="sans-serif" font-size="11" lengthAdjust="spacing" textLength="61" x="113.5" y="194.4189">-mmmsiCode</text><text fill="#000000" font-family="sans-serif" font-size="11" lengthAdjust="spacing" textLength="45" x="113.5" y="208.2549">-imoCode</text><text fill="#000000" font-family="sans-serif" font-size="11" lengthAdjust="spacing" textLength="49" x="113.5" y="222.0908">-callSignId</text><text fill="#000000" font-family="sans-serif" font-size="11" lengthAdjust="spacing" textLength="51" x="113.5" y="235.9268">-shipName</text><text fill="#000000" font-family="sans-serif" font-size="11" lengthAdjust="spacing" textLength="27" x="113.5" y="249.7627">-draft</text><line style="stroke:#A80036;stroke-width:1.5;" x1="108.5" x2="179.5" y1="256.1797" y2="256.1797"/><!--MD5=[cf9c7d7c3da40397ddde4f51b7097da6]
class VesselType--><rect codeLine="18" fill="#FEFECE" filter="url(#fk5x4py01kdge)" height="103.3438" id="VesselType" style="stroke:#A80036;stroke-width:1.5;" width="126" x="7" y="363"/><ellipse cx="35.5" cy="379" fill="#ADD1B2" rx="11" ry="11" style="stroke:#A80036;stroke-width:1.0;"/><path d="M37.5,375.5 Q37.7031,375 37.9375,374.75 Q38.1719,374.5 38.4375,374.5 Q38.9063,374.5 39.2031,374.7813 Q39.5,375.0625 39.5,375.7188 L39.5,377.2813 Q39.5,377.9375 39.2188,378.2188 Q38.9375,378.5 38.5,378.5 Q38.1094,378.5 37.8594,378.3281 Q37.6094,378.1563 37.5,377.7031 Q37.4531,377.3906 37.2813,377.2188 Q36.9688,376.8906 36.4063,376.7031 Q35.8438,376.5 35.2813,376.5 Q34.5781,376.5 33.9844,376.7813 Q33.4063,377.0625 32.9531,377.6875 Q32.5,378.3125 32.5,379.1719 L32.5,380.0938 Q32.5,381.125 33.3438,381.8125 Q34.1875,382.5 35.6875,382.5 Q36.5781,382.5 37.2031,382.2969 Q37.5625,382.1875 37.9688,381.8281 Q38.2344,381.625 38.375,381.5625 Q38.5156,381.5 38.6875,381.5 Q39.0156,381.5 39.25,381.7656 Q39.5,382.0156 39.5,382.375 Q39.5,382.7188 39.1563,383.125 Q38.6563,383.7188 37.8594,384.0469 Q36.8125,384.5 35.5313,384.5 Q34.0313,384.5 32.8281,383.9063 Q31.8594,383.4375 31.1719,382.4219 Q30.5,381.4063 30.5,380.2031 L30.5,379.1094 Q30.5,377.8594 31.0938,376.7656 Q31.7031,375.6719 32.75,375.0938 Q33.8125,374.5 35,374.5 Q35.7188,374.5 36.3438,374.75 Q36.9688,375 37.5,375.5 Z " fill="#000000"/><text fill="#000000" font-family="sans-serif" font-size="12" lengthAdjust="spacing" textLength="64" x="52.5" y="383.9102">VesselType</text><line style="stroke:#A80036;stroke-width:1.5;" x1="8" x2="132" y1="395" y2="395"/><text fill="#000000" font-family="sans-serif" font-size="11" lengthAdjust="spacing" textLength="114" x="13" y="410.4189">VesselTypeDesignation</text><text fill="#000000" font-family="sans-serif" font-size="11" lengthAdjust="spacing" textLength="33" x="13" y="424.2549">Length</text><text fill="#000000" font-family="sans-serif" font-size="11" lengthAdjust="spacing" textLength="27" x="13" y="438.0908">Width</text><text fill="#000000" font-family="sans-serif" font-size="11" lengthAdjust="spacing" textLength="62" x="13" y="451.9268">maxCapacity</text><line style="stroke:#A80036;stroke-width:1.5;" x1="8" x2="132" y1="458.3438" y2="458.3438"/><!--MD5=[1c0c3765e68dc4575d559b566278b914]
class ShipPosition--><rect codeLine="25" fill="#FEFECE" filter="url(#fk5x4py01kdge)" height="144.8516" id="ShipPosition" style="stroke:#A80036;stroke-width:1.5;" width="102" x="168" y="342"/><ellipse cx="183" cy="358" fill="#ADD1B2" rx="11" ry="11" style="stroke:#A80036;stroke-width:1.0;"/><path d="M185,354.5 Q185.2031,354 185.4375,353.75 Q185.6719,353.5 185.9375,353.5 Q186.4063,353.5 186.7031,353.7813 Q187,354.0625 187,354.7188 L187,356.2813 Q187,356.9375 186.7188,357.2188 Q186.4375,357.5 186,357.5 Q185.6094,357.5 185.3594,357.3281 Q185.1094,357.1563 185,356.7031 Q184.9531,356.3906 184.7813,356.2188 Q184.4688,355.8906 183.9063,355.7031 Q183.3438,355.5 182.7813,355.5 Q182.0781,355.5 181.4844,355.7813 Q180.9063,356.0625 180.4531,356.6875 Q180,357.3125 180,358.1719 L180,359.0938 Q180,360.125 180.8438,360.8125 Q181.6875,361.5 183.1875,361.5 Q184.0781,361.5 184.7031,361.2969 Q185.0625,361.1875 185.4688,360.8281 Q185.7344,360.625 185.875,360.5625 Q186.0156,360.5 186.1875,360.5 Q186.5156,360.5 186.75,360.7656 Q187,361.0156 187,361.375 Q187,361.7188 186.6563,362.125 Q186.1563,362.7188 185.3594,363.0469 Q184.3125,363.5 183.0313,363.5 Q181.5313,363.5 180.3281,362.9063 Q179.3594,362.4375 178.6719,361.4219 Q178,360.4063 178,359.2031 L178,358.1094 Q178,356.8594 178.5938,355.7656 Q179.2031,354.6719 180.25,354.0938 Q181.3125,353.5 182.5,353.5 Q183.2188,353.5 183.8438,353.75 Q184.4688,354 185,354.5 Z " fill="#000000"/><text fill="#000000" font-family="sans-serif" font-size="12" lengthAdjust="spacing" textLength="70" x="197" y="362.9102">ShipPosition</text><line style="stroke:#A80036;stroke-width:1.5;" x1="169" x2="269" y1="374" y2="374"/><text fill="#000000" font-family="sans-serif" font-size="11" lengthAdjust="spacing" textLength="72" x="174" y="389.4189">-baseDateTime</text><text fill="#000000" font-family="sans-serif" font-size="11" lengthAdjust="spacing" textLength="38" x="174" y="403.2549">-latitude</text><text fill="#000000" font-family="sans-serif" font-size="11" lengthAdjust="spacing" textLength="47" x="174" y="417.0908">-longitude</text><text fill="#000000" font-family="sans-serif" font-size="11" lengthAdjust="spacing" textLength="22" x="174" y="430.9268">-sog</text><text fill="#000000" font-family="sans-serif" font-size="11" lengthAdjust="spacing" textLength="22" x="174" y="444.7627">-cog</text><text fill="#000000" font-family="sans-serif" font-size="11" lengthAdjust="spacing" textLength="42" x="174" y="458.5986">-heading</text><text fill="#000000" font-family="sans-serif" font-size="11" lengthAdjust="spacing" textLength="59" x="174" y="472.4346">-transceiver</text><line style="stroke:#A80036;stroke-width:1.5;" x1="169" x2="269" y1="478.8516" y2="478.8516"/><!--MD5=[37a14a5de6d6fd738aee271300f4b5c8]
link Company to Ship--><path codeLine="35" d="M201.68,62.01 C192.84,83.86 179.18,117.61 167.37,146.78 " fill="none" id="Company-Ship" style="stroke:#A80036;stroke-width:1.0;"/><polygon fill="#000000" points="188.1241,112.8105,194.2419,105.5288,188.7934,103.3236,188.1241,112.8105" style="stroke:#000000;stroke-width:1.0;"/><text fill="#000000" font-family="sans-serif" font-size="13" lengthAdjust="spacing" textLength="30" x="199" y="113.4951">owns</text><text fill="#000000" font-family="sans-serif" font-size="13" lengthAdjust="spacing" textLength="7" x="191.5551" y="83.3504">1</text><text fill="#000000" font-family="sans-serif" font-size="13" lengthAdjust="spacing" textLength="20" x="148.9995" y="136.1541">1..*</text><!--MD5=[40e2b5717560220ad35e84810a8f1b44]
link TrafficManager to Ship--><path codeLine="36" d="M89.29,69.36 C98.05,91 110.11,120.78 120.67,146.88 " fill="none" id="TrafficManager-Ship" style="stroke:#A80036;stroke-width:1.0;"/><polygon fill="#000000" points="115.8761,112.8105,115.2064,103.3235,109.758,105.529,115.8761,112.8105" style="stroke:#000000;stroke-width:1.0;"/><text fill="#000000" font-family="sans-serif" font-size="13" lengthAdjust="spacing" textLength="43" x="123" y="113.4951">imports</text><text fill="#000000" font-family="sans-serif" font-size="13" lengthAdjust="spacing" textLength="7" x="83.9656" y="90.4073">1</text><text fill="#000000" font-family="sans-serif" font-size="13" lengthAdjust="spacing" textLength="20" x="96.6079" y="136.2663">1..*</text><!--MD5=[f56e222e1748568825f030a9b791275e]
link Ship to ShipPosition--><path codeLine="37" d="M164.89,264.16 C173.6,288.21 183.81,316.39 193,341.75 " fill="none" id="Ship-ShipPosition" style="stroke:#A80036;stroke-width:1.0;"/><polygon fill="#000000" points="187.7031,307.8768,187.3853,298.3715,181.859,300.3737,187.7031,307.8768" style="stroke:#000000;stroke-width:1.0;"/><text fill="#000000" font-family="sans-serif" font-size="13" lengthAdjust="spacing" textLength="21" x="195" y="308.4951">has</text><text fill="#000000" font-family="sans-serif" font-size="13" lengthAdjust="spacing" textLength="7" x="160.0094" y="285.7898">1</text><text fill="#000000" font-family="sans-serif" font-size="13" lengthAdjust="spacing" textLength="20" x="169.2875" y="330.9436">1..*</text><!--MD5=[c324832c0212842eac80843bc02aaded]
link Ship to VesselType--><path codeLine="38" d="M123.39,264.16 C112.31,295.14 98.78,333 88.11,362.84 " fill="none" id="Ship-VesselType" style="stroke:#A80036;stroke-width:1.0;"/><polygon fill="#000000" points="115.3167,307.8839,121.1292,300.3562,115.5944,298.3774,115.3167,307.8839" style="stroke:#000000;stroke-width:1.0;"/><text fill="#000000" font-family="sans-serif" font-size="13" lengthAdjust="spacing" textLength="24" x="126" y="308.4951">is of</text><text fill="#000000" font-family="sans-serif" font-size="13" lengthAdjust="spacing" textLength="7" x="113.4516" y="285.7898">1</text><text fill="#000000" font-family="sans-serif" font-size="13" lengthAdjust="spacing" textLength="7" x="83.0732" y="352.3188">1</text><!--MD5=[b119538ba032f03e43b48bc5e8c6b266]
@startuml
'https://plantuml.com/class-diagram
skinparam classAttributeIconSize 0

class TrafficManager{
    -name
}

class Company{}

class Ship {
    -mmmsiCode /'MMSI - 1'/
    -imoCode /'IMO - 9'/
    -callSignId /'CallSign - 10'/
    -shipName /'VesselName - 8'/
    -draft /'Draft - 14'/
}

class VesselType{
    VesselTypeDesignation /'VesselType - 11'/
    Length /'Length - 12'/
    Width /'Width - 13'/
    maxCapacity /'Cargo - 15'/
}

class ShipPosition {
    -baseDateTime /'BaseDateTime - 2'/
    -latitude /'LAT - 3'/
    -longitude /'LON - 4'/
    -sog /'SOG - 5'/
    -cog /'COG - 6'/
    -heading /'Heading - 7'/
    -transceiver /'TranscieverClass - 16'/
}

Company "1" - - "1..*" Ship : owns >
TrafficManager "1" - - "1..*" Ship : imports >
Ship "1" - - "1..*" ShipPosition : has >
Ship "1" - - "1" VesselType : is of >

@enduml

@startuml
skinparam classAttributeIconSize 0

class TrafficManager{
    -name
}

class Company{}

class Ship {
    -mmmsiCode 
    -imoCode 
    -callSignId 
    -shipName 
    -draft 
}

class VesselType{
    VesselTypeDesignation 
    Length 
    Width 
    maxCapacity 
}

class ShipPosition {
    -baseDateTime 
    -latitude 
    -longitude 
    -sog 
    -cog 
    -heading 
    -transceiver 
}

Company "1" - - "1..*" Ship : owns >
TrafficManager "1" - - "1..*" Ship : imports >
Ship "1" - - "1..*" ShipPosition : has >
Ship "1" - - "1" VesselType : is of >

@enduml

PlantUML version 1.2021.11(Sat Oct 02 14:26:11 BST 2021)
(GPL source distribution)
Java Runtime: OpenJDK Runtime Environment
JVM: OpenJDK 64-Bit Server VM
Default Encoding: Cp1252
Language: pt
Country: PT
--></g></svg>