<?xml version="1.0" encoding="UTF-8" standalone="no"?><svg xmlns="http://www.w3.org/2000/svg" xmlns:xlink="http://www.w3.org/1999/xlink" contentScriptType="application/ecmascript" contentStyleType="text/css" height="476px" preserveAspectRatio="none" style="width:269px;height:476px;background:#FFFFFF;" version="1.1" viewBox="0 0 269 476" width="269px" zoomAndPan="magnify"><defs><filter height="300%" id="fwral0z7jevto" width="300%" x="-1" y="-1"><feGaussianBlur result="blurOut" stdDeviation="2.0"/><feColorMatrix in="blurOut" result="blurOut2" type="matrix" values="0 0 0 0 0 0 0 0 0 0 0 0 0 0 0 0 0 0 .4 0"/><feOffset dx="4.0" dy="4.0" in="blurOut2" result="blurOut3"/><feBlend in="SourceGraphic" in2="blurOut3" mode="normal"/></filter></defs><g><!--MD5=[ddaf6f62b0bc30921877ec9fb9463c9f]
class TrafficManager--><rect codeLine="6" fill="#FEFECE" filter="url(#fwral0z7jevto)" height="53.8359" id="TrafficManager" style="stroke:#A80036;stroke-width:1.5;" width="113" x="24.5" y="7"/><ellipse cx="39.5" cy="23" fill="#ADD1B2" rx="11" ry="11" style="stroke:#A80036;stroke-width:1.0;"/><path d="M41.5,19.5 Q41.7031,19 41.9375,18.75 Q42.1719,18.5 42.4375,18.5 Q42.9063,18.5 43.2031,18.7813 Q43.5,19.0625 43.5,19.7188 L43.5,21.2813 Q43.5,21.9375 43.2188,22.2188 Q42.9375,22.5 42.5,22.5 Q42.1094,22.5 41.8594,22.3281 Q41.6094,22.1563 41.5,21.7031 Q41.4531,21.3906 41.2813,21.2188 Q40.9688,20.8906 40.4063,20.7031 Q39.8438,20.5 39.2813,20.5 Q38.5781,20.5 37.9844,20.7813 Q37.4063,21.0625 36.9531,21.6875 Q36.5,22.3125 36.5,23.1719 L36.5,24.0938 Q36.5,25.125 37.3438,25.8125 Q38.1875,26.5 39.6875,26.5 Q40.5781,26.5 41.2031,26.2969 Q41.5625,26.1875 41.9688,25.8281 Q42.2344,25.625 42.375,25.5625 Q42.5156,25.5 42.6875,25.5 Q43.0156,25.5 43.25,25.7656 Q43.5,26.0156 43.5,26.375 Q43.5,26.7188 43.1563,27.125 Q42.6563,27.7188 41.8594,28.0469 Q40.8125,28.5 39.5313,28.5 Q38.0313,28.5 36.8281,27.9063 Q35.8594,27.4375 35.1719,26.4219 Q34.5,25.4063 34.5,24.2031 L34.5,23.1094 Q34.5,21.8594 35.0938,20.7656 Q35.7031,19.6719 36.75,19.0938 Q37.8125,18.5 39,18.5 Q39.7188,18.5 40.3438,18.75 Q40.9688,19 41.5,19.5 Z " fill="#000000"/><text fill="#000000" font-family="sans-serif" font-size="12" lengthAdjust="spacing" textLength="81" x="53.5" y="27.9102">TrafficManager</text><line style="stroke:#A80036;stroke-width:1.5;" x1="25.5" x2="136.5" y1="39" y2="39"/><text fill="#000000" font-family="sans-serif" font-size="11" lengthAdjust="spacing" textLength="30" x="30.5" y="54.4189">-name</text><!--MD5=[02e4b9b7573f1156f41e60aa5b4e25a4]
class Company--><rect codeLine="10" fill="#FEFECE" filter="url(#fwral0z7jevto)" height="32" id="Company" style="stroke:#A80036;stroke-width:1.5;" width="85" x="170.5" y="177.5"/><ellipse cx="185.5" cy="193.5" fill="#ADD1B2" rx="11" ry="11" style="stroke:#A80036;stroke-width:1.0;"/><path d="M187.5,190 Q187.7031,189.5 187.9375,189.25 Q188.1719,189 188.4375,189 Q188.9063,189 189.2031,189.2813 Q189.5,189.5625 189.5,190.2188 L189.5,191.7813 Q189.5,192.4375 189.2188,192.7188 Q188.9375,193 188.5,193 Q188.1094,193 187.8594,192.8281 Q187.6094,192.6563 187.5,192.2031 Q187.4531,191.8906 187.2813,191.7188 Q186.9688,191.3906 186.4063,191.2031 Q185.8438,191 185.2813,191 Q184.5781,191 183.9844,191.2813 Q183.4063,191.5625 182.9531,192.1875 Q182.5,192.8125 182.5,193.6719 L182.5,194.5938 Q182.5,195.625 183.3438,196.3125 Q184.1875,197 185.6875,197 Q186.5781,197 187.2031,196.7969 Q187.5625,196.6875 187.9688,196.3281 Q188.2344,196.125 188.375,196.0625 Q188.5156,196 188.6875,196 Q189.0156,196 189.25,196.2656 Q189.5,196.5156 189.5,196.875 Q189.5,197.2188 189.1563,197.625 Q188.6563,198.2188 187.8594,198.5469 Q186.8125,199 185.5313,199 Q184.0313,199 182.8281,198.4063 Q181.8594,197.9375 181.1719,196.9219 Q180.5,195.9063 180.5,194.7031 L180.5,193.6094 Q180.5,192.3594 181.0938,191.2656 Q181.7031,190.1719 182.75,189.5938 Q183.8125,189 185,189 Q185.7188,189 186.3438,189.25 Q186.9688,189.5 187.5,190 Z " fill="#000000"/><text fill="#000000" font-family="sans-serif" font-size="12" lengthAdjust="spacing" textLength="53" x="199.5" y="198.4102">Company</text><!--MD5=[0dc7f2ddb409b58bcf52b12238c25399]
class Ship--><rect codeLine="12" fill="#FEFECE" filter="url(#fwral0z7jevto)" height="109.1797" id="Ship" style="stroke:#A80036;stroke-width:1.5;" width="63" x="49.5" y="139"/><ellipse cx="67.2" cy="155" fill="#ADD1B2" rx="11" ry="11" style="stroke:#A80036;stroke-width:1.0;"/><path d="M69.2,151.5 Q69.4031,151 69.6375,150.75 Q69.8719,150.5 70.1375,150.5 Q70.6063,150.5 70.9031,150.7813 Q71.2,151.0625 71.2,151.7188 L71.2,153.2813 Q71.2,153.9375 70.9188,154.2188 Q70.6375,154.5 70.2,154.5 Q69.8094,154.5 69.5594,154.3281 Q69.3094,154.1563 69.2,153.7031 Q69.1531,153.3906 68.9813,153.2188 Q68.6688,152.8906 68.1063,152.7031 Q67.5438,152.5 66.9813,152.5 Q66.2781,152.5 65.6844,152.7813 Q65.1063,153.0625 64.6531,153.6875 Q64.2,154.3125 64.2,155.1719 L64.2,156.0938 Q64.2,157.125 65.0438,157.8125 Q65.8875,158.5 67.3875,158.5 Q68.2781,158.5 68.9031,158.2969 Q69.2625,158.1875 69.6688,157.8281 Q69.9344,157.625 70.075,157.5625 Q70.2156,157.5 70.3875,157.5 Q70.7156,157.5 70.95,157.7656 Q71.2,158.0156 71.2,158.375 Q71.2,158.7188 70.8563,159.125 Q70.3563,159.7188 69.5594,160.0469 Q68.5125,160.5 67.2313,160.5 Q65.7313,160.5 64.5281,159.9063 Q63.5594,159.4375 62.8719,158.4219 Q62.2,157.4063 62.2,156.2031 L62.2,155.1094 Q62.2,153.8594 62.7938,152.7656 Q63.4031,151.6719 64.45,151.0938 Q65.5125,150.5 66.7,150.5 Q67.4188,150.5 68.0438,150.75 Q68.6688,151 69.2,151.5 Z " fill="#000000"/><text fill="#000000" font-family="sans-serif" font-size="12" lengthAdjust="spacing" textLength="25" x="81.8" y="159.9102">Ship</text><line style="stroke:#A80036;stroke-width:1.5;" x1="50.5" x2="111.5" y1="171" y2="171"/><text fill="#000000" font-family="sans-serif" font-size="11" lengthAdjust="spacing" textLength="36" x="55.5" y="186.4189">-mmmsi</text><text fill="#000000" font-family="sans-serif" font-size="11" lengthAdjust="spacing" textLength="20" x="55.5" y="200.2549">-imo</text><text fill="#000000" font-family="sans-serif" font-size="11" lengthAdjust="spacing" textLength="41" x="55.5" y="214.0908">-callSign</text><text fill="#000000" font-family="sans-serif" font-size="11" lengthAdjust="spacing" textLength="51" x="55.5" y="227.9268">-shipName</text><text fill="#000000" font-family="sans-serif" font-size="11" lengthAdjust="spacing" textLength="27" x="55.5" y="241.7627">-draft</text><!--MD5=[cf9c7d7c3da40397ddde4f51b7097da6]
class VesselType--><rect codeLine="22" fill="#FEFECE" filter="url(#fwral0z7jevto)" height="95.3438" id="VesselType" style="stroke:#A80036;stroke-width:1.5;" width="96" x="154" y="347"/><ellipse cx="169" cy="363" fill="#ADD1B2" rx="11" ry="11" style="stroke:#A80036;stroke-width:1.0;"/><path d="M171,359.5 Q171.2031,359 171.4375,358.75 Q171.6719,358.5 171.9375,358.5 Q172.4063,358.5 172.7031,358.7813 Q173,359.0625 173,359.7188 L173,361.2813 Q173,361.9375 172.7188,362.2188 Q172.4375,362.5 172,362.5 Q171.6094,362.5 171.3594,362.3281 Q171.1094,362.1563 171,361.7031 Q170.9531,361.3906 170.7813,361.2188 Q170.4688,360.8906 169.9063,360.7031 Q169.3438,360.5 168.7813,360.5 Q168.0781,360.5 167.4844,360.7813 Q166.9063,361.0625 166.4531,361.6875 Q166,362.3125 166,363.1719 L166,364.0938 Q166,365.125 166.8438,365.8125 Q167.6875,366.5 169.1875,366.5 Q170.0781,366.5 170.7031,366.2969 Q171.0625,366.1875 171.4688,365.8281 Q171.7344,365.625 171.875,365.5625 Q172.0156,365.5 172.1875,365.5 Q172.5156,365.5 172.75,365.7656 Q173,366.0156 173,366.375 Q173,366.7188 172.6563,367.125 Q172.1563,367.7188 171.3594,368.0469 Q170.3125,368.5 169.0313,368.5 Q167.5313,368.5 166.3281,367.9063 Q165.3594,367.4375 164.6719,366.4219 Q164,365.4063 164,364.2031 L164,363.1094 Q164,361.8594 164.5938,360.7656 Q165.2031,359.6719 166.25,359.0938 Q167.3125,358.5 168.5,358.5 Q169.2188,358.5 169.8438,358.75 Q170.4688,359 171,359.5 Z " fill="#000000"/><text fill="#000000" font-family="sans-serif" font-size="12" lengthAdjust="spacing" textLength="64" x="183" y="367.9102">VesselType</text><line style="stroke:#A80036;stroke-width:1.5;" x1="155" x2="249" y1="379" y2="379"/><text fill="#000000" font-family="sans-serif" font-size="11" lengthAdjust="spacing" textLength="69" x="160" y="394.4189">-vesselTypeID</text><text fill="#000000" font-family="sans-serif" font-size="11" lengthAdjust="spacing" textLength="33" x="160" y="408.2549">-length</text><text fill="#000000" font-family="sans-serif" font-size="11" lengthAdjust="spacing" textLength="31" x="160" y="422.0908">-width</text><text fill="#000000" font-family="sans-serif" font-size="11" lengthAdjust="spacing" textLength="66" x="160" y="435.9268">-maxCapacity</text><!--MD5=[1c0c3765e68dc4575d559b566278b914]
class ShipPosition--><rect codeLine="29" fill="#FEFECE" filter="url(#fwral0z7jevto)" height="136.8516" id="ShipPosition" style="stroke:#A80036;stroke-width:1.5;" width="102" x="7" y="326"/><ellipse cx="22" cy="342" fill="#ADD1B2" rx="11" ry="11" style="stroke:#A80036;stroke-width:1.0;"/><path d="M24,338.5 Q24.2031,338 24.4375,337.75 Q24.6719,337.5 24.9375,337.5 Q25.4063,337.5 25.7031,337.7813 Q26,338.0625 26,338.7188 L26,340.2813 Q26,340.9375 25.7188,341.2188 Q25.4375,341.5 25,341.5 Q24.6094,341.5 24.3594,341.3281 Q24.1094,341.1563 24,340.7031 Q23.9531,340.3906 23.7813,340.2188 Q23.4688,339.8906 22.9063,339.7031 Q22.3438,339.5 21.7813,339.5 Q21.0781,339.5 20.4844,339.7813 Q19.9063,340.0625 19.4531,340.6875 Q19,341.3125 19,342.1719 L19,343.0938 Q19,344.125 19.8438,344.8125 Q20.6875,345.5 22.1875,345.5 Q23.0781,345.5 23.7031,345.2969 Q24.0625,345.1875 24.4688,344.8281 Q24.7344,344.625 24.875,344.5625 Q25.0156,344.5 25.1875,344.5 Q25.5156,344.5 25.75,344.7656 Q26,345.0156 26,345.375 Q26,345.7188 25.6563,346.125 Q25.1563,346.7188 24.3594,347.0469 Q23.3125,347.5 22.0313,347.5 Q20.5313,347.5 19.3281,346.9063 Q18.3594,346.4375 17.6719,345.4219 Q17,344.4063 17,343.2031 L17,342.1094 Q17,340.8594 17.5938,339.7656 Q18.2031,338.6719 19.25,338.0938 Q20.3125,337.5 21.5,337.5 Q22.2188,337.5 22.8438,337.75 Q23.4688,338 24,338.5 Z " fill="#000000"/><text fill="#000000" font-family="sans-serif" font-size="12" lengthAdjust="spacing" textLength="70" x="36" y="346.9102">ShipPosition</text><line style="stroke:#A80036;stroke-width:1.5;" x1="8" x2="108" y1="358" y2="358"/><text fill="#000000" font-family="sans-serif" font-size="11" lengthAdjust="spacing" textLength="72" x="13" y="373.4189">-baseDateTime</text><text fill="#000000" font-family="sans-serif" font-size="11" lengthAdjust="spacing" textLength="38" x="13" y="387.2549">-latitude</text><text fill="#000000" font-family="sans-serif" font-size="11" lengthAdjust="spacing" textLength="47" x="13" y="401.0908">-longitude</text><text fill="#000000" font-family="sans-serif" font-size="11" lengthAdjust="spacing" textLength="22" x="13" y="414.9268">-sog</text><text fill="#000000" font-family="sans-serif" font-size="11" lengthAdjust="spacing" textLength="22" x="13" y="428.7627">-cog</text><text fill="#000000" font-family="sans-serif" font-size="11" lengthAdjust="spacing" textLength="42" x="13" y="442.5986">-heading</text><text fill="#000000" font-family="sans-serif" font-size="11" lengthAdjust="spacing" textLength="59" x="13" y="456.4346">-transceiver</text><!--MD5=[9d91f1df0c90718d85872c4ac6e523ca]
link Company to VesselType--><path codeLine="39" d="M212.16,209.78 C210.56,238.73 207.03,302.59 204.58,346.83 " fill="none" id="Company-VesselType" style="stroke:#A80036;stroke-width:1.0;"/><polygon fill="#000000" points="212.7239,292.1682,216.1578,283.2992,210.2889,282.9746,212.7239,292.1682" style="stroke:#000000;stroke-width:1.0;"/><text fill="#000000" font-family="sans-serif" font-size="13" lengthAdjust="spacing" textLength="30" x="222" y="292.4951">owns</text><text fill="#000000" font-family="sans-serif" font-size="13" lengthAdjust="spacing" textLength="7" x="203.7766" y="231.0704">1</text><text fill="#000000" font-family="sans-serif" font-size="13" lengthAdjust="spacing" textLength="20" x="183.4902" y="336.1492">1..*</text><!--MD5=[c324832c0212842eac80843bc02aaded]
link Ship to VesselType--><path codeLine="40" d="M112.63,246.52 C131.54,277.62 155.36,316.79 173.65,346.87 " fill="none" id="Ship-VesselType" style="stroke:#A80036;stroke-width:1.0;"/><polygon fill="#000000" points="148.5978,291.448,146.4095,282.1926,141.3872,285.2465,148.5978,291.448" style="stroke:#000000;stroke-width:1.0;"/><text fill="#000000" font-family="sans-serif" font-size="13" lengthAdjust="spacing" textLength="24" x="155" y="292.4951">is of</text><text fill="#000000" font-family="sans-serif" font-size="13" lengthAdjust="spacing" textLength="20" x="120.5657" y="252.6134">1..*</text><text fill="#000000" font-family="sans-serif" font-size="13" lengthAdjust="spacing" textLength="7" x="161.972" y="336.195">1</text><!--MD5=[40e2b5717560220ad35e84810a8f1b44]
link TrafficManager to Ship--><path codeLine="41" d="M81,61.01 C81,82.06 81,112.43 81,138.68 " fill="none" id="TrafficManager-Ship" style="stroke:#A80036;stroke-width:1.0;"/><polygon fill="#000000" points="86,105.1758,88.9389,96.1307,83.0611,96.1307,86,105.1758" style="stroke:#000000;stroke-width:1.0;"/><text fill="#000000" font-family="sans-serif" font-size="13" lengthAdjust="spacing" textLength="43" x="95" y="105.4951">imports</text><text fill="#000000" font-family="sans-serif" font-size="13" lengthAdjust="spacing" textLength="7" x="73.2344" y="82.22">1</text><text fill="#000000" font-family="sans-serif" font-size="13" lengthAdjust="spacing" textLength="20" x="59.7188" y="128.1373">1..*</text><!--MD5=[f56e222e1748568825f030a9b791275e]
link Ship to ShipPosition--><path codeLine="42" d="M61.66,248.29 C58.89,258.06 56.48,268.24 55,278 C52.66,293.37 52.02,310.02 52.25,325.76 " fill="none" id="Ship-ShipPosition" style="stroke:#A80036;stroke-width:1.0;"/><polygon fill="#000000" points="59.3971,292.1393,63.4052,283.5146,57.5703,282.8058,59.3971,292.1393" style="stroke:#000000;stroke-width:1.0;"/><text fill="#000000" font-family="sans-serif" font-size="13" lengthAdjust="spacing" textLength="21" x="69" y="292.4951">has</text><text fill="#000000" font-family="sans-serif" font-size="13" lengthAdjust="spacing" textLength="7" x="51.7336" y="269.8411">1</text><text fill="#000000" font-family="sans-serif" font-size="13" lengthAdjust="spacing" textLength="20" x="30.6258" y="315.3671">1..*</text><!--MD5=[5aef8edb88d42c468b1f39361527dcc3]
@startuml
'https://plantuml.com/class-diagram
hide empty methods
hide empty attributes
skinparam classAttributeIconSize 0

class TrafficManager{
    -name
}

class Company{}

class Ship {
    -mmmsi /'MMSI - 1'/
    -imo /'IMO - 9'/
    -callSign /'CallSign - 10'/
    -shipName /'VesselName - 8'/
    -draft /'Draft - 14'/
    '-shipPositions /'BST que guarda Positions'/
    '-vesselType /'objeto do tipo VesselType'/
}

class VesselType{
    -vesselTypeID /'VesselType - 11'/
    -length /'Length - 12'/
    -width /'Width - 13'/
    -maxCapacity /'Cargo - 15'/
}

class ShipPosition {
    -baseDateTime /'BaseDateTime - 2'/
    -latitude /'LAT - 3'/
    -longitude /'LON - 4'/
    -sog /'SOG - 5'/
    -cog /'COG - 6'/
    -heading /'Heading - 7'/
    -transceiver /'TransceiverClass - 16'/
}

Company "1" - - "1..*" VesselType : owns >
Ship "1..*" - - "1" VesselType : is of >
TrafficManager "1" - - "1..*" Ship : imports >
Ship "1" - - "1..*" ShipPosition : has >

@enduml

@startuml
hide empty methods
hide empty attributes
skinparam classAttributeIconSize 0

class TrafficManager{
    -name
}

class Company{}

class Ship {
    -mmmsi 
    -imo 
    -callSign 
    -shipName 
    -draft 
}

class VesselType{
    -vesselTypeID 
    -length 
    -width 
    -maxCapacity 
}

class ShipPosition {
    -baseDateTime 
    -latitude 
    -longitude 
    -sog 
    -cog 
    -heading 
    -transceiver 
}

Company "1" - - "1..*" VesselType : owns >
Ship "1..*" - - "1" VesselType : is of >
TrafficManager "1" - - "1..*" Ship : imports >
Ship "1" - - "1..*" ShipPosition : has >

@enduml

PlantUML version 1.2021.11(Sat Oct 02 14:26:11 BST 2021)
(GPL source distribution)
Java Runtime: OpenJDK Runtime Environment
JVM: OpenJDK 64-Bit Server VM
Default Encoding: Cp1252
Language: pt
Country: PT
--></g></svg>