<?xml version="1.0" encoding="UTF-8" standalone="no"?><svg xmlns="http://www.w3.org/2000/svg" xmlns:xlink="http://www.w3.org/1999/xlink" contentScriptType="application/ecmascript" contentStyleType="text/css" height="1720px" preserveAspectRatio="none" style="width:751px;height:1720px;background:#FFFFFF;" version="1.1" viewBox="0 0 751 1720" width="751px" zoomAndPan="magnify"><defs><filter height="300%" id="f1p9q62pb9x0bf" width="300%" x="-1" y="-1"><feGaussianBlur result="blurOut" stdDeviation="2.0"/><feColorMatrix in="blurOut" result="blurOut2" type="matrix" values="0 0 0 0 0 0 0 0 0 0 0 0 0 0 0 0 0 0 .4 0"/><feOffset dx="4.0" dy="4.0" in="blurOut2" result="blurOut3"/><feBlend in="SourceGraphic" in2="blurOut3" mode="normal"/></filter></defs><g><!--MD5=[68985b732702cd7a8d1ae9f7e11b3260]
class ImportShipsUI--><rect codeLine="4" fill="#FEFECE" filter="url(#f1p9q62pb9x0bf)" height="48" id="ImportShipsUI" style="stroke:#A80036;stroke-width:1.5;" width="111" x="383" y="7"/><ellipse cx="398" cy="23" fill="#ADD1B2" rx="11" ry="11" style="stroke:#A80036;stroke-width:1.0;"/><path d="M400,19.5 Q400.2031,19 400.4375,18.75 Q400.6719,18.5 400.9375,18.5 Q401.4063,18.5 401.7031,18.7813 Q402,19.0625 402,19.7188 L402,21.2813 Q402,21.9375 401.7188,22.2188 Q401.4375,22.5 401,22.5 Q400.6094,22.5 400.3594,22.3281 Q400.1094,22.1563 400,21.7031 Q399.9531,21.3906 399.7813,21.2188 Q399.4688,20.8906 398.9063,20.7031 Q398.3438,20.5 397.7813,20.5 Q397.0781,20.5 396.4844,20.7813 Q395.9063,21.0625 395.4531,21.6875 Q395,22.3125 395,23.1719 L395,24.0938 Q395,25.125 395.8438,25.8125 Q396.6875,26.5 398.1875,26.5 Q399.0781,26.5 399.7031,26.2969 Q400.0625,26.1875 400.4688,25.8281 Q400.7344,25.625 400.875,25.5625 Q401.0156,25.5 401.1875,25.5 Q401.5156,25.5 401.75,25.7656 Q402,26.0156 402,26.375 Q402,26.7188 401.6563,27.125 Q401.1563,27.7188 400.3594,28.0469 Q399.3125,28.5 398.0313,28.5 Q396.5313,28.5 395.3281,27.9063 Q394.3594,27.4375 393.6719,26.4219 Q393,25.4063 393,24.2031 L393,23.1094 Q393,21.8594 393.5938,20.7656 Q394.2031,19.6719 395.25,19.0938 Q396.3125,18.5 397.5,18.5 Q398.2188,18.5 398.8438,18.75 Q399.4688,19 400,19.5 Z " fill="#000000"/><text fill="#000000" font-family="sans-serif" font-size="12" lengthAdjust="spacing" textLength="79" x="412" y="27.9102">ImportShipsUI</text><line style="stroke:#A80036;stroke-width:1.5;" x1="384" x2="493" y1="39" y2="39"/><line style="stroke:#A80036;stroke-width:1.5;" x1="384" x2="493" y1="47" y2="47"/><!--MD5=[990bef4c2f1c4f7830655fe175b8ab92]
class ImportShipsController--><rect codeLine="6" fill="#FEFECE" filter="url(#f1p9q62pb9x0bf)" height="158.6875" id="ImportShipsController" style="stroke:#A80036;stroke-width:1.5;" width="180" x="348.5" y="116"/><ellipse cx="375.65" cy="132" fill="#ADD1B2" rx="11" ry="11" style="stroke:#A80036;stroke-width:1.0;"/><path d="M377.65,128.5 Q377.8531,128 378.0875,127.75 Q378.3219,127.5 378.5875,127.5 Q379.0563,127.5 379.3531,127.7813 Q379.65,128.0625 379.65,128.7188 L379.65,130.2813 Q379.65,130.9375 379.3688,131.2188 Q379.0875,131.5 378.65,131.5 Q378.2594,131.5 378.0094,131.3281 Q377.7594,131.1563 377.65,130.7031 Q377.6031,130.3906 377.4313,130.2188 Q377.1188,129.8906 376.5563,129.7031 Q375.9938,129.5 375.4313,129.5 Q374.7281,129.5 374.1344,129.7813 Q373.5563,130.0625 373.1031,130.6875 Q372.65,131.3125 372.65,132.1719 L372.65,133.0938 Q372.65,134.125 373.4938,134.8125 Q374.3375,135.5 375.8375,135.5 Q376.7281,135.5 377.3531,135.2969 Q377.7125,135.1875 378.1188,134.8281 Q378.3844,134.625 378.525,134.5625 Q378.6656,134.5 378.8375,134.5 Q379.1656,134.5 379.4,134.7656 Q379.65,135.0156 379.65,135.375 Q379.65,135.7188 379.3063,136.125 Q378.8063,136.7188 378.0094,137.0469 Q376.9625,137.5 375.6813,137.5 Q374.1813,137.5 372.9781,136.9063 Q372.0094,136.4375 371.3219,135.4219 Q370.65,134.4063 370.65,133.2031 L370.65,132.1094 Q370.65,130.8594 371.2438,129.7656 Q371.8531,128.6719 372.9,128.0938 Q373.9625,127.5 375.15,127.5 Q375.8688,127.5 376.4938,127.75 Q377.1188,128 377.65,128.5 Z " fill="#000000"/><text fill="#000000" font-family="sans-serif" font-size="12" lengthAdjust="spacing" textLength="121" x="392.35" y="136.9102">ImportShipsController</text><line style="stroke:#A80036;stroke-width:1.5;" x1="349.5" x2="527.5" y1="148" y2="148"/><text fill="#000000" font-family="sans-serif" font-size="11" lengthAdjust="spacing" textLength="48" x="354.5" y="163.4189">-company</text><text fill="#000000" font-family="sans-serif" font-size="11" lengthAdjust="spacing" textLength="24" x="354.5" y="177.2549">-ship</text><text fill="#000000" font-family="sans-serif" font-size="11" lengthAdjust="spacing" textLength="61" x="354.5" y="191.0908">-shipPosition</text><text fill="#000000" font-family="sans-serif" font-size="11" lengthAdjust="spacing" textLength="67" x="354.5" y="204.9268">-positionsBST</text><line style="stroke:#A80036;stroke-width:1.5;" x1="349.5" x2="527.5" y1="211.3438" y2="211.3438"/><text fill="#000000" font-family="sans-serif" font-size="11" lengthAdjust="spacing" textLength="144" x="354.5" y="226.7627">-registerPosition(positionDTO)</text><text fill="#000000" font-family="sans-serif" font-size="11" lengthAdjust="spacing" textLength="168" x="354.5" y="240.5986">-createPosition(positionDTO, mmsi)</text><text fill="#000000" font-family="sans-serif" font-size="11" lengthAdjust="spacing" textLength="57" x="354.5" y="254.4346">-saveShip()</text><text fill="#000000" font-family="sans-serif" font-size="11" lengthAdjust="spacing" textLength="165" x="354.5" y="268.2705">-importShipFromFile(shipsFileDTO)</text><!--MD5=[02e4b9b7573f1156f41e60aa5b4e25a4]
class Company--><rect codeLine="17" fill="#FEFECE" filter="url(#f1p9q62pb9x0bf)" height="89.5078" id="Company" style="stroke:#A80036;stroke-width:1.5;" width="85" x="324" y="336"/><ellipse cx="339" cy="352" fill="#ADD1B2" rx="11" ry="11" style="stroke:#A80036;stroke-width:1.0;"/><path d="M341,348.5 Q341.2031,348 341.4375,347.75 Q341.6719,347.5 341.9375,347.5 Q342.4063,347.5 342.7031,347.7813 Q343,348.0625 343,348.7188 L343,350.2813 Q343,350.9375 342.7188,351.2188 Q342.4375,351.5 342,351.5 Q341.6094,351.5 341.3594,351.3281 Q341.1094,351.1563 341,350.7031 Q340.9531,350.3906 340.7813,350.2188 Q340.4688,349.8906 339.9063,349.7031 Q339.3438,349.5 338.7813,349.5 Q338.0781,349.5 337.4844,349.7813 Q336.9063,350.0625 336.4531,350.6875 Q336,351.3125 336,352.1719 L336,353.0938 Q336,354.125 336.8438,354.8125 Q337.6875,355.5 339.1875,355.5 Q340.0781,355.5 340.7031,355.2969 Q341.0625,355.1875 341.4688,354.8281 Q341.7344,354.625 341.875,354.5625 Q342.0156,354.5 342.1875,354.5 Q342.5156,354.5 342.75,354.7656 Q343,355.0156 343,355.375 Q343,355.7188 342.6563,356.125 Q342.1563,356.7188 341.3594,357.0469 Q340.3125,357.5 339.0313,357.5 Q337.5313,357.5 336.3281,356.9063 Q335.3594,356.4375 334.6719,355.4219 Q334,354.4063 334,353.2031 L334,352.1094 Q334,350.8594 334.5938,349.7656 Q335.2031,348.6719 336.25,348.0938 Q337.3125,347.5 338.5,347.5 Q339.2188,347.5 339.8438,347.75 Q340.4688,348 341,348.5 Z " fill="#000000"/><text fill="#000000" font-family="sans-serif" font-size="12" lengthAdjust="spacing" textLength="53" x="353" y="356.9102">Company</text><line style="stroke:#A80036;stroke-width:1.5;" x1="325" x2="408" y1="368" y2="368"/><text fill="#000000" font-family="sans-serif" font-size="11" lengthAdjust="spacing" textLength="59" x="330" y="383.4189">-designation</text><text fill="#000000" font-family="sans-serif" font-size="11" lengthAdjust="spacing" textLength="50" x="330" y="397.2549">-shipsBST</text><line style="stroke:#A80036;stroke-width:1.5;" x1="325" x2="408" y1="403.6719" y2="403.6719"/><text fill="#000000" font-family="sans-serif" font-size="11" lengthAdjust="spacing" textLength="64" x="330" y="419.0908">-getBstShip()</text><!--MD5=[0dc7f2ddb409b58bcf52b12238c25399]
class Ship--><rect codeLine="23" fill="#FEFECE" filter="url(#f1p9q62pb9x0bf)" height="352.3906" id="Ship" style="stroke:#A80036;stroke-width:1.5;" width="473" x="7" y="825"/><ellipse cx="226.75" cy="841" fill="#ADD1B2" rx="11" ry="11" style="stroke:#A80036;stroke-width:1.0;"/><path d="M228.75,837.5 Q228.9531,837 229.1875,836.75 Q229.4219,836.5 229.6875,836.5 Q230.1563,836.5 230.4531,836.7813 Q230.75,837.0625 230.75,837.7188 L230.75,839.2813 Q230.75,839.9375 230.4688,840.2188 Q230.1875,840.5 229.75,840.5 Q229.3594,840.5 229.1094,840.3281 Q228.8594,840.1563 228.75,839.7031 Q228.7031,839.3906 228.5313,839.2188 Q228.2188,838.8906 227.6563,838.7031 Q227.0938,838.5 226.5313,838.5 Q225.8281,838.5 225.2344,838.7813 Q224.6563,839.0625 224.2031,839.6875 Q223.75,840.3125 223.75,841.1719 L223.75,842.0938 Q223.75,843.125 224.5938,843.8125 Q225.4375,844.5 226.9375,844.5 Q227.8281,844.5 228.4531,844.2969 Q228.8125,844.1875 229.2188,843.8281 Q229.4844,843.625 229.625,843.5625 Q229.7656,843.5 229.9375,843.5 Q230.2656,843.5 230.5,843.7656 Q230.75,844.0156 230.75,844.375 Q230.75,844.7188 230.4063,845.125 Q229.9063,845.7188 229.1094,846.0469 Q228.0625,846.5 226.7813,846.5 Q225.2813,846.5 224.0781,845.9063 Q223.1094,845.4375 222.4219,844.4219 Q221.75,843.4063 221.75,842.2031 L221.75,841.1094 Q221.75,839.8594 222.3438,838.7656 Q222.9531,837.6719 224,837.0938 Q225.0625,836.5 226.25,836.5 Q226.9688,836.5 227.5938,836.75 Q228.2188,837 228.75,837.5 Z " fill="#000000"/><text fill="#000000" font-family="sans-serif" font-size="12" lengthAdjust="spacing" textLength="25" x="247.25" y="845.9102">Ship</text><line style="stroke:#A80036;stroke-width:1.5;" x1="8" x2="479" y1="857" y2="857"/><text fill="#000000" font-family="sans-serif" font-size="11" lengthAdjust="spacing" textLength="67" x="13" y="872.4189">-positionsBST</text><text fill="#000000" font-family="sans-serif" font-size="11" lengthAdjust="spacing" textLength="29" x="13" y="886.2549">-MMSI</text><text fill="#000000" font-family="sans-serif" font-size="11" lengthAdjust="spacing" textLength="63" x="13" y="900.0908">-vesselName</text><text fill="#000000" font-family="sans-serif" font-size="11" lengthAdjust="spacing" textLength="22" x="13" y="913.9268">-IMO</text><text fill="#000000" font-family="sans-serif" font-size="11" lengthAdjust="spacing" textLength="41" x="13" y="927.7627">-callSign</text><text fill="#000000" font-family="sans-serif" font-size="11" lengthAdjust="spacing" textLength="69" x="13" y="941.5986">-vesselTypeID</text><text fill="#000000" font-family="sans-serif" font-size="11" lengthAdjust="spacing" textLength="33" x="13" y="955.4346">-length</text><text fill="#000000" font-family="sans-serif" font-size="11" lengthAdjust="spacing" textLength="31" x="13" y="969.2705">-width</text><text fill="#000000" font-family="sans-serif" font-size="11" lengthAdjust="spacing" textLength="27" x="13" y="983.1064">-draft</text><text fill="#000000" font-family="sans-serif" font-size="11" lengthAdjust="spacing" textLength="32" x="13" y="996.9424">-cargo</text><line style="stroke:#A80036;stroke-width:1.5;" x1="8" x2="479" y1="1003.3594" y2="1003.3594"/><text fill="#000000" font-family="sans-serif" font-size="11" lengthAdjust="spacing" textLength="461" x="13" y="1018.7783">-Ship(positionsBST, MMSI, vesselName, IMO, callSign, vesselTypeID, length, width, draft, cargo)</text><text fill="#000000" font-family="sans-serif" font-size="11" lengthAdjust="spacing" textLength="167" x="13" y="1032.6143">-checkPositionsBST(positionsBST)</text><text fill="#000000" font-family="sans-serif" font-size="11" lengthAdjust="spacing" textLength="105" x="13" y="1046.4502">-checkMMSI(int MMSI)</text><text fill="#000000" font-family="sans-serif" font-size="11" lengthAdjust="spacing" textLength="161" x="13" y="1060.2861">-checkVesselName(vesselName)</text><text fill="#000000" font-family="sans-serif" font-size="11" lengthAdjust="spacing" textLength="77" x="13" y="1074.1221">-checkIMO(IMO)</text><text fill="#000000" font-family="sans-serif" font-size="11" lengthAdjust="spacing" textLength="103" x="13" y="1087.958">-checkLength(length)</text><text fill="#000000" font-family="sans-serif" font-size="11" lengthAdjust="spacing" textLength="95" x="13" y="1101.7939">-checkWidth(width)</text><text fill="#000000" font-family="sans-serif" font-size="11" lengthAdjust="spacing" textLength="88" x="13" y="1115.6299">-checkDraft(draft)</text><text fill="#000000" font-family="sans-serif" font-size="11" lengthAdjust="spacing" textLength="98" x="13" y="1129.4658">-checkCargo(cargo)</text><text fill="#000000" font-family="sans-serif" font-size="11" lengthAdjust="spacing" textLength="52" x="13" y="1143.3018">-getMMSI()</text><text fill="#000000" font-family="sans-serif" font-size="11" lengthAdjust="spacing" textLength="153" x="13" y="1157.1377">-setPositionsBST(positionsBST)</text><text fill="#000000" font-family="sans-serif" font-size="11" lengthAdjust="spacing" textLength="134" x="13" y="1170.9736">-equals(Object otherObject)</text><!--MD5=[1c0c3765e68dc4575d559b566278b914]
class ShipPosition--><rect codeLine="48" fill="#FEFECE" filter="url(#f1p9q62pb9x0bf)" height="283.2109" id="ShipPosition" style="stroke:#A80036;stroke-width:1.5;" width="397" x="340" y="1423"/><ellipse cx="499.25" cy="1439" fill="#ADD1B2" rx="11" ry="11" style="stroke:#A80036;stroke-width:1.0;"/><path d="M501.25,1435.5 Q501.4531,1435 501.6875,1434.75 Q501.9219,1434.5 502.1875,1434.5 Q502.6563,1434.5 502.9531,1434.7813 Q503.25,1435.0625 503.25,1435.7188 L503.25,1437.2813 Q503.25,1437.9375 502.9688,1438.2188 Q502.6875,1438.5 502.25,1438.5 Q501.8594,1438.5 501.6094,1438.3281 Q501.3594,1438.1563 501.25,1437.7031 Q501.2031,1437.3906 501.0313,1437.2188 Q500.7188,1436.8906 500.1563,1436.7031 Q499.5938,1436.5 499.0313,1436.5 Q498.3281,1436.5 497.7344,1436.7813 Q497.1563,1437.0625 496.7031,1437.6875 Q496.25,1438.3125 496.25,1439.1719 L496.25,1440.0938 Q496.25,1441.125 497.0938,1441.8125 Q497.9375,1442.5 499.4375,1442.5 Q500.3281,1442.5 500.9531,1442.2969 Q501.3125,1442.1875 501.7188,1441.8281 Q501.9844,1441.625 502.125,1441.5625 Q502.2656,1441.5 502.4375,1441.5 Q502.7656,1441.5 503,1441.7656 Q503.25,1442.0156 503.25,1442.375 Q503.25,1442.7188 502.9063,1443.125 Q502.4063,1443.7188 501.6094,1444.0469 Q500.5625,1444.5 499.2813,1444.5 Q497.7813,1444.5 496.5781,1443.9063 Q495.6094,1443.4375 494.9219,1442.4219 Q494.25,1441.4063 494.25,1440.2031 L494.25,1439.1094 Q494.25,1437.8594 494.8438,1436.7656 Q495.4531,1435.6719 496.5,1435.0938 Q497.5625,1434.5 498.75,1434.5 Q499.4688,1434.5 500.0938,1434.75 Q500.7188,1435 501.25,1435.5 Z " fill="#000000"/><text fill="#000000" font-family="sans-serif" font-size="12" lengthAdjust="spacing" textLength="70" x="519.75" y="1443.9102">ShipPosition</text><line style="stroke:#A80036;stroke-width:1.5;" x1="341" x2="736" y1="1455" y2="1455"/><text fill="#000000" font-family="sans-serif" font-size="11" lengthAdjust="spacing" textLength="29" x="346" y="1470.4189">-MMSI</text><text fill="#000000" font-family="sans-serif" font-size="11" lengthAdjust="spacing" textLength="72" x="346" y="1484.2549">-baseDateTime</text><text fill="#000000" font-family="sans-serif" font-size="11" lengthAdjust="spacing" textLength="15" x="346" y="1498.0908">-lat</text><text fill="#000000" font-family="sans-serif" font-size="11" lengthAdjust="spacing" textLength="18" x="346" y="1511.9268">-lon</text><text fill="#000000" font-family="sans-serif" font-size="11" lengthAdjust="spacing" textLength="22" x="346" y="1525.7627">-sog</text><text fill="#000000" font-family="sans-serif" font-size="11" lengthAdjust="spacing" textLength="22" x="346" y="1539.5986">-cog</text><text fill="#000000" font-family="sans-serif" font-size="11" lengthAdjust="spacing" textLength="42" x="346" y="1553.4346">-heading</text><text fill="#000000" font-family="sans-serif" font-size="11" lengthAdjust="spacing" textLength="86" x="346" y="1567.2705">-transcieverClass</text><line style="stroke:#A80036;stroke-width:1.5;" x1="341" x2="736" y1="1573.6875" y2="1573.6875"/><text fill="#000000" font-family="sans-serif" font-size="11" lengthAdjust="spacing" textLength="385" x="346" y="1589.1064">-ShipPosition(mmsi, baseDateTime, lat, lon, sog, cog, heading, transcieverClass)</text><text fill="#000000" font-family="sans-serif" font-size="11" lengthAdjust="spacing" textLength="90" x="346" y="1602.9424">-checkMMSI(mmsi)</text><text fill="#000000" font-family="sans-serif" font-size="11" lengthAdjust="spacing" textLength="178" x="346" y="1616.7783">-checkBaseDateTime(baseDateTime)</text><text fill="#000000" font-family="sans-serif" font-size="11" lengthAdjust="spacing" textLength="67" x="346" y="1630.6143">-checkLat(lat)</text><text fill="#000000" font-family="sans-serif" font-size="11" lengthAdjust="spacing" textLength="73" x="346" y="1644.4502">-checkLon(lon)</text><text fill="#000000" font-family="sans-serif" font-size="11" lengthAdjust="spacing" textLength="78" x="346" y="1658.2861">-checkSog(sog)</text><text fill="#000000" font-family="sans-serif" font-size="11" lengthAdjust="spacing" textLength="78" x="346" y="1672.1221">-checkCog(cog)</text><text fill="#000000" font-family="sans-serif" font-size="11" lengthAdjust="spacing" textLength="118" x="346" y="1685.958">-checkHeading(heading)</text><text fill="#000000" font-family="sans-serif" font-size="11" lengthAdjust="spacing" textLength="208" x="346" y="1699.7939">-checkTranscieverClass(transcieverClass)</text><!--MD5=[ea2206eefe09474e90beb17e18e6b3d8]
class ShipStore--><rect codeLine="68" fill="#FEFECE" filter="url(#f1p9q62pb9x0bf)" height="103.3438" id="ShipStore" style="stroke:#A80036;stroke-width:1.5;" width="139" x="270" y="504"/><ellipse cx="308.85" cy="520" fill="#ADD1B2" rx="11" ry="11" style="stroke:#A80036;stroke-width:1.0;"/><path d="M310.85,516.5 Q311.0531,516 311.2875,515.75 Q311.5219,515.5 311.7875,515.5 Q312.2563,515.5 312.5531,515.7813 Q312.85,516.0625 312.85,516.7188 L312.85,518.2813 Q312.85,518.9375 312.5688,519.2188 Q312.2875,519.5 311.85,519.5 Q311.4594,519.5 311.2094,519.3281 Q310.9594,519.1563 310.85,518.7031 Q310.8031,518.3906 310.6313,518.2188 Q310.3188,517.8906 309.7563,517.7031 Q309.1938,517.5 308.6313,517.5 Q307.9281,517.5 307.3344,517.7813 Q306.7563,518.0625 306.3031,518.6875 Q305.85,519.3125 305.85,520.1719 L305.85,521.0938 Q305.85,522.125 306.6938,522.8125 Q307.5375,523.5 309.0375,523.5 Q309.9281,523.5 310.5531,523.2969 Q310.9125,523.1875 311.3188,522.8281 Q311.5844,522.625 311.725,522.5625 Q311.8656,522.5 312.0375,522.5 Q312.3656,522.5 312.6,522.7656 Q312.85,523.0156 312.85,523.375 Q312.85,523.7188 312.5063,524.125 Q312.0063,524.7188 311.2094,525.0469 Q310.1625,525.5 308.8813,525.5 Q307.3813,525.5 306.1781,524.9063 Q305.2094,524.4375 304.5219,523.4219 Q303.85,522.4063 303.85,521.2031 L303.85,520.1094 Q303.85,518.8594 304.4438,517.7656 Q305.0531,516.6719 306.1,516.0938 Q307.1625,515.5 308.35,515.5 Q309.0688,515.5 309.6938,515.75 Q310.3188,516 310.85,516.5 Z " fill="#000000"/><text fill="#000000" font-family="sans-serif" font-size="12" lengthAdjust="spacing" textLength="54" x="328.15" y="524.9102">ShipStore</text><line style="stroke:#A80036;stroke-width:1.5;" x1="271" x2="408" y1="536" y2="536"/><line style="stroke:#A80036;stroke-width:1.5;" x1="271" x2="408" y1="544" y2="544"/><text fill="#000000" font-family="sans-serif" font-size="11" lengthAdjust="spacing" textLength="127" x="276" y="559.4189">-createShip(shipsFileDTO)</text><text fill="#000000" font-family="sans-serif" font-size="11" lengthAdjust="spacing" textLength="90" x="276" y="573.2549">-validateShip(ship)</text><text fill="#000000" font-family="sans-serif" font-size="11" lengthAdjust="spacing" textLength="77" x="276" y="587.0908">-saveShip(ship)</text><text fill="#000000" font-family="sans-serif" font-size="11" lengthAdjust="spacing" textLength="94" x="276" y="600.9268">-getShipsBstMmsi()</text><!--MD5=[95f401ea9d0c63da0b3e1cc781f0d3e9]
class ShipBST--><rect codeLine="75" fill="#FEFECE" filter="url(#f1p9q62pb9x0bf)" height="61.8359" id="ShipBST" style="stroke:#A80036;stroke-width:1.5;" width="171" x="254" y="685"/><ellipse cx="311.25" cy="701" fill="#ADD1B2" rx="11" ry="11" style="stroke:#A80036;stroke-width:1.0;"/><path d="M313.25,697.5 Q313.4531,697 313.6875,696.75 Q313.9219,696.5 314.1875,696.5 Q314.6563,696.5 314.9531,696.7813 Q315.25,697.0625 315.25,697.7188 L315.25,699.2813 Q315.25,699.9375 314.9688,700.2188 Q314.6875,700.5 314.25,700.5 Q313.8594,700.5 313.6094,700.3281 Q313.3594,700.1563 313.25,699.7031 Q313.2031,699.3906 313.0313,699.2188 Q312.7188,698.8906 312.1563,698.7031 Q311.5938,698.5 311.0313,698.5 Q310.3281,698.5 309.7344,698.7813 Q309.1563,699.0625 308.7031,699.6875 Q308.25,700.3125 308.25,701.1719 L308.25,702.0938 Q308.25,703.125 309.0938,703.8125 Q309.9375,704.5 311.4375,704.5 Q312.3281,704.5 312.9531,704.2969 Q313.3125,704.1875 313.7188,703.8281 Q313.9844,703.625 314.125,703.5625 Q314.2656,703.5 314.4375,703.5 Q314.7656,703.5 315,703.7656 Q315.25,704.0156 315.25,704.375 Q315.25,704.7188 314.9063,705.125 Q314.4063,705.7188 313.6094,706.0469 Q312.5625,706.5 311.2813,706.5 Q309.7813,706.5 308.5781,705.9063 Q307.6094,705.4375 306.9219,704.4219 Q306.25,703.4063 306.25,702.2031 L306.25,701.1094 Q306.25,699.8594 306.8438,698.7656 Q307.4531,697.6719 308.5,697.0938 Q309.5625,696.5 310.75,696.5 Q311.4688,696.5 312.0938,696.75 Q312.7188,697 313.25,697.5 Z " fill="#000000"/><text fill="#000000" font-family="sans-serif" font-size="12" lengthAdjust="spacing" textLength="48" x="331.75" y="705.9102">ShipBST</text><line style="stroke:#A80036;stroke-width:1.5;" x1="255" x2="424" y1="717" y2="717"/><line style="stroke:#A80036;stroke-width:1.5;" x1="255" x2="424" y1="725" y2="725"/><text fill="#000000" font-family="sans-serif" font-size="11" lengthAdjust="spacing" textLength="159" x="260" y="740.4189">-getShipByMmsiCode(mmsiCode)</text><!--MD5=[004e005a2edf96352d0772cab412880f]
class PositionsBST--><rect codeLine="79" fill="#FEFECE" filter="url(#f1p9q62pb9x0bf)" height="89.5078" id="PositionsBST" style="stroke:#A80036;stroke-width:1.5;" width="155" x="396" y="1255"/><ellipse cx="432.6" cy="1271" fill="#ADD1B2" rx="11" ry="11" style="stroke:#A80036;stroke-width:1.0;"/><path d="M434.6,1267.5 Q434.8031,1267 435.0375,1266.75 Q435.2719,1266.5 435.5375,1266.5 Q436.0063,1266.5 436.3031,1266.7813 Q436.6,1267.0625 436.6,1267.7188 L436.6,1269.2813 Q436.6,1269.9375 436.3188,1270.2188 Q436.0375,1270.5 435.6,1270.5 Q435.2094,1270.5 434.9594,1270.3281 Q434.7094,1270.1563 434.6,1269.7031 Q434.5531,1269.3906 434.3813,1269.2188 Q434.0688,1268.8906 433.5063,1268.7031 Q432.9438,1268.5 432.3813,1268.5 Q431.6781,1268.5 431.0844,1268.7813 Q430.5063,1269.0625 430.0531,1269.6875 Q429.6,1270.3125 429.6,1271.1719 L429.6,1272.0938 Q429.6,1273.125 430.4438,1273.8125 Q431.2875,1274.5 432.7875,1274.5 Q433.6781,1274.5 434.3031,1274.2969 Q434.6625,1274.1875 435.0688,1273.8281 Q435.3344,1273.625 435.475,1273.5625 Q435.6156,1273.5 435.7875,1273.5 Q436.1156,1273.5 436.35,1273.7656 Q436.6,1274.0156 436.6,1274.375 Q436.6,1274.7188 436.2563,1275.125 Q435.7563,1275.7188 434.9594,1276.0469 Q433.9125,1276.5 432.6313,1276.5 Q431.1313,1276.5 429.9281,1275.9063 Q428.9594,1275.4375 428.2719,1274.4219 Q427.6,1273.4063 427.6,1272.2031 L427.6,1271.1094 Q427.6,1269.8594 428.1938,1268.7656 Q428.8031,1267.6719 429.85,1267.0938 Q430.9125,1266.5 432.1,1266.5 Q432.8188,1266.5 433.4438,1266.75 Q434.0688,1267 434.6,1267.5 Z " fill="#000000"/><text fill="#000000" font-family="sans-serif" font-size="12" lengthAdjust="spacing" textLength="75" x="451.4" y="1275.9102">PositionsBST</text><line style="stroke:#A80036;stroke-width:1.5;" x1="397" x2="550" y1="1287" y2="1287"/><line style="stroke:#A80036;stroke-width:1.5;" x1="397" x2="550" y1="1295" y2="1295"/><text fill="#000000" font-family="sans-serif" font-size="11" lengthAdjust="spacing" textLength="124" x="402" y="1310.4189">-hasPosition(shipPosition)</text><text fill="#000000" font-family="sans-serif" font-size="11" lengthAdjust="spacing" textLength="143" x="402" y="1324.2549">-validatePosition(shipPosition)</text><text fill="#000000" font-family="sans-serif" font-size="11" lengthAdjust="spacing" textLength="130" x="402" y="1338.0908">-savePosition(shipPosition)</text><!--MD5=[6b4a94d80660e97c6833bde801bd4c89]
link Company to ShipStore--><path codeLine="85" d="M359.55,426.42 C355.84,450.08 351.27,479.28 347.43,503.82 " fill="none" id="Company-ShipStore" style="stroke:#A80036;stroke-width:1.0;"/><polygon fill="#000000" points="358.7265,470.1156,363.0293,461.6341,357.2222,460.7247,358.7265,470.1156" style="stroke:#000000;stroke-width:1.0;"/><text fill="#000000" font-family="sans-serif" font-size="13" lengthAdjust="spacing" textLength="28" x="368.5" y="470.4951">uses</text><text fill="#000000" font-family="sans-serif" font-size="13" lengthAdjust="spacing" textLength="7" x="351.1458" y="447.1501">1</text><text fill="#000000" font-family="sans-serif" font-size="13" lengthAdjust="spacing" textLength="7" x="341.0253" y="493.2961">1</text><!--MD5=[b9c0692e8f69729281e4b784c306864d]
link ShipStore to ShipBST--><path codeLine="86" d="M339.5,607.09 C339.5,632.63 339.5,662.78 339.5,684.7 " fill="none" id="ShipStore-ShipBST" style="stroke:#A80036;stroke-width:1.0;"/><polygon fill="#000000" points="344.5,651.1758,347.4389,642.1307,341.5611,642.1307,344.5,651.1758" style="stroke:#000000;stroke-width:1.0;"/><text fill="#000000" font-family="sans-serif" font-size="13" lengthAdjust="spacing" textLength="28" x="353.5" y="651.4951">uses</text><text fill="#000000" font-family="sans-serif" font-size="13" lengthAdjust="spacing" textLength="7" x="332.0078" y="628.9655">1</text><text fill="#000000" font-family="sans-serif" font-size="13" lengthAdjust="spacing" textLength="7" x="331.7781" y="674.1427">1</text><!--MD5=[922bf55421258cf59997e7143e4c17d9]
link ShipBST to Ship--><path codeLine="87" d="M329.32,747.02 C322.56,766.93 313.08,794.87 302.88,824.96 " fill="none" id="ShipBST-Ship" style="stroke:#A80036;stroke-width:1.0;"/><polygon fill="#000000" points="321.8937,790.9107,327.5826,783.2893,322.0164,781.401,321.8937,790.9107" style="stroke:#000000;stroke-width:1.0;"/><text fill="#000000" font-family="sans-serif" font-size="13" lengthAdjust="spacing" textLength="30" x="332.5" y="791.4951">owns</text><text fill="#000000" font-family="sans-serif" font-size="13" lengthAdjust="spacing" textLength="7" x="319.6268" y="768.2479">1</text><text fill="#000000" font-family="sans-serif" font-size="13" lengthAdjust="spacing" textLength="20" x="285.1175" y="814.1149">1..*</text><!--MD5=[bd16fc4b2a08274ec71edc6d573c9239]
link Ship to PositionsBST--><path codeLine="88" d="M379.29,1177.34 C401.56,1206.1 422.75,1233.47 439.38,1254.94 " fill="none" id="Ship-PositionsBST" style="stroke:#A80036;stroke-width:1.0;"/><polygon fill="#000000" points="419.5613,1220.1291,416.3471,1211.1781,411.6997,1214.7769,419.5613,1220.1291" style="stroke:#000000;stroke-width:1.0;"/><text fill="#000000" font-family="sans-serif" font-size="13" lengthAdjust="spacing" textLength="28" x="425.5" y="1221.4951">uses</text><text fill="#000000" font-family="sans-serif" font-size="13" lengthAdjust="spacing" textLength="7" x="377.871" y="1198.6111">1</text><text fill="#000000" font-family="sans-serif" font-size="13" lengthAdjust="spacing" textLength="7" x="426.3843" y="1244.0459">1</text><!--MD5=[34b80baad36b2d2bd6b6893c22d217b3]
link PositionsBST to ShipPosition--><path codeLine="89" d="M484.45,1345.23 C489.84,1367 496.67,1394.59 503.65,1422.76 " fill="none" id="PositionsBST-ShipPosition" style="stroke:#A80036;stroke-width:1.0;"/><polygon fill="#000000" points="500.7019,1389.0292,501.3804,1379.5428,495.6749,1380.9558,500.7019,1389.0292" style="stroke:#000000;stroke-width:1.0;"/><text fill="#000000" font-family="sans-serif" font-size="13" lengthAdjust="spacing" textLength="21" x="508.5" y="1389.4951">has</text><text fill="#000000" font-family="sans-serif" font-size="13" lengthAdjust="spacing" textLength="7" x="478.4511" y="1365.9346">1</text><text fill="#000000" font-family="sans-serif" font-size="13" lengthAdjust="spacing" textLength="20" x="481.1973" y="1412.0701">1..*</text><!--MD5=[17525eaa20b39eaec7d1b46d54e761f1]
link ImportShipsUI to ImportShipsController--><path codeLine="90" d="M438.5,55.28 C438.5,70.09 438.5,90.25 438.5,110.63 " fill="none" id="ImportShipsUI-to-ImportShipsController" style="stroke:#A80036;stroke-width:1.0;stroke-dasharray:7.0,7.0;"/><polygon fill="#A80036" points="438.5,115.82,442.5,106.82,438.5,110.82,434.5,106.82,438.5,115.82" style="stroke:#A80036;stroke-width:1.0;"/><!--MD5=[597720547007695c4a56dcf4561abc5a]
link ImportShipsController to Company--><path codeLine="91" d="M407.65,275.12 C400.19,294.15 392.42,313.94 385.67,331.15 " fill="none" id="ImportShipsController-to-Company" style="stroke:#A80036;stroke-width:1.0;stroke-dasharray:7.0,7.0;"/><polygon fill="#A80036" points="383.79,335.93,390.8026,329.0145,385.6174,331.2759,383.356,326.0907,383.79,335.93" style="stroke:#A80036;stroke-width:1.0;"/><!--MD5=[e2eca9035e272ddec204095862896a95]
link ImportShipsController to ShipBST--><path codeLine="92" d="M449.96,275.06 C459.18,359.62 465.03,496.79 426.5,607 C416.67,635.13 396.01,661.3 377.29,680.83 " fill="none" id="ImportShipsController-to-ShipBST" style="stroke:#A80036;stroke-width:1.0;stroke-dasharray:7.0,7.0;"/><polygon fill="#A80036" points="373.58,684.65,382.7215,680.9848,377.0652,681.0648,376.9852,675.4085,373.58,684.65" style="stroke:#A80036;stroke-width:1.0;"/><!--MD5=[18af1f6827f6d658162bd46cd3a2d037]
link ImportShipsController to Ship--><path codeLine="93" d="M348.48,224.88 C280.74,252.51 199.5,301.92 199.5,380 C199.5,380 199.5,380 199.5,717 C199.5,750.41 202.53,785.78 207,819.78 " fill="none" id="ImportShipsController-to-Ship" style="stroke:#A80036;stroke-width:1.0;stroke-dasharray:7.0,7.0;"/><polygon fill="#A80036" points="207.67,824.78,210.449,815.3313,207.0111,819.8236,202.5188,816.3857,207.67,824.78" style="stroke:#A80036;stroke-width:1.0;"/><!--MD5=[1ee6c4023dc1309e5ab49abb2b5c7ab5]
link ImportShipsController to PositionsBST--><path codeLine="94" d="M499.74,275.19 C518.12,306.13 533.5,343.05 533.5,380 C533.5,380 533.5,380 533.5,1002 C533.5,1090.77 507.43,1191.57 489.66,1249.96 " fill="none" id="ImportShipsController-to-PositionsBST" style="stroke:#A80036;stroke-width:1.0;stroke-dasharray:7.0,7.0;"/><polygon fill="#A80036" points="488.18,1254.78,494.628,1247.3353,489.6364,1249.9968,486.9749,1245.0051,488.18,1254.78" style="stroke:#A80036;stroke-width:1.0;"/><!--MD5=[b099b2e39b9fe30355e18cd0b2ddc868]
link ImportShipsController to ShipPosition--><path codeLine="95" d="M528.79,252.8 C567.72,284.54 604.5,328.23 604.5,380 C604.5,380 604.5,380 604.5,1301 C604.5,1339.45 597.76,1380.14 588.58,1417.71 " fill="none" id="ImportShipsController-to-ShipPosition" style="stroke:#A80036;stroke-width:1.0;stroke-dasharray:7.0,7.0;"/><polygon fill="#A80036" points="587.33,1422.75,593.3988,1414.9931,588.546,1417.9001,585.639,1413.0474,587.33,1422.75" style="stroke:#A80036;stroke-width:1.0;"/><!--MD5=[b1d5fd3bfb64dd662cc4090d8bcc3cff]
link ImportShipsController to ShipStore--><path codeLine="96" d="M348.4,271.5 C331.31,290.6 315.87,312.46 306.5,336 C285.48,388.79 299.83,453.63 315.66,498.91 " fill="none" id="ImportShipsController-to-ShipStore" style="stroke:#A80036;stroke-width:1.0;stroke-dasharray:7.0,7.0;"/><polygon fill="#A80036" points="317.39,503.78,318.1262,493.9587,315.7065,499.0719,310.5933,496.6523,317.39,503.78" style="stroke:#A80036;stroke-width:1.0;"/><!--MD5=[94c58bdf66c92ff8438537bc1227fde6]
@startuml

skinparam classAttributeIconSize 0

class ImportShipsUI {}

class ImportShipsController {
- company
- ship
- shipPosition
- positionsBST
- registerPosition(positionDTO)
- createPosition(positionDTO, mmsi)
- saveShip()
- importShipFromFile(shipsFileDTO)
}

class Company {
- designation
- shipsBST
- getBstShip()
}

class Ship {
- positionsBST
- MMSI
- vesselName
- IMO
- callSign
- vesselTypeID
- length
- width
- draft
- cargo
- Ship(positionsBST, MMSI, vesselName, IMO, callSign, vesselTypeID, length, width, draft, cargo)
- checkPositionsBST(positionsBST)
- checkMMSI(int MMSI)
- checkVesselName(vesselName)
- checkIMO(IMO)
- checkLength(length)
- checkWidth(width)
- checkDraft(draft)
- checkCargo(cargo)
- getMMSI()
- setPositionsBST(positionsBST)
- equals(Object otherObject)
}

class ShipPosition {
- MMSI
- baseDateTime
- lat
- lon
- sog
- cog
- heading
- transcieverClass
- ShipPosition(mmsi, baseDateTime, lat, lon, sog, cog, heading, transcieverClass)
- checkMMSI(mmsi)
- checkBaseDateTime(baseDateTime)
- checkLat(lat)
- checkLon(lon)
- checkSog(sog)
- checkCog(cog)
- checkHeading(heading)
- checkTranscieverClass(transcieverClass)
}

class ShipStore {
- createShip(shipsFileDTO)
- validateShip(ship)
- saveShip(ship)
- getShipsBstMmsi()
}

class ShipBST {
- getShipByMmsiCode(mmsiCode)
}

class PositionsBST {
- hasPosition(shipPosition)
- validatePosition(shipPosition)
- savePosition(shipPosition)
}

Company "1" - - "1" ShipStore : uses >
ShipStore "1" - - "1" ShipBST : uses >
ShipBST "1" - - "1..*" Ship : owns >
Ship "1" - - "1" PositionsBST : uses >
PositionsBST "1" - - "1..*" ShipPosition : has >
ImportShipsUI ..> ImportShipsController
ImportShipsController ..> Company
ImportShipsController ..> ShipBST
ImportShipsController ..> Ship
ImportShipsController ..> PositionsBST
ImportShipsController ..> ShipPosition
ImportShipsController ..> ShipStore


@enduml

PlantUML version 1.2021.11(Sat Oct 02 14:26:11 BST 2021)
(GPL source distribution)
Java Runtime: OpenJDK Runtime Environment
JVM: OpenJDK 64-Bit Server VM
Default Encoding: Cp1252
Language: pt
Country: PT
--></g></svg>