<?xml version="1.0" encoding="UTF-8" standalone="no"?><svg xmlns="http://www.w3.org/2000/svg" xmlns:xlink="http://www.w3.org/1999/xlink" contentScriptType="application/ecmascript" contentStyleType="text/css" height="476px" preserveAspectRatio="none" style="width:312px;height:476px;background:#FFFFFF;" version="1.1" viewBox="0 0 312 476" width="312px" zoomAndPan="magnify"><defs><filter height="300%" id="f1y0s7c50vmkzw" width="300%" x="-1" y="-1"><feGaussianBlur result="blurOut" stdDeviation="2.0"/><feColorMatrix in="blurOut" result="blurOut2" type="matrix" values="0 0 0 0 0 0 0 0 0 0 0 0 0 0 0 0 0 0 .4 0"/><feOffset dx="4.0" dy="4.0" in="blurOut2" result="blurOut3"/><feBlend in="SourceGraphic" in2="blurOut3" mode="normal"/></filter></defs><g><!--MD5=[ddaf6f62b0bc30921877ec9fb9463c9f]
class TrafficManager--><rect codeLine="6" fill="#FEFECE" filter="url(#f1y0s7c50vmkzw)" height="53.8359" id="TrafficManager" style="stroke:#A80036;stroke-width:1.5;" width="113" x="7" y="7"/><ellipse cx="22" cy="23" fill="#ADD1B2" rx="11" ry="11" style="stroke:#A80036;stroke-width:1.0;"/><path d="M24,19.5 Q24.2031,19 24.4375,18.75 Q24.6719,18.5 24.9375,18.5 Q25.4063,18.5 25.7031,18.7813 Q26,19.0625 26,19.7188 L26,21.2813 Q26,21.9375 25.7188,22.2188 Q25.4375,22.5 25,22.5 Q24.6094,22.5 24.3594,22.3281 Q24.1094,22.1563 24,21.7031 Q23.9531,21.3906 23.7813,21.2188 Q23.4688,20.8906 22.9063,20.7031 Q22.3438,20.5 21.7813,20.5 Q21.0781,20.5 20.4844,20.7813 Q19.9063,21.0625 19.4531,21.6875 Q19,22.3125 19,23.1719 L19,24.0938 Q19,25.125 19.8438,25.8125 Q20.6875,26.5 22.1875,26.5 Q23.0781,26.5 23.7031,26.2969 Q24.0625,26.1875 24.4688,25.8281 Q24.7344,25.625 24.875,25.5625 Q25.0156,25.5 25.1875,25.5 Q25.5156,25.5 25.75,25.7656 Q26,26.0156 26,26.375 Q26,26.7188 25.6563,27.125 Q25.1563,27.7188 24.3594,28.0469 Q23.3125,28.5 22.0313,28.5 Q20.5313,28.5 19.3281,27.9063 Q18.3594,27.4375 17.6719,26.4219 Q17,25.4063 17,24.2031 L17,23.1094 Q17,21.8594 17.5938,20.7656 Q18.2031,19.6719 19.25,19.0938 Q20.3125,18.5 21.5,18.5 Q22.2188,18.5 22.8438,18.75 Q23.4688,19 24,19.5 Z " fill="#000000"/><text fill="#000000" font-family="sans-serif" font-size="12" lengthAdjust="spacing" textLength="81" x="36" y="27.9102">TrafficManager</text><line style="stroke:#A80036;stroke-width:1.5;" x1="8" x2="119" y1="39" y2="39"/><text fill="#000000" font-family="sans-serif" font-size="11" lengthAdjust="spacing" textLength="30" x="13" y="54.4189">-name</text><!--MD5=[02e4b9b7573f1156f41e60aa5b4e25a4]
class Company--><rect codeLine="10" fill="#FEFECE" filter="url(#f1y0s7c50vmkzw)" height="32" id="Company" style="stroke:#A80036;stroke-width:1.5;" width="85" x="182" y="18"/><ellipse cx="197" cy="34" fill="#ADD1B2" rx="11" ry="11" style="stroke:#A80036;stroke-width:1.0;"/><path d="M199,30.5 Q199.2031,30 199.4375,29.75 Q199.6719,29.5 199.9375,29.5 Q200.4063,29.5 200.7031,29.7813 Q201,30.0625 201,30.7188 L201,32.2813 Q201,32.9375 200.7188,33.2188 Q200.4375,33.5 200,33.5 Q199.6094,33.5 199.3594,33.3281 Q199.1094,33.1563 199,32.7031 Q198.9531,32.3906 198.7813,32.2188 Q198.4688,31.8906 197.9063,31.7031 Q197.3438,31.5 196.7813,31.5 Q196.0781,31.5 195.4844,31.7813 Q194.9063,32.0625 194.4531,32.6875 Q194,33.3125 194,34.1719 L194,35.0938 Q194,36.125 194.8438,36.8125 Q195.6875,37.5 197.1875,37.5 Q198.0781,37.5 198.7031,37.2969 Q199.0625,37.1875 199.4688,36.8281 Q199.7344,36.625 199.875,36.5625 Q200.0156,36.5 200.1875,36.5 Q200.5156,36.5 200.75,36.7656 Q201,37.0156 201,37.375 Q201,37.7188 200.6563,38.125 Q200.1563,38.7188 199.3594,39.0469 Q198.3125,39.5 197.0313,39.5 Q195.5313,39.5 194.3281,38.9063 Q193.3594,38.4375 192.6719,37.4219 Q192,36.4063 192,35.2031 L192,34.1094 Q192,32.8594 192.5938,31.7656 Q193.2031,30.6719 194.25,30.0938 Q195.3125,29.5 196.5,29.5 Q197.2188,29.5 197.8438,29.75 Q198.4688,30 199,30.5 Z " fill="#000000"/><text fill="#000000" font-family="sans-serif" font-size="12" lengthAdjust="spacing" textLength="53" x="211" y="38.9102">Company</text><!--MD5=[0dc7f2ddb409b58bcf52b12238c25399]
class Ship--><rect codeLine="12" fill="#FEFECE" filter="url(#f1y0s7c50vmkzw)" height="109.1797" id="Ship" style="stroke:#A80036;stroke-width:1.5;" width="63" x="101" y="139"/><ellipse cx="118.7" cy="155" fill="#ADD1B2" rx="11" ry="11" style="stroke:#A80036;stroke-width:1.0;"/><path d="M120.7,151.5 Q120.9031,151 121.1375,150.75 Q121.3719,150.5 121.6375,150.5 Q122.1063,150.5 122.4031,150.7813 Q122.7,151.0625 122.7,151.7188 L122.7,153.2813 Q122.7,153.9375 122.4188,154.2188 Q122.1375,154.5 121.7,154.5 Q121.3094,154.5 121.0594,154.3281 Q120.8094,154.1563 120.7,153.7031 Q120.6531,153.3906 120.4813,153.2188 Q120.1688,152.8906 119.6063,152.7031 Q119.0438,152.5 118.4813,152.5 Q117.7781,152.5 117.1844,152.7813 Q116.6063,153.0625 116.1531,153.6875 Q115.7,154.3125 115.7,155.1719 L115.7,156.0938 Q115.7,157.125 116.5438,157.8125 Q117.3875,158.5 118.8875,158.5 Q119.7781,158.5 120.4031,158.2969 Q120.7625,158.1875 121.1688,157.8281 Q121.4344,157.625 121.575,157.5625 Q121.7156,157.5 121.8875,157.5 Q122.2156,157.5 122.45,157.7656 Q122.7,158.0156 122.7,158.375 Q122.7,158.7188 122.3563,159.125 Q121.8563,159.7188 121.0594,160.0469 Q120.0125,160.5 118.7313,160.5 Q117.2313,160.5 116.0281,159.9063 Q115.0594,159.4375 114.3719,158.4219 Q113.7,157.4063 113.7,156.2031 L113.7,155.1094 Q113.7,153.8594 114.2938,152.7656 Q114.9031,151.6719 115.95,151.0938 Q117.0125,150.5 118.2,150.5 Q118.9188,150.5 119.5438,150.75 Q120.1688,151 120.7,151.5 Z " fill="#000000"/><text fill="#000000" font-family="sans-serif" font-size="12" lengthAdjust="spacing" textLength="25" x="133.3" y="159.9102">Ship</text><line style="stroke:#A80036;stroke-width:1.5;" x1="102" x2="163" y1="171" y2="171"/><text fill="#000000" font-family="sans-serif" font-size="11" lengthAdjust="spacing" textLength="36" x="107" y="186.4189">-mmmsi</text><text fill="#000000" font-family="sans-serif" font-size="11" lengthAdjust="spacing" textLength="20" x="107" y="200.2549">-imo</text><text fill="#000000" font-family="sans-serif" font-size="11" lengthAdjust="spacing" textLength="41" x="107" y="214.0908">-callSign</text><text fill="#000000" font-family="sans-serif" font-size="11" lengthAdjust="spacing" textLength="51" x="107" y="227.9268">-shipName</text><text fill="#000000" font-family="sans-serif" font-size="11" lengthAdjust="spacing" textLength="27" x="107" y="241.7627">-draft</text><!--MD5=[cf9c7d7c3da40397ddde4f51b7097da6]
class VesselType--><rect codeLine="22" fill="#FEFECE" filter="url(#f1y0s7c50vmkzw)" height="95.3438" id="VesselType" style="stroke:#A80036;stroke-width:1.5;" width="96" x="202.5" y="347"/><ellipse cx="217.5" cy="363" fill="#ADD1B2" rx="11" ry="11" style="stroke:#A80036;stroke-width:1.0;"/><path d="M219.5,359.5 Q219.7031,359 219.9375,358.75 Q220.1719,358.5 220.4375,358.5 Q220.9063,358.5 221.2031,358.7813 Q221.5,359.0625 221.5,359.7188 L221.5,361.2813 Q221.5,361.9375 221.2188,362.2188 Q220.9375,362.5 220.5,362.5 Q220.1094,362.5 219.8594,362.3281 Q219.6094,362.1563 219.5,361.7031 Q219.4531,361.3906 219.2813,361.2188 Q218.9688,360.8906 218.4063,360.7031 Q217.8438,360.5 217.2813,360.5 Q216.5781,360.5 215.9844,360.7813 Q215.4063,361.0625 214.9531,361.6875 Q214.5,362.3125 214.5,363.1719 L214.5,364.0938 Q214.5,365.125 215.3438,365.8125 Q216.1875,366.5 217.6875,366.5 Q218.5781,366.5 219.2031,366.2969 Q219.5625,366.1875 219.9688,365.8281 Q220.2344,365.625 220.375,365.5625 Q220.5156,365.5 220.6875,365.5 Q221.0156,365.5 221.25,365.7656 Q221.5,366.0156 221.5,366.375 Q221.5,366.7188 221.1563,367.125 Q220.6563,367.7188 219.8594,368.0469 Q218.8125,368.5 217.5313,368.5 Q216.0313,368.5 214.8281,367.9063 Q213.8594,367.4375 213.1719,366.4219 Q212.5,365.4063 212.5,364.2031 L212.5,363.1094 Q212.5,361.8594 213.0938,360.7656 Q213.7031,359.6719 214.75,359.0938 Q215.8125,358.5 217,358.5 Q217.7188,358.5 218.3438,358.75 Q218.9688,359 219.5,359.5 Z " fill="#000000"/><text fill="#000000" font-family="sans-serif" font-size="12" lengthAdjust="spacing" textLength="64" x="231.5" y="367.9102">VesselType</text><line style="stroke:#A80036;stroke-width:1.5;" x1="203.5" x2="297.5" y1="379" y2="379"/><text fill="#000000" font-family="sans-serif" font-size="11" lengthAdjust="spacing" textLength="69" x="208.5" y="394.4189">-vesselTypeID</text><text fill="#000000" font-family="sans-serif" font-size="11" lengthAdjust="spacing" textLength="33" x="208.5" y="408.2549">-length</text><text fill="#000000" font-family="sans-serif" font-size="11" lengthAdjust="spacing" textLength="31" x="208.5" y="422.0908">-width</text><text fill="#000000" font-family="sans-serif" font-size="11" lengthAdjust="spacing" textLength="66" x="208.5" y="435.9268">-maxCapacity</text><!--MD5=[1c0c3765e68dc4575d559b566278b914]
class ShipPosition--><rect codeLine="29" fill="#FEFECE" filter="url(#f1y0s7c50vmkzw)" height="136.8516" id="ShipPosition" style="stroke:#A80036;stroke-width:1.5;" width="102" x="63.5" y="326"/><ellipse cx="78.5" cy="342" fill="#ADD1B2" rx="11" ry="11" style="stroke:#A80036;stroke-width:1.0;"/><path d="M80.5,338.5 Q80.7031,338 80.9375,337.75 Q81.1719,337.5 81.4375,337.5 Q81.9063,337.5 82.2031,337.7813 Q82.5,338.0625 82.5,338.7188 L82.5,340.2813 Q82.5,340.9375 82.2188,341.2188 Q81.9375,341.5 81.5,341.5 Q81.1094,341.5 80.8594,341.3281 Q80.6094,341.1563 80.5,340.7031 Q80.4531,340.3906 80.2813,340.2188 Q79.9688,339.8906 79.4063,339.7031 Q78.8438,339.5 78.2813,339.5 Q77.5781,339.5 76.9844,339.7813 Q76.4063,340.0625 75.9531,340.6875 Q75.5,341.3125 75.5,342.1719 L75.5,343.0938 Q75.5,344.125 76.3438,344.8125 Q77.1875,345.5 78.6875,345.5 Q79.5781,345.5 80.2031,345.2969 Q80.5625,345.1875 80.9688,344.8281 Q81.2344,344.625 81.375,344.5625 Q81.5156,344.5 81.6875,344.5 Q82.0156,344.5 82.25,344.7656 Q82.5,345.0156 82.5,345.375 Q82.5,345.7188 82.1563,346.125 Q81.6563,346.7188 80.8594,347.0469 Q79.8125,347.5 78.5313,347.5 Q77.0313,347.5 75.8281,346.9063 Q74.8594,346.4375 74.1719,345.4219 Q73.5,344.4063 73.5,343.2031 L73.5,342.1094 Q73.5,340.8594 74.0938,339.7656 Q74.7031,338.6719 75.75,338.0938 Q76.8125,337.5 78,337.5 Q78.7188,337.5 79.3438,337.75 Q79.9688,338 80.5,338.5 Z " fill="#000000"/><text fill="#000000" font-family="sans-serif" font-size="12" lengthAdjust="spacing" textLength="70" x="92.5" y="346.9102">ShipPosition</text><line style="stroke:#A80036;stroke-width:1.5;" x1="64.5" x2="164.5" y1="358" y2="358"/><text fill="#000000" font-family="sans-serif" font-size="11" lengthAdjust="spacing" textLength="72" x="69.5" y="373.4189">-baseDateTime</text><text fill="#000000" font-family="sans-serif" font-size="11" lengthAdjust="spacing" textLength="38" x="69.5" y="387.2549">-latitude</text><text fill="#000000" font-family="sans-serif" font-size="11" lengthAdjust="spacing" textLength="47" x="69.5" y="401.0908">-longitude</text><text fill="#000000" font-family="sans-serif" font-size="11" lengthAdjust="spacing" textLength="22" x="69.5" y="414.9268">-sog</text><text fill="#000000" font-family="sans-serif" font-size="11" lengthAdjust="spacing" textLength="22" x="69.5" y="428.7627">-cog</text><text fill="#000000" font-family="sans-serif" font-size="11" lengthAdjust="spacing" textLength="42" x="69.5" y="442.5986">-heading</text><text fill="#000000" font-family="sans-serif" font-size="11" lengthAdjust="spacing" textLength="59" x="69.5" y="456.4346">-transceiver</text><!--MD5=[9d91f1df0c90718d85872c4ac6e523ca]
link Company to VesselType--><path codeLine="39" d="M226.3,50.2 C227.59,61.45 229.3,77.17 230.5,91 C238.33,181.45 244.69,287.35 248,346.82 " fill="none" id="Company-VesselType" style="stroke:#A80036;stroke-width:1.0;"/><polygon fill="#000000" points="247.8648,198.6625,250.136,189.427,244.2738,189.8559,247.8648,198.6625" style="stroke:#000000;stroke-width:1.0;"/><text fill="#000000" font-family="sans-serif" font-size="13" lengthAdjust="spacing" textLength="30" x="256.5" y="198.9951">owns</text><text fill="#000000" font-family="sans-serif" font-size="13" lengthAdjust="spacing" textLength="7" x="218.7581" y="71.4649">1</text><text fill="#000000" font-family="sans-serif" font-size="13" lengthAdjust="spacing" textLength="20" x="226.1641" y="336.1377">1..*</text><!--MD5=[c324832c0212842eac80843bc02aaded]
link Ship to VesselType--><path codeLine="40" d="M160.57,248.14 C168.98,263.71 178.4,280.66 187.5,296 C197.47,312.82 208.93,330.89 219.32,346.85 " fill="none" id="Ship-VesselType" style="stroke:#A80036;stroke-width:1.0;"/><polygon fill="#000000" points="195.0572,291.4724,192.9566,282.1967,187.9057,285.2029,195.0572,291.4724" style="stroke:#000000;stroke-width:1.0;"/><text fill="#000000" font-family="sans-serif" font-size="13" lengthAdjust="spacing" textLength="24" x="201.5" y="292.4951">is of</text><text fill="#000000" font-family="sans-serif" font-size="13" lengthAdjust="spacing" textLength="20" x="142.8852" y="269.6719">1..*</text><text fill="#000000" font-family="sans-serif" font-size="13" lengthAdjust="spacing" textLength="7" x="207.2264" y="336.1721">1</text><!--MD5=[40e2b5717560220ad35e84810a8f1b44]
link TrafficManager to Ship--><path codeLine="41" d="M57.6,61.12 C55.5,75.65 54.86,93.81 60.5,109 C68.63,130.89 85.37,150.88 100.66,165.81 " fill="none" id="TrafficManager-Ship" style="stroke:#A80036;stroke-width:1.0;"/><polygon fill="#000000" points="67.4019,104.7999,66.6793,95.3168,61.2433,97.5527,67.4019,104.7999" style="stroke:#000000;stroke-width:1.0;"/><text fill="#000000" font-family="sans-serif" font-size="13" lengthAdjust="spacing" textLength="43" x="74.5" y="105.4951">imports</text><text fill="#000000" font-family="sans-serif" font-size="13" lengthAdjust="spacing" textLength="7" x="48.5438" y="82.354">1</text><text fill="#000000" font-family="sans-serif" font-size="13" lengthAdjust="spacing" textLength="20" x="72.9457" y="156.7406">1..*</text><!--MD5=[f56e222e1748568825f030a9b791275e]
link Ship to ShipPosition--><path codeLine="42" d="M116.97,248.03 C114.7,257.92 112.71,268.21 111.5,278 C109.59,293.43 109.11,310.1 109.37,325.85 " fill="none" id="Ship-ShipPosition" style="stroke:#A80036;stroke-width:1.0;"/><polygon fill="#000000" points="116.014,292.1521,119.8182,283.4355,113.9682,282.8642,116.014,292.1521" style="stroke:#000000;stroke-width:1.0;"/><text fill="#000000" font-family="sans-serif" font-size="13" lengthAdjust="spacing" textLength="21" x="125.5" y="292.4951">has</text><text fill="#000000" font-family="sans-serif" font-size="13" lengthAdjust="spacing" textLength="7" x="107.5318" y="269.5478">1</text><text fill="#000000" font-family="sans-serif" font-size="13" lengthAdjust="spacing" textLength="20" x="87.7152" y="314.9889">1..*</text><!--MD5=[37a14a5de6d6fd738aee271300f4b5c8]
link Company to Ship--><path codeLine="43" d="M200.13,50.08 C185.98,60.04 168.94,74.31 158.5,91 C149.53,105.34 143.64,122.66 139.79,138.9 " fill="none" id="Company-Ship" style="stroke:#A80036;stroke-width:1.0;"/><polygon fill="#000000" points="160.6903,104.3117,168.2041,98.4813,163.3421,95.1783,160.6903,104.3117" style="stroke:#000000;stroke-width:1.0;"/><text fill="#000000" font-family="sans-serif" font-size="13" lengthAdjust="spacing" textLength="53" x="172.5" y="105.4951">manages</text><text fill="#000000" font-family="sans-serif" font-size="13" lengthAdjust="spacing" textLength="7" x="183.8981" y="71.6098">1</text><text fill="#000000" font-family="sans-serif" font-size="13" lengthAdjust="spacing" textLength="20" x="119.4258" y="127.9948">1..*</text><!--MD5=[0b4f20ea22e7980f6f9fb78a7bbb1583]
@startuml
'https://plantuml.com/class-diagram
hide empty methods
hide empty attributes
skinparam classAttributeIconSize 0

class TrafficManager{
    -name
}

class Company{}

class Ship {
    -mmmsi /'MMSI - 1'/
    -imo /'IMO - 9'/
    -callSign /'CallSign - 10'/
    -shipName /'VesselName - 8'/
    -draft /'Draft - 14'/
    '-shipPositions /'BST que guarda Positions'/
    '-vesselType /'objeto do tipo VesselType'/
}

class VesselType{
    -vesselTypeID /'VesselType - 11'/
    -length /'Length - 12'/
    -width /'Width - 13'/
    -maxCapacity /'Cargo - 15'/
}

class ShipPosition {
    -baseDateTime /'BaseDateTime - 2'/
    -latitude /'LAT - 3'/
    -longitude /'LON - 4'/
    -sog /'SOG - 5'/
    -cog /'COG - 6'/
    -heading /'Heading - 7'/
    -transceiver /'TransceiverClass - 16'/
}

Company "1" - - "1..*" VesselType : owns >
Ship "1..*" - - "1" VesselType : is of >
TrafficManager "1" - - "1..*" Ship : imports >
Ship "1" - - "1..*" ShipPosition : has >
Company "1" - - "1..*" Ship : manages >

@enduml

@startuml
hide empty methods
hide empty attributes
skinparam classAttributeIconSize 0

class TrafficManager{
    -name
}

class Company{}

class Ship {
    -mmmsi 
    -imo 
    -callSign 
    -shipName 
    -draft 
}

class VesselType{
    -vesselTypeID 
    -length 
    -width 
    -maxCapacity 
}

class ShipPosition {
    -baseDateTime 
    -latitude 
    -longitude 
    -sog 
    -cog 
    -heading 
    -transceiver 
}

Company "1" - - "1..*" VesselType : owns >
Ship "1..*" - - "1" VesselType : is of >
TrafficManager "1" - - "1..*" Ship : imports >
Ship "1" - - "1..*" ShipPosition : has >
Company "1" - - "1..*" Ship : manages >

@enduml

PlantUML version 1.2021.11(Sat Oct 02 14:26:11 BST 2021)
(GPL source distribution)
Java Runtime: OpenJDK Runtime Environment
JVM: OpenJDK 64-Bit Server VM
Default Encoding: Cp1252
Language: pt
Country: PT
--></g></svg>