<?xml version="1.0" encoding="UTF-8" standalone="no"?><svg xmlns="http://www.w3.org/2000/svg" xmlns:xlink="http://www.w3.org/1999/xlink" contentScriptType="application/ecmascript" contentStyleType="text/css" height="665px" preserveAspectRatio="none" style="width:603px;height:665px;background:#FFFFFF;" version="1.1" viewBox="0 0 603 665" width="603px" zoomAndPan="magnify"><defs><filter height="300%" id="f1phxujstv2esv" width="300%" x="-1" y="-1"><feGaussianBlur result="blurOut" stdDeviation="2.0"/><feColorMatrix in="blurOut" result="blurOut2" type="matrix" values="0 0 0 0 0 0 0 0 0 0 0 0 0 0 0 0 0 0 .4 0"/><feOffset dx="4.0" dy="4.0" in="blurOut2" result="blurOut3"/><feBlend in="SourceGraphic" in2="blurOut3" mode="normal"/></filter></defs><g><!--MD5=[214e649b38923ca29e360dbc7de31118]
class ClosestShipController--><rect codeLine="7" fill="#FEFECE" filter="url(#f1phxujstv2esv)" height="75.6719" id="ClosestShipController" style="stroke:#A80036;stroke-width:1.5;" width="183" x="7" y="7"/><ellipse cx="35.05" cy="23" fill="#ADD1B2" rx="11" ry="11" style="stroke:#A80036;stroke-width:1.0;"/><path d="M37.05,19.5 Q37.2531,19 37.4875,18.75 Q37.7219,18.5 37.9875,18.5 Q38.4563,18.5 38.7531,18.7813 Q39.05,19.0625 39.05,19.7188 L39.05,21.2813 Q39.05,21.9375 38.7688,22.2188 Q38.4875,22.5 38.05,22.5 Q37.6594,22.5 37.4094,22.3281 Q37.1594,22.1563 37.05,21.7031 Q37.0031,21.3906 36.8313,21.2188 Q36.5188,20.8906 35.9563,20.7031 Q35.3938,20.5 34.8313,20.5 Q34.1281,20.5 33.5344,20.7813 Q32.9563,21.0625 32.5031,21.6875 Q32.05,22.3125 32.05,23.1719 L32.05,24.0938 Q32.05,25.125 32.8938,25.8125 Q33.7375,26.5 35.2375,26.5 Q36.1281,26.5 36.7531,26.2969 Q37.1125,26.1875 37.5188,25.8281 Q37.7844,25.625 37.925,25.5625 Q38.0656,25.5 38.2375,25.5 Q38.5656,25.5 38.8,25.7656 Q39.05,26.0156 39.05,26.375 Q39.05,26.7188 38.7063,27.125 Q38.2063,27.7188 37.4094,28.0469 Q36.3625,28.5 35.0813,28.5 Q33.5813,28.5 32.3781,27.9063 Q31.4094,27.4375 30.7219,26.4219 Q30.05,25.4063 30.05,24.2031 L30.05,23.1094 Q30.05,21.8594 30.6437,20.7656 Q31.2531,19.6719 32.3,19.0938 Q33.3625,18.5 34.55,18.5 Q35.2688,18.5 35.8938,18.75 Q36.5188,19 37.05,19.5 Z " fill="#000000"/><text fill="#000000" font-family="sans-serif" font-size="12" lengthAdjust="spacing" textLength="122" x="51.95" y="27.9102">ClosestShipController</text><line style="stroke:#A80036;stroke-width:1.5;" x1="8" x2="189" y1="39" y2="39"/><text fill="#000000" font-family="sans-serif" font-size="11" lengthAdjust="spacing" textLength="48" x="13" y="54.4189">-company</text><line style="stroke:#A80036;stroke-width:1.5;" x1="8" x2="189" y1="60.8359" y2="60.8359"/><text fill="#000000" font-family="sans-serif" font-size="11" lengthAdjust="spacing" textLength="171" x="13" y="76.2549">-findClosestPort(callSign, dateTime)</text><!--MD5=[0dc7f2ddb409b58bcf52b12238c25399]
class Ship--><rect codeLine="12" fill="#FEFECE" filter="url(#f1phxujstv2esv)" height="75.6719" id="Ship" style="stroke:#A80036;stroke-width:1.5;" width="96" x="298.5" y="444"/><ellipse cx="331.05" cy="460" fill="#ADD1B2" rx="11" ry="11" style="stroke:#A80036;stroke-width:1.0;"/><path d="M333.05,456.5 Q333.2531,456 333.4875,455.75 Q333.7219,455.5 333.9875,455.5 Q334.4563,455.5 334.7531,455.7813 Q335.05,456.0625 335.05,456.7188 L335.05,458.2813 Q335.05,458.9375 334.7688,459.2188 Q334.4875,459.5 334.05,459.5 Q333.6594,459.5 333.4094,459.3281 Q333.1594,459.1563 333.05,458.7031 Q333.0031,458.3906 332.8313,458.2188 Q332.5188,457.8906 331.9563,457.7031 Q331.3938,457.5 330.8313,457.5 Q330.1281,457.5 329.5344,457.7813 Q328.9563,458.0625 328.5031,458.6875 Q328.05,459.3125 328.05,460.1719 L328.05,461.0938 Q328.05,462.125 328.8938,462.8125 Q329.7375,463.5 331.2375,463.5 Q332.1281,463.5 332.7531,463.2969 Q333.1125,463.1875 333.5188,462.8281 Q333.7844,462.625 333.925,462.5625 Q334.0656,462.5 334.2375,462.5 Q334.5656,462.5 334.8,462.7656 Q335.05,463.0156 335.05,463.375 Q335.05,463.7188 334.7063,464.125 Q334.2063,464.7188 333.4094,465.0469 Q332.3625,465.5 331.0813,465.5 Q329.5813,465.5 328.3781,464.9063 Q327.4094,464.4375 326.7219,463.4219 Q326.05,462.4063 326.05,461.2031 L326.05,460.1094 Q326.05,458.8594 326.6438,457.7656 Q327.2531,456.6719 328.3,456.0938 Q329.3625,455.5 330.55,455.5 Q331.2688,455.5 331.8938,455.75 Q332.5188,456 333.05,456.5 Z " fill="#000000"/><text fill="#000000" font-family="sans-serif" font-size="12" lengthAdjust="spacing" textLength="25" x="348.95" y="464.9102">Ship</text><line style="stroke:#A80036;stroke-width:1.5;" x1="299.5" x2="393.5" y1="476" y2="476"/><text fill="#000000" font-family="sans-serif" font-size="11" lengthAdjust="spacing" textLength="61" x="304.5" y="491.4189">-positionBST</text><line style="stroke:#A80036;stroke-width:1.5;" x1="299.5" x2="393.5" y1="497.8359" y2="497.8359"/><text fill="#000000" font-family="sans-serif" font-size="11" lengthAdjust="spacing" textLength="84" x="304.5" y="513.2549">-getPositionBST()</text><!--MD5=[ea2206eefe09474e90beb17e18e6b3d8]
class ShipStore--><rect codeLine="17" fill="#FEFECE" filter="url(#f1phxujstv2esv)" height="53.8359" id="ShipStore" style="stroke:#A80036;stroke-width:1.5;" width="155" x="291" y="312"/><ellipse cx="337.25" cy="328" fill="#ADD1B2" rx="11" ry="11" style="stroke:#A80036;stroke-width:1.0;"/><path d="M339.25,324.5 Q339.4531,324 339.6875,323.75 Q339.9219,323.5 340.1875,323.5 Q340.6563,323.5 340.9531,323.7813 Q341.25,324.0625 341.25,324.7188 L341.25,326.2813 Q341.25,326.9375 340.9688,327.2188 Q340.6875,327.5 340.25,327.5 Q339.8594,327.5 339.6094,327.3281 Q339.3594,327.1563 339.25,326.7031 Q339.2031,326.3906 339.0313,326.2188 Q338.7188,325.8906 338.1563,325.7031 Q337.5938,325.5 337.0313,325.5 Q336.3281,325.5 335.7344,325.7813 Q335.1563,326.0625 334.7031,326.6875 Q334.25,327.3125 334.25,328.1719 L334.25,329.0938 Q334.25,330.125 335.0938,330.8125 Q335.9375,331.5 337.4375,331.5 Q338.3281,331.5 338.9531,331.2969 Q339.3125,331.1875 339.7188,330.8281 Q339.9844,330.625 340.125,330.5625 Q340.2656,330.5 340.4375,330.5 Q340.7656,330.5 341,330.7656 Q341.25,331.0156 341.25,331.375 Q341.25,331.7188 340.9063,332.125 Q340.4063,332.7188 339.6094,333.0469 Q338.5625,333.5 337.2813,333.5 Q335.7813,333.5 334.5781,332.9063 Q333.6094,332.4375 332.9219,331.4219 Q332.25,330.4063 332.25,329.2031 L332.25,328.1094 Q332.25,326.8594 332.8438,325.7656 Q333.4531,324.6719 334.5,324.0938 Q335.5625,323.5 336.75,323.5 Q337.4688,323.5 338.0938,323.75 Q338.7188,324 339.25,324.5 Z " fill="#000000"/><text fill="#000000" font-family="sans-serif" font-size="12" lengthAdjust="spacing" textLength="54" x="357.75" y="332.9102">ShipStore</text><line style="stroke:#A80036;stroke-width:1.5;" x1="292" x2="445" y1="344" y2="344"/><text fill="#000000" font-family="sans-serif" font-size="11" lengthAdjust="spacing" textLength="143" x="297" y="359.4189">-getShipByAnyCode(callSign)</text><!--MD5=[4901be1d1d8a5c23fb0daf47783de1b7]
class PositionBST--><rect codeLine="21" fill="#FEFECE" filter="url(#f1phxujstv2esv)" height="53.8359" id="PositionBST" style="stroke:#A80036;stroke-width:1.5;" width="152" x="270.5" y="598"/><ellipse cx="308.9" cy="614" fill="#ADD1B2" rx="11" ry="11" style="stroke:#A80036;stroke-width:1.0;"/><path d="M310.9,610.5 Q311.1031,610 311.3375,609.75 Q311.5719,609.5 311.8375,609.5 Q312.3063,609.5 312.6031,609.7813 Q312.9,610.0625 312.9,610.7188 L312.9,612.2813 Q312.9,612.9375 312.6188,613.2188 Q312.3375,613.5 311.9,613.5 Q311.5094,613.5 311.2594,613.3281 Q311.0094,613.1563 310.9,612.7031 Q310.8531,612.3906 310.6813,612.2188 Q310.3688,611.8906 309.8063,611.7031 Q309.2438,611.5 308.6813,611.5 Q307.9781,611.5 307.3844,611.7813 Q306.8063,612.0625 306.3531,612.6875 Q305.9,613.3125 305.9,614.1719 L305.9,615.0938 Q305.9,616.125 306.7438,616.8125 Q307.5875,617.5 309.0875,617.5 Q309.9781,617.5 310.6031,617.2969 Q310.9625,617.1875 311.3688,616.8281 Q311.6344,616.625 311.775,616.5625 Q311.9156,616.5 312.0875,616.5 Q312.4156,616.5 312.65,616.7656 Q312.9,617.0156 312.9,617.375 Q312.9,617.7188 312.5563,618.125 Q312.0563,618.7188 311.2594,619.0469 Q310.2125,619.5 308.9313,619.5 Q307.4313,619.5 306.2281,618.9063 Q305.2594,618.4375 304.5719,617.4219 Q303.9,616.4063 303.9,615.2031 L303.9,614.1094 Q303.9,612.8594 304.4938,611.7656 Q305.1031,610.6719 306.15,610.0938 Q307.2125,609.5 308.4,609.5 Q309.1188,609.5 309.7438,609.75 Q310.3688,610 310.9,610.5 Z " fill="#000000"/><text fill="#000000" font-family="sans-serif" font-size="12" lengthAdjust="spacing" textLength="68" x="328.1" y="618.9102">PositionBST</text><line style="stroke:#A80036;stroke-width:1.5;" x1="271.5" x2="421.5" y1="630" y2="630"/><text fill="#000000" font-family="sans-serif" font-size="11" lengthAdjust="spacing" textLength="140" x="276.5" y="645.4189">-getPosInDateTime(dateTime)</text><!--MD5=[02e4b9b7573f1156f41e60aa5b4e25a4]
class Company--><rect codeLine="25" fill="#FEFECE" filter="url(#f1phxujstv2esv)" height="89.5078" id="Company" style="stroke:#A80036;stroke-width:1.5;" width="85" x="152" y="144"/><ellipse cx="167" cy="160" fill="#ADD1B2" rx="11" ry="11" style="stroke:#A80036;stroke-width:1.0;"/><path d="M169,156.5 Q169.2031,156 169.4375,155.75 Q169.6719,155.5 169.9375,155.5 Q170.4063,155.5 170.7031,155.7813 Q171,156.0625 171,156.7188 L171,158.2813 Q171,158.9375 170.7188,159.2188 Q170.4375,159.5 170,159.5 Q169.6094,159.5 169.3594,159.3281 Q169.1094,159.1563 169,158.7031 Q168.9531,158.3906 168.7813,158.2188 Q168.4688,157.8906 167.9063,157.7031 Q167.3438,157.5 166.7813,157.5 Q166.0781,157.5 165.4844,157.7813 Q164.9063,158.0625 164.4531,158.6875 Q164,159.3125 164,160.1719 L164,161.0938 Q164,162.125 164.8438,162.8125 Q165.6875,163.5 167.1875,163.5 Q168.0781,163.5 168.7031,163.2969 Q169.0625,163.1875 169.4688,162.8281 Q169.7344,162.625 169.875,162.5625 Q170.0156,162.5 170.1875,162.5 Q170.5156,162.5 170.75,162.7656 Q171,163.0156 171,163.375 Q171,163.7188 170.6563,164.125 Q170.1563,164.7188 169.3594,165.0469 Q168.3125,165.5 167.0313,165.5 Q165.5313,165.5 164.3281,164.9063 Q163.3594,164.4375 162.6719,163.4219 Q162,162.4063 162,161.2031 L162,160.1094 Q162,158.8594 162.5938,157.7656 Q163.2031,156.6719 164.25,156.0938 Q165.3125,155.5 166.5,155.5 Q167.2188,155.5 167.8438,155.75 Q168.4688,156 169,156.5 Z " fill="#000000"/><text fill="#000000" font-family="sans-serif" font-size="12" lengthAdjust="spacing" textLength="53" x="181" y="164.9102">Company</text><line style="stroke:#A80036;stroke-width:1.5;" x1="153" x2="236" y1="176" y2="176"/><text fill="#000000" font-family="sans-serif" font-size="11" lengthAdjust="spacing" textLength="59" x="158" y="191.4189">-designation</text><text fill="#000000" font-family="sans-serif" font-size="11" lengthAdjust="spacing" textLength="49" x="158" y="205.2549">-portStore</text><line style="stroke:#A80036;stroke-width:1.5;" x1="153" x2="236" y1="211.6719" y2="211.6719"/><text fill="#000000" font-family="sans-serif" font-size="11" lengthAdjust="spacing" textLength="72" x="158" y="227.0908">-getPortStore()</text><!--MD5=[f70d2b281f9eefc1b49373c49159755a]
class PortStore--><rect codeLine="31" fill="#FEFECE" filter="url(#f1phxujstv2esv)" height="53.8359" id="PortStore" style="stroke:#A80036;stroke-width:1.5;" width="183" x="73" y="312"/><ellipse cx="134.75" cy="328" fill="#ADD1B2" rx="11" ry="11" style="stroke:#A80036;stroke-width:1.0;"/><path d="M136.75,324.5 Q136.9531,324 137.1875,323.75 Q137.4219,323.5 137.6875,323.5 Q138.1563,323.5 138.4531,323.7813 Q138.75,324.0625 138.75,324.7188 L138.75,326.2813 Q138.75,326.9375 138.4688,327.2188 Q138.1875,327.5 137.75,327.5 Q137.3594,327.5 137.1094,327.3281 Q136.8594,327.1563 136.75,326.7031 Q136.7031,326.3906 136.5313,326.2188 Q136.2188,325.8906 135.6563,325.7031 Q135.0938,325.5 134.5313,325.5 Q133.8281,325.5 133.2344,325.7813 Q132.6563,326.0625 132.2031,326.6875 Q131.75,327.3125 131.75,328.1719 L131.75,329.0938 Q131.75,330.125 132.5938,330.8125 Q133.4375,331.5 134.9375,331.5 Q135.8281,331.5 136.4531,331.2969 Q136.8125,331.1875 137.2188,330.8281 Q137.4844,330.625 137.625,330.5625 Q137.7656,330.5 137.9375,330.5 Q138.2656,330.5 138.5,330.7656 Q138.75,331.0156 138.75,331.375 Q138.75,331.7188 138.4063,332.125 Q137.9063,332.7188 137.1094,333.0469 Q136.0625,333.5 134.7813,333.5 Q133.2813,333.5 132.0781,332.9063 Q131.1094,332.4375 130.4219,331.4219 Q129.75,330.4063 129.75,329.2031 L129.75,328.1094 Q129.75,326.8594 130.3438,325.7656 Q130.9531,324.6719 132,324.0938 Q133.0625,323.5 134.25,323.5 Q134.9688,323.5 135.5938,323.75 Q136.2188,324 136.75,324.5 Z " fill="#000000"/><text fill="#000000" font-family="sans-serif" font-size="12" lengthAdjust="spacing" textLength="51" x="155.25" y="332.9102">PortStore</text><line style="stroke:#A80036;stroke-width:1.5;" x1="74" x2="255" y1="344" y2="344"/><text fill="#000000" font-family="sans-serif" font-size="11" lengthAdjust="spacing" textLength="171" x="79" y="359.4189">-findClosestPort(callSign, dateTime)</text><!--MD5=[24ed9367eeeddc8264961b161ed9a6a1]
class PortTree--><rect codeLine="35" fill="#FEFECE" filter="url(#f1phxujstv2esv)" height="53.8359" id="PortTree" style="stroke:#A80036;stroke-width:1.5;" width="154" x="87.5" y="455"/><ellipse cx="136.75" cy="471" fill="#ADD1B2" rx="11" ry="11" style="stroke:#A80036;stroke-width:1.0;"/><path d="M138.75,467.5 Q138.9531,467 139.1875,466.75 Q139.4219,466.5 139.6875,466.5 Q140.1563,466.5 140.4531,466.7813 Q140.75,467.0625 140.75,467.7188 L140.75,469.2813 Q140.75,469.9375 140.4688,470.2188 Q140.1875,470.5 139.75,470.5 Q139.3594,470.5 139.1094,470.3281 Q138.8594,470.1563 138.75,469.7031 Q138.7031,469.3906 138.5313,469.2188 Q138.2188,468.8906 137.6563,468.7031 Q137.0938,468.5 136.5313,468.5 Q135.8281,468.5 135.2344,468.7813 Q134.6563,469.0625 134.2031,469.6875 Q133.75,470.3125 133.75,471.1719 L133.75,472.0938 Q133.75,473.125 134.5938,473.8125 Q135.4375,474.5 136.9375,474.5 Q137.8281,474.5 138.4531,474.2969 Q138.8125,474.1875 139.2188,473.8281 Q139.4844,473.625 139.625,473.5625 Q139.7656,473.5 139.9375,473.5 Q140.2656,473.5 140.5,473.7656 Q140.75,474.0156 140.75,474.375 Q140.75,474.7188 140.4063,475.125 Q139.9063,475.7188 139.1094,476.0469 Q138.0625,476.5 136.7813,476.5 Q135.2813,476.5 134.0781,475.9063 Q133.1094,475.4375 132.4219,474.4219 Q131.75,473.4063 131.75,472.2031 L131.75,471.1094 Q131.75,469.8594 132.3438,468.7656 Q132.9531,467.6719 134,467.0938 Q135.0625,466.5 136.25,466.5 Q136.9688,466.5 137.5938,466.75 Q138.2188,467 138.75,467.5 Z " fill="#000000"/><text fill="#000000" font-family="sans-serif" font-size="12" lengthAdjust="spacing" textLength="47" x="157.25" y="475.9102">PortTree</text><line style="stroke:#A80036;stroke-width:1.5;" x1="88.5" x2="240.5" y1="487" y2="487"/><text fill="#000000" font-family="sans-serif" font-size="11" lengthAdjust="spacing" textLength="142" x="93.5" y="502.4189">-findClosestPort(coordinates)</text><!--MD5=[6a92e1b6ff900540a2721d2a0d9d95d6]
class 2DTree--><rect codeLine="39" fill="#FEFECE" filter="url(#f1phxujstv2esv)" height="53.8359" id="2DTree" style="stroke:#A80036;stroke-width:1.5;" width="160" x="429.5" y="455"/><ellipse cx="484.75" cy="471" fill="#ADD1B2" rx="11" ry="11" style="stroke:#A80036;stroke-width:1.0;"/><path d="M486.75,467.5 Q486.9531,467 487.1875,466.75 Q487.4219,466.5 487.6875,466.5 Q488.1563,466.5 488.4531,466.7813 Q488.75,467.0625 488.75,467.7188 L488.75,469.2813 Q488.75,469.9375 488.4688,470.2188 Q488.1875,470.5 487.75,470.5 Q487.3594,470.5 487.1094,470.3281 Q486.8594,470.1563 486.75,469.7031 Q486.7031,469.3906 486.5313,469.2188 Q486.2188,468.8906 485.6563,468.7031 Q485.0938,468.5 484.5313,468.5 Q483.8281,468.5 483.2344,468.7813 Q482.6563,469.0625 482.2031,469.6875 Q481.75,470.3125 481.75,471.1719 L481.75,472.0938 Q481.75,473.125 482.5938,473.8125 Q483.4375,474.5 484.9375,474.5 Q485.8281,474.5 486.4531,474.2969 Q486.8125,474.1875 487.2188,473.8281 Q487.4844,473.625 487.625,473.5625 Q487.7656,473.5 487.9375,473.5 Q488.2656,473.5 488.5,473.7656 Q488.75,474.0156 488.75,474.375 Q488.75,474.7188 488.4063,475.125 Q487.9063,475.7188 487.1094,476.0469 Q486.0625,476.5 484.7813,476.5 Q483.2813,476.5 482.0781,475.9063 Q481.1094,475.4375 480.4219,474.4219 Q479.75,473.4063 479.75,472.2031 L479.75,471.1094 Q479.75,469.8594 480.3438,468.7656 Q480.9531,467.6719 482,467.0938 Q483.0625,466.5 484.25,466.5 Q484.9688,466.5 485.5938,466.75 Q486.2188,467 486.75,467.5 Z " fill="#000000"/><text fill="#000000" font-family="sans-serif" font-size="12" lengthAdjust="spacing" textLength="41" x="505.25" y="475.9102">2DTree</text><line style="stroke:#A80036;stroke-width:1.5;" x1="430.5" x2="588.5" y1="487" y2="487"/><text fill="#000000" font-family="sans-serif" font-size="11" lengthAdjust="spacing" textLength="148" x="435.5" y="502.4189">-findNearestNeighbour(lat, lon)</text><!--MD5=[5a03d6507d51d9583d52cfaf8d4720dd]
link Company to PortStore--><path codeLine="43" d="M185.58,234 C180.43,259.4 174.14,290.46 169.77,311.99 " fill="none" id="Company-PortStore" style="stroke:#A80036;stroke-width:1.0;"/><polygon fill="#000000" points="183.5066,278.0761,188.184,269.7952,182.4233,268.6274,183.5066,278.0761" style="stroke:#000000;stroke-width:1.0;"/><text fill="#000000" font-family="sans-serif" font-size="13" lengthAdjust="spacing" textLength="28" x="193.5" y="278.4951">uses</text><text fill="#000000" font-family="sans-serif" font-size="13" lengthAdjust="spacing" textLength="7" x="176.8334" y="255.0076">1</text><text fill="#000000" font-family="sans-serif" font-size="13" lengthAdjust="spacing" textLength="7" x="163.2014" y="301.0143">1</text><!--MD5=[6b4a94d80660e97c6833bde801bd4c89]
link Company to ShipStore--><path codeLine="44" d="M237.07,226.2 C268.25,252.73 309.86,288.12 337.83,311.91 " fill="none" id="Company-ShipStore" style="stroke:#A80036;stroke-width:1.0;"/><polygon fill="#000000" points="310.3085,276.4154,305.3231,268.3163,301.5146,272.7934,310.3085,276.4154" style="stroke:#000000;stroke-width:1.0;"/><text fill="#000000" font-family="sans-serif" font-size="13" lengthAdjust="spacing" textLength="28" x="315.5" y="278.4951">uses</text><text fill="#000000" font-family="sans-serif" font-size="13" lengthAdjust="spacing" textLength="7" x="244.9883" y="228.7864">1</text><text fill="#000000" font-family="sans-serif" font-size="13" lengthAdjust="spacing" textLength="7" x="322.9282" y="301.3502">1</text><!--MD5=[f04e04ecc6998d67821b33eb17256457]
link ShipStore to Ship--><path codeLine="45" d="M364.41,366.19 C361.01,388.01 356.12,419.36 352.31,443.79 " fill="none" id="ShipStore-Ship" style="stroke:#A80036;stroke-width:1.0;"/><polygon fill="#000000" points="362.7297,410.1161,367.027,401.6318,361.2194,400.7262,362.7297,410.1161" style="stroke:#000000;stroke-width:1.0;"/><text fill="#000000" font-family="sans-serif" font-size="13" lengthAdjust="spacing" textLength="30" x="372.5" y="410.4951">owns</text><text fill="#000000" font-family="sans-serif" font-size="13" lengthAdjust="spacing" textLength="7" x="355.7497" y="387.4393">1</text><text fill="#000000" font-family="sans-serif" font-size="13" lengthAdjust="spacing" textLength="20" x="331.5637" y="433.1145">1..*</text><!--MD5=[f4a2ebf56cf8ea7abe7844eb6e1bc33a]
link Ship to PositionBST--><path codeLine="46" d="M346.5,520.05 C346.5,544.52 346.5,576.01 346.5,597.88 " fill="none" id="Ship-PositionBST" style="stroke:#A80036;stroke-width:1.0;"/><polygon fill="#000000" points="351.5,564.1758,354.4389,555.1307,348.5611,555.1307,351.5,564.1758" style="stroke:#000000;stroke-width:1.0;"/><text fill="#000000" font-family="sans-serif" font-size="13" lengthAdjust="spacing" textLength="28" x="360.5" y="564.4951">uses</text><text fill="#000000" font-family="sans-serif" font-size="13" lengthAdjust="spacing" textLength="7" x="338.9203" y="541.2284">1</text><text fill="#000000" font-family="sans-serif" font-size="13" lengthAdjust="spacing" textLength="7" x="338.6906" y="587.3132">1</text><!--MD5=[bcaed2728c4ac29fd365d26287364b33]
link PortStore to PortTree--><path codeLine="47" d="M164.5,366.19 C164.5,391.52 164.5,429.67 164.5,454.95 " fill="none" id="PortStore-PortTree" style="stroke:#A80036;stroke-width:1.0;"/><polygon fill="#000000" points="169.5,410.1758,172.4389,401.1307,166.5611,401.1307,169.5,410.1758" style="stroke:#000000;stroke-width:1.0;"/><text fill="#000000" font-family="sans-serif" font-size="13" lengthAdjust="spacing" textLength="28" x="178.5" y="410.4951">uses</text><text fill="#000000" font-family="sans-serif" font-size="13" lengthAdjust="spacing" textLength="7" x="156.7344" y="387.4393">1</text><text fill="#000000" font-family="sans-serif" font-size="13" lengthAdjust="spacing" textLength="7" x="156.6469" y="443.9645">1</text><!--MD5=[6056faced473df6790990bf2bf70277f]
link ClosestShipController to Company--><path codeLine="48" d="M123.72,83.31 C135.3,100.43 149.17,120.95 161.56,139.27 " fill="none" id="ClosestShipController-to-Company" style="stroke:#A80036;stroke-width:1.0;stroke-dasharray:7.0,7.0;"/><polygon fill="#A80036" points="164.67,143.88,162.9444,134.1835,161.8702,139.7374,156.3163,138.6632,164.67,143.88" style="stroke:#A80036;stroke-width:1.0;"/><!--MD5=[4858c830c0e9169a785b3421e0b96b04]
link ClosestShipController to PortTree--><path codeLine="49" d="M81.75,83.46 C56.87,144.78 17,269.41 55.5,366 C69.33,400.69 99.13,430.92 124.09,451.67 " fill="none" id="ClosestShipController-to-PortTree" style="stroke:#A80036;stroke-width:1.0;stroke-dasharray:7.0,7.0;"/><polygon fill="#A80036" points="128.05,454.92,123.6386,446.1143,124.1879,451.7445,118.5577,452.2938,128.05,454.92" style="stroke:#A80036;stroke-width:1.0;"/><!--MD5=[24e99e8a78fb9ede7105443a420dd783]
link ClosestShipController to PortStore--><path codeLine="50" d="M104.61,83.31 C111.08,121.4 122.08,182.13 134.5,234 C140.41,258.7 148.45,286.31 154.71,306.87 " fill="none" id="ClosestShipController-to-PortStore" style="stroke:#A80036;stroke-width:1.0;stroke-dasharray:7.0,7.0;"/><polygon fill="#A80036" points="156.18,311.68,157.3584,301.9019,154.7106,306.9008,149.7117,304.253,156.18,311.68" style="stroke:#A80036;stroke-width:1.0;"/><!--MD5=[92e1ce051a19a85e596366581f0b4abe]
link PortTree to 2DTree--><path codeLine="51" d="M199.9,454.86 C225.78,436.8 262.6,414.68 299,405 C340.23,394.03 354.19,392.55 395,405 C419.94,412.6 444.36,427.66 464.21,442.46 " fill="none" id="PortTree-to-2DTree" style="stroke:#A80036;stroke-width:1.0;"/><polygon fill="none" points="468.66,437.05,480.04,454.92,459.99,448.05,468.66,437.05" style="stroke:#A80036;stroke-width:1.0;"/><!--MD5=[82aa22caff22289cb993693602e369c5]
@startuml

hide empty methods
hide empty attributes
'left to right direction
skinparam classAttributeIconSize 0

class ClosestShipController {
-company
- findClosestPort(callSign, dateTime)
}

class Ship {
-positionBST
-getPositionBST()
}

class ShipStore {
-getShipByAnyCode(callSign)
}

class PositionBST {
-getPosInDateTime(dateTime)
}

class Company {
- designation
- portStore
- getPortStore()
}

class PortStore {
- findClosestPort(callSign, dateTime)
}

class PortTree {
- findClosestPort(coordinates)
}

class 2DTree{
-findNearestNeighbour(lat, lon)
}

Company "1" - - "1" PortStore : uses >
Company "1" - - "1" ShipStore : uses >
ShipStore "1" - - "1..*" Ship : owns >
Ship "1" - - "1" PositionBST : uses >
PortStore "1" - - "1" PortTree : uses >
ClosestShipController ..> Company
ClosestShipController ..> PortTree
ClosestShipController ..> PortStore
PortTree -|> 2DTree



@enduml

@startuml

hide empty methods
hide empty attributes
skinparam classAttributeIconSize 0

class ClosestShipController {
-company
- findClosestPort(callSign, dateTime)
}

class Ship {
-positionBST
-getPositionBST()
}

class ShipStore {
-getShipByAnyCode(callSign)
}

class PositionBST {
-getPosInDateTime(dateTime)
}

class Company {
- designation
- portStore
- getPortStore()
}

class PortStore {
- findClosestPort(callSign, dateTime)
}

class PortTree {
- findClosestPort(coordinates)
}

class 2DTree{
-findNearestNeighbour(lat, lon)
}

Company "1" - - "1" PortStore : uses >
Company "1" - - "1" ShipStore : uses >
ShipStore "1" - - "1..*" Ship : owns >
Ship "1" - - "1" PositionBST : uses >
PortStore "1" - - "1" PortTree : uses >
ClosestShipController ..> Company
ClosestShipController ..> PortTree
ClosestShipController ..> PortStore
PortTree -|> 2DTree



@enduml

PlantUML version 1.2021.11(Sat Oct 02 14:26:11 BST 2021)
(GPL source distribution)
Java Runtime: OpenJDK Runtime Environment
JVM: OpenJDK 64-Bit Server VM
Default Encoding: Cp1252
Language: pt
Country: PT
--></g></svg>