<?xml version="1.0" encoding="UTF-8" standalone="no"?><svg xmlns="http://www.w3.org/2000/svg" xmlns:xlink="http://www.w3.org/1999/xlink" contentScriptType="application/ecmascript" contentStyleType="text/css" height="980px" preserveAspectRatio="none" style="width:582px;height:980px;background:#FFFFFF;" version="1.1" viewBox="0 0 582 980" width="582px" zoomAndPan="magnify"><defs><filter height="300%" id="fv6mo3naoo5m9" width="300%" x="-1" y="-1"><feGaussianBlur result="blurOut" stdDeviation="2.0"/><feColorMatrix in="blurOut" result="blurOut2" type="matrix" values="0 0 0 0 0 0 0 0 0 0 0 0 0 0 0 0 0 0 .4 0"/><feOffset dx="4.0" dy="4.0" in="blurOut2" result="blurOut3"/><feBlend in="SourceGraphic" in2="blurOut3" mode="normal"/></filter></defs><g><!--MD5=[0dc7f2ddb409b58bcf52b12238c25399]
class Ship--><rect codeLine="5" fill="#FEFECE" filter="url(#fv6mo3naoo5m9)" height="144.8516" id="Ship" style="stroke:#A80036;stroke-width:1.5;" width="93" x="138.5" y="822"/><ellipse cx="169.7" cy="838" fill="#ADD1B2" rx="11" ry="11" style="stroke:#A80036;stroke-width:1.0;"/><path d="M171.7,834.5 Q171.9031,834 172.1375,833.75 Q172.3719,833.5 172.6375,833.5 Q173.1063,833.5 173.4031,833.7813 Q173.7,834.0625 173.7,834.7188 L173.7,836.2813 Q173.7,836.9375 173.4188,837.2188 Q173.1375,837.5 172.7,837.5 Q172.3094,837.5 172.0594,837.3281 Q171.8094,837.1563 171.7,836.7031 Q171.6531,836.3906 171.4813,836.2188 Q171.1688,835.8906 170.6063,835.7031 Q170.0438,835.5 169.4813,835.5 Q168.7781,835.5 168.1844,835.7813 Q167.6063,836.0625 167.1531,836.6875 Q166.7,837.3125 166.7,838.1719 L166.7,839.0938 Q166.7,840.125 167.5438,840.8125 Q168.3875,841.5 169.8875,841.5 Q170.7781,841.5 171.4031,841.2969 Q171.7625,841.1875 172.1688,840.8281 Q172.4344,840.625 172.575,840.5625 Q172.7156,840.5 172.8875,840.5 Q173.2156,840.5 173.45,840.7656 Q173.7,841.0156 173.7,841.375 Q173.7,841.7188 173.3563,842.125 Q172.8563,842.7188 172.0594,843.0469 Q171.0125,843.5 169.7313,843.5 Q168.2313,843.5 167.0281,842.9063 Q166.0594,842.4375 165.3719,841.4219 Q164.7,840.4063 164.7,839.2031 L164.7,838.1094 Q164.7,836.8594 165.2938,835.7656 Q165.9031,834.6719 166.95,834.0938 Q168.0125,833.5 169.2,833.5 Q169.9188,833.5 170.5438,833.75 Q171.1688,834 171.7,834.5 Z " fill="#000000"/><text fill="#000000" font-family="sans-serif" font-size="12" lengthAdjust="spacing" textLength="25" x="187.3" y="842.9102">Ship</text><line style="stroke:#A80036;stroke-width:1.5;" x1="139.5" x2="230.5" y1="854" y2="854"/><text fill="#000000" font-family="sans-serif" font-size="11" lengthAdjust="spacing" textLength="61" x="144.5" y="869.4189">-mmmsiCode</text><text fill="#000000" font-family="sans-serif" font-size="11" lengthAdjust="spacing" textLength="51" x="144.5" y="883.2549">-shipName</text><text fill="#000000" font-family="sans-serif" font-size="11" lengthAdjust="spacing" textLength="45" x="144.5" y="897.0908">-imoCode</text><text fill="#000000" font-family="sans-serif" font-size="11" lengthAdjust="spacing" textLength="49" x="144.5" y="910.9268">-callSignId</text><text fill="#000000" font-family="sans-serif" font-size="11" lengthAdjust="spacing" textLength="81" x="144.5" y="924.7627">-currentCapacity</text><text fill="#000000" font-family="sans-serif" font-size="11" lengthAdjust="spacing" textLength="27" x="144.5" y="938.5986">-draft</text><line style="stroke:#A80036;stroke-width:1.5;" x1="139.5" x2="230.5" y1="945.0156" y2="945.0156"/><text fill="#000000" font-family="sans-serif" font-size="11" lengthAdjust="spacing" textLength="52" x="144.5" y="960.4346">-getMMSI()</text><!--MD5=[1c0c3765e68dc4575d559b566278b914]
class ShipPosition--><rect codeLine="16" fill="#FEFECE" filter="url(#fv6mo3naoo5m9)" height="158.6875" id="ShipPosition" style="stroke:#A80036;stroke-width:1.5;" width="102" x="158" y="171"/><ellipse cx="173" cy="187" fill="#ADD1B2" rx="11" ry="11" style="stroke:#A80036;stroke-width:1.0;"/><path d="M175,183.5 Q175.2031,183 175.4375,182.75 Q175.6719,182.5 175.9375,182.5 Q176.4063,182.5 176.7031,182.7813 Q177,183.0625 177,183.7188 L177,185.2813 Q177,185.9375 176.7188,186.2188 Q176.4375,186.5 176,186.5 Q175.6094,186.5 175.3594,186.3281 Q175.1094,186.1563 175,185.7031 Q174.9531,185.3906 174.7813,185.2188 Q174.4688,184.8906 173.9063,184.7031 Q173.3438,184.5 172.7813,184.5 Q172.0781,184.5 171.4844,184.7813 Q170.9063,185.0625 170.4531,185.6875 Q170,186.3125 170,187.1719 L170,188.0938 Q170,189.125 170.8438,189.8125 Q171.6875,190.5 173.1875,190.5 Q174.0781,190.5 174.7031,190.2969 Q175.0625,190.1875 175.4688,189.8281 Q175.7344,189.625 175.875,189.5625 Q176.0156,189.5 176.1875,189.5 Q176.5156,189.5 176.75,189.7656 Q177,190.0156 177,190.375 Q177,190.7188 176.6563,191.125 Q176.1563,191.7188 175.3594,192.0469 Q174.3125,192.5 173.0313,192.5 Q171.5313,192.5 170.3281,191.9063 Q169.3594,191.4375 168.6719,190.4219 Q168,189.4063 168,188.2031 L168,187.1094 Q168,185.8594 168.5938,184.7656 Q169.2031,183.6719 170.25,183.0938 Q171.3125,182.5 172.5,182.5 Q173.2188,182.5 173.8438,182.75 Q174.4688,183 175,183.5 Z " fill="#000000"/><text fill="#000000" font-family="sans-serif" font-size="12" lengthAdjust="spacing" textLength="70" x="187" y="191.9102">ShipPosition</text><line style="stroke:#A80036;stroke-width:1.5;" x1="159" x2="259" y1="203" y2="203"/><text fill="#000000" font-family="sans-serif" font-size="11" lengthAdjust="spacing" textLength="72" x="164" y="218.4189">-baseDateTime</text><text fill="#000000" font-family="sans-serif" font-size="11" lengthAdjust="spacing" textLength="38" x="164" y="232.2549">-latitude</text><text fill="#000000" font-family="sans-serif" font-size="11" lengthAdjust="spacing" textLength="47" x="164" y="246.0908">-longitude</text><text fill="#000000" font-family="sans-serif" font-size="11" lengthAdjust="spacing" textLength="22" x="164" y="259.9268">-sog</text><text fill="#000000" font-family="sans-serif" font-size="11" lengthAdjust="spacing" textLength="22" x="164" y="273.7627">-cog</text><text fill="#000000" font-family="sans-serif" font-size="11" lengthAdjust="spacing" textLength="42" x="164" y="287.5986">-heading</text><text fill="#000000" font-family="sans-serif" font-size="11" lengthAdjust="spacing" textLength="41" x="164" y="301.4346">-position</text><text fill="#000000" font-family="sans-serif" font-size="11" lengthAdjust="spacing" textLength="59" x="164" y="315.2705">-transceiver</text><line style="stroke:#A80036;stroke-width:1.5;" x1="159" x2="259" y1="321.6875" y2="321.6875"/><!--MD5=[ea2206eefe09474e90beb17e18e6b3d8]
class ShipStore--><rect codeLine="27" fill="#FEFECE" filter="url(#fv6mo3naoo5m9)" height="61.8359" id="ShipStore" style="stroke:#A80036;stroke-width:1.5;" width="106" x="98" y="531"/><ellipse cx="122" cy="547" fill="#ADD1B2" rx="11" ry="11" style="stroke:#A80036;stroke-width:1.0;"/><path d="M124,543.5 Q124.2031,543 124.4375,542.75 Q124.6719,542.5 124.9375,542.5 Q125.4063,542.5 125.7031,542.7813 Q126,543.0625 126,543.7188 L126,545.2813 Q126,545.9375 125.7188,546.2188 Q125.4375,546.5 125,546.5 Q124.6094,546.5 124.3594,546.3281 Q124.1094,546.1563 124,545.7031 Q123.9531,545.3906 123.7813,545.2188 Q123.4688,544.8906 122.9063,544.7031 Q122.3438,544.5 121.7813,544.5 Q121.0781,544.5 120.4844,544.7813 Q119.9063,545.0625 119.4531,545.6875 Q119,546.3125 119,547.1719 L119,548.0938 Q119,549.125 119.8438,549.8125 Q120.6875,550.5 122.1875,550.5 Q123.0781,550.5 123.7031,550.2969 Q124.0625,550.1875 124.4688,549.8281 Q124.7344,549.625 124.875,549.5625 Q125.0156,549.5 125.1875,549.5 Q125.5156,549.5 125.75,549.7656 Q126,550.0156 126,550.375 Q126,550.7188 125.6563,551.125 Q125.1563,551.7188 124.3594,552.0469 Q123.3125,552.5 122.0313,552.5 Q120.5313,552.5 119.3281,551.9063 Q118.3594,551.4375 117.6719,550.4219 Q117,549.4063 117,548.2031 L117,547.1094 Q117,545.8594 117.5938,544.7656 Q118.2031,543.6719 119.25,543.0938 Q120.3125,542.5 121.5,542.5 Q122.2188,542.5 122.8438,542.75 Q123.4688,543 124,543.5 Z " fill="#000000"/><text fill="#000000" font-family="sans-serif" font-size="12" lengthAdjust="spacing" textLength="54" x="138" y="551.9102">ShipStore</text><line style="stroke:#A80036;stroke-width:1.5;" x1="99" x2="203" y1="563" y2="563"/><line style="stroke:#A80036;stroke-width:1.5;" x1="99" x2="203" y1="571" y2="571"/><text fill="#000000" font-family="sans-serif" font-size="11" lengthAdjust="spacing" textLength="94" x="104" y="586.4189">-getShipsBstMmsi()</text><!--MD5=[19e74cea73e446019a87a940af6212a7]
class AllShipUI--><rect codeLine="32" fill="#FEFECE" filter="url(#fv6mo3naoo5m9)" height="48" id="AllShipUI" style="stroke:#A80036;stroke-width:1.5;" width="82" x="297" y="34.5"/><ellipse cx="312" cy="50.5" fill="#ADD1B2" rx="11" ry="11" style="stroke:#A80036;stroke-width:1.0;"/><path d="M314,47 Q314.2031,46.5 314.4375,46.25 Q314.6719,46 314.9375,46 Q315.4063,46 315.7031,46.2813 Q316,46.5625 316,47.2188 L316,48.7813 Q316,49.4375 315.7188,49.7188 Q315.4375,50 315,50 Q314.6094,50 314.3594,49.8281 Q314.1094,49.6563 314,49.2031 Q313.9531,48.8906 313.7813,48.7188 Q313.4688,48.3906 312.9063,48.2031 Q312.3438,48 311.7813,48 Q311.0781,48 310.4844,48.2813 Q309.9063,48.5625 309.4531,49.1875 Q309,49.8125 309,50.6719 L309,51.5938 Q309,52.625 309.8438,53.3125 Q310.6875,54 312.1875,54 Q313.0781,54 313.7031,53.7969 Q314.0625,53.6875 314.4688,53.3281 Q314.7344,53.125 314.875,53.0625 Q315.0156,53 315.1875,53 Q315.5156,53 315.75,53.2656 Q316,53.5156 316,53.875 Q316,54.2188 315.6563,54.625 Q315.1563,55.2188 314.3594,55.5469 Q313.3125,56 312.0313,56 Q310.5313,56 309.3281,55.4063 Q308.3594,54.9375 307.6719,53.9219 Q307,52.9063 307,51.7031 L307,50.6094 Q307,49.3594 307.5938,48.2656 Q308.2031,47.1719 309.25,46.5938 Q310.3125,46 311.5,46 Q312.2188,46 312.8438,46.25 Q313.4688,46.5 314,47 Z " fill="#000000"/><text fill="#000000" font-family="sans-serif" font-size="12" lengthAdjust="spacing" textLength="50" x="326" y="55.4102">AllShipUI</text><line style="stroke:#A80036;stroke-width:1.5;" x1="298" x2="378" y1="66.5" y2="66.5"/><line style="stroke:#A80036;stroke-width:1.5;" x1="298" x2="378" y1="74.5" y2="74.5"/><!--MD5=[72564024431802abc150a50c06a075ba]
class AllShipMMSIController--><rect codeLine="34" fill="#FEFECE" filter="url(#fv6mo3naoo5m9)" height="75.6719" id="AllShipMMSIController" style="stroke:#A80036;stroke-width:1.5;" width="154" x="414" y="20.5"/><ellipse cx="429.45" cy="36.5" fill="#ADD1B2" rx="11" ry="11" style="stroke:#A80036;stroke-width:1.0;"/><path d="M431.45,33 Q431.6531,32.5 431.8875,32.25 Q432.1219,32 432.3875,32 Q432.8563,32 433.1531,32.2813 Q433.45,32.5625 433.45,33.2188 L433.45,34.7813 Q433.45,35.4375 433.1688,35.7188 Q432.8875,36 432.45,36 Q432.0594,36 431.8094,35.8281 Q431.5594,35.6563 431.45,35.2031 Q431.4031,34.8906 431.2313,34.7188 Q430.9188,34.3906 430.3563,34.2031 Q429.7938,34 429.2313,34 Q428.5281,34 427.9344,34.2813 Q427.3563,34.5625 426.9031,35.1875 Q426.45,35.8125 426.45,36.6719 L426.45,37.5938 Q426.45,38.625 427.2938,39.3125 Q428.1375,40 429.6375,40 Q430.5281,40 431.1531,39.7969 Q431.5125,39.6875 431.9188,39.3281 Q432.1844,39.125 432.325,39.0625 Q432.4656,39 432.6375,39 Q432.9656,39 433.2,39.2656 Q433.45,39.5156 433.45,39.875 Q433.45,40.2188 433.1063,40.625 Q432.6063,41.2188 431.8094,41.5469 Q430.7625,42 429.4813,42 Q427.9813,42 426.7781,41.4063 Q425.8094,40.9375 425.1219,39.9219 Q424.45,38.9063 424.45,37.7031 L424.45,36.6094 Q424.45,35.3594 425.0438,34.2656 Q425.6531,33.1719 426.7,32.5938 Q427.7625,32 428.95,32 Q429.6688,32 430.2938,32.25 Q430.9188,32.5 431.45,33 Z " fill="#000000"/><text fill="#000000" font-family="sans-serif" font-size="12" lengthAdjust="spacing" textLength="121" x="443.55" y="41.4102">AllShipMMSIController</text><line style="stroke:#A80036;stroke-width:1.5;" x1="415" x2="567" y1="52.5" y2="52.5"/><line style="stroke:#A80036;stroke-width:1.5;" x1="415" x2="567" y1="60.5" y2="60.5"/><text fill="#000000" font-family="sans-serif" font-size="11" lengthAdjust="spacing" textLength="142" x="420" y="75.9189">-sortedByTravelledDistance()</text><text fill="#000000" font-family="sans-serif" font-size="11" lengthAdjust="spacing" textLength="134" x="420" y="89.7549">-sortedByTotalMovements()</text><!--MD5=[43adf079e4aaffd3a283c2c0454b404c]
class ShipsBST--><rect codeLine="39" fill="#FEFECE" filter="url(#fv6mo3naoo5m9)" height="89.5078" id="ShipsBST" style="stroke:#A80036;stroke-width:1.5;" width="154" x="50" y="654"/><ellipse cx="95.25" cy="670" fill="#ADD1B2" rx="11" ry="11" style="stroke:#A80036;stroke-width:1.0;"/><path d="M97.25,666.5 Q97.4531,666 97.6875,665.75 Q97.9219,665.5 98.1875,665.5 Q98.6563,665.5 98.9531,665.7813 Q99.25,666.0625 99.25,666.7188 L99.25,668.2813 Q99.25,668.9375 98.9688,669.2188 Q98.6875,669.5 98.25,669.5 Q97.8594,669.5 97.6094,669.3281 Q97.3594,669.1563 97.25,668.7031 Q97.2031,668.3906 97.0313,668.2188 Q96.7188,667.8906 96.1563,667.7031 Q95.5938,667.5 95.0313,667.5 Q94.3281,667.5 93.7344,667.7813 Q93.1563,668.0625 92.7031,668.6875 Q92.25,669.3125 92.25,670.1719 L92.25,671.0938 Q92.25,672.125 93.0938,672.8125 Q93.9375,673.5 95.4375,673.5 Q96.3281,673.5 96.9531,673.2969 Q97.3125,673.1875 97.7188,672.8281 Q97.9844,672.625 98.125,672.5625 Q98.2656,672.5 98.4375,672.5 Q98.7656,672.5 99,672.7656 Q99.25,673.0156 99.25,673.375 Q99.25,673.7188 98.9063,674.125 Q98.4063,674.7188 97.6094,675.0469 Q96.5625,675.5 95.2813,675.5 Q93.7813,675.5 92.5781,674.9063 Q91.6094,674.4375 90.9219,673.4219 Q90.25,672.4063 90.25,671.2031 L90.25,670.1094 Q90.25,668.8594 90.8438,667.7656 Q91.4531,666.6719 92.5,666.0938 Q93.5625,665.5 94.75,665.5 Q95.4688,665.5 96.0938,665.75 Q96.7188,666 97.25,666.5 Z " fill="#000000"/><text fill="#000000" font-family="sans-serif" font-size="12" lengthAdjust="spacing" textLength="55" x="115.75" y="674.9102">ShipsBST</text><line style="stroke:#A80036;stroke-width:1.5;" x1="51" x2="203" y1="686" y2="686"/><line style="stroke:#A80036;stroke-width:1.5;" x1="51" x2="203" y1="694" y2="694"/><text fill="#000000" font-family="sans-serif" font-size="11" lengthAdjust="spacing" textLength="66" x="56" y="709.4189">-getAllShips()</text><text fill="#000000" font-family="sans-serif" font-size="11" lengthAdjust="spacing" textLength="142" x="56" y="723.2549">-sortedByTravelledDistance()</text><text fill="#000000" font-family="sans-serif" font-size="11" lengthAdjust="spacing" textLength="122" x="56" y="737.0908">-sortByTotalMovements()</text><!--MD5=[4901be1d1d8a5c23fb0daf47783de1b7]
class PositionBST--><rect codeLine="45" fill="#FEFECE" filter="url(#fv6mo3naoo5m9)" height="103.3438" id="PositionBST" style="stroke:#A80036;stroke-width:1.5;" width="105" x="156.5" y="7"/><ellipse cx="173.75" cy="23" fill="#ADD1B2" rx="11" ry="11" style="stroke:#A80036;stroke-width:1.0;"/><path d="M175.75,19.5 Q175.9531,19 176.1875,18.75 Q176.4219,18.5 176.6875,18.5 Q177.1563,18.5 177.4531,18.7813 Q177.75,19.0625 177.75,19.7188 L177.75,21.2813 Q177.75,21.9375 177.4688,22.2188 Q177.1875,22.5 176.75,22.5 Q176.3594,22.5 176.1094,22.3281 Q175.8594,22.1563 175.75,21.7031 Q175.7031,21.3906 175.5313,21.2188 Q175.2188,20.8906 174.6563,20.7031 Q174.0938,20.5 173.5313,20.5 Q172.8281,20.5 172.2344,20.7813 Q171.6563,21.0625 171.2031,21.6875 Q170.75,22.3125 170.75,23.1719 L170.75,24.0938 Q170.75,25.125 171.5938,25.8125 Q172.4375,26.5 173.9375,26.5 Q174.8281,26.5 175.4531,26.2969 Q175.8125,26.1875 176.2188,25.8281 Q176.4844,25.625 176.625,25.5625 Q176.7656,25.5 176.9375,25.5 Q177.2656,25.5 177.5,25.7656 Q177.75,26.0156 177.75,26.375 Q177.75,26.7188 177.4063,27.125 Q176.9063,27.7188 176.1094,28.0469 Q175.0625,28.5 173.7813,28.5 Q172.2813,28.5 171.0781,27.9063 Q170.1094,27.4375 169.4219,26.4219 Q168.75,25.4063 168.75,24.2031 L168.75,23.1094 Q168.75,21.8594 169.3438,20.7656 Q169.9531,19.6719 171,19.0938 Q172.0625,18.5 173.25,18.5 Q173.9688,18.5 174.5938,18.75 Q175.2188,19 175.75,19.5 Z " fill="#000000"/><text fill="#000000" font-family="sans-serif" font-size="12" lengthAdjust="spacing" textLength="68" x="188.25" y="27.9102">PositionBST</text><line style="stroke:#A80036;stroke-width:1.5;" x1="157.5" x2="260.5" y1="39" y2="39"/><line style="stroke:#A80036;stroke-width:1.5;" x1="157.5" x2="260.5" y1="47" y2="47"/><text fill="#000000" font-family="sans-serif" font-size="11" lengthAdjust="spacing" textLength="32" x="162.5" y="62.4189">-size()</text><text fill="#000000" font-family="sans-serif" font-size="11" lengthAdjust="spacing" textLength="92" x="162.5" y="76.2549">-getTotalDistance()</text><text fill="#000000" font-family="sans-serif" font-size="11" lengthAdjust="spacing" textLength="32" x="162.5" y="90.0908">-size()</text><text fill="#000000" font-family="sans-serif" font-size="11" lengthAdjust="spacing" textLength="93" x="162.5" y="103.9268">-getDeltaDistance()</text><!--MD5=[02e4b9b7573f1156f41e60aa5b4e25a4]
class Company--><rect codeLine="51" fill="#FEFECE" filter="url(#fv6mo3naoo5m9)" height="61.8359" id="Company" style="stroke:#A80036;stroke-width:1.5;" width="86" x="108" y="391"/><ellipse cx="123.45" cy="407" fill="#ADD1B2" rx="11" ry="11" style="stroke:#A80036;stroke-width:1.0;"/><path d="M125.45,403.5 Q125.6531,403 125.8875,402.75 Q126.1219,402.5 126.3875,402.5 Q126.8563,402.5 127.1531,402.7813 Q127.45,403.0625 127.45,403.7188 L127.45,405.2813 Q127.45,405.9375 127.1688,406.2188 Q126.8875,406.5 126.45,406.5 Q126.0594,406.5 125.8094,406.3281 Q125.5594,406.1563 125.45,405.7031 Q125.4031,405.3906 125.2313,405.2188 Q124.9188,404.8906 124.3563,404.7031 Q123.7938,404.5 123.2313,404.5 Q122.5281,404.5 121.9344,404.7813 Q121.3563,405.0625 120.9031,405.6875 Q120.45,406.3125 120.45,407.1719 L120.45,408.0938 Q120.45,409.125 121.2938,409.8125 Q122.1375,410.5 123.6375,410.5 Q124.5281,410.5 125.1531,410.2969 Q125.5125,410.1875 125.9188,409.8281 Q126.1844,409.625 126.325,409.5625 Q126.4656,409.5 126.6375,409.5 Q126.9656,409.5 127.2,409.7656 Q127.45,410.0156 127.45,410.375 Q127.45,410.7188 127.1063,411.125 Q126.6063,411.7188 125.8094,412.0469 Q124.7625,412.5 123.4813,412.5 Q121.9813,412.5 120.7781,411.9063 Q119.8094,411.4375 119.1219,410.4219 Q118.45,409.4063 118.45,408.2031 L118.45,407.1094 Q118.45,405.8594 119.0438,404.7656 Q119.6531,403.6719 120.7,403.0938 Q121.7625,402.5 122.95,402.5 Q123.6688,402.5 124.2938,402.75 Q124.9188,403 125.45,403.5 Z " fill="#000000"/><text fill="#000000" font-family="sans-serif" font-size="12" lengthAdjust="spacing" textLength="53" x="137.55" y="411.9102">Company</text><line style="stroke:#A80036;stroke-width:1.5;" x1="109" x2="193" y1="423" y2="423"/><line style="stroke:#A80036;stroke-width:1.5;" x1="109" x2="193" y1="431" y2="431"/><text fill="#000000" font-family="sans-serif" font-size="11" lengthAdjust="spacing" textLength="74" x="114" y="446.4189">-getShipStore()</text><!--MD5=[0e45b0aabfddc08aa78c1863dca6c01d]
class TopNUI--><rect fill="#FEFECE" filter="url(#fv6mo3naoo5m9)" height="48" id="TopNUI" style="stroke:#A80036;stroke-width:1.5;" width="74" x="28" y="34.5"/><ellipse cx="43" cy="50.5" fill="#ADD1B2" rx="11" ry="11" style="stroke:#A80036;stroke-width:1.0;"/><path d="M45,47 Q45.2031,46.5 45.4375,46.25 Q45.6719,46 45.9375,46 Q46.4063,46 46.7031,46.2813 Q47,46.5625 47,47.2188 L47,48.7813 Q47,49.4375 46.7188,49.7188 Q46.4375,50 46,50 Q45.6094,50 45.3594,49.8281 Q45.1094,49.6563 45,49.2031 Q44.9531,48.8906 44.7813,48.7188 Q44.4688,48.3906 43.9063,48.2031 Q43.3438,48 42.7813,48 Q42.0781,48 41.4844,48.2813 Q40.9063,48.5625 40.4531,49.1875 Q40,49.8125 40,50.6719 L40,51.5938 Q40,52.625 40.8438,53.3125 Q41.6875,54 43.1875,54 Q44.0781,54 44.7031,53.7969 Q45.0625,53.6875 45.4688,53.3281 Q45.7344,53.125 45.875,53.0625 Q46.0156,53 46.1875,53 Q46.5156,53 46.75,53.2656 Q47,53.5156 47,53.875 Q47,54.2188 46.6563,54.625 Q46.1563,55.2188 45.3594,55.5469 Q44.3125,56 43.0313,56 Q41.5313,56 40.3281,55.4063 Q39.3594,54.9375 38.6719,53.9219 Q38,52.9063 38,51.7031 L38,50.6094 Q38,49.3594 38.5938,48.2656 Q39.2031,47.1719 40.25,46.5938 Q41.3125,46 42.5,46 Q43.2188,46 43.8438,46.25 Q44.4688,46.5 45,47 Z " fill="#000000"/><text fill="#000000" font-family="sans-serif" font-size="12" lengthAdjust="spacing" textLength="42" x="57" y="55.4102">TopNUI</text><line style="stroke:#A80036;stroke-width:1.5;" x1="29" x2="101" y1="66.5" y2="66.5"/><line style="stroke:#A80036;stroke-width:1.5;" x1="29" x2="101" y1="74.5" y2="74.5"/><!--MD5=[d5574e99f1a38922926a27ad66b4faf7]
class TopNController--><rect fill="#FEFECE" filter="url(#fv6mo3naoo5m9)" height="48" id="TopNController" style="stroke:#A80036;stroke-width:1.5;" width="116" x="7" y="226.5"/><ellipse cx="22" cy="242.5" fill="#ADD1B2" rx="11" ry="11" style="stroke:#A80036;stroke-width:1.0;"/><path d="M24,239 Q24.2031,238.5 24.4375,238.25 Q24.6719,238 24.9375,238 Q25.4063,238 25.7031,238.2813 Q26,238.5625 26,239.2188 L26,240.7813 Q26,241.4375 25.7188,241.7188 Q25.4375,242 25,242 Q24.6094,242 24.3594,241.8281 Q24.1094,241.6563 24,241.2031 Q23.9531,240.8906 23.7813,240.7188 Q23.4688,240.3906 22.9063,240.2031 Q22.3438,240 21.7813,240 Q21.0781,240 20.4844,240.2813 Q19.9063,240.5625 19.4531,241.1875 Q19,241.8125 19,242.6719 L19,243.5938 Q19,244.625 19.8438,245.3125 Q20.6875,246 22.1875,246 Q23.0781,246 23.7031,245.7969 Q24.0625,245.6875 24.4688,245.3281 Q24.7344,245.125 24.875,245.0625 Q25.0156,245 25.1875,245 Q25.5156,245 25.75,245.2656 Q26,245.5156 26,245.875 Q26,246.2188 25.6563,246.625 Q25.1563,247.2188 24.3594,247.5469 Q23.3125,248 22.0313,248 Q20.5313,248 19.3281,247.4063 Q18.3594,246.9375 17.6719,245.9219 Q17,244.9063 17,243.7031 L17,242.6094 Q17,241.3594 17.5938,240.2656 Q18.2031,239.1719 19.25,238.5938 Q20.3125,238 21.5,238 Q22.2188,238 22.8438,238.25 Q23.4688,238.5 24,239 Z " fill="#000000"/><text fill="#000000" font-family="sans-serif" font-size="12" lengthAdjust="spacing" textLength="84" x="36" y="247.4102">TopNController</text><line style="stroke:#A80036;stroke-width:1.5;" x1="8" x2="122" y1="258.5" y2="258.5"/><line style="stroke:#A80036;stroke-width:1.5;" x1="8" x2="122" y1="266.5" y2="266.5"/><!--MD5=[6b4a94d80660e97c6833bde801bd4c89]
link Company to ShipStore--><path codeLine="56" d="M151,453.28 C151,476.29 151,507.79 151,530.79 " fill="none" id="Company-ShipStore" style="stroke:#A80036;stroke-width:1.0;"/><polygon fill="#000000" points="156,497.1758,158.9389,488.1307,153.0611,488.1307,156,497.1758" style="stroke:#000000;stroke-width:1.0;"/><text fill="#000000" font-family="sans-serif" font-size="13" lengthAdjust="spacing" textLength="28" x="165" y="497.4951">uses</text><text fill="#000000" font-family="sans-serif" font-size="13" lengthAdjust="spacing" textLength="7" x="143.3328" y="474.312">1</text><text fill="#000000" font-family="sans-serif" font-size="13" lengthAdjust="spacing" textLength="7" x="143.2781" y="520.2512">1</text><!--MD5=[c2acce4d7c8ab8c40d74533e9dec3e3c]
link ShipStore to ShipsBST--><path codeLine="57" d="M145.61,593.3 C142.71,609.64 139.05,630.22 135.75,648.79 " fill="none" id="ShipStore-to-ShipsBST" style="stroke:#A80036;stroke-width:1.0;stroke-dasharray:7.0,7.0;"/><polygon fill="#A80036" points="134.83,653.97,140.3588,645.8194,135.7144,649.0488,132.485,644.4044,134.83,653.97" style="stroke:#A80036;stroke-width:1.0;"/><!--MD5=[b457ea32acbd230d0e22037aaab2ac98]
link ShipsBST to Ship--><path codeLine="58" d="M140.31,744.39 C147.16,767.27 155.69,795.73 163.46,821.63 " fill="none" id="ShipsBST-Ship" style="stroke:#A80036;stroke-width:1.0;"/><polygon fill="#000000" points="161.4355,787.9653,161.6539,778.4572,156.0235,780.1447,161.4355,787.9653" style="stroke:#000000;stroke-width:1.0;"/><text fill="#000000" font-family="sans-serif" font-size="13" lengthAdjust="spacing" textLength="30" x="169" y="788.4951">owns</text><text fill="#000000" font-family="sans-serif" font-size="13" lengthAdjust="spacing" textLength="7" x="134.6282" y="765.1161">1</text><text fill="#000000" font-family="sans-serif" font-size="13" lengthAdjust="spacing" textLength="20" x="140.3553" y="811.1891">1..*</text><!--MD5=[b457ea32acbd230d0e22037aaab2ac98]
link ShipsBST to Ship--><path codeLine="62" d="M136.58,744.24 C140.14,759.47 144.43,776.57 149,792 C151.37,800.02 154.02,808.33 156.76,816.59 " fill="none" id="ShipsBST-to-Ship" style="stroke:#A80036;stroke-width:1.0;stroke-dasharray:7.0,7.0;"/><polygon fill="#A80036" points="158.48,821.73,159.4198,811.9261,156.8946,816.988,151.8326,814.4628,158.48,821.73" style="stroke:#A80036;stroke-width:1.0;"/><!--MD5=[7cc50e14082cb2e4b2cc921c8068a5a4]
link TopNUI to TopNController--><path codeLine="59" d="M65,82.8 C65,117.65 65,183.28 65,220.96 " fill="none" id="TopNUI-to-TopNController" style="stroke:#A80036;stroke-width:1.0;stroke-dasharray:7.0,7.0;"/><polygon fill="#A80036" points="65,226.31,69,217.31,65,221.31,61,217.31,65,226.31" style="stroke:#A80036;stroke-width:1.0;"/><!--MD5=[bfb718339d3fb6fc289b9afa9807163e]
link TopNController to ShipsBST--><path codeLine="60" d="M63.07,274.69 C59.05,330.44 52.32,476.06 80,593 C84.5,612.01 92.42,631.82 100.49,649.04 " fill="none" id="TopNController-to-ShipsBST" style="stroke:#A80036;stroke-width:1.0;stroke-dasharray:7.0,7.0;"/><polygon fill="#A80036" points="102.77,653.83,102.4987,643.9849,100.6142,649.3186,95.2805,647.4341,102.77,653.83" style="stroke:#A80036;stroke-width:1.0;"/><!--MD5=[c5ded413ebf5d3a6ffffa9ef097420d3]
link TopNController to Company--><path codeLine="61" d="M76.78,274.71 C91.38,303.49 116.4,352.8 133.31,386.14 " fill="none" id="TopNController-to-Company" style="stroke:#A80036;stroke-width:1.0;stroke-dasharray:7.0,7.0;"/><polygon fill="#A80036" points="135.74,390.93,135.2174,381.095,133.4697,386.4751,128.0896,384.7274,135.74,390.93" style="stroke:#A80036;stroke-width:1.0;"/><!--MD5=[ce79748d443f739b1b79d56680b7fe67]
link PositionBST to ShipPosition--><path codeLine="63" d="M209,110.42 C209,127.4 209,146.79 209,165.6 " fill="none" id="PositionBST-to-ShipPosition" style="stroke:#A80036;stroke-width:1.0;stroke-dasharray:7.0,7.0;"/><polygon fill="#A80036" points="209,170.88,213,161.88,209,165.88,205,161.88,209,170.88" style="stroke:#A80036;stroke-width:1.0;"/><!--MD5=[37a14a5de6d6fd738aee271300f4b5c8]
link Company to Ship--><path codeLine="64" d="M179.68,453.04 C187.54,462.21 195.64,472.62 202,483 C214.07,502.71 217.47,508.34 222,531 C240.57,623.83 233.46,650.03 222,744 C219.07,768.04 213.58,793.77 207.71,817 " fill="none" id="Company-to-Ship" style="stroke:#A80036;stroke-width:1.0;stroke-dasharray:7.0,7.0;"/><polygon fill="#A80036" points="206.46,821.92,212.5717,814.1968,207.7029,817.0769,204.8228,812.2082,206.46,821.92" style="stroke:#A80036;stroke-width:1.0;"/><!--MD5=[660964d9b5a8f34c3c2954b29cb9dcf0]
@startuml

skinparam classAttributeIconSize 0


class Ship {
    -mmmsiCode
    -shipName
    -imoCode
    -callSignId
    -currentCapacity /'added by us'/
    -draft

    -getMMSI()
}

class ShipPosition {
    -baseDateTime
    -latitude
    -longitude
    -sog
    -cog
    -heading
    -position
    -transceiver
}

class ShipStore {
    -getShipsBstMmsi()
}


class AllShipUI {}

class AllShipMMSIController {
    -sortedByTravelledDistance()
    -sortedByTotalMovements()
}

class ShipsBST{
    -getAllShips()
    -sortedByTravelledDistance()
    -sortByTotalMovements()
}

class PositionBST{
    -size()
    -getTotalDistance()
    -size()
    -getDeltaDistance()
}
class Company {
    -getShipStore()
}


Company "1" - - "1" ShipStore : uses >
ShipStore ..> ShipsBST
ShipsBST "1" - - "1..*" Ship : owns >
TopNUI ..> TopNController
TopNController ..> ShipsBST
TopNController ..> Company
ShipsBST ..> Ship
PositionBST ..> ShipPosition
Company ..> Ship


@enduml

@startuml

skinparam classAttributeIconSize 0


class Ship {
    -mmmsiCode
    -shipName
    -imoCode
    -callSignId
    -currentCapacity 
    -draft

    -getMMSI()
}

class ShipPosition {
    -baseDateTime
    -latitude
    -longitude
    -sog
    -cog
    -heading
    -position
    -transceiver
}

class ShipStore {
    -getShipsBstMmsi()
}


class AllShipUI {}

class AllShipMMSIController {
    -sortedByTravelledDistance()
    -sortedByTotalMovements()
}

class ShipsBST{
    -getAllShips()
    -sortedByTravelledDistance()
    -sortByTotalMovements()
}

class PositionBST{
    -size()
    -getTotalDistance()
    -size()
    -getDeltaDistance()
}
class Company {
    -getShipStore()
}


Company "1" - - "1" ShipStore : uses >
ShipStore ..> ShipsBST
ShipsBST "1" - - "1..*" Ship : owns >
TopNUI ..> TopNController
TopNController ..> ShipsBST
TopNController ..> Company
ShipsBST ..> Ship
PositionBST ..> ShipPosition
Company ..> Ship


@enduml

PlantUML version 1.2021.11(Sat Oct 02 14:26:11 BST 2021)
(GPL source distribution)
Java Runtime: OpenJDK Runtime Environment
JVM: OpenJDK 64-Bit Server VM
Default Encoding: Cp1252
Language: pt
Country: PT
--></g></svg>