<?xml version="1.0" encoding="UTF-8" standalone="no"?><svg xmlns="http://www.w3.org/2000/svg" xmlns:xlink="http://www.w3.org/1999/xlink" contentScriptType="application/ecmascript" contentStyleType="text/css" height="1062px" preserveAspectRatio="none" style="width:344px;height:1062px;background:#FFFFFF;" version="1.1" viewBox="0 0 344 1062" width="344px" zoomAndPan="magnify"><defs><filter height="300%" id="f1kqovni052yfk" width="300%" x="-1" y="-1"><feGaussianBlur result="blurOut" stdDeviation="2.0"/><feColorMatrix in="blurOut" result="blurOut2" type="matrix" values="0 0 0 0 0 0 0 0 0 0 0 0 0 0 0 0 0 0 .4 0"/><feOffset dx="4.0" dy="4.0" in="blurOut2" result="blurOut3"/><feBlend in="SourceGraphic" in2="blurOut3" mode="normal"/></filter></defs><g><!--MD5=[0dc7f2ddb409b58bcf52b12238c25399]
class Ship--><rect codeLine="5" fill="#FEFECE" filter="url(#f1kqovni052yfk)" height="144.8516" id="Ship" style="stroke:#A80036;stroke-width:1.5;" width="93" x="237" y="684"/><ellipse cx="268.2" cy="700" fill="#ADD1B2" rx="11" ry="11" style="stroke:#A80036;stroke-width:1.0;"/><path d="M270.2,696.5 Q270.4031,696 270.6375,695.75 Q270.8719,695.5 271.1375,695.5 Q271.6063,695.5 271.9031,695.7813 Q272.2,696.0625 272.2,696.7188 L272.2,698.2813 Q272.2,698.9375 271.9188,699.2188 Q271.6375,699.5 271.2,699.5 Q270.8094,699.5 270.5594,699.3281 Q270.3094,699.1563 270.2,698.7031 Q270.1531,698.3906 269.9813,698.2188 Q269.6688,697.8906 269.1063,697.7031 Q268.5438,697.5 267.9813,697.5 Q267.2781,697.5 266.6844,697.7813 Q266.1063,698.0625 265.6531,698.6875 Q265.2,699.3125 265.2,700.1719 L265.2,701.0938 Q265.2,702.125 266.0438,702.8125 Q266.8875,703.5 268.3875,703.5 Q269.2781,703.5 269.9031,703.2969 Q270.2625,703.1875 270.6688,702.8281 Q270.9344,702.625 271.075,702.5625 Q271.2156,702.5 271.3875,702.5 Q271.7156,702.5 271.95,702.7656 Q272.2,703.0156 272.2,703.375 Q272.2,703.7188 271.8563,704.125 Q271.3563,704.7188 270.5594,705.0469 Q269.5125,705.5 268.2313,705.5 Q266.7313,705.5 265.5281,704.9063 Q264.5594,704.4375 263.8719,703.4219 Q263.2,702.4063 263.2,701.2031 L263.2,700.1094 Q263.2,698.8594 263.7938,697.7656 Q264.4031,696.6719 265.45,696.0938 Q266.5125,695.5 267.7,695.5 Q268.4188,695.5 269.0438,695.75 Q269.6688,696 270.2,696.5 Z " fill="#000000"/><text fill="#000000" font-family="sans-serif" font-size="12" lengthAdjust="spacing" textLength="25" x="285.8" y="704.9102">Ship</text><line style="stroke:#A80036;stroke-width:1.5;" x1="238" x2="329" y1="716" y2="716"/><text fill="#000000" font-family="sans-serif" font-size="11" lengthAdjust="spacing" textLength="61" x="243" y="731.4189">-mmmsiCode</text><text fill="#000000" font-family="sans-serif" font-size="11" lengthAdjust="spacing" textLength="51" x="243" y="745.2549">-shipName</text><text fill="#000000" font-family="sans-serif" font-size="11" lengthAdjust="spacing" textLength="45" x="243" y="759.0908">-imoCode</text><text fill="#000000" font-family="sans-serif" font-size="11" lengthAdjust="spacing" textLength="49" x="243" y="772.9268">-callSignId</text><text fill="#000000" font-family="sans-serif" font-size="11" lengthAdjust="spacing" textLength="81" x="243" y="786.7627">-currentCapacity</text><text fill="#000000" font-family="sans-serif" font-size="11" lengthAdjust="spacing" textLength="27" x="243" y="800.5986">-draft</text><line style="stroke:#A80036;stroke-width:1.5;" x1="238" x2="329" y1="807.0156" y2="807.0156"/><text fill="#000000" font-family="sans-serif" font-size="11" lengthAdjust="spacing" textLength="52" x="243" y="822.4346">-getMMSI()</text><!--MD5=[1c0c3765e68dc4575d559b566278b914]
class ShipPosition--><rect codeLine="16" fill="#FEFECE" filter="url(#f1kqovni052yfk)" height="158.6875" id="ShipPosition" style="stroke:#A80036;stroke-width:1.5;" width="102" x="8.5" y="890"/><ellipse cx="23.5" cy="906" fill="#ADD1B2" rx="11" ry="11" style="stroke:#A80036;stroke-width:1.0;"/><path d="M25.5,902.5 Q25.7031,902 25.9375,901.75 Q26.1719,901.5 26.4375,901.5 Q26.9063,901.5 27.2031,901.7813 Q27.5,902.0625 27.5,902.7188 L27.5,904.2813 Q27.5,904.9375 27.2188,905.2188 Q26.9375,905.5 26.5,905.5 Q26.1094,905.5 25.8594,905.3281 Q25.6094,905.1563 25.5,904.7031 Q25.4531,904.3906 25.2813,904.2188 Q24.9688,903.8906 24.4063,903.7031 Q23.8438,903.5 23.2813,903.5 Q22.5781,903.5 21.9844,903.7813 Q21.4063,904.0625 20.9531,904.6875 Q20.5,905.3125 20.5,906.1719 L20.5,907.0938 Q20.5,908.125 21.3438,908.8125 Q22.1875,909.5 23.6875,909.5 Q24.5781,909.5 25.2031,909.2969 Q25.5625,909.1875 25.9688,908.8281 Q26.2344,908.625 26.375,908.5625 Q26.5156,908.5 26.6875,908.5 Q27.0156,908.5 27.25,908.7656 Q27.5,909.0156 27.5,909.375 Q27.5,909.7188 27.1563,910.125 Q26.6563,910.7188 25.8594,911.0469 Q24.8125,911.5 23.5313,911.5 Q22.0313,911.5 20.8281,910.9063 Q19.8594,910.4375 19.1719,909.4219 Q18.5,908.4063 18.5,907.2031 L18.5,906.1094 Q18.5,904.8594 19.0938,903.7656 Q19.7031,902.6719 20.75,902.0938 Q21.8125,901.5 23,901.5 Q23.7188,901.5 24.3438,901.75 Q24.9688,902 25.5,902.5 Z " fill="#000000"/><text fill="#000000" font-family="sans-serif" font-size="12" lengthAdjust="spacing" textLength="70" x="37.5" y="910.9102">ShipPosition</text><line style="stroke:#A80036;stroke-width:1.5;" x1="9.5" x2="109.5" y1="922" y2="922"/><text fill="#000000" font-family="sans-serif" font-size="11" lengthAdjust="spacing" textLength="72" x="14.5" y="937.4189">-baseDateTime</text><text fill="#000000" font-family="sans-serif" font-size="11" lengthAdjust="spacing" textLength="38" x="14.5" y="951.2549">-latitude</text><text fill="#000000" font-family="sans-serif" font-size="11" lengthAdjust="spacing" textLength="47" x="14.5" y="965.0908">-longitude</text><text fill="#000000" font-family="sans-serif" font-size="11" lengthAdjust="spacing" textLength="22" x="14.5" y="978.9268">-sog</text><text fill="#000000" font-family="sans-serif" font-size="11" lengthAdjust="spacing" textLength="22" x="14.5" y="992.7627">-cog</text><text fill="#000000" font-family="sans-serif" font-size="11" lengthAdjust="spacing" textLength="42" x="14.5" y="1006.5986">-heading</text><text fill="#000000" font-family="sans-serif" font-size="11" lengthAdjust="spacing" textLength="41" x="14.5" y="1020.4346">-position</text><text fill="#000000" font-family="sans-serif" font-size="11" lengthAdjust="spacing" textLength="59" x="14.5" y="1034.2705">-transceiver</text><line style="stroke:#A80036;stroke-width:1.5;" x1="9.5" x2="109.5" y1="1040.6875" y2="1040.6875"/><!--MD5=[ea2206eefe09474e90beb17e18e6b3d8]
class ShipStore--><rect codeLine="27" fill="#FEFECE" filter="url(#f1kqovni052yfk)" height="61.8359" id="ShipStore" style="stroke:#A80036;stroke-width:1.5;" width="106" x="182.5" y="393"/><ellipse cx="206.5" cy="409" fill="#ADD1B2" rx="11" ry="11" style="stroke:#A80036;stroke-width:1.0;"/><path d="M208.5,405.5 Q208.7031,405 208.9375,404.75 Q209.1719,404.5 209.4375,404.5 Q209.9063,404.5 210.2031,404.7813 Q210.5,405.0625 210.5,405.7188 L210.5,407.2813 Q210.5,407.9375 210.2188,408.2188 Q209.9375,408.5 209.5,408.5 Q209.1094,408.5 208.8594,408.3281 Q208.6094,408.1563 208.5,407.7031 Q208.4531,407.3906 208.2813,407.2188 Q207.9688,406.8906 207.4063,406.7031 Q206.8438,406.5 206.2813,406.5 Q205.5781,406.5 204.9844,406.7813 Q204.4063,407.0625 203.9531,407.6875 Q203.5,408.3125 203.5,409.1719 L203.5,410.0938 Q203.5,411.125 204.3438,411.8125 Q205.1875,412.5 206.6875,412.5 Q207.5781,412.5 208.2031,412.2969 Q208.5625,412.1875 208.9688,411.8281 Q209.2344,411.625 209.375,411.5625 Q209.5156,411.5 209.6875,411.5 Q210.0156,411.5 210.25,411.7656 Q210.5,412.0156 210.5,412.375 Q210.5,412.7188 210.1563,413.125 Q209.6563,413.7188 208.8594,414.0469 Q207.8125,414.5 206.5313,414.5 Q205.0313,414.5 203.8281,413.9063 Q202.8594,413.4375 202.1719,412.4219 Q201.5,411.4063 201.5,410.2031 L201.5,409.1094 Q201.5,407.8594 202.0938,406.7656 Q202.7031,405.6719 203.75,405.0938 Q204.8125,404.5 206,404.5 Q206.7188,404.5 207.3438,404.75 Q207.9688,405 208.5,405.5 Z " fill="#000000"/><text fill="#000000" font-family="sans-serif" font-size="12" lengthAdjust="spacing" textLength="54" x="222.5" y="413.9102">ShipStore</text><line style="stroke:#A80036;stroke-width:1.5;" x1="183.5" x2="287.5" y1="425" y2="425"/><line style="stroke:#A80036;stroke-width:1.5;" x1="183.5" x2="287.5" y1="433" y2="433"/><text fill="#000000" font-family="sans-serif" font-size="11" lengthAdjust="spacing" textLength="94" x="188.5" y="448.4189">-getShipsBstMmsi()</text><!--MD5=[19e74cea73e446019a87a940af6212a7]
class AllShipUI--><rect codeLine="32" fill="#FEFECE" filter="url(#f1kqovni052yfk)" height="48" id="AllShipUI" style="stroke:#A80036;stroke-width:1.5;" width="82" x="108.5" y="7"/><ellipse cx="123.5" cy="23" fill="#ADD1B2" rx="11" ry="11" style="stroke:#A80036;stroke-width:1.0;"/><path d="M125.5,19.5 Q125.7031,19 125.9375,18.75 Q126.1719,18.5 126.4375,18.5 Q126.9063,18.5 127.2031,18.7813 Q127.5,19.0625 127.5,19.7188 L127.5,21.2813 Q127.5,21.9375 127.2188,22.2188 Q126.9375,22.5 126.5,22.5 Q126.1094,22.5 125.8594,22.3281 Q125.6094,22.1563 125.5,21.7031 Q125.4531,21.3906 125.2813,21.2188 Q124.9688,20.8906 124.4063,20.7031 Q123.8438,20.5 123.2813,20.5 Q122.5781,20.5 121.9844,20.7813 Q121.4063,21.0625 120.9531,21.6875 Q120.5,22.3125 120.5,23.1719 L120.5,24.0938 Q120.5,25.125 121.3438,25.8125 Q122.1875,26.5 123.6875,26.5 Q124.5781,26.5 125.2031,26.2969 Q125.5625,26.1875 125.9688,25.8281 Q126.2344,25.625 126.375,25.5625 Q126.5156,25.5 126.6875,25.5 Q127.0156,25.5 127.25,25.7656 Q127.5,26.0156 127.5,26.375 Q127.5,26.7188 127.1563,27.125 Q126.6563,27.7188 125.8594,28.0469 Q124.8125,28.5 123.5313,28.5 Q122.0313,28.5 120.8281,27.9063 Q119.8594,27.4375 119.1719,26.4219 Q118.5,25.4063 118.5,24.2031 L118.5,23.1094 Q118.5,21.8594 119.0938,20.7656 Q119.7031,19.6719 120.75,19.0938 Q121.8125,18.5 123,18.5 Q123.7188,18.5 124.3438,18.75 Q124.9688,19 125.5,19.5 Z " fill="#000000"/><text fill="#000000" font-family="sans-serif" font-size="12" lengthAdjust="spacing" textLength="50" x="137.5" y="27.9102">AllShipUI</text><line style="stroke:#A80036;stroke-width:1.5;" x1="109.5" x2="189.5" y1="39" y2="39"/><line style="stroke:#A80036;stroke-width:1.5;" x1="109.5" x2="189.5" y1="47" y2="47"/><!--MD5=[72564024431802abc150a50c06a075ba]
class AllShipMMSIController--><rect codeLine="34" fill="#FEFECE" filter="url(#f1kqovni052yfk)" height="75.6719" id="AllShipMMSIController" style="stroke:#A80036;stroke-width:1.5;" width="154" x="72.5" y="116"/><ellipse cx="87.95" cy="132" fill="#ADD1B2" rx="11" ry="11" style="stroke:#A80036;stroke-width:1.0;"/><path d="M89.95,128.5 Q90.1531,128 90.3875,127.75 Q90.6219,127.5 90.8875,127.5 Q91.3563,127.5 91.6531,127.7813 Q91.95,128.0625 91.95,128.7188 L91.95,130.2813 Q91.95,130.9375 91.6688,131.2188 Q91.3875,131.5 90.95,131.5 Q90.5594,131.5 90.3094,131.3281 Q90.0594,131.1563 89.95,130.7031 Q89.9031,130.3906 89.7313,130.2188 Q89.4188,129.8906 88.8563,129.7031 Q88.2938,129.5 87.7313,129.5 Q87.0281,129.5 86.4344,129.7813 Q85.8563,130.0625 85.4031,130.6875 Q84.95,131.3125 84.95,132.1719 L84.95,133.0938 Q84.95,134.125 85.7938,134.8125 Q86.6375,135.5 88.1375,135.5 Q89.0281,135.5 89.6531,135.2969 Q90.0125,135.1875 90.4188,134.8281 Q90.6844,134.625 90.825,134.5625 Q90.9656,134.5 91.1375,134.5 Q91.4656,134.5 91.7,134.7656 Q91.95,135.0156 91.95,135.375 Q91.95,135.7188 91.6063,136.125 Q91.1063,136.7188 90.3094,137.0469 Q89.2625,137.5 87.9813,137.5 Q86.4813,137.5 85.2781,136.9063 Q84.3094,136.4375 83.6219,135.4219 Q82.95,134.4063 82.95,133.2031 L82.95,132.1094 Q82.95,130.8594 83.5438,129.7656 Q84.1531,128.6719 85.2,128.0938 Q86.2625,127.5 87.45,127.5 Q88.1688,127.5 88.7938,127.75 Q89.4188,128 89.95,128.5 Z " fill="#000000"/><text fill="#000000" font-family="sans-serif" font-size="12" lengthAdjust="spacing" textLength="121" x="102.05" y="136.9102">AllShipMMSIController</text><line style="stroke:#A80036;stroke-width:1.5;" x1="73.5" x2="225.5" y1="148" y2="148"/><line style="stroke:#A80036;stroke-width:1.5;" x1="73.5" x2="225.5" y1="156" y2="156"/><text fill="#000000" font-family="sans-serif" font-size="11" lengthAdjust="spacing" textLength="142" x="78.5" y="171.4189">-sortedByTravelledDistance()</text><text fill="#000000" font-family="sans-serif" font-size="11" lengthAdjust="spacing" textLength="134" x="78.5" y="185.2549">-sortedByTotalMovements()</text><!--MD5=[43adf079e4aaffd3a283c2c0454b404c]
class ShipsBST--><rect codeLine="39" fill="#FEFECE" filter="url(#f1kqovni052yfk)" height="89.5078" id="ShipsBST" style="stroke:#A80036;stroke-width:1.5;" width="154" x="115.5" y="516"/><ellipse cx="160.75" cy="532" fill="#ADD1B2" rx="11" ry="11" style="stroke:#A80036;stroke-width:1.0;"/><path d="M162.75,528.5 Q162.9531,528 163.1875,527.75 Q163.4219,527.5 163.6875,527.5 Q164.1563,527.5 164.4531,527.7813 Q164.75,528.0625 164.75,528.7188 L164.75,530.2813 Q164.75,530.9375 164.4688,531.2188 Q164.1875,531.5 163.75,531.5 Q163.3594,531.5 163.1094,531.3281 Q162.8594,531.1563 162.75,530.7031 Q162.7031,530.3906 162.5313,530.2188 Q162.2188,529.8906 161.6563,529.7031 Q161.0938,529.5 160.5313,529.5 Q159.8281,529.5 159.2344,529.7813 Q158.6563,530.0625 158.2031,530.6875 Q157.75,531.3125 157.75,532.1719 L157.75,533.0938 Q157.75,534.125 158.5938,534.8125 Q159.4375,535.5 160.9375,535.5 Q161.8281,535.5 162.4531,535.2969 Q162.8125,535.1875 163.2188,534.8281 Q163.4844,534.625 163.625,534.5625 Q163.7656,534.5 163.9375,534.5 Q164.2656,534.5 164.5,534.7656 Q164.75,535.0156 164.75,535.375 Q164.75,535.7188 164.4063,536.125 Q163.9063,536.7188 163.1094,537.0469 Q162.0625,537.5 160.7813,537.5 Q159.2813,537.5 158.0781,536.9063 Q157.1094,536.4375 156.4219,535.4219 Q155.75,534.4063 155.75,533.2031 L155.75,532.1094 Q155.75,530.8594 156.3438,529.7656 Q156.9531,528.6719 158,528.0938 Q159.0625,527.5 160.25,527.5 Q160.9688,527.5 161.5938,527.75 Q162.2188,528 162.75,528.5 Z " fill="#000000"/><text fill="#000000" font-family="sans-serif" font-size="12" lengthAdjust="spacing" textLength="55" x="181.25" y="536.9102">ShipsBST</text><line style="stroke:#A80036;stroke-width:1.5;" x1="116.5" x2="268.5" y1="548" y2="548"/><line style="stroke:#A80036;stroke-width:1.5;" x1="116.5" x2="268.5" y1="556" y2="556"/><text fill="#000000" font-family="sans-serif" font-size="11" lengthAdjust="spacing" textLength="66" x="121.5" y="571.4189">-getAllShips()</text><text fill="#000000" font-family="sans-serif" font-size="11" lengthAdjust="spacing" textLength="142" x="121.5" y="585.2549">-sortedByTravelledDistance()</text><text fill="#000000" font-family="sans-serif" font-size="11" lengthAdjust="spacing" textLength="122" x="121.5" y="599.0908">-sortByTotalMovements()</text><!--MD5=[4901be1d1d8a5c23fb0daf47783de1b7]
class PositionBST--><rect codeLine="45" fill="#FEFECE" filter="url(#f1kqovni052yfk)" height="103.3438" id="PositionBST" style="stroke:#A80036;stroke-width:1.5;" width="105" x="7" y="705"/><ellipse cx="24.25" cy="721" fill="#ADD1B2" rx="11" ry="11" style="stroke:#A80036;stroke-width:1.0;"/><path d="M26.25,717.5 Q26.4531,717 26.6875,716.75 Q26.9219,716.5 27.1875,716.5 Q27.6563,716.5 27.9531,716.7813 Q28.25,717.0625 28.25,717.7188 L28.25,719.2813 Q28.25,719.9375 27.9688,720.2188 Q27.6875,720.5 27.25,720.5 Q26.8594,720.5 26.6094,720.3281 Q26.3594,720.1563 26.25,719.7031 Q26.2031,719.3906 26.0313,719.2188 Q25.7188,718.8906 25.1563,718.7031 Q24.5938,718.5 24.0313,718.5 Q23.3281,718.5 22.7344,718.7813 Q22.1563,719.0625 21.7031,719.6875 Q21.25,720.3125 21.25,721.1719 L21.25,722.0938 Q21.25,723.125 22.0938,723.8125 Q22.9375,724.5 24.4375,724.5 Q25.3281,724.5 25.9531,724.2969 Q26.3125,724.1875 26.7188,723.8281 Q26.9844,723.625 27.125,723.5625 Q27.2656,723.5 27.4375,723.5 Q27.7656,723.5 28,723.7656 Q28.25,724.0156 28.25,724.375 Q28.25,724.7188 27.9063,725.125 Q27.4063,725.7188 26.6094,726.0469 Q25.5625,726.5 24.2813,726.5 Q22.7813,726.5 21.5781,725.9063 Q20.6094,725.4375 19.9219,724.4219 Q19.25,723.4063 19.25,722.2031 L19.25,721.1094 Q19.25,719.8594 19.8438,718.7656 Q20.4531,717.6719 21.5,717.0938 Q22.5625,716.5 23.75,716.5 Q24.4688,716.5 25.0938,716.75 Q25.7188,717 26.25,717.5 Z " fill="#000000"/><text fill="#000000" font-family="sans-serif" font-size="12" lengthAdjust="spacing" textLength="68" x="38.75" y="725.9102">PositionBST</text><line style="stroke:#A80036;stroke-width:1.5;" x1="8" x2="111" y1="737" y2="737"/><line style="stroke:#A80036;stroke-width:1.5;" x1="8" x2="111" y1="745" y2="745"/><text fill="#000000" font-family="sans-serif" font-size="11" lengthAdjust="spacing" textLength="32" x="13" y="760.4189">-size()</text><text fill="#000000" font-family="sans-serif" font-size="11" lengthAdjust="spacing" textLength="92" x="13" y="774.2549">-getTotalDistance()</text><text fill="#000000" font-family="sans-serif" font-size="11" lengthAdjust="spacing" textLength="32" x="13" y="788.0908">-size()</text><text fill="#000000" font-family="sans-serif" font-size="11" lengthAdjust="spacing" textLength="93" x="13" y="801.9268">-getDeltaDistance()</text><!--MD5=[02e4b9b7573f1156f41e60aa5b4e25a4]
class Company--><rect codeLine="51" fill="#FEFECE" filter="url(#f1kqovni052yfk)" height="61.8359" id="Company" style="stroke:#A80036;stroke-width:1.5;" width="86" x="192.5" y="253"/><ellipse cx="207.95" cy="269" fill="#ADD1B2" rx="11" ry="11" style="stroke:#A80036;stroke-width:1.0;"/><path d="M209.95,265.5 Q210.1531,265 210.3875,264.75 Q210.6219,264.5 210.8875,264.5 Q211.3563,264.5 211.6531,264.7813 Q211.95,265.0625 211.95,265.7188 L211.95,267.2813 Q211.95,267.9375 211.6688,268.2188 Q211.3875,268.5 210.95,268.5 Q210.5594,268.5 210.3094,268.3281 Q210.0594,268.1563 209.95,267.7031 Q209.9031,267.3906 209.7313,267.2188 Q209.4188,266.8906 208.8563,266.7031 Q208.2938,266.5 207.7313,266.5 Q207.0281,266.5 206.4344,266.7813 Q205.8563,267.0625 205.4031,267.6875 Q204.95,268.3125 204.95,269.1719 L204.95,270.0938 Q204.95,271.125 205.7938,271.8125 Q206.6375,272.5 208.1375,272.5 Q209.0281,272.5 209.6531,272.2969 Q210.0125,272.1875 210.4188,271.8281 Q210.6844,271.625 210.825,271.5625 Q210.9656,271.5 211.1375,271.5 Q211.4656,271.5 211.7,271.7656 Q211.95,272.0156 211.95,272.375 Q211.95,272.7188 211.6063,273.125 Q211.1063,273.7188 210.3094,274.0469 Q209.2625,274.5 207.9813,274.5 Q206.4813,274.5 205.2781,273.9063 Q204.3094,273.4375 203.6219,272.4219 Q202.95,271.4063 202.95,270.2031 L202.95,269.1094 Q202.95,267.8594 203.5438,266.7656 Q204.1531,265.6719 205.2,265.0938 Q206.2625,264.5 207.45,264.5 Q208.1688,264.5 208.7938,264.75 Q209.4188,265 209.95,265.5 Z " fill="#000000"/><text fill="#000000" font-family="sans-serif" font-size="12" lengthAdjust="spacing" textLength="53" x="222.05" y="273.9102">Company</text><line style="stroke:#A80036;stroke-width:1.5;" x1="193.5" x2="277.5" y1="285" y2="285"/><line style="stroke:#A80036;stroke-width:1.5;" x1="193.5" x2="277.5" y1="293" y2="293"/><text fill="#000000" font-family="sans-serif" font-size="11" lengthAdjust="spacing" textLength="74" x="198.5" y="308.4189">-getShipStore()</text><!--MD5=[b4a9ab6cffd58937cfea07eb2954e1bd]
class BST--><rect codeLine="55" fill="#FEFECE" filter="url(#f1kqovni052yfk)" height="48" id="BST" style="stroke:#A80036;stroke-width:1.5;" width="55" x="147" y="732.5"/><ellipse cx="162" cy="748.5" fill="#B4A7E5" rx="11" ry="11" style="stroke:#A80036;stroke-width:1.0;"/><path d="M163,745.5 L163,751.5 L165,751.5 L165.4844,751.5 L166,752.125 L166,752.5 L166,752.875 L165.4844,753.5 L165,753.5 L159,753.5 L158.5156,753.5 L158,752.875 L158,752.5 L158,752.125 L158.5156,751.5 L159,751.5 L161,751.5 L161,745.5 L159,745.5 L158.5156,745.5 L158,744.875 L158,744.5 L158,744.125 L158.5156,743.5 L159,743.5 L165,743.5 L165.4844,743.5 L166,744.125 L166,744.5 L166,744.875 L165.4844,745.5 L165,745.5 L163,745.5 Z " fill="#000000"/><text fill="#000000" font-family="sans-serif" font-size="12" font-style="italic" lengthAdjust="spacing" textLength="23" x="176" y="753.4102">BST</text><line style="stroke:#A80036;stroke-width:1.5;" x1="148" x2="201" y1="764.5" y2="764.5"/><line style="stroke:#A80036;stroke-width:1.5;" x1="148" x2="201" y1="772.5" y2="772.5"/><!--MD5=[6b4a94d80660e97c6833bde801bd4c89]
link Company to ShipStore--><path codeLine="58" d="M235.5,315.28 C235.5,338.29 235.5,369.79 235.5,392.79 " fill="none" id="Company-ShipStore" style="stroke:#A80036;stroke-width:1.0;"/><polygon fill="#000000" points="240.5,359.1758,243.4389,350.1307,237.5611,350.1307,240.5,359.1758" style="stroke:#000000;stroke-width:1.0;"/><text fill="#000000" font-family="sans-serif" font-size="13" lengthAdjust="spacing" textLength="28" x="249.5" y="359.4951">uses</text><text fill="#000000" font-family="sans-serif" font-size="13" lengthAdjust="spacing" textLength="7" x="227.8328" y="336.312">1</text><text fill="#000000" font-family="sans-serif" font-size="13" lengthAdjust="spacing" textLength="7" x="227.7781" y="382.2512">1</text><!--MD5=[c2acce4d7c8ab8c40d74533e9dec3e3c]
link ShipStore to ShipsBST--><path codeLine="59" d="M225.85,455.3 C220.64,471.64 214.09,492.22 208.17,510.79 " fill="none" id="ShipStore-to-ShipsBST" style="stroke:#A80036;stroke-width:1.0;stroke-dasharray:7.0,7.0;"/><polygon fill="#A80036" points="206.52,515.97,213.0551,508.6016,208.0325,511.2042,205.4299,506.1817,206.52,515.97" style="stroke:#A80036;stroke-width:1.0;"/><!--MD5=[b457ea32acbd230d0e22037aaab2ac98]
link ShipsBST to Ship--><path codeLine="60" d="M218.75,606.12 C224.19,615.84 229.72,626.17 234.5,636 C241.9,651.22 249.2,667.86 255.82,683.76 " fill="none" id="ShipsBST-Ship" style="stroke:#A80036;stroke-width:1.0;"/><polygon fill="#000000" points="248.6543,649.6879,247.4092,640.2591,242.105,642.7917,248.6543,649.6879" style="stroke:#000000;stroke-width:1.0;"/><text fill="#000000" font-family="sans-serif" font-size="13" lengthAdjust="spacing" textLength="30" x="255.5" y="650.4951">owns</text><text fill="#000000" font-family="sans-serif" font-size="13" lengthAdjust="spacing" textLength="7" x="214.9492" y="627.1444">1</text><text fill="#000000" font-family="sans-serif" font-size="13" lengthAdjust="spacing" textLength="20" x="231.9343" y="672.9546">1..*</text><!--MD5=[b457ea32acbd230d0e22037aaab2ac98]
link ShipsBST to Ship--><path codeLine="64" d="M213.38,606.39 C223.5,627.93 235.96,654.41 247.55,679.06 " fill="none" id="ShipsBST-to-Ship" style="stroke:#A80036;stroke-width:1.0;stroke-dasharray:7.0,7.0;"/><polygon fill="#A80036" points="249.7,683.63,249.4916,673.7833,247.5731,679.1049,242.2515,677.1864,249.7,683.63" style="stroke:#A80036;stroke-width:1.0;"/><!--MD5=[1ec0c41d53e18e09558949c4da0f33e0]
link AllShipUI to AllShipMMSIController--><path codeLine="61" d="M149.5,55.04 C149.5,70.71 149.5,91.91 149.5,110.58 " fill="none" id="AllShipUI-to-AllShipMMSIController" style="stroke:#A80036;stroke-width:1.0;stroke-dasharray:7.0,7.0;"/><polygon fill="#A80036" points="149.5,115.77,153.5,106.77,149.5,110.77,145.5,106.77,149.5,115.77" style="stroke:#A80036;stroke-width:1.0;"/><!--MD5=[8504ee76444e1381e856f652445378e5]
link AllShipMMSIController to ShipsBST--><path codeLine="62" d="M149.12,192.19 C149.08,249.13 151.08,361.18 165.5,455 C168.35,473.54 173.07,493.55 177.77,511.08 " fill="none" id="AllShipMMSIController-to-ShipsBST" style="stroke:#A80036;stroke-width:1.0;stroke-dasharray:7.0,7.0;"/><polygon fill="#A80036" points="179.1,515.96,180.5959,506.2254,177.7868,511.1355,172.8767,508.3265,179.1,515.96" style="stroke:#A80036;stroke-width:1.0;"/><!--MD5=[d9b89a3a96eea0fda77d9991b4313411]
link AllShipMMSIController to Company--><path codeLine="63" d="M174.37,192.02 C186.36,209.86 200.64,231.11 212.38,248.59 " fill="none" id="AllShipMMSIController-to-Company" style="stroke:#A80036;stroke-width:1.0;stroke-dasharray:7.0,7.0;"/><polygon fill="#A80036" points="215.31,252.95,213.6074,243.2494,212.52,248.8008,206.9687,247.7134,215.31,252.95" style="stroke:#A80036;stroke-width:1.0;"/><!--MD5=[e18dbd49a52e60917b88bf3b4a72eceb]
link ShipsBST to BST--><path codeLine="65" d="M188.37,606.39 C184.92,643.52 180.09,695.37 177.14,727.12 " fill="none" id="ShipsBST-to-BST" style="stroke:#A80036;stroke-width:1.0;"/><polygon fill="#A80036" points="176.65,732.42,181.4818,723.8378,177.122,727.4423,173.5175,723.0826,176.65,732.42" style="stroke:#A80036;stroke-width:1.0;"/><!--MD5=[160674319446910b8a3a452fc1f6631a]
link ShipsBST to PositionBST--><path codeLine="66" d="M161.99,606.39 C142.76,634.36 117.8,670.69 97.32,700.48 " fill="none" id="ShipsBST-to-PositionBST" style="stroke:#A80036;stroke-width:1.0;stroke-dasharray:7.0,7.0;"/><polygon fill="#A80036" points="94.33,704.83,102.7287,699.6859,97.1657,700.7119,96.1397,695.1488,94.33,704.83" style="stroke:#A80036;stroke-width:1.0;"/><!--MD5=[ce79748d443f739b1b79d56680b7fe67]
link PositionBST to ShipPosition--><path codeLine="67" d="M59.5,808.04 C59.5,831.01 59.5,858.81 59.5,884.77 " fill="none" id="PositionBST-to-ShipPosition" style="stroke:#A80036;stroke-width:1.0;stroke-dasharray:7.0,7.0;"/><polygon fill="#A80036" points="59.5,889.94,63.5,880.94,59.5,884.94,55.5,880.94,59.5,889.94" style="stroke:#A80036;stroke-width:1.0;"/><!--MD5=[0875f90da57089d15aafa709771c987a]
link PositionBST to BST--><path codeLine="68" d="M112.06,756.5 C121.89,756.5 131.72,756.5 141.55,756.5 " fill="none" id="PositionBST-to-BST" style="stroke:#A80036;stroke-width:1.0;"/><polygon fill="#A80036" points="146.69,756.5,137.69,752.5,141.69,756.5,137.69,760.5,146.69,756.5" style="stroke:#A80036;stroke-width:1.0;"/><!--MD5=[37a14a5de6d6fd738aee271300f4b5c8]
link Company to Ship--><path codeLine="69" d="M264.18,315.04 C272.04,324.21 280.14,334.62 286.5,345 C298.57,364.71 301.97,370.34 306.5,393 C325.94,490.22 312.83,604.76 299.81,678.67 " fill="none" id="Company-to-Ship" style="stroke:#A80036;stroke-width:1.0;stroke-dasharray:7.0,7.0;"/><polygon fill="#A80036" points="298.88,683.92,304.3859,675.7539,299.7506,678.9964,296.5081,674.361,298.88,683.92" style="stroke:#A80036;stroke-width:1.0;"/><!--MD5=[36b9b6ee53a070e9047b60ffb628ee90]
@startuml

skinparam classAttributeIconSize 0


class Ship {
    -mmmsiCode
    -shipName
    -imoCode
    -callSignId
    -currentCapacity /'added by us'/
    -draft

    -getMMSI()
}

class ShipPosition {
    -baseDateTime
    -latitude
    -longitude
    -sog
    -cog
    -heading
    -position
    -transceiver
}

class ShipStore {
    -getShipsBstMmsi()
}


class AllShipUI {}

class AllShipMMSIController {
    -sortedByTravelledDistance()
    -sortedByTotalMovements()
}

class ShipsBST{
    -getAllShips()
    -sortedByTravelledDistance()
    -sortByTotalMovements()
}

class PositionBST{
    -size()
    -getTotalDistance()
    -size()
    -getDeltaDistance()
}
class Company {
    -getShipStore()
}

interface BST{}


Company "1" - - "1" ShipStore : uses >
ShipStore ..> ShipsBST
ShipsBST "1" - - "1..*" Ship : owns >
AllShipUI ..> AllShipMMSIController
AllShipMMSIController ..> ShipsBST
AllShipMMSIController ..> Company
ShipsBST ..> Ship
ShipsBST -> BST
ShipsBST ..> PositionBST
PositionBST ..> ShipPosition
PositionBST -> BST
Company ..> Ship


@enduml

@startuml

skinparam classAttributeIconSize 0


class Ship {
    -mmmsiCode
    -shipName
    -imoCode
    -callSignId
    -currentCapacity 
    -draft

    -getMMSI()
}

class ShipPosition {
    -baseDateTime
    -latitude
    -longitude
    -sog
    -cog
    -heading
    -position
    -transceiver
}

class ShipStore {
    -getShipsBstMmsi()
}


class AllShipUI {}

class AllShipMMSIController {
    -sortedByTravelledDistance()
    -sortedByTotalMovements()
}

class ShipsBST{
    -getAllShips()
    -sortedByTravelledDistance()
    -sortByTotalMovements()
}

class PositionBST{
    -size()
    -getTotalDistance()
    -size()
    -getDeltaDistance()
}
class Company {
    -getShipStore()
}

interface BST{}


Company "1" - - "1" ShipStore : uses >
ShipStore ..> ShipsBST
ShipsBST "1" - - "1..*" Ship : owns >
AllShipUI ..> AllShipMMSIController
AllShipMMSIController ..> ShipsBST
AllShipMMSIController ..> Company
ShipsBST ..> Ship
ShipsBST -> BST
ShipsBST ..> PositionBST
PositionBST ..> ShipPosition
PositionBST -> BST
Company ..> Ship


@enduml

PlantUML version 1.2021.11(Sat Oct 02 14:26:11 BST 2021)
(GPL source distribution)
Java Runtime: OpenJDK Runtime Environment
JVM: OpenJDK 64-Bit Server VM
Default Encoding: Cp1252
Language: pt
Country: PT
--></g></svg>