<?xml version="1.0" encoding="UTF-8" standalone="no"?><svg xmlns="http://www.w3.org/2000/svg" xmlns:xlink="http://www.w3.org/1999/xlink" contentScriptType="application/ecmascript" contentStyleType="text/css" height="345px" preserveAspectRatio="none" style="width:285px;height:345px;background:#FFFFFF;" version="1.1" viewBox="0 0 285 345" width="285px" zoomAndPan="magnify"><defs><filter height="300%" id="fa10apukgs8ie" width="300%" x="-1" y="-1"><feGaussianBlur result="blurOut" stdDeviation="2.0"/><feColorMatrix in="blurOut" result="blurOut2" type="matrix" values="0 0 0 0 0 0 0 0 0 0 0 0 0 0 0 0 0 0 .4 0"/><feOffset dx="4.0" dy="4.0" in="blurOut2" result="blurOut3"/><feBlend in="SourceGraphic" in2="blurOut3" mode="normal"/></filter></defs><g><!--MD5=[81f5fdad616b6e9b91d60ae500b85bfd]
class GetUnloadingLoadingMapController--><rect codeLine="3" fill="#FEFECE" filter="url(#fa10apukgs8ie)" height="61.8359" id="GetUnloadingLoadingMapController" style="stroke:#A80036;stroke-width:1.5;" width="230" x="41" y="7"/><ellipse cx="56" cy="23" fill="#ADD1B2" rx="11" ry="11" style="stroke:#A80036;stroke-width:1.0;"/><path d="M58,19.5 Q58.2031,19 58.4375,18.75 Q58.6719,18.5 58.9375,18.5 Q59.4063,18.5 59.7031,18.7813 Q60,19.0625 60,19.7188 L60,21.2813 Q60,21.9375 59.7188,22.2188 Q59.4375,22.5 59,22.5 Q58.6094,22.5 58.3594,22.3281 Q58.1094,22.1563 58,21.7031 Q57.9531,21.3906 57.7813,21.2188 Q57.4688,20.8906 56.9063,20.7031 Q56.3438,20.5 55.7813,20.5 Q55.0781,20.5 54.4844,20.7813 Q53.9063,21.0625 53.4531,21.6875 Q53,22.3125 53,23.1719 L53,24.0938 Q53,25.125 53.8438,25.8125 Q54.6875,26.5 56.1875,26.5 Q57.0781,26.5 57.7031,26.2969 Q58.0625,26.1875 58.4688,25.8281 Q58.7344,25.625 58.875,25.5625 Q59.0156,25.5 59.1875,25.5 Q59.5156,25.5 59.75,25.7656 Q60,26.0156 60,26.375 Q60,26.7188 59.6563,27.125 Q59.1563,27.7188 58.3594,28.0469 Q57.3125,28.5 56.0313,28.5 Q54.5313,28.5 53.3281,27.9063 Q52.3594,27.4375 51.6719,26.4219 Q51,25.4063 51,24.2031 L51,23.1094 Q51,21.8594 51.5938,20.7656 Q52.2031,19.6719 53.25,19.0938 Q54.3125,18.5 55.5,18.5 Q56.2188,18.5 56.8438,18.75 Q57.4688,19 58,19.5 Z " fill="#000000"/><text fill="#000000" font-family="sans-serif" font-size="12" lengthAdjust="spacing" textLength="198" x="70" y="27.9102">GetUnloadingLoadingMapController</text><line style="stroke:#A80036;stroke-width:1.5;" x1="42" x2="270" y1="39" y2="39"/><line style="stroke:#A80036;stroke-width:1.5;" x1="42" x2="270" y1="47" y2="47"/><text fill="#000000" font-family="sans-serif" font-size="11" lengthAdjust="spacing" textLength="134" x="47" y="62.4189">+getUnloadingLoadingMap()</text><!--MD5=[02e4b9b7573f1156f41e60aa5b4e25a4]
class Company--><rect codeLine="7" fill="#FEFECE" filter="url(#fa10apukgs8ie)" height="61.8359" id="Company" style="stroke:#A80036;stroke-width:1.5;" width="102" x="27" y="130"/><ellipse cx="49.65" cy="146" fill="#ADD1B2" rx="11" ry="11" style="stroke:#A80036;stroke-width:1.0;"/><path d="M51.65,142.5 Q51.8531,142 52.0875,141.75 Q52.3219,141.5 52.5875,141.5 Q53.0563,141.5 53.3531,141.7813 Q53.65,142.0625 53.65,142.7188 L53.65,144.2813 Q53.65,144.9375 53.3688,145.2188 Q53.0875,145.5 52.65,145.5 Q52.2594,145.5 52.0094,145.3281 Q51.7594,145.1563 51.65,144.7031 Q51.6031,144.3906 51.4313,144.2188 Q51.1188,143.8906 50.5563,143.7031 Q49.9938,143.5 49.4313,143.5 Q48.7281,143.5 48.1344,143.7813 Q47.5563,144.0625 47.1031,144.6875 Q46.65,145.3125 46.65,146.1719 L46.65,147.0938 Q46.65,148.125 47.4938,148.8125 Q48.3375,149.5 49.8375,149.5 Q50.7281,149.5 51.3531,149.2969 Q51.7125,149.1875 52.1188,148.8281 Q52.3844,148.625 52.525,148.5625 Q52.6656,148.5 52.8375,148.5 Q53.1656,148.5 53.4,148.7656 Q53.65,149.0156 53.65,149.375 Q53.65,149.7188 53.3063,150.125 Q52.8063,150.7188 52.0094,151.0469 Q50.9625,151.5 49.6813,151.5 Q48.1813,151.5 46.9781,150.9063 Q46.0094,150.4375 45.3219,149.4219 Q44.65,148.4063 44.65,147.2031 L44.65,146.1094 Q44.65,144.8594 45.2438,143.7656 Q45.8531,142.6719 46.9,142.0938 Q47.9625,141.5 49.15,141.5 Q49.8688,141.5 50.4938,141.75 Q51.1188,142 51.65,142.5 Z " fill="#000000"/><text fill="#000000" font-family="sans-serif" font-size="12" lengthAdjust="spacing" textLength="53" x="65.35" y="150.9102">Company</text><line style="stroke:#A80036;stroke-width:1.5;" x1="28" x2="128" y1="162" y2="162"/><line style="stroke:#A80036;stroke-width:1.5;" x1="28" x2="128" y1="170" y2="170"/><text fill="#000000" font-family="sans-serif" font-size="11" lengthAdjust="spacing" textLength="90" x="33" y="185.4189">+getShipStoreDB()</text><!--MD5=[9287bc2a51302962a18a68bfc2848f3a]
class CargoManifestStoreDB--><rect codeLine="11" fill="#FEFECE" filter="url(#fa10apukgs8ie)" height="61.8359" id="CargoManifestStoreDB" style="stroke:#A80036;stroke-width:1.5;" width="246" x="7" y="270"/><ellipse cx="62.75" cy="286" fill="#ADD1B2" rx="11" ry="11" style="stroke:#A80036;stroke-width:1.0;"/><path d="M64.75,282.5 Q64.9531,282 65.1875,281.75 Q65.4219,281.5 65.6875,281.5 Q66.1563,281.5 66.4531,281.7813 Q66.75,282.0625 66.75,282.7188 L66.75,284.2813 Q66.75,284.9375 66.4688,285.2188 Q66.1875,285.5 65.75,285.5 Q65.3594,285.5 65.1094,285.3281 Q64.8594,285.1563 64.75,284.7031 Q64.7031,284.3906 64.5313,284.2188 Q64.2188,283.8906 63.6563,283.7031 Q63.0938,283.5 62.5313,283.5 Q61.8281,283.5 61.2344,283.7813 Q60.6563,284.0625 60.2031,284.6875 Q59.75,285.3125 59.75,286.1719 L59.75,287.0938 Q59.75,288.125 60.5938,288.8125 Q61.4375,289.5 62.9375,289.5 Q63.8281,289.5 64.4531,289.2969 Q64.8125,289.1875 65.2188,288.8281 Q65.4844,288.625 65.625,288.5625 Q65.7656,288.5 65.9375,288.5 Q66.2656,288.5 66.5,288.7656 Q66.75,289.0156 66.75,289.375 Q66.75,289.7188 66.4063,290.125 Q65.9063,290.7188 65.1094,291.0469 Q64.0625,291.5 62.7813,291.5 Q61.2813,291.5 60.0781,290.9063 Q59.1094,290.4375 58.4219,289.4219 Q57.75,288.4063 57.75,287.2031 L57.75,286.1094 Q57.75,284.8594 58.3438,283.7656 Q58.9531,282.6719 60,282.0938 Q61.0625,281.5 62.25,281.5 Q62.9688,281.5 63.5938,281.75 Q64.2188,282 64.75,282.5 Z " fill="#000000"/><text fill="#000000" font-family="sans-serif" font-size="12" lengthAdjust="spacing" textLength="126" x="83.25" y="290.9102">CargoManifestStoreDB</text><line style="stroke:#A80036;stroke-width:1.5;" x1="8" x2="252" y1="302" y2="302"/><line style="stroke:#A80036;stroke-width:1.5;" x1="8" x2="252" y1="310" y2="310"/><text fill="#000000" font-family="sans-serif" font-size="11" lengthAdjust="spacing" textLength="234" x="13" y="325.4189">+getUnloadingLoadingMap(dataBaseConnection)</text><!--MD5=[74d5135864bbb6c9cb90e0110a7afacb]
link GetUnloadingLoadingMapController to Company--><path codeLine="15" d="M136.52,69.22 C125.54,86.26 111.77,107.61 100.35,125.32 " fill="none" id="GetUnloadingLoadingMapController-to-Company" style="stroke:#A80036;stroke-width:1.0;stroke-dasharray:7.0,7.0;"/><polygon fill="#A80036" points="97.5,129.74,105.7445,124.3522,100.2139,125.5406,99.0255,120.01,97.5,129.74" style="stroke:#A80036;stroke-width:1.0;"/><!--MD5=[5f44d34680ab6cb163cecb9869b867ef]
link GetUnloadingLoadingMapController to CargoManifestStoreDB--><path codeLine="16" d="M160.85,69.09 C166.26,108.81 172.59,180.64 159,240 C157.08,248.41 153.81,257 150.16,264.97 " fill="none" id="GetUnloadingLoadingMapController-to-CargoManifestStoreDB" style="stroke:#A80036;stroke-width:1.0;stroke-dasharray:7.0,7.0;"/><polygon fill="#A80036" points="147.84,269.84,155.3295,263.4441,149.9958,265.3286,148.1113,259.9949,147.84,269.84" style="stroke:#A80036;stroke-width:1.0;"/><!--MD5=[4ab6be66d0b2d15e041dac1ecef1ebf3]
link Company to CargoManifestStoreDB--><path codeLine="17" d="M89.41,192.28 C98.08,215.29 109.95,246.79 118.61,269.79 " fill="none" id="Company-CargoManifestStoreDB" style="stroke:#A80036;stroke-width:1.0;"/><polygon fill="#000000" points="114.7627,235.8548,114.3242,226.3543,108.8237,228.4265,114.7627,235.8548" style="stroke:#000000;stroke-width:1.0;"/><text fill="#000000" font-family="sans-serif" font-size="13" lengthAdjust="spacing" textLength="28" x="122" y="236.4951">uses</text><text fill="#000000" font-family="sans-serif" font-size="13" lengthAdjust="spacing" textLength="7" x="83.9178" y="213.312">1</text><text fill="#000000" font-family="sans-serif" font-size="13" lengthAdjust="spacing" textLength="7" x="108.5389" y="259.2512">1</text><!--MD5=[7daa5143cdeeab6a12febb7d818bc7cc]
@startuml
skinparam classAttributeIconSize 0

class GetUnloadingLoadingMapController{
    +getUnloadingLoadingMap()
}

class Company {
    +getShipStoreDB()
}

class CargoManifestStoreDB {
    +getUnloadingLoadingMap(dataBaseConnection)
}

GetUnloadingLoadingMapController ..> Company
GetUnloadingLoadingMapController ..> CargoManifestStoreDB
Company "1" - - "1" CargoManifestStoreDB : uses >

@enduml

PlantUML version 1.2021.11(Sat Oct 02 14:26:11 BST 2021)
(GPL source distribution)
Java Runtime: OpenJDK Runtime Environment
JVM: OpenJDK 64-Bit Server VM
Default Encoding: Cp1252
Language: pt
Country: PT
--></g></svg>