<?xml version="1.0" encoding="UTF-8" standalone="no"?><svg xmlns="http://www.w3.org/2000/svg" xmlns:xlink="http://www.w3.org/1999/xlink" contentScriptType="application/ecmascript" contentStyleType="text/css" height="729.6px" preserveAspectRatio="none" style="width:443px;height:729px;background:#FFFFFF;" version="1.1" viewBox="0 0 443 729" width="443.2px" zoomAndPan="magnify"><defs><filter height="300%" id="fxlv8tygpx768" width="300%" x="-1" y="-1"><feGaussianBlur result="blurOut" stdDeviation="1.6000000000000003"/><feColorMatrix in="blurOut" result="blurOut2" type="matrix" values="0 0 0 0 0 0 0 0 0 0 0 0 0 0 0 0 0 0 .4 0"/><feOffset dx="3.2000000000000006" dy="3.2000000000000006" in="blurOut2" result="blurOut3"/><feBlend in="SourceGraphic" in2="blurOut3" mode="normal"/></filter></defs><g><!--MD5=[0dc7f2ddb409b58bcf52b12238c25399]
class Ship--><rect codeLine="5" fill="#FEFECE" filter="url(#fxlv8tygpx768)" height="104.8125" id="Ship" style="stroke:#A80036;stroke-width:1.2000000000000002;" width="74.4" x="103.928" y="597.6"/><ellipse cx="128.888" cy="610.4" fill="#ADD1B2" rx="8.8" ry="8.8" style="stroke:#A80036;stroke-width:0.8000000000000002;"/><path d="M130.488,607.6 Q130.6505,607.2 130.838,607 Q131.0255,606.8 131.238,606.8 Q131.613,606.8 131.8505,607.025 Q132.088,607.25 132.088,607.775 L132.088,609.025 Q132.088,609.55 131.863,609.775 Q131.638,610 131.288,610 Q130.9755,610 130.7755,609.8625 Q130.5755,609.725 130.488,609.3625 Q130.4505,609.1125 130.313,608.975 Q130.063,608.7125 129.613,608.5625 Q129.163,608.4 128.713,608.4 Q128.1505,608.4 127.6755,608.625 Q127.213,608.85 126.8505,609.35 Q126.488,609.85 126.488,610.5375 L126.488,611.275 Q126.488,612.1 127.163,612.65 Q127.838,613.2 129.038,613.2 Q129.7505,613.2 130.2505,613.0375 Q130.538,612.95 130.863,612.6625 Q131.0755,612.5 131.188,612.45 Q131.3005,612.4 131.438,612.4 Q131.7005,612.4 131.888,612.6125 Q132.088,612.8125 132.088,613.1 Q132.088,613.375 131.813,613.7 Q131.413,614.175 130.7755,614.4375 Q129.938,614.8 128.913,614.8 Q127.713,614.8 126.7505,614.325 Q125.9755,613.95 125.4255,613.1375 Q124.888,612.325 124.888,611.3625 L124.888,610.4875 Q124.888,609.4875 125.363,608.6125 Q125.8505,607.7375 126.688,607.275 Q127.538,606.8 128.488,606.8 Q129.063,606.8 129.563,607 Q130.063,607.2 130.488,607.6 Z " fill="#000000"/><text fill="#000000" font-family="sans-serif" font-size="9.6" lengthAdjust="spacing" textLength="20" x="142.968" y="614.3281">Ship</text><line style="stroke:#A80036;stroke-width:1.2000000000000002;" x1="104.728" x2="177.528" y1="623.2" y2="623.2"/><text fill="#000000" font-family="sans-serif" font-size="8.8" lengthAdjust="spacing" textLength="48.8" x="108.728" y="635.5352">-mmmsiCode</text><text fill="#000000" font-family="sans-serif" font-size="8.8" lengthAdjust="spacing" textLength="40.8" x="108.728" y="646.6039">-shipName</text><text fill="#000000" font-family="sans-serif" font-size="8.8" lengthAdjust="spacing" textLength="36" x="108.728" y="657.6727">-imoCode</text><text fill="#000000" font-family="sans-serif" font-size="8.8" lengthAdjust="spacing" textLength="39.2" x="108.728" y="668.7414">-callSignId</text><text fill="#000000" font-family="sans-serif" font-size="8.8" lengthAdjust="spacing" textLength="64.8" x="108.728" y="679.8102">-currentCapacity</text><text fill="#000000" font-family="sans-serif" font-size="8.8" lengthAdjust="spacing" textLength="21.6" x="108.728" y="690.8789">-draft</text><line style="stroke:#A80036;stroke-width:1.2000000000000002;" x1="104.728" x2="177.528" y1="696.0125" y2="696.0125"/><!--MD5=[1c0c3765e68dc4575d559b566278b914]
class ShipPosition--><rect codeLine="14" fill="#FEFECE" filter="url(#fxlv8tygpx768)" height="138.0188" id="ShipPosition" style="stroke:#A80036;stroke-width:1.2000000000000002;" width="81.6" x="345.928" y="580.8"/><ellipse cx="357.928" cy="593.6" fill="#ADD1B2" rx="8.8" ry="8.8" style="stroke:#A80036;stroke-width:0.8000000000000002;"/><path d="M359.528,590.8 Q359.6905,590.4 359.878,590.2 Q360.0655,590 360.278,590 Q360.653,590 360.8905,590.225 Q361.128,590.45 361.128,590.975 L361.128,592.225 Q361.128,592.75 360.903,592.975 Q360.678,593.2 360.328,593.2 Q360.0155,593.2 359.8155,593.0625 Q359.6155,592.925 359.528,592.5625 Q359.4905,592.3125 359.353,592.175 Q359.103,591.9125 358.653,591.7625 Q358.203,591.6 357.753,591.6 Q357.1905,591.6 356.7155,591.825 Q356.253,592.05 355.8905,592.55 Q355.528,593.05 355.528,593.7375 L355.528,594.475 Q355.528,595.3 356.203,595.85 Q356.878,596.4 358.078,596.4 Q358.7905,596.4 359.2905,596.2375 Q359.578,596.15 359.903,595.8625 Q360.1155,595.7 360.228,595.65 Q360.3405,595.6 360.478,595.6 Q360.7405,595.6 360.928,595.8125 Q361.128,596.0125 361.128,596.3 Q361.128,596.575 360.853,596.9 Q360.453,597.375 359.8155,597.6375 Q358.978,598 357.953,598 Q356.753,598 355.7905,597.525 Q355.0155,597.15 354.4655,596.3375 Q353.928,595.525 353.928,594.5625 L353.928,593.6875 Q353.928,592.6875 354.403,591.8125 Q354.8905,590.9375 355.728,590.475 Q356.578,590 357.528,590 Q358.103,590 358.603,590.2 Q359.103,590.4 359.528,590.8 Z " fill="#000000"/><text fill="#000000" font-family="sans-serif" font-size="9.6" lengthAdjust="spacing" textLength="56" x="369.128" y="597.5281">ShipPosition</text><line style="stroke:#A80036;stroke-width:1.2000000000000002;" x1="346.728" x2="426.728" y1="606.4" y2="606.4"/><text fill="#000000" font-family="sans-serif" font-size="8.8" lengthAdjust="spacing" textLength="57.6" x="350.728" y="618.7352">-baseDateTime</text><text fill="#000000" font-family="sans-serif" font-size="8.8" lengthAdjust="spacing" textLength="30.4" x="350.728" y="629.8039">-latitude</text><text fill="#000000" font-family="sans-serif" font-size="8.8" lengthAdjust="spacing" textLength="37.6" x="350.728" y="640.8727">-longitude</text><text fill="#000000" font-family="sans-serif" font-size="8.8" lengthAdjust="spacing" textLength="17.6" x="350.728" y="651.9414">-sog</text><text fill="#000000" font-family="sans-serif" font-size="8.8" lengthAdjust="spacing" textLength="17.6" x="350.728" y="663.0102">-cog</text><text fill="#000000" font-family="sans-serif" font-size="8.8" lengthAdjust="spacing" textLength="33.6" x="350.728" y="674.0789">-heading</text><text fill="#000000" font-family="sans-serif" font-size="8.8" lengthAdjust="spacing" textLength="32.8" x="350.728" y="685.1477">-position</text><text fill="#000000" font-family="sans-serif" font-size="8.8" lengthAdjust="spacing" textLength="47.2" x="350.728" y="696.2164">-transceiver</text><line style="stroke:#A80036;stroke-width:1.2000000000000002;" x1="346.728" x2="426.728" y1="701.35" y2="701.35"/><text fill="#000000" font-family="sans-serif" font-size="8.8" lengthAdjust="spacing" textLength="40" x="350.728" y="713.6852">-getSOG()</text><!--MD5=[b5b6c86a063960d0027bc1719947b1c8]
class BstShip--><rect codeLine="26" fill="#FEFECE" filter="url(#fxlv8tygpx768)" height="49.4688" id="BstShip" style="stroke:#A80036;stroke-width:1.2000000000000002;" width="228" x="27.128" y="468.8"/><ellipse cx="120.528" cy="481.6" fill="#ADD1B2" rx="8.8" ry="8.8" style="stroke:#A80036;stroke-width:0.8000000000000002;"/><path d="M122.128,478.8 Q122.2905,478.4 122.478,478.2 Q122.6655,478 122.878,478 Q123.253,478 123.4905,478.225 Q123.728,478.45 123.728,478.975 L123.728,480.225 Q123.728,480.75 123.503,480.975 Q123.278,481.2 122.928,481.2 Q122.6155,481.2 122.4155,481.0625 Q122.2155,480.925 122.128,480.5625 Q122.0905,480.3125 121.953,480.175 Q121.703,479.9125 121.253,479.7625 Q120.803,479.6 120.353,479.6 Q119.7905,479.6 119.3155,479.825 Q118.853,480.05 118.4905,480.55 Q118.128,481.05 118.128,481.7375 L118.128,482.475 Q118.128,483.3 118.803,483.85 Q119.478,484.4 120.678,484.4 Q121.3905,484.4 121.8905,484.2375 Q122.178,484.15 122.503,483.8625 Q122.7155,483.7 122.828,483.65 Q122.9405,483.6 123.078,483.6 Q123.3405,483.6 123.528,483.8125 Q123.728,484.0125 123.728,484.3 Q123.728,484.575 123.453,484.9 Q123.053,485.375 122.4155,485.6375 Q121.578,486 120.553,486 Q119.353,486 118.3905,485.525 Q117.6155,485.15 117.0655,484.3375 Q116.528,483.525 116.528,482.5625 L116.528,481.6875 Q116.528,480.6875 117.003,479.8125 Q117.4905,478.9375 118.328,478.475 Q119.178,478 120.128,478 Q120.703,478 121.203,478.2 Q121.703,478.4 122.128,478.8 Z " fill="#000000"/><text fill="#000000" font-family="sans-serif" font-size="9.6" lengthAdjust="spacing" textLength="34.4" x="136.928" y="485.5281">BstShip</text><line style="stroke:#A80036;stroke-width:1.2000000000000002;" x1="27.928" x2="254.328" y1="494.4" y2="494.4"/><line style="stroke:#A80036;stroke-width:1.2000000000000002;" x1="27.928" x2="254.328" y1="500.8" y2="500.8"/><text fill="#000000" font-family="sans-serif" font-size="8.8" lengthAdjust="spacing" textLength="218.4" x="31.928" y="513.1352">-getShipByBaseDateTime(initialBaseDate, finalBaseDate)</text><!--MD5=[0e45b0aabfddc08aa78c1863dca6c01d]
class TopNUI--><rect codeLine="29" fill="#FEFECE" filter="url(#fxlv8tygpx768)" height="38.4" id="TopNUI" style="stroke:#A80036;stroke-width:1.2000000000000002;" width="59.2" x="111.528" y="5.6"/><ellipse cx="123.528" cy="18.4" fill="#ADD1B2" rx="8.8" ry="8.8" style="stroke:#A80036;stroke-width:0.8000000000000002;"/><path d="M125.128,15.6 Q125.2905,15.2 125.478,15 Q125.6655,14.8 125.878,14.8 Q126.253,14.8 126.4905,15.025 Q126.728,15.25 126.728,15.775 L126.728,17.025 Q126.728,17.55 126.503,17.775 Q126.278,18 125.928,18 Q125.6155,18 125.4155,17.8625 Q125.2155,17.725 125.128,17.3625 Q125.0905,17.1125 124.953,16.975 Q124.703,16.7125 124.253,16.5625 Q123.803,16.4 123.353,16.4 Q122.7905,16.4 122.3155,16.625 Q121.853,16.85 121.4905,17.35 Q121.128,17.85 121.128,18.5375 L121.128,19.275 Q121.128,20.1 121.803,20.65 Q122.478,21.2 123.678,21.2 Q124.3905,21.2 124.8905,21.0375 Q125.178,20.95 125.503,20.6625 Q125.7155,20.5 125.828,20.45 Q125.9405,20.4 126.078,20.4 Q126.3405,20.4 126.528,20.6125 Q126.728,20.8125 126.728,21.1 Q126.728,21.375 126.453,21.7 Q126.053,22.175 125.4155,22.4375 Q124.578,22.8 123.553,22.8 Q122.353,22.8 121.3905,22.325 Q120.6155,21.95 120.0655,21.1375 Q119.528,20.325 119.528,19.3625 L119.528,18.4875 Q119.528,17.4875 120.003,16.6125 Q120.4905,15.7375 121.328,15.275 Q122.178,14.8 123.128,14.8 Q123.703,14.8 124.203,15 Q124.703,15.2 125.128,15.6 Z " fill="#000000"/><text fill="#000000" font-family="sans-serif" font-size="9.6" lengthAdjust="spacing" textLength="33.6" x="134.728" y="22.3281">TopNUI</text><line style="stroke:#A80036;stroke-width:1.2000000000000002;" x1="112.328" x2="169.928" y1="31.2" y2="31.2"/><line style="stroke:#A80036;stroke-width:1.2000000000000002;" x1="112.328" x2="169.928" y1="37.6" y2="37.6"/><!--MD5=[d5574e99f1a38922926a27ad66b4faf7]
class TopNController--><rect codeLine="31" fill="#FEFECE" filter="url(#fxlv8tygpx768)" height="71.6063" id="TopNController" style="stroke:#A80036;stroke-width:1.2000000000000002;" width="228" x="27.128" y="92.8"/><ellipse cx="104.128" cy="105.6" fill="#ADD1B2" rx="8.8" ry="8.8" style="stroke:#A80036;stroke-width:0.8000000000000002;"/><path d="M105.728,102.8 Q105.8905,102.4 106.078,102.2 Q106.2655,102 106.478,102 Q106.853,102 107.0905,102.225 Q107.328,102.45 107.328,102.975 L107.328,104.225 Q107.328,104.75 107.103,104.975 Q106.878,105.2 106.528,105.2 Q106.2155,105.2 106.0155,105.0625 Q105.8155,104.925 105.728,104.5625 Q105.6905,104.3125 105.553,104.175 Q105.303,103.9125 104.853,103.7625 Q104.403,103.6 103.953,103.6 Q103.3905,103.6 102.9155,103.825 Q102.453,104.05 102.0905,104.55 Q101.728,105.05 101.728,105.7375 L101.728,106.475 Q101.728,107.3 102.403,107.85 Q103.078,108.4 104.278,108.4 Q104.9905,108.4 105.4905,108.2375 Q105.778,108.15 106.103,107.8625 Q106.3155,107.7 106.428,107.65 Q106.5405,107.6 106.678,107.6 Q106.9405,107.6 107.128,107.8125 Q107.328,108.0125 107.328,108.3 Q107.328,108.575 107.053,108.9 Q106.653,109.375 106.0155,109.6375 Q105.178,110 104.153,110 Q102.953,110 101.9905,109.525 Q101.2155,109.15 100.6655,108.3375 Q100.128,107.525 100.128,106.5625 L100.128,105.6875 Q100.128,104.6875 100.603,103.8125 Q101.0905,102.9375 101.928,102.475 Q102.778,102 103.728,102 Q104.303,102 104.803,102.2 Q105.303,102.4 105.728,102.8 Z " fill="#000000"/><text fill="#000000" font-family="sans-serif" font-size="9.6" lengthAdjust="spacing" textLength="67.2" x="120.528" y="109.5281">TopNController</text><line style="stroke:#A80036;stroke-width:1.2000000000000002;" x1="27.928" x2="254.328" y1="118.4" y2="118.4"/><line style="stroke:#A80036;stroke-width:1.2000000000000002;" x1="27.928" x2="254.328" y1="124.8" y2="124.8"/><text fill="#000000" font-family="sans-serif" font-size="8.8" lengthAdjust="spacing" textLength="218.4" x="31.928" y="137.1352">-getShipByBaseDateTime(initialBaseDate, finalBaseDate)</text><text fill="#000000" font-family="sans-serif" font-size="8.8" lengthAdjust="spacing" textLength="92" x="31.928" y="148.2039">-sortNShips(shipList, N)</text><text fill="#000000" font-family="sans-serif" font-size="8.8" lengthAdjust="spacing" textLength="122.4" x="31.928" y="159.2727">-getShipWithMean(sortedShips)</text><!--MD5=[ea2206eefe09474e90beb17e18e6b3d8]
class ShipStore--><rect codeLine="37" fill="#FEFECE" filter="url(#fxlv8tygpx768)" height="71.6063" id="ShipStore" style="stroke:#A80036;stroke-width:1.2000000000000002;" width="228" x="27.128" y="213.6"/><ellipse cx="116.128" cy="226.4" fill="#ADD1B2" rx="8.8" ry="8.8" style="stroke:#A80036;stroke-width:0.8000000000000002;"/><path d="M117.728,223.6 Q117.8905,223.2 118.078,223 Q118.2655,222.8 118.478,222.8 Q118.853,222.8 119.0905,223.025 Q119.328,223.25 119.328,223.775 L119.328,225.025 Q119.328,225.55 119.103,225.775 Q118.878,226 118.528,226 Q118.2155,226 118.0155,225.8625 Q117.8155,225.725 117.728,225.3625 Q117.6905,225.1125 117.553,224.975 Q117.303,224.7125 116.853,224.5625 Q116.403,224.4 115.953,224.4 Q115.3905,224.4 114.9155,224.625 Q114.453,224.85 114.0905,225.35 Q113.728,225.85 113.728,226.5375 L113.728,227.275 Q113.728,228.1 114.403,228.65 Q115.078,229.2 116.278,229.2 Q116.9905,229.2 117.4905,229.0375 Q117.778,228.95 118.103,228.6625 Q118.3155,228.5 118.428,228.45 Q118.5405,228.4 118.678,228.4 Q118.9405,228.4 119.128,228.6125 Q119.328,228.8125 119.328,229.1 Q119.328,229.375 119.053,229.7 Q118.653,230.175 118.0155,230.4375 Q117.178,230.8 116.153,230.8 Q114.953,230.8 113.9905,230.325 Q113.2155,229.95 112.6655,229.1375 Q112.128,228.325 112.128,227.3625 L112.128,226.4875 Q112.128,225.4875 112.603,224.6125 Q113.0905,223.7375 113.928,223.275 Q114.778,222.8 115.728,222.8 Q116.303,222.8 116.803,223 Q117.303,223.2 117.728,223.6 Z " fill="#000000"/><text fill="#000000" font-family="sans-serif" font-size="9.6" lengthAdjust="spacing" textLength="43.2" x="132.528" y="230.3281">ShipStore</text><line style="stroke:#A80036;stroke-width:1.2000000000000002;" x1="27.928" x2="254.328" y1="239.2" y2="239.2"/><line style="stroke:#A80036;stroke-width:1.2000000000000002;" x1="27.928" x2="254.328" y1="245.6" y2="245.6"/><text fill="#000000" font-family="sans-serif" font-size="8.8" lengthAdjust="spacing" textLength="218.4" x="31.928" y="257.9352">-getShipByBaseDateTime(initialBaseDate, finalBaseDate)</text><text fill="#000000" font-family="sans-serif" font-size="8.8" lengthAdjust="spacing" textLength="92" x="31.928" y="269.0039">-sortNShips(shipList, N)</text><text fill="#000000" font-family="sans-serif" font-size="8.8" lengthAdjust="spacing" textLength="122.4" x="31.928" y="280.0727">-getShipWithMean(sortedShips)</text><!--MD5=[7459516b2cc7691084b9cba56ea941c6]
class PositionStore--><rect codeLine="43" fill="#FEFECE" filter="url(#fxlv8tygpx768)" height="49.4688" id="PositionStore" style="stroke:#A80036;stroke-width:1.2000000000000002;" width="92" x="340.728" y="468.8"/><ellipse cx="355.968" cy="481.6" fill="#ADD1B2" rx="8.8" ry="8.8" style="stroke:#A80036;stroke-width:0.8000000000000002;"/><path d="M357.568,478.8 Q357.7305,478.4 357.918,478.2 Q358.1055,478 358.318,478 Q358.693,478 358.9305,478.225 Q359.168,478.45 359.168,478.975 L359.168,480.225 Q359.168,480.75 358.943,480.975 Q358.718,481.2 358.368,481.2 Q358.0555,481.2 357.8555,481.0625 Q357.6555,480.925 357.568,480.5625 Q357.5305,480.3125 357.393,480.175 Q357.143,479.9125 356.693,479.7625 Q356.243,479.6 355.793,479.6 Q355.2305,479.6 354.7555,479.825 Q354.293,480.05 353.9305,480.55 Q353.568,481.05 353.568,481.7375 L353.568,482.475 Q353.568,483.3 354.243,483.85 Q354.918,484.4 356.118,484.4 Q356.8305,484.4 357.3305,484.2375 Q357.618,484.15 357.943,483.8625 Q358.1555,483.7 358.268,483.65 Q358.3805,483.6 358.518,483.6 Q358.7805,483.6 358.968,483.8125 Q359.168,484.0125 359.168,484.3 Q359.168,484.575 358.893,484.9 Q358.493,485.375 357.8555,485.6375 Q357.018,486 355.993,486 Q354.793,486 353.8305,485.525 Q353.0555,485.15 352.5055,484.3375 Q351.968,483.525 351.968,482.5625 L351.968,481.6875 Q351.968,480.6875 352.443,479.8125 Q352.9305,478.9375 353.768,478.475 Q354.618,478 355.568,478 Q356.143,478 356.643,478.2 Q357.143,478.4 357.568,478.8 Z " fill="#000000"/><text fill="#000000" font-family="sans-serif" font-size="9.6" lengthAdjust="spacing" textLength="59.2" x="367.888" y="485.5281">PositionStore</text><line style="stroke:#A80036;stroke-width:1.2000000000000002;" x1="341.528" x2="431.928" y1="494.4" y2="494.4"/><line style="stroke:#A80036;stroke-width:1.2000000000000002;" x1="341.528" x2="431.928" y1="500.8" y2="500.8"/><text fill="#000000" font-family="sans-serif" font-size="8.8" lengthAdjust="spacing" textLength="82.4" x="345.528" y="513.1352">-getMeanSOG(code);</text><!--MD5=[02e4b9b7573f1156f41e60aa5b4e25a4]
class Company--><rect codeLine="46" fill="#FEFECE" filter="url(#fxlv8tygpx768)" height="71.6063" id="Company" style="stroke:#A80036;stroke-width:1.2000000000000002;" width="167.2" x="199.128" y="334.4"/><ellipse cx="258.128" cy="347.2" fill="#ADD1B2" rx="8.8" ry="8.8" style="stroke:#A80036;stroke-width:0.8000000000000002;"/><path d="M259.728,344.4 Q259.8905,344 260.078,343.8 Q260.2655,343.6 260.478,343.6 Q260.853,343.6 261.0905,343.825 Q261.328,344.05 261.328,344.575 L261.328,345.825 Q261.328,346.35 261.103,346.575 Q260.878,346.8 260.528,346.8 Q260.2155,346.8 260.0155,346.6625 Q259.8155,346.525 259.728,346.1625 Q259.6905,345.9125 259.553,345.775 Q259.303,345.5125 258.853,345.3625 Q258.403,345.2 257.953,345.2 Q257.3905,345.2 256.9155,345.425 Q256.453,345.65 256.0905,346.15 Q255.728,346.65 255.728,347.3375 L255.728,348.075 Q255.728,348.9 256.403,349.45 Q257.078,350 258.278,350 Q258.9905,350 259.4905,349.8375 Q259.778,349.75 260.103,349.4625 Q260.3155,349.3 260.428,349.25 Q260.5405,349.2 260.678,349.2 Q260.9405,349.2 261.128,349.4125 Q261.328,349.6125 261.328,349.9 Q261.328,350.175 261.053,350.5 Q260.653,350.975 260.0155,351.2375 Q259.178,351.6 258.153,351.6 Q256.953,351.6 255.9905,351.125 Q255.2155,350.75 254.6655,349.9375 Q254.128,349.125 254.128,348.1625 L254.128,347.2875 Q254.128,346.2875 254.603,345.4125 Q255.0905,344.5375 255.928,344.075 Q256.778,343.6 257.728,343.6 Q258.303,343.6 258.803,343.8 Q259.303,344 259.728,344.4 Z " fill="#000000"/><text fill="#000000" font-family="sans-serif" font-size="9.6" lengthAdjust="spacing" textLength="42.4" x="274.528" y="351.1281">Company</text><line style="stroke:#A80036;stroke-width:1.2000000000000002;" x1="199.928" x2="365.528" y1="360" y2="360"/><line style="stroke:#A80036;stroke-width:1.2000000000000002;" x1="199.928" x2="365.528" y1="366.4" y2="366.4"/><text fill="#000000" font-family="sans-serif" font-size="8.8" lengthAdjust="spacing" textLength="157.6" x="203.928" y="378.7352">-getShips(initialBaseDate, finalBaseDate)</text><text fill="#000000" font-family="sans-serif" font-size="8.8" lengthAdjust="spacing" textLength="87.2" x="203.928" y="389.8039">-getVesselType(code)</text><text fill="#000000" font-family="sans-serif" font-size="8.8" lengthAdjust="spacing" textLength="80" x="203.928" y="400.8727">-getMeanSOG(code)</text><!--MD5=[14fdb76946ac0c0eabf5d41702e30a18]
link Company to BstShip--><path codeLine="53" d="M241.392,406.696 C218.208,426.608 189.896,450.92 169.272,468.632 " fill="none" id="Company-BstShip" style="stroke:#A80036;stroke-width:0.8000000000000002;"/><polygon fill="#000000" points="213.2934,440.3467,220.3148,437.416,217.2512,433.8486,213.2934,440.3467" style="stroke:#000000;stroke-width:0.8000000000000002;"/><text fill="#000000" font-family="sans-serif" font-size="10.4" lengthAdjust="spacing" textLength="22.4" x="223.528" y="441.9961">uses</text><text fill="#000000" font-family="sans-serif" font-size="10.4" lengthAdjust="spacing" textLength="5.6" x="229.8612" y="423.2747">1</text><text fill="#000000" font-family="sans-serif" font-size="10.4" lengthAdjust="spacing" textLength="5.6" x="168.8992" y="460.201">1</text><!--MD5=[c8bf93ceff973e420f4a7548e4c56f0d]
link Company to PositionStore--><path codeLine="54" d="M313.088,406.696 C330.112,426.608 350.912,450.92 366.056,468.632 " fill="none" id="Company-PositionStore" style="stroke:#A80036;stroke-width:0.8000000000000002;"/><polygon fill="#000000" points="350.1278,440.7806,347.2116,433.7532,343.6379,436.8094,350.1278,440.7806" style="stroke:#000000;stroke-width:0.8000000000000002;"/><text fill="#000000" font-family="sans-serif" font-size="10.4" lengthAdjust="spacing" textLength="22.4" x="354.728" y="441.9961">uses</text><text fill="#000000" font-family="sans-serif" font-size="10.4" lengthAdjust="spacing" textLength="5.6" x="311.1914" y="423.2747">1</text><text fill="#000000" font-family="sans-serif" font-size="10.4" lengthAdjust="spacing" textLength="5.6" x="355.6149" y="460.201">1</text><!--MD5=[42c269113f15bf3b39a3f95e82b93e8f]
link BstShip to Ship--><path codeLine="55" d="M141.128,518.584 C141.128,539.592 141.128,570.728 141.128,597.328 " fill="none" id="BstShip-Ship" style="stroke:#A80036;stroke-width:0.8000000000000002;"/><polygon fill="#000000" points="145.128,553.7406,147.4791,546.5046,142.7769,546.5046,145.128,553.7406" style="stroke:#000000;stroke-width:0.8000000000000002;"/><text fill="#000000" font-family="sans-serif" font-size="10.4" lengthAdjust="spacing" textLength="24" x="152.328" y="553.9961">owns</text><text fill="#000000" font-family="sans-serif" font-size="10.4" lengthAdjust="spacing" textLength="5.6" x="134.9943" y="535.402">1</text><text fill="#000000" font-family="sans-serif" font-size="10.4" lengthAdjust="spacing" textLength="16" x="124.253" y="588.8778">1..*</text><!--MD5=[7cc50e14082cb2e4b2cc921c8068a5a4]
link TopNUI to TopNController--><path codeLine="56" d="M141.128,44.144 C141.128,56.472 141.128,73.136 141.128,88.36 " fill="none" id="TopNUI-to-TopNController" style="stroke:#A80036;stroke-width:0.8000000000000002;stroke-dasharray:7.0,7.0;"/><polygon fill="#A80036" points="141.128,92.608,144.328,85.408,141.128,88.608,137.928,85.408,141.128,92.608" style="stroke:#A80036;stroke-width:0.8000000000000002;"/><!--MD5=[d7ff1a1e02d09149ff8cd81a5c39905e]
link TopNController to ShipStore--><path codeLine="57" d="M141.128,165.04 C141.128,178.912 141.128,194.88 141.128,209.128 " fill="none" id="TopNController-to-ShipStore" style="stroke:#A80036;stroke-width:0.8000000000000002;stroke-dasharray:7.0,7.0;"/><polygon fill="#A80036" points="141.128,213.496,144.328,206.296,141.128,209.496,137.928,206.296,141.128,213.496" style="stroke:#A80036;stroke-width:0.8000000000000002;"/><!--MD5=[54fec991fa25d019645896993667178f]
link ShipStore to Company--><path codeLine="58" d="M183.232,285.84 C200.344,300.248 220.152,316.92 237.568,331.584 " fill="none" id="ShipStore-to-Company" style="stroke:#A80036;stroke-width:0.8000000000000002;stroke-dasharray:7.0,7.0;"/><polygon fill="#A80036" points="240.792,334.296,237.3508,327.2081,237.7341,331.7173,233.2249,332.1007,240.792,334.296" style="stroke:#A80036;stroke-width:0.8000000000000002;"/><!--MD5=[42f1e01bb1546c1ec4326579025b031c]
link ShipStore to BstShip--><path codeLine="59" d="M141.128,285.648 C141.128,333.984 141.128,419.904 141.128,464.368 " fill="none" id="ShipStore-to-BstShip" style="stroke:#A80036;stroke-width:0.8000000000000002;stroke-dasharray:7.0,7.0;"/><polygon fill="#A80036" points="141.128,468.544,144.328,461.344,141.128,464.544,137.928,461.344,141.128,468.544" style="stroke:#A80036;stroke-width:0.8000000000000002;"/><!--MD5=[f04e04ecc6998d67821b33eb17256457]
link ShipStore to Ship--><path codeLine="60" d="M112.16,285.92 C80.672,327.04 32.296,398.184 13.128,468.8 C7.352,490.072 4.8,497.992 13.128,518.4 C30.664,561.4 69.912,597.944 100.352,621.376 " fill="none" id="ShipStore-to-Ship" style="stroke:#A80036;stroke-width:0.8000000000000002;stroke-dasharray:7.0,7.0;"/><polygon fill="#A80036" points="103.64,623.888,99.8552,616.9775,100.4593,621.4624,95.9743,622.0665,103.64,623.888" style="stroke:#A80036;stroke-width:0.8000000000000002;"/><!--MD5=[5ee03a812b60f1351cd34df47ef6b521]
link PositionStore to ShipPosition--><path codeLine="61" d="M386.728,518.584 C386.728,534.296 386.728,555.664 386.728,576.568 " fill="none" id="PositionStore-to-ShipPosition" style="stroke:#A80036;stroke-width:0.8000000000000002;stroke-dasharray:7.0,7.0;"/><polygon fill="#A80036" points="386.728,580.736,389.928,573.536,386.728,576.736,383.528,573.536,386.728,580.736" style="stroke:#A80036;stroke-width:0.8000000000000002;"/><!--MD5=[37a14a5de6d6fd738aee271300f4b5c8]
link Company to Ship--><path codeLine="62" d="M285.912,406.512 C287.24,437.44 285.56,482.88 269.128,518.4 C249.816,560.136 211.432,596.48 181.712,620.2 " fill="none" id="Company-to-Ship" style="stroke:#A80036;stroke-width:0.8000000000000002;stroke-dasharray:7.0,7.0;"/><polygon fill="#A80036" points="178.496,622.744,186.1305,620.796,181.6361,620.2662,182.1659,615.7718,178.496,622.744" style="stroke:#A80036;stroke-width:0.8000000000000002;"/><!--MD5=[caf5270c09ab61194adfd402578955e1]
@startuml

skinparam classAttributeIconSize 0


class Ship {
    -mmmsiCode
    -shipName
    -imoCode
    -callSignId
    -currentCapacity /'added by us'/
    -draft
}

class ShipPosition {
    -baseDateTime
    -latitude
    -longitude
    -sog
    -cog
    -heading
    -position
    -transceiver
    -getSOG()
}

class BstShip {
    -getShipByBaseDateTime(initialBaseDate, finalBaseDate)
}
class TopNUI {}

class TopNController {
    -getShipByBaseDateTime(initialBaseDate, finalBaseDate)
    -sortNShips(shipList, N)
    -getShipWithMean(sortedShips)
}

class ShipStore{
    -getShipByBaseDateTime(initialBaseDate, finalBaseDate)
    -sortNShips(shipList, N)
    -getShipWithMean(sortedShips)
}

class PositionStore{
    -getMeanSOG(code);
}
class Company {
    -getShips(initialBaseDate, finalBaseDate)
    -getVesselType(code)
    -getMeanSOG(code)
}


Company "1" - - "1" BstShip : uses >
Company "1" - - "1" PositionStore : uses >
BstShip "1" - - "1..*" Ship : owns >
TopNUI ..> TopNController
TopNController ..> ShipStore
ShipStore ..> Company
ShipStore ..> BstShip
ShipStore ..> Ship
PositionStore ..> ShipPosition
Company ..> Ship


@enduml

@startuml

skinparam classAttributeIconSize 0


class Ship {
    -mmmsiCode
    -shipName
    -imoCode
    -callSignId
    -currentCapacity 
    -draft
}

class ShipPosition {
    -baseDateTime
    -latitude
    -longitude
    -sog
    -cog
    -heading
    -position
    -transceiver
    -getSOG()
}

class BstShip {
    -getShipByBaseDateTime(initialBaseDate, finalBaseDate)
}
class TopNUI {}

class TopNController {
    -getShipByBaseDateTime(initialBaseDate, finalBaseDate)
    -sortNShips(shipList, N)
    -getShipWithMean(sortedShips)
}

class ShipStore{
    -getShipByBaseDateTime(initialBaseDate, finalBaseDate)
    -sortNShips(shipList, N)
    -getShipWithMean(sortedShips)
}

class PositionStore{
    -getMeanSOG(code);
}
class Company {
    -getShips(initialBaseDate, finalBaseDate)
    -getVesselType(code)
    -getMeanSOG(code)
}


Company "1" - - "1" BstShip : uses >
Company "1" - - "1" PositionStore : uses >
BstShip "1" - - "1..*" Ship : owns >
TopNUI ..> TopNController
TopNController ..> ShipStore
ShipStore ..> Company
ShipStore ..> BstShip
ShipStore ..> Ship
PositionStore ..> ShipPosition
Company ..> Ship


@enduml

PlantUML version 1.2021.11(Sat Oct 02 14:26:11 BST 2021)
(GPL source distribution)
Java Runtime: OpenJDK Runtime Environment
JVM: OpenJDK 64-Bit Server VM
Default Encoding: Cp1252
Language: pt
Country: PT
--></g></svg>