<?xml version="1.0" encoding="UTF-8" standalone="no"?><svg xmlns="http://www.w3.org/2000/svg" xmlns:xlink="http://www.w3.org/1999/xlink" contentScriptType="application/ecmascript" contentStyleType="text/css" height="1247px" preserveAspectRatio="none" style="width:329px;height:1247px;background:#FFFFFF;" version="1.1" viewBox="0 0 329 1247" width="329px" zoomAndPan="magnify"><defs><filter height="300%" id="fbegpomvywwbd" width="300%" x="-1" y="-1"><feGaussianBlur result="blurOut" stdDeviation="2.0"/><feColorMatrix in="blurOut" result="blurOut2" type="matrix" values="0 0 0 0 0 0 0 0 0 0 0 0 0 0 0 0 0 0 .4 0"/><feOffset dx="4.0" dy="4.0" in="blurOut2" result="blurOut3"/><feBlend in="SourceGraphic" in2="blurOut3" mode="normal"/></filter></defs><g><!--MD5=[0dc7f2ddb409b58bcf52b12238c25399]
class Ship--><rect codeLine="5" fill="#FEFECE" filter="url(#fbegpomvywwbd)" height="131.0156" id="Ship" style="stroke:#A80036;stroke-width:1.5;" width="93" x="203" y="684"/><ellipse cx="234.2" cy="700" fill="#ADD1B2" rx="11" ry="11" style="stroke:#A80036;stroke-width:1.0;"/><path d="M236.2,696.5 Q236.4031,696 236.6375,695.75 Q236.8719,695.5 237.1375,695.5 Q237.6063,695.5 237.9031,695.7813 Q238.2,696.0625 238.2,696.7188 L238.2,698.2813 Q238.2,698.9375 237.9188,699.2188 Q237.6375,699.5 237.2,699.5 Q236.8094,699.5 236.5594,699.3281 Q236.3094,699.1563 236.2,698.7031 Q236.1531,698.3906 235.9813,698.2188 Q235.6688,697.8906 235.1063,697.7031 Q234.5438,697.5 233.9813,697.5 Q233.2781,697.5 232.6844,697.7813 Q232.1063,698.0625 231.6531,698.6875 Q231.2,699.3125 231.2,700.1719 L231.2,701.0938 Q231.2,702.125 232.0438,702.8125 Q232.8875,703.5 234.3875,703.5 Q235.2781,703.5 235.9031,703.2969 Q236.2625,703.1875 236.6688,702.8281 Q236.9344,702.625 237.075,702.5625 Q237.2156,702.5 237.3875,702.5 Q237.7156,702.5 237.95,702.7656 Q238.2,703.0156 238.2,703.375 Q238.2,703.7188 237.8563,704.125 Q237.3563,704.7188 236.5594,705.0469 Q235.5125,705.5 234.2313,705.5 Q232.7313,705.5 231.5281,704.9063 Q230.5594,704.4375 229.8719,703.4219 Q229.2,702.4063 229.2,701.2031 L229.2,700.1094 Q229.2,698.8594 229.7938,697.7656 Q230.4031,696.6719 231.45,696.0938 Q232.5125,695.5 233.7,695.5 Q234.4188,695.5 235.0438,695.75 Q235.6688,696 236.2,696.5 Z " fill="#000000"/><text fill="#000000" font-family="sans-serif" font-size="12" lengthAdjust="spacing" textLength="25" x="251.8" y="704.9102">Ship</text><line style="stroke:#A80036;stroke-width:1.5;" x1="204" x2="295" y1="716" y2="716"/><text fill="#000000" font-family="sans-serif" font-size="11" lengthAdjust="spacing" textLength="61" x="209" y="731.4189">-mmmsiCode</text><text fill="#000000" font-family="sans-serif" font-size="11" lengthAdjust="spacing" textLength="51" x="209" y="745.2549">-shipName</text><text fill="#000000" font-family="sans-serif" font-size="11" lengthAdjust="spacing" textLength="45" x="209" y="759.0908">-imoCode</text><text fill="#000000" font-family="sans-serif" font-size="11" lengthAdjust="spacing" textLength="49" x="209" y="772.9268">-callSignId</text><text fill="#000000" font-family="sans-serif" font-size="11" lengthAdjust="spacing" textLength="81" x="209" y="786.7627">-currentCapacity</text><text fill="#000000" font-family="sans-serif" font-size="11" lengthAdjust="spacing" textLength="27" x="209" y="800.5986">-draft</text><line style="stroke:#A80036;stroke-width:1.5;" x1="204" x2="295" y1="807.0156" y2="807.0156"/><!--MD5=[1c0c3765e68dc4575d559b566278b914]
class ShipPosition--><rect codeLine="14" fill="#FEFECE" filter="url(#fbegpomvywwbd)" height="172.5234" id="ShipPosition" style="stroke:#A80036;stroke-width:1.5;" width="102" x="127.5" y="1061"/><ellipse cx="142.5" cy="1077" fill="#ADD1B2" rx="11" ry="11" style="stroke:#A80036;stroke-width:1.0;"/><path d="M144.5,1073.5 Q144.7031,1073 144.9375,1072.75 Q145.1719,1072.5 145.4375,1072.5 Q145.9063,1072.5 146.2031,1072.7813 Q146.5,1073.0625 146.5,1073.7188 L146.5,1075.2813 Q146.5,1075.9375 146.2188,1076.2188 Q145.9375,1076.5 145.5,1076.5 Q145.1094,1076.5 144.8594,1076.3281 Q144.6094,1076.1563 144.5,1075.7031 Q144.4531,1075.3906 144.2813,1075.2188 Q143.9688,1074.8906 143.4063,1074.7031 Q142.8438,1074.5 142.2813,1074.5 Q141.5781,1074.5 140.9844,1074.7813 Q140.4063,1075.0625 139.9531,1075.6875 Q139.5,1076.3125 139.5,1077.1719 L139.5,1078.0938 Q139.5,1079.125 140.3438,1079.8125 Q141.1875,1080.5 142.6875,1080.5 Q143.5781,1080.5 144.2031,1080.2969 Q144.5625,1080.1875 144.9688,1079.8281 Q145.2344,1079.625 145.375,1079.5625 Q145.5156,1079.5 145.6875,1079.5 Q146.0156,1079.5 146.25,1079.7656 Q146.5,1080.0156 146.5,1080.375 Q146.5,1080.7188 146.1563,1081.125 Q145.6563,1081.7188 144.8594,1082.0469 Q143.8125,1082.5 142.5313,1082.5 Q141.0313,1082.5 139.8281,1081.9063 Q138.8594,1081.4375 138.1719,1080.4219 Q137.5,1079.4063 137.5,1078.2031 L137.5,1077.1094 Q137.5,1075.8594 138.0938,1074.7656 Q138.7031,1073.6719 139.75,1073.0938 Q140.8125,1072.5 142,1072.5 Q142.7188,1072.5 143.3438,1072.75 Q143.9688,1073 144.5,1073.5 Z " fill="#000000"/><text fill="#000000" font-family="sans-serif" font-size="12" lengthAdjust="spacing" textLength="70" x="156.5" y="1081.9102">ShipPosition</text><line style="stroke:#A80036;stroke-width:1.5;" x1="128.5" x2="228.5" y1="1093" y2="1093"/><text fill="#000000" font-family="sans-serif" font-size="11" lengthAdjust="spacing" textLength="72" x="133.5" y="1108.4189">-baseDateTime</text><text fill="#000000" font-family="sans-serif" font-size="11" lengthAdjust="spacing" textLength="38" x="133.5" y="1122.2549">-latitude</text><text fill="#000000" font-family="sans-serif" font-size="11" lengthAdjust="spacing" textLength="47" x="133.5" y="1136.0908">-longitude</text><text fill="#000000" font-family="sans-serif" font-size="11" lengthAdjust="spacing" textLength="22" x="133.5" y="1149.9268">-sog</text><text fill="#000000" font-family="sans-serif" font-size="11" lengthAdjust="spacing" textLength="22" x="133.5" y="1163.7627">-cog</text><text fill="#000000" font-family="sans-serif" font-size="11" lengthAdjust="spacing" textLength="42" x="133.5" y="1177.5986">-heading</text><text fill="#000000" font-family="sans-serif" font-size="11" lengthAdjust="spacing" textLength="41" x="133.5" y="1191.4346">-position</text><text fill="#000000" font-family="sans-serif" font-size="11" lengthAdjust="spacing" textLength="59" x="133.5" y="1205.2705">-transceiver</text><line style="stroke:#A80036;stroke-width:1.5;" x1="128.5" x2="228.5" y1="1211.6875" y2="1211.6875"/><text fill="#000000" font-family="sans-serif" font-size="11" lengthAdjust="spacing" textLength="50" x="133.5" y="1227.1064">-getSOG()</text><!--MD5=[ea2206eefe09474e90beb17e18e6b3d8]
class ShipStore--><rect codeLine="26" fill="#FEFECE" filter="url(#fbegpomvywwbd)" height="61.8359" id="ShipStore" style="stroke:#A80036;stroke-width:1.5;" width="106" x="186.5" y="393"/><ellipse cx="210.5" cy="409" fill="#ADD1B2" rx="11" ry="11" style="stroke:#A80036;stroke-width:1.0;"/><path d="M212.5,405.5 Q212.7031,405 212.9375,404.75 Q213.1719,404.5 213.4375,404.5 Q213.9063,404.5 214.2031,404.7813 Q214.5,405.0625 214.5,405.7188 L214.5,407.2813 Q214.5,407.9375 214.2188,408.2188 Q213.9375,408.5 213.5,408.5 Q213.1094,408.5 212.8594,408.3281 Q212.6094,408.1563 212.5,407.7031 Q212.4531,407.3906 212.2813,407.2188 Q211.9688,406.8906 211.4063,406.7031 Q210.8438,406.5 210.2813,406.5 Q209.5781,406.5 208.9844,406.7813 Q208.4063,407.0625 207.9531,407.6875 Q207.5,408.3125 207.5,409.1719 L207.5,410.0938 Q207.5,411.125 208.3438,411.8125 Q209.1875,412.5 210.6875,412.5 Q211.5781,412.5 212.2031,412.2969 Q212.5625,412.1875 212.9688,411.8281 Q213.2344,411.625 213.375,411.5625 Q213.5156,411.5 213.6875,411.5 Q214.0156,411.5 214.25,411.7656 Q214.5,412.0156 214.5,412.375 Q214.5,412.7188 214.1563,413.125 Q213.6563,413.7188 212.8594,414.0469 Q211.8125,414.5 210.5313,414.5 Q209.0313,414.5 207.8281,413.9063 Q206.8594,413.4375 206.1719,412.4219 Q205.5,411.4063 205.5,410.2031 L205.5,409.1094 Q205.5,407.8594 206.0938,406.7656 Q206.7031,405.6719 207.75,405.0938 Q208.8125,404.5 210,404.5 Q210.7188,404.5 211.3438,404.75 Q211.9688,405 212.5,405.5 Z " fill="#000000"/><text fill="#000000" font-family="sans-serif" font-size="12" lengthAdjust="spacing" textLength="54" x="226.5" y="413.9102">ShipStore</text><line style="stroke:#A80036;stroke-width:1.5;" x1="187.5" x2="291.5" y1="425" y2="425"/><line style="stroke:#A80036;stroke-width:1.5;" x1="187.5" x2="291.5" y1="433" y2="433"/><text fill="#000000" font-family="sans-serif" font-size="11" lengthAdjust="spacing" textLength="94" x="192.5" y="448.4189">-getShipsBstMmsi()</text><!--MD5=[0e45b0aabfddc08aa78c1863dca6c01d]
class TopNUI--><rect codeLine="31" fill="#FEFECE" filter="url(#fbegpomvywwbd)" height="48" id="TopNUI" style="stroke:#A80036;stroke-width:1.5;" width="74" x="116.5" y="7"/><ellipse cx="131.5" cy="23" fill="#ADD1B2" rx="11" ry="11" style="stroke:#A80036;stroke-width:1.0;"/><path d="M133.5,19.5 Q133.7031,19 133.9375,18.75 Q134.1719,18.5 134.4375,18.5 Q134.9063,18.5 135.2031,18.7813 Q135.5,19.0625 135.5,19.7188 L135.5,21.2813 Q135.5,21.9375 135.2188,22.2188 Q134.9375,22.5 134.5,22.5 Q134.1094,22.5 133.8594,22.3281 Q133.6094,22.1563 133.5,21.7031 Q133.4531,21.3906 133.2813,21.2188 Q132.9688,20.8906 132.4063,20.7031 Q131.8438,20.5 131.2813,20.5 Q130.5781,20.5 129.9844,20.7813 Q129.4063,21.0625 128.9531,21.6875 Q128.5,22.3125 128.5,23.1719 L128.5,24.0938 Q128.5,25.125 129.3438,25.8125 Q130.1875,26.5 131.6875,26.5 Q132.5781,26.5 133.2031,26.2969 Q133.5625,26.1875 133.9688,25.8281 Q134.2344,25.625 134.375,25.5625 Q134.5156,25.5 134.6875,25.5 Q135.0156,25.5 135.25,25.7656 Q135.5,26.0156 135.5,26.375 Q135.5,26.7188 135.1563,27.125 Q134.6563,27.7188 133.8594,28.0469 Q132.8125,28.5 131.5313,28.5 Q130.0313,28.5 128.8281,27.9063 Q127.8594,27.4375 127.1719,26.4219 Q126.5,25.4063 126.5,24.2031 L126.5,23.1094 Q126.5,21.8594 127.0938,20.7656 Q127.7031,19.6719 128.75,19.0938 Q129.8125,18.5 131,18.5 Q131.7188,18.5 132.3438,18.75 Q132.9688,19 133.5,19.5 Z " fill="#000000"/><text fill="#000000" font-family="sans-serif" font-size="12" lengthAdjust="spacing" textLength="42" x="145.5" y="27.9102">TopNUI</text><line style="stroke:#A80036;stroke-width:1.5;" x1="117.5" x2="189.5" y1="39" y2="39"/><line style="stroke:#A80036;stroke-width:1.5;" x1="117.5" x2="189.5" y1="47" y2="47"/><!--MD5=[d5574e99f1a38922926a27ad66b4faf7]
class TopNController--><rect codeLine="33" fill="#FEFECE" filter="url(#fbegpomvywwbd)" height="75.6719" id="TopNController" style="stroke:#A80036;stroke-width:1.5;" width="285" x="11" y="116"/><ellipse cx="107.25" cy="132" fill="#ADD1B2" rx="11" ry="11" style="stroke:#A80036;stroke-width:1.0;"/><path d="M109.25,128.5 Q109.4531,128 109.6875,127.75 Q109.9219,127.5 110.1875,127.5 Q110.6563,127.5 110.9531,127.7813 Q111.25,128.0625 111.25,128.7188 L111.25,130.2813 Q111.25,130.9375 110.9688,131.2188 Q110.6875,131.5 110.25,131.5 Q109.8594,131.5 109.6094,131.3281 Q109.3594,131.1563 109.25,130.7031 Q109.2031,130.3906 109.0313,130.2188 Q108.7188,129.8906 108.1563,129.7031 Q107.5938,129.5 107.0313,129.5 Q106.3281,129.5 105.7344,129.7813 Q105.1563,130.0625 104.7031,130.6875 Q104.25,131.3125 104.25,132.1719 L104.25,133.0938 Q104.25,134.125 105.0938,134.8125 Q105.9375,135.5 107.4375,135.5 Q108.3281,135.5 108.9531,135.2969 Q109.3125,135.1875 109.7188,134.8281 Q109.9844,134.625 110.125,134.5625 Q110.2656,134.5 110.4375,134.5 Q110.7656,134.5 111,134.7656 Q111.25,135.0156 111.25,135.375 Q111.25,135.7188 110.9063,136.125 Q110.4063,136.7188 109.6094,137.0469 Q108.5625,137.5 107.2813,137.5 Q105.7813,137.5 104.5781,136.9063 Q103.6094,136.4375 102.9219,135.4219 Q102.25,134.4063 102.25,133.2031 L102.25,132.1094 Q102.25,130.8594 102.8438,129.7656 Q103.4531,128.6719 104.5,128.0938 Q105.5625,127.5 106.75,127.5 Q107.4688,127.5 108.0938,127.75 Q108.7188,128 109.25,128.5 Z " fill="#000000"/><text fill="#000000" font-family="sans-serif" font-size="12" lengthAdjust="spacing" textLength="84" x="127.75" y="136.9102">TopNController</text><line style="stroke:#A80036;stroke-width:1.5;" x1="12" x2="295" y1="148" y2="148"/><line style="stroke:#A80036;stroke-width:1.5;" x1="12" x2="295" y1="156" y2="156"/><text fill="#000000" font-family="sans-serif" font-size="11" lengthAdjust="spacing" textLength="273" x="17" y="171.4189">-getShipByBaseDateTime(initialBaseDate, finalBaseDate)</text><text fill="#000000" font-family="sans-serif" font-size="11" lengthAdjust="spacing" textLength="153" x="17" y="185.2549">-getShipWithMean(sortedShips)</text><!--MD5=[43adf079e4aaffd3a283c2c0454b404c]
class ShipsBST--><rect codeLine="38" fill="#FEFECE" filter="url(#fbegpomvywwbd)" height="89.5078" id="ShipsBST" style="stroke:#A80036;stroke-width:1.5;" width="285" x="7" y="516"/><ellipse cx="117.75" cy="532" fill="#ADD1B2" rx="11" ry="11" style="stroke:#A80036;stroke-width:1.0;"/><path d="M119.75,528.5 Q119.9531,528 120.1875,527.75 Q120.4219,527.5 120.6875,527.5 Q121.1563,527.5 121.4531,527.7813 Q121.75,528.0625 121.75,528.7188 L121.75,530.2813 Q121.75,530.9375 121.4688,531.2188 Q121.1875,531.5 120.75,531.5 Q120.3594,531.5 120.1094,531.3281 Q119.8594,531.1563 119.75,530.7031 Q119.7031,530.3906 119.5313,530.2188 Q119.2188,529.8906 118.6563,529.7031 Q118.0938,529.5 117.5313,529.5 Q116.8281,529.5 116.2344,529.7813 Q115.6563,530.0625 115.2031,530.6875 Q114.75,531.3125 114.75,532.1719 L114.75,533.0938 Q114.75,534.125 115.5938,534.8125 Q116.4375,535.5 117.9375,535.5 Q118.8281,535.5 119.4531,535.2969 Q119.8125,535.1875 120.2188,534.8281 Q120.4844,534.625 120.625,534.5625 Q120.7656,534.5 120.9375,534.5 Q121.2656,534.5 121.5,534.7656 Q121.75,535.0156 121.75,535.375 Q121.75,535.7188 121.4063,536.125 Q120.9063,536.7188 120.1094,537.0469 Q119.0625,537.5 117.7813,537.5 Q116.2813,537.5 115.0781,536.9063 Q114.1094,536.4375 113.4219,535.4219 Q112.75,534.4063 112.75,533.2031 L112.75,532.1094 Q112.75,530.8594 113.3438,529.7656 Q113.9531,528.6719 115,528.0938 Q116.0625,527.5 117.25,527.5 Q117.9688,527.5 118.5938,527.75 Q119.2188,528 119.75,528.5 Z " fill="#000000"/><text fill="#000000" font-family="sans-serif" font-size="12" lengthAdjust="spacing" textLength="55" x="138.25" y="536.9102">ShipsBST</text><line style="stroke:#A80036;stroke-width:1.5;" x1="8" x2="291" y1="548" y2="548"/><line style="stroke:#A80036;stroke-width:1.5;" x1="8" x2="291" y1="556" y2="556"/><text fill="#000000" font-family="sans-serif" font-size="11" lengthAdjust="spacing" textLength="273" x="13" y="571.4189">-getShipByBaseDateTime(initialBaseDate, finalBaseDate)</text><text fill="#000000" font-family="sans-serif" font-size="11" lengthAdjust="spacing" textLength="102" x="13" y="585.2549">-sortNShips(shipList)</text><text fill="#000000" font-family="sans-serif" font-size="11" lengthAdjust="spacing" textLength="166" x="13" y="599.0908">-getShipWithMean(sortedShips, N)</text><!--MD5=[4901be1d1d8a5c23fb0daf47783de1b7]
class PositionBST--><rect codeLine="44" fill="#FEFECE" filter="url(#fbegpomvywwbd)" height="89.5078" id="PositionBST" style="stroke:#A80036;stroke-width:1.5;" width="153" x="102" y="893"/><ellipse cx="140.85" cy="909" fill="#ADD1B2" rx="11" ry="11" style="stroke:#A80036;stroke-width:1.0;"/><path d="M142.85,905.5 Q143.0531,905 143.2875,904.75 Q143.5219,904.5 143.7875,904.5 Q144.2563,904.5 144.5531,904.7813 Q144.85,905.0625 144.85,905.7188 L144.85,907.2813 Q144.85,907.9375 144.5688,908.2188 Q144.2875,908.5 143.85,908.5 Q143.4594,908.5 143.2094,908.3281 Q142.9594,908.1563 142.85,907.7031 Q142.8031,907.3906 142.6313,907.2188 Q142.3188,906.8906 141.7563,906.7031 Q141.1938,906.5 140.6313,906.5 Q139.9281,906.5 139.3344,906.7813 Q138.7563,907.0625 138.3031,907.6875 Q137.85,908.3125 137.85,909.1719 L137.85,910.0938 Q137.85,911.125 138.6938,911.8125 Q139.5375,912.5 141.0375,912.5 Q141.9281,912.5 142.5531,912.2969 Q142.9125,912.1875 143.3188,911.8281 Q143.5844,911.625 143.725,911.5625 Q143.8656,911.5 144.0375,911.5 Q144.3656,911.5 144.6,911.7656 Q144.85,912.0156 144.85,912.375 Q144.85,912.7188 144.5063,913.125 Q144.0063,913.7188 143.2094,914.0469 Q142.1625,914.5 140.8813,914.5 Q139.3813,914.5 138.1781,913.9063 Q137.2094,913.4375 136.5219,912.4219 Q135.85,911.4063 135.85,910.2031 L135.85,909.1094 Q135.85,907.8594 136.4438,906.7656 Q137.0531,905.6719 138.1,905.0938 Q139.1625,904.5 140.35,904.5 Q141.0688,904.5 141.6938,904.75 Q142.3188,905 142.85,905.5 Z " fill="#000000"/><text fill="#000000" font-family="sans-serif" font-size="12" lengthAdjust="spacing" textLength="68" x="160.15" y="913.9102">PositionBST</text><line style="stroke:#A80036;stroke-width:1.5;" x1="103" x2="254" y1="925" y2="925"/><line style="stroke:#A80036;stroke-width:1.5;" x1="103" x2="254" y1="933" y2="933"/><text fill="#000000" font-family="sans-serif" font-size="11" lengthAdjust="spacing" textLength="141" x="108" y="948.4189">-getShipBaseDateTime(code)</text><text fill="#000000" font-family="sans-serif" font-size="11" lengthAdjust="spacing" textLength="76" x="108" y="962.2549">-getMeanSOG()</text><text fill="#000000" font-family="sans-serif" font-size="11" lengthAdjust="spacing" textLength="92" x="108" y="976.0908">-getTotalDistance()</text><!--MD5=[02e4b9b7573f1156f41e60aa5b4e25a4]
class Company--><rect codeLine="49" fill="#FEFECE" filter="url(#fbegpomvywwbd)" height="61.8359" id="Company" style="stroke:#A80036;stroke-width:1.5;" width="86" x="196.5" y="253"/><ellipse cx="211.95" cy="269" fill="#ADD1B2" rx="11" ry="11" style="stroke:#A80036;stroke-width:1.0;"/><path d="M213.95,265.5 Q214.1531,265 214.3875,264.75 Q214.6219,264.5 214.8875,264.5 Q215.3563,264.5 215.6531,264.7813 Q215.95,265.0625 215.95,265.7188 L215.95,267.2813 Q215.95,267.9375 215.6688,268.2188 Q215.3875,268.5 214.95,268.5 Q214.5594,268.5 214.3094,268.3281 Q214.0594,268.1563 213.95,267.7031 Q213.9031,267.3906 213.7313,267.2188 Q213.4188,266.8906 212.8563,266.7031 Q212.2938,266.5 211.7313,266.5 Q211.0281,266.5 210.4344,266.7813 Q209.8563,267.0625 209.4031,267.6875 Q208.95,268.3125 208.95,269.1719 L208.95,270.0938 Q208.95,271.125 209.7938,271.8125 Q210.6375,272.5 212.1375,272.5 Q213.0281,272.5 213.6531,272.2969 Q214.0125,272.1875 214.4188,271.8281 Q214.6844,271.625 214.825,271.5625 Q214.9656,271.5 215.1375,271.5 Q215.4656,271.5 215.7,271.7656 Q215.95,272.0156 215.95,272.375 Q215.95,272.7188 215.6063,273.125 Q215.1063,273.7188 214.3094,274.0469 Q213.2625,274.5 211.9813,274.5 Q210.4813,274.5 209.2781,273.9063 Q208.3094,273.4375 207.6219,272.4219 Q206.95,271.4063 206.95,270.2031 L206.95,269.1094 Q206.95,267.8594 207.5438,266.7656 Q208.1531,265.6719 209.2,265.0938 Q210.2625,264.5 211.45,264.5 Q212.1688,264.5 212.7938,264.75 Q213.4188,265 213.95,265.5 Z " fill="#000000"/><text fill="#000000" font-family="sans-serif" font-size="12" lengthAdjust="spacing" textLength="53" x="226.05" y="273.9102">Company</text><line style="stroke:#A80036;stroke-width:1.5;" x1="197.5" x2="281.5" y1="285" y2="285"/><line style="stroke:#A80036;stroke-width:1.5;" x1="197.5" x2="281.5" y1="293" y2="293"/><text fill="#000000" font-family="sans-serif" font-size="11" lengthAdjust="spacing" textLength="74" x="202.5" y="308.4189">-getShipStore()</text><!--MD5=[6b4a94d80660e97c6833bde801bd4c89]
link Company to ShipStore--><path codeLine="54" d="M239.5,315.28 C239.5,338.29 239.5,369.79 239.5,392.79 " fill="none" id="Company-ShipStore" style="stroke:#A80036;stroke-width:1.0;"/><polygon fill="#000000" points="244.5,359.1758,247.4389,350.1307,241.5611,350.1307,244.5,359.1758" style="stroke:#000000;stroke-width:1.0;"/><text fill="#000000" font-family="sans-serif" font-size="13" lengthAdjust="spacing" textLength="28" x="253.5" y="359.4951">uses</text><text fill="#000000" font-family="sans-serif" font-size="13" lengthAdjust="spacing" textLength="7" x="231.8328" y="336.312">1</text><text fill="#000000" font-family="sans-serif" font-size="13" lengthAdjust="spacing" textLength="7" x="231.7781" y="382.2512">1</text><!--MD5=[c2acce4d7c8ab8c40d74533e9dec3e3c]
link ShipStore to ShipsBST--><path codeLine="55" d="M219.3,455.3 C208.22,471.92 194.22,492.92 181.67,511.74 " fill="none" id="ShipStore-to-ShipsBST" style="stroke:#A80036;stroke-width:1.0;stroke-dasharray:7.0,7.0;"/><polygon fill="#A80036" points="178.85,515.97,187.1705,510.7003,181.6235,511.8097,180.5141,506.2627,178.85,515.97" style="stroke:#A80036;stroke-width:1.0;"/><!--MD5=[160674319446910b8a3a452fc1f6631a]
link ShipsBST to PositionBST--><path codeLine="56" d="M152.91,606.12 C158.36,676.55 168.98,813.93 174.68,887.57 " fill="none" id="ShipsBST-to-PositionBST" style="stroke:#A80036;stroke-width:1.0;stroke-dasharray:7.0,7.0;"/><polygon fill="#A80036" points="175.08,892.76,178.3739,883.4783,174.6943,887.7749,170.3977,884.0953,175.08,892.76" style="stroke:#A80036;stroke-width:1.0;"/><!--MD5=[b457ea32acbd230d0e22037aaab2ac98]
link ShipsBST to Ship--><path codeLine="57" d="M173.2,606.2 C185.62,629.36 201.06,658.16 214.8,683.78 " fill="none" id="ShipsBST-Ship" style="stroke:#A80036;stroke-width:1.0;"/><polygon fill="#000000" points="203.8628,649.5823,202.1785,640.222,196.9984,642.9997,203.8628,649.5823" style="stroke:#000000;stroke-width:1.0;"/><text fill="#000000" font-family="sans-serif" font-size="13" lengthAdjust="spacing" textLength="30" x="210.5" y="650.4951">owns</text><text fill="#000000" font-family="sans-serif" font-size="13" lengthAdjust="spacing" textLength="7" x="168.9144" y="626.9006">1</text><text fill="#000000" font-family="sans-serif" font-size="13" lengthAdjust="spacing" textLength="20" x="189.9109" y="673.2304">1..*</text><!--MD5=[7cc50e14082cb2e4b2cc921c8068a5a4]
link TopNUI to TopNController--><path codeLine="58" d="M153.5,55.04 C153.5,70.71 153.5,91.91 153.5,110.58 " fill="none" id="TopNUI-to-TopNController" style="stroke:#A80036;stroke-width:1.0;stroke-dasharray:7.0,7.0;"/><polygon fill="#A80036" points="153.5,115.77,157.5,106.77,153.5,110.77,149.5,106.77,153.5,115.77" style="stroke:#A80036;stroke-width:1.0;"/><!--MD5=[bfb718339d3fb6fc289b9afa9807163e]
link TopNController to ShipsBST--><path codeLine="59" d="M153.13,192.01 C152.41,265.2 150.8,428.41 149.99,510.64 " fill="none" id="TopNController-to-ShipsBST" style="stroke:#A80036;stroke-width:1.0;stroke-dasharray:7.0,7.0;"/><polygon fill="#A80036" points="149.94,515.93,154.017,506.9646,149.9829,510.9302,146.0173,506.896,149.94,515.93" style="stroke:#A80036;stroke-width:1.0;"/><!--MD5=[c5ded413ebf5d3a6ffffa9ef097420d3]
link TopNController to Company--><path codeLine="60" d="M178.37,192.02 C190.36,209.86 204.64,231.11 216.38,248.59 " fill="none" id="TopNController-to-Company" style="stroke:#A80036;stroke-width:1.0;stroke-dasharray:7.0,7.0;"/><polygon fill="#A80036" points="219.31,252.95,217.6074,243.2494,216.52,248.8008,210.9687,247.7134,219.31,252.95" style="stroke:#A80036;stroke-width:1.0;"/><!--MD5=[37a14a5de6d6fd738aee271300f4b5c8]
link Company to Ship--><path codeLine="63" d="M268.18,315.04 C276.04,324.21 284.14,334.62 290.5,345 C302.57,364.71 305.97,370.34 310.5,393 C316.46,422.81 322.5,542.69 309.5,606 C304.43,630.67 295.02,656.4 285.13,679.1 " fill="none" id="Company-to-Ship" style="stroke:#A80036;stroke-width:1.0;stroke-dasharray:7.0,7.0;"/><polygon fill="#A80036" points="283.01,683.89,290.2994,677.2669,285.0261,679.3145,282.9785,674.0412,283.01,683.89" style="stroke:#A80036;stroke-width:1.0;"/><!--MD5=[f4a2ebf56cf8ea7abe7844eb6e1bc33a]
link Ship to PositionBST--><path codeLine="64" d="M224.87,815.21 C215.09,840.88 204.11,869.74 195.28,892.92 " fill="none" id="Ship-PositionBST" style="stroke:#A80036;stroke-width:1.0;"/><polygon fill="#000000" points="214.7207,858.8485,220.686,851.4413,215.1929,849.3497,214.7207,858.8485" style="stroke:#000000;stroke-width:1.0;"/><text fill="#000000" font-family="sans-serif" font-size="13" lengthAdjust="spacing" textLength="28" x="225.5" y="859.4951">uses</text><text fill="#000000" font-family="sans-serif" font-size="13" lengthAdjust="spacing" textLength="7" x="214.9691" y="836.3238">1</text><text fill="#000000" font-family="sans-serif" font-size="13" lengthAdjust="spacing" textLength="7" x="190.3965" y="882.0227">1</text><!--MD5=[ce79748d443f739b1b79d56680b7fe67]
link PositionBST to ShipPosition--><path codeLine="65" d="M178.5,983.01 C178.5,1005.61 178.5,1033.95 178.5,1060.66 " fill="none" id="PositionBST-ShipPosition" style="stroke:#A80036;stroke-width:1.0;"/><polygon fill="#000000" points="183.5,1027.1758,186.4389,1018.1307,180.5611,1018.1307,183.5,1027.1758" style="stroke:#000000;stroke-width:1.0;"/><text fill="#000000" font-family="sans-serif" font-size="13" lengthAdjust="spacing" textLength="21" x="192.5" y="1027.4951">has</text><text fill="#000000" font-family="sans-serif" font-size="13" lengthAdjust="spacing" textLength="7" x="171.0078" y="1004.019">1</text><text fill="#000000" font-family="sans-serif" font-size="13" lengthAdjust="spacing" textLength="20" x="157.6406" y="1050.0404">1..*</text><!--MD5=[c528365677ccf12b3dfe51715f5294a0]
@startuml

skinparam classAttributeIconSize 0


class Ship {
    -mmmsiCode
    -shipName
    -imoCode
    -callSignId
    -currentCapacity /'added by us'/
    -draft
}

class ShipPosition {
    -baseDateTime
    -latitude
    -longitude
    -sog
    -cog
    -heading
    -position
    -transceiver
    -getSOG()
}

class ShipStore {
    -getShipsBstMmsi()
}


class TopNUI {}

class TopNController {
    -getShipByBaseDateTime(initialBaseDate, finalBaseDate)
    -getShipWithMean(sortedShips)
}

class ShipsBST{
    -getShipByBaseDateTime(initialBaseDate, finalBaseDate)
    -sortNShips(shipList)
    -getShipWithMean(sortedShips, N)
}

class PositionBST{
    -getShipBaseDateTime(code)
    -getMeanSOG()
    -getTotalDistance()
}
class Company {
    -getShipStore()
}


Company "1" - - "1" ShipStore : uses >
ShipStore ..> ShipsBST
ShipsBST ..> PositionBST
ShipsBST "1" - - "1..*" Ship : owns >
TopNUI ..> TopNController
TopNController ..> ShipsBST
TopNController ..> Company
/'ShipsBST ..> Ship'/
/'PositionBST ..> ShipPosition'/
Company ..> Ship
Ship "1" - - "1" PositionBST : uses >
PositionBST "1" - - "1..*" ShipPosition : has >


@enduml

@startuml

skinparam classAttributeIconSize 0


class Ship {
    -mmmsiCode
    -shipName
    -imoCode
    -callSignId
    -currentCapacity 
    -draft
}

class ShipPosition {
    -baseDateTime
    -latitude
    -longitude
    -sog
    -cog
    -heading
    -position
    -transceiver
    -getSOG()
}

class ShipStore {
    -getShipsBstMmsi()
}


class TopNUI {}

class TopNController {
    -getShipByBaseDateTime(initialBaseDate, finalBaseDate)
    -getShipWithMean(sortedShips)
}

class ShipsBST{
    -getShipByBaseDateTime(initialBaseDate, finalBaseDate)
    -sortNShips(shipList)
    -getShipWithMean(sortedShips, N)
}

class PositionBST{
    -getShipBaseDateTime(code)
    -getMeanSOG()
    -getTotalDistance()
}
class Company {
    -getShipStore()
}


Company "1" - - "1" ShipStore : uses >
ShipStore ..> ShipsBST
ShipsBST ..> PositionBST
ShipsBST "1" - - "1..*" Ship : owns >
TopNUI ..> TopNController
TopNController ..> ShipsBST
TopNController ..> Company
Company ..> Ship
Ship "1" - - "1" PositionBST : uses >
PositionBST "1" - - "1..*" ShipPosition : has >


@enduml

PlantUML version 1.2021.11(Sat Oct 02 14:26:11 BST 2021)
(GPL source distribution)
Java Runtime: OpenJDK Runtime Environment
JVM: OpenJDK 64-Bit Server VM
Default Encoding: Cp1252
Language: pt
Country: PT
--></g></svg>