<?xml version="1.0" encoding="UTF-8" standalone="no"?><svg xmlns="http://www.w3.org/2000/svg" xmlns:xlink="http://www.w3.org/1999/xlink" contentScriptType="application/ecmascript" contentStyleType="text/css" height="953px" preserveAspectRatio="none" style="width:346px;height:953px;background:#FFFFFF;" version="1.1" viewBox="0 0 346 953" width="346px" zoomAndPan="magnify"><defs><filter height="300%" id="f3u1a9o4hxjjp" width="300%" x="-1" y="-1"><feGaussianBlur result="blurOut" stdDeviation="2.0"/><feColorMatrix in="blurOut" result="blurOut2" type="matrix" values="0 0 0 0 0 0 0 0 0 0 0 0 0 0 0 0 0 0 .4 0"/><feOffset dx="4.0" dy="4.0" in="blurOut2" result="blurOut3"/><feBlend in="SourceGraphic" in2="blurOut3" mode="normal"/></filter></defs><g><!--MD5=[0dc7f2ddb409b58bcf52b12238c25399]
class Ship--><rect codeLine="5" fill="#FEFECE" filter="url(#f3u1a9o4hxjjp)" height="131.0156" id="Ship" style="stroke:#A80036;stroke-width:1.5;" width="93" x="239" y="575"/><ellipse cx="270.2" cy="591" fill="#ADD1B2" rx="11" ry="11" style="stroke:#A80036;stroke-width:1.0;"/><path d="M272.2,587.5 Q272.4031,587 272.6375,586.75 Q272.8719,586.5 273.1375,586.5 Q273.6063,586.5 273.9031,586.7813 Q274.2,587.0625 274.2,587.7188 L274.2,589.2813 Q274.2,589.9375 273.9188,590.2188 Q273.6375,590.5 273.2,590.5 Q272.8094,590.5 272.5594,590.3281 Q272.3094,590.1563 272.2,589.7031 Q272.1531,589.3906 271.9813,589.2188 Q271.6688,588.8906 271.1063,588.7031 Q270.5438,588.5 269.9813,588.5 Q269.2781,588.5 268.6844,588.7813 Q268.1063,589.0625 267.6531,589.6875 Q267.2,590.3125 267.2,591.1719 L267.2,592.0938 Q267.2,593.125 268.0438,593.8125 Q268.8875,594.5 270.3875,594.5 Q271.2781,594.5 271.9031,594.2969 Q272.2625,594.1875 272.6688,593.8281 Q272.9344,593.625 273.075,593.5625 Q273.2156,593.5 273.3875,593.5 Q273.7156,593.5 273.95,593.7656 Q274.2,594.0156 274.2,594.375 Q274.2,594.7188 273.8563,595.125 Q273.3563,595.7188 272.5594,596.0469 Q271.5125,596.5 270.2313,596.5 Q268.7313,596.5 267.5281,595.9063 Q266.5594,595.4375 265.8719,594.4219 Q265.2,593.4063 265.2,592.2031 L265.2,591.1094 Q265.2,589.8594 265.7938,588.7656 Q266.4031,587.6719 267.45,587.0938 Q268.5125,586.5 269.7,586.5 Q270.4188,586.5 271.0438,586.75 Q271.6688,587 272.2,587.5 Z " fill="#000000"/><text fill="#000000" font-family="sans-serif" font-size="12" lengthAdjust="spacing" textLength="25" x="287.8" y="595.9102">Ship</text><line style="stroke:#A80036;stroke-width:1.5;" x1="240" x2="331" y1="607" y2="607"/><text fill="#000000" font-family="sans-serif" font-size="11" lengthAdjust="spacing" textLength="61" x="245" y="622.4189">-mmmsiCode</text><text fill="#000000" font-family="sans-serif" font-size="11" lengthAdjust="spacing" textLength="51" x="245" y="636.2549">-shipName</text><text fill="#000000" font-family="sans-serif" font-size="11" lengthAdjust="spacing" textLength="45" x="245" y="650.0908">-imoCode</text><text fill="#000000" font-family="sans-serif" font-size="11" lengthAdjust="spacing" textLength="49" x="245" y="663.9268">-callSignId</text><text fill="#000000" font-family="sans-serif" font-size="11" lengthAdjust="spacing" textLength="81" x="245" y="677.7627">-currentCapacity</text><text fill="#000000" font-family="sans-serif" font-size="11" lengthAdjust="spacing" textLength="27" x="245" y="691.5986">-draft</text><line style="stroke:#A80036;stroke-width:1.5;" x1="240" x2="331" y1="698.0156" y2="698.0156"/><!--MD5=[1c0c3765e68dc4575d559b566278b914]
class ShipPosition--><rect codeLine="14" fill="#FEFECE" filter="url(#f3u1a9o4hxjjp)" height="172.5234" id="ShipPosition" style="stroke:#A80036;stroke-width:1.5;" width="102" x="76.5" y="767"/><ellipse cx="91.5" cy="783" fill="#ADD1B2" rx="11" ry="11" style="stroke:#A80036;stroke-width:1.0;"/><path d="M93.5,779.5 Q93.7031,779 93.9375,778.75 Q94.1719,778.5 94.4375,778.5 Q94.9063,778.5 95.2031,778.7813 Q95.5,779.0625 95.5,779.7188 L95.5,781.2813 Q95.5,781.9375 95.2188,782.2188 Q94.9375,782.5 94.5,782.5 Q94.1094,782.5 93.8594,782.3281 Q93.6094,782.1563 93.5,781.7031 Q93.4531,781.3906 93.2813,781.2188 Q92.9688,780.8906 92.4063,780.7031 Q91.8438,780.5 91.2813,780.5 Q90.5781,780.5 89.9844,780.7813 Q89.4063,781.0625 88.9531,781.6875 Q88.5,782.3125 88.5,783.1719 L88.5,784.0938 Q88.5,785.125 89.3438,785.8125 Q90.1875,786.5 91.6875,786.5 Q92.5781,786.5 93.2031,786.2969 Q93.5625,786.1875 93.9688,785.8281 Q94.2344,785.625 94.375,785.5625 Q94.5156,785.5 94.6875,785.5 Q95.0156,785.5 95.25,785.7656 Q95.5,786.0156 95.5,786.375 Q95.5,786.7188 95.1563,787.125 Q94.6563,787.7188 93.8594,788.0469 Q92.8125,788.5 91.5313,788.5 Q90.0313,788.5 88.8281,787.9063 Q87.8594,787.4375 87.1719,786.4219 Q86.5,785.4063 86.5,784.2031 L86.5,783.1094 Q86.5,781.8594 87.0938,780.7656 Q87.7031,779.6719 88.75,779.0938 Q89.8125,778.5 91,778.5 Q91.7188,778.5 92.3438,778.75 Q92.9688,779 93.5,779.5 Z " fill="#000000"/><text fill="#000000" font-family="sans-serif" font-size="12" lengthAdjust="spacing" textLength="70" x="105.5" y="787.9102">ShipPosition</text><line style="stroke:#A80036;stroke-width:1.5;" x1="77.5" x2="177.5" y1="799" y2="799"/><text fill="#000000" font-family="sans-serif" font-size="11" lengthAdjust="spacing" textLength="72" x="82.5" y="814.4189">-baseDateTime</text><text fill="#000000" font-family="sans-serif" font-size="11" lengthAdjust="spacing" textLength="38" x="82.5" y="828.2549">-latitude</text><text fill="#000000" font-family="sans-serif" font-size="11" lengthAdjust="spacing" textLength="47" x="82.5" y="842.0908">-longitude</text><text fill="#000000" font-family="sans-serif" font-size="11" lengthAdjust="spacing" textLength="22" x="82.5" y="855.9268">-sog</text><text fill="#000000" font-family="sans-serif" font-size="11" lengthAdjust="spacing" textLength="22" x="82.5" y="869.7627">-cog</text><text fill="#000000" font-family="sans-serif" font-size="11" lengthAdjust="spacing" textLength="42" x="82.5" y="883.5986">-heading</text><text fill="#000000" font-family="sans-serif" font-size="11" lengthAdjust="spacing" textLength="41" x="82.5" y="897.4346">-position</text><text fill="#000000" font-family="sans-serif" font-size="11" lengthAdjust="spacing" textLength="59" x="82.5" y="911.2705">-transceiver</text><line style="stroke:#A80036;stroke-width:1.5;" x1="77.5" x2="177.5" y1="917.6875" y2="917.6875"/><text fill="#000000" font-family="sans-serif" font-size="11" lengthAdjust="spacing" textLength="50" x="82.5" y="933.1064">-getSOG()</text><!--MD5=[0e45b0aabfddc08aa78c1863dca6c01d]
class TopNUI--><rect codeLine="27" fill="#FEFECE" filter="url(#f3u1a9o4hxjjp)" height="48" id="TopNUI" style="stroke:#A80036;stroke-width:1.5;" width="74" x="132.5" y="7"/><ellipse cx="147.5" cy="23" fill="#ADD1B2" rx="11" ry="11" style="stroke:#A80036;stroke-width:1.0;"/><path d="M149.5,19.5 Q149.7031,19 149.9375,18.75 Q150.1719,18.5 150.4375,18.5 Q150.9063,18.5 151.2031,18.7813 Q151.5,19.0625 151.5,19.7188 L151.5,21.2813 Q151.5,21.9375 151.2188,22.2188 Q150.9375,22.5 150.5,22.5 Q150.1094,22.5 149.8594,22.3281 Q149.6094,22.1563 149.5,21.7031 Q149.4531,21.3906 149.2813,21.2188 Q148.9688,20.8906 148.4063,20.7031 Q147.8438,20.5 147.2813,20.5 Q146.5781,20.5 145.9844,20.7813 Q145.4063,21.0625 144.9531,21.6875 Q144.5,22.3125 144.5,23.1719 L144.5,24.0938 Q144.5,25.125 145.3438,25.8125 Q146.1875,26.5 147.6875,26.5 Q148.5781,26.5 149.2031,26.2969 Q149.5625,26.1875 149.9688,25.8281 Q150.2344,25.625 150.375,25.5625 Q150.5156,25.5 150.6875,25.5 Q151.0156,25.5 151.25,25.7656 Q151.5,26.0156 151.5,26.375 Q151.5,26.7188 151.1563,27.125 Q150.6563,27.7188 149.8594,28.0469 Q148.8125,28.5 147.5313,28.5 Q146.0313,28.5 144.8281,27.9063 Q143.8594,27.4375 143.1719,26.4219 Q142.5,25.4063 142.5,24.2031 L142.5,23.1094 Q142.5,21.8594 143.0938,20.7656 Q143.7031,19.6719 144.75,19.0938 Q145.8125,18.5 147,18.5 Q147.7188,18.5 148.3438,18.75 Q148.9688,19 149.5,19.5 Z " fill="#000000"/><text fill="#000000" font-family="sans-serif" font-size="12" lengthAdjust="spacing" textLength="42" x="161.5" y="27.9102">TopNUI</text><line style="stroke:#A80036;stroke-width:1.5;" x1="133.5" x2="205.5" y1="39" y2="39"/><line style="stroke:#A80036;stroke-width:1.5;" x1="133.5" x2="205.5" y1="47" y2="47"/><!--MD5=[d5574e99f1a38922926a27ad66b4faf7]
class TopNController--><rect codeLine="29" fill="#FEFECE" filter="url(#f3u1a9o4hxjjp)" height="89.5078" id="TopNController" style="stroke:#A80036;stroke-width:1.5;" width="285" x="27" y="116"/><ellipse cx="123.25" cy="132" fill="#ADD1B2" rx="11" ry="11" style="stroke:#A80036;stroke-width:1.0;"/><path d="M125.25,128.5 Q125.4531,128 125.6875,127.75 Q125.9219,127.5 126.1875,127.5 Q126.6563,127.5 126.9531,127.7813 Q127.25,128.0625 127.25,128.7188 L127.25,130.2813 Q127.25,130.9375 126.9688,131.2188 Q126.6875,131.5 126.25,131.5 Q125.8594,131.5 125.6094,131.3281 Q125.3594,131.1563 125.25,130.7031 Q125.2031,130.3906 125.0313,130.2188 Q124.7188,129.8906 124.1563,129.7031 Q123.5938,129.5 123.0313,129.5 Q122.3281,129.5 121.7344,129.7813 Q121.1563,130.0625 120.7031,130.6875 Q120.25,131.3125 120.25,132.1719 L120.25,133.0938 Q120.25,134.125 121.0938,134.8125 Q121.9375,135.5 123.4375,135.5 Q124.3281,135.5 124.9531,135.2969 Q125.3125,135.1875 125.7188,134.8281 Q125.9844,134.625 126.125,134.5625 Q126.2656,134.5 126.4375,134.5 Q126.7656,134.5 127,134.7656 Q127.25,135.0156 127.25,135.375 Q127.25,135.7188 126.9063,136.125 Q126.4063,136.7188 125.6094,137.0469 Q124.5625,137.5 123.2813,137.5 Q121.7813,137.5 120.5781,136.9063 Q119.6094,136.4375 118.9219,135.4219 Q118.25,134.4063 118.25,133.2031 L118.25,132.1094 Q118.25,130.8594 118.8438,129.7656 Q119.4531,128.6719 120.5,128.0938 Q121.5625,127.5 122.75,127.5 Q123.4688,127.5 124.0938,127.75 Q124.7188,128 125.25,128.5 Z " fill="#000000"/><text fill="#000000" font-family="sans-serif" font-size="12" lengthAdjust="spacing" textLength="84" x="143.75" y="136.9102">TopNController</text><line style="stroke:#A80036;stroke-width:1.5;" x1="28" x2="311" y1="148" y2="148"/><line style="stroke:#A80036;stroke-width:1.5;" x1="28" x2="311" y1="156" y2="156"/><text fill="#000000" font-family="sans-serif" font-size="11" lengthAdjust="spacing" textLength="273" x="33" y="171.4189">-getShipByBaseDateTime(initialBaseDate, finalBaseDate)</text><text fill="#000000" font-family="sans-serif" font-size="11" lengthAdjust="spacing" textLength="115" x="33" y="185.2549">-sortNShips(shipList, N)</text><text fill="#000000" font-family="sans-serif" font-size="11" lengthAdjust="spacing" textLength="153" x="33" y="199.0908">-getShipWithMean(sortedShips)</text><!--MD5=[43adf079e4aaffd3a283c2c0454b404c]
class ShipsBST--><rect codeLine="35" fill="#FEFECE" filter="url(#f3u1a9o4hxjjp)" height="89.5078" id="ShipsBST" style="stroke:#A80036;stroke-width:1.5;" width="285" x="7" y="407"/><ellipse cx="117.75" cy="423" fill="#ADD1B2" rx="11" ry="11" style="stroke:#A80036;stroke-width:1.0;"/><path d="M119.75,419.5 Q119.9531,419 120.1875,418.75 Q120.4219,418.5 120.6875,418.5 Q121.1563,418.5 121.4531,418.7813 Q121.75,419.0625 121.75,419.7188 L121.75,421.2813 Q121.75,421.9375 121.4688,422.2188 Q121.1875,422.5 120.75,422.5 Q120.3594,422.5 120.1094,422.3281 Q119.8594,422.1563 119.75,421.7031 Q119.7031,421.3906 119.5313,421.2188 Q119.2188,420.8906 118.6563,420.7031 Q118.0938,420.5 117.5313,420.5 Q116.8281,420.5 116.2344,420.7813 Q115.6563,421.0625 115.2031,421.6875 Q114.75,422.3125 114.75,423.1719 L114.75,424.0938 Q114.75,425.125 115.5938,425.8125 Q116.4375,426.5 117.9375,426.5 Q118.8281,426.5 119.4531,426.2969 Q119.8125,426.1875 120.2188,425.8281 Q120.4844,425.625 120.625,425.5625 Q120.7656,425.5 120.9375,425.5 Q121.2656,425.5 121.5,425.7656 Q121.75,426.0156 121.75,426.375 Q121.75,426.7188 121.4063,427.125 Q120.9063,427.7188 120.1094,428.0469 Q119.0625,428.5 117.7813,428.5 Q116.2813,428.5 115.0781,427.9063 Q114.1094,427.4375 113.4219,426.4219 Q112.75,425.4063 112.75,424.2031 L112.75,423.1094 Q112.75,421.8594 113.3438,420.7656 Q113.9531,419.6719 115,419.0938 Q116.0625,418.5 117.25,418.5 Q117.9688,418.5 118.5938,418.75 Q119.2188,419 119.75,419.5 Z " fill="#000000"/><text fill="#000000" font-family="sans-serif" font-size="12" lengthAdjust="spacing" textLength="55" x="138.25" y="427.9102">ShipsBST</text><line style="stroke:#A80036;stroke-width:1.5;" x1="8" x2="291" y1="439" y2="439"/><line style="stroke:#A80036;stroke-width:1.5;" x1="8" x2="291" y1="447" y2="447"/><text fill="#000000" font-family="sans-serif" font-size="11" lengthAdjust="spacing" textLength="273" x="13" y="462.4189">-getShipByBaseDateTime(initialBaseDate, finalBaseDate)</text><text fill="#000000" font-family="sans-serif" font-size="11" lengthAdjust="spacing" textLength="115" x="13" y="476.2549">-sortNShips(shipList, N)</text><text fill="#000000" font-family="sans-serif" font-size="11" lengthAdjust="spacing" textLength="153" x="13" y="490.0908">-getShipWithMean(sortedShips)</text><!--MD5=[4901be1d1d8a5c23fb0daf47783de1b7]
class PositionBST--><rect codeLine="41" fill="#FEFECE" filter="url(#f3u1a9o4hxjjp)" height="89.5078" id="PositionBST" style="stroke:#A80036;stroke-width:1.5;" width="153" x="51" y="595.5"/><ellipse cx="89.85" cy="611.5" fill="#ADD1B2" rx="11" ry="11" style="stroke:#A80036;stroke-width:1.0;"/><path d="M91.85,608 Q92.0531,607.5 92.2875,607.25 Q92.5219,607 92.7875,607 Q93.2563,607 93.5531,607.2813 Q93.85,607.5625 93.85,608.2188 L93.85,609.7813 Q93.85,610.4375 93.5688,610.7188 Q93.2875,611 92.85,611 Q92.4594,611 92.2094,610.8281 Q91.9594,610.6563 91.85,610.2031 Q91.8031,609.8906 91.6313,609.7188 Q91.3188,609.3906 90.7563,609.2031 Q90.1938,609 89.6313,609 Q88.9281,609 88.3344,609.2813 Q87.7563,609.5625 87.3031,610.1875 Q86.85,610.8125 86.85,611.6719 L86.85,612.5938 Q86.85,613.625 87.6938,614.3125 Q88.5375,615 90.0375,615 Q90.9281,615 91.5531,614.7969 Q91.9125,614.6875 92.3188,614.3281 Q92.5844,614.125 92.725,614.0625 Q92.8656,614 93.0375,614 Q93.3656,614 93.6,614.2656 Q93.85,614.5156 93.85,614.875 Q93.85,615.2188 93.5063,615.625 Q93.0063,616.2188 92.2094,616.5469 Q91.1625,617 89.8813,617 Q88.3813,617 87.1781,616.4063 Q86.2094,615.9375 85.5219,614.9219 Q84.85,613.9063 84.85,612.7031 L84.85,611.6094 Q84.85,610.3594 85.4438,609.2656 Q86.0531,608.1719 87.1,607.5938 Q88.1625,607 89.35,607 Q90.0688,607 90.6938,607.25 Q91.3188,607.5 91.85,608 Z " fill="#000000"/><text fill="#000000" font-family="sans-serif" font-size="12" lengthAdjust="spacing" textLength="68" x="109.15" y="616.4102">PositionBST</text><line style="stroke:#A80036;stroke-width:1.5;" x1="52" x2="203" y1="627.5" y2="627.5"/><line style="stroke:#A80036;stroke-width:1.5;" x1="52" x2="203" y1="635.5" y2="635.5"/><text fill="#000000" font-family="sans-serif" font-size="11" lengthAdjust="spacing" textLength="141" x="57" y="650.9189">-getShipBaseDateTime(code)</text><text fill="#000000" font-family="sans-serif" font-size="11" lengthAdjust="spacing" textLength="100" x="57" y="664.7549">-getMeanSOG(code)</text><text fill="#000000" font-family="sans-serif" font-size="11" lengthAdjust="spacing" textLength="92" x="57" y="678.5908">-getTotalDistance()</text><!--MD5=[02e4b9b7573f1156f41e60aa5b4e25a4]
class Company--><rect codeLine="46" fill="#FEFECE" filter="url(#f3u1a9o4hxjjp)" height="61.8359" id="Company" style="stroke:#A80036;stroke-width:1.5;" width="86" x="202.5" y="267"/><ellipse cx="217.95" cy="283" fill="#ADD1B2" rx="11" ry="11" style="stroke:#A80036;stroke-width:1.0;"/><path d="M219.95,279.5 Q220.1531,279 220.3875,278.75 Q220.6219,278.5 220.8875,278.5 Q221.3563,278.5 221.6531,278.7813 Q221.95,279.0625 221.95,279.7188 L221.95,281.2813 Q221.95,281.9375 221.6688,282.2188 Q221.3875,282.5 220.95,282.5 Q220.5594,282.5 220.3094,282.3281 Q220.0594,282.1563 219.95,281.7031 Q219.9031,281.3906 219.7313,281.2188 Q219.4188,280.8906 218.8563,280.7031 Q218.2938,280.5 217.7313,280.5 Q217.0281,280.5 216.4344,280.7813 Q215.8563,281.0625 215.4031,281.6875 Q214.95,282.3125 214.95,283.1719 L214.95,284.0938 Q214.95,285.125 215.7938,285.8125 Q216.6375,286.5 218.1375,286.5 Q219.0281,286.5 219.6531,286.2969 Q220.0125,286.1875 220.4188,285.8281 Q220.6844,285.625 220.825,285.5625 Q220.9656,285.5 221.1375,285.5 Q221.4656,285.5 221.7,285.7656 Q221.95,286.0156 221.95,286.375 Q221.95,286.7188 221.6063,287.125 Q221.1063,287.7188 220.3094,288.0469 Q219.2625,288.5 217.9813,288.5 Q216.4813,288.5 215.2781,287.9063 Q214.3094,287.4375 213.6219,286.4219 Q212.95,285.4063 212.95,284.2031 L212.95,283.1094 Q212.95,281.8594 213.5438,280.7656 Q214.1531,279.6719 215.2,279.0938 Q216.2625,278.5 217.45,278.5 Q218.1688,278.5 218.7938,278.75 Q219.4188,279 219.95,279.5 Z " fill="#000000"/><text fill="#000000" font-family="sans-serif" font-size="12" lengthAdjust="spacing" textLength="53" x="232.05" y="287.9102">Company</text><line style="stroke:#A80036;stroke-width:1.5;" x1="203.5" x2="287.5" y1="299" y2="299"/><line style="stroke:#A80036;stroke-width:1.5;" x1="203.5" x2="287.5" y1="307" y2="307"/><text fill="#000000" font-family="sans-serif" font-size="11" lengthAdjust="spacing" textLength="74" x="208.5" y="322.4189">-getShipsBST()</text><!--MD5=[1b046338fb2698c0e9f102f85676b8e2]
link Company to ShipsBST--><path codeLine="51" d="M226.53,329.03 C212.49,351.27 193.14,381.91 177.34,406.92 " fill="none" id="Company-ShipsBST" style="stroke:#A80036;stroke-width:1.0;"/><polygon fill="#000000" points="208.8302,372.4033,216.1448,366.3249,211.175,363.1864,208.8302,372.4033" style="stroke:#000000;stroke-width:1.0;"/><text fill="#000000" font-family="sans-serif" font-size="13" lengthAdjust="spacing" textLength="28" x="220.5" y="373.4951">uses</text><text fill="#000000" font-family="sans-serif" font-size="13" lengthAdjust="spacing" textLength="7" x="215.1062" y="350.2599">1</text><text fill="#000000" font-family="sans-serif" font-size="13" lengthAdjust="spacing" textLength="7" x="174.2192" y="396.0227">1</text><!--MD5=[160674319446910b8a3a452fc1f6631a]
link ShipsBST to PositionBST--><path codeLine="52" d="M144.29,497.2 C141,525.08 136.74,561.15 133.34,590 " fill="none" id="ShipsBST-to-PositionBST" style="stroke:#A80036;stroke-width:1.0;stroke-dasharray:7.0,7.0;"/><polygon fill="#A80036" points="132.71,595.3,137.7356,586.8298,133.295,590.3343,129.7905,585.8938,132.71,595.3" style="stroke:#A80036;stroke-width:1.0;"/><!--MD5=[b457ea32acbd230d0e22037aaab2ac98]
link ShipsBST to Ship--><path codeLine="53" d="M188.77,497.24 C196.85,506.86 205.14,517.12 212.5,527 C223.77,542.12 235.22,558.94 245.6,574.86 " fill="none" id="ShipsBST-Ship" style="stroke:#A80036;stroke-width:1.0;"/><polygon fill="#000000" points="233.4537,540.2101,230.4817,531.1758,225.7391,534.6481,233.4537,540.2101" style="stroke:#000000;stroke-width:1.0;"/><text fill="#000000" font-family="sans-serif" font-size="13" lengthAdjust="spacing" textLength="30" x="239.5" y="541.4951">owns</text><text fill="#000000" font-family="sans-serif" font-size="13" lengthAdjust="spacing" textLength="7" x="186.5766" y="517.9459">1</text><text fill="#000000" font-family="sans-serif" font-size="13" lengthAdjust="spacing" textLength="20" x="220.1422" y="564.3191">1..*</text><!--MD5=[b457ea32acbd230d0e22037aaab2ac98]
link ShipsBST to Ship--><path codeLine="57" d="M176.42,497.2 C186.16,512.58 197.48,529.79 208.5,545 C216.98,556.7 226.41,568.88 235.69,580.46 " fill="none" id="ShipsBST-to-Ship" style="stroke:#A80036;stroke-width:1.0;stroke-dasharray:7.0,7.0;"/><polygon fill="#A80036" points="238.83,584.36,236.3014,574.8413,235.6943,580.4655,230.0701,579.8584,238.83,584.36" style="stroke:#A80036;stroke-width:1.0;"/><!--MD5=[7cc50e14082cb2e4b2cc921c8068a5a4]
link TopNUI to TopNController--><path codeLine="54" d="M169.5,55.18 C169.5,70.59 169.5,91.42 169.5,110.45 " fill="none" id="TopNUI-to-TopNController" style="stroke:#A80036;stroke-width:1.0;stroke-dasharray:7.0,7.0;"/><polygon fill="#A80036" points="169.5,115.76,173.5,106.76,169.5,110.76,165.5,106.76,169.5,115.76" style="stroke:#A80036;stroke-width:1.0;"/><!--MD5=[bfb718339d3fb6fc289b9afa9807163e]
link TopNController to ShipsBST--><path codeLine="55" d="M166.44,206.21 C162.79,258.9 156.72,346.71 152.92,401.59 " fill="none" id="TopNController-to-ShipsBST" style="stroke:#A80036;stroke-width:1.0;stroke-dasharray:7.0,7.0;"/><polygon fill="#A80036" points="152.56,406.8,157.168,398.0956,152.903,401.8118,149.1869,397.5468,152.56,406.8" style="stroke:#A80036;stroke-width:1.0;"/><!--MD5=[c5ded413ebf5d3a6ffffa9ef097420d3]
link TopNController to Company--><path codeLine="56" d="M194.39,206.2 C204.59,224.34 216.24,245.03 225.84,262.08 " fill="none" id="TopNController-to-Company" style="stroke:#A80036;stroke-width:1.0;stroke-dasharray:7.0,7.0;"/><polygon fill="#A80036" points="228.49,266.78,227.5777,256.9735,226.0448,262.4187,220.5996,260.8858,228.49,266.78" style="stroke:#A80036;stroke-width:1.0;"/><!--MD5=[ce79748d443f739b1b79d56680b7fe67]
link PositionBST to ShipPosition--><path codeLine="58" d="M127.5,685.73 C127.5,707.82 127.5,735.4 127.5,761.73 " fill="none" id="PositionBST-to-ShipPosition" style="stroke:#A80036;stroke-width:1.0;stroke-dasharray:7.0,7.0;"/><polygon fill="#A80036" points="127.5,766.98,131.5,757.98,127.5,761.98,123.5,757.98,127.5,766.98" style="stroke:#A80036;stroke-width:1.0;"/><!--MD5=[37a14a5de6d6fd738aee271300f4b5c8]
link Company to Ship--><path codeLine="59" d="M269.34,329.1 C284.09,349.72 301.67,378.41 309.5,407 C324.14,460.43 316.34,523 305.87,569.76 " fill="none" id="Company-to-Ship" style="stroke:#A80036;stroke-width:1.0;stroke-dasharray:7.0,7.0;"/><polygon fill="#A80036" points="304.72,574.81,310.6261,566.9285,305.8349,569.9359,302.8275,565.1447,304.72,574.81" style="stroke:#A80036;stroke-width:1.0;"/><!--MD5=[dcb0d821fc77ccbfd83ef09a4d365e12]
@startuml

skinparam classAttributeIconSize 0


class Ship {
    -mmmsiCode
    -shipName
    -imoCode
    -callSignId
    -currentCapacity /'added by us'/
    -draft
}

class ShipPosition {
    -baseDateTime
    -latitude
    -longitude
    -sog
    -cog
    -heading
    -position
    -transceiver
    -getSOG()
}


class TopNUI {}

class TopNController {
    -getShipByBaseDateTime(initialBaseDate, finalBaseDate)
    -sortNShips(shipList, N)
    -getShipWithMean(sortedShips)
}

class ShipsBST{
    -getShipByBaseDateTime(initialBaseDate, finalBaseDate)
    -sortNShips(shipList, N)
    -getShipWithMean(sortedShips)
}

class PositionBST{
    -getShipBaseDateTime(code)
    -getMeanSOG(code)
    -getTotalDistance()
}
class Company {
    -getShipsBST()
}


Company "1" - - "1" ShipsBST : uses >
ShipsBST ..> PositionBST
ShipsBST "1" - - "1..*" Ship : owns >
TopNUI ..> TopNController
TopNController ..> ShipsBST
TopNController ..> Company
ShipsBST ..> Ship
PositionBST ..> ShipPosition
Company ..> Ship


@enduml

@startuml

skinparam classAttributeIconSize 0


class Ship {
    -mmmsiCode
    -shipName
    -imoCode
    -callSignId
    -currentCapacity 
    -draft
}

class ShipPosition {
    -baseDateTime
    -latitude
    -longitude
    -sog
    -cog
    -heading
    -position
    -transceiver
    -getSOG()
}


class TopNUI {}

class TopNController {
    -getShipByBaseDateTime(initialBaseDate, finalBaseDate)
    -sortNShips(shipList, N)
    -getShipWithMean(sortedShips)
}

class ShipsBST{
    -getShipByBaseDateTime(initialBaseDate, finalBaseDate)
    -sortNShips(shipList, N)
    -getShipWithMean(sortedShips)
}

class PositionBST{
    -getShipBaseDateTime(code)
    -getMeanSOG(code)
    -getTotalDistance()
}
class Company {
    -getShipsBST()
}


Company "1" - - "1" ShipsBST : uses >
ShipsBST ..> PositionBST
ShipsBST "1" - - "1..*" Ship : owns >
TopNUI ..> TopNController
TopNController ..> ShipsBST
TopNController ..> Company
ShipsBST ..> Ship
PositionBST ..> ShipPosition
Company ..> Ship


@enduml

PlantUML version 1.2021.11(Sat Oct 02 14:26:11 BST 2021)
(GPL source distribution)
Java Runtime: OpenJDK Runtime Environment
JVM: OpenJDK 64-Bit Server VM
Default Encoding: Cp1252
Language: pt
Country: PT
--></g></svg>