<?xml version="1.0" encoding="UTF-8" standalone="no"?><svg xmlns="http://www.w3.org/2000/svg" xmlns:xlink="http://www.w3.org/1999/xlink" contentScriptType="application/ecmascript" contentStyleType="text/css" height="1062px" preserveAspectRatio="none" style="width:346px;height:1062px;background:#FFFFFF;" version="1.1" viewBox="0 0 346 1062" width="346px" zoomAndPan="magnify"><defs><filter height="300%" id="f1xhr4iw9ia383" width="300%" x="-1" y="-1"><feGaussianBlur result="blurOut" stdDeviation="2.0"/><feColorMatrix in="blurOut" result="blurOut2" type="matrix" values="0 0 0 0 0 0 0 0 0 0 0 0 0 0 0 0 0 0 .4 0"/><feOffset dx="4.0" dy="4.0" in="blurOut2" result="blurOut3"/><feBlend in="SourceGraphic" in2="blurOut3" mode="normal"/></filter></defs><g><!--MD5=[0dc7f2ddb409b58bcf52b12238c25399]
class Ship--><rect codeLine="5" fill="#FEFECE" filter="url(#f1xhr4iw9ia383)" height="131.0156" id="Ship" style="stroke:#A80036;stroke-width:1.5;" width="93" x="239" y="684"/><ellipse cx="270.2" cy="700" fill="#ADD1B2" rx="11" ry="11" style="stroke:#A80036;stroke-width:1.0;"/><path d="M272.2,696.5 Q272.4031,696 272.6375,695.75 Q272.8719,695.5 273.1375,695.5 Q273.6063,695.5 273.9031,695.7813 Q274.2,696.0625 274.2,696.7188 L274.2,698.2813 Q274.2,698.9375 273.9188,699.2188 Q273.6375,699.5 273.2,699.5 Q272.8094,699.5 272.5594,699.3281 Q272.3094,699.1563 272.2,698.7031 Q272.1531,698.3906 271.9813,698.2188 Q271.6688,697.8906 271.1063,697.7031 Q270.5438,697.5 269.9813,697.5 Q269.2781,697.5 268.6844,697.7813 Q268.1063,698.0625 267.6531,698.6875 Q267.2,699.3125 267.2,700.1719 L267.2,701.0938 Q267.2,702.125 268.0438,702.8125 Q268.8875,703.5 270.3875,703.5 Q271.2781,703.5 271.9031,703.2969 Q272.2625,703.1875 272.6688,702.8281 Q272.9344,702.625 273.075,702.5625 Q273.2156,702.5 273.3875,702.5 Q273.7156,702.5 273.95,702.7656 Q274.2,703.0156 274.2,703.375 Q274.2,703.7188 273.8563,704.125 Q273.3563,704.7188 272.5594,705.0469 Q271.5125,705.5 270.2313,705.5 Q268.7313,705.5 267.5281,704.9063 Q266.5594,704.4375 265.8719,703.4219 Q265.2,702.4063 265.2,701.2031 L265.2,700.1094 Q265.2,698.8594 265.7938,697.7656 Q266.4031,696.6719 267.45,696.0938 Q268.5125,695.5 269.7,695.5 Q270.4188,695.5 271.0438,695.75 Q271.6688,696 272.2,696.5 Z " fill="#000000"/><text fill="#000000" font-family="sans-serif" font-size="12" lengthAdjust="spacing" textLength="25" x="287.8" y="704.9102">Ship</text><line style="stroke:#A80036;stroke-width:1.5;" x1="240" x2="331" y1="716" y2="716"/><text fill="#000000" font-family="sans-serif" font-size="11" lengthAdjust="spacing" textLength="61" x="245" y="731.4189">-mmmsiCode</text><text fill="#000000" font-family="sans-serif" font-size="11" lengthAdjust="spacing" textLength="51" x="245" y="745.2549">-shipName</text><text fill="#000000" font-family="sans-serif" font-size="11" lengthAdjust="spacing" textLength="45" x="245" y="759.0908">-imoCode</text><text fill="#000000" font-family="sans-serif" font-size="11" lengthAdjust="spacing" textLength="49" x="245" y="772.9268">-callSignId</text><text fill="#000000" font-family="sans-serif" font-size="11" lengthAdjust="spacing" textLength="81" x="245" y="786.7627">-currentCapacity</text><text fill="#000000" font-family="sans-serif" font-size="11" lengthAdjust="spacing" textLength="27" x="245" y="800.5986">-draft</text><line style="stroke:#A80036;stroke-width:1.5;" x1="240" x2="331" y1="807.0156" y2="807.0156"/><!--MD5=[1c0c3765e68dc4575d559b566278b914]
class ShipPosition--><rect codeLine="14" fill="#FEFECE" filter="url(#f1xhr4iw9ia383)" height="172.5234" id="ShipPosition" style="stroke:#A80036;stroke-width:1.5;" width="102" x="76.5" y="876"/><ellipse cx="91.5" cy="892" fill="#ADD1B2" rx="11" ry="11" style="stroke:#A80036;stroke-width:1.0;"/><path d="M93.5,888.5 Q93.7031,888 93.9375,887.75 Q94.1719,887.5 94.4375,887.5 Q94.9063,887.5 95.2031,887.7813 Q95.5,888.0625 95.5,888.7188 L95.5,890.2813 Q95.5,890.9375 95.2188,891.2188 Q94.9375,891.5 94.5,891.5 Q94.1094,891.5 93.8594,891.3281 Q93.6094,891.1563 93.5,890.7031 Q93.4531,890.3906 93.2813,890.2188 Q92.9688,889.8906 92.4063,889.7031 Q91.8438,889.5 91.2813,889.5 Q90.5781,889.5 89.9844,889.7813 Q89.4063,890.0625 88.9531,890.6875 Q88.5,891.3125 88.5,892.1719 L88.5,893.0938 Q88.5,894.125 89.3438,894.8125 Q90.1875,895.5 91.6875,895.5 Q92.5781,895.5 93.2031,895.2969 Q93.5625,895.1875 93.9688,894.8281 Q94.2344,894.625 94.375,894.5625 Q94.5156,894.5 94.6875,894.5 Q95.0156,894.5 95.25,894.7656 Q95.5,895.0156 95.5,895.375 Q95.5,895.7188 95.1563,896.125 Q94.6563,896.7188 93.8594,897.0469 Q92.8125,897.5 91.5313,897.5 Q90.0313,897.5 88.8281,896.9063 Q87.8594,896.4375 87.1719,895.4219 Q86.5,894.4063 86.5,893.2031 L86.5,892.1094 Q86.5,890.8594 87.0938,889.7656 Q87.7031,888.6719 88.75,888.0938 Q89.8125,887.5 91,887.5 Q91.7188,887.5 92.3438,887.75 Q92.9688,888 93.5,888.5 Z " fill="#000000"/><text fill="#000000" font-family="sans-serif" font-size="12" lengthAdjust="spacing" textLength="70" x="105.5" y="896.9102">ShipPosition</text><line style="stroke:#A80036;stroke-width:1.5;" x1="77.5" x2="177.5" y1="908" y2="908"/><text fill="#000000" font-family="sans-serif" font-size="11" lengthAdjust="spacing" textLength="72" x="82.5" y="923.4189">-baseDateTime</text><text fill="#000000" font-family="sans-serif" font-size="11" lengthAdjust="spacing" textLength="38" x="82.5" y="937.2549">-latitude</text><text fill="#000000" font-family="sans-serif" font-size="11" lengthAdjust="spacing" textLength="47" x="82.5" y="951.0908">-longitude</text><text fill="#000000" font-family="sans-serif" font-size="11" lengthAdjust="spacing" textLength="22" x="82.5" y="964.9268">-sog</text><text fill="#000000" font-family="sans-serif" font-size="11" lengthAdjust="spacing" textLength="22" x="82.5" y="978.7627">-cog</text><text fill="#000000" font-family="sans-serif" font-size="11" lengthAdjust="spacing" textLength="42" x="82.5" y="992.5986">-heading</text><text fill="#000000" font-family="sans-serif" font-size="11" lengthAdjust="spacing" textLength="41" x="82.5" y="1006.4346">-position</text><text fill="#000000" font-family="sans-serif" font-size="11" lengthAdjust="spacing" textLength="59" x="82.5" y="1020.2705">-transceiver</text><line style="stroke:#A80036;stroke-width:1.5;" x1="77.5" x2="177.5" y1="1026.6875" y2="1026.6875"/><text fill="#000000" font-family="sans-serif" font-size="11" lengthAdjust="spacing" textLength="50" x="82.5" y="1042.1064">-getSOG()</text><!--MD5=[ea2206eefe09474e90beb17e18e6b3d8]
class ShipStore--><rect codeLine="26" fill="#FEFECE" filter="url(#f1xhr4iw9ia383)" height="61.8359" id="ShipStore" style="stroke:#A80036;stroke-width:1.5;" width="106" x="186.5" y="393"/><ellipse cx="210.5" cy="409" fill="#ADD1B2" rx="11" ry="11" style="stroke:#A80036;stroke-width:1.0;"/><path d="M212.5,405.5 Q212.7031,405 212.9375,404.75 Q213.1719,404.5 213.4375,404.5 Q213.9063,404.5 214.2031,404.7813 Q214.5,405.0625 214.5,405.7188 L214.5,407.2813 Q214.5,407.9375 214.2188,408.2188 Q213.9375,408.5 213.5,408.5 Q213.1094,408.5 212.8594,408.3281 Q212.6094,408.1563 212.5,407.7031 Q212.4531,407.3906 212.2813,407.2188 Q211.9688,406.8906 211.4063,406.7031 Q210.8438,406.5 210.2813,406.5 Q209.5781,406.5 208.9844,406.7813 Q208.4063,407.0625 207.9531,407.6875 Q207.5,408.3125 207.5,409.1719 L207.5,410.0938 Q207.5,411.125 208.3438,411.8125 Q209.1875,412.5 210.6875,412.5 Q211.5781,412.5 212.2031,412.2969 Q212.5625,412.1875 212.9688,411.8281 Q213.2344,411.625 213.375,411.5625 Q213.5156,411.5 213.6875,411.5 Q214.0156,411.5 214.25,411.7656 Q214.5,412.0156 214.5,412.375 Q214.5,412.7188 214.1563,413.125 Q213.6563,413.7188 212.8594,414.0469 Q211.8125,414.5 210.5313,414.5 Q209.0313,414.5 207.8281,413.9063 Q206.8594,413.4375 206.1719,412.4219 Q205.5,411.4063 205.5,410.2031 L205.5,409.1094 Q205.5,407.8594 206.0938,406.7656 Q206.7031,405.6719 207.75,405.0938 Q208.8125,404.5 210,404.5 Q210.7188,404.5 211.3438,404.75 Q211.9688,405 212.5,405.5 Z " fill="#000000"/><text fill="#000000" font-family="sans-serif" font-size="12" lengthAdjust="spacing" textLength="54" x="226.5" y="413.9102">ShipStore</text><line style="stroke:#A80036;stroke-width:1.5;" x1="187.5" x2="291.5" y1="425" y2="425"/><line style="stroke:#A80036;stroke-width:1.5;" x1="187.5" x2="291.5" y1="433" y2="433"/><text fill="#000000" font-family="sans-serif" font-size="11" lengthAdjust="spacing" textLength="94" x="192.5" y="448.4189">-getShipsBstMmsi()</text><!--MD5=[0e45b0aabfddc08aa78c1863dca6c01d]
class TopNUI--><rect codeLine="31" fill="#FEFECE" filter="url(#f1xhr4iw9ia383)" height="48" id="TopNUI" style="stroke:#A80036;stroke-width:1.5;" width="74" x="116.5" y="7"/><ellipse cx="131.5" cy="23" fill="#ADD1B2" rx="11" ry="11" style="stroke:#A80036;stroke-width:1.0;"/><path d="M133.5,19.5 Q133.7031,19 133.9375,18.75 Q134.1719,18.5 134.4375,18.5 Q134.9063,18.5 135.2031,18.7813 Q135.5,19.0625 135.5,19.7188 L135.5,21.2813 Q135.5,21.9375 135.2188,22.2188 Q134.9375,22.5 134.5,22.5 Q134.1094,22.5 133.8594,22.3281 Q133.6094,22.1563 133.5,21.7031 Q133.4531,21.3906 133.2813,21.2188 Q132.9688,20.8906 132.4063,20.7031 Q131.8438,20.5 131.2813,20.5 Q130.5781,20.5 129.9844,20.7813 Q129.4063,21.0625 128.9531,21.6875 Q128.5,22.3125 128.5,23.1719 L128.5,24.0938 Q128.5,25.125 129.3438,25.8125 Q130.1875,26.5 131.6875,26.5 Q132.5781,26.5 133.2031,26.2969 Q133.5625,26.1875 133.9688,25.8281 Q134.2344,25.625 134.375,25.5625 Q134.5156,25.5 134.6875,25.5 Q135.0156,25.5 135.25,25.7656 Q135.5,26.0156 135.5,26.375 Q135.5,26.7188 135.1563,27.125 Q134.6563,27.7188 133.8594,28.0469 Q132.8125,28.5 131.5313,28.5 Q130.0313,28.5 128.8281,27.9063 Q127.8594,27.4375 127.1719,26.4219 Q126.5,25.4063 126.5,24.2031 L126.5,23.1094 Q126.5,21.8594 127.0938,20.7656 Q127.7031,19.6719 128.75,19.0938 Q129.8125,18.5 131,18.5 Q131.7188,18.5 132.3438,18.75 Q132.9688,19 133.5,19.5 Z " fill="#000000"/><text fill="#000000" font-family="sans-serif" font-size="12" lengthAdjust="spacing" textLength="42" x="145.5" y="27.9102">TopNUI</text><line style="stroke:#A80036;stroke-width:1.5;" x1="117.5" x2="189.5" y1="39" y2="39"/><line style="stroke:#A80036;stroke-width:1.5;" x1="117.5" x2="189.5" y1="47" y2="47"/><!--MD5=[d5574e99f1a38922926a27ad66b4faf7]
class TopNController--><rect codeLine="33" fill="#FEFECE" filter="url(#f1xhr4iw9ia383)" height="75.6719" id="TopNController" style="stroke:#A80036;stroke-width:1.5;" width="285" x="11" y="116"/><ellipse cx="107.25" cy="132" fill="#ADD1B2" rx="11" ry="11" style="stroke:#A80036;stroke-width:1.0;"/><path d="M109.25,128.5 Q109.4531,128 109.6875,127.75 Q109.9219,127.5 110.1875,127.5 Q110.6563,127.5 110.9531,127.7813 Q111.25,128.0625 111.25,128.7188 L111.25,130.2813 Q111.25,130.9375 110.9688,131.2188 Q110.6875,131.5 110.25,131.5 Q109.8594,131.5 109.6094,131.3281 Q109.3594,131.1563 109.25,130.7031 Q109.2031,130.3906 109.0313,130.2188 Q108.7188,129.8906 108.1563,129.7031 Q107.5938,129.5 107.0313,129.5 Q106.3281,129.5 105.7344,129.7813 Q105.1563,130.0625 104.7031,130.6875 Q104.25,131.3125 104.25,132.1719 L104.25,133.0938 Q104.25,134.125 105.0938,134.8125 Q105.9375,135.5 107.4375,135.5 Q108.3281,135.5 108.9531,135.2969 Q109.3125,135.1875 109.7188,134.8281 Q109.9844,134.625 110.125,134.5625 Q110.2656,134.5 110.4375,134.5 Q110.7656,134.5 111,134.7656 Q111.25,135.0156 111.25,135.375 Q111.25,135.7188 110.9063,136.125 Q110.4063,136.7188 109.6094,137.0469 Q108.5625,137.5 107.2813,137.5 Q105.7813,137.5 104.5781,136.9063 Q103.6094,136.4375 102.9219,135.4219 Q102.25,134.4063 102.25,133.2031 L102.25,132.1094 Q102.25,130.8594 102.8438,129.7656 Q103.4531,128.6719 104.5,128.0938 Q105.5625,127.5 106.75,127.5 Q107.4688,127.5 108.0938,127.75 Q108.7188,128 109.25,128.5 Z " fill="#000000"/><text fill="#000000" font-family="sans-serif" font-size="12" lengthAdjust="spacing" textLength="84" x="127.75" y="136.9102">TopNController</text><line style="stroke:#A80036;stroke-width:1.5;" x1="12" x2="295" y1="148" y2="148"/><line style="stroke:#A80036;stroke-width:1.5;" x1="12" x2="295" y1="156" y2="156"/><text fill="#000000" font-family="sans-serif" font-size="11" lengthAdjust="spacing" textLength="273" x="17" y="171.4189">-getShipByBaseDateTime(initialBaseDate, finalBaseDate)</text><text fill="#000000" font-family="sans-serif" font-size="11" lengthAdjust="spacing" textLength="153" x="17" y="185.2549">-getShipWithMean(sortedShips)</text><!--MD5=[43adf079e4aaffd3a283c2c0454b404c]
class ShipsBST--><rect codeLine="38" fill="#FEFECE" filter="url(#f1xhr4iw9ia383)" height="89.5078" id="ShipsBST" style="stroke:#A80036;stroke-width:1.5;" width="285" x="7" y="516"/><ellipse cx="117.75" cy="532" fill="#ADD1B2" rx="11" ry="11" style="stroke:#A80036;stroke-width:1.0;"/><path d="M119.75,528.5 Q119.9531,528 120.1875,527.75 Q120.4219,527.5 120.6875,527.5 Q121.1563,527.5 121.4531,527.7813 Q121.75,528.0625 121.75,528.7188 L121.75,530.2813 Q121.75,530.9375 121.4688,531.2188 Q121.1875,531.5 120.75,531.5 Q120.3594,531.5 120.1094,531.3281 Q119.8594,531.1563 119.75,530.7031 Q119.7031,530.3906 119.5313,530.2188 Q119.2188,529.8906 118.6563,529.7031 Q118.0938,529.5 117.5313,529.5 Q116.8281,529.5 116.2344,529.7813 Q115.6563,530.0625 115.2031,530.6875 Q114.75,531.3125 114.75,532.1719 L114.75,533.0938 Q114.75,534.125 115.5938,534.8125 Q116.4375,535.5 117.9375,535.5 Q118.8281,535.5 119.4531,535.2969 Q119.8125,535.1875 120.2188,534.8281 Q120.4844,534.625 120.625,534.5625 Q120.7656,534.5 120.9375,534.5 Q121.2656,534.5 121.5,534.7656 Q121.75,535.0156 121.75,535.375 Q121.75,535.7188 121.4063,536.125 Q120.9063,536.7188 120.1094,537.0469 Q119.0625,537.5 117.7813,537.5 Q116.2813,537.5 115.0781,536.9063 Q114.1094,536.4375 113.4219,535.4219 Q112.75,534.4063 112.75,533.2031 L112.75,532.1094 Q112.75,530.8594 113.3438,529.7656 Q113.9531,528.6719 115,528.0938 Q116.0625,527.5 117.25,527.5 Q117.9688,527.5 118.5938,527.75 Q119.2188,528 119.75,528.5 Z " fill="#000000"/><text fill="#000000" font-family="sans-serif" font-size="12" lengthAdjust="spacing" textLength="55" x="138.25" y="536.9102">ShipsBST</text><line style="stroke:#A80036;stroke-width:1.5;" x1="8" x2="291" y1="548" y2="548"/><line style="stroke:#A80036;stroke-width:1.5;" x1="8" x2="291" y1="556" y2="556"/><text fill="#000000" font-family="sans-serif" font-size="11" lengthAdjust="spacing" textLength="273" x="13" y="571.4189">-getShipByBaseDateTime(initialBaseDate, finalBaseDate)</text><text fill="#000000" font-family="sans-serif" font-size="11" lengthAdjust="spacing" textLength="102" x="13" y="585.2549">-sortNShips(shipList)</text><text fill="#000000" font-family="sans-serif" font-size="11" lengthAdjust="spacing" textLength="166" x="13" y="599.0908">-getShipWithMean(sortedShips, N)</text><!--MD5=[4901be1d1d8a5c23fb0daf47783de1b7]
class PositionBST--><rect codeLine="44" fill="#FEFECE" filter="url(#f1xhr4iw9ia383)" height="89.5078" id="PositionBST" style="stroke:#A80036;stroke-width:1.5;" width="153" x="51" y="704.5"/><ellipse cx="89.85" cy="720.5" fill="#ADD1B2" rx="11" ry="11" style="stroke:#A80036;stroke-width:1.0;"/><path d="M91.85,717 Q92.0531,716.5 92.2875,716.25 Q92.5219,716 92.7875,716 Q93.2563,716 93.5531,716.2813 Q93.85,716.5625 93.85,717.2188 L93.85,718.7813 Q93.85,719.4375 93.5688,719.7188 Q93.2875,720 92.85,720 Q92.4594,720 92.2094,719.8281 Q91.9594,719.6563 91.85,719.2031 Q91.8031,718.8906 91.6313,718.7188 Q91.3188,718.3906 90.7563,718.2031 Q90.1938,718 89.6313,718 Q88.9281,718 88.3344,718.2813 Q87.7563,718.5625 87.3031,719.1875 Q86.85,719.8125 86.85,720.6719 L86.85,721.5938 Q86.85,722.625 87.6938,723.3125 Q88.5375,724 90.0375,724 Q90.9281,724 91.5531,723.7969 Q91.9125,723.6875 92.3188,723.3281 Q92.5844,723.125 92.725,723.0625 Q92.8656,723 93.0375,723 Q93.3656,723 93.6,723.2656 Q93.85,723.5156 93.85,723.875 Q93.85,724.2188 93.5063,724.625 Q93.0063,725.2188 92.2094,725.5469 Q91.1625,726 89.8813,726 Q88.3813,726 87.1781,725.4063 Q86.2094,724.9375 85.5219,723.9219 Q84.85,722.9063 84.85,721.7031 L84.85,720.6094 Q84.85,719.3594 85.4438,718.2656 Q86.0531,717.1719 87.1,716.5938 Q88.1625,716 89.35,716 Q90.0688,716 90.6938,716.25 Q91.3188,716.5 91.85,717 Z " fill="#000000"/><text fill="#000000" font-family="sans-serif" font-size="12" lengthAdjust="spacing" textLength="68" x="109.15" y="725.4102">PositionBST</text><line style="stroke:#A80036;stroke-width:1.5;" x1="52" x2="203" y1="736.5" y2="736.5"/><line style="stroke:#A80036;stroke-width:1.5;" x1="52" x2="203" y1="744.5" y2="744.5"/><text fill="#000000" font-family="sans-serif" font-size="11" lengthAdjust="spacing" textLength="141" x="57" y="759.9189">-getShipBaseDateTime(code)</text><text fill="#000000" font-family="sans-serif" font-size="11" lengthAdjust="spacing" textLength="76" x="57" y="773.7549">-getMeanSOG()</text><text fill="#000000" font-family="sans-serif" font-size="11" lengthAdjust="spacing" textLength="92" x="57" y="787.5908">-getTotalDistance()</text><!--MD5=[02e4b9b7573f1156f41e60aa5b4e25a4]
class Company--><rect codeLine="49" fill="#FEFECE" filter="url(#f1xhr4iw9ia383)" height="61.8359" id="Company" style="stroke:#A80036;stroke-width:1.5;" width="86" x="196.5" y="253"/><ellipse cx="211.95" cy="269" fill="#ADD1B2" rx="11" ry="11" style="stroke:#A80036;stroke-width:1.0;"/><path d="M213.95,265.5 Q214.1531,265 214.3875,264.75 Q214.6219,264.5 214.8875,264.5 Q215.3563,264.5 215.6531,264.7813 Q215.95,265.0625 215.95,265.7188 L215.95,267.2813 Q215.95,267.9375 215.6688,268.2188 Q215.3875,268.5 214.95,268.5 Q214.5594,268.5 214.3094,268.3281 Q214.0594,268.1563 213.95,267.7031 Q213.9031,267.3906 213.7313,267.2188 Q213.4188,266.8906 212.8563,266.7031 Q212.2938,266.5 211.7313,266.5 Q211.0281,266.5 210.4344,266.7813 Q209.8563,267.0625 209.4031,267.6875 Q208.95,268.3125 208.95,269.1719 L208.95,270.0938 Q208.95,271.125 209.7938,271.8125 Q210.6375,272.5 212.1375,272.5 Q213.0281,272.5 213.6531,272.2969 Q214.0125,272.1875 214.4188,271.8281 Q214.6844,271.625 214.825,271.5625 Q214.9656,271.5 215.1375,271.5 Q215.4656,271.5 215.7,271.7656 Q215.95,272.0156 215.95,272.375 Q215.95,272.7188 215.6063,273.125 Q215.1063,273.7188 214.3094,274.0469 Q213.2625,274.5 211.9813,274.5 Q210.4813,274.5 209.2781,273.9063 Q208.3094,273.4375 207.6219,272.4219 Q206.95,271.4063 206.95,270.2031 L206.95,269.1094 Q206.95,267.8594 207.5438,266.7656 Q208.1531,265.6719 209.2,265.0938 Q210.2625,264.5 211.45,264.5 Q212.1688,264.5 212.7938,264.75 Q213.4188,265 213.95,265.5 Z " fill="#000000"/><text fill="#000000" font-family="sans-serif" font-size="12" lengthAdjust="spacing" textLength="53" x="226.05" y="273.9102">Company</text><line style="stroke:#A80036;stroke-width:1.5;" x1="197.5" x2="281.5" y1="285" y2="285"/><line style="stroke:#A80036;stroke-width:1.5;" x1="197.5" x2="281.5" y1="293" y2="293"/><text fill="#000000" font-family="sans-serif" font-size="11" lengthAdjust="spacing" textLength="74" x="202.5" y="308.4189">-getShipStore()</text><!--MD5=[6b4a94d80660e97c6833bde801bd4c89]
link Company to ShipStore--><path codeLine="54" d="M239.5,315.28 C239.5,338.29 239.5,369.79 239.5,392.79 " fill="none" id="Company-ShipStore" style="stroke:#A80036;stroke-width:1.0;"/><polygon fill="#000000" points="244.5,359.1758,247.4389,350.1307,241.5611,350.1307,244.5,359.1758" style="stroke:#000000;stroke-width:1.0;"/><text fill="#000000" font-family="sans-serif" font-size="13" lengthAdjust="spacing" textLength="28" x="253.5" y="359.4951">uses</text><text fill="#000000" font-family="sans-serif" font-size="13" lengthAdjust="spacing" textLength="7" x="231.8328" y="336.312">1</text><text fill="#000000" font-family="sans-serif" font-size="13" lengthAdjust="spacing" textLength="7" x="231.7781" y="382.2512">1</text><!--MD5=[c2acce4d7c8ab8c40d74533e9dec3e3c]
link ShipStore to ShipsBST--><path codeLine="55" d="M219.3,455.3 C208.22,471.92 194.22,492.92 181.67,511.74 " fill="none" id="ShipStore-to-ShipsBST" style="stroke:#A80036;stroke-width:1.0;stroke-dasharray:7.0,7.0;"/><polygon fill="#A80036" points="178.85,515.97,187.1705,510.7003,181.6235,511.8097,180.5141,506.2627,178.85,515.97" style="stroke:#A80036;stroke-width:1.0;"/><!--MD5=[160674319446910b8a3a452fc1f6631a]
link ShipsBST to PositionBST--><path codeLine="56" d="M144.29,606.2 C141,634.08 136.74,670.15 133.34,699 " fill="none" id="ShipsBST-to-PositionBST" style="stroke:#A80036;stroke-width:1.0;stroke-dasharray:7.0,7.0;"/><polygon fill="#A80036" points="132.71,704.3,137.7356,695.8298,133.295,699.3343,129.7905,694.8938,132.71,704.3" style="stroke:#A80036;stroke-width:1.0;"/><!--MD5=[b457ea32acbd230d0e22037aaab2ac98]
link ShipsBST to Ship--><path codeLine="57" d="M188.77,606.24 C196.85,615.86 205.14,626.12 212.5,636 C223.77,651.12 235.22,667.94 245.6,683.86 " fill="none" id="ShipsBST-Ship" style="stroke:#A80036;stroke-width:1.0;"/><polygon fill="#000000" points="232.4537,649.2101,229.4817,640.1758,224.7391,643.6481,232.4537,649.2101" style="stroke:#000000;stroke-width:1.0;"/><text fill="#000000" font-family="sans-serif" font-size="13" lengthAdjust="spacing" textLength="30" x="238.5" y="650.4951">owns</text><text fill="#000000" font-family="sans-serif" font-size="13" lengthAdjust="spacing" textLength="7" x="186.5766" y="626.9459">1</text><text fill="#000000" font-family="sans-serif" font-size="13" lengthAdjust="spacing" textLength="20" x="220.1422" y="673.3191">1..*</text><!--MD5=[b457ea32acbd230d0e22037aaab2ac98]
link ShipsBST to Ship--><path codeLine="61" d="M176.42,606.2 C186.16,621.58 197.48,638.79 208.5,654 C216.98,665.7 226.41,677.88 235.69,689.46 " fill="none" id="ShipsBST-to-Ship" style="stroke:#A80036;stroke-width:1.0;stroke-dasharray:7.0,7.0;"/><polygon fill="#A80036" points="238.83,693.36,236.3014,683.8413,235.6943,689.4655,230.0701,688.8584,238.83,693.36" style="stroke:#A80036;stroke-width:1.0;"/><!--MD5=[7cc50e14082cb2e4b2cc921c8068a5a4]
link TopNUI to TopNController--><path codeLine="58" d="M153.5,55.04 C153.5,70.71 153.5,91.91 153.5,110.58 " fill="none" id="TopNUI-to-TopNController" style="stroke:#A80036;stroke-width:1.0;stroke-dasharray:7.0,7.0;"/><polygon fill="#A80036" points="153.5,115.77,157.5,106.77,153.5,110.77,149.5,106.77,153.5,115.77" style="stroke:#A80036;stroke-width:1.0;"/><!--MD5=[bfb718339d3fb6fc289b9afa9807163e]
link TopNController to ShipsBST--><path codeLine="59" d="M153.13,192.01 C152.41,265.2 150.8,428.41 149.99,510.64 " fill="none" id="TopNController-to-ShipsBST" style="stroke:#A80036;stroke-width:1.0;stroke-dasharray:7.0,7.0;"/><polygon fill="#A80036" points="149.94,515.93,154.017,506.9646,149.9829,510.9302,146.0173,506.896,149.94,515.93" style="stroke:#A80036;stroke-width:1.0;"/><!--MD5=[c5ded413ebf5d3a6ffffa9ef097420d3]
link TopNController to Company--><path codeLine="60" d="M178.37,192.02 C190.36,209.86 204.64,231.11 216.38,248.59 " fill="none" id="TopNController-to-Company" style="stroke:#A80036;stroke-width:1.0;stroke-dasharray:7.0,7.0;"/><polygon fill="#A80036" points="219.31,252.95,217.6074,243.2494,216.52,248.8008,210.9687,247.7134,219.31,252.95" style="stroke:#A80036;stroke-width:1.0;"/><!--MD5=[ce79748d443f739b1b79d56680b7fe67]
link PositionBST to ShipPosition--><path codeLine="62" d="M127.5,794.73 C127.5,816.82 127.5,844.4 127.5,870.73 " fill="none" id="PositionBST-to-ShipPosition" style="stroke:#A80036;stroke-width:1.0;stroke-dasharray:7.0,7.0;"/><polygon fill="#A80036" points="127.5,875.98,131.5,866.98,127.5,870.98,123.5,866.98,127.5,875.98" style="stroke:#A80036;stroke-width:1.0;"/><!--MD5=[37a14a5de6d6fd738aee271300f4b5c8]
link Company to Ship--><path codeLine="63" d="M268.18,315.04 C276.04,324.21 284.14,334.62 290.5,345 C302.57,364.71 305.97,370.34 310.5,393 C330.08,490.91 315.04,606.64 301.25,678.83 " fill="none" id="Company-to-Ship" style="stroke:#A80036;stroke-width:1.0;stroke-dasharray:7.0,7.0;"/><polygon fill="#A80036" points="300.26,683.95,305.8885,675.8679,301.2048,679.0401,298.0326,674.3563,300.26,683.95" style="stroke:#A80036;stroke-width:1.0;"/><!--MD5=[470156c4e98527984e354038944420ec]
@startuml

skinparam classAttributeIconSize 0


class Ship {
    -mmmsiCode
    -shipName
    -imoCode
    -callSignId
    -currentCapacity /'added by us'/
    -draft
}

class ShipPosition {
    -baseDateTime
    -latitude
    -longitude
    -sog
    -cog
    -heading
    -position
    -transceiver
    -getSOG()
}

class ShipStore {
    -getShipsBstMmsi()
}


class TopNUI {}

class TopNController {
    -getShipByBaseDateTime(initialBaseDate, finalBaseDate)
    -getShipWithMean(sortedShips)
}

class ShipsBST{
    -getShipByBaseDateTime(initialBaseDate, finalBaseDate)
    -sortNShips(shipList)
    -getShipWithMean(sortedShips, N)
}

class PositionBST{
    -getShipBaseDateTime(code)
    -getMeanSOG()
    -getTotalDistance()
}
class Company {
    -getShipStore()
}


Company "1" - - "1" ShipStore : uses >
ShipStore ..> ShipsBST
ShipsBST ..> PositionBST
ShipsBST "1" - - "1..*" Ship : owns >
TopNUI ..> TopNController
TopNController ..> ShipsBST
TopNController ..> Company
ShipsBST ..> Ship
PositionBST ..> ShipPosition
Company ..> Ship


@enduml

@startuml

skinparam classAttributeIconSize 0


class Ship {
    -mmmsiCode
    -shipName
    -imoCode
    -callSignId
    -currentCapacity 
    -draft
}

class ShipPosition {
    -baseDateTime
    -latitude
    -longitude
    -sog
    -cog
    -heading
    -position
    -transceiver
    -getSOG()
}

class ShipStore {
    -getShipsBstMmsi()
}


class TopNUI {}

class TopNController {
    -getShipByBaseDateTime(initialBaseDate, finalBaseDate)
    -getShipWithMean(sortedShips)
}

class ShipsBST{
    -getShipByBaseDateTime(initialBaseDate, finalBaseDate)
    -sortNShips(shipList)
    -getShipWithMean(sortedShips, N)
}

class PositionBST{
    -getShipBaseDateTime(code)
    -getMeanSOG()
    -getTotalDistance()
}
class Company {
    -getShipStore()
}


Company "1" - - "1" ShipStore : uses >
ShipStore ..> ShipsBST
ShipsBST ..> PositionBST
ShipsBST "1" - - "1..*" Ship : owns >
TopNUI ..> TopNController
TopNController ..> ShipsBST
TopNController ..> Company
ShipsBST ..> Ship
PositionBST ..> ShipPosition
Company ..> Ship


@enduml

PlantUML version 1.2021.11(Sat Oct 02 14:26:11 BST 2021)
(GPL source distribution)
Java Runtime: OpenJDK Runtime Environment
JVM: OpenJDK 64-Bit Server VM
Default Encoding: Cp1252
Language: pt
Country: PT
--></g></svg>