<?xml version="1.0" encoding="UTF-8" standalone="no"?><svg xmlns="http://www.w3.org/2000/svg" xmlns:xlink="http://www.w3.org/1999/xlink" contentScriptType="application/ecmascript" contentStyleType="text/css" height="1062px" preserveAspectRatio="none" style="width:401px;height:1062px;background:#FFFFFF;" version="1.1" viewBox="0 0 401 1062" width="401px" zoomAndPan="magnify"><defs><filter height="300%" id="fvdiff17ikhlt" width="300%" x="-1" y="-1"><feGaussianBlur result="blurOut" stdDeviation="2.0"/><feColorMatrix in="blurOut" result="blurOut2" type="matrix" values="0 0 0 0 0 0 0 0 0 0 0 0 0 0 0 0 0 0 .4 0"/><feOffset dx="4.0" dy="4.0" in="blurOut2" result="blurOut3"/><feBlend in="SourceGraphic" in2="blurOut3" mode="normal"/></filter></defs><g><!--MD5=[0dc7f2ddb409b58bcf52b12238c25399]
class Ship--><rect codeLine="5" fill="#FEFECE" filter="url(#fvdiff17ikhlt)" height="131.0156" id="Ship" style="stroke:#A80036;stroke-width:1.5;" width="93" x="285" y="684"/><ellipse cx="316.2" cy="700" fill="#ADD1B2" rx="11" ry="11" style="stroke:#A80036;stroke-width:1.0;"/><path d="M318.2,696.5 Q318.4031,696 318.6375,695.75 Q318.8719,695.5 319.1375,695.5 Q319.6063,695.5 319.9031,695.7813 Q320.2,696.0625 320.2,696.7188 L320.2,698.2813 Q320.2,698.9375 319.9188,699.2188 Q319.6375,699.5 319.2,699.5 Q318.8094,699.5 318.5594,699.3281 Q318.3094,699.1563 318.2,698.7031 Q318.1531,698.3906 317.9813,698.2188 Q317.6688,697.8906 317.1063,697.7031 Q316.5438,697.5 315.9813,697.5 Q315.2781,697.5 314.6844,697.7813 Q314.1063,698.0625 313.6531,698.6875 Q313.2,699.3125 313.2,700.1719 L313.2,701.0938 Q313.2,702.125 314.0438,702.8125 Q314.8875,703.5 316.3875,703.5 Q317.2781,703.5 317.9031,703.2969 Q318.2625,703.1875 318.6688,702.8281 Q318.9344,702.625 319.075,702.5625 Q319.2156,702.5 319.3875,702.5 Q319.7156,702.5 319.95,702.7656 Q320.2,703.0156 320.2,703.375 Q320.2,703.7188 319.8563,704.125 Q319.3563,704.7188 318.5594,705.0469 Q317.5125,705.5 316.2313,705.5 Q314.7313,705.5 313.5281,704.9063 Q312.5594,704.4375 311.8719,703.4219 Q311.2,702.4063 311.2,701.2031 L311.2,700.1094 Q311.2,698.8594 311.7938,697.7656 Q312.4031,696.6719 313.45,696.0938 Q314.5125,695.5 315.7,695.5 Q316.4188,695.5 317.0438,695.75 Q317.6688,696 318.2,696.5 Z " fill="#000000"/><text fill="#000000" font-family="sans-serif" font-size="12" lengthAdjust="spacing" textLength="25" x="333.8" y="704.9102">Ship</text><line style="stroke:#A80036;stroke-width:1.5;" x1="286" x2="377" y1="716" y2="716"/><text fill="#000000" font-family="sans-serif" font-size="11" lengthAdjust="spacing" textLength="61" x="291" y="731.4189">-mmmsiCode</text><text fill="#000000" font-family="sans-serif" font-size="11" lengthAdjust="spacing" textLength="51" x="291" y="745.2549">-shipName</text><text fill="#000000" font-family="sans-serif" font-size="11" lengthAdjust="spacing" textLength="45" x="291" y="759.0908">-imoCode</text><text fill="#000000" font-family="sans-serif" font-size="11" lengthAdjust="spacing" textLength="49" x="291" y="772.9268">-callSignId</text><text fill="#000000" font-family="sans-serif" font-size="11" lengthAdjust="spacing" textLength="81" x="291" y="786.7627">-currentCapacity</text><text fill="#000000" font-family="sans-serif" font-size="11" lengthAdjust="spacing" textLength="27" x="291" y="800.5986">-draft</text><line style="stroke:#A80036;stroke-width:1.5;" x1="286" x2="377" y1="807.0156" y2="807.0156"/><!--MD5=[1c0c3765e68dc4575d559b566278b914]
class ShipPosition--><rect codeLine="14" fill="#FEFECE" filter="url(#fvdiff17ikhlt)" height="172.5234" id="ShipPosition" style="stroke:#A80036;stroke-width:1.5;" width="102" x="32.5" y="876"/><ellipse cx="47.5" cy="892" fill="#ADD1B2" rx="11" ry="11" style="stroke:#A80036;stroke-width:1.0;"/><path d="M49.5,888.5 Q49.7031,888 49.9375,887.75 Q50.1719,887.5 50.4375,887.5 Q50.9063,887.5 51.2031,887.7813 Q51.5,888.0625 51.5,888.7188 L51.5,890.2813 Q51.5,890.9375 51.2188,891.2188 Q50.9375,891.5 50.5,891.5 Q50.1094,891.5 49.8594,891.3281 Q49.6094,891.1563 49.5,890.7031 Q49.4531,890.3906 49.2813,890.2188 Q48.9688,889.8906 48.4063,889.7031 Q47.8438,889.5 47.2813,889.5 Q46.5781,889.5 45.9844,889.7813 Q45.4063,890.0625 44.9531,890.6875 Q44.5,891.3125 44.5,892.1719 L44.5,893.0938 Q44.5,894.125 45.3438,894.8125 Q46.1875,895.5 47.6875,895.5 Q48.5781,895.5 49.2031,895.2969 Q49.5625,895.1875 49.9688,894.8281 Q50.2344,894.625 50.375,894.5625 Q50.5156,894.5 50.6875,894.5 Q51.0156,894.5 51.25,894.7656 Q51.5,895.0156 51.5,895.375 Q51.5,895.7188 51.1563,896.125 Q50.6563,896.7188 49.8594,897.0469 Q48.8125,897.5 47.5313,897.5 Q46.0313,897.5 44.8281,896.9063 Q43.8594,896.4375 43.1719,895.4219 Q42.5,894.4063 42.5,893.2031 L42.5,892.1094 Q42.5,890.8594 43.0938,889.7656 Q43.7031,888.6719 44.75,888.0938 Q45.8125,887.5 47,887.5 Q47.7188,887.5 48.3438,887.75 Q48.9688,888 49.5,888.5 Z " fill="#000000"/><text fill="#000000" font-family="sans-serif" font-size="12" lengthAdjust="spacing" textLength="70" x="61.5" y="896.9102">ShipPosition</text><line style="stroke:#A80036;stroke-width:1.5;" x1="33.5" x2="133.5" y1="908" y2="908"/><text fill="#000000" font-family="sans-serif" font-size="11" lengthAdjust="spacing" textLength="72" x="38.5" y="923.4189">-baseDateTime</text><text fill="#000000" font-family="sans-serif" font-size="11" lengthAdjust="spacing" textLength="38" x="38.5" y="937.2549">-latitude</text><text fill="#000000" font-family="sans-serif" font-size="11" lengthAdjust="spacing" textLength="47" x="38.5" y="951.0908">-longitude</text><text fill="#000000" font-family="sans-serif" font-size="11" lengthAdjust="spacing" textLength="22" x="38.5" y="964.9268">-sog</text><text fill="#000000" font-family="sans-serif" font-size="11" lengthAdjust="spacing" textLength="22" x="38.5" y="978.7627">-cog</text><text fill="#000000" font-family="sans-serif" font-size="11" lengthAdjust="spacing" textLength="42" x="38.5" y="992.5986">-heading</text><text fill="#000000" font-family="sans-serif" font-size="11" lengthAdjust="spacing" textLength="41" x="38.5" y="1006.4346">-position</text><text fill="#000000" font-family="sans-serif" font-size="11" lengthAdjust="spacing" textLength="59" x="38.5" y="1020.2705">-transceiver</text><line style="stroke:#A80036;stroke-width:1.5;" x1="33.5" x2="133.5" y1="1026.6875" y2="1026.6875"/><text fill="#000000" font-family="sans-serif" font-size="11" lengthAdjust="spacing" textLength="50" x="38.5" y="1042.1064">-getSOG()</text><!--MD5=[ea2206eefe09474e90beb17e18e6b3d8]
class ShipStore--><rect codeLine="26" fill="#FEFECE" filter="url(#fvdiff17ikhlt)" height="61.8359" id="ShipStore" style="stroke:#A80036;stroke-width:1.5;" width="106" x="259.5" y="393"/><ellipse cx="283.5" cy="409" fill="#ADD1B2" rx="11" ry="11" style="stroke:#A80036;stroke-width:1.0;"/><path d="M285.5,405.5 Q285.7031,405 285.9375,404.75 Q286.1719,404.5 286.4375,404.5 Q286.9063,404.5 287.2031,404.7813 Q287.5,405.0625 287.5,405.7188 L287.5,407.2813 Q287.5,407.9375 287.2188,408.2188 Q286.9375,408.5 286.5,408.5 Q286.1094,408.5 285.8594,408.3281 Q285.6094,408.1563 285.5,407.7031 Q285.4531,407.3906 285.2813,407.2188 Q284.9688,406.8906 284.4063,406.7031 Q283.8438,406.5 283.2813,406.5 Q282.5781,406.5 281.9844,406.7813 Q281.4063,407.0625 280.9531,407.6875 Q280.5,408.3125 280.5,409.1719 L280.5,410.0938 Q280.5,411.125 281.3438,411.8125 Q282.1875,412.5 283.6875,412.5 Q284.5781,412.5 285.2031,412.2969 Q285.5625,412.1875 285.9688,411.8281 Q286.2344,411.625 286.375,411.5625 Q286.5156,411.5 286.6875,411.5 Q287.0156,411.5 287.25,411.7656 Q287.5,412.0156 287.5,412.375 Q287.5,412.7188 287.1563,413.125 Q286.6563,413.7188 285.8594,414.0469 Q284.8125,414.5 283.5313,414.5 Q282.0313,414.5 280.8281,413.9063 Q279.8594,413.4375 279.1719,412.4219 Q278.5,411.4063 278.5,410.2031 L278.5,409.1094 Q278.5,407.8594 279.0938,406.7656 Q279.7031,405.6719 280.75,405.0938 Q281.8125,404.5 283,404.5 Q283.7188,404.5 284.3438,404.75 Q284.9688,405 285.5,405.5 Z " fill="#000000"/><text fill="#000000" font-family="sans-serif" font-size="12" lengthAdjust="spacing" textLength="54" x="299.5" y="413.9102">ShipStore</text><line style="stroke:#A80036;stroke-width:1.5;" x1="260.5" x2="364.5" y1="425" y2="425"/><line style="stroke:#A80036;stroke-width:1.5;" x1="260.5" x2="364.5" y1="433" y2="433"/><text fill="#000000" font-family="sans-serif" font-size="11" lengthAdjust="spacing" textLength="94" x="265.5" y="448.4189">-getShipsBstMmsi()</text><!--MD5=[0e45b0aabfddc08aa78c1863dca6c01d]
class TopNUI--><rect codeLine="31" fill="#FEFECE" filter="url(#fvdiff17ikhlt)" height="48" id="TopNUI" style="stroke:#A80036;stroke-width:1.5;" width="74" x="189.5" y="7"/><ellipse cx="204.5" cy="23" fill="#ADD1B2" rx="11" ry="11" style="stroke:#A80036;stroke-width:1.0;"/><path d="M206.5,19.5 Q206.7031,19 206.9375,18.75 Q207.1719,18.5 207.4375,18.5 Q207.9063,18.5 208.2031,18.7813 Q208.5,19.0625 208.5,19.7188 L208.5,21.2813 Q208.5,21.9375 208.2188,22.2188 Q207.9375,22.5 207.5,22.5 Q207.1094,22.5 206.8594,22.3281 Q206.6094,22.1563 206.5,21.7031 Q206.4531,21.3906 206.2813,21.2188 Q205.9688,20.8906 205.4063,20.7031 Q204.8438,20.5 204.2813,20.5 Q203.5781,20.5 202.9844,20.7813 Q202.4063,21.0625 201.9531,21.6875 Q201.5,22.3125 201.5,23.1719 L201.5,24.0938 Q201.5,25.125 202.3438,25.8125 Q203.1875,26.5 204.6875,26.5 Q205.5781,26.5 206.2031,26.2969 Q206.5625,26.1875 206.9688,25.8281 Q207.2344,25.625 207.375,25.5625 Q207.5156,25.5 207.6875,25.5 Q208.0156,25.5 208.25,25.7656 Q208.5,26.0156 208.5,26.375 Q208.5,26.7188 208.1563,27.125 Q207.6563,27.7188 206.8594,28.0469 Q205.8125,28.5 204.5313,28.5 Q203.0313,28.5 201.8281,27.9063 Q200.8594,27.4375 200.1719,26.4219 Q199.5,25.4063 199.5,24.2031 L199.5,23.1094 Q199.5,21.8594 200.0938,20.7656 Q200.7031,19.6719 201.75,19.0938 Q202.8125,18.5 204,18.5 Q204.7188,18.5 205.3438,18.75 Q205.9688,19 206.5,19.5 Z " fill="#000000"/><text fill="#000000" font-family="sans-serif" font-size="12" lengthAdjust="spacing" textLength="42" x="218.5" y="27.9102">TopNUI</text><line style="stroke:#A80036;stroke-width:1.5;" x1="190.5" x2="262.5" y1="39" y2="39"/><line style="stroke:#A80036;stroke-width:1.5;" x1="190.5" x2="262.5" y1="47" y2="47"/><!--MD5=[d5574e99f1a38922926a27ad66b4faf7]
class TopNController--><rect codeLine="33" fill="#FEFECE" filter="url(#fvdiff17ikhlt)" height="75.6719" id="TopNController" style="stroke:#A80036;stroke-width:1.5;" width="285" x="84" y="116"/><ellipse cx="180.25" cy="132" fill="#ADD1B2" rx="11" ry="11" style="stroke:#A80036;stroke-width:1.0;"/><path d="M182.25,128.5 Q182.4531,128 182.6875,127.75 Q182.9219,127.5 183.1875,127.5 Q183.6563,127.5 183.9531,127.7813 Q184.25,128.0625 184.25,128.7188 L184.25,130.2813 Q184.25,130.9375 183.9688,131.2188 Q183.6875,131.5 183.25,131.5 Q182.8594,131.5 182.6094,131.3281 Q182.3594,131.1563 182.25,130.7031 Q182.2031,130.3906 182.0313,130.2188 Q181.7188,129.8906 181.1563,129.7031 Q180.5938,129.5 180.0313,129.5 Q179.3281,129.5 178.7344,129.7813 Q178.1563,130.0625 177.7031,130.6875 Q177.25,131.3125 177.25,132.1719 L177.25,133.0938 Q177.25,134.125 178.0938,134.8125 Q178.9375,135.5 180.4375,135.5 Q181.3281,135.5 181.9531,135.2969 Q182.3125,135.1875 182.7188,134.8281 Q182.9844,134.625 183.125,134.5625 Q183.2656,134.5 183.4375,134.5 Q183.7656,134.5 184,134.7656 Q184.25,135.0156 184.25,135.375 Q184.25,135.7188 183.9063,136.125 Q183.4063,136.7188 182.6094,137.0469 Q181.5625,137.5 180.2813,137.5 Q178.7813,137.5 177.5781,136.9063 Q176.6094,136.4375 175.9219,135.4219 Q175.25,134.4063 175.25,133.2031 L175.25,132.1094 Q175.25,130.8594 175.8438,129.7656 Q176.4531,128.6719 177.5,128.0938 Q178.5625,127.5 179.75,127.5 Q180.4688,127.5 181.0938,127.75 Q181.7188,128 182.25,128.5 Z " fill="#000000"/><text fill="#000000" font-family="sans-serif" font-size="12" lengthAdjust="spacing" textLength="84" x="200.75" y="136.9102">TopNController</text><line style="stroke:#A80036;stroke-width:1.5;" x1="85" x2="368" y1="148" y2="148"/><line style="stroke:#A80036;stroke-width:1.5;" x1="85" x2="368" y1="156" y2="156"/><text fill="#000000" font-family="sans-serif" font-size="11" lengthAdjust="spacing" textLength="273" x="90" y="171.4189">-getShipByBaseDateTime(initialBaseDate, finalBaseDate)</text><text fill="#000000" font-family="sans-serif" font-size="11" lengthAdjust="spacing" textLength="153" x="90" y="185.2549">-getShipWithMean(sortedShips)</text><!--MD5=[43adf079e4aaffd3a283c2c0454b404c]
class ShipsBST--><rect codeLine="38" fill="#FEFECE" filter="url(#fvdiff17ikhlt)" height="89.5078" id="ShipsBST" style="stroke:#A80036;stroke-width:1.5;" width="285" x="80" y="516"/><ellipse cx="190.75" cy="532" fill="#ADD1B2" rx="11" ry="11" style="stroke:#A80036;stroke-width:1.0;"/><path d="M192.75,528.5 Q192.9531,528 193.1875,527.75 Q193.4219,527.5 193.6875,527.5 Q194.1563,527.5 194.4531,527.7813 Q194.75,528.0625 194.75,528.7188 L194.75,530.2813 Q194.75,530.9375 194.4688,531.2188 Q194.1875,531.5 193.75,531.5 Q193.3594,531.5 193.1094,531.3281 Q192.8594,531.1563 192.75,530.7031 Q192.7031,530.3906 192.5313,530.2188 Q192.2188,529.8906 191.6563,529.7031 Q191.0938,529.5 190.5313,529.5 Q189.8281,529.5 189.2344,529.7813 Q188.6563,530.0625 188.2031,530.6875 Q187.75,531.3125 187.75,532.1719 L187.75,533.0938 Q187.75,534.125 188.5938,534.8125 Q189.4375,535.5 190.9375,535.5 Q191.8281,535.5 192.4531,535.2969 Q192.8125,535.1875 193.2188,534.8281 Q193.4844,534.625 193.625,534.5625 Q193.7656,534.5 193.9375,534.5 Q194.2656,534.5 194.5,534.7656 Q194.75,535.0156 194.75,535.375 Q194.75,535.7188 194.4063,536.125 Q193.9063,536.7188 193.1094,537.0469 Q192.0625,537.5 190.7813,537.5 Q189.2813,537.5 188.0781,536.9063 Q187.1094,536.4375 186.4219,535.4219 Q185.75,534.4063 185.75,533.2031 L185.75,532.1094 Q185.75,530.8594 186.3438,529.7656 Q186.9531,528.6719 188,528.0938 Q189.0625,527.5 190.25,527.5 Q190.9688,527.5 191.5938,527.75 Q192.2188,528 192.75,528.5 Z " fill="#000000"/><text fill="#000000" font-family="sans-serif" font-size="12" lengthAdjust="spacing" textLength="55" x="211.25" y="536.9102">ShipsBST</text><line style="stroke:#A80036;stroke-width:1.5;" x1="81" x2="364" y1="548" y2="548"/><line style="stroke:#A80036;stroke-width:1.5;" x1="81" x2="364" y1="556" y2="556"/><text fill="#000000" font-family="sans-serif" font-size="11" lengthAdjust="spacing" textLength="273" x="86" y="571.4189">-getShipByBaseDateTime(initialBaseDate, finalBaseDate)</text><text fill="#000000" font-family="sans-serif" font-size="11" lengthAdjust="spacing" textLength="102" x="86" y="585.2549">-sortNShips(shipList)</text><text fill="#000000" font-family="sans-serif" font-size="11" lengthAdjust="spacing" textLength="166" x="86" y="599.0908">-getShipWithMean(sortedShips, N)</text><!--MD5=[4901be1d1d8a5c23fb0daf47783de1b7]
class PositionBST--><rect codeLine="44" fill="#FEFECE" filter="url(#fvdiff17ikhlt)" height="89.5078" id="PositionBST" style="stroke:#A80036;stroke-width:1.5;" width="153" x="7" y="704.5"/><ellipse cx="45.85" cy="720.5" fill="#ADD1B2" rx="11" ry="11" style="stroke:#A80036;stroke-width:1.0;"/><path d="M47.85,717 Q48.0531,716.5 48.2875,716.25 Q48.5219,716 48.7875,716 Q49.2563,716 49.5531,716.2813 Q49.85,716.5625 49.85,717.2188 L49.85,718.7813 Q49.85,719.4375 49.5688,719.7188 Q49.2875,720 48.85,720 Q48.4594,720 48.2094,719.8281 Q47.9594,719.6563 47.85,719.2031 Q47.8031,718.8906 47.6313,718.7188 Q47.3188,718.3906 46.7563,718.2031 Q46.1938,718 45.6313,718 Q44.9281,718 44.3344,718.2813 Q43.7563,718.5625 43.3031,719.1875 Q42.85,719.8125 42.85,720.6719 L42.85,721.5938 Q42.85,722.625 43.6938,723.3125 Q44.5375,724 46.0375,724 Q46.9281,724 47.5531,723.7969 Q47.9125,723.6875 48.3188,723.3281 Q48.5844,723.125 48.725,723.0625 Q48.8656,723 49.0375,723 Q49.3656,723 49.6,723.2656 Q49.85,723.5156 49.85,723.875 Q49.85,724.2188 49.5063,724.625 Q49.0063,725.2188 48.2094,725.5469 Q47.1625,726 45.8813,726 Q44.3813,726 43.1781,725.4063 Q42.2094,724.9375 41.5219,723.9219 Q40.85,722.9063 40.85,721.7031 L40.85,720.6094 Q40.85,719.3594 41.4438,718.2656 Q42.0531,717.1719 43.1,716.5938 Q44.1625,716 45.35,716 Q46.0688,716 46.6938,716.25 Q47.3188,716.5 47.85,717 Z " fill="#000000"/><text fill="#000000" font-family="sans-serif" font-size="12" lengthAdjust="spacing" textLength="68" x="65.15" y="725.4102">PositionBST</text><line style="stroke:#A80036;stroke-width:1.5;" x1="8" x2="159" y1="736.5" y2="736.5"/><line style="stroke:#A80036;stroke-width:1.5;" x1="8" x2="159" y1="744.5" y2="744.5"/><text fill="#000000" font-family="sans-serif" font-size="11" lengthAdjust="spacing" textLength="141" x="13" y="759.9189">-getShipBaseDateTime(code)</text><text fill="#000000" font-family="sans-serif" font-size="11" lengthAdjust="spacing" textLength="76" x="13" y="773.7549">-getMeanSOG()</text><text fill="#000000" font-family="sans-serif" font-size="11" lengthAdjust="spacing" textLength="92" x="13" y="787.5908">-getTotalDistance()</text><!--MD5=[02e4b9b7573f1156f41e60aa5b4e25a4]
class Company--><rect codeLine="49" fill="#FEFECE" filter="url(#fvdiff17ikhlt)" height="61.8359" id="Company" style="stroke:#A80036;stroke-width:1.5;" width="86" x="269.5" y="253"/><ellipse cx="284.95" cy="269" fill="#ADD1B2" rx="11" ry="11" style="stroke:#A80036;stroke-width:1.0;"/><path d="M286.95,265.5 Q287.1531,265 287.3875,264.75 Q287.6219,264.5 287.8875,264.5 Q288.3563,264.5 288.6531,264.7813 Q288.95,265.0625 288.95,265.7188 L288.95,267.2813 Q288.95,267.9375 288.6688,268.2188 Q288.3875,268.5 287.95,268.5 Q287.5594,268.5 287.3094,268.3281 Q287.0594,268.1563 286.95,267.7031 Q286.9031,267.3906 286.7313,267.2188 Q286.4188,266.8906 285.8563,266.7031 Q285.2938,266.5 284.7313,266.5 Q284.0281,266.5 283.4344,266.7813 Q282.8563,267.0625 282.4031,267.6875 Q281.95,268.3125 281.95,269.1719 L281.95,270.0938 Q281.95,271.125 282.7938,271.8125 Q283.6375,272.5 285.1375,272.5 Q286.0281,272.5 286.6531,272.2969 Q287.0125,272.1875 287.4188,271.8281 Q287.6844,271.625 287.825,271.5625 Q287.9656,271.5 288.1375,271.5 Q288.4656,271.5 288.7,271.7656 Q288.95,272.0156 288.95,272.375 Q288.95,272.7188 288.6063,273.125 Q288.1063,273.7188 287.3094,274.0469 Q286.2625,274.5 284.9813,274.5 Q283.4813,274.5 282.2781,273.9063 Q281.3094,273.4375 280.6219,272.4219 Q279.95,271.4063 279.95,270.2031 L279.95,269.1094 Q279.95,267.8594 280.5438,266.7656 Q281.1531,265.6719 282.2,265.0938 Q283.2625,264.5 284.45,264.5 Q285.1688,264.5 285.7938,264.75 Q286.4188,265 286.95,265.5 Z " fill="#000000"/><text fill="#000000" font-family="sans-serif" font-size="12" lengthAdjust="spacing" textLength="53" x="299.05" y="273.9102">Company</text><line style="stroke:#A80036;stroke-width:1.5;" x1="270.5" x2="354.5" y1="285" y2="285"/><line style="stroke:#A80036;stroke-width:1.5;" x1="270.5" x2="354.5" y1="293" y2="293"/><text fill="#000000" font-family="sans-serif" font-size="11" lengthAdjust="spacing" textLength="74" x="275.5" y="308.4189">-getShipStore()</text><!--MD5=[b4a9ab6cffd58937cfea07eb2954e1bd]
class BST--><rect codeLine="53" fill="#FEFECE" filter="url(#fvdiff17ikhlt)" height="48" id="BST" style="stroke:#A80036;stroke-width:1.5;" width="55" x="195" y="725.5"/><ellipse cx="210" cy="741.5" fill="#ADD1B2" rx="11" ry="11" style="stroke:#A80036;stroke-width:1.0;"/><path d="M212,738 Q212.2031,737.5 212.4375,737.25 Q212.6719,737 212.9375,737 Q213.4063,737 213.7031,737.2813 Q214,737.5625 214,738.2188 L214,739.7813 Q214,740.4375 213.7188,740.7188 Q213.4375,741 213,741 Q212.6094,741 212.3594,740.8281 Q212.1094,740.6563 212,740.2031 Q211.9531,739.8906 211.7813,739.7188 Q211.4688,739.3906 210.9063,739.2031 Q210.3438,739 209.7813,739 Q209.0781,739 208.4844,739.2813 Q207.9063,739.5625 207.4531,740.1875 Q207,740.8125 207,741.6719 L207,742.5938 Q207,743.625 207.8438,744.3125 Q208.6875,745 210.1875,745 Q211.0781,745 211.7031,744.7969 Q212.0625,744.6875 212.4688,744.3281 Q212.7344,744.125 212.875,744.0625 Q213.0156,744 213.1875,744 Q213.5156,744 213.75,744.2656 Q214,744.5156 214,744.875 Q214,745.2188 213.6563,745.625 Q213.1563,746.2188 212.3594,746.5469 Q211.3125,747 210.0313,747 Q208.5313,747 207.3281,746.4063 Q206.3594,745.9375 205.6719,744.9219 Q205,743.9063 205,742.7031 L205,741.6094 Q205,740.3594 205.5938,739.2656 Q206.2031,738.1719 207.25,737.5938 Q208.3125,737 209.5,737 Q210.2188,737 210.8438,737.25 Q211.4688,737.5 212,738 Z " fill="#000000"/><text fill="#000000" font-family="sans-serif" font-size="12" lengthAdjust="spacing" textLength="23" x="224" y="746.4102">BST</text><line style="stroke:#A80036;stroke-width:1.5;" x1="196" x2="249" y1="757.5" y2="757.5"/><line style="stroke:#A80036;stroke-width:1.5;" x1="196" x2="249" y1="765.5" y2="765.5"/><!--MD5=[6b4a94d80660e97c6833bde801bd4c89]
link Company to ShipStore--><path codeLine="55" d="M312.5,315.28 C312.5,338.29 312.5,369.79 312.5,392.79 " fill="none" id="Company-ShipStore" style="stroke:#A80036;stroke-width:1.0;"/><polygon fill="#000000" points="317.5,359.1758,320.4389,350.1307,314.5611,350.1307,317.5,359.1758" style="stroke:#000000;stroke-width:1.0;"/><text fill="#000000" font-family="sans-serif" font-size="13" lengthAdjust="spacing" textLength="28" x="326.5" y="359.4951">uses</text><text fill="#000000" font-family="sans-serif" font-size="13" lengthAdjust="spacing" textLength="7" x="304.8328" y="336.312">1</text><text fill="#000000" font-family="sans-serif" font-size="13" lengthAdjust="spacing" textLength="7" x="304.7781" y="382.2512">1</text><!--MD5=[c2acce4d7c8ab8c40d74533e9dec3e3c]
link ShipStore to ShipsBST--><path codeLine="56" d="M292.3,455.3 C281.22,471.92 267.22,492.92 254.67,511.74 " fill="none" id="ShipStore-to-ShipsBST" style="stroke:#A80036;stroke-width:1.0;stroke-dasharray:7.0,7.0;"/><polygon fill="#A80036" points="251.85,515.97,260.1705,510.7003,254.6235,511.8097,253.5141,506.2627,251.85,515.97" style="stroke:#A80036;stroke-width:1.0;"/><!--MD5=[160674319446910b8a3a452fc1f6631a]
link ShipsBST to PositionBST--><path codeLine="57" d="M189.56,606.2 C168.52,634.43 141.22,671.05 119.59,700.07 " fill="none" id="ShipsBST-to-PositionBST" style="stroke:#A80036;stroke-width:1.0;stroke-dasharray:7.0,7.0;"/><polygon fill="#A80036" points="116.45,704.3,125.0307,699.4657,119.434,700.288,118.6116,694.6913,116.45,704.3" style="stroke:#A80036;stroke-width:1.0;"/><!--MD5=[b457ea32acbd230d0e22037aaab2ac98]
link ShipsBST to Ship--><path codeLine="58" d="M265.72,606.23 C273.6,615.61 281.28,625.78 287.5,636 C296.5,650.78 304.26,667.72 310.66,683.89 " fill="none" id="ShipsBST-Ship" style="stroke:#A80036;stroke-width:1.0;"/><polygon fill="#000000" points="304.0043,649.5034,302.0177,640.2027,296.9303,643.1466,304.0043,649.5034" style="stroke:#000000;stroke-width:1.0;"/><text fill="#000000" font-family="sans-serif" font-size="13" lengthAdjust="spacing" textLength="30" x="310.5" y="650.4951">owns</text><text fill="#000000" font-family="sans-serif" font-size="13" lengthAdjust="spacing" textLength="7" x="264.0574" y="626.9346">1</text><text fill="#000000" font-family="sans-serif" font-size="13" lengthAdjust="spacing" textLength="20" x="287.2869" y="673.3524">1..*</text><!--MD5=[b457ea32acbd230d0e22037aaab2ac98]
link ShipsBST to Ship--><path codeLine="62" d="M248.33,606.2 C261.07,628 276.74,654.8 291.02,679.25 " fill="none" id="ShipsBST-to-Ship" style="stroke:#A80036;stroke-width:1.0;stroke-dasharray:7.0,7.0;"/><polygon fill="#A80036" points="293.67,683.78,292.5701,673.9927,291.1418,679.4663,285.6682,678.0379,293.67,683.78" style="stroke:#A80036;stroke-width:1.0;"/><!--MD5=[7cc50e14082cb2e4b2cc921c8068a5a4]
link TopNUI to TopNController--><path codeLine="59" d="M226.5,55.04 C226.5,70.71 226.5,91.91 226.5,110.58 " fill="none" id="TopNUI-to-TopNController" style="stroke:#A80036;stroke-width:1.0;stroke-dasharray:7.0,7.0;"/><polygon fill="#A80036" points="226.5,115.77,230.5,106.77,226.5,110.77,222.5,106.77,226.5,115.77" style="stroke:#A80036;stroke-width:1.0;"/><!--MD5=[bfb718339d3fb6fc289b9afa9807163e]
link TopNController to ShipsBST--><path codeLine="60" d="M226.13,192.01 C225.41,265.2 223.8,428.41 222.99,510.64 " fill="none" id="TopNController-to-ShipsBST" style="stroke:#A80036;stroke-width:1.0;stroke-dasharray:7.0,7.0;"/><polygon fill="#A80036" points="222.94,515.93,227.017,506.9646,222.9829,510.9302,219.0173,506.896,222.94,515.93" style="stroke:#A80036;stroke-width:1.0;"/><!--MD5=[c5ded413ebf5d3a6ffffa9ef097420d3]
link TopNController to Company--><path codeLine="61" d="M251.37,192.02 C263.36,209.86 277.64,231.11 289.38,248.59 " fill="none" id="TopNController-to-Company" style="stroke:#A80036;stroke-width:1.0;stroke-dasharray:7.0,7.0;"/><polygon fill="#A80036" points="292.31,252.95,290.6074,243.2494,289.52,248.8008,283.9687,247.7134,292.31,252.95" style="stroke:#A80036;stroke-width:1.0;"/><!--MD5=[ce79748d443f739b1b79d56680b7fe67]
link PositionBST to ShipPosition--><path codeLine="63" d="M83.5,794.73 C83.5,816.82 83.5,844.4 83.5,870.73 " fill="none" id="PositionBST-to-ShipPosition" style="stroke:#A80036;stroke-width:1.0;stroke-dasharray:7.0,7.0;"/><polygon fill="#A80036" points="83.5,875.98,87.5,866.98,83.5,870.98,79.5,866.98,83.5,875.98" style="stroke:#A80036;stroke-width:1.0;"/><!--MD5=[37a14a5de6d6fd738aee271300f4b5c8]
link Company to Ship--><path codeLine="64" d="M341.18,315.04 C349.04,324.21 357.14,334.62 363.5,345 C375.57,364.71 378.97,370.34 383.5,393 C389.07,420.85 394.55,537.92 382.5,606 C378.18,630.4 370.13,656.16 361.67,678.96 " fill="none" id="Company-to-Ship" style="stroke:#A80036;stroke-width:1.0;stroke-dasharray:7.0,7.0;"/><polygon fill="#A80036" points="359.86,683.78,366.7654,676.7575,361.6156,679.0984,359.2748,673.9485,359.86,683.78" style="stroke:#A80036;stroke-width:1.0;"/><!--MD5=[e18dbd49a52e60917b88bf3b4a72eceb]
link ShipsBST to BST--><path codeLine="65" d="M222.5,606.2 C222.5,636.13 222.5,675.49 222.5,705.22 " fill="none" id="ShipsBST-to-BST" style="stroke:#A80036;stroke-width:1.0;"/><polygon fill="none" points="229.5,705.33,222.5,725.33,215.5,705.33,229.5,705.33" style="stroke:#A80036;stroke-width:1.0;"/><!--MD5=[0875f90da57089d15aafa709771c987a]
link PositionBST to BST--><path codeLine="66" d="M160.06,749.5 C164.93,749.5 169.8,749.5 174.67,749.5 " fill="none" id="PositionBST-to-BST" style="stroke:#A80036;stroke-width:1.0;"/><polygon fill="none" points="174.69,742.5,194.69,749.5,174.69,756.5,174.69,742.5" style="stroke:#A80036;stroke-width:1.0;"/><!--MD5=[dbb88a795cf776047787c6c8a2451867]
@startuml

skinparam classAttributeIconSize 0


class Ship {
    -mmmsiCode
    -shipName
    -imoCode
    -callSignId
    -currentCapacity /'added by us'/
    -draft
}

class ShipPosition {
    -baseDateTime
    -latitude
    -longitude
    -sog
    -cog
    -heading
    -position
    -transceiver
    -getSOG()
}

class ShipStore {
    -getShipsBstMmsi()
}


class TopNUI {}

class TopNController {
    -getShipByBaseDateTime(initialBaseDate, finalBaseDate)
    -getShipWithMean(sortedShips)
}

class ShipsBST{
    -getShipByBaseDateTime(initialBaseDate, finalBaseDate)
    -sortNShips(shipList)
    -getShipWithMean(sortedShips, N)
}

class PositionBST{
    -getShipBaseDateTime(code)
    -getMeanSOG()
    -getTotalDistance()
}
class Company {
    -getShipStore()
}

class BST{}

Company "1" - - "1" ShipStore : uses >
ShipStore ..> ShipsBST
ShipsBST ..> PositionBST
ShipsBST "1" - - "1..*" Ship : owns >
TopNUI ..> TopNController
TopNController ..> ShipsBST
TopNController ..> Company
ShipsBST ..> Ship
PositionBST ..> ShipPosition
Company ..> Ship
ShipsBST -|> BST
PositionBST -|> BST


@enduml

@startuml

skinparam classAttributeIconSize 0


class Ship {
    -mmmsiCode
    -shipName
    -imoCode
    -callSignId
    -currentCapacity 
    -draft
}

class ShipPosition {
    -baseDateTime
    -latitude
    -longitude
    -sog
    -cog
    -heading
    -position
    -transceiver
    -getSOG()
}

class ShipStore {
    -getShipsBstMmsi()
}


class TopNUI {}

class TopNController {
    -getShipByBaseDateTime(initialBaseDate, finalBaseDate)
    -getShipWithMean(sortedShips)
}

class ShipsBST{
    -getShipByBaseDateTime(initialBaseDate, finalBaseDate)
    -sortNShips(shipList)
    -getShipWithMean(sortedShips, N)
}

class PositionBST{
    -getShipBaseDateTime(code)
    -getMeanSOG()
    -getTotalDistance()
}
class Company {
    -getShipStore()
}

class BST{}

Company "1" - - "1" ShipStore : uses >
ShipStore ..> ShipsBST
ShipsBST ..> PositionBST
ShipsBST "1" - - "1..*" Ship : owns >
TopNUI ..> TopNController
TopNController ..> ShipsBST
TopNController ..> Company
ShipsBST ..> Ship
PositionBST ..> ShipPosition
Company ..> Ship
ShipsBST -|> BST
PositionBST -|> BST


@enduml

PlantUML version 1.2021.11(Sat Oct 02 14:26:11 BST 2021)
(GPL source distribution)
Java Runtime: OpenJDK Runtime Environment
JVM: OpenJDK 64-Bit Server VM
Default Encoding: Cp1252
Language: pt
Country: PT
--></g></svg>