<?xml version="1.0" encoding="UTF-8" standalone="no"?><svg xmlns="http://www.w3.org/2000/svg" xmlns:xlink="http://www.w3.org/1999/xlink" contentScriptType="application/ecmascript" contentStyleType="text/css" height="407px" preserveAspectRatio="none" style="width:560px;height:407px;background:#FFFFFF;" version="1.1" viewBox="0 0 560 407" width="560px" zoomAndPan="magnify"><defs><filter height="300%" id="fnqbb0a0udvdr" width="300%" x="-1" y="-1"><feGaussianBlur result="blurOut" stdDeviation="2.0"/><feColorMatrix in="blurOut" result="blurOut2" type="matrix" values="0 0 0 0 0 0 0 0 0 0 0 0 0 0 0 0 0 0 .4 0"/><feOffset dx="4.0" dy="4.0" in="blurOut2" result="blurOut3"/><feBlend in="SourceGraphic" in2="blurOut3" mode="normal"/></filter></defs><g><rect fill="#FFFFFF" filter="url(#fnqbb0a0udvdr)" height="204.4609" style="stroke:#A80036;stroke-width:1.0;" width="10" x="31.5" y="99.6094"/><rect fill="#FFFFFF" filter="url(#fnqbb0a0udvdr)" height="30.3516" style="stroke:#A80036;stroke-width:1.0;" width="10" x="511.5" y="121.9609"/><rect fill="#FFFFFF" filter="url(#fnqbb0a0udvdr)" height="60.7031" style="stroke:#A80036;stroke-width:1.0;" width="10" x="511.5" y="182.6641"/><rect fill="#FFFFFF" filter="url(#fnqbb0a0udvdr)" height="30.3516" style="stroke:#A80036;stroke-width:1.0;" width="10" x="511.5" y="273.7188"/><line style="stroke:#A80036;stroke-width:1.0;stroke-dasharray:5.0,5.0;" x1="36" x2="36" y1="89.6094" y2="322.0703"/><line style="stroke:#A80036;stroke-width:1.0;stroke-dasharray:5.0,5.0;" x1="516.5" x2="516.5" y1="89.6094" y2="322.0703"/><text fill="#000000" font-family="sans-serif" font-size="14" lengthAdjust="spacing" textLength="57" x="5" y="86.5332">Unknown</text><ellipse cx="36.5" cy="15" fill="#FEFECE" filter="url(#fnqbb0a0udvdr)" rx="8" ry="8" style="stroke:#A80036;stroke-width:2.0;"/><path d="M36.5,23 L36.5,50 M23.5,31 L49.5,31 M36.5,50 L23.5,65 M36.5,50 L49.5,65 " fill="none" filter="url(#fnqbb0a0udvdr)" style="stroke:#A80036;stroke-width:2.0;"/><text fill="#000000" font-family="sans-serif" font-size="14" lengthAdjust="spacing" textLength="57" x="5" y="335.6035">Unknown</text><ellipse cx="36.5" cy="348.6797" fill="#FEFECE" filter="url(#fnqbb0a0udvdr)" rx="8" ry="8" style="stroke:#A80036;stroke-width:2.0;"/><path d="M36.5,356.6797 L36.5,383.6797 M23.5,364.6797 L49.5,364.6797 M36.5,383.6797 L23.5,398.6797 M36.5,383.6797 L49.5,398.6797 " fill="none" filter="url(#fnqbb0a0udvdr)" style="stroke:#A80036;stroke-width:2.0;"/><rect fill="#FEFECE" filter="url(#fnqbb0a0udvdr)" height="31.6094" style="stroke:#A80036;stroke-width:1.5;" width="64" x="482.5" y="53"/><text fill="#000000" font-family="sans-serif" font-size="14" lengthAdjust="spacing" textLength="50" x="489.5" y="74.5332">:System</text><rect fill="#FEFECE" filter="url(#fnqbb0a0udvdr)" height="31.6094" style="stroke:#A80036;stroke-width:1.5;" width="64" x="482.5" y="321.0703"/><text fill="#000000" font-family="sans-serif" font-size="14" lengthAdjust="spacing" textLength="50" x="489.5" y="342.6035">:System</text><rect fill="#FFFFFF" filter="url(#fnqbb0a0udvdr)" height="204.4609" style="stroke:#A80036;stroke-width:1.0;" width="10" x="31.5" y="99.6094"/><rect fill="#FFFFFF" filter="url(#fnqbb0a0udvdr)" height="30.3516" style="stroke:#A80036;stroke-width:1.0;" width="10" x="511.5" y="121.9609"/><rect fill="#FFFFFF" filter="url(#fnqbb0a0udvdr)" height="60.7031" style="stroke:#A80036;stroke-width:1.0;" width="10" x="511.5" y="182.6641"/><rect fill="#FFFFFF" filter="url(#fnqbb0a0udvdr)" height="30.3516" style="stroke:#A80036;stroke-width:1.0;" width="10" x="511.5" y="273.7188"/><polygon fill="#A80036" points="499.5,117.9609,509.5,121.9609,499.5,125.9609,503.5,121.9609" style="stroke:#A80036;stroke-width:1.0;"/><line style="stroke:#A80036;stroke-width:1.0;" x1="41.5" x2="505.5" y1="121.9609" y2="121.9609"/><text fill="#000000" font-family="sans-serif" font-size="13" font-weight="bold" lengthAdjust="spacing" textLength="7" x="48.5" y="117.1045">1</text><text fill="#000000" font-family="sans-serif" font-size="13" lengthAdjust="spacing" textLength="434" x="59.5" y="117.1045">asks to see the top-N ships with the most km travelled and their meanSOG</text><polygon fill="#A80036" points="52.5,148.3125,42.5,152.3125,52.5,156.3125,48.5,152.3125" style="stroke:#A80036;stroke-width:1.0;"/><line style="stroke:#A80036;stroke-width:1.0;stroke-dasharray:2.0,2.0;" x1="46.5" x2="515.5" y1="152.3125" y2="152.3125"/><text fill="#000000" font-family="sans-serif" font-size="13" font-weight="bold" lengthAdjust="spacing" textLength="7" x="58.5" y="147.4561">2</text><text fill="#000000" font-family="sans-serif" font-size="13" lengthAdjust="spacing" textLength="233" x="69.5" y="147.4561">requests initial and final Base Date Time</text><polygon fill="#A80036" points="499.5,178.6641,509.5,182.6641,499.5,186.6641,503.5,182.6641" style="stroke:#A80036;stroke-width:1.0;"/><line style="stroke:#A80036;stroke-width:1.0;" x1="41.5" x2="505.5" y1="182.6641" y2="182.6641"/><text fill="#000000" font-family="sans-serif" font-size="13" font-weight="bold" lengthAdjust="spacing" textLength="7" x="48.5" y="177.8076">3</text><text fill="#000000" font-family="sans-serif" font-size="13" lengthAdjust="spacing" textLength="122" x="59.5" y="177.8076">types requested data</text><polygon fill="#A80036" points="52.5,209.0156,42.5,213.0156,52.5,217.0156,48.5,213.0156" style="stroke:#A80036;stroke-width:1.0;"/><line style="stroke:#A80036;stroke-width:1.0;stroke-dasharray:2.0,2.0;" x1="46.5" x2="510.5" y1="213.0156" y2="213.0156"/><text fill="#000000" font-family="sans-serif" font-size="13" font-weight="bold" lengthAdjust="spacing" textLength="7" x="58.5" y="208.1592">4</text><text fill="#000000" font-family="sans-serif" font-size="13" lengthAdjust="spacing" textLength="295" x="69.5" y="208.1592">returns ships within initial and final Base Date Time</text><polygon fill="#A80036" points="52.5,239.3672,42.5,243.3672,52.5,247.3672,48.5,243.3672" style="stroke:#A80036;stroke-width:1.0;"/><line style="stroke:#A80036;stroke-width:1.0;stroke-dasharray:2.0,2.0;" x1="46.5" x2="515.5" y1="243.3672" y2="243.3672"/><text fill="#000000" font-family="sans-serif" font-size="13" font-weight="bold" lengthAdjust="spacing" textLength="7" x="58.5" y="238.5107">5</text><text fill="#000000" font-family="sans-serif" font-size="13" lengthAdjust="spacing" textLength="171" x="69.5" y="238.5107">requests N ships to be sorted</text><polygon fill="#A80036" points="499.5,269.7188,509.5,273.7188,499.5,277.7188,503.5,273.7188" style="stroke:#A80036;stroke-width:1.0;"/><line style="stroke:#A80036;stroke-width:1.0;" x1="41.5" x2="505.5" y1="273.7188" y2="273.7188"/><text fill="#000000" font-family="sans-serif" font-size="13" font-weight="bold" lengthAdjust="spacing" textLength="7" x="48.5" y="268.8623">6</text><text fill="#000000" font-family="sans-serif" font-size="13" lengthAdjust="spacing" textLength="129" x="59.5" y="268.8623">inserts requested data</text><polygon fill="#A80036" points="47.5,300.0703,37.5,304.0703,47.5,308.0703,43.5,304.0703" style="stroke:#A80036;stroke-width:1.0;"/><line style="stroke:#A80036;stroke-width:1.0;stroke-dasharray:2.0,2.0;" x1="41.5" x2="515.5" y1="304.0703" y2="304.0703"/><text fill="#000000" font-family="sans-serif" font-size="13" font-weight="bold" lengthAdjust="spacing" textLength="7" x="53.5" y="299.2139">7</text><text fill="#000000" font-family="sans-serif" font-size="13" lengthAdjust="spacing" textLength="435" x="64.5" y="299.2139">returns sorted ships with the most km travelled and their meanSOG in a list</text><!--MD5=[fbb570400cf80385801dba2a31ec340a]
@startuml
autonumber
actor "Unknown" as OE

activate OE
OE -> ":System" : asks to see the top-N ships with the most km travelled and their meanSOG
activate ":System"
":System" - -> OE : requests initial and final Base Date Time
deactivate ":System"

OE -> ":System" : types requested data
activate ":System"

":System" - -> OE : returns ships within initial and final Base Date Time

":System" - -> OE : requests N ships to be sorted
deactivate ":System"


OE -> ":System" : inserts requested data
activate ":System"

":System" - -> OE : returns sorted ships with the most km travelled and their meanSOG in a list
deactivate ":System"
deactivate OE

@enduml

PlantUML version 1.2021.11(Sat Oct 02 14:26:11 BST 2021)
(GPL source distribution)
Java Runtime: OpenJDK Runtime Environment
JVM: OpenJDK 64-Bit Server VM
Default Encoding: Cp1252
Language: pt
Country: PT
--></g></svg>