<?xml version="1.0" encoding="UTF-8" standalone="no"?><svg xmlns="http://www.w3.org/2000/svg" xmlns:xlink="http://www.w3.org/1999/xlink" contentScriptType="application/ecmascript" contentStyleType="text/css" height="706px" preserveAspectRatio="none" style="width:204px;height:706px;background:#FFFFFF;" version="1.1" viewBox="0 0 204 706" width="204px" zoomAndPan="magnify"><defs><filter height="300%" id="filplrhowsh12" width="300%" x="-1" y="-1"><feGaussianBlur result="blurOut" stdDeviation="2.0"/><feColorMatrix in="blurOut" result="blurOut2" type="matrix" values="0 0 0 0 0 0 0 0 0 0 0 0 0 0 0 0 0 0 .4 0"/><feOffset dx="4.0" dy="4.0" in="blurOut2" result="blurOut3"/><feBlend in="SourceGraphic" in2="blurOut3" mode="normal"/></filter></defs><g><!--MD5=[ed6624c6556d5e7b1bd23032162d20b7]
class Client--><rect codeLine="6" fill="#FEFECE" filter="url(#filplrhowsh12)" height="32" id="Client" style="stroke:#A80036;stroke-width:1.5;" width="64" x="7" y="73.5"/><ellipse cx="22" cy="89.5" fill="#ADD1B2" rx="11" ry="11" style="stroke:#A80036;stroke-width:1.0;"/><path d="M24,86 Q24.2031,85.5 24.4375,85.25 Q24.6719,85 24.9375,85 Q25.4063,85 25.7031,85.2813 Q26,85.5625 26,86.2188 L26,87.7813 Q26,88.4375 25.7188,88.7188 Q25.4375,89 25,89 Q24.6094,89 24.3594,88.8281 Q24.1094,88.6563 24,88.2031 Q23.9531,87.8906 23.7813,87.7188 Q23.4688,87.3906 22.9063,87.2031 Q22.3438,87 21.7813,87 Q21.0781,87 20.4844,87.2813 Q19.9063,87.5625 19.4531,88.1875 Q19,88.8125 19,89.6719 L19,90.5938 Q19,91.625 19.8438,92.3125 Q20.6875,93 22.1875,93 Q23.0781,93 23.7031,92.7969 Q24.0625,92.6875 24.4688,92.3281 Q24.7344,92.125 24.875,92.0625 Q25.0156,92 25.1875,92 Q25.5156,92 25.75,92.2656 Q26,92.5156 26,92.875 Q26,93.2188 25.6563,93.625 Q25.1563,94.2188 24.3594,94.5469 Q23.3125,95 22.0313,95 Q20.5313,95 19.3281,94.4063 Q18.3594,93.9375 17.6719,92.9219 Q17,91.9063 17,90.7031 L17,89.6094 Q17,88.3594 17.5938,87.2656 Q18.2031,86.1719 19.25,85.5938 Q20.3125,85 21.5,85 Q22.2188,85 22.8438,85.25 Q23.4688,85.5 24,86 Z " fill="#000000"/><text fill="#000000" font-family="sans-serif" font-size="12" lengthAdjust="spacing" textLength="32" x="36" y="94.4102">Client</text><!--MD5=[e9a58730c562b34349daa605d1ed6662]
class Container--><rect codeLine="8" fill="#FEFECE" filter="url(#filplrhowsh12)" height="109.1797" id="Container" style="stroke:#A80036;stroke-width:1.5;" width="86" x="49" y="250"/><ellipse cx="64" cy="266" fill="#ADD1B2" rx="11" ry="11" style="stroke:#A80036;stroke-width:1.0;"/><path d="M66,262.5 Q66.2031,262 66.4375,261.75 Q66.6719,261.5 66.9375,261.5 Q67.4063,261.5 67.7031,261.7813 Q68,262.0625 68,262.7188 L68,264.2813 Q68,264.9375 67.7188,265.2188 Q67.4375,265.5 67,265.5 Q66.6094,265.5 66.3594,265.3281 Q66.1094,265.1563 66,264.7031 Q65.9531,264.3906 65.7813,264.2188 Q65.4688,263.8906 64.9063,263.7031 Q64.3438,263.5 63.7813,263.5 Q63.0781,263.5 62.4844,263.7813 Q61.9063,264.0625 61.4531,264.6875 Q61,265.3125 61,266.1719 L61,267.0938 Q61,268.125 61.8438,268.8125 Q62.6875,269.5 64.1875,269.5 Q65.0781,269.5 65.7031,269.2969 Q66.0625,269.1875 66.4688,268.8281 Q66.7344,268.625 66.875,268.5625 Q67.0156,268.5 67.1875,268.5 Q67.5156,268.5 67.75,268.7656 Q68,269.0156 68,269.375 Q68,269.7188 67.6563,270.125 Q67.1563,270.7188 66.3594,271.0469 Q65.3125,271.5 64.0313,271.5 Q62.5313,271.5 61.3281,270.9063 Q60.3594,270.4375 59.6719,269.4219 Q59,268.4063 59,267.2031 L59,266.1094 Q59,264.8594 59.5938,263.7656 Q60.2031,262.6719 61.25,262.0938 Q62.3125,261.5 63.5,261.5 Q64.2188,261.5 64.8438,261.75 Q65.4688,262 66,262.5 Z " fill="#000000"/><text fill="#000000" font-family="sans-serif" font-size="12" lengthAdjust="spacing" textLength="54" x="78" y="270.9102">Container</text><line style="stroke:#A80036;stroke-width:1.5;" x1="50" x2="134" y1="282" y2="282"/><text fill="#000000" font-family="sans-serif" font-size="11" lengthAdjust="spacing" textLength="57" x="55" y="297.4189">-containerId</text><text fill="#000000" font-family="sans-serif" font-size="11" lengthAdjust="spacing" textLength="42" x="55" y="311.2549">-payload</text><text fill="#000000" font-family="sans-serif" font-size="11" lengthAdjust="spacing" textLength="23" x="55" y="325.0908">-tare</text><text fill="#000000" font-family="sans-serif" font-size="11" lengthAdjust="spacing" textLength="32" x="55" y="338.9268">-gross</text><text fill="#000000" font-family="sans-serif" font-size="11" lengthAdjust="spacing" textLength="43" x="55" y="352.7627">-isoCode</text><!--MD5=[76562047389981627aea27c31a97aff5]
class CargoManifest--><rect codeLine="16" fill="#FEFECE" filter="url(#filplrhowsh12)" height="53.8359" id="CargoManifest" style="stroke:#A80036;stroke-width:1.5;" width="112" x="36" y="437"/><ellipse cx="51" cy="453" fill="#ADD1B2" rx="11" ry="11" style="stroke:#A80036;stroke-width:1.0;"/><path d="M53,449.5 Q53.2031,449 53.4375,448.75 Q53.6719,448.5 53.9375,448.5 Q54.4063,448.5 54.7031,448.7813 Q55,449.0625 55,449.7188 L55,451.2813 Q55,451.9375 54.7188,452.2188 Q54.4375,452.5 54,452.5 Q53.6094,452.5 53.3594,452.3281 Q53.1094,452.1563 53,451.7031 Q52.9531,451.3906 52.7813,451.2188 Q52.4688,450.8906 51.9063,450.7031 Q51.3438,450.5 50.7813,450.5 Q50.0781,450.5 49.4844,450.7813 Q48.9063,451.0625 48.4531,451.6875 Q48,452.3125 48,453.1719 L48,454.0938 Q48,455.125 48.8438,455.8125 Q49.6875,456.5 51.1875,456.5 Q52.0781,456.5 52.7031,456.2969 Q53.0625,456.1875 53.4688,455.8281 Q53.7344,455.625 53.875,455.5625 Q54.0156,455.5 54.1875,455.5 Q54.5156,455.5 54.75,455.7656 Q55,456.0156 55,456.375 Q55,456.7188 54.6563,457.125 Q54.1563,457.7188 53.3594,458.0469 Q52.3125,458.5 51.0313,458.5 Q49.5313,458.5 48.3281,457.9063 Q47.3594,457.4375 46.6719,456.4219 Q46,455.4063 46,454.2031 L46,453.1094 Q46,451.8594 46.5938,450.7656 Q47.2031,449.6719 48.25,449.0938 Q49.3125,448.5 50.5,448.5 Q51.2188,448.5 51.8438,448.75 Q52.4688,449 53,449.5 Z " fill="#000000"/><text fill="#000000" font-family="sans-serif" font-size="12" lengthAdjust="spacing" textLength="80" x="65" y="457.9102">CargoManifest</text><line style="stroke:#A80036;stroke-width:1.5;" x1="37" x2="147" y1="469" y2="469"/><text fill="#000000" font-family="sans-serif" font-size="11" lengthAdjust="spacing" textLength="81" x="42" y="484.4189">-cargoManifestId</text><!--MD5=[0dc7f2ddb409b58bcf52b12238c25399]
class Ship--><rect codeLine="20" fill="#FEFECE" filter="url(#filplrhowsh12)" height="164.5234" id="Ship" style="stroke:#A80036;stroke-width:1.5;" width="80" x="106" y="7"/><ellipse cx="131.35" cy="23" fill="#ADD1B2" rx="11" ry="11" style="stroke:#A80036;stroke-width:1.0;"/><path d="M133.35,19.5 Q133.5531,19 133.7875,18.75 Q134.0219,18.5 134.2875,18.5 Q134.7563,18.5 135.0531,18.7813 Q135.35,19.0625 135.35,19.7188 L135.35,21.2813 Q135.35,21.9375 135.0688,22.2188 Q134.7875,22.5 134.35,22.5 Q133.9594,22.5 133.7094,22.3281 Q133.4594,22.1563 133.35,21.7031 Q133.3031,21.3906 133.1313,21.2188 Q132.8188,20.8906 132.2563,20.7031 Q131.6938,20.5 131.1313,20.5 Q130.4281,20.5 129.8344,20.7813 Q129.2563,21.0625 128.8031,21.6875 Q128.35,22.3125 128.35,23.1719 L128.35,24.0938 Q128.35,25.125 129.1938,25.8125 Q130.0375,26.5 131.5375,26.5 Q132.4281,26.5 133.0531,26.2969 Q133.4125,26.1875 133.8188,25.8281 Q134.0844,25.625 134.225,25.5625 Q134.3656,25.5 134.5375,25.5 Q134.8656,25.5 135.1,25.7656 Q135.35,26.0156 135.35,26.375 Q135.35,26.7188 135.0063,27.125 Q134.5063,27.7188 133.7094,28.0469 Q132.6625,28.5 131.3813,28.5 Q129.8813,28.5 128.6781,27.9063 Q127.7094,27.4375 127.0219,26.4219 Q126.35,25.4063 126.35,24.2031 L126.35,23.1094 Q126.35,21.8594 126.9438,20.7656 Q127.5531,19.6719 128.6,19.0938 Q129.6625,18.5 130.85,18.5 Q131.5688,18.5 132.1938,18.75 Q132.8188,19 133.35,19.5 Z " fill="#000000"/><text fill="#000000" font-family="sans-serif" font-size="12" lengthAdjust="spacing" textLength="25" x="147.65" y="27.9102">Ship</text><line style="stroke:#A80036;stroke-width:1.5;" x1="107" x2="185" y1="39" y2="39"/><text fill="#000000" font-family="sans-serif" font-size="11" lengthAdjust="spacing" textLength="53" x="112" y="54.4189">-mmsiCode</text><text fill="#000000" font-family="sans-serif" font-size="11" lengthAdjust="spacing" textLength="51" x="112" y="68.2549">-shipName</text><text fill="#000000" font-family="sans-serif" font-size="11" lengthAdjust="spacing" textLength="45" x="112" y="82.0908">-imoCode</text><text fill="#000000" font-family="sans-serif" font-size="11" lengthAdjust="spacing" textLength="68" x="112" y="95.9268">-vesselTypeId</text><text fill="#000000" font-family="sans-serif" font-size="11" lengthAdjust="spacing" textLength="49" x="112" y="109.7627">-callSignId</text><text fill="#000000" font-family="sans-serif" font-size="11" lengthAdjust="spacing" textLength="32" x="112" y="123.5986">-cargo</text><text fill="#000000" font-family="sans-serif" font-size="11" lengthAdjust="spacing" textLength="27" x="112" y="137.4346">-draft</text><text fill="#000000" font-family="sans-serif" font-size="11" lengthAdjust="spacing" textLength="33" x="112" y="151.2705">-length</text><text fill="#000000" font-family="sans-serif" font-size="11" lengthAdjust="spacing" textLength="31" x="112" y="165.1064">-width</text><!--MD5=[a0bfe97ac0a38e6e74cc1c7c7b744b71]
class Port--><rect codeLine="32" fill="#FEFECE" filter="url(#filplrhowsh12)" height="123.0156" id="Port" style="stroke:#A80036;stroke-width:1.5;" width="76" x="54" y="569"/><ellipse cx="78.9" cy="585" fill="#ADD1B2" rx="11" ry="11" style="stroke:#A80036;stroke-width:1.0;"/><path d="M80.9,581.5 Q81.1031,581 81.3375,580.75 Q81.5719,580.5 81.8375,580.5 Q82.3063,580.5 82.6031,580.7813 Q82.9,581.0625 82.9,581.7188 L82.9,583.2813 Q82.9,583.9375 82.6188,584.2188 Q82.3375,584.5 81.9,584.5 Q81.5094,584.5 81.2594,584.3281 Q81.0094,584.1563 80.9,583.7031 Q80.8531,583.3906 80.6813,583.2188 Q80.3688,582.8906 79.8063,582.7031 Q79.2438,582.5 78.6813,582.5 Q77.9781,582.5 77.3844,582.7813 Q76.8063,583.0625 76.3531,583.6875 Q75.9,584.3125 75.9,585.1719 L75.9,586.0938 Q75.9,587.125 76.7438,587.8125 Q77.5875,588.5 79.0875,588.5 Q79.9781,588.5 80.6031,588.2969 Q80.9625,588.1875 81.3688,587.8281 Q81.6344,587.625 81.775,587.5625 Q81.9156,587.5 82.0875,587.5 Q82.4156,587.5 82.65,587.7656 Q82.9,588.0156 82.9,588.375 Q82.9,588.7188 82.5563,589.125 Q82.0563,589.7188 81.2594,590.0469 Q80.2125,590.5 78.9313,590.5 Q77.4313,590.5 76.2281,589.9063 Q75.2594,589.4375 74.5719,588.4219 Q73.9,587.4063 73.9,586.2031 L73.9,585.1094 Q73.9,583.8594 74.4938,582.7656 Q75.1031,581.6719 76.15,581.0938 Q77.2125,580.5 78.4,580.5 Q79.1188,580.5 79.7438,580.75 Q80.3688,581 80.9,581.5 Z " fill="#000000"/><text fill="#000000" font-family="sans-serif" font-size="12" lengthAdjust="spacing" textLength="22" x="95.1" y="589.9102">Port</text><line style="stroke:#A80036;stroke-width:1.5;" x1="55" x2="129" y1="601" y2="601"/><text fill="#000000" font-family="sans-serif" font-size="11" lengthAdjust="spacing" textLength="64" x="60" y="616.4189">-identification</text><text fill="#000000" font-family="sans-serif" font-size="11" lengthAdjust="spacing" textLength="30" x="60" y="630.2549">-name</text><text fill="#000000" font-family="sans-serif" font-size="11" lengthAdjust="spacing" textLength="48" x="60" y="644.0908">-continent</text><text fill="#000000" font-family="sans-serif" font-size="11" lengthAdjust="spacing" textLength="41" x="60" y="657.9268">-country</text><text fill="#000000" font-family="sans-serif" font-size="11" lengthAdjust="spacing" textLength="15" x="60" y="671.7627">-lat</text><text fill="#000000" font-family="sans-serif" font-size="11" lengthAdjust="spacing" textLength="18" x="60" y="685.5986">-lon</text><!--MD5=[f500e957add76349bf6e8f151138488d]
link Client to Container--><path codeLine="41" d="M39.82,105.51 C41.44,129.91 45.9,179.5 57,220 C59.7,229.85 63.29,240.09 67.13,249.87 " fill="none" id="Client-Container" style="stroke:#A80036;stroke-width:1.0;"/><polygon fill="#000000" points="62.9294,216.0886,64.1358,206.6549,58.3604,207.7475,62.9294,216.0886" style="stroke:#000000;stroke-width:1.0;"/><text fill="#000000" font-family="sans-serif" font-size="13" lengthAdjust="spacing" textLength="31" x="71" y="216.4951">ships</text><text fill="#000000" font-family="sans-serif" font-size="13" lengthAdjust="spacing" textLength="7" x="31.9323" y="127.0167">1</text><text fill="#000000" font-family="sans-serif" font-size="13" lengthAdjust="spacing" textLength="20" x="42.4443" y="238.9608">1..*</text><!--MD5=[f0bdc6c669370d32d41c923ef98b5140]
link Container to CargoManifest--><path codeLine="42" d="M92,359.26 C92,385.46 92,415.78 92,436.84 " fill="none" id="Container-CargoManifest" style="stroke:#A80036;stroke-width:1.0;"/><polygon fill="#000000" points="97,403.1758,99.9389,394.1307,94.0611,394.1307,97,403.1758" style="stroke:#000000;stroke-width:1.0;"/><text fill="#000000" font-family="sans-serif" font-size="13" lengthAdjust="spacing" textLength="90" x="106" y="403.4951">associated with</text><text fill="#000000" font-family="sans-serif" font-size="13" lengthAdjust="spacing" textLength="20" x="70.7188" y="380.8073">1..*</text><text fill="#000000" font-family="sans-serif" font-size="13" lengthAdjust="spacing" textLength="20" x="69.6875" y="426.264">2..*</text><!--MD5=[ba54223a31981c52d18c1dd571f5520c]
link Ship to Container--><path codeLine="43" d="M125.28,172.24 C118.67,198.29 111.54,226.42 105.58,249.94 " fill="none" id="Ship-Container" style="stroke:#A80036;stroke-width:1.0;"/><polygon fill="#000000" points="120.7712,216.0224,125.8429,207.977,120.1453,206.5325,120.7712,216.0224" style="stroke:#000000;stroke-width:1.0;"/><text fill="#000000" font-family="sans-serif" font-size="13" lengthAdjust="spacing" textLength="58" x="131" y="216.4951">transports</text><text fill="#000000" font-family="sans-serif" font-size="13" lengthAdjust="spacing" textLength="7" x="116.35" y="192.999">1</text><text fill="#000000" font-family="sans-serif" font-size="13" lengthAdjust="spacing" textLength="20" x="86.0611" y="239.0402">1..*</text><!--MD5=[47296211a5450e6030aae792427ae68d]
link CargoManifest to Port--><path codeLine="44" d="M92,491.07 C92,511.9 92,541.95 92,568.74 " fill="none" id="CargoManifest-Port" style="stroke:#A80036;stroke-width:1.0;"/><polygon fill="#000000" points="97,535.1758,99.9389,526.1307,94.0611,526.1307,97,535.1758" style="stroke:#000000;stroke-width:1.0;"/><text fill="#000000" font-family="sans-serif" font-size="13" lengthAdjust="spacing" textLength="65" x="106" y="535.4951">delivered at</text><!--MD5=[a484d53b05683b702089d61c7c9a5964]
@startuml

skinparam classAttributeIconSize 0
hide empty methods
hide empty attributes

class Client {}

class Container {
   -containerId
   -payload
   -tare
   -gross
   -isoCode
}

class CargoManifest {
    -cargoManifestId
}

class Ship {
    -mmsiCode
    -shipName
    -imoCode
    -vesselTypeId
    -callSignId
    -cargo
    -draft
    -length
    -width
}

class Port {
    -identification
    -name
    -continent
    -country
    -lat
    -lon
}

Client "1" - - "1..*" Container : ships >
Container "1..*"- - "2..*" CargoManifest : associated with >
Ship "1" - - "1..*" Container : transports >
CargoManifest - - Port : delivered at >

@enduml

PlantUML version 1.2021.11(Sat Oct 02 14:26:11 BST 2021)
(GPL source distribution)
Java Runtime: OpenJDK Runtime Environment
JVM: OpenJDK 64-Bit Server VM
Default Encoding: Cp1252
Language: pt
Country: PT
--></g></svg>