<?xml version="1.0" encoding="UTF-8" standalone="no"?><svg xmlns="http://www.w3.org/2000/svg" xmlns:xlink="http://www.w3.org/1999/xlink" contentScriptType="application/ecmascript" contentStyleType="text/css" height="273.6px" preserveAspectRatio="none" style="width:56px;height:273px;background:#FFFFFF;" version="1.1" viewBox="0 0 56 273" width="56.4px" zoomAndPan="magnify"><defs><filter height="300%" id="fz4gqgbvci7ud" width="300%" x="-1" y="-1"><feGaussianBlur result="blurOut" stdDeviation="0.8000000000000002"/><feColorMatrix in="blurOut" result="blurOut2" type="matrix" values="0 0 0 0 0 0 0 0 0 0 0 0 0 0 0 0 0 0 .4 0"/><feOffset dx="1.6000000000000003" dy="1.6000000000000003" in="blurOut2" result="blurOut3"/><feBlend in="SourceGraphic" in2="blurOut3" mode="normal"/></filter></defs><g><!--MD5=[019a73386217e12d5bb8e34bf0b46b9e]
class FleetManager--><rect codeLine="6" fill="#FEFECE" filter="url(#fz4gqgbvci7ud)" height="12.8" id="FleetManager" style="stroke:#A80036;stroke-width:0.6000000000000001;" width="42.8" x="5.4" y="2.8"/><ellipse cx="11.4" cy="9.2" fill="#ADD1B2" rx="4.4" ry="4.4" style="stroke:#A80036;stroke-width:0.4000000000000001;"/><path d="M12.2,7.8 Q12.2813,7.6 12.375,7.5 Q12.4688,7.4 12.575,7.4 Q12.7625,7.4 12.8813,7.5125 Q13,7.625 13,7.8875 L13,8.5125 Q13,8.775 12.8875,8.8875 Q12.775,9 12.6,9 Q12.4438,9 12.3438,8.9313 Q12.2438,8.8625 12.2,8.6813 Q12.1813,8.5563 12.1125,8.4875 Q11.9875,8.3563 11.7625,8.2813 Q11.5375,8.2 11.3125,8.2 Q11.0313,8.2 10.7938,8.3125 Q10.5625,8.425 10.3813,8.675 Q10.2,8.925 10.2,9.2688 L10.2,9.6375 Q10.2,10.05 10.5375,10.325 Q10.875,10.6 11.475,10.6 Q11.8313,10.6 12.0813,10.5188 Q12.225,10.475 12.3875,10.3313 Q12.4938,10.25 12.55,10.225 Q12.6063,10.2 12.675,10.2 Q12.8063,10.2 12.9,10.3063 Q13,10.4063 13,10.55 Q13,10.6875 12.8625,10.85 Q12.6625,11.0875 12.3438,11.2188 Q11.925,11.4 11.4125,11.4 Q10.8125,11.4 10.3313,11.1625 Q9.9438,10.975 9.6688,10.5688 Q9.4,10.1625 9.4,9.6813 L9.4,9.2438 Q9.4,8.7438 9.6375,8.3063 Q9.8813,7.8688 10.3,7.6375 Q10.725,7.4 11.2,7.4 Q11.4875,7.4 11.7375,7.5 Q11.9875,7.6 12.2,7.8 Z " fill="#000000"/><text fill="#000000" font-family="sans-serif" font-size="4.8" lengthAdjust="spacing" textLength="30" x="17" y="11.1641">FleetManager</text><!--MD5=[0dc7f2ddb409b58bcf52b12238c25399]
class Ship--><rect codeLine="8" fill="#FEFECE" filter="url(#fz4gqgbvci7ud)" height="65.8094" id="Ship" style="stroke:#A80036;stroke-width:0.6000000000000001;" width="32" x="10.8" y="46.8"/><ellipse cx="20.94" cy="53.2" fill="#ADD1B2" rx="4.4" ry="4.4" style="stroke:#A80036;stroke-width:0.4000000000000001;"/><path d="M21.74,51.8 Q21.8213,51.6 21.915,51.5 Q22.0088,51.4 22.115,51.4 Q22.3025,51.4 22.4213,51.5125 Q22.54,51.625 22.54,51.8875 L22.54,52.5125 Q22.54,52.775 22.4275,52.8875 Q22.315,53 22.14,53 Q21.9838,53 21.8838,52.9313 Q21.7838,52.8625 21.74,52.6813 Q21.7213,52.5563 21.6525,52.4875 Q21.5275,52.3563 21.3025,52.2813 Q21.0775,52.2 20.8525,52.2 Q20.5713,52.2 20.3338,52.3125 Q20.1025,52.425 19.9213,52.675 Q19.74,52.925 19.74,53.2688 L19.74,53.6375 Q19.74,54.05 20.0775,54.325 Q20.415,54.6 21.015,54.6 Q21.3713,54.6 21.6213,54.5188 Q21.765,54.475 21.9275,54.3313 Q22.0338,54.25 22.09,54.225 Q22.1463,54.2 22.215,54.2 Q22.3463,54.2 22.44,54.3063 Q22.54,54.4063 22.54,54.55 Q22.54,54.6875 22.4025,54.85 Q22.2025,55.0875 21.8838,55.2188 Q21.465,55.4 20.9525,55.4 Q20.3525,55.4 19.8713,55.1625 Q19.4838,54.975 19.2088,54.5688 Q18.94,54.1625 18.94,53.6813 L18.94,53.2438 Q18.94,52.7438 19.1775,52.3063 Q19.4213,51.8688 19.84,51.6375 Q20.265,51.4 20.74,51.4 Q21.0275,51.4 21.2775,51.5 Q21.5275,51.6 21.74,51.8 Z " fill="#000000"/><text fill="#000000" font-family="sans-serif" font-size="4.8" lengthAdjust="spacing" textLength="10" x="27.46" y="55.1641">Ship</text><line style="stroke:#A80036;stroke-width:0.6000000000000001;" x1="11.2" x2="42.4" y1="59.6" y2="59.6"/><text fill="#000000" font-family="sans-serif" font-size="4.4" lengthAdjust="spacing" textLength="21.2" x="13.2" y="65.7676">-mmsiCode</text><text fill="#000000" font-family="sans-serif" font-size="4.4" lengthAdjust="spacing" textLength="20.4" x="13.2" y="71.302">-shipName</text><text fill="#000000" font-family="sans-serif" font-size="4.4" lengthAdjust="spacing" textLength="18" x="13.2" y="76.8363">-imoCode</text><text fill="#000000" font-family="sans-serif" font-size="4.4" lengthAdjust="spacing" textLength="27.2" x="13.2" y="82.3707">-vesselTypeId</text><text fill="#000000" font-family="sans-serif" font-size="4.4" lengthAdjust="spacing" textLength="19.6" x="13.2" y="87.9051">-callSignId</text><text fill="#000000" font-family="sans-serif" font-size="4.4" lengthAdjust="spacing" textLength="12.8" x="13.2" y="93.4395">-cargo</text><text fill="#000000" font-family="sans-serif" font-size="4.4" lengthAdjust="spacing" textLength="10.8" x="13.2" y="98.9738">-draft</text><text fill="#000000" font-family="sans-serif" font-size="4.4" lengthAdjust="spacing" textLength="13.2" x="13.2" y="104.5082">-length</text><text fill="#000000" font-family="sans-serif" font-size="4.4" lengthAdjust="spacing" textLength="12.4" x="13.2" y="110.0426">-width</text><!--MD5=[cd383c058592010a1996452fddaad790]
class ShipTrip--><rect codeLine="20" fill="#FEFECE" filter="url(#fz4gqgbvci7ud)" height="71.3438" id="ShipTrip" style="stroke:#A80036;stroke-width:0.6000000000000001;" width="48" x="2.8" y="196.8"/><ellipse cx="16.36" cy="203.2" fill="#ADD1B2" rx="4.4" ry="4.4" style="stroke:#A80036;stroke-width:0.4000000000000001;"/><path d="M17.16,201.8 Q17.2413,201.6 17.335,201.5 Q17.4288,201.4 17.535,201.4 Q17.7225,201.4 17.8413,201.5125 Q17.96,201.625 17.96,201.8875 L17.96,202.5125 Q17.96,202.775 17.8475,202.8875 Q17.735,203 17.56,203 Q17.4038,203 17.3038,202.9313 Q17.2038,202.8625 17.16,202.6813 Q17.1413,202.5563 17.0725,202.4875 Q16.9475,202.3563 16.7225,202.2813 Q16.4975,202.2 16.2725,202.2 Q15.9913,202.2 15.7538,202.3125 Q15.5225,202.425 15.3413,202.675 Q15.16,202.925 15.16,203.2688 L15.16,203.6375 Q15.16,204.05 15.4975,204.325 Q15.835,204.6 16.435,204.6 Q16.7913,204.6 17.0413,204.5188 Q17.185,204.475 17.3475,204.3313 Q17.4538,204.25 17.51,204.225 Q17.5663,204.2 17.635,204.2 Q17.7663,204.2 17.86,204.3063 Q17.96,204.4063 17.96,204.55 Q17.96,204.6875 17.8225,204.85 Q17.6225,205.0875 17.3038,205.2188 Q16.885,205.4 16.3725,205.4 Q15.7725,205.4 15.2913,205.1625 Q14.9038,204.975 14.6288,204.5688 Q14.36,204.1625 14.36,203.6813 L14.36,203.2438 Q14.36,202.7438 14.5975,202.3063 Q14.8413,201.8688 15.26,201.6375 Q15.685,201.4 16.16,201.4 Q16.4475,201.4 16.6975,201.5 Q16.9475,201.6 17.16,201.8 Z " fill="#000000"/><text fill="#000000" font-family="sans-serif" font-size="4.8" lengthAdjust="spacing" textLength="18.4" x="23.64" y="205.1641">ShipTrip</text><line style="stroke:#A80036;stroke-width:0.6000000000000001;" x1="3.2" x2="50.4" y1="209.6" y2="209.6"/><text fill="#000000" font-family="sans-serif" font-size="4.4" lengthAdjust="spacing" textLength="17.2" x="5.2" y="215.7676">-route_id</text><text fill="#000000" font-family="sans-serif" font-size="4.4" lengthAdjust="spacing" textLength="19.2" x="5.2" y="221.302">-shipMmsi</text><text fill="#000000" font-family="sans-serif" font-size="4.4" lengthAdjust="spacing" textLength="43.2" x="5.2" y="226.8363">-departure_location_id</text><text fill="#000000" font-family="sans-serif" font-size="4.4" lengthAdjust="spacing" textLength="36.4" x="5.2" y="232.3707">-arrival_location_id</text><text fill="#000000" font-family="sans-serif" font-size="4.4" lengthAdjust="spacing" textLength="34.4" x="5.2" y="237.9051">-loading_cargo_id</text><text fill="#000000" font-family="sans-serif" font-size="4.4" lengthAdjust="spacing" textLength="39.2" x="5.2" y="243.4395">-unloading_cargo_id</text><text fill="#000000" font-family="sans-serif" font-size="4.4" lengthAdjust="spacing" textLength="39.6" x="5.2" y="248.9738">-est_departure_date</text><text fill="#000000" font-family="sans-serif" font-size="4.4" lengthAdjust="spacing" textLength="32.8" x="5.2" y="254.5082">-est_arrival_date</text><text fill="#000000" font-family="sans-serif" font-size="4.4" lengthAdjust="spacing" textLength="40.8" x="5.2" y="260.0426">-real_departure_date</text><text fill="#000000" font-family="sans-serif" font-size="4.4" lengthAdjust="spacing" textLength="34" x="5.2" y="265.577">-real_arrival_date</text><!--MD5=[fc92a9f5bb5fae84dd7fa4034e6b4444]
class Route--><rect codeLine="34" fill="#FEFECE" filter="url(#fz4gqgbvci7ud)" height="21.5344" id="Route" style="stroke:#A80036;stroke-width:0.6000000000000001;" width="26" x="13.8" y="144"/><ellipse cx="19.8" cy="150.4" fill="#ADD1B2" rx="4.4" ry="4.4" style="stroke:#A80036;stroke-width:0.4000000000000001;"/><path d="M20.6,149 Q20.6813,148.8 20.775,148.7 Q20.8688,148.6 20.975,148.6 Q21.1625,148.6 21.2813,148.7125 Q21.4,148.825 21.4,149.0875 L21.4,149.7125 Q21.4,149.975 21.2875,150.0875 Q21.175,150.2 21,150.2 Q20.8438,150.2 20.7438,150.1313 Q20.6438,150.0625 20.6,149.8813 Q20.5813,149.7563 20.5125,149.6875 Q20.3875,149.5563 20.1625,149.4813 Q19.9375,149.4 19.7125,149.4 Q19.4313,149.4 19.1938,149.5125 Q18.9625,149.625 18.7813,149.875 Q18.6,150.125 18.6,150.4688 L18.6,150.8375 Q18.6,151.25 18.9375,151.525 Q19.275,151.8 19.875,151.8 Q20.2313,151.8 20.4813,151.7188 Q20.625,151.675 20.7875,151.5313 Q20.8938,151.45 20.95,151.425 Q21.0063,151.4 21.075,151.4 Q21.2063,151.4 21.3,151.5063 Q21.4,151.6063 21.4,151.75 Q21.4,151.8875 21.2625,152.05 Q21.0625,152.2875 20.7438,152.4188 Q20.325,152.6 19.8125,152.6 Q19.2125,152.6 18.7313,152.3625 Q18.3438,152.175 18.0688,151.7688 Q17.8,151.3625 17.8,150.8813 L17.8,150.4438 Q17.8,149.9438 18.0375,149.5063 Q18.2813,149.0688 18.7,148.8375 Q19.125,148.6 19.6,148.6 Q19.8875,148.6 20.1375,148.7 Q20.3875,148.8 20.6,149 Z " fill="#000000"/><text fill="#000000" font-family="sans-serif" font-size="4.8" lengthAdjust="spacing" textLength="13.2" x="25.4" y="152.3641">Route</text><line style="stroke:#A80036;stroke-width:0.6000000000000001;" x1="14.2" x2="39.4" y1="156.8" y2="156.8"/><text fill="#000000" font-family="sans-serif" font-size="4.4" lengthAdjust="spacing" textLength="17.2" x="16.2" y="162.9676">-route_id</text><!--MD5=[468ddd4b70c80a28a8ccd89867b6518f]
link FleetManager to Ship--><path codeLine="38" d="M26.8,15.672 C26.8,22.704 26.8,34.84 26.8,46.644 " fill="none" id="FleetManager-Ship" style="stroke:#A80036;stroke-width:0.4000000000000001;"/><polygon fill="#000000" points="28.8,33.2703,29.9756,29.6523,27.6244,29.6523,28.8,33.2703" style="stroke:#000000;stroke-width:0.4000000000000001;"/><text fill="#000000" font-family="sans-serif" font-size="5.2" lengthAdjust="spacing" textLength="18.4" x="32.4" y="33.398">controls</text><text fill="#000000" font-family="sans-serif" font-size="5.2" lengthAdjust="spacing" textLength="2.8" x="23.5538" y="24.1754">1</text><text fill="#000000" font-family="sans-serif" font-size="5.2" lengthAdjust="spacing" textLength="8" x="18.4438" y="42.4188">1..*</text><!--MD5=[bd668f20969913e971975f69d50ab766]
link Ship to Route--><path codeLine="39" d="M26.8,112.852 C26.8,124.052 26.8,135.796 26.8,143.932 " fill="none" id="Ship-Route" style="stroke:#A80036;stroke-width:0.4000000000000001;"/><polygon fill="#000000" points="28.8,130.4703,29.9756,126.8523,27.6244,126.8523,28.8,130.4703" style="stroke:#000000;stroke-width:0.4000000000000001;"/><text fill="#000000" font-family="sans-serif" font-size="5.2" lengthAdjust="spacing" textLength="11.2" x="32.4" y="130.598">does</text><text fill="#000000" font-family="sans-serif" font-size="5.2" lengthAdjust="spacing" textLength="2.8" x="23.8884" y="121.1521">1</text><text fill="#000000" font-family="sans-serif" font-size="5.2" lengthAdjust="spacing" textLength="2" x="24.5688" y="139.7007">*</text><!--MD5=[ded2ff2f2e128334a9175b15f74cae8c]
link Route to ShipTrip--><path codeLine="40" d="M26.8,165.716 C26.8,173.812 26.8,185.488 26.8,196.796 " fill="none" id="Route-ShipTrip" style="stroke:#A80036;stroke-width:0.4000000000000001;"/><polygon fill="#000000" points="28.8,183.2703,29.9756,179.6523,27.6244,179.6523,28.8,183.2703" style="stroke:#000000;stroke-width:0.4000000000000001;"/><text fill="#000000" font-family="sans-serif" font-size="5.2" lengthAdjust="spacing" textLength="19.6" x="32.4" y="183.398">contains</text><text fill="#000000" font-family="sans-serif" font-size="5.2" lengthAdjust="spacing" textLength="2.8" x="23.7113" y="174.0467">1</text><text fill="#000000" font-family="sans-serif" font-size="5.2" lengthAdjust="spacing" textLength="8" x="18.4563" y="192.4592">1..*</text><!--MD5=[0e2b3bf51637c6d78348830e771fc49e]
@startuml

skinparam classAttributeIconSize 0
hide empty methods
hide empty attributes

class FleetManager{}

class Ship {
    -mmsiCode
    -shipName
    -imoCode
    -vesselTypeId
    -callSignId
    -cargo
    -draft
    -length
    -width
}

class ShipTrip{
    -route_id
    -shipMmsi
    /'has attribute phase?'/
    -departure_location_id
    -arrival_location_id
    -loading_cargo_id
    -unloading_cargo_id
    -est_departure_date
    -est_arrival_date
    -real_departure_date
    -real_arrival_date
}

class Route {
    -route_id
}

FleetManager "1" - - "1..*" Ship : controls >
Ship "1" - - "*" Route : does >
Route "1" - - "1..*" ShipTrip : contains >

@enduml

@startuml

skinparam classAttributeIconSize 0
hide empty methods
hide empty attributes

class FleetManager{}

class Ship {
    -mmsiCode
    -shipName
    -imoCode
    -vesselTypeId
    -callSignId
    -cargo
    -draft
    -length
    -width
}

class ShipTrip{
    -route_id
    -shipMmsi
    -departure_location_id
    -arrival_location_id
    -loading_cargo_id
    -unloading_cargo_id
    -est_departure_date
    -est_arrival_date
    -real_departure_date
    -real_arrival_date
}

class Route {
    -route_id
}

FleetManager "1" - - "1..*" Ship : controls >
Ship "1" - - "*" Route : does >
Route "1" - - "1..*" ShipTrip : contains >

@enduml

PlantUML version 1.2021.11(Sat Oct 02 14:26:11 BST 2021)
(GPL source distribution)
Java Runtime: OpenJDK Runtime Environment
JVM: OpenJDK 64-Bit Server VM
Default Encoding: Cp1252
Language: pt
Country: PT
--></g></svg>