<?xml version="1.0" encoding="UTF-8" standalone="no"?><svg xmlns="http://www.w3.org/2000/svg" xmlns:xlink="http://www.w3.org/1999/xlink" contentScriptType="application/ecmascript" contentStyleType="text/css" height="916px" preserveAspectRatio="none" style="width:391px;height:916px;background:#FFFFFF;" version="1.1" viewBox="0 0 391 916" width="391px" zoomAndPan="magnify"><defs><filter height="300%" id="f9vo3aveiu03i" width="300%" x="-1" y="-1"><feGaussianBlur result="blurOut" stdDeviation="2.0"/><feColorMatrix in="blurOut" result="blurOut2" type="matrix" values="0 0 0 0 0 0 0 0 0 0 0 0 0 0 0 0 0 0 .4 0"/><feOffset dx="4.0" dy="4.0" in="blurOut2" result="blurOut3"/><feBlend in="SourceGraphic" in2="blurOut3" mode="normal"/></filter></defs><g><!--MD5=[02e4b9b7573f1156f41e60aa5b4e25a4]
class Company--><rect codeLine="3" fill="#FEFECE" filter="url(#f9vo3aveiu03i)" height="60.8047" id="Company" style="stroke:#A80036;stroke-width:1.5;" width="89" x="161.74" y="129"/><ellipse cx="176.74" cy="145" fill="#ADD1B2" rx="11" ry="11" style="stroke:#A80036;stroke-width:1.0;"/><path d="M179.2244,150.875 Q178.6463,151.1875 178.0056,151.3438 Q177.365,151.5 176.6619,151.5 Q174.1463,151.5 172.8181,149.8281 Q171.5056,148.1563 171.5056,145 Q171.5056,141.8438 172.8181,140.1719 Q174.1463,138.5 176.6619,138.5 Q177.365,138.5 178.0056,138.6563 Q178.6619,138.8125 179.2244,139.125 L179.2244,141.9219 Q178.5838,141.3438 177.99,141.0781 Q177.3963,140.8125 176.7713,140.8125 Q175.4275,140.8125 174.74,141.875 Q174.0525,142.9219 174.0525,145 Q174.0525,147.0781 174.74,148.1406 Q175.4275,149.1875 176.7713,149.1875 Q177.3963,149.1875 177.99,148.9219 Q178.5838,148.6563 179.2244,148.0781 L179.2244,150.875 Z " fill="#000000"/><text fill="#000000" font-family="sans-serif" font-size="12" lengthAdjust="spacing" textLength="57" x="190.74" y="149.1489">Company</text><line style="stroke:#A80036;stroke-width:1.5;" x1="162.74" x2="249.74" y1="161" y2="161"/><line style="stroke:#A80036;stroke-width:1.5;" x1="162.74" x2="249.74" y1="169" y2="169"/><text fill="#000000" font-family="sans-serif" font-size="11" lengthAdjust="spacing" textLength="77" x="167.74" y="183.2104">+getShipBst()</text><!--MD5=[b4a9ab6cffd58937cfea07eb2954e1bd]
class BST--><rect codeLine="6" fill="#FEFECE" filter="url(#f9vo3aveiu03i)" height="48" id="BST" style="stroke:#A80036;stroke-width:1.5;" width="55" x="232.74" y="822"/><ellipse cx="247.74" cy="838" fill="#B4A7E5" rx="11" ry="11" style="stroke:#A80036;stroke-width:1.0;"/><path d="M244.1619,833.7656 L244.1619,831.5 L251.5525,831.5 L251.5525,833.7656 L249.0838,833.7656 L249.0838,842.2344 L251.5525,842.2344 L251.5525,844.5 L244.1619,844.5 L244.1619,842.2344 L246.6306,842.2344 L246.6306,833.7656 L244.1619,833.7656 Z " fill="#000000"/><text fill="#000000" font-family="sans-serif" font-size="12" font-style="italic" lengthAdjust="spacing" textLength="23" x="261.74" y="842.1489">BST</text><line style="stroke:#A80036;stroke-width:1.5;" x1="233.74" x2="286.74" y1="854" y2="854"/><line style="stroke:#A80036;stroke-width:1.5;" x1="233.74" x2="286.74" y1="862" y2="862"/><!--MD5=[0dc7f2ddb409b58bcf52b12238c25399]
class Ship--><rect codeLine="8" fill="#FEFECE" filter="url(#f9vo3aveiu03i)" height="73.6094" id="Ship" style="stroke:#A80036;stroke-width:1.5;" width="112" x="110.24" y="389"/><ellipse cx="149.09" cy="405" fill="#ADD1B2" rx="11" ry="11" style="stroke:#A80036;stroke-width:1.0;"/><path d="M151.5744,410.875 Q150.9963,411.1875 150.3556,411.3438 Q149.715,411.5 149.0119,411.5 Q146.4963,411.5 145.1681,409.8281 Q143.8556,408.1563 143.8556,405 Q143.8556,401.8438 145.1681,400.1719 Q146.4963,398.5 149.0119,398.5 Q149.715,398.5 150.3556,398.6563 Q151.0119,398.8125 151.5744,399.125 L151.5744,401.9219 Q150.9338,401.3438 150.34,401.0781 Q149.7463,400.8125 149.1213,400.8125 Q147.7775,400.8125 147.09,401.875 Q146.4025,402.9219 146.4025,405 Q146.4025,407.0781 147.09,408.1406 Q147.7775,409.1875 149.1213,409.1875 Q149.7463,409.1875 150.34,408.9219 Q150.9338,408.6563 151.5744,408.0781 L151.5744,410.875 Z " fill="#000000"/><text fill="#000000" font-family="sans-serif" font-size="12" lengthAdjust="spacing" textLength="27" x="168.39" y="409.1489">Ship</text><line style="stroke:#A80036;stroke-width:1.5;" x1="111.24" x2="221.24" y1="421" y2="421"/><line style="stroke:#A80036;stroke-width:1.5;" x1="111.24" x2="221.24" y1="429" y2="429"/><text fill="#000000" font-family="sans-serif" font-size="11" lengthAdjust="spacing" textLength="68" x="116.24" y="443.2104">+getName()</text><text fill="#000000" font-family="sans-serif" font-size="11" lengthAdjust="spacing" textLength="100" x="116.24" y="456.0151">+getMovements()</text><!--MD5=[43adf079e4aaffd3a283c2c0454b404c]
class ShipsBST--><rect codeLine="13" fill="#FEFECE" filter="url(#f9vo3aveiu03i)" height="60.8047" id="ShipsBST" style="stroke:#A80036;stroke-width:1.5;" width="146" x="231.24" y="267"/><ellipse cx="272.34" cy="283" fill="#ADD1B2" rx="11" ry="11" style="stroke:#A80036;stroke-width:1.0;"/><path d="M274.8244,288.875 Q274.2463,289.1875 273.6056,289.3438 Q272.965,289.5 272.2619,289.5 Q269.7463,289.5 268.4181,287.8281 Q267.1056,286.1563 267.1056,283 Q267.1056,279.8438 268.4181,278.1719 Q269.7463,276.5 272.2619,276.5 Q272.965,276.5 273.6056,276.6563 Q274.2619,276.8125 274.8244,277.125 L274.8244,279.9219 Q274.1838,279.3438 273.59,279.0781 Q272.9963,278.8125 272.3713,278.8125 Q271.0275,278.8125 270.34,279.875 Q269.6525,280.9219 269.6525,283 Q269.6525,285.0781 270.34,286.1406 Q271.0275,287.1875 272.3713,287.1875 Q272.9963,287.1875 273.59,286.9219 Q274.1838,286.6563 274.8244,286.0781 L274.8244,288.875 Z " fill="#000000"/><text fill="#000000" font-family="sans-serif" font-size="12" lengthAdjust="spacing" textLength="56" x="292.14" y="287.1489">ShipsBST</text><line style="stroke:#A80036;stroke-width:1.5;" x1="232.24" x2="376.24" y1="299" y2="299"/><line style="stroke:#A80036;stroke-width:1.5;" x1="232.24" x2="376.24" y1="307" y2="307"/><text fill="#000000" font-family="sans-serif" font-size="11" lengthAdjust="spacing" textLength="134" x="237.24" y="321.2104">+findShipByMmsi(MMSI)</text><!--MD5=[1c0c3765e68dc4575d559b566278b914]
class ShipPosition--><rect codeLine="17" fill="#FEFECE" filter="url(#f9vo3aveiu03i)" height="112.0234" id="ShipPosition" style="stroke:#A80036;stroke-width:1.5;" width="105" x="71.74" y="790"/><ellipse cx="86.74" cy="806" fill="#ADD1B2" rx="11" ry="11" style="stroke:#A80036;stroke-width:1.0;"/><path d="M89.2244,811.875 Q88.6463,812.1875 88.0056,812.3438 Q87.365,812.5 86.6619,812.5 Q84.1463,812.5 82.8181,810.8281 Q81.5056,809.1563 81.5056,806 Q81.5056,802.8438 82.8181,801.1719 Q84.1463,799.5 86.6619,799.5 Q87.365,799.5 88.0056,799.6563 Q88.6619,799.8125 89.2244,800.125 L89.2244,802.9219 Q88.5838,802.3438 87.99,802.0781 Q87.3963,801.8125 86.7713,801.8125 Q85.4275,801.8125 84.74,802.875 Q84.0525,803.9219 84.0525,806 Q84.0525,808.0781 84.74,809.1406 Q85.4275,810.1875 86.7713,810.1875 Q87.3963,810.1875 87.99,809.9219 Q88.5838,809.6563 89.2244,809.0781 L89.2244,811.875 Z " fill="#000000"/><text fill="#000000" font-family="sans-serif" font-size="12" lengthAdjust="spacing" textLength="73" x="100.74" y="810.1489">ShipPosition</text><line style="stroke:#A80036;stroke-width:1.5;" x1="72.74" x2="175.74" y1="822" y2="822"/><line style="stroke:#A80036;stroke-width:1.5;" x1="72.74" x2="175.74" y1="830" y2="830"/><text fill="#000000" font-family="sans-serif" font-size="11" lengthAdjust="spacing" textLength="80" x="77.74" y="844.2104">+getLatitude()</text><text fill="#000000" font-family="sans-serif" font-size="11" lengthAdjust="spacing" textLength="90" x="77.74" y="857.0151">+getLongitude()</text><text fill="#000000" font-family="sans-serif" font-size="11" lengthAdjust="spacing" textLength="91" x="77.74" y="869.8198">+getBaseTime()</text><text fill="#000000" font-family="sans-serif" font-size="11" lengthAdjust="spacing" textLength="56" x="77.74" y="882.6245">+getSog()</text><text fill="#000000" font-family="sans-serif" font-size="11" lengthAdjust="spacing" textLength="57" x="77.74" y="895.4292">+getCog()</text><!--MD5=[004e005a2edf96352d0772cab412880f]
class PositionsBST--><rect codeLine="25" fill="#FEFECE" filter="url(#f9vo3aveiu03i)" height="188.8516" id="PositionsBST" style="stroke:#A80036;stroke-width:1.5;" width="140" x="111.24" y="540"/><ellipse cx="141.09" cy="556" fill="#ADD1B2" rx="11" ry="11" style="stroke:#A80036;stroke-width:1.0;"/><path d="M143.5744,561.875 Q142.9963,562.1875 142.3556,562.3438 Q141.715,562.5 141.0119,562.5 Q138.4963,562.5 137.1681,560.8281 Q135.8556,559.1563 135.8556,556 Q135.8556,552.8438 137.1681,551.1719 Q138.4963,549.5 141.0119,549.5 Q141.715,549.5 142.3556,549.6563 Q143.0119,549.8125 143.5744,550.125 L143.5744,552.9219 Q142.9338,552.3438 142.34,552.0781 Q141.7463,551.8125 141.1213,551.8125 Q139.7775,551.8125 139.09,552.875 Q138.4025,553.9219 138.4025,556 Q138.4025,558.0781 139.09,559.1406 Q139.7775,560.1875 141.1213,560.1875 Q141.7463,560.1875 142.34,559.9219 Q142.9338,559.6563 143.5744,559.0781 L143.5744,561.875 Z " fill="#000000"/><text fill="#000000" font-family="sans-serif" font-size="12" lengthAdjust="spacing" textLength="75" x="158.39" y="560.1489">PositionsBST</text><line style="stroke:#A80036;stroke-width:1.5;" x1="112.24" x2="250.24" y1="572" y2="572"/><line style="stroke:#A80036;stroke-width:1.5;" x1="112.24" x2="250.24" y1="580" y2="580"/><text fill="#000000" font-family="sans-serif" font-size="11" lengthAdjust="spacing" textLength="88" x="117.24" y="594.2104">+getStartDate()</text><text fill="#000000" font-family="sans-serif" font-size="11" lengthAdjust="spacing" textLength="82" x="117.24" y="607.0151">+getEndDate()</text><text fill="#000000" font-family="sans-serif" font-size="11" lengthAdjust="spacing" textLength="79" x="117.24" y="619.8198">+getMaxSog()</text><text fill="#000000" font-family="sans-serif" font-size="11" lengthAdjust="spacing" textLength="86" x="117.24" y="632.6245">+getMeanSog()</text><text fill="#000000" font-family="sans-serif" font-size="11" lengthAdjust="spacing" textLength="87" x="117.24" y="645.4292">+getMeanCog()</text><text fill="#000000" font-family="sans-serif" font-size="11" lengthAdjust="spacing" textLength="118" x="117.24" y="658.2339">+getDepartLatitude()</text><text fill="#000000" font-family="sans-serif" font-size="11" lengthAdjust="spacing" textLength="128" x="117.24" y="671.0386">+getDepartLongitude()</text><text fill="#000000" font-family="sans-serif" font-size="11" lengthAdjust="spacing" textLength="118" x="117.24" y="683.8433">+getArrivalLatitude()</text><text fill="#000000" font-family="sans-serif" font-size="11" lengthAdjust="spacing" textLength="128" x="117.24" y="696.6479">+getArrivalLongitude()</text><text fill="#000000" font-family="sans-serif" font-size="11" lengthAdjust="spacing" textLength="119" x="117.24" y="709.4526">+getTravelDistance()</text><text fill="#000000" font-family="sans-serif" font-size="11" lengthAdjust="spacing" textLength="112" x="117.24" y="722.2573">+getDeltaDistance()</text><!--MD5=[cc1f51a30facb0482ef9075e429344f3]
class MovementSummaryController--><rect codeLine="40" fill="#FEFECE" filter="url(#f9vo3aveiu03i)" height="60.8047" id="MovementSummaryController" style="stroke:#A80036;stroke-width:1.5;" width="213" x="148.74" y="7"/><ellipse cx="164.19" cy="23" fill="#ADD1B2" rx="11" ry="11" style="stroke:#A80036;stroke-width:1.0;"/><path d="M166.6744,28.875 Q166.0963,29.1875 165.4556,29.3438 Q164.815,29.5 164.1119,29.5 Q161.5963,29.5 160.2681,27.8281 Q158.9556,26.1563 158.9556,23 Q158.9556,19.8438 160.2681,18.1719 Q161.5963,16.5 164.1119,16.5 Q164.815,16.5 165.4556,16.6563 Q166.1119,16.8125 166.6744,17.125 L166.6744,19.9219 Q166.0338,19.3438 165.44,19.0781 Q164.8463,18.8125 164.2213,18.8125 Q162.8775,18.8125 162.19,19.875 Q161.5025,20.9219 161.5025,23 Q161.5025,25.0781 162.19,26.1406 Q162.8775,27.1875 164.2213,27.1875 Q164.8463,27.1875 165.44,26.9219 Q166.0338,26.6563 166.6744,26.0781 L166.6744,28.875 Z " fill="#000000"/><text fill="#000000" font-family="sans-serif" font-size="12" lengthAdjust="spacing" textLength="180" x="178.29" y="27.1489">MovementSummaryController</text><line style="stroke:#A80036;stroke-width:1.5;" x1="149.74" x2="360.74" y1="39" y2="39"/><line style="stroke:#A80036;stroke-width:1.5;" x1="149.74" x2="360.74" y1="47" y2="47"/><text fill="#000000" font-family="sans-serif" font-size="11" lengthAdjust="spacing" textLength="201" x="154.74" y="61.2104">+getShipMovementSummary(MMSI)</text><!--MD5=[2ad440eb4c268cd15176507b05b692d1]
link MovementSummaryController to Company--><path codeLine="45" d="M243.13,68.16 C236.24,85.04 227.57,106.26 220.37,123.89 " fill="none" id="MovementSummaryController-to-Company" style="stroke:#A80036;stroke-width:1.0;stroke-dasharray:7.0,7.0;"/><polygon fill="#A80036" points="218.38,128.76,225.4907,121.9455,220.2737,124.1325,218.0867,118.9155,218.38,128.76" style="stroke:#A80036;stroke-width:1.0;"/><!--MD5=[257efccd12f2b7ef3c40f8c2c6eb959b]
link MovementSummaryController to ShipsBST--><path codeLine="46" d="M260.86,68.1 C269.98,116.08 287.93,210.63 297.64,261.74 " fill="none" id="MovementSummaryController-to-ShipsBST" style="stroke:#A80036;stroke-width:1.0;stroke-dasharray:7.0,7.0;"/><polygon fill="#A80036" points="298.61,266.85,300.8425,257.2575,297.6679,261.9396,292.9858,258.7649,298.61,266.85" style="stroke:#A80036;stroke-width:1.0;"/><!--MD5=[37a14a5de6d6fd738aee271300f4b5c8]
link Company to Ship--><path codeLine="47" d="M193.53,190.16 C185.19,211.19 174.98,240.29 170.24,267 C163.28,306.24 162.93,351.81 163.93,383.89 " fill="none" id="Company-to-Ship" style="stroke:#A80036;stroke-width:1.0;"/><polygon fill="#A80036" points="164.1,388.92,167.7893,379.7882,163.9287,383.9229,159.794,380.0623,164.1,388.92" style="stroke:#A80036;stroke-width:1.0;"/><text fill="#000000" font-family="sans-serif" font-size="13" lengthAdjust="spacing" textLength="42" x="171.24" y="302.0669">knows</text><text fill="#000000" font-family="sans-serif" font-size="13" lengthAdjust="spacing" textLength="8" x="182.2402" y="209.7719">1</text><text fill="#000000" font-family="sans-serif" font-size="13" lengthAdjust="spacing" textLength="7" x="156.0601" y="377.8157">*</text><!--MD5=[1b046338fb2698c0e9f102f85676b8e2]
link Company to ShipsBST--><path codeLine="48" d="M212.75,190.2 C216.97,205.14 223.53,223 233.24,237 C240.85,247.97 250.99,258.08 261.21,266.74 " fill="none" id="Company-ShipsBST" style="stroke:#A80036;stroke-width:1.0;"/><polygon fill="#000000" points="240.9147,232.7909,238.5592,223.5766,233.5931,226.7209,240.9147,232.7909" style="stroke:#000000;stroke-width:1.0;"/><text fill="#000000" font-family="sans-serif" font-size="13" lengthAdjust="spacing" textLength="30" x="247.24" y="233.0669">uses</text><text fill="#000000" font-family="sans-serif" font-size="13" lengthAdjust="spacing" textLength="8" x="205.2442" y="209.8198">1</text><text fill="#000000" font-family="sans-serif" font-size="13" lengthAdjust="spacing" textLength="8" x="243.5101" y="255.9496">1</text><!--MD5=[b457ea32acbd230d0e22037aaab2ac98]
link ShipsBST to Ship--><path codeLine="49" d="M271.89,328.16 C253.21,345.28 229.49,367.02 209.26,385.56 " fill="none" id="ShipsBST-to-Ship" style="stroke:#A80036;stroke-width:1.0;stroke-dasharray:7.0,7.0;"/><polygon fill="#A80036" points="205.53,388.99,214.864,385.8473,209.2122,385.6075,209.452,379.9557,205.53,388.99" style="stroke:#A80036;stroke-width:1.0;"/><!--MD5=[f56e222e1748568825f030a9b791275e]
link Ship to ShipPosition--><path codeLine="50" d="M110.17,461.04 C83.68,480.51 54.74,507.53 40.24,540 C6,616.7 14.35,649.09 40.24,729 C47.29,750.76 60.13,771.86 73.67,789.97 " fill="none" id="Ship-ShipPosition" style="stroke:#A80036;stroke-width:1.0;"/><polygon fill="#000000" points="44.6886,639.5359,48.6071,630.8701,42.7651,630.2219,44.6886,639.5359" style="stroke:#000000;stroke-width:1.0;"/><text fill="#000000" font-family="sans-serif" font-size="13" lengthAdjust="spacing" textLength="38" x="54.24" y="639.0669">sends</text><text fill="#000000" font-family="sans-serif" font-size="13" lengthAdjust="spacing" textLength="8" x="94.0981" y="461.8428">1</text><text fill="#000000" font-family="sans-serif" font-size="13" lengthAdjust="spacing" textLength="7" x="59.7423" y="778.9041">*</text><!--MD5=[bd16fc4b2a08274ec71edc6d573c9239]
link Ship to PositionsBST--><path codeLine="51" d="M168.89,463.44 C170.44,484.75 172.47,512.7 174.43,539.78 " fill="none" id="Ship-PositionsBST" style="stroke:#A80036;stroke-width:1.0;"/><polygon fill="#000000" points="176.6019,506.5533,178.8784,497.3192,173.016,497.7446,176.6019,506.5533" style="stroke:#000000;stroke-width:1.0;"/><text fill="#000000" font-family="sans-serif" font-size="13" lengthAdjust="spacing" textLength="30" x="185.24" y="506.0669">uses</text><text fill="#000000" font-family="sans-serif" font-size="13" lengthAdjust="spacing" textLength="8" x="160.6748" y="482.7109">1</text><text fill="#000000" font-family="sans-serif" font-size="13" lengthAdjust="spacing" textLength="8" x="165.6024" y="529.0314">1</text><!--MD5=[34b80baad36b2d2bd6b6893c22d217b3]
link PositionsBST to ShipPosition--><path codeLine="52" d="M155.74,729.22 C150.59,748.14 145.31,767.55 140.58,784.93 " fill="none" id="PositionsBST-to-ShipPosition" style="stroke:#A80036;stroke-width:1.0;stroke-dasharray:7.0,7.0;"/><polygon fill="#A80036" points="139.27,789.78,145.4933,782.1465,140.5832,784.9555,137.7741,780.0454,139.27,789.78" style="stroke:#A80036;stroke-width:1.0;"/><!--MD5=[e18dbd49a52e60917b88bf3b4a72eceb]
link ShipsBST to BST--><path codeLine="53" d="M301.85,328.27 C294.14,424.02 270.05,723.24 262.51,816.77 " fill="none" id="ShipsBST-to-BST" style="stroke:#A80036;stroke-width:1.0;stroke-dasharray:7.0,7.0;"/><polygon fill="#A80036" points="262.11,821.85,266.8169,813.1987,262.5099,816.866,258.8426,812.5589,262.11,821.85" style="stroke:#A80036;stroke-width:1.0;"/><!--MD5=[1188dce5d03092776280b0cb741a6d56]
link PositionsBST to BST--><path codeLine="54" d="M216.58,729.22 C228.58,761.02 241.09,794.2 249.62,816.84 " fill="none" id="PositionsBST-to-BST" style="stroke:#A80036;stroke-width:1.0;stroke-dasharray:7.0,7.0;"/><polygon fill="#A80036" points="251.49,821.8,252.0653,811.968,249.7297,817.1201,244.5775,814.7845,251.49,821.8" style="stroke:#A80036;stroke-width:1.0;"/><!--MD5=[ccf08673e66c6f7cc25fedb15af66905]
@startuml
skinparam classAttributeIconSize 0

class Company{
    +getShipBst()
}
Interface BST{}

class Ship {
    +getName()
    +getMovements()
}

class ShipsBST{
    +findShipByMmsi(MMSI)
}

class ShipPosition{
    +getLatitude()
    +getLongitude()
    +getBaseTime()
    +getSog()
    +getCog()
}

class PositionsBST {
    +getStartDate()
    +getEndDate()
    +getMaxSog()
    +getMeanSog()
    +getMeanCog()
    +getDepartLatitude()
    +getDepartLongitude()
    +getArrivalLatitude()
    +getArrivalLongitude()
    +getTravelDistance()
    +getDeltaDistance()
}


class MovementSummaryController {
+getShipMovementSummary(MMSI)
}


MovementSummaryController ..> Company
MovementSummaryController ..> ShipsBST
Company "1" - -> "*" Ship : knows
Company "1" - - "1" ShipsBST : uses >
ShipsBST ..> Ship
Ship "1" - - "*" ShipPosition : sends >
Ship "1" - - "1" PositionsBST : uses >
PositionsBST ..> ShipPosition
ShipsBST ..> BST
PositionsBST ..> BST

@enduml

PlantUML version 1.2021.11(Sat Oct 02 14:26:11 WEST 2021)
(GPL source distribution)
Java Runtime: OpenJDK Runtime Environment
JVM: OpenJDK 64-Bit Server VM
Default Encoding: UTF-8
Language: en
Country: US
--></g></svg>