<?xml version="1.0" encoding="UTF-8" standalone="no"?><svg xmlns="http://www.w3.org/2000/svg" xmlns:xlink="http://www.w3.org/1999/xlink" contentScriptType="application/ecmascript" contentStyleType="text/css" height="916px" preserveAspectRatio="none" style="width:293px;height:916px;background:#FFFFFF;" version="1.1" viewBox="0 0 293 916" width="293px" zoomAndPan="magnify"><defs><filter height="300%" id="f1gu2z1woy1bpt" width="300%" x="-1" y="-1"><feGaussianBlur result="blurOut" stdDeviation="2.0"/><feColorMatrix in="blurOut" result="blurOut2" type="matrix" values="0 0 0 0 0 0 0 0 0 0 0 0 0 0 0 0 0 0 .4 0"/><feOffset dx="4.0" dy="4.0" in="blurOut2" result="blurOut3"/><feBlend in="SourceGraphic" in2="blurOut3" mode="normal"/></filter></defs><g><!--MD5=[02e4b9b7573f1156f41e60aa5b4e25a4]
class Company--><rect codeLine="3" fill="#FEFECE" filter="url(#f1gu2z1woy1bpt)" height="60.8047" id="Company" style="stroke:#A80036;stroke-width:1.5;" width="89" x="58" y="129"/><ellipse cx="73" cy="145" fill="#ADD1B2" rx="11" ry="11" style="stroke:#A80036;stroke-width:1.0;"/><path d="M75.4844,150.875 Q74.9063,151.1875 74.2656,151.3438 Q73.625,151.5 72.9219,151.5 Q70.4063,151.5 69.0781,149.8281 Q67.7656,148.1563 67.7656,145 Q67.7656,141.8438 69.0781,140.1719 Q70.4063,138.5 72.9219,138.5 Q73.625,138.5 74.2656,138.6563 Q74.9219,138.8125 75.4844,139.125 L75.4844,141.9219 Q74.8438,141.3438 74.25,141.0781 Q73.6563,140.8125 73.0313,140.8125 Q71.6875,140.8125 71,141.875 Q70.3125,142.9219 70.3125,145 Q70.3125,147.0781 71,148.1406 Q71.6875,149.1875 73.0313,149.1875 Q73.6563,149.1875 74.25,148.9219 Q74.8438,148.6563 75.4844,148.0781 L75.4844,150.875 Z " fill="#000000"/><text fill="#000000" font-family="sans-serif" font-size="12" lengthAdjust="spacing" textLength="57" x="87" y="149.1489">Company</text><line style="stroke:#A80036;stroke-width:1.5;" x1="59" x2="146" y1="161" y2="161"/><line style="stroke:#A80036;stroke-width:1.5;" x1="59" x2="146" y1="169" y2="169"/><text fill="#000000" font-family="sans-serif" font-size="11" lengthAdjust="spacing" textLength="77" x="64" y="183.2104">+getShipBst()</text><!--MD5=[0dc7f2ddb409b58bcf52b12238c25399]
class Ship--><rect codeLine="7" fill="#FEFECE" filter="url(#f1gu2z1woy1bpt)" height="73.6094" id="Ship" style="stroke:#A80036;stroke-width:1.5;" width="112" x="12.5" y="389"/><ellipse cx="51.35" cy="405" fill="#ADD1B2" rx="11" ry="11" style="stroke:#A80036;stroke-width:1.0;"/><path d="M53.8344,410.875 Q53.2563,411.1875 52.6156,411.3438 Q51.975,411.5 51.2719,411.5 Q48.7563,411.5 47.4281,409.8281 Q46.1156,408.1563 46.1156,405 Q46.1156,401.8438 47.4281,400.1719 Q48.7563,398.5 51.2719,398.5 Q51.975,398.5 52.6156,398.6563 Q53.2719,398.8125 53.8344,399.125 L53.8344,401.9219 Q53.1938,401.3438 52.6,401.0781 Q52.0063,400.8125 51.3813,400.8125 Q50.0375,400.8125 49.35,401.875 Q48.6625,402.9219 48.6625,405 Q48.6625,407.0781 49.35,408.1406 Q50.0375,409.1875 51.3813,409.1875 Q52.0063,409.1875 52.6,408.9219 Q53.1938,408.6563 53.8344,408.0781 L53.8344,410.875 Z " fill="#000000"/><text fill="#000000" font-family="sans-serif" font-size="12" lengthAdjust="spacing" textLength="27" x="70.65" y="409.1489">Ship</text><line style="stroke:#A80036;stroke-width:1.5;" x1="13.5" x2="123.5" y1="421" y2="421"/><line style="stroke:#A80036;stroke-width:1.5;" x1="13.5" x2="123.5" y1="429" y2="429"/><text fill="#000000" font-family="sans-serif" font-size="11" lengthAdjust="spacing" textLength="68" x="18.5" y="443.2104">+getName()</text><text fill="#000000" font-family="sans-serif" font-size="11" lengthAdjust="spacing" textLength="100" x="18.5" y="456.0151">+getMovements()</text><!--MD5=[43adf079e4aaffd3a283c2c0454b404c]
class ShipsBST--><rect codeLine="12" fill="#FEFECE" filter="url(#f1gu2z1woy1bpt)" height="60.8047" id="ShipsBST" style="stroke:#A80036;stroke-width:1.5;" width="146" x="127.5" y="267"/><ellipse cx="168.6" cy="283" fill="#ADD1B2" rx="11" ry="11" style="stroke:#A80036;stroke-width:1.0;"/><path d="M171.0844,288.875 Q170.5063,289.1875 169.8656,289.3438 Q169.225,289.5 168.5219,289.5 Q166.0063,289.5 164.6781,287.8281 Q163.3656,286.1563 163.3656,283 Q163.3656,279.8438 164.6781,278.1719 Q166.0063,276.5 168.5219,276.5 Q169.225,276.5 169.8656,276.6563 Q170.5219,276.8125 171.0844,277.125 L171.0844,279.9219 Q170.4438,279.3438 169.85,279.0781 Q169.2563,278.8125 168.6313,278.8125 Q167.2875,278.8125 166.6,279.875 Q165.9125,280.9219 165.9125,283 Q165.9125,285.0781 166.6,286.1406 Q167.2875,287.1875 168.6313,287.1875 Q169.2563,287.1875 169.85,286.9219 Q170.4438,286.6563 171.0844,286.0781 L171.0844,288.875 Z " fill="#000000"/><text fill="#000000" font-family="sans-serif" font-size="12" lengthAdjust="spacing" textLength="56" x="188.4" y="287.1489">ShipsBST</text><line style="stroke:#A80036;stroke-width:1.5;" x1="128.5" x2="272.5" y1="299" y2="299"/><line style="stroke:#A80036;stroke-width:1.5;" x1="128.5" x2="272.5" y1="307" y2="307"/><text fill="#000000" font-family="sans-serif" font-size="11" lengthAdjust="spacing" textLength="134" x="133.5" y="321.2104">+findShipByMmsi(MMSI)</text><!--MD5=[1c0c3765e68dc4575d559b566278b914]
class ShipPosition--><rect codeLine="16" fill="#FEFECE" filter="url(#f1gu2z1woy1bpt)" height="112.0234" id="ShipPosition" style="stroke:#A80036;stroke-width:1.5;" width="105" x="7" y="790"/><ellipse cx="22" cy="806" fill="#ADD1B2" rx="11" ry="11" style="stroke:#A80036;stroke-width:1.0;"/><path d="M24.4844,811.875 Q23.9063,812.1875 23.2656,812.3438 Q22.625,812.5 21.9219,812.5 Q19.4063,812.5 18.0781,810.8281 Q16.7656,809.1563 16.7656,806 Q16.7656,802.8438 18.0781,801.1719 Q19.4063,799.5 21.9219,799.5 Q22.625,799.5 23.2656,799.6563 Q23.9219,799.8125 24.4844,800.125 L24.4844,802.9219 Q23.8438,802.3438 23.25,802.0781 Q22.6563,801.8125 22.0313,801.8125 Q20.6875,801.8125 20,802.875 Q19.3125,803.9219 19.3125,806 Q19.3125,808.0781 20,809.1406 Q20.6875,810.1875 22.0313,810.1875 Q22.6563,810.1875 23.25,809.9219 Q23.8438,809.6563 24.4844,809.0781 L24.4844,811.875 Z " fill="#000000"/><text fill="#000000" font-family="sans-serif" font-size="12" lengthAdjust="spacing" textLength="73" x="36" y="810.1489">ShipPosition</text><line style="stroke:#A80036;stroke-width:1.5;" x1="8" x2="111" y1="822" y2="822"/><line style="stroke:#A80036;stroke-width:1.5;" x1="8" x2="111" y1="830" y2="830"/><text fill="#000000" font-family="sans-serif" font-size="11" lengthAdjust="spacing" textLength="80" x="13" y="844.2104">+getLatitude()</text><text fill="#000000" font-family="sans-serif" font-size="11" lengthAdjust="spacing" textLength="90" x="13" y="857.0151">+getLongitude()</text><text fill="#000000" font-family="sans-serif" font-size="11" lengthAdjust="spacing" textLength="91" x="13" y="869.8198">+getBaseTime()</text><text fill="#000000" font-family="sans-serif" font-size="11" lengthAdjust="spacing" textLength="56" x="13" y="882.6245">+getSog()</text><text fill="#000000" font-family="sans-serif" font-size="11" lengthAdjust="spacing" textLength="57" x="13" y="895.4292">+getCog()</text><!--MD5=[7c5f43bde5a76bc9232158ec1b30e3ac]
class ShipMovementsBST--><rect codeLine="24" fill="#FEFECE" filter="url(#f1gu2z1woy1bpt)" height="188.8516" id="ShipMovementsBST" style="stroke:#A80036;stroke-width:1.5;" width="151" x="128" y="540"/><ellipse cx="143" cy="556" fill="#ADD1B2" rx="11" ry="11" style="stroke:#A80036;stroke-width:1.0;"/><path d="M145.4844,561.875 Q144.9063,562.1875 144.2656,562.3438 Q143.625,562.5 142.9219,562.5 Q140.4063,562.5 139.0781,560.8281 Q137.7656,559.1563 137.7656,556 Q137.7656,552.8438 139.0781,551.1719 Q140.4063,549.5 142.9219,549.5 Q143.625,549.5 144.2656,549.6563 Q144.9219,549.8125 145.4844,550.125 L145.4844,552.9219 Q144.8438,552.3438 144.25,552.0781 Q143.6563,551.8125 143.0313,551.8125 Q141.6875,551.8125 141,552.875 Q140.3125,553.9219 140.3125,556 Q140.3125,558.0781 141,559.1406 Q141.6875,560.1875 143.0313,560.1875 Q143.6563,560.1875 144.25,559.9219 Q144.8438,559.6563 145.4844,559.0781 L145.4844,561.875 Z " fill="#000000"/><text fill="#000000" font-family="sans-serif" font-size="12" lengthAdjust="spacing" textLength="119" x="157" y="560.1489">ShipMovementsBST</text><line style="stroke:#A80036;stroke-width:1.5;" x1="129" x2="278" y1="572" y2="572"/><line style="stroke:#A80036;stroke-width:1.5;" x1="129" x2="278" y1="580" y2="580"/><text fill="#000000" font-family="sans-serif" font-size="11" lengthAdjust="spacing" textLength="88" x="134" y="594.2104">+getStartDate()</text><text fill="#000000" font-family="sans-serif" font-size="11" lengthAdjust="spacing" textLength="82" x="134" y="607.0151">+getEndDate()</text><text fill="#000000" font-family="sans-serif" font-size="11" lengthAdjust="spacing" textLength="79" x="134" y="619.8198">+getMaxSog()</text><text fill="#000000" font-family="sans-serif" font-size="11" lengthAdjust="spacing" textLength="86" x="134" y="632.6245">+getMeanSog()</text><text fill="#000000" font-family="sans-serif" font-size="11" lengthAdjust="spacing" textLength="87" x="134" y="645.4292">+getMeanCog()</text><text fill="#000000" font-family="sans-serif" font-size="11" lengthAdjust="spacing" textLength="118" x="134" y="658.2339">+getDepartLatitude()</text><text fill="#000000" font-family="sans-serif" font-size="11" lengthAdjust="spacing" textLength="128" x="134" y="671.0386">+getDepartLongitude()</text><text fill="#000000" font-family="sans-serif" font-size="11" lengthAdjust="spacing" textLength="118" x="134" y="683.8433">+getArrivalLatitude()</text><text fill="#000000" font-family="sans-serif" font-size="11" lengthAdjust="spacing" textLength="128" x="134" y="696.6479">+getArrivalLongitude()</text><text fill="#000000" font-family="sans-serif" font-size="11" lengthAdjust="spacing" textLength="119" x="134" y="709.4526">+getTravelDistance()</text><text fill="#000000" font-family="sans-serif" font-size="11" lengthAdjust="spacing" textLength="112" x="134" y="722.2573">+getDeltaDistance()</text><!--MD5=[cc1f51a30facb0482ef9075e429344f3]
class MovementSummaryController--><rect codeLine="39" fill="#FEFECE" filter="url(#f1gu2z1woy1bpt)" height="60.8047" id="MovementSummaryController" style="stroke:#A80036;stroke-width:1.5;" width="213" x="45" y="7"/><ellipse cx="60.45" cy="23" fill="#ADD1B2" rx="11" ry="11" style="stroke:#A80036;stroke-width:1.0;"/><path d="M62.9344,28.875 Q62.3563,29.1875 61.7156,29.3438 Q61.075,29.5 60.3719,29.5 Q57.8563,29.5 56.5281,27.8281 Q55.2156,26.1563 55.2156,23 Q55.2156,19.8438 56.5281,18.1719 Q57.8563,16.5 60.3719,16.5 Q61.075,16.5 61.7156,16.6563 Q62.3719,16.8125 62.9344,17.125 L62.9344,19.9219 Q62.2938,19.3438 61.7,19.0781 Q61.1063,18.8125 60.4813,18.8125 Q59.1375,18.8125 58.45,19.875 Q57.7625,20.9219 57.7625,23 Q57.7625,25.0781 58.45,26.1406 Q59.1375,27.1875 60.4813,27.1875 Q61.1063,27.1875 61.7,26.9219 Q62.2938,26.6563 62.9344,26.0781 L62.9344,28.875 Z " fill="#000000"/><text fill="#000000" font-family="sans-serif" font-size="12" lengthAdjust="spacing" textLength="180" x="74.55" y="27.1489">MovementSummaryController</text><line style="stroke:#A80036;stroke-width:1.5;" x1="46" x2="257" y1="39" y2="39"/><line style="stroke:#A80036;stroke-width:1.5;" x1="46" x2="257" y1="47" y2="47"/><text fill="#000000" font-family="sans-serif" font-size="11" lengthAdjust="spacing" textLength="201" x="51" y="61.2104">+getShipMovementSummary(MMSI)</text><!--MD5=[2ad440eb4c268cd15176507b05b692d1]
link MovementSummaryController to Company--><path codeLine="44" d="M139.39,68.16 C132.5,85.04 123.83,106.26 116.63,123.89 " fill="none" id="MovementSummaryController-to-Company" style="stroke:#A80036;stroke-width:1.0;stroke-dasharray:7.0,7.0;"/><polygon fill="#A80036" points="114.64,128.76,121.7581,121.9532,116.5387,124.1345,114.3573,118.9152,114.64,128.76" style="stroke:#A80036;stroke-width:1.0;"/><!--MD5=[257efccd12f2b7ef3c40f8c2c6eb959b]
link MovementSummaryController to ShipsBST--><path codeLine="45" d="M157.12,68.1 C166.23,116.08 184.19,210.63 193.9,261.74 " fill="none" id="MovementSummaryController-to-ShipsBST" style="stroke:#A80036;stroke-width:1.0;stroke-dasharray:7.0,7.0;"/><polygon fill="#A80036" points="194.87,266.85,197.1025,257.2575,193.9279,261.9396,189.2458,258.7649,194.87,266.85" style="stroke:#A80036;stroke-width:1.0;"/><!--MD5=[37a14a5de6d6fd738aee271300f4b5c8]
link Company to Ship--><path codeLine="46" d="M89.22,190.09 C80.55,211.08 70.03,240.17 65.5,267 C58.87,306.29 60.73,351.85 63.58,383.92 " fill="none" id="Company-to-Ship" style="stroke:#A80036;stroke-width:1.0;"/><polygon fill="#A80036" points="64.04,388.95,67.1991,379.6215,63.5822,383.971,59.2327,380.3541,64.04,388.95" style="stroke:#A80036;stroke-width:1.0;"/><text fill="#000000" font-family="sans-serif" font-size="13" lengthAdjust="spacing" textLength="42" x="66.5" y="302.0669">knows</text><text fill="#000000" font-family="sans-serif" font-size="13" lengthAdjust="spacing" textLength="8" x="77.656" y="210.0468">1</text><text fill="#000000" font-family="sans-serif" font-size="13" lengthAdjust="spacing" textLength="7" x="55.5724" y="377.8512">*</text><!--MD5=[1b046338fb2698c0e9f102f85676b8e2]
link Company to ShipsBST--><path codeLine="47" d="M109,190.2 C113.23,205.14 119.79,223 129.5,237 C137.11,247.97 147.24,258.08 157.47,266.74 " fill="none" id="Company-ShipsBST" style="stroke:#A80036;stroke-width:1.0;"/><polygon fill="#000000" points="137.1751,232.7906,134.8188,223.5766,129.8529,226.7213,137.1751,232.7906" style="stroke:#000000;stroke-width:1.0;"/><text fill="#000000" font-family="sans-serif" font-size="13" lengthAdjust="spacing" textLength="30" x="143.5" y="233.0669">uses</text><text fill="#000000" font-family="sans-serif" font-size="13" lengthAdjust="spacing" textLength="8" x="101.4922" y="209.8198">1</text><text fill="#000000" font-family="sans-serif" font-size="13" lengthAdjust="spacing" textLength="8" x="139.7701" y="255.9496">1</text><!--MD5=[b457ea32acbd230d0e22037aaab2ac98]
link ShipsBST to Ship--><path codeLine="48" d="M169.55,328.16 C151.83,345.14 129.37,366.67 110.12,385.11 " fill="none" id="ShipsBST-to-Ship" style="stroke:#A80036;stroke-width:1.0;stroke-dasharray:7.0,7.0;"/><polygon fill="#A80036" points="106.32,388.76,115.5887,385.4296,109.9332,385.3039,110.0589,379.6484,106.32,388.76" style="stroke:#A80036;stroke-width:1.0;"/><!--MD5=[f56e222e1748568825f030a9b791275e]
link Ship to ShipPosition--><path codeLine="49" d="M64.09,463.07 C61.6,485.22 58.75,514.21 57.5,540 C53.26,627.27 55.32,728.75 57.32,789.86 " fill="none" id="Ship-ShipPosition" style="stroke:#A80036;stroke-width:1.0;"/><polygon fill="#000000" points="62.3964,639.5653,65.5221,630.5831,59.6455,630.4613,62.3964,639.5653" style="stroke:#000000;stroke-width:1.0;"/><text fill="#000000" font-family="sans-serif" font-size="13" lengthAdjust="spacing" textLength="38" x="71.5" y="639.0669">sends</text><text fill="#000000" font-family="sans-serif" font-size="13" lengthAdjust="spacing" textLength="8" x="54.6971" y="482.5621">1</text><text fill="#000000" font-family="sans-serif" font-size="13" lengthAdjust="spacing" textLength="7" x="49.5923" y="778.78">*</text><!--MD5=[d4317415abc6f5ee551819ad063417c3]
link Ship to ShipMovementsBST--><path codeLine="50" d="M92.32,463.44 C106.25,484.75 124.53,512.7 142.23,539.78 " fill="none" id="Ship-ShipMovementsBST" style="stroke:#A80036;stroke-width:1.0;"/><polygon fill="#000000" points="128.2361,505.7514,125.7463,496.5725,120.8266,499.7889,128.2361,505.7514" style="stroke:#000000;stroke-width:1.0;"/><text fill="#000000" font-family="sans-serif" font-size="13" lengthAdjust="spacing" textLength="30" x="134.5" y="506.0669">uses</text><text fill="#000000" font-family="sans-serif" font-size="13" lengthAdjust="spacing" textLength="8" x="87.4788" y="482.7109">1</text><text fill="#000000" font-family="sans-serif" font-size="13" lengthAdjust="spacing" textLength="8" x="129.2328" y="529.0314">1</text><!--MD5=[d033cfa6dbf9fbb2c64118e7ccf56381]
link ShipMovementsBST to ShipPosition--><path codeLine="51" d="M139.08,729.22 C125.96,748.3 112.51,767.88 100.48,785.38 " fill="none" id="ShipMovementsBST-to-ShipPosition" style="stroke:#A80036;stroke-width:1.0;stroke-dasharray:7.0,7.0;"/><polygon fill="#A80036" points="97.45,789.78,105.8449,784.6297,100.2826,785.6598,99.2526,780.0975,97.45,789.78" style="stroke:#A80036;stroke-width:1.0;"/><!--MD5=[738b4636f9cd41a69f2ac5c3f1ff6b9f]
@startuml
skinparam classAttributeIconSize 0

class Company{
    +getShipBst()
}

class Ship {
    +getName()
    +getMovements()
}

class ShipsBST{
    +findShipByMmsi(MMSI)
}

class ShipPosition{
    +getLatitude()
    +getLongitude()
    +getBaseTime()
    +getSog()
    +getCog()
}

class ShipMovementsBST {
    +getStartDate()
    +getEndDate()
    +getMaxSog()
    +getMeanSog()
    +getMeanCog()
    +getDepartLatitude()
    +getDepartLongitude()
    +getArrivalLatitude()
    +getArrivalLongitude()
    +getTravelDistance()
    +getDeltaDistance()
}


class MovementSummaryController {
+getShipMovementSummary(MMSI)
}


MovementSummaryController ..> Company
MovementSummaryController ..> ShipsBST
Company "1" - -> "*" Ship : knows
Company "1" - - "1" ShipsBST : uses >
ShipsBST ..> Ship
Ship "1" - - "*" ShipPosition : sends >
Ship "1" - - "1" ShipMovementsBST : uses >
ShipMovementsBST ..> ShipPosition
@enduml

PlantUML version 1.2021.11(Sat Oct 02 14:26:11 WEST 2021)
(GPL source distribution)
Java Runtime: OpenJDK Runtime Environment
JVM: OpenJDK 64-Bit Server VM
Default Encoding: UTF-8
Language: en
Country: US
--></g></svg>