<?xml version="1.0" encoding="UTF-8" standalone="no"?><svg xmlns="http://www.w3.org/2000/svg" xmlns:xlink="http://www.w3.org/1999/xlink" contentScriptType="application/ecmascript" contentStyleType="text/css" height="1211px" preserveAspectRatio="none" style="width:649px;height:1211px;background:#FFFFFF;" version="1.1" viewBox="0 0 649 1211" width="649px" zoomAndPan="magnify"><defs><filter height="300%" id="f1kucbw98wo5z3" width="300%" x="-1" y="-1"><feGaussianBlur result="blurOut" stdDeviation="2.0"/><feColorMatrix in="blurOut" result="blurOut2" type="matrix" values="0 0 0 0 0 0 0 0 0 0 0 0 0 0 0 0 0 0 .4 0"/><feOffset dx="4.0" dy="4.0" in="blurOut2" result="blurOut3"/><feBlend in="SourceGraphic" in2="blurOut3" mode="normal"/></filter></defs><g><!--MD5=[02e4b9b7573f1156f41e60aa5b4e25a4]
class Company--><rect codeLine="3" fill="#FEFECE" filter="url(#f1kucbw98wo5z3)" height="60.8047" id="Company" style="stroke:#A80036;stroke-width:1.5;" width="89" x="107.05" y="215.5"/><ellipse cx="122.05" cy="231.5" fill="#ADD1B2" rx="11" ry="11" style="stroke:#A80036;stroke-width:1.0;"/><path d="M124.5188,237.375 Q123.9406,237.6875 123.3,237.8438 Q122.6594,238 121.9563,238 Q119.4563,238 118.1281,236.3281 Q116.8156,234.6563 116.8156,231.5 Q116.8156,228.3438 118.1281,226.6719 Q119.4563,225 121.9563,225 Q122.6594,225 123.3,225.1563 Q123.9563,225.3125 124.5188,225.625 L124.5188,228.4219 Q123.8938,227.8594 123.3,227.5938 Q122.7063,227.3125 122.0813,227.3125 Q120.7375,227.3125 120.05,228.375 Q119.3625,229.4375 119.3625,231.5 Q119.3625,233.5781 120.05,234.6406 Q120.7375,235.6875 122.0813,235.6875 Q122.7063,235.6875 123.3,235.4219 Q123.8938,235.1563 124.5188,234.5781 L124.5188,237.375 Z " fill="#000000"/><text fill="#000000" font-family="sans-serif" font-size="12" lengthAdjust="spacing" textLength="57" x="136.05" y="235.6543">Company</text><line style="stroke:#A80036;stroke-width:1.5;" x1="108.05" x2="195.05" y1="247.5" y2="247.5"/><line style="stroke:#A80036;stroke-width:1.5;" x1="108.05" x2="195.05" y1="255.5" y2="255.5"/><text fill="#000000" font-family="sans-serif" font-size="11" lengthAdjust="spacing" textLength="77" x="113.05" y="269.7104">+getShipBst()</text><!--MD5=[b4a9ab6cffd58937cfea07eb2954e1bd]
class BST--><rect codeLine="6" fill="#FEFECE" filter="url(#f1kucbw98wo5z3)" height="48" id="BST" style="stroke:#A80036;stroke-width:1.5;" width="55" x="316.05" y="1117"/><ellipse cx="331.05" cy="1133" fill="#B4A7E5" rx="11" ry="11" style="stroke:#A80036;stroke-width:1.0;"/><path d="M327.4719,1128.7813 L327.4719,1126.5 L334.8625,1126.5 L334.8625,1128.7813 L332.3938,1128.7813 L332.3938,1137.2344 L334.8625,1137.2344 L334.8625,1139.5 L327.4719,1139.5 L327.4719,1137.2344 L329.9406,1137.2344 L329.9406,1128.7813 L327.4719,1128.7813 Z " fill="#000000"/><text fill="#000000" font-family="sans-serif" font-size="12" font-style="italic" lengthAdjust="spacing" textLength="23" x="345.05" y="1137.1543">BST</text><line style="stroke:#A80036;stroke-width:1.5;" x1="317.05" x2="370.05" y1="1149" y2="1149"/><line style="stroke:#A80036;stroke-width:1.5;" x1="317.05" x2="370.05" y1="1157" y2="1157"/><!--MD5=[0dc7f2ddb409b58bcf52b12238c25399]
class Ship--><rect codeLine="8" fill="#FEFECE" filter="url(#f1kucbw98wo5z3)" height="73.6094" id="Ship" style="stroke:#A80036;stroke-width:1.5;" width="112" x="129.55" y="684"/><ellipse cx="168.4" cy="700" fill="#ADD1B2" rx="11" ry="11" style="stroke:#A80036;stroke-width:1.0;"/><path d="M170.8688,705.875 Q170.2906,706.1875 169.65,706.3438 Q169.0094,706.5 168.3063,706.5 Q165.8063,706.5 164.4781,704.8281 Q163.1656,703.1563 163.1656,700 Q163.1656,696.8438 164.4781,695.1719 Q165.8063,693.5 168.3063,693.5 Q169.0094,693.5 169.65,693.6563 Q170.3063,693.8125 170.8688,694.125 L170.8688,696.9219 Q170.2438,696.3594 169.65,696.0938 Q169.0563,695.8125 168.4313,695.8125 Q167.0875,695.8125 166.4,696.875 Q165.7125,697.9375 165.7125,700 Q165.7125,702.0781 166.4,703.1406 Q167.0875,704.1875 168.4313,704.1875 Q169.0563,704.1875 169.65,703.9219 Q170.2438,703.6563 170.8688,703.0781 L170.8688,705.875 Z " fill="#000000"/><text fill="#000000" font-family="sans-serif" font-size="12" lengthAdjust="spacing" textLength="27" x="187.7" y="704.1543">Ship</text><line style="stroke:#A80036;stroke-width:1.5;" x1="130.55" x2="240.55" y1="716" y2="716"/><line style="stroke:#A80036;stroke-width:1.5;" x1="130.55" x2="240.55" y1="724" y2="724"/><text fill="#000000" font-family="sans-serif" font-size="11" lengthAdjust="spacing" textLength="68" x="135.55" y="738.2104">+getName()</text><text fill="#000000" font-family="sans-serif" font-size="11" lengthAdjust="spacing" textLength="100" x="135.55" y="751.0151">+getMovements()</text><!--MD5=[43adf079e4aaffd3a283c2c0454b404c]
class ShipsBST--><rect codeLine="13" fill="#FEFECE" filter="url(#f1kucbw98wo5z3)" height="60.8047" id="ShipsBST" style="stroke:#A80036;stroke-width:1.5;" width="146" x="112.55" y="562"/><ellipse cx="153.65" cy="578" fill="#ADD1B2" rx="11" ry="11" style="stroke:#A80036;stroke-width:1.0;"/><path d="M156.1188,583.875 Q155.5406,584.1875 154.9,584.3438 Q154.2594,584.5 153.5563,584.5 Q151.0563,584.5 149.7281,582.8281 Q148.4156,581.1563 148.4156,578 Q148.4156,574.8438 149.7281,573.1719 Q151.0563,571.5 153.5563,571.5 Q154.2594,571.5 154.9,571.6563 Q155.5563,571.8125 156.1188,572.125 L156.1188,574.9219 Q155.4938,574.3594 154.9,574.0938 Q154.3063,573.8125 153.6813,573.8125 Q152.3375,573.8125 151.65,574.875 Q150.9625,575.9375 150.9625,578 Q150.9625,580.0781 151.65,581.1406 Q152.3375,582.1875 153.6813,582.1875 Q154.3063,582.1875 154.9,581.9219 Q155.4938,581.6563 156.1188,581.0781 L156.1188,583.875 Z " fill="#000000"/><text fill="#000000" font-family="sans-serif" font-size="12" lengthAdjust="spacing" textLength="56" x="173.45" y="582.1543">ShipsBST</text><line style="stroke:#A80036;stroke-width:1.5;" x1="113.55" x2="257.55" y1="594" y2="594"/><line style="stroke:#A80036;stroke-width:1.5;" x1="113.55" x2="257.55" y1="602" y2="602"/><text fill="#000000" font-family="sans-serif" font-size="11" lengthAdjust="spacing" textLength="134" x="118.55" y="616.2104">+findShipByMmsi(MMSI)</text><!--MD5=[161eb210b6023c573fce756084aec649]
class ShipsBSTImo--><rect codeLine="17" fill="#FEFECE" filter="url(#f1kucbw98wo5z3)" height="60.8047" id="ShipsBSTImo" style="stroke:#A80036;stroke-width:1.5;" width="131" x="294.05" y="562"/><ellipse cx="318.05" cy="578" fill="#ADD1B2" rx="11" ry="11" style="stroke:#A80036;stroke-width:1.0;"/><path d="M320.5188,583.875 Q319.9406,584.1875 319.3,584.3438 Q318.6594,584.5 317.9563,584.5 Q315.4563,584.5 314.1281,582.8281 Q312.8156,581.1563 312.8156,578 Q312.8156,574.8438 314.1281,573.1719 Q315.4563,571.5 317.9563,571.5 Q318.6594,571.5 319.3,571.6563 Q319.9563,571.8125 320.5188,572.125 L320.5188,574.9219 Q319.8938,574.3594 319.3,574.0938 Q318.7063,573.8125 318.0813,573.8125 Q316.7375,573.8125 316.05,574.875 Q315.3625,575.9375 315.3625,578 Q315.3625,580.0781 316.05,581.1406 Q316.7375,582.1875 318.0813,582.1875 Q318.7063,582.1875 319.3,581.9219 Q319.8938,581.6563 320.5188,581.0781 L320.5188,583.875 Z " fill="#000000"/><text fill="#000000" font-family="sans-serif" font-size="12" lengthAdjust="spacing" textLength="79" x="334.05" y="582.1543">ShipsBSTImo</text><line style="stroke:#A80036;stroke-width:1.5;" x1="295.05" x2="424.05" y1="594" y2="594"/><line style="stroke:#A80036;stroke-width:1.5;" x1="295.05" x2="424.05" y1="602" y2="602"/><text fill="#000000" font-family="sans-serif" font-size="11" lengthAdjust="spacing" textLength="119" x="300.05" y="616.2104">+findShipByImo(imo)</text><!--MD5=[c18b351740c5329e2353b0d734c891ce]
class ShipsBSTCallSign--><rect codeLine="20" fill="#FEFECE" filter="url(#f1kucbw98wo5z3)" height="60.8047" id="ShipsBSTCallSign" style="stroke:#A80036;stroke-width:1.5;" width="175" x="460.05" y="562"/><ellipse cx="492.6" cy="578" fill="#ADD1B2" rx="11" ry="11" style="stroke:#A80036;stroke-width:1.0;"/><path d="M495.0688,583.875 Q494.4906,584.1875 493.85,584.3438 Q493.2094,584.5 492.5063,584.5 Q490.0063,584.5 488.6781,582.8281 Q487.3656,581.1563 487.3656,578 Q487.3656,574.8438 488.6781,573.1719 Q490.0063,571.5 492.5063,571.5 Q493.2094,571.5 493.85,571.6563 Q494.5063,571.8125 495.0688,572.125 L495.0688,574.9219 Q494.4438,574.3594 493.85,574.0938 Q493.2563,573.8125 492.6313,573.8125 Q491.2875,573.8125 490.6,574.875 Q489.9125,575.9375 489.9125,578 Q489.9125,580.0781 490.6,581.1406 Q491.2875,582.1875 492.6313,582.1875 Q493.2563,582.1875 493.85,581.9219 Q494.4438,581.6563 495.0688,581.0781 L495.0688,583.875 Z " fill="#000000"/><text fill="#000000" font-family="sans-serif" font-size="12" lengthAdjust="spacing" textLength="104" x="510.5" y="582.1543">ShipsBSTCallSign</text><line style="stroke:#A80036;stroke-width:1.5;" x1="461.05" x2="634.05" y1="594" y2="594"/><line style="stroke:#A80036;stroke-width:1.5;" x1="461.05" x2="634.05" y1="602" y2="602"/><text fill="#000000" font-family="sans-serif" font-size="11" lengthAdjust="spacing" textLength="163" x="466.05" y="616.2104">+findShipByCallsign(callsign)</text><!--MD5=[ea2206eefe09474e90beb17e18e6b3d8]
class ShipStore--><rect codeLine="24" fill="#FEFECE" filter="url(#f1kucbw98wo5z3)" height="60.8047" id="ShipStore" style="stroke:#A80036;stroke-width:1.5;" width="109" x="195.05" y="424"/><ellipse cx="218.15" cy="440" fill="#ADD1B2" rx="11" ry="11" style="stroke:#A80036;stroke-width:1.0;"/><path d="M220.6188,445.875 Q220.0406,446.1875 219.4,446.3438 Q218.7594,446.5 218.0563,446.5 Q215.5563,446.5 214.2281,444.8281 Q212.9156,443.1563 212.9156,440 Q212.9156,436.8438 214.2281,435.1719 Q215.5563,433.5 218.0563,433.5 Q218.7594,433.5 219.4,433.6563 Q220.0563,433.8125 220.6188,434.125 L220.6188,436.9219 Q219.9938,436.3594 219.4,436.0938 Q218.8063,435.8125 218.1813,435.8125 Q216.8375,435.8125 216.15,436.875 Q215.4625,437.9375 215.4625,440 Q215.4625,442.0781 216.15,443.1406 Q216.8375,444.1875 218.1813,444.1875 Q218.8063,444.1875 219.4,443.9219 Q219.9938,443.6563 220.6188,443.0781 L220.6188,445.875 Z " fill="#000000"/><text fill="#000000" font-family="sans-serif" font-size="12" lengthAdjust="spacing" textLength="59" x="233.95" y="444.1543">ShipStore</text><line style="stroke:#A80036;stroke-width:1.5;" x1="196.05" x2="303.05" y1="456" y2="456"/><line style="stroke:#A80036;stroke-width:1.5;" x1="196.05" x2="303.05" y1="464" y2="464"/><text fill="#000000" font-family="sans-serif" font-size="11" lengthAdjust="spacing" textLength="97" x="201.05" y="478.2104">getShipMmsiBst()</text><!--MD5=[1c0c3765e68dc4575d559b566278b914]
class ShipPosition--><rect codeLine="27" fill="#FEFECE" filter="url(#f1kucbw98wo5z3)" height="112.0234" id="ShipPosition" style="stroke:#A80036;stroke-width:1.5;" width="105" x="15.05" y="1085"/><ellipse cx="30.05" cy="1101" fill="#ADD1B2" rx="11" ry="11" style="stroke:#A80036;stroke-width:1.0;"/><path d="M32.5188,1106.875 Q31.9406,1107.1875 31.3,1107.3438 Q30.6594,1107.5 29.9563,1107.5 Q27.4563,1107.5 26.1281,1105.8281 Q24.8156,1104.1563 24.8156,1101 Q24.8156,1097.8438 26.1281,1096.1719 Q27.4563,1094.5 29.9563,1094.5 Q30.6594,1094.5 31.3,1094.6563 Q31.9563,1094.8125 32.5188,1095.125 L32.5188,1097.9219 Q31.8938,1097.3594 31.3,1097.0938 Q30.7063,1096.8125 30.0813,1096.8125 Q28.7375,1096.8125 28.05,1097.875 Q27.3625,1098.9375 27.3625,1101 Q27.3625,1103.0781 28.05,1104.1406 Q28.7375,1105.1875 30.0813,1105.1875 Q30.7063,1105.1875 31.3,1104.9219 Q31.8938,1104.6563 32.5188,1104.0781 L32.5188,1106.875 Z " fill="#000000"/><text fill="#000000" font-family="sans-serif" font-size="12" lengthAdjust="spacing" textLength="73" x="44.05" y="1105.1543">ShipPosition</text><line style="stroke:#A80036;stroke-width:1.5;" x1="16.05" x2="119.05" y1="1117" y2="1117"/><line style="stroke:#A80036;stroke-width:1.5;" x1="16.05" x2="119.05" y1="1125" y2="1125"/><text fill="#000000" font-family="sans-serif" font-size="11" lengthAdjust="spacing" textLength="80" x="21.05" y="1139.2104">+getLatitude()</text><text fill="#000000" font-family="sans-serif" font-size="11" lengthAdjust="spacing" textLength="90" x="21.05" y="1152.0151">+getLongitude()</text><text fill="#000000" font-family="sans-serif" font-size="11" lengthAdjust="spacing" textLength="91" x="21.05" y="1164.8198">+getBaseTime()</text><text fill="#000000" font-family="sans-serif" font-size="11" lengthAdjust="spacing" textLength="56" x="21.05" y="1177.6245">+getSog()</text><text fill="#000000" font-family="sans-serif" font-size="11" lengthAdjust="spacing" textLength="57" x="21.05" y="1190.4292">+getCog()</text><!--MD5=[004e005a2edf96352d0772cab412880f]
class PositionsBST--><rect codeLine="35" fill="#FEFECE" filter="url(#f1kucbw98wo5z3)" height="188.8516" id="PositionsBST" style="stroke:#A80036;stroke-width:1.5;" width="140" x="115.55" y="835"/><ellipse cx="145.4" cy="851" fill="#ADD1B2" rx="11" ry="11" style="stroke:#A80036;stroke-width:1.0;"/><path d="M147.8688,856.875 Q147.2906,857.1875 146.65,857.3438 Q146.0094,857.5 145.3063,857.5 Q142.8063,857.5 141.4781,855.8281 Q140.1656,854.1563 140.1656,851 Q140.1656,847.8438 141.4781,846.1719 Q142.8063,844.5 145.3063,844.5 Q146.0094,844.5 146.65,844.6563 Q147.3063,844.8125 147.8688,845.125 L147.8688,847.9219 Q147.2438,847.3594 146.65,847.0938 Q146.0563,846.8125 145.4313,846.8125 Q144.0875,846.8125 143.4,847.875 Q142.7125,848.9375 142.7125,851 Q142.7125,853.0781 143.4,854.1406 Q144.0875,855.1875 145.4313,855.1875 Q146.0563,855.1875 146.65,854.9219 Q147.2438,854.6563 147.8688,854.0781 L147.8688,856.875 Z " fill="#000000"/><text fill="#000000" font-family="sans-serif" font-size="12" lengthAdjust="spacing" textLength="75" x="162.7" y="855.1543">PositionsBST</text><line style="stroke:#A80036;stroke-width:1.5;" x1="116.55" x2="254.55" y1="867" y2="867"/><line style="stroke:#A80036;stroke-width:1.5;" x1="116.55" x2="254.55" y1="875" y2="875"/><text fill="#000000" font-family="sans-serif" font-size="11" lengthAdjust="spacing" textLength="88" x="121.55" y="889.2104">+getStartDate()</text><text fill="#000000" font-family="sans-serif" font-size="11" lengthAdjust="spacing" textLength="82" x="121.55" y="902.0151">+getEndDate()</text><text fill="#000000" font-family="sans-serif" font-size="11" lengthAdjust="spacing" textLength="79" x="121.55" y="914.8198">+getMaxSog()</text><text fill="#000000" font-family="sans-serif" font-size="11" lengthAdjust="spacing" textLength="86" x="121.55" y="927.6245">+getMeanSog()</text><text fill="#000000" font-family="sans-serif" font-size="11" lengthAdjust="spacing" textLength="87" x="121.55" y="940.4292">+getMeanCog()</text><text fill="#000000" font-family="sans-serif" font-size="11" lengthAdjust="spacing" textLength="118" x="121.55" y="953.2339">+getDepartLatitude()</text><text fill="#000000" font-family="sans-serif" font-size="11" lengthAdjust="spacing" textLength="128" x="121.55" y="966.0386">+getDepartLongitude()</text><text fill="#000000" font-family="sans-serif" font-size="11" lengthAdjust="spacing" textLength="118" x="121.55" y="978.8433">+getArrivalLatitude()</text><text fill="#000000" font-family="sans-serif" font-size="11" lengthAdjust="spacing" textLength="128" x="121.55" y="991.6479">+getArrivalLongitude()</text><text fill="#000000" font-family="sans-serif" font-size="11" lengthAdjust="spacing" textLength="119" x="121.55" y="1004.4526">+getTravelDistance()</text><text fill="#000000" font-family="sans-serif" font-size="11" lengthAdjust="spacing" textLength="112" x="121.55" y="1017.2573">+getDeltaDistance()</text><!--MD5=[cc1f51a30facb0482ef9075e429344f3]
class MovementSummaryController--><rect codeLine="50" fill="#FEFECE" filter="url(#f1kucbw98wo5z3)" height="60.8047" id="MovementSummaryController" style="stroke:#A80036;stroke-width:1.5;" width="213" x="143.05" y="7"/><ellipse cx="158.5" cy="23" fill="#ADD1B2" rx="11" ry="11" style="stroke:#A80036;stroke-width:1.0;"/><path d="M160.9688,28.875 Q160.3906,29.1875 159.75,29.3438 Q159.1094,29.5 158.4063,29.5 Q155.9063,29.5 154.5781,27.8281 Q153.2656,26.1563 153.2656,23 Q153.2656,19.8438 154.5781,18.1719 Q155.9063,16.5 158.4063,16.5 Q159.1094,16.5 159.75,16.6563 Q160.4063,16.8125 160.9688,17.125 L160.9688,19.9219 Q160.3438,19.3594 159.75,19.0938 Q159.1563,18.8125 158.5313,18.8125 Q157.1875,18.8125 156.5,19.875 Q155.8125,20.9375 155.8125,23 Q155.8125,25.0781 156.5,26.1406 Q157.1875,27.1875 158.5313,27.1875 Q159.1563,27.1875 159.75,26.9219 Q160.3438,26.6563 160.9688,26.0781 L160.9688,28.875 Z " fill="#000000"/><text fill="#000000" font-family="sans-serif" font-size="12" lengthAdjust="spacing" textLength="180" x="172.6" y="27.1543">MovementSummaryController</text><line style="stroke:#A80036;stroke-width:1.5;" x1="144.05" x2="355.05" y1="39" y2="39"/><line style="stroke:#A80036;stroke-width:1.5;" x1="144.05" x2="355.05" y1="47" y2="47"/><text fill="#000000" font-family="sans-serif" font-size="11" lengthAdjust="spacing" textLength="201" x="149.05" y="61.2104">+getShipMovementSummary(MMSI)</text><!--MD5=[238769064e7448fcd22bd18bbb28f97c]
class MovementSummaryDto--><rect codeLine="54" fill="#FEFECE" filter="url(#f1kucbw98wo5z3)" height="201.6563" id="MovementSummaryDto" style="stroke:#A80036;stroke-width:1.5;" width="175" x="303.05" y="145"/><ellipse cx="318.05" cy="161" fill="#ADD1B2" rx="11" ry="11" style="stroke:#A80036;stroke-width:1.0;"/><path d="M320.5188,166.875 Q319.9406,167.1875 319.3,167.3438 Q318.6594,167.5 317.9563,167.5 Q315.4563,167.5 314.1281,165.8281 Q312.8156,164.1563 312.8156,161 Q312.8156,157.8438 314.1281,156.1719 Q315.4563,154.5 317.9563,154.5 Q318.6594,154.5 319.3,154.6563 Q319.9563,154.8125 320.5188,155.125 L320.5188,157.9219 Q319.8938,157.3594 319.3,157.0938 Q318.7063,156.8125 318.0813,156.8125 Q316.7375,156.8125 316.05,157.875 Q315.3625,158.9375 315.3625,161 Q315.3625,163.0781 316.05,164.1406 Q316.7375,165.1875 318.0813,165.1875 Q318.7063,165.1875 319.3,164.9219 Q319.8938,164.6563 320.5188,164.0781 L320.5188,166.875 Z " fill="#000000"/><text fill="#000000" font-family="sans-serif" font-size="12" lengthAdjust="spacing" textLength="143" x="332.05" y="165.1543">MovementSummaryDto</text><line style="stroke:#A80036;stroke-width:1.5;" x1="304.05" x2="477.05" y1="177" y2="177"/><text fill="#000000" font-family="sans-serif" font-size="11" lengthAdjust="spacing" textLength="32" x="309.05" y="191.2104">name</text><text fill="#000000" font-family="sans-serif" font-size="11" lengthAdjust="spacing" textLength="52" x="309.05" y="204.0151">startDate</text><text fill="#000000" font-family="sans-serif" font-size="11" lengthAdjust="spacing" textLength="47" x="309.05" y="216.8198">endDate</text><text fill="#000000" font-family="sans-serif" font-size="11" lengthAdjust="spacing" textLength="46" x="309.05" y="229.6245">maxSog</text><text fill="#000000" font-family="sans-serif" font-size="11" lengthAdjust="spacing" textLength="53" x="309.05" y="242.4292">meanSog</text><text fill="#000000" font-family="sans-serif" font-size="11" lengthAdjust="spacing" textLength="54" x="309.05" y="255.2339">meanCog</text><text fill="#000000" font-family="sans-serif" font-size="11" lengthAdjust="spacing" textLength="82" x="309.05" y="268.0386">departLatitude</text><text fill="#000000" font-family="sans-serif" font-size="11" lengthAdjust="spacing" textLength="92" x="309.05" y="280.8433">departLongitude</text><text fill="#000000" font-family="sans-serif" font-size="11" lengthAdjust="spacing" textLength="82" x="309.05" y="293.6479">arrivalLatitude</text><text fill="#000000" font-family="sans-serif" font-size="11" lengthAdjust="spacing" textLength="92" x="309.05" y="306.4526">arrivalLongitude</text><text fill="#000000" font-family="sans-serif" font-size="11" lengthAdjust="spacing" textLength="71" x="309.05" y="319.2573">travelledDist</text><text fill="#000000" font-family="sans-serif" font-size="11" lengthAdjust="spacing" textLength="49" x="309.05" y="332.062">deltaDist</text><line style="stroke:#A80036;stroke-width:1.5;" x1="304.05" x2="477.05" y1="338.6563" y2="338.6563"/><!--MD5=[2ad440eb4c268cd15176507b05b692d1]
link MovementSummaryController to Company--><path codeLine="72" d="M235.51,68.09 C217.61,105.81 186.71,170.9 167.81,210.74 " fill="none" id="MovementSummaryController-to-Company" style="stroke:#A80036;stroke-width:1.0;stroke-dasharray:7.0,7.0;"/><polygon fill="#A80036" points="165.56,215.47,173.033,209.0548,167.7041,210.9531,165.8059,205.6242,165.56,215.47" style="stroke:#A80036;stroke-width:1.0;"/><!--MD5=[a5a36ec968898c99b4e7270e48bb1d81]
link MovementSummaryController to ShipStore--><path codeLine="73" d="M249.55,68.01 C249.55,142.67 249.55,338.76 249.55,418.76 " fill="none" id="MovementSummaryController-to-ShipStore" style="stroke:#A80036;stroke-width:1.0;stroke-dasharray:7.0,7.0;"/><polygon fill="#A80036" points="249.55,423.86,253.55,414.86,249.55,418.86,245.55,414.86,249.55,423.86" style="stroke:#A80036;stroke-width:1.0;"/><!--MD5=[1960f9291725dd5f137d6c3422a790cc]
link MovementSummaryController to MovementSummaryDto--><path codeLine="74" d="M269.75,68.09 C283.61,88.38 302.88,116.6 321.96,144.55 " fill="none" id="MovementSummaryController-MovementSummaryDto" style="stroke:#A80036;stroke-width:1.0;"/><polygon fill="#000000" points="306.3696,110.6956,303.696,101.5685,298.8419,104.8831,306.3696,110.6956" style="stroke:#000000;stroke-width:1.0;"/><text fill="#000000" font-family="sans-serif" font-size="13" lengthAdjust="spacing" textLength="48" x="312.55" y="111.0669">creates</text><!--MD5=[37a14a5de6d6fd738aee271300f4b5c8]
link Company to Ship--><path codeLine="75" d="M136.92,276.94 C107.16,342.19 46.33,501.13 94.55,623 C103.16,644.76 119.21,664.49 135.46,680.39 " fill="none" id="Company-to-Ship" style="stroke:#A80036;stroke-width:1.0;"/><polygon fill="#A80036" points="139.15,683.93,135.4479,674.8034,135.5508,680.4593,129.8949,680.5622,139.15,683.93" style="stroke:#A80036;stroke-width:1.0;"/><text fill="#000000" font-family="sans-serif" font-size="13" lengthAdjust="spacing" textLength="42" x="78.55" y="528.0669">knows</text><text fill="#000000" font-family="sans-serif" font-size="13" lengthAdjust="spacing" textLength="8" x="125.3687" y="296.3658">1</text><text fill="#000000" font-family="sans-serif" font-size="13" lengthAdjust="spacing" textLength="7" x="122.9497" y="672.8276">*</text><!--MD5=[6b4a94d80660e97c6833bde801bd4c89]
link Company to ShipStore--><path codeLine="76" d="M151.22,276.64 C152.14,307.85 157.26,357.45 178.55,394 C185.11,405.26 194.62,415.35 204.57,423.88 " fill="none" id="Company-ShipStore" style="stroke:#A80036;stroke-width:1.0;"/><polygon fill="#000000" points="185.2533,390.2673,184.9351,380.7621,179.4089,382.7645,185.2533,390.2673" style="stroke:#000000;stroke-width:1.0;"/><text fill="#000000" font-family="sans-serif" font-size="13" lengthAdjust="spacing" textLength="30" x="192.55" y="390.0669">uses</text><text fill="#000000" font-family="sans-serif" font-size="13" lengthAdjust="spacing" textLength="8" x="142.3269" y="296.6071">1</text><text fill="#000000" font-family="sans-serif" font-size="13" lengthAdjust="spacing" textLength="8" x="186.4679" y="413.1185">1</text><!--MD5=[0392011a95c4539f981148bd1b78ee80]
link ShipStore to ShipsBSTCallSign--><path codeLine="77" d="M304.21,480.44 C354.62,503.45 429.5,537.62 482.87,561.98 " fill="none" id="ShipStore-ShipsBSTCallSign" style="stroke:#A80036;stroke-width:1.0;"/><polygon fill="#000000" points="425.0987,525.6424,418.0903,519.2133,415.6498,524.5605,425.0987,525.6424" style="stroke:#000000;stroke-width:1.0;"/><text fill="#000000" font-family="sans-serif" font-size="13" lengthAdjust="spacing" textLength="30" x="429.55" y="528.0669">uses</text><text fill="#000000" font-family="sans-serif" font-size="13" lengthAdjust="spacing" textLength="8" x="312.0924" y="480.0068">1</text><text fill="#000000" font-family="sans-serif" font-size="13" lengthAdjust="spacing" textLength="8" x="459.8463" y="550.7659">1</text><!--MD5=[c2acce4d7c8ab8c40d74533e9dec3e3c]
link ShipStore to ShipsBST--><path codeLine="78" d="M235.66,485.01 C225,507.67 210.34,538.82 199.63,561.58 " fill="none" id="ShipStore-ShipsBST" style="stroke:#A80036;stroke-width:1.0;"/><polygon fill="#000000" points="224.4212,528.0906,230.9315,521.1576,225.613,518.655,224.4212,528.0906" style="stroke:#000000;stroke-width:1.0;"/><text fill="#000000" font-family="sans-serif" font-size="13" lengthAdjust="spacing" textLength="30" x="235.55" y="528.0669">uses</text><text fill="#000000" font-family="sans-serif" font-size="13" lengthAdjust="spacing" textLength="8" x="223.9702" y="504.9503">1</text><text fill="#000000" font-family="sans-serif" font-size="13" lengthAdjust="spacing" textLength="8" x="193.709" y="550.7566">1</text><!--MD5=[7a77035afec3903902857ccfcdd47cc1]
link ShipStore to ShipsBSTImo--><path codeLine="79" d="M273.42,485.01 C291.74,507.67 316.94,538.82 335.35,561.58 " fill="none" id="ShipStore-ShipsBSTImo" style="stroke:#A80036;stroke-width:1.0;"/><polygon fill="#000000" points="318.6943,527.454,315.2913,518.5731,310.7211,522.2694,318.6943,527.454" style="stroke:#000000;stroke-width:1.0;"/><text fill="#000000" font-family="sans-serif" font-size="13" lengthAdjust="spacing" textLength="30" x="324.55" y="528.0669">uses</text><text fill="#000000" font-family="sans-serif" font-size="13" lengthAdjust="spacing" textLength="8" x="269.5182" y="504.9503">1</text><text fill="#000000" font-family="sans-serif" font-size="13" lengthAdjust="spacing" textLength="8" x="321.5338" y="550.7566">1</text><!--MD5=[b457ea32acbd230d0e22037aaab2ac98]
link ShipsBST to Ship--><path codeLine="80" d="M185.55,623.16 C185.55,639.71 185.55,660.59 185.55,678.72 " fill="none" id="ShipsBST-to-Ship" style="stroke:#A80036;stroke-width:1.0;stroke-dasharray:7.0,7.0;"/><polygon fill="#A80036" points="185.55,683.76,189.55,674.76,185.55,678.76,181.55,674.76,185.55,683.76" style="stroke:#A80036;stroke-width:1.0;"/><!--MD5=[dd17fb222bdf6a9c535c11495c7c3619]
link ShipsBSTImo to Ship--><path codeLine="81" d="M296.01,623.01 C279.88,631.7 263.04,641.89 248.55,653 C238.26,660.89 228.16,670.52 219.16,679.99 " fill="none" id="ShipsBSTImo-to-Ship" style="stroke:#A80036;stroke-width:1.0;stroke-dasharray:7.0,7.0;"/><polygon fill="#A80036" points="215.64,683.74,224.7131,679.9087,219.0592,680.0919,218.8761,674.438,215.64,683.74" style="stroke:#A80036;stroke-width:1.0;"/><!--MD5=[f20b9417a46d21f71d320e71eeec7f90]
link ShipsBSTCallSign to Ship--><path codeLine="82" d="M462.68,623.16 C396.41,646.31 305.93,677.93 246.65,698.65 " fill="none" id="ShipsBSTCallSign-to-Ship" style="stroke:#A80036;stroke-width:1.0;stroke-dasharray:7.0,7.0;"/><polygon fill="#A80036" points="241.72,700.37,251.535,701.1855,246.4415,698.7246,248.9024,693.6311,241.72,700.37" style="stroke:#A80036;stroke-width:1.0;"/><!--MD5=[f56e222e1748568825f030a9b791275e]
link Ship to ShipPosition--><path codeLine="83" d="M129.53,750.46 C98.28,769.67 62.2,798.24 44.55,835 C6,915.3 27.85,1021.33 47.49,1084.88 " fill="none" id="Ship-ShipPosition" style="stroke:#A80036;stroke-width:1.0;"/><polygon fill="#000000" points="48.3587,934.4224,53.3681,926.338,47.6595,924.9376,48.3587,934.4224" style="stroke:#000000;stroke-width:1.0;"/><text fill="#000000" font-family="sans-serif" font-size="13" lengthAdjust="spacing" textLength="38" x="58.55" y="934.0669">sends</text><text fill="#000000" font-family="sans-serif" font-size="13" lengthAdjust="spacing" textLength="8" x="113.4648" y="750.5129">1</text><text fill="#000000" font-family="sans-serif" font-size="13" lengthAdjust="spacing" textLength="7" x="37.4714" y="1073.8026">*</text><!--MD5=[bd16fc4b2a08274ec71edc6d573c9239]
link Ship to PositionsBST--><path codeLine="84" d="M185.55,758.44 C185.55,779.75 185.55,807.7 185.55,834.78 " fill="none" id="Ship-PositionsBST" style="stroke:#A80036;stroke-width:1.0;"/><polygon fill="#000000" points="190.55,801.5664,193.4889,792.5213,187.6111,792.5213,190.55,801.5664" style="stroke:#000000;stroke-width:1.0;"/><text fill="#000000" font-family="sans-serif" font-size="13" lengthAdjust="spacing" textLength="30" x="199.55" y="801.0669">uses</text><text fill="#000000" font-family="sans-serif" font-size="13" lengthAdjust="spacing" textLength="8" x="176.9125" y="777.7109">1</text><text fill="#000000" font-family="sans-serif" font-size="13" lengthAdjust="spacing" textLength="8" x="177.2438" y="824.0314">1</text><!--MD5=[34b80baad36b2d2bd6b6893c22d217b3]
link PositionsBST to ShipPosition--><path codeLine="85" d="M132.76,1024.22 C122.01,1043.3 110.99,1062.88 101.13,1080.38 " fill="none" id="PositionsBST-to-ShipPosition" style="stroke:#A80036;stroke-width:1.0;stroke-dasharray:7.0,7.0;"/><polygon fill="#A80036" points="98.65,1084.78,106.5404,1078.8858,101.0952,1080.4187,99.5623,1074.9735,98.65,1084.78" style="stroke:#A80036;stroke-width:1.0;"/><!--MD5=[e18dbd49a52e60917b88bf3b4a72eceb]
link ShipsBST to BST--><path codeLine="86" d="M215.78,623.14 C230.91,639.67 248.17,661.45 258.55,684 C294.34,761.73 329.29,1024.65 340.12,1111.73 " fill="none" id="ShipsBST-to-BST" style="stroke:#A80036;stroke-width:1.0;stroke-dasharray:7.0,7.0;"/><polygon fill="#A80036" points="340.74,1116.72,343.6028,1107.2964,340.1251,1111.758,335.6636,1108.2802,340.74,1116.72" style="stroke:#A80036;stroke-width:1.0;"/><!--MD5=[0abc6ae50c94f218df3534f80cea96bd]
link ShipsBSTImo to BST--><path codeLine="87" d="M358.68,623.27 C355.88,719.02 347.11,1018.24 344.38,1111.77 " fill="none" id="ShipsBSTImo-to-BST" style="stroke:#A80036;stroke-width:1.0;stroke-dasharray:7.0,7.0;"/><polygon fill="#A80036" points="344.23,1116.85,348.5107,1107.9801,344.3871,1111.8525,340.5147,1107.7288,344.23,1116.85" style="stroke:#A80036;stroke-width:1.0;"/><!--MD5=[a3204288f96958ede1c73db2e0f8f4fe]
link ShipsBSTCallSign to BST--><path codeLine="88" d="M536.44,623.27 C500.66,719.12 388.78,1018.84 353.98,1112.05 " fill="none" id="ShipsBSTCallSign-to-BST" style="stroke:#A80036;stroke-width:1.0;stroke-dasharray:7.0,7.0;"/><polygon fill="#A80036" points="352.19,1116.85,359.0766,1109.8091,353.9331,1112.1637,351.5785,1107.0201,352.19,1116.85" style="stroke:#A80036;stroke-width:1.0;"/><!--MD5=[1188dce5d03092776280b0cb741a6d56]
link PositionsBST to BST--><path codeLine="89" d="M255.77,1023.61 C280.13,1055.91 305.62,1089.71 322.82,1112.51 " fill="none" id="PositionsBST-to-BST" style="stroke:#A80036;stroke-width:1.0;stroke-dasharray:7.0,7.0;"/><polygon fill="#A80036" points="325.93,1116.64,323.7081,1107.045,322.9209,1112.6469,317.3191,1111.8596,325.93,1116.64" style="stroke:#A80036;stroke-width:1.0;"/><!--MD5=[07886f2f1b9ed819e391029fd69c61e4]
@startuml
skinparam classAttributeIconSize 0

class Company{
    +getShipBst()
}
Interface BST{}

class Ship {
    +getName()
    +getMovements()
}

class ShipsBST{
    +findShipByMmsi(MMSI)
}

class ShipsBSTImo{
    +findShipByImo(imo)
}
class ShipsBSTCallSign{
     +findShipByCallsign(callsign)
 }

class ShipStore{
    getShipMmsiBst()
}
class ShipPosition{
    +getLatitude()
    +getLongitude()
    +getBaseTime()
    +getSog()
    +getCog()
}

class PositionsBST {
    +getStartDate()
    +getEndDate()
    +getMaxSog()
    +getMeanSog()
    +getMeanCog()
    +getDepartLatitude()
    +getDepartLongitude()
    +getArrivalLatitude()
    +getArrivalLongitude()
    +getTravelDistance()
    +getDeltaDistance()
}


class MovementSummaryController {
+getShipMovementSummary(MMSI)
}

class MovementSummaryDto{
    name
    startDate
    endDate
    maxSog
    meanSog
    meanCog
    departLatitude
    departLongitude
    arrivalLatitude
    arrivalLongitude
    travelledDist
    deltaDist
}




MovementSummaryController ..> Company
MovementSummaryController ..> ShipStore
MovementSummaryController - - MovementSummaryDto: creates >
Company "1" - -> "*" Ship : knows
Company "1" - - "1" ShipStore : uses >
ShipStore "1" - - "1" ShipsBSTCallSign : uses >
ShipStore "1" - - "1" ShipsBST : uses >
ShipStore "1" - - "1" ShipsBSTImo : uses >
ShipsBST ..> Ship
ShipsBSTImo ..> Ship
ShipsBSTCallSign ..> Ship
Ship "1" - - "*" ShipPosition : sends >
Ship "1" - - "1" PositionsBST : uses >
PositionsBST ..> ShipPosition
ShipsBST ..> BST
ShipsBSTImo ..> BST
ShipsBSTCallSign ..> BST
PositionsBST ..> BST

@enduml

PlantUML version 1.2021.11(Sat Oct 02 14:26:11 WEST 2021)
(GPL source distribution)
Java Runtime: OpenJDK Runtime Environment
JVM: OpenJDK 64-Bit Server VM
Default Encoding: UTF-8
Language: en
Country: US
--></g></svg>