<?xml version="1.0" encoding="UTF-8" standalone="no"?><svg xmlns="http://www.w3.org/2000/svg" xmlns:xlink="http://www.w3.org/1999/xlink" contentScriptType="application/ecmascript" contentStyleType="text/css" height="874px" preserveAspectRatio="none" style="width:617px;height:874px;background:#FFFFFF;" version="1.1" viewBox="0 0 617 874" width="617px" zoomAndPan="magnify"><defs><filter height="300%" id="fxniqvrn79i0q" width="300%" x="-1" y="-1"><feGaussianBlur result="blurOut" stdDeviation="2.0"/><feColorMatrix in="blurOut" result="blurOut2" type="matrix" values="0 0 0 0 0 0 0 0 0 0 0 0 0 0 0 0 0 0 .4 0"/><feOffset dx="4.0" dy="4.0" in="blurOut2" result="blurOut3"/><feBlend in="SourceGraphic" in2="blurOut3" mode="normal"/></filter></defs><g><!--MD5=[02e4b9b7573f1156f41e60aa5b4e25a4]
class Company--><rect codeLine="3" fill="#FEFECE" filter="url(#fxniqvrn79i0q)" height="60.8047" id="Company" style="stroke:#A80036;stroke-width:1.5;" width="101" x="88.4" y="142"/><ellipse cx="108.8" cy="158" fill="#ADD1B2" rx="11" ry="11" style="stroke:#A80036;stroke-width:1.0;"/><path d="M111.2688,163.875 Q110.6906,164.1875 110.05,164.3438 Q109.4094,164.5 108.7063,164.5 Q106.2063,164.5 104.8781,162.8281 Q103.5656,161.1563 103.5656,158 Q103.5656,154.8438 104.8781,153.1719 Q106.2063,151.5 108.7063,151.5 Q109.4094,151.5 110.05,151.6563 Q110.7063,151.8125 111.2688,152.125 L111.2688,154.9219 Q110.6438,154.3594 110.05,154.0938 Q109.4563,153.8125 108.8313,153.8125 Q107.4875,153.8125 106.8,154.875 Q106.1125,155.9375 106.1125,158 Q106.1125,160.0781 106.8,161.1406 Q107.4875,162.1875 108.8313,162.1875 Q109.4563,162.1875 110.05,161.9219 Q110.6438,161.6563 111.2688,161.0781 L111.2688,163.875 Z " fill="#000000"/><text fill="#000000" font-family="sans-serif" font-size="12" lengthAdjust="spacing" textLength="57" x="124" y="162.1543">Company</text><line style="stroke:#A80036;stroke-width:1.5;" x1="89.4" x2="188.4" y1="174" y2="174"/><line style="stroke:#A80036;stroke-width:1.5;" x1="89.4" x2="188.4" y1="182" y2="182"/><text fill="#000000" font-family="sans-serif" font-size="11" lengthAdjust="spacing" textLength="89" x="94.4" y="196.2104">+getShipStore()</text><!--MD5=[b4a9ab6cffd58937cfea07eb2954e1bd]
class BST--><rect codeLine="6" fill="#FEFECE" filter="url(#fxniqvrn79i0q)" height="48" id="BST" style="stroke:#A80036;stroke-width:1.5;" width="55" x="385.4" y="806.5"/><ellipse cx="400.4" cy="822.5" fill="#B4A7E5" rx="11" ry="11" style="stroke:#A80036;stroke-width:1.0;"/><path d="M396.8219,818.2813 L396.8219,816 L404.2125,816 L404.2125,818.2813 L401.7438,818.2813 L401.7438,826.7344 L404.2125,826.7344 L404.2125,829 L396.8219,829 L396.8219,826.7344 L399.2906,826.7344 L399.2906,818.2813 L396.8219,818.2813 Z " fill="#000000"/><text fill="#000000" font-family="sans-serif" font-size="12" font-style="italic" lengthAdjust="spacing" textLength="23" x="414.4" y="826.6543">BST</text><line style="stroke:#A80036;stroke-width:1.5;" x1="386.4" x2="439.4" y1="838.5" y2="838.5"/><line style="stroke:#A80036;stroke-width:1.5;" x1="386.4" x2="439.4" y1="846.5" y2="846.5"/><!--MD5=[4308a223f203dbd64353ded297da1c90]
class ShipsStore--><rect codeLine="8" fill="#FEFECE" filter="url(#fxniqvrn79i0q)" height="60.8047" id="ShipsStore" style="stroke:#A80036;stroke-width:1.5;" width="195" x="145.4" y="280"/><ellipse cx="206.15" cy="296" fill="#ADD1B2" rx="11" ry="11" style="stroke:#A80036;stroke-width:1.0;"/><path d="M208.6188,301.875 Q208.0406,302.1875 207.4,302.3438 Q206.7594,302.5 206.0563,302.5 Q203.5563,302.5 202.2281,300.8281 Q200.9156,299.1563 200.9156,296 Q200.9156,292.8438 202.2281,291.1719 Q203.5563,289.5 206.0563,289.5 Q206.7594,289.5 207.4,289.6563 Q208.0563,289.8125 208.6188,290.125 L208.6188,292.9219 Q207.9938,292.3594 207.4,292.0938 Q206.8063,291.8125 206.1813,291.8125 Q204.8375,291.8125 204.15,292.875 Q203.4625,293.9375 203.4625,296 Q203.4625,298.0781 204.15,299.1406 Q204.8375,300.1875 206.1813,300.1875 Q206.8063,300.1875 207.4,299.9219 Q207.9938,299.6563 208.6188,299.0781 L208.6188,301.875 Z " fill="#000000"/><text fill="#000000" font-family="sans-serif" font-size="12" lengthAdjust="spacing" textLength="65" x="226.65" y="300.1543">ShipsStore</text><line style="stroke:#A80036;stroke-width:1.5;" x1="146.4" x2="339.4" y1="312" y2="312"/><line style="stroke:#A80036;stroke-width:1.5;" x1="146.4" x2="339.4" y1="320" y2="320"/><text fill="#000000" font-family="sans-serif" font-size="11" lengthAdjust="spacing" textLength="183" x="151.4" y="334.2104">+Ship findShipByAnyCode(code)</text><!--MD5=[0dc7f2ddb409b58bcf52b12238c25399]
class Ship--><rect codeLine="11" fill="#FEFECE" filter="url(#fxniqvrn79i0q)" height="60.8047" id="Ship" style="stroke:#A80036;stroke-width:1.5;" width="61" x="227.4" y="540"/><ellipse cx="243.3" cy="556" fill="#ADD1B2" rx="11" ry="11" style="stroke:#A80036;stroke-width:1.0;"/><path d="M245.7688,561.875 Q245.1906,562.1875 244.55,562.3438 Q243.9094,562.5 243.2063,562.5 Q240.7063,562.5 239.3781,560.8281 Q238.0656,559.1563 238.0656,556 Q238.0656,552.8438 239.3781,551.1719 Q240.7063,549.5 243.2063,549.5 Q243.9094,549.5 244.55,549.6563 Q245.2063,549.8125 245.7688,550.125 L245.7688,552.9219 Q245.1438,552.3594 244.55,552.0938 Q243.9563,551.8125 243.3313,551.8125 Q241.9875,551.8125 241.3,552.875 Q240.6125,553.9375 240.6125,556 Q240.6125,558.0781 241.3,559.1406 Q241.9875,560.1875 243.3313,560.1875 Q243.9563,560.1875 244.55,559.9219 Q245.1438,559.6563 245.7688,559.0781 L245.7688,561.875 Z " fill="#000000"/><text fill="#000000" font-family="sans-serif" font-size="12" lengthAdjust="spacing" textLength="27" x="257.5" y="560.1543">Ship</text><line style="stroke:#A80036;stroke-width:1.5;" x1="228.4" x2="287.4" y1="572" y2="572"/><text fill="#000000" font-family="sans-serif" font-size="11" lengthAdjust="spacing" textLength="49" x="233.4" y="586.2104">+getters</text><line style="stroke:#A80036;stroke-width:1.5;" x1="228.4" x2="287.4" y1="592.8047" y2="592.8047"/><!--MD5=[43adf079e4aaffd3a283c2c0454b404c]
class ShipsBST--><rect codeLine="15" fill="#FEFECE" filter="url(#fxniqvrn79i0q)" height="60.8047" id="ShipsBST" style="stroke:#A80036;stroke-width:1.5;" width="146" x="290.9" y="418"/><ellipse cx="332" cy="434" fill="#ADD1B2" rx="11" ry="11" style="stroke:#A80036;stroke-width:1.0;"/><path d="M334.4688,439.875 Q333.8906,440.1875 333.25,440.3438 Q332.6094,440.5 331.9063,440.5 Q329.4063,440.5 328.0781,438.8281 Q326.7656,437.1563 326.7656,434 Q326.7656,430.8438 328.0781,429.1719 Q329.4063,427.5 331.9063,427.5 Q332.6094,427.5 333.25,427.6563 Q333.9063,427.8125 334.4688,428.125 L334.4688,430.9219 Q333.8438,430.3594 333.25,430.0938 Q332.6563,429.8125 332.0313,429.8125 Q330.6875,429.8125 330,430.875 Q329.3125,431.9375 329.3125,434 Q329.3125,436.0781 330,437.1406 Q330.6875,438.1875 332.0313,438.1875 Q332.6563,438.1875 333.25,437.9219 Q333.8438,437.6563 334.4688,437.0781 L334.4688,439.875 Z " fill="#000000"/><text fill="#000000" font-family="sans-serif" font-size="12" lengthAdjust="spacing" textLength="56" x="351.8" y="438.1543">ShipsBST</text><line style="stroke:#A80036;stroke-width:1.5;" x1="291.9" x2="435.9" y1="450" y2="450"/><line style="stroke:#A80036;stroke-width:1.5;" x1="291.9" x2="435.9" y1="458" y2="458"/><text fill="#000000" font-family="sans-serif" font-size="11" lengthAdjust="spacing" textLength="134" x="296.9" y="472.2104">+findShipByMmsi(MMSI)</text><!--MD5=[161eb210b6023c573fce756084aec649]
class ShipsBSTImo--><rect codeLine="19" fill="#FEFECE" filter="url(#fxniqvrn79i0q)" height="60.8047" id="ShipsBSTImo" style="stroke:#A80036;stroke-width:1.5;" width="131" x="472.4" y="418"/><ellipse cx="496.4" cy="434" fill="#ADD1B2" rx="11" ry="11" style="stroke:#A80036;stroke-width:1.0;"/><path d="M498.8688,439.875 Q498.2906,440.1875 497.65,440.3438 Q497.0094,440.5 496.3063,440.5 Q493.8063,440.5 492.4781,438.8281 Q491.1656,437.1563 491.1656,434 Q491.1656,430.8438 492.4781,429.1719 Q493.8063,427.5 496.3063,427.5 Q497.0094,427.5 497.65,427.6563 Q498.3063,427.8125 498.8688,428.125 L498.8688,430.9219 Q498.2438,430.3594 497.65,430.0938 Q497.0563,429.8125 496.4313,429.8125 Q495.0875,429.8125 494.4,430.875 Q493.7125,431.9375 493.7125,434 Q493.7125,436.0781 494.4,437.1406 Q495.0875,438.1875 496.4313,438.1875 Q497.0563,438.1875 497.65,437.9219 Q498.2438,437.6563 498.8688,437.0781 L498.8688,439.875 Z " fill="#000000"/><text fill="#000000" font-family="sans-serif" font-size="12" lengthAdjust="spacing" textLength="79" x="512.4" y="438.1543">ShipsBSTImo</text><line style="stroke:#A80036;stroke-width:1.5;" x1="473.4" x2="602.4" y1="450" y2="450"/><line style="stroke:#A80036;stroke-width:1.5;" x1="473.4" x2="602.4" y1="458" y2="458"/><text fill="#000000" font-family="sans-serif" font-size="11" lengthAdjust="spacing" textLength="119" x="478.4" y="472.2104">+findShipByImo(imo)</text><!--MD5=[c18b351740c5329e2353b0d734c891ce]
class ShipsBSTCallSign--><rect codeLine="22" fill="#FEFECE" filter="url(#fxniqvrn79i0q)" height="60.8047" id="ShipsBSTCallSign" style="stroke:#A80036;stroke-width:1.5;" width="175" x="80.4" y="418"/><ellipse cx="112.95" cy="434" fill="#ADD1B2" rx="11" ry="11" style="stroke:#A80036;stroke-width:1.0;"/><path d="M115.4188,439.875 Q114.8406,440.1875 114.2,440.3438 Q113.5594,440.5 112.8563,440.5 Q110.3563,440.5 109.0281,438.8281 Q107.7156,437.1563 107.7156,434 Q107.7156,430.8438 109.0281,429.1719 Q110.3563,427.5 112.8563,427.5 Q113.5594,427.5 114.2,427.6563 Q114.8563,427.8125 115.4188,428.125 L115.4188,430.9219 Q114.7938,430.3594 114.2,430.0938 Q113.6063,429.8125 112.9813,429.8125 Q111.6375,429.8125 110.95,430.875 Q110.2625,431.9375 110.2625,434 Q110.2625,436.0781 110.95,437.1406 Q111.6375,438.1875 112.9813,438.1875 Q113.6063,438.1875 114.2,437.9219 Q114.7938,437.6563 115.4188,437.0781 L115.4188,439.875 Z " fill="#000000"/><text fill="#000000" font-family="sans-serif" font-size="12" lengthAdjust="spacing" textLength="104" x="130.85" y="438.1543">ShipsBSTCallSign</text><line style="stroke:#A80036;stroke-width:1.5;" x1="81.4" x2="254.4" y1="450" y2="450"/><line style="stroke:#A80036;stroke-width:1.5;" x1="81.4" x2="254.4" y1="458" y2="458"/><text fill="#000000" font-family="sans-serif" font-size="11" lengthAdjust="spacing" textLength="163" x="86.4" y="472.2104">+findShipByCallsign(callsign)</text><!--MD5=[1c0c3765e68dc4575d559b566278b914]
class ShipPosition--><rect codeLine="26" fill="#FEFECE" filter="url(#fxniqvrn79i0q)" height="60.8047" id="ShipPosition" style="stroke:#A80036;stroke-width:1.5;" width="105" x="232.4" y="800"/><ellipse cx="247.4" cy="816" fill="#ADD1B2" rx="11" ry="11" style="stroke:#A80036;stroke-width:1.0;"/><path d="M249.8688,821.875 Q249.2906,822.1875 248.65,822.3438 Q248.0094,822.5 247.3063,822.5 Q244.8063,822.5 243.4781,820.8281 Q242.1656,819.1563 242.1656,816 Q242.1656,812.8438 243.4781,811.1719 Q244.8063,809.5 247.3063,809.5 Q248.0094,809.5 248.65,809.6563 Q249.3063,809.8125 249.8688,810.125 L249.8688,812.9219 Q249.2438,812.3594 248.65,812.0938 Q248.0563,811.8125 247.4313,811.8125 Q246.0875,811.8125 245.4,812.875 Q244.7125,813.9375 244.7125,816 Q244.7125,818.0781 245.4,819.1406 Q246.0875,820.1875 247.4313,820.1875 Q248.0563,820.1875 248.65,819.9219 Q249.2438,819.6563 249.8688,819.0781 L249.8688,821.875 Z " fill="#000000"/><text fill="#000000" font-family="sans-serif" font-size="12" lengthAdjust="spacing" textLength="73" x="261.4" y="820.1543">ShipPosition</text><line style="stroke:#A80036;stroke-width:1.5;" x1="233.4" x2="336.4" y1="832" y2="832"/><line style="stroke:#A80036;stroke-width:1.5;" x1="233.4" x2="336.4" y1="840" y2="840"/><text fill="#000000" font-family="sans-serif" font-size="11" lengthAdjust="spacing" textLength="61" x="238.4" y="854.2104">+toString()</text><!--MD5=[004e005a2edf96352d0772cab412880f]
class PositionsBST--><rect codeLine="30" fill="#FEFECE" filter="url(#fxniqvrn79i0q)" height="60.8047" id="PositionsBST" style="stroke:#A80036;stroke-width:1.5;" width="107" x="295.4" y="678"/><ellipse cx="310.4" cy="694" fill="#ADD1B2" rx="11" ry="11" style="stroke:#A80036;stroke-width:1.0;"/><path d="M312.8688,699.875 Q312.2906,700.1875 311.65,700.3438 Q311.0094,700.5 310.3063,700.5 Q307.8063,700.5 306.4781,698.8281 Q305.1656,697.1563 305.1656,694 Q305.1656,690.8438 306.4781,689.1719 Q307.8063,687.5 310.3063,687.5 Q311.0094,687.5 311.65,687.6563 Q312.3063,687.8125 312.8688,688.125 L312.8688,690.9219 Q312.2438,690.3594 311.65,690.0938 Q311.0563,689.8125 310.4313,689.8125 Q309.0875,689.8125 308.4,690.875 Q307.7125,691.9375 307.7125,694 Q307.7125,696.0781 308.4,697.1406 Q309.0875,698.1875 310.4313,698.1875 Q311.0563,698.1875 311.65,697.9219 Q312.2438,697.6563 312.8688,697.0781 L312.8688,699.875 Z " fill="#000000"/><text fill="#000000" font-family="sans-serif" font-size="12" lengthAdjust="spacing" textLength="75" x="324.4" y="698.1543">PositionsBST</text><line style="stroke:#A80036;stroke-width:1.5;" x1="296.4" x2="401.4" y1="710" y2="710"/><line style="stroke:#A80036;stroke-width:1.5;" x1="296.4" x2="401.4" y1="718" y2="718"/><text fill="#000000" font-family="sans-serif" font-size="11" lengthAdjust="spacing" textLength="61" x="301.4" y="732.2104">+toString()</text><!--MD5=[fc74649a38517bf81632f34af07d45f2]
class searchShipController--><rect codeLine="35" fill="#FEFECE" filter="url(#fxniqvrn79i0q)" height="73.6094" id="searchShipController" style="stroke:#A80036;stroke-width:1.5;" width="195" x="93.4" y="7"/><ellipse cx="125.5" cy="23" fill="#ADD1B2" rx="11" ry="11" style="stroke:#A80036;stroke-width:1.0;"/><path d="M127.9688,28.875 Q127.3906,29.1875 126.75,29.3438 Q126.1094,29.5 125.4063,29.5 Q122.9063,29.5 121.5781,27.8281 Q120.2656,26.1563 120.2656,23 Q120.2656,19.8438 121.5781,18.1719 Q122.9063,16.5 125.4063,16.5 Q126.1094,16.5 126.75,16.6563 Q127.4063,16.8125 127.9688,17.125 L127.9688,19.9219 Q127.3438,19.3594 126.75,19.0938 Q126.1563,18.8125 125.5313,18.8125 Q124.1875,18.8125 123.5,19.875 Q122.8125,20.9375 122.8125,23 Q122.8125,25.0781 123.5,26.1406 Q124.1875,27.1875 125.5313,27.1875 Q126.1563,27.1875 126.75,26.9219 Q127.3438,26.6563 127.9688,26.0781 L127.9688,28.875 Z " fill="#000000"/><text fill="#000000" font-family="sans-serif" font-size="12" lengthAdjust="spacing" textLength="125" x="143.3" y="27.1543">searchShipController</text><line style="stroke:#A80036;stroke-width:1.5;" x1="94.4" x2="287.4" y1="39" y2="39"/><line style="stroke:#A80036;stroke-width:1.5;" x1="94.4" x2="287.4" y1="47" y2="47"/><text fill="#000000" font-family="sans-serif" font-size="11" lengthAdjust="spacing" textLength="183" x="99.4" y="61.2104">+String getShipInfoByAnyCode()</text><text fill="#000000" font-family="sans-serif" font-size="11" lengthAdjust="spacing" textLength="162" x="99.4" y="74.0151">+String shipDetailsToString()</text><!--MD5=[0c74b562fa286403f0202718f897e702]
link searchShipController to Company--><path codeLine="41" d="M176,81.25 C168.82,98.73 160.24,119.61 153.14,136.87 " fill="none" id="searchShipController-to-Company" style="stroke:#A80036;stroke-width:1.0;stroke-dasharray:7.0,7.0;"/><polygon fill="#A80036" points="151.18,141.64,158.2981,134.8332,153.0787,137.0145,150.8973,131.7952,151.18,141.64" style="stroke:#A80036;stroke-width:1.0;"/><!--MD5=[26b9f9d69124e17b36c97a46368c2bb1]
link searchShipController to ShipsStore--><path codeLine="42" d="M198.03,81.22 C208.06,132.24 226.22,224.64 236.09,274.81 " fill="none" id="searchShipController-to-ShipsStore" style="stroke:#A80036;stroke-width:1.0;stroke-dasharray:7.0,7.0;"/><polygon fill="#A80036" points="237.07,279.83,239.2704,270.2301,236.1114,274.9227,231.4188,271.7638,237.07,279.83" style="stroke:#A80036;stroke-width:1.0;"/><!--MD5=[37a14a5de6d6fd738aee271300f4b5c8]
link Company to Ship--><path codeLine="43" d="M117.35,203.3 C78.54,260.93 6,389.86 62.9,479 C98,533.98 176.06,556.07 222.06,564.55 " fill="none" id="Company-to-Ship" style="stroke:#A80036;stroke-width:1.0;"/><polygon fill="#A80036" points="227.23,565.47,219.0794,559.9412,222.3088,564.5856,217.6644,567.815,227.23,565.47" style="stroke:#A80036;stroke-width:1.0;"/><text fill="#000000" font-family="sans-serif" font-size="13" lengthAdjust="spacing" textLength="42" x="45.9" y="384.0669">knows</text><text fill="#000000" font-family="sans-serif" font-size="13" lengthAdjust="spacing" textLength="8" x="104.3198" y="222.9395">1</text><text fill="#000000" font-family="sans-serif" font-size="13" lengthAdjust="spacing" textLength="7" x="212.3282" y="559.6773">*</text><!--MD5=[44e7f9b9c37d60f601e8cdfcd1094fad]
link Company to ShipsStore--><path codeLine="44" d="M148.03,203.18 C153.5,218.11 161.45,235.96 171.9,250 C180.07,260.96 190.64,271.2 201.12,280 " fill="none" id="Company-ShipsStore" style="stroke:#A80036;stroke-width:1.0;"/><polygon fill="#000000" points="179.7427,245.6797,177.018,236.5678,172.1825,239.9096,179.7427,245.6797" style="stroke:#000000;stroke-width:1.0;"/><text fill="#000000" font-family="sans-serif" font-size="13" lengthAdjust="spacing" textLength="30" x="185.9" y="246.0669">uses</text><text fill="#000000" font-family="sans-serif" font-size="13" lengthAdjust="spacing" textLength="8" x="141.04" y="222.7959">1</text><text fill="#000000" font-family="sans-serif" font-size="13" lengthAdjust="spacing" textLength="8" x="183.1056" y="268.7903">1</text><!--MD5=[af9d0b2e81c337ab0f966317898ccd3e]
link ShipsStore to ShipsBSTCallSign--><path codeLine="45" d="M226.63,341.01 C214.14,363.67 196.96,394.82 184.41,417.58 " fill="none" id="ShipsStore-ShipsBSTCallSign" style="stroke:#A80036;stroke-width:1.0;"/><polygon fill="#000000" points="211.4857,383.9449,218.4268,377.4432,213.2796,374.605,211.4857,383.9449" style="stroke:#000000;stroke-width:1.0;"/><text fill="#000000" font-family="sans-serif" font-size="13" lengthAdjust="spacing" textLength="30" x="222.9" y="384.0669">uses</text><text fill="#000000" font-family="sans-serif" font-size="13" lengthAdjust="spacing" textLength="8" x="214.4493" y="360.9503">1</text><text fill="#000000" font-family="sans-serif" font-size="13" lengthAdjust="spacing" textLength="8" x="178.9902" y="406.7566">1</text><!--MD5=[35dfb0066db7f7f10e2c637a799521a8]
link ShipsStore to ShipsBST--><path codeLine="46" d="M269.16,341.01 C289.32,363.67 317.03,394.82 337.28,417.58 " fill="none" id="ShipsStore-ShipsBST" style="stroke:#A80036;stroke-width:1.0;"/><polygon fill="#000000" points="318.2234,383.3021,314.4071,374.5908,310.0156,378.4976,318.2234,383.3021" style="stroke:#000000;stroke-width:1.0;"/><text fill="#000000" font-family="sans-serif" font-size="13" lengthAdjust="spacing" textLength="30" x="323.9" y="384.0669">uses</text><text fill="#000000" font-family="sans-serif" font-size="13" lengthAdjust="spacing" textLength="8" x="265.7511" y="360.9503">1</text><text fill="#000000" font-family="sans-serif" font-size="13" lengthAdjust="spacing" textLength="8" x="322.9646" y="406.7566">1</text><!--MD5=[494ad59de8ea1e8718922807a84ca283]
link ShipsStore to ShipsBSTImo--><path codeLine="47" d="M306.92,341.01 C356.31,363.78 424.34,395.14 473.76,417.93 " fill="none" id="ShipsStore-ShipsBSTImo" style="stroke:#A80036;stroke-width:1.0;"/><polygon fill="#000000" points="417.4407,381.6598,410.457,375.2039,407.996,380.5417,417.4407,381.6598" style="stroke:#000000;stroke-width:1.0;"/><text fill="#000000" font-family="sans-serif" font-size="13" lengthAdjust="spacing" textLength="30" x="421.9" y="384.0669">uses</text><text fill="#000000" font-family="sans-serif" font-size="13" lengthAdjust="spacing" textLength="8" x="311.2991" y="360.9503">1</text><text fill="#000000" font-family="sans-serif" font-size="13" lengthAdjust="spacing" textLength="8" x="456.6037" y="409.9033">1</text><!--MD5=[b457ea32acbd230d0e22037aaab2ac98]
link ShipsBST to Ship--><path codeLine="48" d="M337.7,479.16 C322.54,496.33 303.41,517.98 287.68,535.79 " fill="none" id="ShipsBST-to-Ship" style="stroke:#A80036;stroke-width:1.0;stroke-dasharray:7.0,7.0;"/><polygon fill="#A80036" points="284.17,539.76,293.1224,535.6546,287.4767,536.0096,287.1217,530.3639,284.17,539.76" style="stroke:#A80036;stroke-width:1.0;"/><!--MD5=[dd17fb222bdf6a9c535c11495c7c3619]
link ShipsBSTImo to Ship--><path codeLine="49" d="M472.26,477.63 C416.42,501.56 338.37,535.02 293.48,554.25 " fill="none" id="ShipsBSTImo-to-Ship" style="stroke:#A80036;stroke-width:1.0;stroke-dasharray:7.0,7.0;"/><polygon fill="#A80036" points="288.71,556.3,298.558,556.4313,293.3057,554.3304,295.4066,549.0781,288.71,556.3" style="stroke:#A80036;stroke-width:1.0;"/><!--MD5=[f20b9417a46d21f71d320e71eeec7f90]
link ShipsBSTCallSign to Ship--><path codeLine="50" d="M190.15,479.16 C202.92,496.18 219,517.62 232.29,535.34 " fill="none" id="ShipsBSTCallSign-to-Ship" style="stroke:#A80036;stroke-width:1.0;stroke-dasharray:7.0,7.0;"/><polygon fill="#A80036" points="235.6,539.76,233.4,530.16,232.6,535.76,227,534.96,235.6,539.76" style="stroke:#A80036;stroke-width:1.0;"/><!--MD5=[f56e222e1748568825f030a9b791275e]
link Ship to ShipPosition--><path codeLine="51" d="M243.4,601.28 C228.91,635.11 210.66,691.75 224.9,739 C231.65,761.38 245.94,783.31 258.88,799.98 " fill="none" id="Ship-ShipPosition" style="stroke:#A80036;stroke-width:1.0;"/><polygon fill="#000000" points="230.2884,713.5513,232.5159,704.3053,226.6558,704.7618,230.2884,713.5513" style="stroke:#000000;stroke-width:1.0;"/><text fill="#000000" font-family="sans-serif" font-size="13" lengthAdjust="spacing" textLength="38" x="238.9" y="713.0669">sends</text><text fill="#000000" font-family="sans-serif" font-size="13" lengthAdjust="spacing" textLength="8" x="231.7578" y="620.9156">1</text><text fill="#000000" font-family="sans-serif" font-size="13" lengthAdjust="spacing" textLength="7" x="245.4225" y="788.7659">*</text><!--MD5=[bd16fc4b2a08274ec71edc6d573c9239]
link Ship to PositionsBST--><path codeLine="52" d="M277.65,601.01 C292.81,623.67 313.66,654.82 328.88,677.58 " fill="none" id="Ship-PositionsBST" style="stroke:#A80036;stroke-width:1.0;"/><polygon fill="#000000" points="315.6804,643.7221,313.0933,634.5701,308.208,637.8387,315.6804,643.7221" style="stroke:#000000;stroke-width:1.0;"/><text fill="#000000" font-family="sans-serif" font-size="13" lengthAdjust="spacing" textLength="30" x="321.9" y="644.0669">uses</text><text fill="#000000" font-family="sans-serif" font-size="13" lengthAdjust="spacing" textLength="8" x="272.8984" y="620.9503">1</text><text fill="#000000" font-family="sans-serif" font-size="13" lengthAdjust="spacing" textLength="8" x="315.9259" y="666.7566">1</text><!--MD5=[34b80baad36b2d2bd6b6893c22d217b3]
link PositionsBST to ShipPosition--><path codeLine="53" d="M333.08,739.16 C324.01,756.18 312.57,777.62 303.12,795.34 " fill="none" id="PositionsBST-to-ShipPosition" style="stroke:#A80036;stroke-width:1.0;stroke-dasharray:7.0,7.0;"/><polygon fill="#A80036" points="300.76,799.76,308.5125,793.6855,303.104,795.3435,301.4461,789.9351,300.76,799.76" style="stroke:#A80036;stroke-width:1.0;"/><!--MD5=[e18dbd49a52e60917b88bf3b4a72eceb]
link ShipsBST to BST--><path codeLine="54" d="M373.56,479.02 C387.12,522.16 411.12,605.21 419.9,678 C423.15,704.92 420.95,711.91 419.9,739 C419.1,759.84 417.26,783.31 415.66,801.13 " fill="none" id="ShipsBST-to-BST" style="stroke:#A80036;stroke-width:1.0;stroke-dasharray:7.0,7.0;"/><polygon fill="#A80036" points="415.18,806.47,419.9873,797.8741,415.6378,801.491,412.0209,797.1415,415.18,806.47" style="stroke:#A80036;stroke-width:1.0;"/><!--MD5=[0abc6ae50c94f218df3534f80cea96bd]
link ShipsBSTImo to BST--><path codeLine="55" d="M531.22,479.32 C517.91,536.74 485.71,666.19 443.9,770 C439.6,780.68 434,791.99 428.74,801.84 " fill="none" id="ShipsBSTImo-to-BST" style="stroke:#A80036;stroke-width:1.0;stroke-dasharray:7.0,7.0;"/><polygon fill="#A80036" points="426.36,806.26,434.1511,800.2352,428.7322,801.8586,427.1088,796.4396,426.36,806.26" style="stroke:#A80036;stroke-width:1.0;"/><!--MD5=[a3204288f96958ede1c73db2e0f8f4fe]
link ShipsBSTCallSign to BST--><path codeLine="56" d="M163.53,479.38 C156.92,536.29 150.87,661.45 210.9,739 C253.45,793.96 291.89,770.67 354.9,800 C363.37,803.94 372.42,808.41 380.79,812.66 " fill="none" id="ShipsBSTCallSign-to-BST" style="stroke:#A80036;stroke-width:1.0;stroke-dasharray:7.0,7.0;"/><polygon fill="#A80036" points="385.37,815,379.1774,807.3416,380.9181,812.7239,375.5357,814.4646,385.37,815" style="stroke:#A80036;stroke-width:1.0;"/><!--MD5=[1188dce5d03092776280b0cb741a6d56]
link PositionsBST to BST--><path codeLine="57" d="M364.72,739.16 C374.89,758.23 388.02,782.84 398,801.56 " fill="none" id="PositionsBST-to-BST" style="stroke:#A80036;stroke-width:1.0;stroke-dasharray:7.0,7.0;"/><polygon fill="#A80036" points="400.47,806.19,399.7592,796.3668,398.1148,801.7794,392.7022,800.1351,400.47,806.19" style="stroke:#A80036;stroke-width:1.0;"/><!--MD5=[26e17b4418282b18cf914527bda7fe16]
@startuml
skinparam classAttributeIconSize 0

class Company{
    +getShipStore()
}
Interface BST{}

class ShipsStore{
    +Ship findShipByAnyCode(code)
}
class Ship {
    +getters
}

class ShipsBST{
    +findShipByMmsi(MMSI)
}

class ShipsBSTImo{
    +findShipByImo(imo)
}
class ShipsBSTCallSign{
     +findShipByCallsign(callsign)
 }

class ShipPosition{
    +toString()
}

class PositionsBST {
    +toString()
}


class searchShipController {
    +String getShipInfoByAnyCode()
    +String shipDetailsToString()
}


searchShipController ..> Company
searchShipController ..> ShipsStore
Company "1" - -> "*" Ship : knows
Company "1" - - "1" ShipsStore : uses >
ShipsStore "1" - - "1" ShipsBSTCallSign : uses >
ShipsStore "1" - - "1" ShipsBST : uses >
ShipsStore "1" - - "1" ShipsBSTImo : uses >
ShipsBST ..> Ship
ShipsBSTImo ..> Ship
ShipsBSTCallSign ..> Ship
Ship "1" - - "*" ShipPosition : sends >
Ship "1" - - "1" PositionsBST : uses >
PositionsBST ..> ShipPosition
ShipsBST ..> BST
ShipsBSTImo ..> BST
ShipsBSTCallSign ..> BST
PositionsBST ..> BST

@enduml

PlantUML version 1.2021.11(Sat Oct 02 14:26:11 WEST 2021)
(GPL source distribution)
Java Runtime: OpenJDK Runtime Environment
JVM: OpenJDK 64-Bit Server VM
Default Encoding: UTF-8
Language: en
Country: US
--></g></svg>