<?xml version="1.0" encoding="UTF-8" standalone="no"?><svg xmlns="http://www.w3.org/2000/svg" xmlns:xlink="http://www.w3.org/1999/xlink" contentScriptType="application/ecmascript" contentStyleType="text/css" height="1044px" preserveAspectRatio="none" style="width:634px;height:1044px;background:#FFFFFF;" version="1.1" viewBox="0 0 634 1044" width="634px" zoomAndPan="magnify"><defs><filter height="300%" id="fq4ee4nqc65wc" width="300%" x="-1" y="-1"><feGaussianBlur result="blurOut" stdDeviation="2.0"/><feColorMatrix in="blurOut" result="blurOut2" type="matrix" values="0 0 0 0 0 0 0 0 0 0 0 0 0 0 0 0 0 0 .4 0"/><feOffset dx="4.0" dy="4.0" in="blurOut2" result="blurOut3"/><feBlend in="SourceGraphic" in2="blurOut3" mode="normal"/></filter></defs><g><!--MD5=[02e4b9b7573f1156f41e60aa5b4e25a4]
class Company--><rect codeLine="3" fill="#FEFECE" filter="url(#fq4ee4nqc65wc)" height="60.8047" id="Company" style="stroke:#A80036;stroke-width:1.5;" width="89" x="109.05" y="132"/><ellipse cx="124.05" cy="148" fill="#ADD1B2" rx="11" ry="11" style="stroke:#A80036;stroke-width:1.0;"/><path d="M126.5188,153.875 Q125.9406,154.1875 125.3,154.3438 Q124.6594,154.5 123.9563,154.5 Q121.4563,154.5 120.1281,152.8281 Q118.8156,151.1563 118.8156,148 Q118.8156,144.8438 120.1281,143.1719 Q121.4563,141.5 123.9563,141.5 Q124.6594,141.5 125.3,141.6563 Q125.9563,141.8125 126.5188,142.125 L126.5188,144.9219 Q125.8938,144.3594 125.3,144.0938 Q124.7063,143.8125 124.0813,143.8125 Q122.7375,143.8125 122.05,144.875 Q121.3625,145.9375 121.3625,148 Q121.3625,150.0781 122.05,151.1406 Q122.7375,152.1875 124.0813,152.1875 Q124.7063,152.1875 125.3,151.9219 Q125.8938,151.6563 126.5188,151.0781 L126.5188,153.875 Z " fill="#000000"/><text fill="#000000" font-family="sans-serif" font-size="12" lengthAdjust="spacing" textLength="57" x="138.05" y="152.1543">Company</text><line style="stroke:#A80036;stroke-width:1.5;" x1="110.05" x2="197.05" y1="164" y2="164"/><line style="stroke:#A80036;stroke-width:1.5;" x1="110.05" x2="197.05" y1="172" y2="172"/><text fill="#000000" font-family="sans-serif" font-size="11" lengthAdjust="spacing" textLength="77" x="115.05" y="186.2104">+getShipBst()</text><!--MD5=[b4a9ab6cffd58937cfea07eb2954e1bd]
class BST--><rect codeLine="6" fill="#FEFECE" filter="url(#fq4ee4nqc65wc)" height="48" id="BST" style="stroke:#A80036;stroke-width:1.5;" width="55" x="316.05" y="950"/><ellipse cx="331.05" cy="966" fill="#B4A7E5" rx="11" ry="11" style="stroke:#A80036;stroke-width:1.0;"/><path d="M327.4719,961.7813 L327.4719,959.5 L334.8625,959.5 L334.8625,961.7813 L332.3938,961.7813 L332.3938,970.2344 L334.8625,970.2344 L334.8625,972.5 L327.4719,972.5 L327.4719,970.2344 L329.9406,970.2344 L329.9406,961.7813 L327.4719,961.7813 Z " fill="#000000"/><text fill="#000000" font-family="sans-serif" font-size="12" font-style="italic" lengthAdjust="spacing" textLength="23" x="345.05" y="970.1543">BST</text><line style="stroke:#A80036;stroke-width:1.5;" x1="317.05" x2="370.05" y1="982" y2="982"/><line style="stroke:#A80036;stroke-width:1.5;" x1="317.05" x2="370.05" y1="990" y2="990"/><!--MD5=[0dc7f2ddb409b58bcf52b12238c25399]
class Ship--><rect codeLine="8" fill="#FEFECE" filter="url(#fq4ee4nqc65wc)" height="73.6094" id="Ship" style="stroke:#A80036;stroke-width:1.5;" width="112" x="129.55" y="517"/><ellipse cx="168.4" cy="533" fill="#ADD1B2" rx="11" ry="11" style="stroke:#A80036;stroke-width:1.0;"/><path d="M170.8688,538.875 Q170.2906,539.1875 169.65,539.3438 Q169.0094,539.5 168.3063,539.5 Q165.8063,539.5 164.4781,537.8281 Q163.1656,536.1563 163.1656,533 Q163.1656,529.8438 164.4781,528.1719 Q165.8063,526.5 168.3063,526.5 Q169.0094,526.5 169.65,526.6563 Q170.3063,526.8125 170.8688,527.125 L170.8688,529.9219 Q170.2438,529.3594 169.65,529.0938 Q169.0563,528.8125 168.4313,528.8125 Q167.0875,528.8125 166.4,529.875 Q165.7125,530.9375 165.7125,533 Q165.7125,535.0781 166.4,536.1406 Q167.0875,537.1875 168.4313,537.1875 Q169.0563,537.1875 169.65,536.9219 Q170.2438,536.6563 170.8688,536.0781 L170.8688,538.875 Z " fill="#000000"/><text fill="#000000" font-family="sans-serif" font-size="12" lengthAdjust="spacing" textLength="27" x="187.7" y="537.1543">Ship</text><line style="stroke:#A80036;stroke-width:1.5;" x1="130.55" x2="240.55" y1="549" y2="549"/><line style="stroke:#A80036;stroke-width:1.5;" x1="130.55" x2="240.55" y1="557" y2="557"/><text fill="#000000" font-family="sans-serif" font-size="11" lengthAdjust="spacing" textLength="68" x="135.55" y="571.2104">+getName()</text><text fill="#000000" font-family="sans-serif" font-size="11" lengthAdjust="spacing" textLength="100" x="135.55" y="584.0151">+getMovements()</text><!--MD5=[43adf079e4aaffd3a283c2c0454b404c]
class ShipsBST--><rect codeLine="13" fill="#FEFECE" filter="url(#fq4ee4nqc65wc)" height="60.8047" id="ShipsBST" style="stroke:#A80036;stroke-width:1.5;" width="146" x="112.55" y="395"/><ellipse cx="153.65" cy="411" fill="#ADD1B2" rx="11" ry="11" style="stroke:#A80036;stroke-width:1.0;"/><path d="M156.1188,416.875 Q155.5406,417.1875 154.9,417.3438 Q154.2594,417.5 153.5563,417.5 Q151.0563,417.5 149.7281,415.8281 Q148.4156,414.1563 148.4156,411 Q148.4156,407.8438 149.7281,406.1719 Q151.0563,404.5 153.5563,404.5 Q154.2594,404.5 154.9,404.6563 Q155.5563,404.8125 156.1188,405.125 L156.1188,407.9219 Q155.4938,407.3594 154.9,407.0938 Q154.3063,406.8125 153.6813,406.8125 Q152.3375,406.8125 151.65,407.875 Q150.9625,408.9375 150.9625,411 Q150.9625,413.0781 151.65,414.1406 Q152.3375,415.1875 153.6813,415.1875 Q154.3063,415.1875 154.9,414.9219 Q155.4938,414.6563 156.1188,414.0781 L156.1188,416.875 Z " fill="#000000"/><text fill="#000000" font-family="sans-serif" font-size="12" lengthAdjust="spacing" textLength="56" x="173.45" y="415.1543">ShipsBST</text><line style="stroke:#A80036;stroke-width:1.5;" x1="113.55" x2="257.55" y1="427" y2="427"/><line style="stroke:#A80036;stroke-width:1.5;" x1="113.55" x2="257.55" y1="435" y2="435"/><text fill="#000000" font-family="sans-serif" font-size="11" lengthAdjust="spacing" textLength="134" x="118.55" y="449.2104">+findShipByMmsi(MMSI)</text><!--MD5=[161eb210b6023c573fce756084aec649]
class ShipsBSTImo--><rect codeLine="17" fill="#FEFECE" filter="url(#fq4ee4nqc65wc)" height="60.8047" id="ShipsBSTImo" style="stroke:#A80036;stroke-width:1.5;" width="146" x="293.55" y="395"/><ellipse cx="324.3" cy="411" fill="#ADD1B2" rx="11" ry="11" style="stroke:#A80036;stroke-width:1.0;"/><path d="M326.7688,416.875 Q326.1906,417.1875 325.55,417.3438 Q324.9094,417.5 324.2063,417.5 Q321.7063,417.5 320.3781,415.8281 Q319.0656,414.1563 319.0656,411 Q319.0656,407.8438 320.3781,406.1719 Q321.7063,404.5 324.2063,404.5 Q324.9094,404.5 325.55,404.6563 Q326.2063,404.8125 326.7688,405.125 L326.7688,407.9219 Q326.1438,407.3594 325.55,407.0938 Q324.9563,406.8125 324.3313,406.8125 Q322.9875,406.8125 322.3,407.875 Q321.6125,408.9375 321.6125,411 Q321.6125,413.0781 322.3,414.1406 Q322.9875,415.1875 324.3313,415.1875 Q324.9563,415.1875 325.55,414.9219 Q326.1438,414.6563 326.7688,414.0781 L326.7688,416.875 Z " fill="#000000"/><text fill="#000000" font-family="sans-serif" font-size="12" lengthAdjust="spacing" textLength="79" x="341.8" y="415.1543">ShipsBSTImo</text><line style="stroke:#A80036;stroke-width:1.5;" x1="294.55" x2="438.55" y1="427" y2="427"/><line style="stroke:#A80036;stroke-width:1.5;" x1="294.55" x2="438.55" y1="435" y2="435"/><text fill="#000000" font-family="sans-serif" font-size="11" lengthAdjust="spacing" textLength="134" x="299.55" y="449.2104">+findShipByMmsi(MMSI)</text><!--MD5=[c18b351740c5329e2353b0d734c891ce]
class ShipsBSTCallSign--><rect codeLine="20" fill="#FEFECE" filter="url(#fq4ee4nqc65wc)" height="60.8047" id="ShipsBSTCallSign" style="stroke:#A80036;stroke-width:1.5;" width="146" x="474.55" y="395"/><ellipse cx="494.05" cy="411" fill="#ADD1B2" rx="11" ry="11" style="stroke:#A80036;stroke-width:1.0;"/><path d="M496.5188,416.875 Q495.9406,417.1875 495.3,417.3438 Q494.6594,417.5 493.9563,417.5 Q491.4563,417.5 490.1281,415.8281 Q488.8156,414.1563 488.8156,411 Q488.8156,407.8438 490.1281,406.1719 Q491.4563,404.5 493.9563,404.5 Q494.6594,404.5 495.3,404.6563 Q495.9563,404.8125 496.5188,405.125 L496.5188,407.9219 Q495.8938,407.3594 495.3,407.0938 Q494.7063,406.8125 494.0813,406.8125 Q492.7375,406.8125 492.05,407.875 Q491.3625,408.9375 491.3625,411 Q491.3625,413.0781 492.05,414.1406 Q492.7375,415.1875 494.0813,415.1875 Q494.7063,415.1875 495.3,414.9219 Q495.8938,414.6563 496.5188,414.0781 L496.5188,416.875 Z " fill="#000000"/><text fill="#000000" font-family="sans-serif" font-size="12" lengthAdjust="spacing" textLength="104" x="509.05" y="415.1543">ShipsBSTCallSign</text><line style="stroke:#A80036;stroke-width:1.5;" x1="475.55" x2="619.55" y1="427" y2="427"/><line style="stroke:#A80036;stroke-width:1.5;" x1="475.55" x2="619.55" y1="435" y2="435"/><text fill="#000000" font-family="sans-serif" font-size="11" lengthAdjust="spacing" textLength="134" x="480.55" y="449.2104">+findShipByMmsi(MMSI)</text><!--MD5=[1c0c3765e68dc4575d559b566278b914]
class ShipPosition--><rect codeLine="24" fill="#FEFECE" filter="url(#fq4ee4nqc65wc)" height="112.0234" id="ShipPosition" style="stroke:#A80036;stroke-width:1.5;" width="105" x="15.05" y="918"/><ellipse cx="30.05" cy="934" fill="#ADD1B2" rx="11" ry="11" style="stroke:#A80036;stroke-width:1.0;"/><path d="M32.5188,939.875 Q31.9406,940.1875 31.3,940.3438 Q30.6594,940.5 29.9563,940.5 Q27.4563,940.5 26.1281,938.8281 Q24.8156,937.1563 24.8156,934 Q24.8156,930.8438 26.1281,929.1719 Q27.4563,927.5 29.9563,927.5 Q30.6594,927.5 31.3,927.6563 Q31.9563,927.8125 32.5188,928.125 L32.5188,930.9219 Q31.8938,930.3594 31.3,930.0938 Q30.7063,929.8125 30.0813,929.8125 Q28.7375,929.8125 28.05,930.875 Q27.3625,931.9375 27.3625,934 Q27.3625,936.0781 28.05,937.1406 Q28.7375,938.1875 30.0813,938.1875 Q30.7063,938.1875 31.3,937.9219 Q31.8938,937.6563 32.5188,937.0781 L32.5188,939.875 Z " fill="#000000"/><text fill="#000000" font-family="sans-serif" font-size="12" lengthAdjust="spacing" textLength="73" x="44.05" y="938.1543">ShipPosition</text><line style="stroke:#A80036;stroke-width:1.5;" x1="16.05" x2="119.05" y1="950" y2="950"/><line style="stroke:#A80036;stroke-width:1.5;" x1="16.05" x2="119.05" y1="958" y2="958"/><text fill="#000000" font-family="sans-serif" font-size="11" lengthAdjust="spacing" textLength="80" x="21.05" y="972.2104">+getLatitude()</text><text fill="#000000" font-family="sans-serif" font-size="11" lengthAdjust="spacing" textLength="90" x="21.05" y="985.0151">+getLongitude()</text><text fill="#000000" font-family="sans-serif" font-size="11" lengthAdjust="spacing" textLength="91" x="21.05" y="997.8198">+getBaseTime()</text><text fill="#000000" font-family="sans-serif" font-size="11" lengthAdjust="spacing" textLength="56" x="21.05" y="1010.6245">+getSog()</text><text fill="#000000" font-family="sans-serif" font-size="11" lengthAdjust="spacing" textLength="57" x="21.05" y="1023.4292">+getCog()</text><!--MD5=[004e005a2edf96352d0772cab412880f]
class PositionsBST--><rect codeLine="32" fill="#FEFECE" filter="url(#fq4ee4nqc65wc)" height="188.8516" id="PositionsBST" style="stroke:#A80036;stroke-width:1.5;" width="140" x="115.55" y="668"/><ellipse cx="145.4" cy="684" fill="#ADD1B2" rx="11" ry="11" style="stroke:#A80036;stroke-width:1.0;"/><path d="M147.8688,689.875 Q147.2906,690.1875 146.65,690.3438 Q146.0094,690.5 145.3063,690.5 Q142.8063,690.5 141.4781,688.8281 Q140.1656,687.1563 140.1656,684 Q140.1656,680.8438 141.4781,679.1719 Q142.8063,677.5 145.3063,677.5 Q146.0094,677.5 146.65,677.6563 Q147.3063,677.8125 147.8688,678.125 L147.8688,680.9219 Q147.2438,680.3594 146.65,680.0938 Q146.0563,679.8125 145.4313,679.8125 Q144.0875,679.8125 143.4,680.875 Q142.7125,681.9375 142.7125,684 Q142.7125,686.0781 143.4,687.1406 Q144.0875,688.1875 145.4313,688.1875 Q146.0563,688.1875 146.65,687.9219 Q147.2438,687.6563 147.8688,687.0781 L147.8688,689.875 Z " fill="#000000"/><text fill="#000000" font-family="sans-serif" font-size="12" lengthAdjust="spacing" textLength="75" x="162.7" y="688.1543">PositionsBST</text><line style="stroke:#A80036;stroke-width:1.5;" x1="116.55" x2="254.55" y1="700" y2="700"/><line style="stroke:#A80036;stroke-width:1.5;" x1="116.55" x2="254.55" y1="708" y2="708"/><text fill="#000000" font-family="sans-serif" font-size="11" lengthAdjust="spacing" textLength="88" x="121.55" y="722.2104">+getStartDate()</text><text fill="#000000" font-family="sans-serif" font-size="11" lengthAdjust="spacing" textLength="82" x="121.55" y="735.0151">+getEndDate()</text><text fill="#000000" font-family="sans-serif" font-size="11" lengthAdjust="spacing" textLength="79" x="121.55" y="747.8198">+getMaxSog()</text><text fill="#000000" font-family="sans-serif" font-size="11" lengthAdjust="spacing" textLength="86" x="121.55" y="760.6245">+getMeanSog()</text><text fill="#000000" font-family="sans-serif" font-size="11" lengthAdjust="spacing" textLength="87" x="121.55" y="773.4292">+getMeanCog()</text><text fill="#000000" font-family="sans-serif" font-size="11" lengthAdjust="spacing" textLength="118" x="121.55" y="786.2339">+getDepartLatitude()</text><text fill="#000000" font-family="sans-serif" font-size="11" lengthAdjust="spacing" textLength="128" x="121.55" y="799.0386">+getDepartLongitude()</text><text fill="#000000" font-family="sans-serif" font-size="11" lengthAdjust="spacing" textLength="118" x="121.55" y="811.8433">+getArrivalLatitude()</text><text fill="#000000" font-family="sans-serif" font-size="11" lengthAdjust="spacing" textLength="128" x="121.55" y="824.6479">+getArrivalLongitude()</text><text fill="#000000" font-family="sans-serif" font-size="11" lengthAdjust="spacing" textLength="119" x="121.55" y="837.4526">+getTravelDistance()</text><text fill="#000000" font-family="sans-serif" font-size="11" lengthAdjust="spacing" textLength="112" x="121.55" y="850.2573">+getDeltaDistance()</text><!--MD5=[fc74649a38517bf81632f34af07d45f2]
class searchShipController--><rect codeLine="47" fill="#FEFECE" filter="url(#fq4ee4nqc65wc)" height="48" id="searchShipController" style="stroke:#A80036;stroke-width:1.5;" width="157" x="173.05" y="7"/><ellipse cx="188.05" cy="23" fill="#ADD1B2" rx="11" ry="11" style="stroke:#A80036;stroke-width:1.0;"/><path d="M190.5188,28.875 Q189.9406,29.1875 189.3,29.3438 Q188.6594,29.5 187.9563,29.5 Q185.4563,29.5 184.1281,27.8281 Q182.8156,26.1563 182.8156,23 Q182.8156,19.8438 184.1281,18.1719 Q185.4563,16.5 187.9563,16.5 Q188.6594,16.5 189.3,16.6563 Q189.9563,16.8125 190.5188,17.125 L190.5188,19.9219 Q189.8938,19.3594 189.3,19.0938 Q188.7063,18.8125 188.0813,18.8125 Q186.7375,18.8125 186.05,19.875 Q185.3625,20.9375 185.3625,23 Q185.3625,25.0781 186.05,26.1406 Q186.7375,27.1875 188.0813,27.1875 Q188.7063,27.1875 189.3,26.9219 Q189.8938,26.6563 190.5188,26.0781 L190.5188,28.875 Z " fill="#000000"/><text fill="#000000" font-family="sans-serif" font-size="12" lengthAdjust="spacing" textLength="125" x="202.05" y="27.1543">searchShipController</text><line style="stroke:#A80036;stroke-width:1.5;" x1="174.05" x2="329.05" y1="39" y2="39"/><line style="stroke:#A80036;stroke-width:1.5;" x1="174.05" x2="329.05" y1="47" y2="47"/><!--MD5=[2ecc30e3e816a9f25ac7c9aed88c6f02]
class ShipDto--><rect codeLine="50" fill="#FEFECE" filter="url(#fq4ee4nqc65wc)" height="48" id="ShipDto" style="stroke:#A80036;stroke-width:1.5;" width="80" x="365.55" y="7"/><ellipse cx="380.55" cy="23" fill="#ADD1B2" rx="11" ry="11" style="stroke:#A80036;stroke-width:1.0;"/><path d="M383.0188,28.875 Q382.4406,29.1875 381.8,29.3438 Q381.1594,29.5 380.4563,29.5 Q377.9563,29.5 376.6281,27.8281 Q375.3156,26.1563 375.3156,23 Q375.3156,19.8438 376.6281,18.1719 Q377.9563,16.5 380.4563,16.5 Q381.1594,16.5 381.8,16.6563 Q382.4563,16.8125 383.0188,17.125 L383.0188,19.9219 Q382.3938,19.3594 381.8,19.0938 Q381.2063,18.8125 380.5813,18.8125 Q379.2375,18.8125 378.55,19.875 Q377.8625,20.9375 377.8625,23 Q377.8625,25.0781 378.55,26.1406 Q379.2375,27.1875 380.5813,27.1875 Q381.2063,27.1875 381.8,26.9219 Q382.3938,26.6563 383.0188,26.0781 L383.0188,28.875 Z " fill="#000000"/><text fill="#000000" font-family="sans-serif" font-size="12" lengthAdjust="spacing" textLength="48" x="394.55" y="27.1543">ShipDto</text><line style="stroke:#A80036;stroke-width:1.5;" x1="366.55" x2="444.55" y1="39" y2="39"/><line style="stroke:#A80036;stroke-width:1.5;" x1="366.55" x2="444.55" y1="47" y2="47"/><!--MD5=[4308a223f203dbd64353ded297da1c90]
class ShipsStore--><rect fill="#FEFECE" filter="url(#fq4ee4nqc65wc)" height="48" id="ShipsStore" style="stroke:#A80036;stroke-width:1.5;" width="97" x="203.05" y="270"/><ellipse cx="218.05" cy="286" fill="#ADD1B2" rx="11" ry="11" style="stroke:#A80036;stroke-width:1.0;"/><path d="M220.5188,291.875 Q219.9406,292.1875 219.3,292.3438 Q218.6594,292.5 217.9563,292.5 Q215.4563,292.5 214.1281,290.8281 Q212.8156,289.1563 212.8156,286 Q212.8156,282.8438 214.1281,281.1719 Q215.4563,279.5 217.9563,279.5 Q218.6594,279.5 219.3,279.6563 Q219.9563,279.8125 220.5188,280.125 L220.5188,282.9219 Q219.8938,282.3594 219.3,282.0938 Q218.7063,281.8125 218.0813,281.8125 Q216.7375,281.8125 216.05,282.875 Q215.3625,283.9375 215.3625,286 Q215.3625,288.0781 216.05,289.1406 Q216.7375,290.1875 218.0813,290.1875 Q218.7063,290.1875 219.3,289.9219 Q219.8938,289.6563 220.5188,289.0781 L220.5188,291.875 Z " fill="#000000"/><text fill="#000000" font-family="sans-serif" font-size="12" lengthAdjust="spacing" textLength="65" x="232.05" y="290.1543">ShipsStore</text><line style="stroke:#A80036;stroke-width:1.5;" x1="204.05" x2="299.05" y1="302" y2="302"/><line style="stroke:#A80036;stroke-width:1.5;" x1="204.05" x2="299.05" y1="310" y2="310"/><!--MD5=[238769064e7448fcd22bd18bbb28f97c]
class MovementSummaryDto--><rect fill="#FEFECE" filter="url(#fq4ee4nqc65wc)" height="48" id="MovementSummaryDto" style="stroke:#A80036;stroke-width:1.5;" width="175" x="305.05" y="138.5"/><ellipse cx="320.05" cy="154.5" fill="#ADD1B2" rx="11" ry="11" style="stroke:#A80036;stroke-width:1.0;"/><path d="M322.5188,160.375 Q321.9406,160.6875 321.3,160.8438 Q320.6594,161 319.9563,161 Q317.4563,161 316.1281,159.3281 Q314.8156,157.6563 314.8156,154.5 Q314.8156,151.3438 316.1281,149.6719 Q317.4563,148 319.9563,148 Q320.6594,148 321.3,148.1563 Q321.9563,148.3125 322.5188,148.625 L322.5188,151.4219 Q321.8938,150.8594 321.3,150.5938 Q320.7063,150.3125 320.0813,150.3125 Q318.7375,150.3125 318.05,151.375 Q317.3625,152.4375 317.3625,154.5 Q317.3625,156.5781 318.05,157.6406 Q318.7375,158.6875 320.0813,158.6875 Q320.7063,158.6875 321.3,158.4219 Q321.8938,158.1563 322.5188,157.5781 L322.5188,160.375 Z " fill="#000000"/><text fill="#000000" font-family="sans-serif" font-size="12" lengthAdjust="spacing" textLength="143" x="334.05" y="158.6543">MovementSummaryDto</text><line style="stroke:#A80036;stroke-width:1.5;" x1="306.05" x2="479.05" y1="170.5" y2="170.5"/><line style="stroke:#A80036;stroke-width:1.5;" x1="306.05" x2="479.05" y1="178.5" y2="178.5"/><!--MD5=[0c74b562fa286403f0202718f897e702]
link searchShipController to Company--><path codeLine="55" d="M234.03,55.15 C218.79,75.29 196.51,104.73 179.25,127.53 " fill="none" id="searchShipController-to-Company" style="stroke:#A80036;stroke-width:1.0;stroke-dasharray:7.0,7.0;"/><polygon fill="#A80036" points="176.09,131.71,184.7009,126.9296,179.0991,127.7169,178.3119,122.115,176.09,131.71" style="stroke:#A80036;stroke-width:1.0;"/><!--MD5=[26b9f9d69124e17b36c97a46368c2bb1]
link searchShipController to ShipsStore--><path codeLine="56" d="M251.55,55.16 C251.55,103.05 251.55,212.8 251.55,264.75 " fill="none" id="searchShipController-to-ShipsStore" style="stroke:#A80036;stroke-width:1.0;stroke-dasharray:7.0,7.0;"/><polygon fill="#A80036" points="251.55,269.89,255.55,260.89,251.55,264.89,247.55,260.89,251.55,269.89" style="stroke:#A80036;stroke-width:1.0;"/><!--MD5=[58fa371bafebf95dd8f8bb61305140e8]
link searchShipController to MovementSummaryDto--><path codeLine="57" d="M276.76,55.15 C302.26,78.58 341.49,114.6 367.08,138.11 " fill="none" id="searchShipController-MovementSummaryDto" style="stroke:#A80036;stroke-width:1.0;"/><polygon fill="#000000" points="334.2324,96.9487,329.559,88.6656,325.5828,92.9945,334.2324,96.9487" style="stroke:#000000;stroke-width:1.0;"/><text fill="#000000" font-family="sans-serif" font-size="13" lengthAdjust="spacing" textLength="48" x="339.55" y="98.0669">creates</text><!--MD5=[37a14a5de6d6fd738aee271300f4b5c8]
link Company to Ship--><path codeLine="58" d="M136.81,193.12 C108.64,247.07 58.24,364.23 94.55,456 C103.16,477.76 119.21,497.49 135.46,513.39 " fill="none" id="Company-to-Ship" style="stroke:#A80036;stroke-width:1.0;"/><polygon fill="#A80036" points="139.15,516.93,135.4479,507.8034,135.5508,513.4593,129.8949,513.5622,139.15,516.93" style="stroke:#A80036;stroke-width:1.0;"/><text fill="#000000" font-family="sans-serif" font-size="13" lengthAdjust="spacing" textLength="42" x="85.55" y="361.0669">knows</text><text fill="#000000" font-family="sans-serif" font-size="13" lengthAdjust="spacing" textLength="8" x="124.5324" y="213.083">1</text><text fill="#000000" font-family="sans-serif" font-size="13" lengthAdjust="spacing" textLength="7" x="122.9497" y="505.8276">*</text><!--MD5=[44e7f9b9c37d60f601e8cdfcd1094fad]
link Company to ShipsStore--><path codeLine="59" d="M159.63,193.06 C163.76,208.14 170.37,226.16 180.55,240 C189.03,251.52 200.72,261.67 212.16,269.91 " fill="none" id="Company-ShipsStore" style="stroke:#A80036;stroke-width:1.0;"/><polygon fill="#000000" points="188.3715,235.6942,185.6936,226.5685,180.8411,229.8854,188.3715,235.6942" style="stroke:#000000;stroke-width:1.0;"/><text fill="#000000" font-family="sans-serif" font-size="13" lengthAdjust="spacing" textLength="30" x="194.55" y="236.0669">uses</text><text fill="#000000" font-family="sans-serif" font-size="13" lengthAdjust="spacing" textLength="8" x="152.059" y="213.0106">1</text><text fill="#000000" font-family="sans-serif" font-size="13" lengthAdjust="spacing" textLength="8" x="193.0413" y="258.899">1</text><!--MD5=[af9d0b2e81c337ab0f966317898ccd3e]
link ShipsStore to ShipsBSTCallSign--><path codeLine="60" d="M300.1,316.24 C349.05,337.66 425.04,370.9 479.89,394.9 " fill="none" id="ShipsStore-ShipsBSTCallSign" style="stroke:#A80036;stroke-width:1.0;"/><polygon fill="#000000" points="417.1308,358.5705,410.0221,352.2525,407.6661,357.6375,417.1308,358.5705" style="stroke:#000000;stroke-width:1.0;"/><text fill="#000000" font-family="sans-serif" font-size="13" lengthAdjust="spacing" textLength="30" x="421.55" y="361.0669">uses</text><text fill="#000000" font-family="sans-serif" font-size="13" lengthAdjust="spacing" textLength="8" x="308.1467" y="315.5741">1</text><text fill="#000000" font-family="sans-serif" font-size="13" lengthAdjust="spacing" textLength="8" x="458.6777" y="384.9725">1</text><!--MD5=[35dfb0066db7f7f10e2c637a799521a8]
link ShipsStore to ShipsBST--><path codeLine="61" d="M239.75,318.15 C228.85,339.54 212.6,371.43 200.73,394.71 " fill="none" id="ShipsStore-ShipsBST" style="stroke:#A80036;stroke-width:1.0;"/><polygon fill="#000000" points="227.2796,361.0212,234.0053,354.2969,228.7684,351.6279,227.2796,361.0212" style="stroke:#000000;stroke-width:1.0;"/><text fill="#000000" font-family="sans-serif" font-size="13" lengthAdjust="spacing" textLength="30" x="238.55" y="361.0669">uses</text><text fill="#000000" font-family="sans-serif" font-size="13" lengthAdjust="spacing" textLength="8" x="227.8988" y="337.9478">1</text><text fill="#000000" font-family="sans-serif" font-size="13" lengthAdjust="spacing" textLength="8" x="195.0359" y="383.9134">1</text><!--MD5=[494ad59de8ea1e8718922807a84ca283]
link ShipsStore to ShipsBSTImo--><path codeLine="62" d="M272.11,318.15 C291.1,339.54 319.42,371.43 340.1,394.71 " fill="none" id="ShipsStore-ShipsBSTImo" style="stroke:#A80036;stroke-width:1.0;"/><polygon fill="#000000" points="319.8701,360.305,316.0615,351.5903,311.6665,355.4933,319.8701,360.305" style="stroke:#000000;stroke-width:1.0;"/><text fill="#000000" font-family="sans-serif" font-size="13" lengthAdjust="spacing" textLength="30" x="325.55" y="361.0669">uses</text><text fill="#000000" font-family="sans-serif" font-size="13" lengthAdjust="spacing" textLength="8" x="268.1465" y="337.9478">1</text><text fill="#000000" font-family="sans-serif" font-size="13" lengthAdjust="spacing" textLength="8" x="325.8197" y="383.9134">1</text><!--MD5=[b457ea32acbd230d0e22037aaab2ac98]
link ShipsBST to Ship--><path codeLine="63" d="M185.55,456.16 C185.55,472.71 185.55,493.59 185.55,511.72 " fill="none" id="ShipsBST-to-Ship" style="stroke:#A80036;stroke-width:1.0;stroke-dasharray:7.0,7.0;"/><polygon fill="#A80036" points="185.55,516.76,189.55,507.76,185.55,511.76,181.55,507.76,185.55,516.76" style="stroke:#A80036;stroke-width:1.0;"/><!--MD5=[dd17fb222bdf6a9c535c11495c7c3619]
link ShipsBSTImo to Ship--><path codeLine="64" d="M297.69,456.15 C280.93,464.71 263.53,474.81 248.55,486 C238.05,493.85 227.8,503.55 218.73,513.11 " fill="none" id="ShipsBSTImo-to-Ship" style="stroke:#A80036;stroke-width:1.0;stroke-dasharray:7.0,7.0;"/><polygon fill="#A80036" points="215.18,516.91,224.2531,513.0787,218.5992,513.2619,218.4161,507.608,215.18,516.91" style="stroke:#A80036;stroke-width:1.0;"/><!--MD5=[f20b9417a46d21f71d320e71eeec7f90]
link ShipsBSTCallSign to Ship--><path codeLine="65" d="M474.29,452.1 C407.34,475.49 309.47,509.7 246.64,531.65 " fill="none" id="ShipsBSTCallSign-to-Ship" style="stroke:#A80036;stroke-width:1.0;stroke-dasharray:7.0,7.0;"/><polygon fill="#A80036" points="241.81,533.34,251.625,534.1555,246.5315,531.6946,248.9924,526.6011,241.81,533.34" style="stroke:#A80036;stroke-width:1.0;"/><!--MD5=[f56e222e1748568825f030a9b791275e]
link Ship to ShipPosition--><path codeLine="66" d="M129.53,583.46 C98.28,602.67 62.2,631.24 44.55,668 C6,748.3 27.85,854.33 47.49,917.88 " fill="none" id="Ship-ShipPosition" style="stroke:#A80036;stroke-width:1.0;"/><polygon fill="#000000" points="48.3587,767.4224,53.3681,759.338,47.6595,757.9376,48.3587,767.4224" style="stroke:#000000;stroke-width:1.0;"/><text fill="#000000" font-family="sans-serif" font-size="13" lengthAdjust="spacing" textLength="38" x="58.55" y="767.0669">sends</text><text fill="#000000" font-family="sans-serif" font-size="13" lengthAdjust="spacing" textLength="8" x="113.4648" y="583.5129">1</text><text fill="#000000" font-family="sans-serif" font-size="13" lengthAdjust="spacing" textLength="7" x="37.4714" y="906.8026">*</text><!--MD5=[bd16fc4b2a08274ec71edc6d573c9239]
link Ship to PositionsBST--><path codeLine="67" d="M185.55,591.44 C185.55,612.75 185.55,640.7 185.55,667.78 " fill="none" id="Ship-PositionsBST" style="stroke:#A80036;stroke-width:1.0;"/><polygon fill="#000000" points="190.55,634.5664,193.4889,625.5213,187.6111,625.5213,190.55,634.5664" style="stroke:#000000;stroke-width:1.0;"/><text fill="#000000" font-family="sans-serif" font-size="13" lengthAdjust="spacing" textLength="30" x="199.55" y="634.0669">uses</text><text fill="#000000" font-family="sans-serif" font-size="13" lengthAdjust="spacing" textLength="8" x="176.9125" y="610.7109">1</text><text fill="#000000" font-family="sans-serif" font-size="13" lengthAdjust="spacing" textLength="8" x="177.2438" y="657.0314">1</text><!--MD5=[34b80baad36b2d2bd6b6893c22d217b3]
link PositionsBST to ShipPosition--><path codeLine="68" d="M132.76,857.22 C122.01,876.3 110.99,895.88 101.13,913.38 " fill="none" id="PositionsBST-to-ShipPosition" style="stroke:#A80036;stroke-width:1.0;stroke-dasharray:7.0,7.0;"/><polygon fill="#A80036" points="98.65,917.78,106.5404,911.8858,101.0952,913.4187,99.5623,907.9735,98.65,917.78" style="stroke:#A80036;stroke-width:1.0;"/><!--MD5=[e18dbd49a52e60917b88bf3b4a72eceb]
link ShipsBST to BST--><path codeLine="69" d="M215.78,456.14 C230.91,472.67 248.17,494.45 258.55,517 C294.34,594.73 329.29,857.65 340.12,944.73 " fill="none" id="ShipsBST-to-BST" style="stroke:#A80036;stroke-width:1.0;stroke-dasharray:7.0,7.0;"/><polygon fill="#A80036" points="340.74,949.72,343.6028,940.2964,340.1251,944.758,335.6636,941.2802,340.74,949.72" style="stroke:#A80036;stroke-width:1.0;"/><!--MD5=[0abc6ae50c94f218df3534f80cea96bd]
link ShipsBSTImo to BST--><path codeLine="70" d="M365.3,456.27 C361.27,552.02 348.67,851.24 344.74,944.77 " fill="none" id="ShipsBSTImo-to-BST" style="stroke:#A80036;stroke-width:1.0;stroke-dasharray:7.0,7.0;"/><polygon fill="#A80036" points="344.52,949.85,348.9028,941.0301,344.7347,944.8546,340.9102,940.6865,344.52,949.85" style="stroke:#A80036;stroke-width:1.0;"/><!--MD5=[a3204288f96958ede1c73db2e0f8f4fe]
link ShipsBSTCallSign to BST--><path codeLine="71" d="M536.44,456.27 C500.66,552.12 388.78,851.84 353.98,945.05 " fill="none" id="ShipsBSTCallSign-to-BST" style="stroke:#A80036;stroke-width:1.0;stroke-dasharray:7.0,7.0;"/><polygon fill="#A80036" points="352.19,949.85,359.0766,942.8091,353.9331,945.1637,351.5785,940.0201,352.19,949.85" style="stroke:#A80036;stroke-width:1.0;"/><!--MD5=[1188dce5d03092776280b0cb741a6d56]
link PositionsBST to BST--><path codeLine="72" d="M255.77,856.61 C280.13,888.91 305.62,922.71 322.82,945.51 " fill="none" id="PositionsBST-to-BST" style="stroke:#A80036;stroke-width:1.0;stroke-dasharray:7.0,7.0;"/><polygon fill="#A80036" points="325.93,949.64,323.7081,940.045,322.9209,945.6469,317.3191,944.8596,325.93,949.64" style="stroke:#A80036;stroke-width:1.0;"/><!--MD5=[84c05fc81ecbe8ca32741d4192ef81b0]
@startuml
skinparam classAttributeIconSize 0

class Company{
    +getShipBst()
}
Interface BST{}

class Ship {
    +getName()
    +getMovements()
}

class ShipsBST{
    +findShipByMmsi(MMSI)
}

class ShipsBSTImo{
    +findShipByMmsi(MMSI)
}
class ShipsBSTCallSign{
     +findShipByMmsi(MMSI)
 }

class ShipPosition{
    +getLatitude()
    +getLongitude()
    +getBaseTime()
    +getSog()
    +getCog()
}

class PositionsBST {
    +getStartDate()
    +getEndDate()
    +getMaxSog()
    +getMeanSog()
    +getMeanCog()
    +getDepartLatitude()
    +getDepartLongitude()
    +getArrivalLatitude()
    +getArrivalLongitude()
    +getTravelDistance()
    +getDeltaDistance()
}


class searchShipController {
}

class ShipDto{

}


searchShipController ..> Company
searchShipController ..> ShipsStore
searchShipController - - MovementSummaryDto: creates >
Company "1" - -> "*" Ship : knows
Company "1" - - "1" ShipsStore : uses >
ShipsStore "1" - - "1" ShipsBSTCallSign : uses >
ShipsStore "1" - - "1" ShipsBST : uses >
ShipsStore "1" - - "1" ShipsBSTImo : uses >
ShipsBST ..> Ship
ShipsBSTImo ..> Ship
ShipsBSTCallSign ..> Ship
Ship "1" - - "*" ShipPosition : sends >
Ship "1" - - "1" PositionsBST : uses >
PositionsBST ..> ShipPosition
ShipsBST ..> BST
ShipsBSTImo ..> BST
ShipsBSTCallSign ..> BST
PositionsBST ..> BST

@enduml

PlantUML version 1.2021.11(Sat Oct 02 14:26:11 WEST 2021)
(GPL source distribution)
Java Runtime: OpenJDK Runtime Environment
JVM: OpenJDK 64-Bit Server VM
Default Encoding: UTF-8
Language: en
Country: US
--></g></svg>