<?xml version="1.0" encoding="UTF-8" standalone="no"?><svg xmlns="http://www.w3.org/2000/svg" xmlns:xlink="http://www.w3.org/1999/xlink" contentScriptType="application/ecmascript" contentStyleType="text/css" height="377px" preserveAspectRatio="none" style="width:492px;height:377px;background:#FFFFFF;" version="1.1" viewBox="0 0 492 377" width="492px" zoomAndPan="magnify"><defs><filter height="300%" id="fydfoetlx3imr" width="300%" x="-1" y="-1"><feGaussianBlur result="blurOut" stdDeviation="2.0"/><feColorMatrix in="blurOut" result="blurOut2" type="matrix" values="0 0 0 0 0 0 0 0 0 0 0 0 0 0 0 0 0 0 .4 0"/><feOffset dx="4.0" dy="4.0" in="blurOut2" result="blurOut3"/><feBlend in="SourceGraphic" in2="blurOut3" mode="normal"/></filter></defs><g><rect fill="#FFFFFF" filter="url(#fydfoetlx3imr)" height="183.1094" style="stroke:#A80036;stroke-width:1.0;" width="10" x="53" y="99.6094"/><rect fill="#FFFFFF" filter="url(#fydfoetlx3imr)" height="151.7578" style="stroke:#A80036;stroke-width:1.0;" width="10" x="443" y="121.9609"/><line style="stroke:#A80036;stroke-width:1.0;stroke-dasharray:5.0,5.0;" x1="58" x2="58" y1="89.6094" y2="291.7188"/><line style="stroke:#A80036;stroke-width:1.0;stroke-dasharray:5.0,5.0;" x1="448" x2="448" y1="89.6094" y2="291.7188"/><text fill="#000000" font-family="sans-serif" font-size="14" lengthAdjust="spacing" textLength="100" x="5" y="86.5332">Traffic manager</text><ellipse cx="58" cy="15" fill="#FEFECE" filter="url(#fydfoetlx3imr)" rx="8" ry="8" style="stroke:#A80036;stroke-width:2.0;"/><path d="M58,23 L58,50 M45,31 L71,31 M58,50 L45,65 M58,50 L71,65 " fill="none" filter="url(#fydfoetlx3imr)" style="stroke:#A80036;stroke-width:2.0;"/><text fill="#000000" font-family="sans-serif" font-size="14" lengthAdjust="spacing" textLength="100" x="5" y="305.252">Traffic manager</text><ellipse cx="58" cy="318.3281" fill="#FEFECE" filter="url(#fydfoetlx3imr)" rx="8" ry="8" style="stroke:#A80036;stroke-width:2.0;"/><path d="M58,326.3281 L58,353.3281 M45,334.3281 L71,334.3281 M58,353.3281 L45,368.3281 M58,353.3281 L71,368.3281 " fill="none" filter="url(#fydfoetlx3imr)" style="stroke:#A80036;stroke-width:2.0;"/><rect fill="#FEFECE" filter="url(#fydfoetlx3imr)" height="31.6094" style="stroke:#A80036;stroke-width:1.5;" width="64" x="414" y="53"/><text fill="#000000" font-family="sans-serif" font-size="14" lengthAdjust="spacing" textLength="50" x="421" y="74.5332">:System</text><rect fill="#FEFECE" filter="url(#fydfoetlx3imr)" height="31.6094" style="stroke:#A80036;stroke-width:1.5;" width="64" x="414" y="290.7188"/><text fill="#000000" font-family="sans-serif" font-size="14" lengthAdjust="spacing" textLength="50" x="421" y="312.252">:System</text><rect fill="#FFFFFF" filter="url(#fydfoetlx3imr)" height="183.1094" style="stroke:#A80036;stroke-width:1.0;" width="10" x="53" y="99.6094"/><rect fill="#FFFFFF" filter="url(#fydfoetlx3imr)" height="151.7578" style="stroke:#A80036;stroke-width:1.0;" width="10" x="443" y="121.9609"/><polygon fill="#A80036" points="431,117.9609,441,121.9609,431,125.9609,435,121.9609" style="stroke:#A80036;stroke-width:1.0;"/><line style="stroke:#A80036;stroke-width:1.0;" x1="63" x2="437" y1="121.9609" y2="121.9609"/><text fill="#000000" font-family="sans-serif" font-size="13" font-weight="bold" lengthAdjust="spacing" textLength="7" x="70" y="117.1045">1</text><text fill="#000000" font-family="sans-serif" font-size="13" lengthAdjust="spacing" textLength="350" x="81" y="117.1045">wishes to search the details of a ship using any of its codes.</text><polygon fill="#A80036" points="74,148.3125,64,152.3125,74,156.3125,70,152.3125" style="stroke:#A80036;stroke-width:1.0;"/><line style="stroke:#A80036;stroke-width:1.0;stroke-dasharray:2.0,2.0;" x1="68" x2="442" y1="152.3125" y2="152.3125"/><text fill="#000000" font-family="sans-serif" font-size="13" font-weight="bold" lengthAdjust="spacing" textLength="7" x="80" y="147.4561">2</text><text fill="#000000" font-family="sans-serif" font-size="13" lengthAdjust="spacing" textLength="137" x="91" y="147.4561">asks which code to use</text><polygon fill="#A80036" points="431,178.6641,441,182.6641,431,186.6641,435,182.6641" style="stroke:#A80036;stroke-width:1.0;"/><line style="stroke:#A80036;stroke-width:1.0;" x1="63" x2="437" y1="182.6641" y2="182.6641"/><text fill="#000000" font-family="sans-serif" font-size="13" font-weight="bold" lengthAdjust="spacing" textLength="7" x="70" y="177.8076">3</text><text fill="#000000" font-family="sans-serif" font-size="13" lengthAdjust="spacing" textLength="114" x="81" y="177.8076">inserts needed data</text><polygon fill="#A80036" points="74,209.0156,64,213.0156,74,217.0156,70,213.0156" style="stroke:#A80036;stroke-width:1.0;"/><line style="stroke:#A80036;stroke-width:1.0;stroke-dasharray:2.0,2.0;" x1="68" x2="442" y1="213.0156" y2="213.0156"/><text fill="#000000" font-family="sans-serif" font-size="13" font-weight="bold" lengthAdjust="spacing" textLength="7" x="80" y="208.1592">4</text><text fill="#000000" font-family="sans-serif" font-size="13" lengthAdjust="spacing" textLength="100" x="91" y="208.1592">asks for the code</text><polygon fill="#A80036" points="431,239.3672,441,243.3672,431,247.3672,435,243.3672" style="stroke:#A80036;stroke-width:1.0;"/><line style="stroke:#A80036;stroke-width:1.0;" x1="63" x2="437" y1="243.3672" y2="243.3672"/><text fill="#000000" font-family="sans-serif" font-size="13" font-weight="bold" lengthAdjust="spacing" textLength="7" x="70" y="238.5107">5</text><text fill="#000000" font-family="sans-serif" font-size="13" lengthAdjust="spacing" textLength="114" x="81" y="238.5107">inserts needed data</text><polygon fill="#A80036" points="74,269.7188,64,273.7188,74,277.7188,70,273.7188" style="stroke:#A80036;stroke-width:1.0;"/><line style="stroke:#A80036;stroke-width:1.0;stroke-dasharray:2.0,2.0;" x1="68" x2="447" y1="273.7188" y2="273.7188"/><text fill="#000000" font-family="sans-serif" font-size="13" font-weight="bold" lengthAdjust="spacing" textLength="7" x="80" y="268.8623">6</text><text fill="#000000" font-family="sans-serif" font-size="13" lengthAdjust="spacing" textLength="165" x="91" y="268.8623">shows the details of the ship</text><!--MD5=[cc5fd833deb19709c159aa1ac266467a]
@startuml
'https://plantuml.com/sequence-diagram

autonumber
actor "Traffic manager" as TM

activate TM
TM-> ":System" : wishes to search the details of a ship using any of its codes.
activate ":System"
":System" - -> TM : asks which code to use
TM-> ":System" : inserts needed data
":System" - -> TM : asks for the code
TM-> ":System" : inserts needed data
":System" - -> TM : shows the details of the ship

deactivate ":System"

@enduml

@startuml

autonumber
actor "Traffic manager" as TM

activate TM
TM-> ":System" : wishes to search the details of a ship using any of its codes.
activate ":System"
":System" - -> TM : asks which code to use
TM-> ":System" : inserts needed data
":System" - -> TM : asks for the code
TM-> ":System" : inserts needed data
":System" - -> TM : shows the details of the ship

deactivate ":System"

@enduml

PlantUML version 1.2021.11(Sat Oct 02 14:26:11 BST 2021)
(GPL source distribution)
Java Runtime: OpenJDK Runtime Environment
JVM: OpenJDK 64-Bit Server VM
Default Encoding: Cp1252
Language: pt
Country: PT
--></g></svg>