<?xml version="1.0" encoding="UTF-8" standalone="no"?><svg xmlns="http://www.w3.org/2000/svg" xmlns:xlink="http://www.w3.org/1999/xlink" contentScriptType="application/ecmascript" contentStyleType="text/css" height="276px" preserveAspectRatio="none" style="width:254px;height:276px;background:#FFFFFF;" version="1.1" viewBox="0 0 254 276" width="254px" zoomAndPan="magnify"><defs><filter height="300%" id="fabubmq3f3hgn" width="300%" x="-1" y="-1"><feGaussianBlur result="blurOut" stdDeviation="2.0"/><feColorMatrix in="blurOut" result="blurOut2" type="matrix" values="0 0 0 0 0 0 0 0 0 0 0 0 0 0 0 0 0 0 .4 0"/><feOffset dx="4.0" dy="4.0" in="blurOut2" result="blurOut3"/><feBlend in="SourceGraphic" in2="blurOut3" mode="normal"/></filter></defs><g><!--MD5=[ddaf6f62b0bc30921877ec9fb9463c9f]
class TrafficManager--><rect codeLine="6" fill="#FEFECE" filter="url(#fabubmq3f3hgn)" height="53.8359" id="TrafficManager" style="stroke:#A80036;stroke-width:1.5;" width="113" x="7" y="7"/><ellipse cx="22" cy="23" fill="#ADD1B2" rx="11" ry="11" style="stroke:#A80036;stroke-width:1.0;"/><path d="M24,19.5 Q24.2031,19 24.4375,18.75 Q24.6719,18.5 24.9375,18.5 Q25.4063,18.5 25.7031,18.7813 Q26,19.0625 26,19.7188 L26,21.2813 Q26,21.9375 25.7188,22.2188 Q25.4375,22.5 25,22.5 Q24.6094,22.5 24.3594,22.3281 Q24.1094,22.1563 24,21.7031 Q23.9531,21.3906 23.7813,21.2188 Q23.4688,20.8906 22.9063,20.7031 Q22.3438,20.5 21.7813,20.5 Q21.0781,20.5 20.4844,20.7813 Q19.9063,21.0625 19.4531,21.6875 Q19,22.3125 19,23.1719 L19,24.0938 Q19,25.125 19.8438,25.8125 Q20.6875,26.5 22.1875,26.5 Q23.0781,26.5 23.7031,26.2969 Q24.0625,26.1875 24.4688,25.8281 Q24.7344,25.625 24.875,25.5625 Q25.0156,25.5 25.1875,25.5 Q25.5156,25.5 25.75,25.7656 Q26,26.0156 26,26.375 Q26,26.7188 25.6563,27.125 Q25.1563,27.7188 24.3594,28.0469 Q23.3125,28.5 22.0313,28.5 Q20.5313,28.5 19.3281,27.9063 Q18.3594,27.4375 17.6719,26.4219 Q17,25.4063 17,24.2031 L17,23.1094 Q17,21.8594 17.5938,20.7656 Q18.2031,19.6719 19.25,19.0938 Q20.3125,18.5 21.5,18.5 Q22.2188,18.5 22.8438,18.75 Q23.4688,19 24,19.5 Z " fill="#000000"/><text fill="#000000" font-family="sans-serif" font-size="12" lengthAdjust="spacing" textLength="81" x="36" y="27.9102">TrafficManager</text><line style="stroke:#A80036;stroke-width:1.5;" x1="8" x2="119" y1="39" y2="39"/><text fill="#000000" font-family="sans-serif" font-size="11" lengthAdjust="spacing" textLength="30" x="13" y="54.4189">-name</text><!--MD5=[02e4b9b7573f1156f41e60aa5b4e25a4]
class Company--><rect codeLine="10" fill="#FEFECE" filter="url(#fabubmq3f3hgn)" height="32" id="Company" style="stroke:#A80036;stroke-width:1.5;" width="85" x="155" y="18"/><ellipse cx="170" cy="34" fill="#ADD1B2" rx="11" ry="11" style="stroke:#A80036;stroke-width:1.0;"/><path d="M172,30.5 Q172.2031,30 172.4375,29.75 Q172.6719,29.5 172.9375,29.5 Q173.4063,29.5 173.7031,29.7813 Q174,30.0625 174,30.7188 L174,32.2813 Q174,32.9375 173.7188,33.2188 Q173.4375,33.5 173,33.5 Q172.6094,33.5 172.3594,33.3281 Q172.1094,33.1563 172,32.7031 Q171.9531,32.3906 171.7813,32.2188 Q171.4688,31.8906 170.9063,31.7031 Q170.3438,31.5 169.7813,31.5 Q169.0781,31.5 168.4844,31.7813 Q167.9063,32.0625 167.4531,32.6875 Q167,33.3125 167,34.1719 L167,35.0938 Q167,36.125 167.8438,36.8125 Q168.6875,37.5 170.1875,37.5 Q171.0781,37.5 171.7031,37.2969 Q172.0625,37.1875 172.4688,36.8281 Q172.7344,36.625 172.875,36.5625 Q173.0156,36.5 173.1875,36.5 Q173.5156,36.5 173.75,36.7656 Q174,37.0156 174,37.375 Q174,37.7188 173.6563,38.125 Q173.1563,38.7188 172.3594,39.0469 Q171.3125,39.5 170.0313,39.5 Q168.5313,39.5 167.3281,38.9063 Q166.3594,38.4375 165.6719,37.4219 Q165,36.4063 165,35.2031 L165,34.1094 Q165,32.8594 165.5938,31.7656 Q166.2031,30.6719 167.25,30.0938 Q168.3125,29.5 169.5,29.5 Q170.2188,29.5 170.8438,29.75 Q171.4688,30 172,30.5 Z " fill="#000000"/><text fill="#000000" font-family="sans-serif" font-size="12" lengthAdjust="spacing" textLength="53" x="184" y="38.9102">Company</text><!--MD5=[a0bfe97ac0a38e6e74cc1c7c7b744b71]
class Port--><rect codeLine="12" fill="#FEFECE" filter="url(#fabubmq3f3hgn)" height="123.0156" id="Port" style="stroke:#A80036;stroke-width:1.5;" width="62" x="99.5" y="139"/><ellipse cx="118.1" cy="155" fill="#ADD1B2" rx="11" ry="11" style="stroke:#A80036;stroke-width:1.0;"/><path d="M120.1,151.5 Q120.3031,151 120.5375,150.75 Q120.7719,150.5 121.0375,150.5 Q121.5063,150.5 121.8031,150.7813 Q122.1,151.0625 122.1,151.7188 L122.1,153.2813 Q122.1,153.9375 121.8188,154.2188 Q121.5375,154.5 121.1,154.5 Q120.7094,154.5 120.4594,154.3281 Q120.2094,154.1563 120.1,153.7031 Q120.0531,153.3906 119.8813,153.2188 Q119.5688,152.8906 119.0063,152.7031 Q118.4438,152.5 117.8813,152.5 Q117.1781,152.5 116.5844,152.7813 Q116.0063,153.0625 115.5531,153.6875 Q115.1,154.3125 115.1,155.1719 L115.1,156.0938 Q115.1,157.125 115.9438,157.8125 Q116.7875,158.5 118.2875,158.5 Q119.1781,158.5 119.8031,158.2969 Q120.1625,158.1875 120.5688,157.8281 Q120.8344,157.625 120.975,157.5625 Q121.1156,157.5 121.2875,157.5 Q121.6156,157.5 121.85,157.7656 Q122.1,158.0156 122.1,158.375 Q122.1,158.7188 121.7563,159.125 Q121.2563,159.7188 120.4594,160.0469 Q119.4125,160.5 118.1313,160.5 Q116.6313,160.5 115.4281,159.9063 Q114.4594,159.4375 113.7719,158.4219 Q113.1,157.4063 113.1,156.2031 L113.1,155.1094 Q113.1,153.8594 113.6938,152.7656 Q114.3031,151.6719 115.35,151.0938 Q116.4125,150.5 117.6,150.5 Q118.3188,150.5 118.9438,150.75 Q119.5688,151 120.1,151.5 Z " fill="#000000"/><text fill="#000000" font-family="sans-serif" font-size="12" lengthAdjust="spacing" textLength="22" x="132.9" y="159.9102">Port</text><line style="stroke:#A80036;stroke-width:1.5;" x1="100.5" x2="160.5" y1="171" y2="171"/><text fill="#000000" font-family="sans-serif" font-size="11" lengthAdjust="spacing" textLength="48" x="105.5" y="186.4189">-continent</text><text fill="#000000" font-family="sans-serif" font-size="11" lengthAdjust="spacing" textLength="41" x="105.5" y="200.2549">-country</text><text fill="#000000" font-family="sans-serif" font-size="11" lengthAdjust="spacing" textLength="48" x="105.5" y="214.0908">-portCode</text><text fill="#000000" font-family="sans-serif" font-size="11" lengthAdjust="spacing" textLength="50" x="105.5" y="227.9268">-portName</text><text fill="#000000" font-family="sans-serif" font-size="11" lengthAdjust="spacing" textLength="38" x="105.5" y="241.7627">-latitude</text><text fill="#000000" font-family="sans-serif" font-size="11" lengthAdjust="spacing" textLength="47" x="105.5" y="255.5986">-longitude</text><!--MD5=[6b4da2671412f4786b9d77d6f2672bd6]
link TrafficManager to Port--><path codeLine="21" d="M74.12,61.07 C82.6,81.9 94.84,111.95 105.75,138.74 " fill="none" id="TrafficManager-Port" style="stroke:#A80036;stroke-width:1.0;"/><polygon fill="#000000" points="100.3858,104.8065,99.6962,95.321,94.2525,97.5379,100.3858,104.8065" style="stroke:#000000;stroke-width:1.0;"/><text fill="#000000" font-family="sans-serif" font-size="13" lengthAdjust="spacing" textLength="43" x="107.5" y="105.4951">imports</text><text fill="#000000" font-family="sans-serif" font-size="13" lengthAdjust="spacing" textLength="7" x="68.6775" y="82.2931">1</text><text fill="#000000" font-family="sans-serif" font-size="13" lengthAdjust="spacing" textLength="20" x="81.732" y="128.1885">1..*</text><!--MD5=[5fd98a8c03cc0e5a408f548eb1c0ace8]
link Company to Port--><path codeLine="22" d="M191.32,50.18 C183.12,70.3 168.17,107 155.15,138.98 " fill="none" id="Company-Port" style="stroke:#A80036;stroke-width:1.0;"/><polygon fill="#000000" points="176.6139,104.8064,182.7477,97.5382,177.3041,95.3209,176.6139,104.8064" style="stroke:#000000;stroke-width:1.0;"/><text fill="#000000" font-family="sans-serif" font-size="13" lengthAdjust="spacing" textLength="53" x="187.5" y="105.4951">manages</text><text fill="#000000" font-family="sans-serif" font-size="13" lengthAdjust="spacing" textLength="7" x="181.2345" y="71.4385">1</text><text fill="#000000" font-family="sans-serif" font-size="13" lengthAdjust="spacing" textLength="20" x="136.9355" y="128.0228">1..*</text><!--MD5=[c6525530ee6b07d09cc7919e1b3ec018]
@startuml
'https://plantuml.com/class-diagram
hide empty methods
hide empty attributes
skinparam classAttributeIconSize 0

class TrafficManager{
    -name
}

class Company{}

class Port{
    -continent
    -country
    -portCode
    -portName
    -latitude
    -longitude
}

TrafficManager "1" - - "1..*" Port : imports >
Company "1" - - "1..*" Port : manages >

@enduml

@startuml
hide empty methods
hide empty attributes
skinparam classAttributeIconSize 0

class TrafficManager{
    -name
}

class Company{}

class Port{
    -continent
    -country
    -portCode
    -portName
    -latitude
    -longitude
}

TrafficManager "1" - - "1..*" Port : imports >
Company "1" - - "1..*" Port : manages >

@enduml

PlantUML version 1.2021.11(Sat Oct 02 14:26:11 BST 2021)
(GPL source distribution)
Java Runtime: OpenJDK Runtime Environment
JVM: OpenJDK 64-Bit Server VM
Default Encoding: Cp1252
Language: pt
Country: PT
--></g></svg>