<?xml version="1.0" encoding="UTF-8" standalone="no"?><svg xmlns="http://www.w3.org/2000/svg" xmlns:xlink="http://www.w3.org/1999/xlink" contentScriptType="application/ecmascript" contentStyleType="text/css" height="604px" preserveAspectRatio="none" style="width:302px;height:604px;background:#FFFFFF;" version="1.1" viewBox="0 0 302 604" width="302px" zoomAndPan="magnify"><defs><filter height="300%" id="f14f7fsu9xk8sq" width="300%" x="-1" y="-1"><feGaussianBlur result="blurOut" stdDeviation="2.0"/><feColorMatrix in="blurOut" result="blurOut2" type="matrix" values="0 0 0 0 0 0 0 0 0 0 0 0 0 0 0 0 0 0 .4 0"/><feOffset dx="4.0" dy="4.0" in="blurOut2" result="blurOut3"/><feBlend in="SourceGraphic" in2="blurOut3" mode="normal"/></filter></defs><g><!--MD5=[c4abf5676b63f1d06df942114258a64b]
class OccupancyByShipAndDateController--><rect codeLine="7" fill="#FEFECE" filter="url(#f14f7fsu9xk8sq)" height="75.6719" id="OccupancyByShipAndDateController" style="stroke:#A80036;stroke-width:1.5;" width="243" x="7" y="7"/><ellipse cx="27.4" cy="23" fill="#ADD1B2" rx="11" ry="11" style="stroke:#A80036;stroke-width:1.0;"/><path d="M29.4,19.5 Q29.6031,19 29.8375,18.75 Q30.0719,18.5 30.3375,18.5 Q30.8063,18.5 31.1031,18.7813 Q31.4,19.0625 31.4,19.7188 L31.4,21.2813 Q31.4,21.9375 31.1188,22.2188 Q30.8375,22.5 30.4,22.5 Q30.0094,22.5 29.7594,22.3281 Q29.5094,22.1563 29.4,21.7031 Q29.3531,21.3906 29.1813,21.2188 Q28.8688,20.8906 28.3063,20.7031 Q27.7438,20.5 27.1813,20.5 Q26.4781,20.5 25.8844,20.7813 Q25.3063,21.0625 24.8531,21.6875 Q24.4,22.3125 24.4,23.1719 L24.4,24.0938 Q24.4,25.125 25.2438,25.8125 Q26.0875,26.5 27.5875,26.5 Q28.4781,26.5 29.1031,26.2969 Q29.4625,26.1875 29.8688,25.8281 Q30.1344,25.625 30.275,25.5625 Q30.4156,25.5 30.5875,25.5 Q30.9156,25.5 31.15,25.7656 Q31.4,26.0156 31.4,26.375 Q31.4,26.7188 31.0563,27.125 Q30.5563,27.7188 29.7594,28.0469 Q28.7125,28.5 27.4313,28.5 Q25.9313,28.5 24.7281,27.9063 Q23.7594,27.4375 23.0719,26.4219 Q22.4,25.4063 22.4,24.2031 L22.4,23.1094 Q22.4,21.8594 22.9938,20.7656 Q23.6031,19.6719 24.65,19.0938 Q25.7125,18.5 26.9,18.5 Q27.6188,18.5 28.2438,18.75 Q28.8688,19 29.4,19.5 Z " fill="#000000"/><text fill="#000000" font-family="sans-serif" font-size="12" lengthAdjust="spacing" textLength="199" x="42.6" y="27.9102">OccupancyByShipAndDateController</text><line style="stroke:#A80036;stroke-width:1.5;" x1="8" x2="249" y1="39" y2="39"/><text fill="#000000" font-family="sans-serif" font-size="11" lengthAdjust="spacing" textLength="48" x="13" y="54.4189">-company</text><line style="stroke:#A80036;stroke-width:1.5;" x1="8" x2="249" y1="60.8359" y2="60.8359"/><text fill="#000000" font-family="sans-serif" font-size="11" lengthAdjust="spacing" textLength="231" x="13" y="76.2549">-getShipOccupancyByShipAndDate(mmsi, date)</text><!--MD5=[02e4b9b7573f1156f41e60aa5b4e25a4]
class Company--><rect codeLine="12" fill="#FEFECE" filter="url(#f14f7fsu9xk8sq)" height="53.8359" id="Company" style="stroke:#A80036;stroke-width:1.5;" width="86" x="37.5" y="144"/><ellipse cx="52.95" cy="160" fill="#ADD1B2" rx="11" ry="11" style="stroke:#A80036;stroke-width:1.0;"/><path d="M54.95,156.5 Q55.1531,156 55.3875,155.75 Q55.6219,155.5 55.8875,155.5 Q56.3563,155.5 56.6531,155.7813 Q56.95,156.0625 56.95,156.7188 L56.95,158.2813 Q56.95,158.9375 56.6688,159.2188 Q56.3875,159.5 55.95,159.5 Q55.5594,159.5 55.3094,159.3281 Q55.0594,159.1563 54.95,158.7031 Q54.9031,158.3906 54.7313,158.2188 Q54.4188,157.8906 53.8563,157.7031 Q53.2938,157.5 52.7313,157.5 Q52.0281,157.5 51.4344,157.7813 Q50.8563,158.0625 50.4031,158.6875 Q49.95,159.3125 49.95,160.1719 L49.95,161.0938 Q49.95,162.125 50.7938,162.8125 Q51.6375,163.5 53.1375,163.5 Q54.0281,163.5 54.6531,163.2969 Q55.0125,163.1875 55.4188,162.8281 Q55.6844,162.625 55.825,162.5625 Q55.9656,162.5 56.1375,162.5 Q56.4656,162.5 56.7,162.7656 Q56.95,163.0156 56.95,163.375 Q56.95,163.7188 56.6063,164.125 Q56.1063,164.7188 55.3094,165.0469 Q54.2625,165.5 52.9813,165.5 Q51.4813,165.5 50.2781,164.9063 Q49.3094,164.4375 48.6219,163.4219 Q47.95,162.4063 47.95,161.2031 L47.95,160.1094 Q47.95,158.8594 48.5438,157.7656 Q49.1531,156.6719 50.2,156.0938 Q51.2625,155.5 52.45,155.5 Q53.1688,155.5 53.7938,155.75 Q54.4188,156 54.95,156.5 Z " fill="#000000"/><text fill="#000000" font-family="sans-serif" font-size="12" lengthAdjust="spacing" textLength="53" x="67.05" y="164.9102">Company</text><line style="stroke:#A80036;stroke-width:1.5;" x1="38.5" x2="122.5" y1="176" y2="176"/><text fill="#000000" font-family="sans-serif" font-size="11" lengthAdjust="spacing" textLength="74" x="43.5" y="191.4189">-getShipStore()</text><!--MD5=[4308a223f203dbd64353ded297da1c90]
class ShipsStore--><rect codeLine="16" fill="#FEFECE" filter="url(#f14f7fsu9xk8sq)" height="53.8359" id="ShipsStore" style="stroke:#A80036;stroke-width:1.5;" width="145" x="63" y="276"/><ellipse cx="101.4" cy="292" fill="#ADD1B2" rx="11" ry="11" style="stroke:#A80036;stroke-width:1.0;"/><path d="M103.4,288.5 Q103.6031,288 103.8375,287.75 Q104.0719,287.5 104.3375,287.5 Q104.8063,287.5 105.1031,287.7813 Q105.4,288.0625 105.4,288.7188 L105.4,290.2813 Q105.4,290.9375 105.1188,291.2188 Q104.8375,291.5 104.4,291.5 Q104.0094,291.5 103.7594,291.3281 Q103.5094,291.1563 103.4,290.7031 Q103.3531,290.3906 103.1813,290.2188 Q102.8688,289.8906 102.3063,289.7031 Q101.7438,289.5 101.1813,289.5 Q100.4781,289.5 99.8844,289.7813 Q99.3063,290.0625 98.8531,290.6875 Q98.4,291.3125 98.4,292.1719 L98.4,293.0938 Q98.4,294.125 99.2438,294.8125 Q100.0875,295.5 101.5875,295.5 Q102.4781,295.5 103.1031,295.2969 Q103.4625,295.1875 103.8688,294.8281 Q104.1344,294.625 104.275,294.5625 Q104.4156,294.5 104.5875,294.5 Q104.9156,294.5 105.15,294.7656 Q105.4,295.0156 105.4,295.375 Q105.4,295.7188 105.0563,296.125 Q104.5563,296.7188 103.7594,297.0469 Q102.7125,297.5 101.4313,297.5 Q99.9313,297.5 98.7281,296.9063 Q97.7594,296.4375 97.0719,295.4219 Q96.4,294.4063 96.4,293.2031 L96.4,292.1094 Q96.4,290.8594 96.9938,289.7656 Q97.6031,288.6719 98.65,288.0938 Q99.7125,287.5 100.9,287.5 Q101.6188,287.5 102.2438,287.75 Q102.8688,288 103.4,288.5 Z " fill="#000000"/><text fill="#000000" font-family="sans-serif" font-size="12" lengthAdjust="spacing" textLength="61" x="120.6" y="296.9102">ShipsStore</text><line style="stroke:#A80036;stroke-width:1.5;" x1="64" x2="207" y1="308" y2="308"/><text fill="#000000" font-family="sans-serif" font-size="11" lengthAdjust="spacing" textLength="133" x="69" y="323.4189">-findShipByAnyCode(code)</text><!--MD5=[43adf079e4aaffd3a283c2c0454b404c]
class ShipsBST--><rect codeLine="20" fill="#FEFECE" filter="url(#f14f7fsu9xk8sq)" height="53.8359" id="ShipsBST" style="stroke:#A80036;stroke-width:1.5;" width="125" x="73" y="408"/><ellipse cx="105.1" cy="424" fill="#ADD1B2" rx="11" ry="11" style="stroke:#A80036;stroke-width:1.0;"/><path d="M107.1,420.5 Q107.3031,420 107.5375,419.75 Q107.7719,419.5 108.0375,419.5 Q108.5063,419.5 108.8031,419.7813 Q109.1,420.0625 109.1,420.7188 L109.1,422.2813 Q109.1,422.9375 108.8188,423.2188 Q108.5375,423.5 108.1,423.5 Q107.7094,423.5 107.4594,423.3281 Q107.2094,423.1563 107.1,422.7031 Q107.0531,422.3906 106.8813,422.2188 Q106.5688,421.8906 106.0063,421.7031 Q105.4438,421.5 104.8813,421.5 Q104.1781,421.5 103.5844,421.7813 Q103.0063,422.0625 102.5531,422.6875 Q102.1,423.3125 102.1,424.1719 L102.1,425.0938 Q102.1,426.125 102.9438,426.8125 Q103.7875,427.5 105.2875,427.5 Q106.1781,427.5 106.8031,427.2969 Q107.1625,427.1875 107.5688,426.8281 Q107.8344,426.625 107.975,426.5625 Q108.1156,426.5 108.2875,426.5 Q108.6156,426.5 108.85,426.7656 Q109.1,427.0156 109.1,427.375 Q109.1,427.7188 108.7563,428.125 Q108.2563,428.7188 107.4594,429.0469 Q106.4125,429.5 105.1313,429.5 Q103.6313,429.5 102.4281,428.9063 Q101.4594,428.4375 100.7719,427.4219 Q100.1,426.4063 100.1,425.2031 L100.1,424.1094 Q100.1,422.8594 100.6938,421.7656 Q101.3031,420.6719 102.35,420.0938 Q103.4125,419.5 104.6,419.5 Q105.3188,419.5 105.9438,419.75 Q106.5688,420 107.1,420.5 Z " fill="#000000"/><text fill="#000000" font-family="sans-serif" font-size="12" lengthAdjust="spacing" textLength="55" x="122.9" y="428.9102">ShipsBST</text><line style="stroke:#A80036;stroke-width:1.5;" x1="74" x2="197" y1="440" y2="440"/><text fill="#000000" font-family="sans-serif" font-size="11" lengthAdjust="spacing" textLength="113" x="79" y="455.4189">-findShipByMmsi(MMSI)</text><!--MD5=[b4a9ab6cffd58937cfea07eb2954e1bd]
class BST--><rect codeLine="24" fill="#FEFECE" filter="url(#f14f7fsu9xk8sq)" height="32" id="BST" style="stroke:#A80036;stroke-width:1.5;" width="55" x="233" y="419"/><ellipse cx="248" cy="435" fill="#ADD1B2" rx="11" ry="11" style="stroke:#A80036;stroke-width:1.0;"/><path d="M250,431.5 Q250.2031,431 250.4375,430.75 Q250.6719,430.5 250.9375,430.5 Q251.4063,430.5 251.7031,430.7813 Q252,431.0625 252,431.7188 L252,433.2813 Q252,433.9375 251.7188,434.2188 Q251.4375,434.5 251,434.5 Q250.6094,434.5 250.3594,434.3281 Q250.1094,434.1563 250,433.7031 Q249.9531,433.3906 249.7813,433.2188 Q249.4688,432.8906 248.9063,432.7031 Q248.3438,432.5 247.7813,432.5 Q247.0781,432.5 246.4844,432.7813 Q245.9063,433.0625 245.4531,433.6875 Q245,434.3125 245,435.1719 L245,436.0938 Q245,437.125 245.8438,437.8125 Q246.6875,438.5 248.1875,438.5 Q249.0781,438.5 249.7031,438.2969 Q250.0625,438.1875 250.4688,437.8281 Q250.7344,437.625 250.875,437.5625 Q251.0156,437.5 251.1875,437.5 Q251.5156,437.5 251.75,437.7656 Q252,438.0156 252,438.375 Q252,438.7188 251.6563,439.125 Q251.1563,439.7188 250.3594,440.0469 Q249.3125,440.5 248.0313,440.5 Q246.5313,440.5 245.3281,439.9063 Q244.3594,439.4375 243.6719,438.4219 Q243,437.4063 243,436.2031 L243,435.1094 Q243,433.8594 243.5938,432.7656 Q244.2031,431.6719 245.25,431.0938 Q246.3125,430.5 247.5,430.5 Q248.2188,430.5 248.8438,430.75 Q249.4688,431 250,431.5 Z " fill="#000000"/><text fill="#000000" font-family="sans-serif" font-size="12" lengthAdjust="spacing" textLength="23" x="262" y="439.9102">BST</text><!--MD5=[0dc7f2ddb409b58bcf52b12238c25399]
class Ship--><rect codeLine="26" fill="#FEFECE" filter="url(#f14f7fsu9xk8sq)" height="67.6719" id="Ship" style="stroke:#A80036;stroke-width:1.5;" width="57" x="107" y="523"/><ellipse cx="122" cy="539" fill="#ADD1B2" rx="11" ry="11" style="stroke:#A80036;stroke-width:1.0;"/><path d="M124,535.5 Q124.2031,535 124.4375,534.75 Q124.6719,534.5 124.9375,534.5 Q125.4063,534.5 125.7031,534.7813 Q126,535.0625 126,535.7188 L126,537.2813 Q126,537.9375 125.7188,538.2188 Q125.4375,538.5 125,538.5 Q124.6094,538.5 124.3594,538.3281 Q124.1094,538.1563 124,537.7031 Q123.9531,537.3906 123.7813,537.2188 Q123.4688,536.8906 122.9063,536.7031 Q122.3438,536.5 121.7813,536.5 Q121.0781,536.5 120.4844,536.7813 Q119.9063,537.0625 119.4531,537.6875 Q119,538.3125 119,539.1719 L119,540.0938 Q119,541.125 119.8438,541.8125 Q120.6875,542.5 122.1875,542.5 Q123.0781,542.5 123.7031,542.2969 Q124.0625,542.1875 124.4688,541.8281 Q124.7344,541.625 124.875,541.5625 Q125.0156,541.5 125.1875,541.5 Q125.5156,541.5 125.75,541.7656 Q126,542.0156 126,542.375 Q126,542.7188 125.6563,543.125 Q125.1563,543.7188 124.3594,544.0469 Q123.3125,544.5 122.0313,544.5 Q120.5313,544.5 119.3281,543.9063 Q118.3594,543.4375 117.6719,542.4219 Q117,541.4063 117,540.2031 L117,539.1094 Q117,537.8594 117.5938,536.7656 Q118.2031,535.6719 119.25,535.0938 Q120.3125,534.5 121.5,534.5 Q122.2188,534.5 122.8438,534.75 Q123.4688,535 124,535.5 Z " fill="#000000"/><text fill="#000000" font-family="sans-serif" font-size="12" lengthAdjust="spacing" textLength="25" x="136" y="543.9102">Ship</text><line style="stroke:#A80036;stroke-width:1.5;" x1="108" x2="163" y1="555" y2="555"/><text fill="#000000" font-family="sans-serif" font-size="11" lengthAdjust="spacing" textLength="29" x="113" y="570.4189">-MMSI</text><text fill="#000000" font-family="sans-serif" font-size="11" lengthAdjust="spacing" textLength="32" x="113" y="584.2549">-cargo</text><!--MD5=[3cc38c46ec0b40443add37477d3653e6]
link OccupancyByShipAndDateController to Company--><path codeLine="31" d="M114.1,83.2 C107.18,101.07 98.99,122.23 92.43,139.18 " fill="none" id="OccupancyByShipAndDateController-to-Company" style="stroke:#A80036;stroke-width:1.0;stroke-dasharray:7.0,7.0;"/><polygon fill="#A80036" points="90.63,143.84,97.6056,136.8873,92.4326,139.1762,90.1436,134.0032,90.63,143.84" style="stroke:#A80036;stroke-width:1.0;"/><!--MD5=[a2e81d241acaef6fc265dbf79756c8bc]
link OccupancyByShipAndDateController to ShipsStore--><path codeLine="32" d="M139.88,83.34 C150.63,123.6 163.82,189.52 154.5,246 C153.13,254.3 150.69,263.03 148,271.06 " fill="none" id="OccupancyByShipAndDateController-to-ShipsStore" style="stroke:#A80036;stroke-width:1.0;stroke-dasharray:7.0,7.0;"/><polygon fill="#A80036" points="146.31,275.96,153.0227,268.7531,147.9382,271.2325,145.4588,266.148,146.31,275.96" style="stroke:#A80036;stroke-width:1.0;"/><!--MD5=[44e7f9b9c37d60f601e8cdfcd1094fad]
link Company to ShipsStore--><path codeLine="33" d="M89.28,198.31 C94.25,212.58 100.79,230.43 107.5,246 C111.76,255.88 116.91,266.5 121.63,275.8 " fill="none" id="Company-ShipsStore" style="stroke:#A80036;stroke-width:1.0;"/><polygon fill="#000000" points="114.4262,241.7898,113.6537,232.3107,108.2296,234.5751,114.4262,241.7898" style="stroke:#000000;stroke-width:1.0;"/><text fill="#000000" font-family="sans-serif" font-size="13" lengthAdjust="spacing" textLength="28" x="121.5" y="242.4951">uses</text><text fill="#000000" font-family="sans-serif" font-size="13" lengthAdjust="spacing" textLength="7" x="83.369" y="219.141">1</text><text fill="#000000" font-family="sans-serif" font-size="13" lengthAdjust="spacing" textLength="7" x="110.6132" y="265.2147">1</text><!--MD5=[35dfb0066db7f7f10e2c637a799521a8]
link ShipsStore to ShipsBST--><path codeLine="34" d="M135.5,330.31 C135.5,352.86 135.5,385.19 135.5,407.73 " fill="none" id="ShipsStore-ShipsBST" style="stroke:#A80036;stroke-width:1.0;"/><polygon fill="#000000" points="140.5,374.1758,143.4389,365.1307,137.5611,365.1307,140.5,374.1758" style="stroke:#000000;stroke-width:1.0;"/><text fill="#000000" font-family="sans-serif" font-size="13" lengthAdjust="spacing" textLength="28" x="149.5" y="374.4951">uses</text><text fill="#000000" font-family="sans-serif" font-size="13" lengthAdjust="spacing" textLength="7" x="127.7781" y="351.141">1</text><text fill="#000000" font-family="sans-serif" font-size="13" lengthAdjust="spacing" textLength="7" x="127.6906" y="397.1285">1</text><!--MD5=[b457ea32acbd230d0e22037aaab2ac98]
link ShipsBST to Ship--><path codeLine="35" d="M135.5,462.04 C135.5,478.29 135.5,499.51 135.5,517.67 " fill="none" id="ShipsBST-to-Ship" style="stroke:#A80036;stroke-width:1.0;stroke-dasharray:7.0,7.0;"/><polygon fill="#A80036" points="135.5,522.7,139.5,513.7,135.5,517.7,131.5,513.7,135.5,522.7" style="stroke:#A80036;stroke-width:1.0;"/><!--MD5=[e18dbd49a52e60917b88bf3b4a72eceb]
link ShipsBST to BST--><path codeLine="36" d="M198.49,435 C203.24,435 207.98,435 212.73,435 " fill="none" id="ShipsBST-to-BST" style="stroke:#A80036;stroke-width:1.0;"/><polygon fill="none" points="212.89,428,232.89,435,212.89,442,212.89,428" style="stroke:#A80036;stroke-width:1.0;"/><!--MD5=[2c79f7c59cf0e9c895eb14b62ed25a8d]
@startuml

hide empty methods
hide empty attributes
'left to right direction
skinparam classAttributeIconSize 0

class OccupancyByShipAndDateController{
- company
- getShipOccupancyByShipAndDate(mmsi, date)
}

class Company{
- getShipStore()
}

class ShipsStore{
- findShipByAnyCode(code)
}

class ShipsBST{
- findShipByMmsi(MMSI)
}

class BST{}

class Ship {
- MMSI
- cargo
}

OccupancyByShipAndDateController ..> Company
OccupancyByShipAndDateController ..> ShipsStore
Company "1" - - "1" ShipsStore : uses >
ShipsStore "1" - - "1" ShipsBST : uses >
ShipsBST ..> Ship
ShipsBST -|> BST

@enduml

@startuml

hide empty methods
hide empty attributes
skinparam classAttributeIconSize 0

class OccupancyByShipAndDateController{
- company
- getShipOccupancyByShipAndDate(mmsi, date)
}

class Company{
- getShipStore()
}

class ShipsStore{
- findShipByAnyCode(code)
}

class ShipsBST{
- findShipByMmsi(MMSI)
}

class BST{}

class Ship {
- MMSI
- cargo
}

OccupancyByShipAndDateController ..> Company
OccupancyByShipAndDateController ..> ShipsStore
Company "1" - - "1" ShipsStore : uses >
ShipsStore "1" - - "1" ShipsBST : uses >
ShipsBST ..> Ship
ShipsBST -|> BST

@enduml

PlantUML version 1.2021.11(Sat Oct 02 14:26:11 BST 2021)
(GPL source distribution)
Java Runtime: OpenJDK Runtime Environment
JVM: OpenJDK 64-Bit Server VM
Default Encoding: Cp1252
Language: pt
Country: PT
--></g></svg>