<?xml version="1.0" encoding="UTF-8" standalone="no"?><svg xmlns="http://www.w3.org/2000/svg" xmlns:xlink="http://www.w3.org/1999/xlink" contentScriptType="application/ecmascript" contentStyleType="text/css" height="110px" preserveAspectRatio="none" style="width:329px;height:110px;background:#FFFFFF;" version="1.1" viewBox="0 0 329 110" width="329px" zoomAndPan="magnify"><defs><filter height="300%" id="f3236rkwdsa5h" width="300%" x="-1" y="-1"><feGaussianBlur result="blurOut" stdDeviation="2.0"/><feColorMatrix in="blurOut" result="blurOut2" type="matrix" values="0 0 0 0 0 0 0 0 0 0 0 0 0 0 0 0 0 0 .4 0"/><feOffset dx="4.0" dy="4.0" in="blurOut2" result="blurOut3"/><feBlend in="SourceGraphic" in2="blurOut3" mode="normal"/></filter></defs><g><!--MD5=[387c7886ca19d97be437717f0ee466a0]
class ShipOccupancyRatesController--><rect codeLine="7" fill="#FEFECE" filter="url(#f3236rkwdsa5h)" height="89.5078" id="ShipOccupancyRatesController" style="stroke:#A80036;stroke-width:1.5;" width="308" x="7" y="7"/><ellipse cx="70.75" cy="23" fill="#ADD1B2" rx="11" ry="11" style="stroke:#A80036;stroke-width:1.0;"/><path d="M72.75,19.5 Q72.9531,19 73.1875,18.75 Q73.4219,18.5 73.6875,18.5 Q74.1563,18.5 74.4531,18.7813 Q74.75,19.0625 74.75,19.7188 L74.75,21.2813 Q74.75,21.9375 74.4688,22.2188 Q74.1875,22.5 73.75,22.5 Q73.3594,22.5 73.1094,22.3281 Q72.8594,22.1563 72.75,21.7031 Q72.7031,21.3906 72.5313,21.2188 Q72.2188,20.8906 71.6563,20.7031 Q71.0938,20.5 70.5313,20.5 Q69.8281,20.5 69.2344,20.7813 Q68.6563,21.0625 68.2031,21.6875 Q67.75,22.3125 67.75,23.1719 L67.75,24.0938 Q67.75,25.125 68.5938,25.8125 Q69.4375,26.5 70.9375,26.5 Q71.8281,26.5 72.4531,26.2969 Q72.8125,26.1875 73.2188,25.8281 Q73.4844,25.625 73.625,25.5625 Q73.7656,25.5 73.9375,25.5 Q74.2656,25.5 74.5,25.7656 Q74.75,26.0156 74.75,26.375 Q74.75,26.7188 74.4063,27.125 Q73.9063,27.7188 73.1094,28.0469 Q72.0625,28.5 70.7813,28.5 Q69.2813,28.5 68.0781,27.9063 Q67.1094,27.4375 66.4219,26.4219 Q65.75,25.4063 65.75,24.2031 L65.75,23.1094 Q65.75,21.8594 66.3438,20.7656 Q66.9531,19.6719 68,19.0938 Q69.0625,18.5 70.25,18.5 Q70.9688,18.5 71.5938,18.75 Q72.2188,19 72.75,19.5 Z " fill="#000000"/><text fill="#000000" font-family="sans-serif" font-size="12" lengthAdjust="spacing" textLength="172" x="91.25" y="27.9102">ShipOccupancyRatesController</text><line style="stroke:#A80036;stroke-width:1.5;" x1="8" x2="314" y1="39" y2="39"/><text fill="#000000" font-family="sans-serif" font-size="11" lengthAdjust="spacing" textLength="48" x="13" y="54.4189">-company</text><line style="stroke:#A80036;stroke-width:1.5;" x1="8" x2="314" y1="60.8359" y2="60.8359"/><text fill="#000000" font-family="sans-serif" font-size="11" lengthAdjust="spacing" textLength="256" x="13" y="76.2549">-getShipOccupancyRateByMmsiAndDate(mmsi, date)</text><text fill="#000000" font-family="sans-serif" font-size="11" lengthAdjust="spacing" textLength="296" x="13" y="90.0908">-getShipOccupancyRateByCargoManifestID(cargoManifestID)</text><!--MD5=[e0762f81b4635827943b149aa2e8b8b0]
@startuml

hide empty methods
hide empty attributes
'left to right direction
skinparam classAttributeIconSize 0

class ShipOccupancyRatesController{
- company
- getShipOccupancyRateByMmsiAndDate(mmsi, date)
- getShipOccupancyRateByCargoManifestID(cargoManifestID)
}

'class Company{
'- getShipStore()
'}

'class ShipsStore{
'- findShipByAnyCode(code)
'}

'class ShipsBST{
'- findShipByMmsi(MMSI)
'}

'class BST{}

'class Ship {
'- MMSI
'- cargo
'}

'ShipOccupancyRatesController ..> Company
'ShipOccupancyRatesController ..> ShipsStore
'Company "1" - - "1" ShipsStore : uses >
'ShipsStore "1" - - "1" ShipsBST : uses >
'ShipsBST ..> Ship
'ShipsBST -|> BST

@enduml

@startuml

hide empty methods
hide empty attributes
skinparam classAttributeIconSize 0

class ShipOccupancyRatesController{
- company
- getShipOccupancyRateByMmsiAndDate(mmsi, date)
- getShipOccupancyRateByCargoManifestID(cargoManifestID)
}







@enduml

PlantUML version 1.2021.11(Sat Oct 02 14:26:11 BST 2021)
(GPL source distribution)
Java Runtime: OpenJDK Runtime Environment
JVM: OpenJDK 64-Bit Server VM
Default Encoding: Cp1252
Language: pt
Country: PT
--></g></svg>