<?xml version="1.0" encoding="UTF-8" standalone="no"?><svg xmlns="http://www.w3.org/2000/svg" xmlns:xlink="http://www.w3.org/1999/xlink" contentScriptType="application/ecmascript" contentStyleType="text/css" height="442.2px" preserveAspectRatio="none" style="width:452px;height:442px;background:#FFFFFF;" version="1.1" viewBox="0 0 452 442" width="452.4px" zoomAndPan="magnify"><defs><filter height="300%" id="f1kgy4dno4jycb" width="300%" x="-1" y="-1"><feGaussianBlur result="blurOut" stdDeviation="1.2"/><feColorMatrix in="blurOut" result="blurOut2" type="matrix" values="0 0 0 0 0 0 0 0 0 0 0 0 0 0 0 0 0 0 .4 0"/><feOffset dx="2.4" dy="2.4" in="blurOut2" result="blurOut3"/><feBlend in="SourceGraphic" in2="blurOut3" mode="normal"/></filter></defs><g><!--MD5=[187ccc8030f0f5b4620e42336e46a3c3]
class ColorMapController--><rect codeLine="4" fill="#FEFECE" filter="url(#f1kgy4dno4jycb)" height="37.1016" id="ColorMapController" style="stroke:#A80036;stroke-width:0.8999999999999999;" width="83.4" x="183.3" y="4.2"/><ellipse cx="192.3" cy="13.8" fill="#ADD1B2" rx="6.6" ry="6.6" style="stroke:#A80036;stroke-width:0.6;"/><path d="M193.5,11.7 Q193.6219,11.4 193.7625,11.25 Q193.9031,11.1 194.0625,11.1 Q194.3438,11.1 194.5219,11.2687 Q194.7,11.4375 194.7,11.8312 L194.7,12.7687 Q194.7,13.1625 194.5313,13.3312 Q194.3625,13.5 194.1,13.5 Q193.8656,13.5 193.7156,13.3969 Q193.5656,13.2938 193.5,13.0219 Q193.4719,12.8344 193.3688,12.7313 Q193.1813,12.5344 192.8438,12.4219 Q192.5063,12.3 192.1688,12.3 Q191.7469,12.3 191.3906,12.4688 Q191.0438,12.6375 190.7719,13.0125 Q190.5,13.3875 190.5,13.9031 L190.5,14.4562 Q190.5,15.075 191.0063,15.4875 Q191.5125,15.9 192.4125,15.9 Q192.9469,15.9 193.3219,15.7781 Q193.5375,15.7125 193.7813,15.4969 Q193.9406,15.375 194.025,15.3375 Q194.1094,15.3 194.2125,15.3 Q194.4094,15.3 194.55,15.4594 Q194.7,15.6094 194.7,15.825 Q194.7,16.0313 194.4938,16.275 Q194.1938,16.6312 193.7156,16.8281 Q193.0875,17.1 192.3188,17.1 Q191.4188,17.1 190.6969,16.7438 Q190.1156,16.4625 189.7031,15.8531 Q189.3,15.2437 189.3,14.5219 L189.3,13.8656 Q189.3,13.1156 189.6563,12.4594 Q190.0219,11.8031 190.65,11.4562 Q191.2875,11.1 192,11.1 Q192.4313,11.1 192.8063,11.25 Q193.1813,11.4 193.5,11.7 Z " fill="#000000"/><text fill="#000000" font-family="sans-serif" font-size="7.2" lengthAdjust="spacing" textLength="64.2" x="200.7" y="16.7461">ColorMapController</text><line style="stroke:#A80036;stroke-width:0.8999999999999999;" x1="183.9" x2="266.1" y1="23.4" y2="23.4"/><line style="stroke:#A80036;stroke-width:0.8999999999999999;" x1="183.9" x2="266.1" y1="28.2" y2="28.2"/><text fill="#000000" font-family="sans-serif" font-size="6.6" lengthAdjust="spacing" textLength="34.8" x="186.9" y="37.4514">+colorMap()</text><!--MD5=[02e4b9b7573f1156f41e60aa5b4e25a4]
class Company--><rect codeLine="8" fill="#FEFECE" filter="url(#f1kgy4dno4jycb)" height="45.4031" id="Company" style="stroke:#A80036;stroke-width:0.8999999999999999;" width="69" x="224.1" y="78"/><ellipse cx="241.2" cy="87.6" fill="#ADD1B2" rx="6.6" ry="6.6" style="stroke:#A80036;stroke-width:0.6;"/><path d="M242.4,85.5 Q242.5219,85.2 242.6625,85.05 Q242.8031,84.9 242.9625,84.9 Q243.2437,84.9 243.4219,85.0688 Q243.6,85.2375 243.6,85.6313 L243.6,86.5688 Q243.6,86.9625 243.4312,87.1313 Q243.2625,87.3 243,87.3 Q242.7656,87.3 242.6156,87.1969 Q242.4656,87.0938 242.4,86.8219 Q242.3719,86.6344 242.2687,86.5313 Q242.0812,86.3344 241.7437,86.2219 Q241.4063,86.1 241.0688,86.1 Q240.6469,86.1 240.2906,86.2688 Q239.9438,86.4375 239.6719,86.8125 Q239.4,87.1875 239.4,87.7031 L239.4,88.2563 Q239.4,88.875 239.9063,89.2875 Q240.4125,89.7 241.3125,89.7 Q241.8469,89.7 242.2219,89.5781 Q242.4375,89.5125 242.6812,89.2969 Q242.8406,89.175 242.925,89.1375 Q243.0094,89.1 243.1125,89.1 Q243.3094,89.1 243.45,89.2594 Q243.6,89.4094 243.6,89.625 Q243.6,89.8313 243.3937,90.075 Q243.0938,90.4312 242.6156,90.6281 Q241.9875,90.9 241.2188,90.9 Q240.3188,90.9 239.5969,90.5438 Q239.0156,90.2625 238.6031,89.6531 Q238.2,89.0438 238.2,88.3219 L238.2,87.6656 Q238.2,86.9156 238.5562,86.2594 Q238.9219,85.6031 239.55,85.2563 Q240.1875,84.9 240.9,84.9 Q241.3312,84.9 241.7062,85.05 Q242.0812,85.2 242.4,85.5 Z " fill="#000000"/><text fill="#000000" font-family="sans-serif" font-size="7.2" lengthAdjust="spacing" textLength="31.8" x="251.4" y="90.5461">Company</text><line style="stroke:#A80036;stroke-width:0.8999999999999999;" x1="224.7" x2="292.5" y1="97.2" y2="97.2"/><text fill="#000000" font-family="sans-serif" font-size="6.6" lengthAdjust="spacing" textLength="35.4" x="227.7" y="106.4514">-designation</text><line style="stroke:#A80036;stroke-width:0.8999999999999999;" x1="224.7" x2="292.5" y1="110.3016" y2="110.3016"/><text fill="#000000" font-family="sans-serif" font-size="6.6" lengthAdjust="spacing" textLength="61.8" x="227.7" y="119.5529">+getFreightNetwork()</text><!--MD5=[074ba6ad47b234bd73d65012320c1634]
class FreightNetwork--><rect codeLine="13" fill="#FEFECE" filter="url(#f1kgy4dno4jycb)" height="53.7047" id="FreightNetwork" style="stroke:#A80036;stroke-width:0.8999999999999999;" width="111" x="182.1" y="170.4"/><ellipse cx="210.15" cy="180" fill="#ADD1B2" rx="6.6" ry="6.6" style="stroke:#A80036;stroke-width:0.6;"/><path d="M211.35,177.9 Q211.4719,177.6 211.6125,177.45 Q211.7531,177.3 211.9125,177.3 Q212.1938,177.3 212.3719,177.4688 Q212.55,177.6375 212.55,178.0313 L212.55,178.9688 Q212.55,179.3625 212.3813,179.5313 Q212.2125,179.7 211.95,179.7 Q211.7156,179.7 211.5656,179.5969 Q211.4156,179.4938 211.35,179.2219 Q211.3219,179.0344 211.2188,178.9313 Q211.0313,178.7344 210.6938,178.6219 Q210.3563,178.5 210.0187,178.5 Q209.5969,178.5 209.2406,178.6688 Q208.8937,178.8375 208.6219,179.2125 Q208.35,179.5875 208.35,180.1031 L208.35,180.6563 Q208.35,181.275 208.8563,181.6875 Q209.3625,182.1 210.2625,182.1 Q210.7969,182.1 211.1719,181.9781 Q211.3875,181.9125 211.6313,181.6969 Q211.7906,181.575 211.875,181.5375 Q211.9594,181.5 212.0625,181.5 Q212.2594,181.5 212.4,181.6594 Q212.55,181.8094 212.55,182.025 Q212.55,182.2313 212.3438,182.475 Q212.0438,182.8312 211.5656,183.0281 Q210.9375,183.3 210.1688,183.3 Q209.2687,183.3 208.5469,182.9438 Q207.9656,182.6625 207.5531,182.0531 Q207.15,181.4438 207.15,180.7219 L207.15,180.0656 Q207.15,179.3156 207.5063,178.6594 Q207.8719,178.0031 208.5,177.6563 Q209.1375,177.3 209.85,177.3 Q210.2813,177.3 210.6563,177.45 Q211.0313,177.6 211.35,177.9 Z " fill="#000000"/><text fill="#000000" font-family="sans-serif" font-size="7.2" lengthAdjust="spacing" textLength="49.8" x="222.45" y="182.9461">FreightNetwork</text><line style="stroke:#A80036;stroke-width:0.8999999999999999;" x1="182.7" x2="292.5" y1="189.6" y2="189.6"/><line style="stroke:#A80036;stroke-width:0.8999999999999999;" x1="182.7" x2="292.5" y1="194.4" y2="194.4"/><text fill="#000000" font-family="sans-serif" font-size="6.6" lengthAdjust="spacing" textLength="74.4" x="185.7" y="203.6514">+getOrderedCapitalsList()</text><text fill="#000000" font-family="sans-serif" font-size="6.6" lengthAdjust="spacing" textLength="103.8" x="185.7" y="211.9529">+fillCapitalsToColor(capitalsToColor)</text><text fill="#000000" font-family="sans-serif" font-size="6.6" lengthAdjust="spacing" textLength="34.8" x="185.7" y="220.2545">+colorMap()</text><!--MD5=[4f1f3706c1a355a8488e154afcaed5df]
class Location--><rect codeLine="19" fill="#FEFECE" filter="url(#f1kgy4dno4jycb)" height="53.7047" id="Location" style="stroke:#A80036;stroke-width:0.8999999999999999;" width="48" x="253.2" y="271.2"/><ellipse cx="262.47" cy="280.8" fill="#A9DCDF" rx="6.6" ry="6.6" style="stroke:#A80036;stroke-width:0.6;"/><path d="M263.52,281.7 L261.5419,281.7 L261.2794,282.3 L261.2794,282.3 L261.5606,282.3 L261.87,282.675 L261.87,282.9 L261.87,283.125 L261.5606,283.5 L261.2794,283.5 L260.145,283.5 L259.7794,283.5 L259.47,283.125 L259.47,282.9 L259.47,282.675 L259.7794,282.3 L260.145,282.3 L261.5325,278.7 L261.0075,278.7 L260.3794,278.7 L260.07,278.325 L260.07,278.1 L260.07,277.875 L260.3794,277.5 L261.0075,277.5 L263.2106,277.5 L264.8231,282.3 L265.1606,282.3 L265.1606,282.3 L265.47,282.675 L265.47,282.9 L265.47,283.125 L265.1606,283.5 L264.8231,283.5 L263.6887,283.5 L263.3794,283.5 L263.07,283.125 L263.07,282.9 L263.07,282.675 L263.3794,282.3 L263.6887,282.3 L263.6887,282.3 L263.52,281.7 Z M263.1919,280.5 L262.47,278.3531 L261.8513,280.5 L263.1919,280.5 Z " fill="#000000"/><text fill="#000000" font-family="sans-serif" font-size="7.2" font-style="italic" lengthAdjust="spacing" textLength="28.2" x="270.93" y="283.7461">Location</text><line style="stroke:#A80036;stroke-width:0.8999999999999999;" x1="253.8" x2="300.6" y1="290.4" y2="290.4"/><text fill="#000000" font-family="sans-serif" font-size="6.6" lengthAdjust="spacing" textLength="22.8" x="256.8" y="299.6514">-latitude</text><text fill="#000000" font-family="sans-serif" font-size="6.6" lengthAdjust="spacing" textLength="28.2" x="256.8" y="307.9529">-longitude</text><text fill="#000000" font-family="sans-serif" font-size="6.6" lengthAdjust="spacing" textLength="40.8" x="256.8" y="316.2545">-countryName</text><line style="stroke:#A80036;stroke-width:0.8999999999999999;" x1="253.8" x2="300.6" y1="320.1047" y2="320.1047"/><!--MD5=[a0bfe97ac0a38e6e74cc1c7c7b744b71]
class Port--><rect codeLine="25" fill="#FEFECE" filter="url(#f1kgy4dno4jycb)" height="62.0062" id="Port" style="stroke:#A80036;stroke-width:0.8999999999999999;" width="55.2" x="159" y="372"/><ellipse cx="178.26" cy="381.6" fill="#ADD1B2" rx="6.6" ry="6.6" style="stroke:#A80036;stroke-width:0.6;"/><path d="M179.46,379.5 Q179.5819,379.2 179.7225,379.05 Q179.8631,378.9 180.0225,378.9 Q180.3038,378.9 180.4819,379.0687 Q180.66,379.2375 180.66,379.6312 L180.66,380.5687 Q180.66,380.9625 180.4913,381.1312 Q180.3225,381.3 180.06,381.3 Q179.8256,381.3 179.6756,381.1969 Q179.5256,381.0938 179.46,380.8219 Q179.4319,380.6344 179.3288,380.5313 Q179.1413,380.3344 178.8038,380.2219 Q178.4663,380.1 178.1288,380.1 Q177.7069,380.1 177.3506,380.2688 Q177.0038,380.4375 176.7319,380.8125 Q176.46,381.1875 176.46,381.7031 L176.46,382.2562 Q176.46,382.875 176.9663,383.2875 Q177.4725,383.7 178.3725,383.7 Q178.9069,383.7 179.2819,383.5781 Q179.4975,383.5125 179.7413,383.2969 Q179.9006,383.175 179.985,383.1375 Q180.0694,383.1 180.1725,383.1 Q180.3694,383.1 180.51,383.2594 Q180.66,383.4094 180.66,383.625 Q180.66,383.8313 180.4538,384.075 Q180.1538,384.4313 179.6756,384.6281 Q179.0475,384.9 178.2788,384.9 Q177.3788,384.9 176.6569,384.5438 Q176.0756,384.2625 175.6631,383.6531 Q175.26,383.0438 175.26,382.3219 L175.26,381.6656 Q175.26,380.9156 175.6163,380.2594 Q175.9819,379.6031 176.61,379.2562 Q177.2475,378.9 177.96,378.9 Q178.3913,378.9 178.7663,379.05 Q179.1413,379.2 179.46,379.5 Z " fill="#000000"/><text fill="#000000" font-family="sans-serif" font-size="7.2" lengthAdjust="spacing" textLength="13.2" x="188.94" y="384.5461">Port</text><line style="stroke:#A80036;stroke-width:0.8999999999999999;" x1="159.6" x2="213.6" y1="391.2" y2="391.2"/><text fill="#000000" font-family="sans-serif" font-size="6.6" lengthAdjust="spacing" textLength="38.4" x="162.6" y="400.4514">-identification</text><text fill="#000000" font-family="sans-serif" font-size="6.6" lengthAdjust="spacing" textLength="18" x="162.6" y="408.7529">-name</text><text fill="#000000" font-family="sans-serif" font-size="6.6" lengthAdjust="spacing" textLength="28.8" x="162.6" y="417.0545">-continent</text><text fill="#000000" font-family="sans-serif" font-size="6.6" lengthAdjust="spacing" textLength="48" x="162.6" y="425.3561">-toPortsDistance</text><line style="stroke:#A80036;stroke-width:0.8999999999999999;" x1="159.6" x2="213.6" y1="429.2063" y2="429.2063"/><!--MD5=[ea8f20dfdca176213da526d9b557babf]
class Capital--><rect codeLine="32" fill="#FEFECE" filter="url(#f1kgy4dno4jycb)" height="37.1016" id="Capital" style="stroke:#A80036;stroke-width:0.8999999999999999;" width="42.6" x="346.5" y="384.3"/><ellipse cx="355.5" cy="393.9" fill="#ADD1B2" rx="6.6" ry="6.6" style="stroke:#A80036;stroke-width:0.6;"/><path d="M356.7,391.8 Q356.8219,391.5 356.9625,391.35 Q357.1031,391.2 357.2625,391.2 Q357.5438,391.2 357.7219,391.3688 Q357.9,391.5375 357.9,391.9313 L357.9,392.8688 Q357.9,393.2625 357.7313,393.4313 Q357.5625,393.6 357.3,393.6 Q357.0656,393.6 356.9156,393.4969 Q356.7656,393.3938 356.7,393.1219 Q356.6719,392.9344 356.5687,392.8313 Q356.3812,392.6344 356.0438,392.5219 Q355.7063,392.4 355.3688,392.4 Q354.9469,392.4 354.5906,392.5687 Q354.2438,392.7375 353.9719,393.1125 Q353.7,393.4875 353.7,394.0031 L353.7,394.5563 Q353.7,395.175 354.2063,395.5875 Q354.7125,396 355.6125,396 Q356.1469,396 356.5219,395.8781 Q356.7375,395.8125 356.9813,395.5969 Q357.1406,395.475 357.225,395.4375 Q357.3094,395.4 357.4125,395.4 Q357.6094,395.4 357.75,395.5594 Q357.9,395.7094 357.9,395.925 Q357.9,396.1312 357.6937,396.375 Q357.3938,396.7313 356.9156,396.9281 Q356.2875,397.2 355.5188,397.2 Q354.6188,397.2 353.8969,396.8438 Q353.3156,396.5625 352.9031,395.9531 Q352.5,395.3438 352.5,394.6219 L352.5,393.9656 Q352.5,393.2156 352.8563,392.5594 Q353.2219,391.9031 353.85,391.5563 Q354.4875,391.2 355.2,391.2 Q355.6312,391.2 356.0062,391.35 Q356.3812,391.5 356.7,391.8 Z " fill="#000000"/><text fill="#000000" font-family="sans-serif" font-size="7.2" lengthAdjust="spacing" textLength="23.4" x="363.9" y="396.8461">Capital</text><line style="stroke:#A80036;stroke-width:0.8999999999999999;" x1="347.1" x2="388.5" y1="403.5" y2="403.5"/><text fill="#000000" font-family="sans-serif" font-size="6.6" lengthAdjust="spacing" textLength="18" x="350.1" y="412.7514">-name</text><line style="stroke:#A80036;stroke-width:0.8999999999999999;" x1="347.1" x2="388.5" y1="416.6016" y2="416.6016"/><!--MD5=[deb4e1f6eb1e3c1256fdb830f96abfbb]
class Country--><rect codeLine="36" fill="#FEFECE" filter="url(#f1kgy4dno4jycb)" height="53.7047" id="Country" style="stroke:#A80036;stroke-width:0.8999999999999999;" width="44.4" x="399.6" y="271.2"/><ellipse cx="408.6" cy="280.8" fill="#ADD1B2" rx="6.6" ry="6.6" style="stroke:#A80036;stroke-width:0.6;"/><path d="M409.8,278.7 Q409.9219,278.4 410.0625,278.25 Q410.2031,278.1 410.3625,278.1 Q410.6438,278.1 410.8219,278.2688 Q411,278.4375 411,278.8313 L411,279.7688 Q411,280.1625 410.8313,280.3313 Q410.6625,280.5 410.4,280.5 Q410.1656,280.5 410.0156,280.3969 Q409.8656,280.2938 409.8,280.0219 Q409.7719,279.8344 409.6688,279.7313 Q409.4813,279.5344 409.1438,279.4219 Q408.8063,279.3 408.4688,279.3 Q408.0469,279.3 407.6906,279.4688 Q407.3438,279.6375 407.0719,280.0125 Q406.8,280.3875 406.8,280.9031 L406.8,281.4563 Q406.8,282.075 407.3063,282.4875 Q407.8125,282.9 408.7125,282.9 Q409.2469,282.9 409.6219,282.7781 Q409.8375,282.7125 410.0813,282.4969 Q410.2406,282.375 410.325,282.3375 Q410.4094,282.3 410.5125,282.3 Q410.7094,282.3 410.85,282.4594 Q411,282.6094 411,282.825 Q411,283.0313 410.7938,283.275 Q410.4938,283.6312 410.0156,283.8281 Q409.3875,284.1 408.6188,284.1 Q407.7188,284.1 406.9969,283.7438 Q406.4156,283.4625 406.0031,282.8531 Q405.6,282.2438 405.6,281.5219 L405.6,280.8656 Q405.6,280.1156 405.9563,279.4594 Q406.3219,278.8031 406.95,278.4563 Q407.5875,278.1 408.3,278.1 Q408.7313,278.1 409.1063,278.25 Q409.4813,278.4 409.8,278.7 Z " fill="#000000"/><text fill="#000000" font-family="sans-serif" font-size="7.2" lengthAdjust="spacing" textLength="25.2" x="417" y="283.7461">Country</text><line style="stroke:#A80036;stroke-width:0.8999999999999999;" x1="400.2" x2="443.4" y1="290.4" y2="290.4"/><text fill="#000000" font-family="sans-serif" font-size="6.6" lengthAdjust="spacing" textLength="28.8" x="403.2" y="299.6514">-continent</text><text fill="#000000" font-family="sans-serif" font-size="6.6" lengthAdjust="spacing" textLength="18" x="403.2" y="307.9529">-name</text><text fill="#000000" font-family="sans-serif" font-size="6.6" lengthAdjust="spacing" textLength="25.2" x="403.2" y="316.2545">-borders</text><line style="stroke:#A80036;stroke-width:0.8999999999999999;" x1="400.2" x2="443.4" y1="320.1047" y2="320.1047"/><!--MD5=[b7b072196a724e538165319251b4d539]
class MatrixGraph--><rect codeLine="42" fill="#FEFECE" filter="url(#f1kgy4dno4jycb)" height="28.8" id="MatrixGraph" style="stroke:#A80036;stroke-width:0.8999999999999999;" width="58.2" x="138.9" y="283.8"/><ellipse cx="147.9" cy="293.4" fill="#ADD1B2" rx="6.6" ry="6.6" style="stroke:#A80036;stroke-width:0.6;"/><path d="M149.1,291.3 Q149.2219,291 149.3625,290.85 Q149.5031,290.7 149.6625,290.7 Q149.9438,290.7 150.1219,290.8688 Q150.3,291.0375 150.3,291.4313 L150.3,292.3688 Q150.3,292.7625 150.1313,292.9313 Q149.9625,293.1 149.7,293.1 Q149.4656,293.1 149.3156,292.9969 Q149.1656,292.8938 149.1,292.6219 Q149.0719,292.4344 148.9688,292.3313 Q148.7813,292.1344 148.4438,292.0219 Q148.1063,291.9 147.7687,291.9 Q147.3469,291.9 146.9906,292.0687 Q146.6437,292.2375 146.3719,292.6125 Q146.1,292.9875 146.1,293.5031 L146.1,294.0563 Q146.1,294.675 146.6063,295.0875 Q147.1125,295.5 148.0125,295.5 Q148.5469,295.5 148.9219,295.3781 Q149.1375,295.3125 149.3813,295.0969 Q149.5406,294.975 149.625,294.9375 Q149.7094,294.9 149.8125,294.9 Q150.0094,294.9 150.15,295.0594 Q150.3,295.2094 150.3,295.425 Q150.3,295.6312 150.0938,295.875 Q149.7938,296.2313 149.3156,296.4281 Q148.6875,296.7 147.9188,296.7 Q147.0187,296.7 146.2969,296.3438 Q145.7156,296.0625 145.3031,295.4531 Q144.9,294.8438 144.9,294.1219 L144.9,293.4656 Q144.9,292.7156 145.2563,292.0594 Q145.6219,291.4031 146.25,291.0563 Q146.8875,290.7 147.6,290.7 Q148.0313,290.7 148.4063,290.85 Q148.7813,291 149.1,291.3 Z " fill="#000000"/><text fill="#000000" font-family="sans-serif" font-size="7.2" lengthAdjust="spacing" textLength="39" x="156.3" y="296.3461">MatrixGraph</text><line style="stroke:#A80036;stroke-width:0.8999999999999999;" x1="139.5" x2="196.5" y1="303" y2="303"/><line style="stroke:#A80036;stroke-width:0.8999999999999999;" x1="139.5" x2="196.5" y1="307.8" y2="307.8"/><!--MD5=[ef63e85e32976ed6c3ca2a05ce10893d]
class CommonGraph--><rect codeLine="44" fill="#FEFECE" filter="url(#f1kgy4dno4jycb)" height="28.8" id="CommonGraph" style="stroke:#A80036;stroke-width:0.8999999999999999;" width="70.8" x="4.2" y="283.8"/><ellipse cx="13.2" cy="293.4" fill="#A9DCDF" rx="6.6" ry="6.6" style="stroke:#A80036;stroke-width:0.6;"/><path d="M14.25,294.3 L12.2719,294.3 L12.0094,294.9 L12.0094,294.9 L12.2906,294.9 L12.6,295.275 L12.6,295.5 L12.6,295.725 L12.2906,296.1 L12.0094,296.1 L10.875,296.1 L10.5094,296.1 L10.2,295.725 L10.2,295.5 L10.2,295.275 L10.5094,294.9 L10.875,294.9 L12.2625,291.3 L11.7375,291.3 L11.1094,291.3 L10.8,290.925 L10.8,290.7 L10.8,290.475 L11.1094,290.1 L11.7375,290.1 L13.9406,290.1 L15.5531,294.9 L15.8906,294.9 L15.8906,294.9 L16.2,295.275 L16.2,295.5 L16.2,295.725 L15.8906,296.1 L15.5531,296.1 L14.4188,296.1 L14.1094,296.1 L13.8,295.725 L13.8,295.5 L13.8,295.275 L14.1094,294.9 L14.4188,294.9 L14.4188,294.9 L14.25,294.3 Z M13.9219,293.1 L13.2,290.9531 L12.5812,293.1 L13.9219,293.1 Z " fill="#000000"/><text fill="#000000" font-family="sans-serif" font-size="7.2" font-style="italic" lengthAdjust="spacing" textLength="51.6" x="21.6" y="296.3461">CommonGraph</text><line style="stroke:#A80036;stroke-width:0.8999999999999999;" x1="4.8" x2="74.4" y1="303" y2="303"/><line style="stroke:#A80036;stroke-width:0.8999999999999999;" x1="4.8" x2="74.4" y1="307.8" y2="307.8"/><!--MD5=[706e73df52f3df32f52be1ce9adb217e]
class Graph--><rect codeLine="46" fill="#FEFECE" filter="url(#f1kgy4dno4jycb)" height="33.7125" id="Graph" style="stroke:#A80036;stroke-width:0.8999999999999999;" width="53.4" x="12.9" y="386.1"/><ellipse cx="21.9" cy="398.1563" fill="#B4A7E5" rx="6.6" ry="6.6" style="stroke:#A80036;stroke-width:0.6;"/><path d="M22.5,396.3563 L22.5,399.9563 L23.7,399.9563 L23.9906,399.9563 L24.3,400.3313 L24.3,400.5563 L24.3,400.7813 L23.9906,401.1563 L23.7,401.1563 L20.1,401.1563 L19.8094,401.1563 L19.5,400.7813 L19.5,400.5563 L19.5,400.3313 L19.8094,399.9563 L20.1,399.9563 L21.3,399.9563 L21.3,396.3563 L20.1,396.3563 L19.8094,396.3563 L19.5,395.9813 L19.5,395.7562 L19.5,395.5313 L19.8094,395.1563 L20.1,395.1563 L23.7,395.1563 L23.9906,395.1563 L24.3,395.5313 L24.3,395.7562 L24.3,395.9813 L23.9906,396.3563 L23.7,396.3563 L22.5,396.3563 Z " fill="#000000"/><text fill="#000000" font-family="sans-serif" font-size="7.2" font-style="italic" lengthAdjust="spacing" textLength="36.6" x="29.1" y="396.5742">«interface»</text><text fill="#000000" font-family="sans-serif" font-size="7.2" font-style="italic" lengthAdjust="spacing" textLength="20.4" x="37.2" y="405.6305">Graph</text><line style="stroke:#A80036;stroke-width:0.8999999999999999;" x1="13.5" x2="65.7" y1="410.2125" y2="410.2125"/><line style="stroke:#A80036;stroke-width:0.8999999999999999;" x1="13.5" x2="65.7" y1="415.0125" y2="415.0125"/><!--MD5=[28378cbcee576952c3e42177ab692a6d]
link ColorMapController to Company--><path codeLine="48" d="M232.878,41.406 C237.276,51.462 242.826,64.14 247.644,75.15 " fill="none" id="ColorMapController-to-Company" style="stroke:#A80036;stroke-width:0.6;stroke-dasharray:7.0,7.0;"/><polygon fill="#A80036" points="248.85,77.91,248.8757,72.0007,247.6435,75.1633,244.4809,73.9311,248.85,77.91" style="stroke:#A80036;stroke-width:0.6;"/><!--MD5=[e359b474b5bea3d5e0a05d5f38acf6c5]
link Company to FreightNetwork--><path codeLine="49" d="M253.674,123.768 C250.608,137.7 246.648,155.694 243.426,170.34 " fill="none" id="Company-FreightNetwork" style="stroke:#A80036;stroke-width:0.6;"/><polygon fill="#000000" points="251.3553,150.0354,254.2437,145.1141,250.7994,144.3562,251.3553,150.0354" style="stroke:#000000;stroke-width:0.6;"/><text fill="#000000" font-family="sans-serif" font-size="7.8" lengthAdjust="spacing" textLength="22.2" x="257.4" y="150.2971">knows</text><text fill="#000000" font-family="sans-serif" font-size="7.8" lengthAdjust="spacing" textLength="4.2" x="248.3542" y="136.3231">1</text><text fill="#000000" font-family="sans-serif" font-size="7.8" lengthAdjust="spacing" textLength="4.2" x="239.8198" y="163.7997">1</text><!--MD5=[699bf718bad7577ae286b510ed8e9218]
link ColorMapController to FreightNetwork--><path codeLine="50" d="M220.254,41.454 C217.722,52.02 214.872,65.67 213.6,78 C211.518,98.16 210.402,103.59 213.6,123.6 C215.964,138.396 220.854,154.26 225.606,167.424 " fill="none" id="ColorMapController-to-FreightNetwork" style="stroke:#A80036;stroke-width:0.6;stroke-dasharray:7.0,7.0;"/><polygon fill="#A80036" points="226.686,170.364,227.0903,164.4685,225.658,167.5456,222.5809,166.1133,226.686,170.364" style="stroke:#A80036;stroke-width:0.6;"/><!--MD5=[e37e8e3161027a4df85a8c5d819b551a]
reverse link Location to Port--><path codeLine="51" d="M245.826,334.644 C235.2,346.782 223.44,360.216 213.216,371.892 " fill="none" id="Location-backto-Port" style="stroke:#A80036;stroke-width:0.6;"/><polygon fill="none" points="242.802,331.716,253.866,325.452,249.126,337.248,242.802,331.716" style="stroke:#A80036;stroke-width:0.6;"/><!--MD5=[656cf771635bff60a827e8d62d536357]
reverse link Location to Capital--><path codeLine="52" d="M308.622,334.692 C323.25,351.408 340.02,370.566 351.966,384.21 " fill="none" id="Location-backto-Capital" style="stroke:#A80036;stroke-width:0.6;"/><polygon fill="none" points="305.274,337.248,300.534,325.452,311.598,331.716,305.274,337.248" style="stroke:#A80036;stroke-width:0.6;"/><!--MD5=[bd392566c8a46ea25d805713a18e8e2e]
link FreightNetwork to Location--><path codeLine="53" d="M248.106,224.43 C253.836,238.836 260.904,256.62 266.64,271.05 " fill="none" id="FreightNetwork-Location" style="stroke:#A80036;stroke-width:0.6;"/><polygon fill="#000000" points="262.1083,250.6932,261.742,244.9987,258.4648,246.3015,262.1083,250.6932" style="stroke:#000000;stroke-width:0.6;"/><text fill="#000000" font-family="sans-serif" font-size="7.8" lengthAdjust="spacing" textLength="6" x="266.4" y="251.0971">of</text><text fill="#000000" font-family="sans-serif" font-size="7.8" lengthAdjust="spacing" textLength="3" x="246.3725" y="237.0388">*</text><text fill="#000000" font-family="sans-serif" font-size="7.8" lengthAdjust="spacing" textLength="12" x="252.1042" y="264.6935">1..*</text><!--MD5=[8c736de57a0b67374907421adbe5e17c]
link Country to Capital--><path codeLine="54" d="M407.892,325.452 C398.268,343.902 385.716,367.962 377.238,384.21 " fill="none" id="Country-Capital" style="stroke:#A80036;stroke-width:0.6;"/><polygon fill="#000000" points="399.4124,351.3653,403.486,347.3693,400.3592,345.738,399.4124,351.3653" style="stroke:#000000;stroke-width:0.6;"/><text fill="#000000" font-family="sans-serif" font-size="7.8" lengthAdjust="spacing" textLength="12.6" x="406.2" y="351.8971">has</text><text fill="#000000" font-family="sans-serif" font-size="7.8" lengthAdjust="spacing" textLength="4.2" x="401.5409" y="337.8901">1</text><text fill="#000000" font-family="sans-serif" font-size="7.8" lengthAdjust="spacing" textLength="4.2" x="374.5515" y="377.8942">1</text><!--MD5=[cb484d98b05c96fc0a7b0f57795eae75]
link FreightNetwork to MatrixGraph--><path codeLine="55" d="M219.132,224.43 C206.568,242.406 190.332,265.644 179.562,281.052 " fill="none" id="FreightNetwork-to-MatrixGraph" style="stroke:#A80036;stroke-width:0.6;stroke-dasharray:7.0,7.0;"/><polygon fill="#A80036" points="177.75,283.644,182.8136,280.5976,179.471,281.1867,178.8819,277.8441,177.75,283.644" style="stroke:#A80036;stroke-width:0.6;"/><!--MD5=[e9051ba8ebbd537393a9a6534acec112]
reverse link CommonGraph to MatrixGraph--><path codeLine="56" d="M87.384,298.2 C104.532,298.2 121.674,298.2 138.822,298.2 " fill="none" id="CommonGraph-backto-MatrixGraph" style="stroke:#A80036;stroke-width:0.6;"/><polygon fill="none" points="87.21,302.4,75.21,298.2,87.21,294,87.21,302.4" style="stroke:#A80036;stroke-width:0.6;"/><!--MD5=[73cb6a84480518af2d88af90c1d954ca]
link CommonGraph to Graph--><path codeLine="57" d="M39.6,312.756 C39.6,330.828 39.6,362.412 39.6,382.836 " fill="none" id="CommonGraph-to-Graph" style="stroke:#A80036;stroke-width:0.6;"/><polygon fill="#A80036" points="39.6,386.01,42,380.61,39.6,383.01,37.2,380.61,39.6,386.01" style="stroke:#A80036;stroke-width:0.6;"/><!--MD5=[a0aa0b72068d288f57cd5e5a42a1805a]
link ColorMapController to Location--><path codeLine="58" d="M265.722,41.472 C280.422,50.238 295.398,62.322 303.6,78 C335.898,139.764 309.126,224.346 290.808,268.332 " fill="none" id="ColorMapController-to-Location" style="stroke:#A80036;stroke-width:0.6;stroke-dasharray:7.0,7.0;"/><polygon fill="#A80036" points="289.614,271.17,293.9214,267.1245,290.7782,268.4051,289.4976,265.2618,289.614,271.17" style="stroke:#A80036;stroke-width:0.6;"/><!--MD5=[bd8d886f8f1c3c2f3fd55002f20ced7f]
link ColorMapController to Capital--><path codeLine="59" d="M266.88,28.104 C309.018,35.442 367.8,53.964 367.8,100.2 C367.8,100.2 367.8,100.2 367.8,298.8 C367.8,327.198 367.8,359.982 367.8,380.91 " fill="none" id="ColorMapController-to-Capital" style="stroke:#A80036;stroke-width:0.6;stroke-dasharray:7.0,7.0;"/><polygon fill="#A80036" points="367.8,384.162,370.2,378.762,367.8,381.162,365.4,378.762,367.8,384.162" style="stroke:#A80036;stroke-width:0.6;"/><!--MD5=[febafda13ee82908e13b9cfd1866a292]
link ColorMapController to Port--><path codeLine="60" d="M183.162,32.46 C149.16,42.57 106.8,62.694 106.8,100.2 C106.8,100.2 106.8,100.2 106.8,298.8 C106.8,332.622 133.86,362.148 156.462,380.916 " fill="none" id="ColorMapController-to-Port" style="stroke:#A80036;stroke-width:0.6;stroke-dasharray:7.0,7.0;"/><polygon fill="#A80036" points="158.916,382.926,156.2596,377.6474,156.5953,381.0249,153.2178,381.3606,158.916,382.926" style="stroke:#A80036;stroke-width:0.6;"/><!--MD5=[cfd9002b37db395ae3cf11b75c29271a]
link ColorMapController to MatrixGraph--><path codeLine="61" d="M217.968,41.496 C215.772,47.214 213.36,53.562 211.2,59.4 C193.026,108.522 181.26,118.92 171.6,170.4 C164.31,209.262 165.45,255.954 166.8,280.536 " fill="none" id="ColorMapController-to-MatrixGraph" style="stroke:#A80036;stroke-width:0.6;stroke-dasharray:7.0,7.0;"/><polygon fill="#A80036" points="166.986,283.71,169.074,278.1819,166.8149,280.7149,164.2818,278.4557,166.986,283.71" style="stroke:#A80036;stroke-width:0.6;"/><!--MD5=[67f3a73c1174c09eed4a76a3fb4544b5]
@startuml

skinparam classAttributeIconSize 0

class ColorMapController {
    +colorMap()
}

class Company {
    -designation
    +getFreightNetwork()
}

class FreightNetwork {
    +getOrderedCapitalsList()
    +fillCapitalsToColor(capitalsToColor)
    +colorMap()
}

abstract class Location{
    -latitude
    -longitude
    -countryName
}

class Port {
    -identification
    -name
    -continent
    -toPortsDistance
}

class Capital {
    -name
}

class Country {
    -continent
    -name
    -borders
}

class MatrixGraph {}

abstract class CommonGraph {}

interface Graph <<interface>> {}

ColorMapController ..> Company
Company "1" - - "1" FreightNetwork : knows >
ColorMapController ..> FreightNetwork
Location <|- - Port
Location <|- - Capital
FreightNetwork "*" - - "1..*" Location : of >
Country "1" - - "1" Capital : has >
FreightNetwork ..> MatrixGraph
CommonGraph <|- MatrixGraph
CommonGraph - -> Graph
ColorMapController ..> Location
ColorMapController ..> Capital
ColorMapController ..> Port
ColorMapController ..> MatrixGraph


@enduml

PlantUML version 1.2021.11(Sat Oct 02 14:26:11 BST 2021)
(GPL source distribution)
Java Runtime: OpenJDK Runtime Environment
JVM: OpenJDK 64-Bit Server VM
Default Encoding: Cp1252
Language: pt
Country: PT
--></g></svg>