<?xml version="1.0" encoding="UTF-8" standalone="no"?><svg xmlns="http://www.w3.org/2000/svg" xmlns:xlink="http://www.w3.org/1999/xlink" contentScriptType="application/ecmascript" contentStyleType="text/css" height="518px" preserveAspectRatio="none" style="width:281px;height:518px;background:#FFFFFF;" version="1.1" viewBox="0 0 281 518" width="281px" zoomAndPan="magnify"><defs><filter height="300%" id="fvyr1r8d0ovhm" width="300%" x="-1" y="-1"><feGaussianBlur result="blurOut" stdDeviation="2.0"/><feColorMatrix in="blurOut" result="blurOut2" type="matrix" values="0 0 0 0 0 0 0 0 0 0 0 0 0 0 0 0 0 0 .4 0"/><feOffset dx="4.0" dy="4.0" in="blurOut2" result="blurOut3"/><feBlend in="SourceGraphic" in2="blurOut3" mode="normal"/></filter></defs><g><!--MD5=[02e4b9b7573f1156f41e60aa5b4e25a4]
class Company--><rect codeLine="7" fill="#FEFECE" filter="url(#fvyr1r8d0ovhm)" height="53.8359" id="Company" style="stroke:#A80036;stroke-width:1.5;" width="85" x="7" y="7"/><ellipse cx="22" cy="23" fill="#ADD1B2" rx="11" ry="11" style="stroke:#A80036;stroke-width:1.0;"/><path d="M24,19.5 Q24.2031,19 24.4375,18.75 Q24.6719,18.5 24.9375,18.5 Q25.4063,18.5 25.7031,18.7813 Q26,19.0625 26,19.7188 L26,21.2813 Q26,21.9375 25.7188,22.2188 Q25.4375,22.5 25,22.5 Q24.6094,22.5 24.3594,22.3281 Q24.1094,22.1563 24,21.7031 Q23.9531,21.3906 23.7813,21.2188 Q23.4688,20.8906 22.9063,20.7031 Q22.3438,20.5 21.7813,20.5 Q21.0781,20.5 20.4844,20.7813 Q19.9063,21.0625 19.4531,21.6875 Q19,22.3125 19,23.1719 L19,24.0938 Q19,25.125 19.8438,25.8125 Q20.6875,26.5 22.1875,26.5 Q23.0781,26.5 23.7031,26.2969 Q24.0625,26.1875 24.4688,25.8281 Q24.7344,25.625 24.875,25.5625 Q25.0156,25.5 25.1875,25.5 Q25.5156,25.5 25.75,25.7656 Q26,26.0156 26,26.375 Q26,26.7188 25.6563,27.125 Q25.1563,27.7188 24.3594,28.0469 Q23.3125,28.5 22.0313,28.5 Q20.5313,28.5 19.3281,27.9063 Q18.3594,27.4375 17.6719,26.4219 Q17,25.4063 17,24.2031 L17,23.1094 Q17,21.8594 17.5938,20.7656 Q18.2031,19.6719 19.25,19.0938 Q20.3125,18.5 21.5,18.5 Q22.2188,18.5 22.8438,18.75 Q23.4688,19 24,19.5 Z " fill="#000000"/><text fill="#000000" font-family="sans-serif" font-size="12" lengthAdjust="spacing" textLength="53" x="36" y="27.9102">Company</text><line style="stroke:#A80036;stroke-width:1.5;" x1="8" x2="91" y1="39" y2="39"/><text fill="#000000" font-family="sans-serif" font-size="11" lengthAdjust="spacing" textLength="59" x="13" y="54.4189">-designation</text><!--MD5=[074ba6ad47b234bd73d65012320c1634]
class FreightNetwork--><rect codeLine="11" fill="#FEFECE" filter="url(#fvyr1r8d0ovhm)" height="32" id="FreightNetwork" style="stroke:#A80036;stroke-width:1.5;" width="115" x="59" y="139"/><ellipse cx="74" cy="155" fill="#ADD1B2" rx="11" ry="11" style="stroke:#A80036;stroke-width:1.0;"/><path d="M76,151.5 Q76.2031,151 76.4375,150.75 Q76.6719,150.5 76.9375,150.5 Q77.4063,150.5 77.7031,150.7813 Q78,151.0625 78,151.7188 L78,153.2813 Q78,153.9375 77.7188,154.2188 Q77.4375,154.5 77,154.5 Q76.6094,154.5 76.3594,154.3281 Q76.1094,154.1563 76,153.7031 Q75.9531,153.3906 75.7813,153.2188 Q75.4688,152.8906 74.9063,152.7031 Q74.3438,152.5 73.7813,152.5 Q73.0781,152.5 72.4844,152.7813 Q71.9063,153.0625 71.4531,153.6875 Q71,154.3125 71,155.1719 L71,156.0938 Q71,157.125 71.8438,157.8125 Q72.6875,158.5 74.1875,158.5 Q75.0781,158.5 75.7031,158.2969 Q76.0625,158.1875 76.4688,157.8281 Q76.7344,157.625 76.875,157.5625 Q77.0156,157.5 77.1875,157.5 Q77.5156,157.5 77.75,157.7656 Q78,158.0156 78,158.375 Q78,158.7188 77.6563,159.125 Q77.1563,159.7188 76.3594,160.0469 Q75.3125,160.5 74.0313,160.5 Q72.5313,160.5 71.3281,159.9063 Q70.3594,159.4375 69.6719,158.4219 Q69,157.4063 69,156.2031 L69,155.1094 Q69,153.8594 69.5938,152.7656 Q70.2031,151.6719 71.25,151.0938 Q72.3125,150.5 73.5,150.5 Q74.2188,150.5 74.8438,150.75 Q75.4688,151 76,151.5 Z " fill="#000000"/><text fill="#000000" font-family="sans-serif" font-size="12" lengthAdjust="spacing" textLength="83" x="88" y="159.9102">FreightNetwork</text><!--MD5=[4f1f3706c1a355a8488e154afcaed5df]
class Location--><rect codeLine="13" fill="#FEFECE" filter="url(#fvyr1r8d0ovhm)" height="81.5078" id="Location" style="stroke:#A80036;stroke-width:1.5;" width="80" x="76.5" y="249"/><ellipse cx="91.95" cy="265" fill="#A9DCDF" rx="11" ry="11" style="stroke:#A80036;stroke-width:1.0;"/><path d="M93.7,266.5 L90.4031,266.5 L89.9656,267.5 L89.9656,267.5 L90.4344,267.5 L90.95,268.125 L90.95,268.5 L90.95,268.875 L90.4344,269.5 L89.9656,269.5 L88.075,269.5 L87.4656,269.5 L86.95,268.875 L86.95,268.5 L86.95,268.125 L87.4656,267.5 L88.075,267.5 L90.3875,261.5 L89.5125,261.5 L88.4656,261.5 L87.95,260.875 L87.95,260.5 L87.95,260.125 L88.4656,259.5 L89.5125,259.5 L93.1844,259.5 L95.8719,267.5 L96.4344,267.5 L96.4344,267.5 L96.95,268.125 L96.95,268.5 L96.95,268.875 L96.4344,269.5 L95.8719,269.5 L93.9813,269.5 L93.4656,269.5 L92.95,268.875 L92.95,268.5 L92.95,268.125 L93.4656,267.5 L93.9813,267.5 L93.9813,267.5 L93.7,266.5 Z M93.1531,264.5 L91.95,260.9219 L90.9188,264.5 L93.1531,264.5 Z " fill="#000000"/><text fill="#000000" font-family="sans-serif" font-size="12" font-style="italic" lengthAdjust="spacing" textLength="47" x="106.05" y="269.9102">Location</text><line style="stroke:#A80036;stroke-width:1.5;" x1="77.5" x2="155.5" y1="281" y2="281"/><text fill="#000000" font-family="sans-serif" font-size="11" lengthAdjust="spacing" textLength="38" x="82.5" y="296.4189">-latitude</text><text fill="#000000" font-family="sans-serif" font-size="11" lengthAdjust="spacing" textLength="47" x="82.5" y="310.2549">-longitude</text><text fill="#000000" font-family="sans-serif" font-size="11" lengthAdjust="spacing" textLength="68" x="82.5" y="324.0908">-countryName</text><!--MD5=[a0bfe97ac0a38e6e74cc1c7c7b744b71]
class Port--><rect codeLine="19" fill="#FEFECE" filter="url(#fvyr1r8d0ovhm)" height="95.3438" id="Port" style="stroke:#A80036;stroke-width:1.5;" width="92" x="67.5" y="409"/><ellipse cx="99.6" cy="425" fill="#ADD1B2" rx="11" ry="11" style="stroke:#A80036;stroke-width:1.0;"/><path d="M101.6,421.5 Q101.8031,421 102.0375,420.75 Q102.2719,420.5 102.5375,420.5 Q103.0063,420.5 103.3031,420.7813 Q103.6,421.0625 103.6,421.7188 L103.6,423.2813 Q103.6,423.9375 103.3188,424.2188 Q103.0375,424.5 102.6,424.5 Q102.2094,424.5 101.9594,424.3281 Q101.7094,424.1563 101.6,423.7031 Q101.5531,423.3906 101.3813,423.2188 Q101.0688,422.8906 100.5063,422.7031 Q99.9438,422.5 99.3813,422.5 Q98.6781,422.5 98.0844,422.7813 Q97.5063,423.0625 97.0531,423.6875 Q96.6,424.3125 96.6,425.1719 L96.6,426.0938 Q96.6,427.125 97.4438,427.8125 Q98.2875,428.5 99.7875,428.5 Q100.6781,428.5 101.3031,428.2969 Q101.6625,428.1875 102.0688,427.8281 Q102.3344,427.625 102.475,427.5625 Q102.6156,427.5 102.7875,427.5 Q103.1156,427.5 103.35,427.7656 Q103.6,428.0156 103.6,428.375 Q103.6,428.7188 103.2563,429.125 Q102.7563,429.7188 101.9594,430.0469 Q100.9125,430.5 99.6313,430.5 Q98.1313,430.5 96.9281,429.9063 Q95.9594,429.4375 95.2719,428.4219 Q94.6,427.4063 94.6,426.2031 L94.6,425.1094 Q94.6,423.8594 95.1938,422.7656 Q95.8031,421.6719 96.85,421.0938 Q97.9125,420.5 99.1,420.5 Q99.8188,420.5 100.4438,420.75 Q101.0688,421 101.6,421.5 Z " fill="#000000"/><text fill="#000000" font-family="sans-serif" font-size="12" lengthAdjust="spacing" textLength="22" x="117.4" y="429.9102">Port</text><line style="stroke:#A80036;stroke-width:1.5;" x1="68.5" x2="158.5" y1="441" y2="441"/><text fill="#000000" font-family="sans-serif" font-size="11" lengthAdjust="spacing" textLength="64" x="73.5" y="456.4189">-identification</text><text fill="#000000" font-family="sans-serif" font-size="11" lengthAdjust="spacing" textLength="30" x="73.5" y="470.2549">-name</text><text fill="#000000" font-family="sans-serif" font-size="11" lengthAdjust="spacing" textLength="48" x="73.5" y="484.0908">-continent</text><text fill="#000000" font-family="sans-serif" font-size="11" lengthAdjust="spacing" textLength="80" x="73.5" y="497.9268">-toPortsDistance</text><!--MD5=[ea8f20dfdca176213da526d9b557babf]
class Capital--><rect codeLine="26" fill="#FEFECE" filter="url(#fvyr1r8d0ovhm)" height="53.8359" id="Capital" style="stroke:#A80036;stroke-width:1.5;" width="71" x="195" y="429.5"/><ellipse cx="210" cy="445.5" fill="#ADD1B2" rx="11" ry="11" style="stroke:#A80036;stroke-width:1.0;"/><path d="M212,442 Q212.2031,441.5 212.4375,441.25 Q212.6719,441 212.9375,441 Q213.4063,441 213.7031,441.2813 Q214,441.5625 214,442.2188 L214,443.7813 Q214,444.4375 213.7188,444.7188 Q213.4375,445 213,445 Q212.6094,445 212.3594,444.8281 Q212.1094,444.6563 212,444.2031 Q211.9531,443.8906 211.7813,443.7188 Q211.4688,443.3906 210.9063,443.2031 Q210.3438,443 209.7813,443 Q209.0781,443 208.4844,443.2813 Q207.9063,443.5625 207.4531,444.1875 Q207,444.8125 207,445.6719 L207,446.5938 Q207,447.625 207.8438,448.3125 Q208.6875,449 210.1875,449 Q211.0781,449 211.7031,448.7969 Q212.0625,448.6875 212.4688,448.3281 Q212.7344,448.125 212.875,448.0625 Q213.0156,448 213.1875,448 Q213.5156,448 213.75,448.2656 Q214,448.5156 214,448.875 Q214,449.2188 213.6563,449.625 Q213.1563,450.2188 212.3594,450.5469 Q211.3125,451 210.0313,451 Q208.5313,451 207.3281,450.4063 Q206.3594,449.9375 205.6719,448.9219 Q205,447.9063 205,446.7031 L205,445.6094 Q205,444.3594 205.5938,443.2656 Q206.2031,442.1719 207.25,441.5938 Q208.3125,441 209.5,441 Q210.2188,441 210.8438,441.25 Q211.4688,441.5 212,442 Z " fill="#000000"/><text fill="#000000" font-family="sans-serif" font-size="12" lengthAdjust="spacing" textLength="39" x="224" y="450.4102">Capital</text><line style="stroke:#A80036;stroke-width:1.5;" x1="196" x2="265" y1="461.5" y2="461.5"/><text fill="#000000" font-family="sans-serif" font-size="11" lengthAdjust="spacing" textLength="30" x="201" y="476.9189">-name</text><!--MD5=[deb4e1f6eb1e3c1256fdb830f96abfbb]
class Country--><rect codeLine="30" fill="#FEFECE" filter="url(#fvyr1r8d0ovhm)" height="81.5078" id="Country" style="stroke:#A80036;stroke-width:1.5;" width="74" x="193.5" y="249"/><ellipse cx="208.5" cy="265" fill="#ADD1B2" rx="11" ry="11" style="stroke:#A80036;stroke-width:1.0;"/><path d="M210.5,261.5 Q210.7031,261 210.9375,260.75 Q211.1719,260.5 211.4375,260.5 Q211.9063,260.5 212.2031,260.7813 Q212.5,261.0625 212.5,261.7188 L212.5,263.2813 Q212.5,263.9375 212.2188,264.2188 Q211.9375,264.5 211.5,264.5 Q211.1094,264.5 210.8594,264.3281 Q210.6094,264.1563 210.5,263.7031 Q210.4531,263.3906 210.2813,263.2188 Q209.9688,262.8906 209.4063,262.7031 Q208.8438,262.5 208.2813,262.5 Q207.5781,262.5 206.9844,262.7813 Q206.4063,263.0625 205.9531,263.6875 Q205.5,264.3125 205.5,265.1719 L205.5,266.0938 Q205.5,267.125 206.3438,267.8125 Q207.1875,268.5 208.6875,268.5 Q209.5781,268.5 210.2031,268.2969 Q210.5625,268.1875 210.9688,267.8281 Q211.2344,267.625 211.375,267.5625 Q211.5156,267.5 211.6875,267.5 Q212.0156,267.5 212.25,267.7656 Q212.5,268.0156 212.5,268.375 Q212.5,268.7188 212.1563,269.125 Q211.6563,269.7188 210.8594,270.0469 Q209.8125,270.5 208.5313,270.5 Q207.0313,270.5 205.8281,269.9063 Q204.8594,269.4375 204.1719,268.4219 Q203.5,267.4063 203.5,266.2031 L203.5,265.1094 Q203.5,263.8594 204.0938,262.7656 Q204.7031,261.6719 205.75,261.0938 Q206.8125,260.5 208,260.5 Q208.7188,260.5 209.3438,260.75 Q209.9688,261 210.5,261.5 Z " fill="#000000"/><text fill="#000000" font-family="sans-serif" font-size="12" lengthAdjust="spacing" textLength="42" x="222.5" y="269.9102">Country</text><line style="stroke:#A80036;stroke-width:1.5;" x1="194.5" x2="266.5" y1="281" y2="281"/><text fill="#000000" font-family="sans-serif" font-size="11" lengthAdjust="spacing" textLength="48" x="199.5" y="296.4189">-continent</text><text fill="#000000" font-family="sans-serif" font-size="11" lengthAdjust="spacing" textLength="30" x="199.5" y="310.2549">-name</text><text fill="#000000" font-family="sans-serif" font-size="11" lengthAdjust="spacing" textLength="42" x="199.5" y="324.0908">-borders</text><!--MD5=[ddaf6f62b0bc30921877ec9fb9463c9f]
class TrafficManager--><rect codeLine="36" fill="#FEFECE" filter="url(#fvyr1r8d0ovhm)" height="32" id="TrafficManager" style="stroke:#A80036;stroke-width:1.5;" width="113" x="127" y="18"/><ellipse cx="142" cy="34" fill="#ADD1B2" rx="11" ry="11" style="stroke:#A80036;stroke-width:1.0;"/><path d="M144,30.5 Q144.2031,30 144.4375,29.75 Q144.6719,29.5 144.9375,29.5 Q145.4063,29.5 145.7031,29.7813 Q146,30.0625 146,30.7188 L146,32.2813 Q146,32.9375 145.7188,33.2188 Q145.4375,33.5 145,33.5 Q144.6094,33.5 144.3594,33.3281 Q144.1094,33.1563 144,32.7031 Q143.9531,32.3906 143.7813,32.2188 Q143.4688,31.8906 142.9063,31.7031 Q142.3438,31.5 141.7813,31.5 Q141.0781,31.5 140.4844,31.7813 Q139.9063,32.0625 139.4531,32.6875 Q139,33.3125 139,34.1719 L139,35.0938 Q139,36.125 139.8438,36.8125 Q140.6875,37.5 142.1875,37.5 Q143.0781,37.5 143.7031,37.2969 Q144.0625,37.1875 144.4688,36.8281 Q144.7344,36.625 144.875,36.5625 Q145.0156,36.5 145.1875,36.5 Q145.5156,36.5 145.75,36.7656 Q146,37.0156 146,37.375 Q146,37.7188 145.6563,38.125 Q145.1563,38.7188 144.3594,39.0469 Q143.3125,39.5 142.0313,39.5 Q140.5313,39.5 139.3281,38.9063 Q138.3594,38.4375 137.6719,37.4219 Q137,36.4063 137,35.2031 L137,34.1094 Q137,32.8594 137.5938,31.7656 Q138.2031,30.6719 139.25,30.0938 Q140.3125,29.5 141.5,29.5 Q142.2188,29.5 142.8438,29.75 Q143.4688,30 144,30.5 Z " fill="#000000"/><text fill="#000000" font-family="sans-serif" font-size="12" lengthAdjust="spacing" textLength="81" x="156" y="38.9102">TrafficManager</text><!--MD5=[e359b474b5bea3d5e0a05d5f38acf6c5]
link Company to FreightNetwork--><path codeLine="41" d="M62.77,61.28 C70.11,75.53 79.54,93.38 88.5,109 C94.27,119.06 101.14,130.11 106.63,138.75 " fill="none" id="Company-FreightNetwork" style="stroke:#A80036;stroke-width:1.0;"/><polygon fill="#000000" points="95.9634,104.5268,94.0646,95.2078,88.9496,98.1036,95.9634,104.5268" style="stroke:#000000;stroke-width:1.0;"/><text fill="#000000" font-family="sans-serif" font-size="13" lengthAdjust="spacing" textLength="37" x="102.5" y="105.4951">knows</text><!--MD5=[e37e8e3161027a4df85a8c5d819b551a]
reverse link Location to Port--><path codeLine="42" d="M115.4,351.38 C115.05,370.39 114.67,391.08 114.35,408.98 " fill="none" id="Location-backto-Port" style="stroke:#A80036;stroke-width:1.0;"/><polygon fill="none" points="108.4,351.11,115.77,331.24,122.4,351.37,108.4,351.11" style="stroke:#A80036;stroke-width:1.0;"/><!--MD5=[656cf771635bff60a827e8d62d536357]
reverse link Location to Capital--><path codeLine="43" d="M155.82,347.74 C174.93,375.32 196.99,407.15 212.15,429.02 " fill="none" id="Location-backto-Capital" style="stroke:#A80036;stroke-width:1.0;"/><polygon fill="none" points="150.03,351.67,144.39,331.24,161.53,343.69,150.03,351.67" style="stroke:#A80036;stroke-width:1.0;"/><!--MD5=[bd392566c8a46ea25d805713a18e8e2e]
link FreightNetwork to Location--><path codeLine="44" d="M116.5,171.26 C116.5,190.02 116.5,222.6 116.5,248.73 " fill="none" id="FreightNetwork-Location" style="stroke:#A80036;stroke-width:1.0;"/><polygon fill="#000000" points="121.5,215.1758,124.4389,206.1307,118.5611,206.1307,121.5,215.1758" style="stroke:#000000;stroke-width:1.0;"/><text fill="#000000" font-family="sans-serif" font-size="13" lengthAdjust="spacing" textLength="10" x="130.5" y="215.4951">of</text><!--MD5=[8c736de57a0b67374907421adbe5e17c]
link Country to Capital--><path codeLine="45" d="M230.5,331.24 C230.5,361.68 230.5,402.61 230.5,429.02 " fill="none" id="Country-Capital" style="stroke:#A80036;stroke-width:1.0;"/><polygon fill="#000000" points="235.5,375.1758,238.4389,366.1307,232.5611,366.1307,235.5,375.1758" style="stroke:#000000;stroke-width:1.0;"/><text fill="#000000" font-family="sans-serif" font-size="13" lengthAdjust="spacing" textLength="21" x="244.5" y="375.4951">has</text><!--MD5=[92bb40e0190d7818911610b8d81cdb79]
link TrafficManager to FreightNetwork--><path codeLine="47" d="M175.89,50.19 C168.25,65.28 155.99,88.97 144.5,109 C138.73,119.06 131.86,130.11 126.37,138.75 " fill="none" id="TrafficManager-FreightNetwork" style="stroke:#A80036;stroke-width:1.0;"/><polygon fill="#000000" points="155.0597,104.5399,162.0393,98.0795,156.9091,95.2108,155.0597,104.5399" style="stroke:#000000;stroke-width:1.0;"/><text fill="#000000" font-family="sans-serif" font-size="13" lengthAdjust="spacing" textLength="53" x="166.5" y="105.4951">manages</text><!--MD5=[bd77c81026c7134600e7c0cc964d5e8b]
@startuml
'https://plantuml.com/class-diagram

skinparam classAttributeIconSize 0
hide empty methods
hide empty attributes

class Company {
    -designation
}

class FreightNetwork {}

abstract class Location{
    -latitude
    -longitude
    -countryName
}

class Port {
    -identification
    -name
    -continent
    -toPortsDistance
}

class Capital {
    -name
}

class Country {
    -continent
    -name
    -borders
}

class TrafficManager {}



/'Multiplicidade'/
Company - - FreightNetwork : knows >
Location <|- - Port
Location <|- - Capital
FreightNetwork - - Location : of >
Country - - Capital : has >
/'Dúvidas'/
TrafficManager - - FreightNetwork : manages >

@enduml

@startuml

skinparam classAttributeIconSize 0
hide empty methods
hide empty attributes

class Company {
    -designation
}

class FreightNetwork {}

abstract class Location{
    -latitude
    -longitude
    -countryName
}

class Port {
    -identification
    -name
    -continent
    -toPortsDistance
}

class Capital {
    -name
}

class Country {
    -continent
    -name
    -borders
}

class TrafficManager {}



Company - - FreightNetwork : knows >
Location <|- - Port
Location <|- - Capital
FreightNetwork - - Location : of >
Country - - Capital : has >
TrafficManager - - FreightNetwork : manages >

@enduml

PlantUML version 1.2021.11(Sat Oct 02 14:26:11 BST 2021)
(GPL source distribution)
Java Runtime: OpenJDK Runtime Environment
JVM: OpenJDK 64-Bit Server VM
Default Encoding: Cp1252
Language: pt
Country: PT
--></g></svg>