<?xml version="1.0" encoding="UTF-8" standalone="no"?><svg xmlns="http://www.w3.org/2000/svg" xmlns:xlink="http://www.w3.org/1999/xlink" contentScriptType="application/ecmascript" contentStyleType="text/css" height="761px" preserveAspectRatio="none" style="width:431px;height:761px;background:#FFFFFF;" version="1.1" viewBox="0 0 431 761" width="431px" zoomAndPan="magnify"><defs><filter height="300%" id="f1obllitz3ahmp" width="300%" x="-1" y="-1"><feGaussianBlur result="blurOut" stdDeviation="2.0"/><feColorMatrix in="blurOut" result="blurOut2" type="matrix" values="0 0 0 0 0 0 0 0 0 0 0 0 0 0 0 0 0 0 .4 0"/><feOffset dx="4.0" dy="4.0" in="blurOut2" result="blurOut3"/><feBlend in="SourceGraphic" in2="blurOut3" mode="normal"/></filter></defs><g><!--MD5=[9b4d6350505f0ccf5a42f8153c75860f]
class ShortestPathController--><rect codeLine="4" fill="#FEFECE" filter="url(#f1obllitz3ahmp)" height="103.3438" id="ShortestPathController" style="stroke:#A80036;stroke-width:1.5;" width="197" x="171.5" y="7"/><ellipse cx="204.5" cy="23" fill="#ADD1B2" rx="11" ry="11" style="stroke:#A80036;stroke-width:1.0;"/><path d="M206.5,19.5 Q206.7031,19 206.9375,18.75 Q207.1719,18.5 207.4375,18.5 Q207.9063,18.5 208.2031,18.7813 Q208.5,19.0625 208.5,19.7188 L208.5,21.2813 Q208.5,21.9375 208.2188,22.2188 Q207.9375,22.5 207.5,22.5 Q207.1094,22.5 206.8594,22.3281 Q206.6094,22.1563 206.5,21.7031 Q206.4531,21.3906 206.2813,21.2188 Q205.9688,20.8906 205.4063,20.7031 Q204.8438,20.5 204.2813,20.5 Q203.5781,20.5 202.9844,20.7813 Q202.4063,21.0625 201.9531,21.6875 Q201.5,22.3125 201.5,23.1719 L201.5,24.0938 Q201.5,25.125 202.3438,25.8125 Q203.1875,26.5 204.6875,26.5 Q205.5781,26.5 206.2031,26.2969 Q206.5625,26.1875 206.9688,25.8281 Q207.2344,25.625 207.375,25.5625 Q207.5156,25.5 207.6875,25.5 Q208.0156,25.5 208.25,25.7656 Q208.5,26.0156 208.5,26.375 Q208.5,26.7188 208.1563,27.125 Q207.6563,27.7188 206.8594,28.0469 Q205.8125,28.5 204.5313,28.5 Q203.0313,28.5 201.8281,27.9063 Q200.8594,27.4375 200.1719,26.4219 Q199.5,25.4063 199.5,24.2031 L199.5,23.1094 Q199.5,21.8594 200.0938,20.7656 Q200.7031,19.6719 201.75,19.0938 Q202.8125,18.5 204,18.5 Q204.7188,18.5 205.3438,18.75 Q205.9688,19 206.5,19.5 Z " fill="#000000"/><text fill="#000000" font-family="sans-serif" font-size="12" lengthAdjust="spacing" textLength="125" x="222.5" y="27.9102">ShortestPathController</text><line style="stroke:#A80036;stroke-width:1.5;" x1="172.5" x2="367.5" y1="39" y2="39"/><line style="stroke:#A80036;stroke-width:1.5;" x1="172.5" x2="367.5" y1="47" y2="47"/><text fill="#000000" font-family="sans-serif" font-size="11" lengthAdjust="spacing" textLength="154" x="177.5" y="62.4189">+getShortestPath(beg,end,path)</text><text fill="#000000" font-family="sans-serif" font-size="11" lengthAdjust="spacing" textLength="154" x="177.5" y="76.2549">+getShortestLandPath(beg,end)</text><text fill="#000000" font-family="sans-serif" font-size="11" lengthAdjust="spacing" textLength="169" x="177.5" y="90.0908">+getShortestMaritimePath(beg,end)</text><text fill="#000000" font-family="sans-serif" font-size="11" lengthAdjust="spacing" textLength="185" x="177.5" y="103.9268">+getShortestLandOrSeaPath(beg,end)</text><!--MD5=[02e4b9b7573f1156f41e60aa5b4e25a4]
class Company--><rect codeLine="11" fill="#FEFECE" filter="url(#f1obllitz3ahmp)" height="75.6719" id="Company" style="stroke:#A80036;stroke-width:1.5;" width="115" x="212.5" y="171"/><ellipse cx="241" cy="187" fill="#ADD1B2" rx="11" ry="11" style="stroke:#A80036;stroke-width:1.0;"/><path d="M243,183.5 Q243.2031,183 243.4375,182.75 Q243.6719,182.5 243.9375,182.5 Q244.4063,182.5 244.7031,182.7813 Q245,183.0625 245,183.7188 L245,185.2813 Q245,185.9375 244.7188,186.2188 Q244.4375,186.5 244,186.5 Q243.6094,186.5 243.3594,186.3281 Q243.1094,186.1563 243,185.7031 Q242.9531,185.3906 242.7813,185.2188 Q242.4688,184.8906 241.9063,184.7031 Q241.3438,184.5 240.7813,184.5 Q240.0781,184.5 239.4844,184.7813 Q238.9063,185.0625 238.4531,185.6875 Q238,186.3125 238,187.1719 L238,188.0938 Q238,189.125 238.8438,189.8125 Q239.6875,190.5 241.1875,190.5 Q242.0781,190.5 242.7031,190.2969 Q243.0625,190.1875 243.4688,189.8281 Q243.7344,189.625 243.875,189.5625 Q244.0156,189.5 244.1875,189.5 Q244.5156,189.5 244.75,189.7656 Q245,190.0156 245,190.375 Q245,190.7188 244.6563,191.125 Q244.1563,191.7188 243.3594,192.0469 Q242.3125,192.5 241.0313,192.5 Q239.5313,192.5 238.3281,191.9063 Q237.3594,191.4375 236.6719,190.4219 Q236,189.4063 236,188.2031 L236,187.1094 Q236,185.8594 236.5938,184.7656 Q237.2031,183.6719 238.25,183.0938 Q239.3125,182.5 240.5,182.5 Q241.2188,182.5 241.8438,182.75 Q242.4688,183 243,183.5 Z " fill="#000000"/><text fill="#000000" font-family="sans-serif" font-size="12" lengthAdjust="spacing" textLength="53" x="258" y="191.9102">Company</text><line style="stroke:#A80036;stroke-width:1.5;" x1="213.5" x2="326.5" y1="203" y2="203"/><text fill="#000000" font-family="sans-serif" font-size="11" lengthAdjust="spacing" textLength="59" x="218.5" y="218.4189">-designation</text><line style="stroke:#A80036;stroke-width:1.5;" x1="213.5" x2="326.5" y1="224.8359" y2="224.8359"/><text fill="#000000" font-family="sans-serif" font-size="11" lengthAdjust="spacing" textLength="103" x="218.5" y="240.2549">+getFreightNetwork()</text><!--MD5=[074ba6ad47b234bd73d65012320c1634]
class FreightNetwork--><rect codeLine="16" fill="#FEFECE" filter="url(#f1obllitz3ahmp)" height="89.5078" id="FreightNetwork" style="stroke:#A80036;stroke-width:1.5;" width="197" x="171.5" y="325"/><ellipse cx="224.25" cy="341" fill="#ADD1B2" rx="11" ry="11" style="stroke:#A80036;stroke-width:1.0;"/><path d="M226.25,337.5 Q226.4531,337 226.6875,336.75 Q226.9219,336.5 227.1875,336.5 Q227.6563,336.5 227.9531,336.7813 Q228.25,337.0625 228.25,337.7188 L228.25,339.2813 Q228.25,339.9375 227.9688,340.2188 Q227.6875,340.5 227.25,340.5 Q226.8594,340.5 226.6094,340.3281 Q226.3594,340.1563 226.25,339.7031 Q226.2031,339.3906 226.0313,339.2188 Q225.7188,338.8906 225.1563,338.7031 Q224.5938,338.5 224.0313,338.5 Q223.3281,338.5 222.7344,338.7813 Q222.1563,339.0625 221.7031,339.6875 Q221.25,340.3125 221.25,341.1719 L221.25,342.0938 Q221.25,343.125 222.0938,343.8125 Q222.9375,344.5 224.4375,344.5 Q225.3281,344.5 225.9531,344.2969 Q226.3125,344.1875 226.7188,343.8281 Q226.9844,343.625 227.125,343.5625 Q227.2656,343.5 227.4375,343.5 Q227.7656,343.5 228,343.7656 Q228.25,344.0156 228.25,344.375 Q228.25,344.7188 227.9063,345.125 Q227.4063,345.7188 226.6094,346.0469 Q225.5625,346.5 224.2813,346.5 Q222.7813,346.5 221.5781,345.9063 Q220.6094,345.4375 219.9219,344.4219 Q219.25,343.4063 219.25,342.2031 L219.25,341.1094 Q219.25,339.8594 219.8438,338.7656 Q220.4531,337.6719 221.5,337.0938 Q222.5625,336.5 223.75,336.5 Q224.4688,336.5 225.0938,336.75 Q225.7188,337 226.25,337.5 Z " fill="#000000"/><text fill="#000000" font-family="sans-serif" font-size="12" lengthAdjust="spacing" textLength="83" x="244.75" y="345.9102">FreightNetwork</text><line style="stroke:#A80036;stroke-width:1.5;" x1="172.5" x2="367.5" y1="357" y2="357"/><line style="stroke:#A80036;stroke-width:1.5;" x1="172.5" x2="367.5" y1="365" y2="365"/><text fill="#000000" font-family="sans-serif" font-size="11" lengthAdjust="spacing" textLength="154" x="177.5" y="380.4189">+getShortestLandPath(beg,end)</text><text fill="#000000" font-family="sans-serif" font-size="11" lengthAdjust="spacing" textLength="169" x="177.5" y="394.2549">+getShortestMaritimePath(beg,end)</text><text fill="#000000" font-family="sans-serif" font-size="11" lengthAdjust="spacing" textLength="185" x="177.5" y="408.0908">+getShortestLandOrSeaPath(beg,end)</text><!--MD5=[4f1f3706c1a355a8488e154afcaed5df]
class Location--><rect codeLine="22" fill="#FEFECE" filter="url(#f1obllitz3ahmp)" height="75.6719" id="Location" style="stroke:#A80036;stroke-width:1.5;" width="79" x="292.5" y="493"/><ellipse cx="307.5" cy="509" fill="#A9DCDF" rx="11" ry="11" style="stroke:#A80036;stroke-width:1.0;"/><path d="M309.25,510.5 L305.9531,510.5 L305.5156,511.5 L305.5156,511.5 L305.9844,511.5 L306.5,512.125 L306.5,512.5 L306.5,512.875 L305.9844,513.5 L305.5156,513.5 L303.625,513.5 L303.0156,513.5 L302.5,512.875 L302.5,512.5 L302.5,512.125 L303.0156,511.5 L303.625,511.5 L305.9375,505.5 L305.0625,505.5 L304.0156,505.5 L303.5,504.875 L303.5,504.5 L303.5,504.125 L304.0156,503.5 L305.0625,503.5 L308.7344,503.5 L311.4219,511.5 L311.9844,511.5 L311.9844,511.5 L312.5,512.125 L312.5,512.5 L312.5,512.875 L311.9844,513.5 L311.4219,513.5 L309.5313,513.5 L309.0156,513.5 L308.5,512.875 L308.5,512.5 L308.5,512.125 L309.0156,511.5 L309.5313,511.5 L309.5313,511.5 L309.25,510.5 Z M308.7031,508.5 L307.5,504.9219 L306.4688,508.5 L308.7031,508.5 Z " fill="#000000"/><text fill="#000000" font-family="sans-serif" font-size="12" font-style="italic" lengthAdjust="spacing" textLength="47" x="321.5" y="513.9102">Location</text><line style="stroke:#A80036;stroke-width:1.5;" x1="293.5" x2="370.5" y1="525" y2="525"/><text fill="#000000" font-family="sans-serif" font-size="11" lengthAdjust="spacing" textLength="38" x="298.5" y="540.4189">-latitude</text><text fill="#000000" font-family="sans-serif" font-size="11" lengthAdjust="spacing" textLength="47" x="298.5" y="554.2549">-longitude</text><line style="stroke:#A80036;stroke-width:1.5;" x1="293.5" x2="370.5" y1="560.6719" y2="560.6719"/><!--MD5=[a0bfe97ac0a38e6e74cc1c7c7b744b71]
class Port--><rect codeLine="27" fill="#FEFECE" filter="url(#f1obllitz3ahmp)" height="117.1797" id="Port" style="stroke:#A80036;stroke-width:1.5;" width="60" x="251" y="630"/><ellipse cx="268.7" cy="646" fill="#ADD1B2" rx="11" ry="11" style="stroke:#A80036;stroke-width:1.0;"/><path d="M270.7,642.5 Q270.9031,642 271.1375,641.75 Q271.3719,641.5 271.6375,641.5 Q272.1063,641.5 272.4031,641.7813 Q272.7,642.0625 272.7,642.7188 L272.7,644.2813 Q272.7,644.9375 272.4188,645.2188 Q272.1375,645.5 271.7,645.5 Q271.3094,645.5 271.0594,645.3281 Q270.8094,645.1563 270.7,644.7031 Q270.6531,644.3906 270.4813,644.2188 Q270.1688,643.8906 269.6063,643.7031 Q269.0438,643.5 268.4813,643.5 Q267.7781,643.5 267.1844,643.7813 Q266.6063,644.0625 266.1531,644.6875 Q265.7,645.3125 265.7,646.1719 L265.7,647.0938 Q265.7,648.125 266.5438,648.8125 Q267.3875,649.5 268.8875,649.5 Q269.7781,649.5 270.4031,649.2969 Q270.7625,649.1875 271.1688,648.8281 Q271.4344,648.625 271.575,648.5625 Q271.7156,648.5 271.8875,648.5 Q272.2156,648.5 272.45,648.7656 Q272.7,649.0156 272.7,649.375 Q272.7,649.7188 272.3563,650.125 Q271.8563,650.7188 271.0594,651.0469 Q270.0125,651.5 268.7313,651.5 Q267.2313,651.5 266.0281,650.9063 Q265.0594,650.4375 264.3719,649.4219 Q263.7,648.4063 263.7,647.2031 L263.7,646.1094 Q263.7,644.8594 264.2938,643.7656 Q264.9031,642.6719 265.95,642.0938 Q267.0125,641.5 268.2,641.5 Q268.9188,641.5 269.5438,641.75 Q270.1688,642 270.7,642.5 Z " fill="#000000"/><text fill="#000000" font-family="sans-serif" font-size="12" lengthAdjust="spacing" textLength="22" x="283.3" y="650.9102">Port</text><line style="stroke:#A80036;stroke-width:1.5;" x1="252" x2="310" y1="662" y2="662"/><text fill="#000000" font-family="sans-serif" font-size="11" lengthAdjust="spacing" textLength="30" x="257" y="677.4189">-name</text><text fill="#000000" font-family="sans-serif" font-size="11" lengthAdjust="spacing" textLength="38" x="257" y="691.2549">-latitude</text><text fill="#000000" font-family="sans-serif" font-size="11" lengthAdjust="spacing" textLength="47" x="257" y="705.0908">-longitude</text><text fill="#000000" font-family="sans-serif" font-size="11" lengthAdjust="spacing" textLength="41" x="257" y="718.9268">-country</text><text fill="#000000" font-family="sans-serif" font-size="11" lengthAdjust="spacing" textLength="48" x="257" y="732.7627">-continent</text><line style="stroke:#A80036;stroke-width:1.5;" x1="252" x2="310" y1="739.1797" y2="739.1797"/><!--MD5=[ea8f20dfdca176213da526d9b557babf]
class Capital--><rect codeLine="35" fill="#FEFECE" filter="url(#f1obllitz3ahmp)" height="117.1797" id="Capital" style="stroke:#A80036;stroke-width:1.5;" width="71" x="346.5" y="630"/><ellipse cx="361.5" cy="646" fill="#ADD1B2" rx="11" ry="11" style="stroke:#A80036;stroke-width:1.0;"/><path d="M363.5,642.5 Q363.7031,642 363.9375,641.75 Q364.1719,641.5 364.4375,641.5 Q364.9063,641.5 365.2031,641.7813 Q365.5,642.0625 365.5,642.7188 L365.5,644.2813 Q365.5,644.9375 365.2188,645.2188 Q364.9375,645.5 364.5,645.5 Q364.1094,645.5 363.8594,645.3281 Q363.6094,645.1563 363.5,644.7031 Q363.4531,644.3906 363.2813,644.2188 Q362.9688,643.8906 362.4063,643.7031 Q361.8438,643.5 361.2813,643.5 Q360.5781,643.5 359.9844,643.7813 Q359.4063,644.0625 358.9531,644.6875 Q358.5,645.3125 358.5,646.1719 L358.5,647.0938 Q358.5,648.125 359.3438,648.8125 Q360.1875,649.5 361.6875,649.5 Q362.5781,649.5 363.2031,649.2969 Q363.5625,649.1875 363.9688,648.8281 Q364.2344,648.625 364.375,648.5625 Q364.5156,648.5 364.6875,648.5 Q365.0156,648.5 365.25,648.7656 Q365.5,649.0156 365.5,649.375 Q365.5,649.7188 365.1563,650.125 Q364.6563,650.7188 363.8594,651.0469 Q362.8125,651.5 361.5313,651.5 Q360.0313,651.5 358.8281,650.9063 Q357.8594,650.4375 357.1719,649.4219 Q356.5,648.4063 356.5,647.2031 L356.5,646.1094 Q356.5,644.8594 357.0938,643.7656 Q357.7031,642.6719 358.75,642.0938 Q359.8125,641.5 361,641.5 Q361.7188,641.5 362.3438,641.75 Q362.9688,642 363.5,642.5 Z " fill="#000000"/><text fill="#000000" font-family="sans-serif" font-size="12" lengthAdjust="spacing" textLength="39" x="375.5" y="650.9102">Capital</text><line style="stroke:#A80036;stroke-width:1.5;" x1="347.5" x2="416.5" y1="662" y2="662"/><text fill="#000000" font-family="sans-serif" font-size="11" lengthAdjust="spacing" textLength="30" x="352.5" y="677.4189">-name</text><text fill="#000000" font-family="sans-serif" font-size="11" lengthAdjust="spacing" textLength="38" x="352.5" y="691.2549">-latitude</text><text fill="#000000" font-family="sans-serif" font-size="11" lengthAdjust="spacing" textLength="47" x="352.5" y="705.0908">-longitude</text><text fill="#000000" font-family="sans-serif" font-size="11" lengthAdjust="spacing" textLength="41" x="352.5" y="718.9268">-country</text><text fill="#000000" font-family="sans-serif" font-size="11" lengthAdjust="spacing" textLength="48" x="352.5" y="732.7627">-continent</text><line style="stroke:#A80036;stroke-width:1.5;" x1="347.5" x2="416.5" y1="739.1797" y2="739.1797"/><!--MD5=[b7b072196a724e538165319251b4d539]
class MatrixGraph--><rect codeLine="43" fill="#FEFECE" filter="url(#f1obllitz3ahmp)" height="48" id="MatrixGraph" style="stroke:#A80036;stroke-width:1.5;" width="97" x="160.5" y="507"/><ellipse cx="175.5" cy="523" fill="#ADD1B2" rx="11" ry="11" style="stroke:#A80036;stroke-width:1.0;"/><path d="M177.5,519.5 Q177.7031,519 177.9375,518.75 Q178.1719,518.5 178.4375,518.5 Q178.9063,518.5 179.2031,518.7813 Q179.5,519.0625 179.5,519.7188 L179.5,521.2813 Q179.5,521.9375 179.2188,522.2188 Q178.9375,522.5 178.5,522.5 Q178.1094,522.5 177.8594,522.3281 Q177.6094,522.1563 177.5,521.7031 Q177.4531,521.3906 177.2813,521.2188 Q176.9688,520.8906 176.4063,520.7031 Q175.8438,520.5 175.2813,520.5 Q174.5781,520.5 173.9844,520.7813 Q173.4063,521.0625 172.9531,521.6875 Q172.5,522.3125 172.5,523.1719 L172.5,524.0938 Q172.5,525.125 173.3438,525.8125 Q174.1875,526.5 175.6875,526.5 Q176.5781,526.5 177.2031,526.2969 Q177.5625,526.1875 177.9688,525.8281 Q178.2344,525.625 178.375,525.5625 Q178.5156,525.5 178.6875,525.5 Q179.0156,525.5 179.25,525.7656 Q179.5,526.0156 179.5,526.375 Q179.5,526.7188 179.1563,527.125 Q178.6563,527.7188 177.8594,528.0469 Q176.8125,528.5 175.5313,528.5 Q174.0313,528.5 172.8281,527.9063 Q171.8594,527.4375 171.1719,526.4219 Q170.5,525.4063 170.5,524.2031 L170.5,523.1094 Q170.5,521.8594 171.0938,520.7656 Q171.7031,519.6719 172.75,519.0938 Q173.8125,518.5 175,518.5 Q175.7188,518.5 176.3438,518.75 Q176.9688,519 177.5,519.5 Z " fill="#000000"/><text fill="#000000" font-family="sans-serif" font-size="12" lengthAdjust="spacing" textLength="65" x="189.5" y="527.9102">MatrixGraph</text><line style="stroke:#A80036;stroke-width:1.5;" x1="161.5" x2="256.5" y1="539" y2="539"/><line style="stroke:#A80036;stroke-width:1.5;" x1="161.5" x2="256.5" y1="547" y2="547"/><!--MD5=[ef63e85e32976ed6c3ca2a05ce10893d]
class CommonGraph--><rect codeLine="45" fill="#FEFECE" filter="url(#f1obllitz3ahmp)" height="48" id="CommonGraph" style="stroke:#A80036;stroke-width:1.5;" width="118" x="7" y="507"/><ellipse cx="22" cy="523" fill="#A9DCDF" rx="11" ry="11" style="stroke:#A80036;stroke-width:1.0;"/><path d="M23.75,524.5 L20.4531,524.5 L20.0156,525.5 L20.0156,525.5 L20.4844,525.5 L21,526.125 L21,526.5 L21,526.875 L20.4844,527.5 L20.0156,527.5 L18.125,527.5 L17.5156,527.5 L17,526.875 L17,526.5 L17,526.125 L17.5156,525.5 L18.125,525.5 L20.4375,519.5 L19.5625,519.5 L18.5156,519.5 L18,518.875 L18,518.5 L18,518.125 L18.5156,517.5 L19.5625,517.5 L23.2344,517.5 L25.9219,525.5 L26.4844,525.5 L26.4844,525.5 L27,526.125 L27,526.5 L27,526.875 L26.4844,527.5 L25.9219,527.5 L24.0313,527.5 L23.5156,527.5 L23,526.875 L23,526.5 L23,526.125 L23.5156,525.5 L24.0313,525.5 L24.0313,525.5 L23.75,524.5 Z M23.2031,522.5 L22,518.9219 L20.9688,522.5 L23.2031,522.5 Z " fill="#000000"/><text fill="#000000" font-family="sans-serif" font-size="12" font-style="italic" lengthAdjust="spacing" textLength="86" x="36" y="527.9102">CommonGraph</text><line style="stroke:#A80036;stroke-width:1.5;" x1="8" x2="124" y1="539" y2="539"/><line style="stroke:#A80036;stroke-width:1.5;" x1="8" x2="124" y1="547" y2="547"/><!--MD5=[706e73df52f3df32f52be1ce9adb217e]
class Graph--><rect codeLine="47" fill="#FEFECE" filter="url(#f1obllitz3ahmp)" height="56.1875" id="Graph" style="stroke:#A80036;stroke-width:1.5;" width="89" x="21.5" y="660.5"/><ellipse cx="36.5" cy="680.5938" fill="#B4A7E5" rx="11" ry="11" style="stroke:#A80036;stroke-width:1.0;"/><path d="M37.5,677.5938 L37.5,683.5938 L39.5,683.5938 L39.9844,683.5938 L40.5,684.2188 L40.5,684.5938 L40.5,684.9688 L39.9844,685.5938 L39.5,685.5938 L33.5,685.5938 L33.0156,685.5938 L32.5,684.9688 L32.5,684.5938 L32.5,684.2188 L33.0156,683.5938 L33.5,683.5938 L35.5,683.5938 L35.5,677.5938 L33.5,677.5938 L33.0156,677.5938 L32.5,676.9688 L32.5,676.5938 L32.5,676.2188 L33.0156,675.5938 L33.5,675.5938 L39.5,675.5938 L39.9844,675.5938 L40.5,676.2188 L40.5,676.5938 L40.5,676.9688 L39.9844,677.5938 L39.5,677.5938 L37.5,677.5938 Z " fill="#000000"/><text fill="#000000" font-family="sans-serif" font-size="12" font-style="italic" lengthAdjust="spacing" textLength="61" x="48.5" y="677.957">«interface»</text><text fill="#000000" font-family="sans-serif" font-size="12" font-style="italic" lengthAdjust="spacing" textLength="34" x="62" y="693.0508">Graph</text><line style="stroke:#A80036;stroke-width:1.5;" x1="22.5" x2="109.5" y1="700.6875" y2="700.6875"/><line style="stroke:#A80036;stroke-width:1.5;" x1="22.5" x2="109.5" y1="708.6875" y2="708.6875"/><!--MD5=[4580d9fe07e36d54de3df101f6c0e966]
link ShortestPathController to Company--><path codeLine="49" d="M270,110.19 C270,128.16 270,148.18 270,165.41 " fill="none" id="ShortestPathController-to-Company" style="stroke:#A80036;stroke-width:1.0;stroke-dasharray:7.0,7.0;"/><polygon fill="#A80036" points="270,170.66,274,161.66,270,165.66,266,161.66,270,170.66" style="stroke:#A80036;stroke-width:1.0;"/><!--MD5=[e359b474b5bea3d5e0a05d5f38acf6c5]
link Company to FreightNetwork--><path codeLine="50" d="M270,247.28 C270,270.5 270,300.49 270,324.9 " fill="none" id="Company-FreightNetwork" style="stroke:#A80036;stroke-width:1.0;"/><polygon fill="#000000" points="275,291.1758,277.9389,282.1307,272.0611,282.1307,275,291.1758" style="stroke:#000000;stroke-width:1.0;"/><text fill="#000000" font-family="sans-serif" font-size="13" lengthAdjust="spacing" textLength="37" x="284" y="291.4951">knows</text><text fill="#000000" font-family="sans-serif" font-size="13" lengthAdjust="spacing" textLength="7" x="262.4422" y="268.2052">1</text><text fill="#000000" font-family="sans-serif" font-size="13" lengthAdjust="spacing" textLength="7" x="262.4422" y="313.9995">1</text><!--MD5=[e37e8e3161027a4df85a8c5d819b551a]
reverse link Location to Port--><path codeLine="51" d="M313.41,588.69 C309,602.11 304.31,616.44 299.89,629.9 " fill="none" id="Location-backto-Port" style="stroke:#A80036;stroke-width:1.0;"/><polygon fill="none" points="306.9,586.07,319.78,569.25,320.2,590.43,306.9,586.07" style="stroke:#A80036;stroke-width:1.0;"/><!--MD5=[656cf771635bff60a827e8d62d536357]
reverse link Location to Capital--><path codeLine="52" d="M350.23,588.69 C354.54,602.11 359.15,616.44 363.48,629.9 " fill="none" id="Location-backto-Capital" style="stroke:#A80036;stroke-width:1.0;"/><polygon fill="none" points="343.43,590.43,343.98,569.25,356.76,586.14,343.43,590.43" style="stroke:#A80036;stroke-width:1.0;"/><!--MD5=[bd392566c8a46ea25d805713a18e8e2e]
link FreightNetwork to Location--><path codeLine="53" d="M287.27,415.29 C296.8,439.73 308.5,469.74 317.55,492.93 " fill="none" id="FreightNetwork-Location" style="stroke:#A80036;stroke-width:1.0;"/><polygon fill="#000000" points="310.8167,458.834,310.2683,449.3393,304.7922,451.475,310.8167,458.834" style="stroke:#000000;stroke-width:1.0;"/><text fill="#000000" font-family="sans-serif" font-size="13" lengthAdjust="spacing" textLength="10" x="318" y="459.4951">of</text><text fill="#000000" font-family="sans-serif" font-size="13" lengthAdjust="spacing" textLength="7" x="282.1203" y="436.0027">1</text><text fill="#000000" font-family="sans-serif" font-size="13" lengthAdjust="spacing" textLength="20" x="293.1948" y="482.2794">1..*</text><!--MD5=[cb484d98b05c96fc0a7b0f57795eae75]
link FreightNetwork to MatrixGraph--><path codeLine="54" d="M253.01,415.29 C242.41,442.91 229.09,477.64 219.89,501.61 " fill="none" id="FreightNetwork-to-MatrixGraph" style="stroke:#A80036;stroke-width:1.0;stroke-dasharray:7.0,7.0;"/><polygon fill="#A80036" points="217.99,506.56,224.9585,499.6001,219.7878,501.8944,217.4935,496.7237,217.99,506.56" style="stroke:#A80036;stroke-width:1.0;"/><!--MD5=[e9051ba8ebbd537393a9a6534acec112]
reverse link CommonGraph to MatrixGraph--><path codeLine="55" d="M145.46,531 C150.38,531 155.31,531 160.23,531 " fill="none" id="CommonGraph-backto-MatrixGraph" style="stroke:#A80036;stroke-width:1.0;"/><polygon fill="none" points="145.21,538,125.21,531,145.21,524,145.21,538" style="stroke:#A80036;stroke-width:1.0;"/><!--MD5=[73cb6a84480518af2d88af90c1d954ca]
link CommonGraph to Graph--><path codeLine="56" d="M66,555.28 C66,581.87 66,625.54 66,655.36 " fill="none" id="CommonGraph-to-Graph" style="stroke:#A80036;stroke-width:1.0;"/><polygon fill="#A80036" points="66,660.39,70,651.39,66,655.39,62,651.39,66,660.39" style="stroke:#A80036;stroke-width:1.0;"/><!--MD5=[44ed92564fa08e37bda48c89285da3db]
@startuml

skinparam classAttributeIconSize 0

class ShortestPathController {
    +getShortestPath(beg,end,path)
    +getShortestLandPath(beg,end)
    +getShortestMaritimePath(beg,end)
    +getShortestLandOrSeaPath(beg,end)
}

class Company {
    -designation
    +getFreightNetwork()
}

class FreightNetwork {
    +getShortestLandPath(beg,end)
    +getShortestMaritimePath(beg,end)
    +getShortestLandOrSeaPath(beg,end)
}

abstract class Location{
    -latitude
    -longitude
}

class Port {
    -name
    -latitude
    -longitude
    -country
    -continent
}

class Capital{
    -name
    -latitude
    -longitude
    -country
    -continent
}

class MatrixGraph {}

abstract class CommonGraph {}

interface Graph <<interface>> {}

ShortestPathController ..> Company
Company "1" - - "1" FreightNetwork : knows >
Location <|- - Port
Location <|- - Capital
FreightNetwork "1" - - "1..*" Location : of >
FreightNetwork ..> MatrixGraph
CommonGraph <|- MatrixGraph
CommonGraph - -> Graph

@enduml

PlantUML version 1.2021.11(Sat Oct 02 14:26:11 BST 2021)
(GPL source distribution)
Java Runtime: OpenJDK Runtime Environment
JVM: OpenJDK 64-Bit Server VM
Default Encoding: Cp1252
Language: pt
Country: PT
--></g></svg>