<?xml version="1.0" encoding="UTF-8" standalone="no"?><svg xmlns="http://www.w3.org/2000/svg" xmlns:xlink="http://www.w3.org/1999/xlink" contentScriptType="application/ecmascript" contentStyleType="text/css" height="587px" preserveAspectRatio="none" style="width:1111px;height:587px;background:#FFFFFF;" version="1.1" viewBox="0 0 1111 587" width="1111px" zoomAndPan="magnify"><defs><filter height="300%" id="f1aqk2i5tashuo" width="300%" x="-1" y="-1"><feGaussianBlur result="blurOut" stdDeviation="2.0"/><feColorMatrix in="blurOut" result="blurOut2" type="matrix" values="0 0 0 0 0 0 0 0 0 0 0 0 0 0 0 0 0 0 .4 0"/><feOffset dx="4.0" dy="4.0" in="blurOut2" result="blurOut3"/><feBlend in="SourceGraphic" in2="blurOut3" mode="normal"/></filter></defs><g><rect fill="#FFFFFF" filter="url(#f1aqk2i5tashuo)" height="383.8359" style="stroke:#A80036;stroke-width:1.0;" width="10" x="51" y="99.6094"/><rect fill="#FFFFFF" filter="url(#f1aqk2i5tashuo)" height="361.4844" style="stroke:#A80036;stroke-width:1.0;" width="10" x="452" y="121.9609"/><rect fill="#FFFFFF" filter="url(#f1aqk2i5tashuo)" height="240.0781" style="stroke:#A80036;stroke-width:1.0;" width="10" x="669" y="213.0156"/><rect fill="#FFFFFF" filter="url(#f1aqk2i5tashuo)" height="30" style="stroke:#A80036;stroke-width:1.0;" width="10" x="920" y="268.7188"/><rect fill="#FFFFFF" filter="url(#f1aqk2i5tashuo)" height="30" style="stroke:#A80036;stroke-width:1.0;" width="10" x="1025.5" y="329.0703"/><rect fill="#FFFFFF" filter="url(#f1aqk2i5tashuo)" height="195.7266" style="stroke:#000000;stroke-width:2.0;" width="514" x="583" y="228.0156"/><rect fill="#FFFFFF" height="15.8359" style="stroke:none;stroke-width:1.0;" width="514" x="583" y="392.0703"/><rect fill="#FFFFFF" height="15.8359" style="stroke:none;stroke-width:1.0;" width="514" x="583" y="407.9063"/><line style="stroke:#A80036;stroke-width:1.0;stroke-dasharray:5.0,5.0;" x1="56" x2="56" y1="89.6094" y2="501.4453"/><line style="stroke:#A80036;stroke-width:1.0;stroke-dasharray:5.0,5.0;" x1="457" x2="457" y1="89.6094" y2="501.4453"/><line style="stroke:#A80036;stroke-width:1.0;stroke-dasharray:5.0,5.0;" x1="674" x2="674" y1="89.6094" y2="501.4453"/><line style="stroke:#A80036;stroke-width:1.0;stroke-dasharray:5.0,5.0;" x1="925" x2="925" y1="89.6094" y2="501.4453"/><line style="stroke:#A80036;stroke-width:1.0;stroke-dasharray:5.0,5.0;" x1="1030" x2="1030" y1="89.6094" y2="501.4453"/><text fill="#000000" font-family="sans-serif" font-size="14" lengthAdjust="spacing" textLength="96" x="5" y="86.5332">TrafficManager</text><ellipse cx="56" cy="15" fill="#FEFECE" filter="url(#f1aqk2i5tashuo)" rx="8" ry="8" style="stroke:#A80036;stroke-width:2.0;"/><path d="M56,23 L56,50 M43,31 L69,31 M56,50 L43,65 M56,50 L69,65 " fill="none" filter="url(#f1aqk2i5tashuo)" style="stroke:#A80036;stroke-width:2.0;"/><text fill="#000000" font-family="sans-serif" font-size="14" lengthAdjust="spacing" textLength="96" x="5" y="514.9785">TrafficManager</text><ellipse cx="56" cy="528.0547" fill="#FEFECE" filter="url(#f1aqk2i5tashuo)" rx="8" ry="8" style="stroke:#A80036;stroke-width:2.0;"/><path d="M56,536.0547 L56,563.0547 M43,544.0547 L69,544.0547 M56,563.0547 L43,578.0547 M56,563.0547 L69,578.0547 " fill="none" filter="url(#f1aqk2i5tashuo)" style="stroke:#A80036;stroke-width:2.0;"/><rect fill="#FEFECE" filter="url(#f1aqk2i5tashuo)" height="31.6094" style="stroke:#A80036;stroke-width:1.5;" width="108" x="401" y="53"/><text fill="#000000" font-family="sans-serif" font-size="14" lengthAdjust="spacing" textLength="94" x="408" y="74.5332">ShortestPathUI</text><rect fill="#FEFECE" filter="url(#f1aqk2i5tashuo)" height="31.6094" style="stroke:#A80036;stroke-width:1.5;" width="108" x="401" y="500.4453"/><text fill="#000000" font-family="sans-serif" font-size="14" lengthAdjust="spacing" textLength="94" x="408" y="521.9785">ShortestPathUI</text><rect fill="#FEFECE" filter="url(#f1aqk2i5tashuo)" height="31.6094" style="stroke:#A80036;stroke-width:1.5;" width="158" x="593" y="53"/><text fill="#000000" font-family="sans-serif" font-size="14" lengthAdjust="spacing" textLength="144" x="600" y="74.5332">ShortestPathController</text><rect fill="#FEFECE" filter="url(#f1aqk2i5tashuo)" height="31.6094" style="stroke:#A80036;stroke-width:1.5;" width="158" x="593" y="500.4453"/><text fill="#000000" font-family="sans-serif" font-size="14" lengthAdjust="spacing" textLength="144" x="600" y="521.9785">ShortestPathController</text><rect fill="#FEFECE" filter="url(#f1aqk2i5tashuo)" height="31.6094" style="stroke:#A80036;stroke-width:1.5;" width="74" x="886" y="53"/><text fill="#000000" font-family="sans-serif" font-size="14" lengthAdjust="spacing" textLength="60" x="893" y="74.5332">Company</text><rect fill="#FEFECE" filter="url(#f1aqk2i5tashuo)" height="31.6094" style="stroke:#A80036;stroke-width:1.5;" width="74" x="886" y="500.4453"/><text fill="#000000" font-family="sans-serif" font-size="14" lengthAdjust="spacing" textLength="60" x="893" y="521.9785">Company</text><rect fill="#FEFECE" filter="url(#f1aqk2i5tashuo)" height="31.6094" style="stroke:#A80036;stroke-width:1.5;" width="109" x="974" y="53"/><text fill="#000000" font-family="sans-serif" font-size="14" lengthAdjust="spacing" textLength="95" x="981" y="74.5332">FreightNetwork</text><rect fill="#FEFECE" filter="url(#f1aqk2i5tashuo)" height="31.6094" style="stroke:#A80036;stroke-width:1.5;" width="109" x="974" y="500.4453"/><text fill="#000000" font-family="sans-serif" font-size="14" lengthAdjust="spacing" textLength="95" x="981" y="521.9785">FreightNetwork</text><rect fill="#FFFFFF" filter="url(#f1aqk2i5tashuo)" height="383.8359" style="stroke:#A80036;stroke-width:1.0;" width="10" x="51" y="99.6094"/><rect fill="#FFFFFF" filter="url(#f1aqk2i5tashuo)" height="361.4844" style="stroke:#A80036;stroke-width:1.0;" width="10" x="452" y="121.9609"/><rect fill="#FFFFFF" filter="url(#f1aqk2i5tashuo)" height="240.0781" style="stroke:#A80036;stroke-width:1.0;" width="10" x="669" y="213.0156"/><rect fill="#FFFFFF" filter="url(#f1aqk2i5tashuo)" height="30" style="stroke:#A80036;stroke-width:1.0;" width="10" x="920" y="268.7188"/><rect fill="#FFFFFF" filter="url(#f1aqk2i5tashuo)" height="30" style="stroke:#A80036;stroke-width:1.0;" width="10" x="1025.5" y="329.0703"/><polygon fill="#A80036" points="440,117.9609,450,121.9609,440,125.9609,444,121.9609" style="stroke:#A80036;stroke-width:1.0;"/><line style="stroke:#A80036;stroke-width:1.0;" x1="61" x2="446" y1="121.9609" y2="121.9609"/><text fill="#000000" font-family="sans-serif" font-size="13" font-weight="bold" lengthAdjust="spacing" textLength="7" x="68" y="117.1045">1</text><text fill="#000000" font-family="sans-serif" font-size="13" lengthAdjust="spacing" textLength="361" x="79" y="117.1045">asks for the shortest path between two locals (city and/or port)</text><polygon fill="#A80036" points="72,148.3125,62,152.3125,72,156.3125,68,152.3125" style="stroke:#A80036;stroke-width:1.0;"/><line style="stroke:#A80036;stroke-width:1.0;stroke-dasharray:2.0,2.0;" x1="66" x2="451" y1="152.3125" y2="152.3125"/><text fill="#000000" font-family="sans-serif" font-size="13" font-weight="bold" lengthAdjust="spacing" textLength="7" x="78" y="147.4561">2</text><text fill="#000000" font-family="sans-serif" font-size="13" lengthAdjust="spacing" textLength="180" x="89" y="147.4561">asks for data(i.e.,beg,end,path)</text><polygon fill="#A80036" points="440,178.6641,450,182.6641,440,186.6641,444,182.6641" style="stroke:#A80036;stroke-width:1.0;"/><line style="stroke:#A80036;stroke-width:1.0;" x1="61" x2="446" y1="182.6641" y2="182.6641"/><text fill="#000000" font-family="sans-serif" font-size="13" font-weight="bold" lengthAdjust="spacing" textLength="7" x="68" y="177.8076">3</text><text fill="#000000" font-family="sans-serif" font-size="13" lengthAdjust="spacing" textLength="114" x="79" y="177.8076">inserts needed data</text><polygon fill="#A80036" points="657,209.0156,667,213.0156,657,217.0156,661,213.0156" style="stroke:#A80036;stroke-width:1.0;"/><line style="stroke:#A80036;stroke-width:1.0;" x1="462" x2="663" y1="213.0156" y2="213.0156"/><text fill="#000000" font-family="sans-serif" font-size="13" font-weight="bold" lengthAdjust="spacing" textLength="7" x="469" y="208.1592">4</text><text fill="#000000" font-family="sans-serif" font-size="13" lengthAdjust="spacing" textLength="177" x="480" y="208.1592">getShortestPath(beg,end,path)</text><path d="M583,228.0156 L644,228.0156 L644,236.0156 L634,246.0156 L583,246.0156 L583,228.0156 " fill="#EEEEEE" style="stroke:#000000;stroke-width:1.0;"/><rect fill="none" height="195.7266" style="stroke:#000000;stroke-width:2.0;" width="514" x="583" y="228.0156"/><text fill="#000000" font-family="sans-serif" font-size="13" font-weight="bold" lengthAdjust="spacing" textLength="16" x="598" y="242.5107">alt</text><text fill="#000000" font-family="sans-serif" font-size="11" font-weight="bold" lengthAdjust="spacing" textLength="184" x="659" y="241.4346">[if the desired path is a land path]</text><polygon fill="#A80036" points="908,264.7188,918,268.7188,908,272.7188,912,268.7188" style="stroke:#A80036;stroke-width:1.0;"/><line style="stroke:#A80036;stroke-width:1.0;" x1="679" x2="914" y1="268.7188" y2="268.7188"/><text fill="#000000" font-family="sans-serif" font-size="13" font-weight="bold" lengthAdjust="spacing" textLength="7" x="686" y="263.8623">5</text><text fill="#000000" font-family="sans-serif" font-size="13" lengthAdjust="spacing" textLength="211" x="697" y="263.8623">freightNetwork = getFreightNetwork()</text><polygon fill="#A80036" points="1013.5,325.0703,1023.5,329.0703,1013.5,333.0703,1017.5,329.0703" style="stroke:#A80036;stroke-width:1.0;"/><line style="stroke:#A80036;stroke-width:1.0;" x1="679" x2="1019.5" y1="329.0703" y2="329.0703"/><text fill="#000000" font-family="sans-serif" font-size="13" font-weight="bold" lengthAdjust="spacing" textLength="7" x="686" y="324.2139">6</text><text fill="#000000" font-family="sans-serif" font-size="13" lengthAdjust="spacing" textLength="176" x="697" y="324.2139">getShortestLandPath(beg,end)</text><line style="stroke:#000000;stroke-width:1.0;stroke-dasharray:2.0,2.0;" x1="583" x2="1097" y1="393.0703" y2="393.0703"/><text fill="#000000" font-family="sans-serif" font-size="11" font-weight="bold" lengthAdjust="spacing" textLength="211" x="588" y="404.4893">[if the desired path is a maritime path]</text><line style="stroke:#000000;stroke-width:1.0;stroke-dasharray:2.0,2.0;" x1="583" x2="1097" y1="408.9063" y2="408.9063"/><text fill="#000000" font-family="sans-serif" font-size="11" font-weight="bold" lengthAdjust="spacing" textLength="222" x="588" y="420.3252">[if the desired path is a land or sea path]</text><polygon fill="#A80036" points="473,449.0938,463,453.0938,473,457.0938,469,453.0938" style="stroke:#A80036;stroke-width:1.0;"/><line style="stroke:#A80036;stroke-width:1.0;stroke-dasharray:2.0,2.0;" x1="467" x2="673" y1="453.0938" y2="453.0938"/><text fill="#000000" font-family="sans-serif" font-size="13" font-weight="bold" lengthAdjust="spacing" textLength="7" x="479" y="448.2373">7</text><text fill="#000000" font-family="sans-serif" font-size="13" lengthAdjust="spacing" textLength="74" x="490" y="448.2373">shortestPath</text><polygon fill="#A80036" points="67,479.4453,57,483.4453,67,487.4453,63,483.4453" style="stroke:#A80036;stroke-width:1.0;"/><line style="stroke:#A80036;stroke-width:1.0;stroke-dasharray:2.0,2.0;" x1="61" x2="456" y1="483.4453" y2="483.4453"/><text fill="#000000" font-family="sans-serif" font-size="13" font-weight="bold" lengthAdjust="spacing" textLength="7" x="73" y="478.5889">8</text><text fill="#000000" font-family="sans-serif" font-size="13" lengthAdjust="spacing" textLength="142" x="84" y="478.5889">returns the shortest path</text><!--MD5=[3e367627969a3847df992126c7dc4d4c]
@startuml

autonumber
actor TrafficManager as C
participant "ShortestPathUI" as UI
participant "ShortestPathController" as CTRL
participant "Company" as COMPANY
participant "FreightNetwork" as NET

activate C
C -> UI : asks for the shortest path between two locals (city and/or port)
activate UI
UI - -> C : asks for data(i.e.,beg,end,path)
C -> UI : inserts needed data
UI -> CTRL : getShortestPath(beg,end,path)
activate CTRL
alt if the desired path is a land path
CTRL -> COMPANY : freightNetwork = getFreightNetwork()
activate COMPANY
deactivate COMPANY
CTRL -> NET : getShortestLandPath(beg,end)
activate NET
|||
deactivate NET
else if the desired path is a maritime path

else if the desired path is a land or sea path

end
CTRL - -> UI : shortestPath
deactivate CTRL
UI - -> C : returns the shortest path
deactivate UI

deactivate C


@enduml

PlantUML version 1.2021.11(Sat Oct 02 14:26:11 BST 2021)
(GPL source distribution)
Java Runtime: OpenJDK Runtime Environment
JVM: OpenJDK 64-Bit Server VM
Default Encoding: Cp1252
Language: pt
Country: PT
--></g></svg>