<?xml version="1.0" encoding="UTF-8" standalone="no"?><svg xmlns="http://www.w3.org/2000/svg" xmlns:xlink="http://www.w3.org/1999/xlink" contentScriptType="application/ecmascript" contentStyleType="text/css" height="996px" preserveAspectRatio="none" style="width:1508px;height:996px;background:#FFFFFF;" version="1.1" viewBox="0 0 1508 996" width="1508px" zoomAndPan="magnify"><defs><filter height="300%" id="fgjsznspqqo22" width="300%" x="-1" y="-1"><feGaussianBlur result="blurOut" stdDeviation="1.6000000000000003"/><feColorMatrix in="blurOut" result="blurOut2" type="matrix" values="0 0 0 0 0 0 0 0 0 0 0 0 0 0 0 0 0 0 .4 0"/><feOffset dx="3.2000000000000006" dy="3.2000000000000006" in="blurOut2" result="blurOut3"/><feBlend in="SourceGraphic" in2="blurOut3" mode="normal"/></filter></defs><g><!--MD5=[02e4b9b7573f1156f41e60aa5b4e25a4]
class Company--><rect codeLine="7" fill="#FEFECE" filter="url(#fgjsznspqqo22)" height="43.0688" id="Company" style="stroke:#A80036;stroke-width:1.2000000000000002;" width="68" x="29.2" y="190.6852"/><ellipse cx="41.2" cy="203.4852" fill="#ADD1B2" rx="8.8" ry="8.8" style="stroke:#A80036;stroke-width:0.8000000000000002;"/><path d="M42.8,200.6852 Q42.9625,200.2852 43.15,200.0852 Q43.3375,199.8852 43.55,199.8852 Q43.925,199.8852 44.1625,200.1102 Q44.4,200.3352 44.4,200.8602 L44.4,202.1102 Q44.4,202.6352 44.175,202.8602 Q43.95,203.0852 43.6,203.0852 Q43.2875,203.0852 43.0875,202.9477 Q42.8875,202.8102 42.8,202.4477 Q42.7625,202.1977 42.625,202.0602 Q42.375,201.7977 41.925,201.6477 Q41.475,201.4852 41.025,201.4852 Q40.4625,201.4852 39.9875,201.7102 Q39.525,201.9352 39.1625,202.4352 Q38.8,202.9352 38.8,203.6227 L38.8,204.3602 Q38.8,205.1852 39.475,205.7352 Q40.15,206.2852 41.35,206.2852 Q42.0625,206.2852 42.5625,206.1227 Q42.85,206.0352 43.175,205.7477 Q43.3875,205.5852 43.5,205.5352 Q43.6125,205.4852 43.75,205.4852 Q44.0125,205.4852 44.2,205.6977 Q44.4,205.8977 44.4,206.1852 Q44.4,206.4602 44.125,206.7852 Q43.725,207.2602 43.0875,207.5227 Q42.25,207.8852 41.225,207.8852 Q40.025,207.8852 39.0625,207.4102 Q38.2875,207.0352 37.7375,206.2227 Q37.2,205.4102 37.2,204.4477 L37.2,203.5727 Q37.2,202.5727 37.675,201.6977 Q38.1625,200.8227 39,200.3602 Q39.85,199.8852 40.8,199.8852 Q41.375,199.8852 41.875,200.0852 Q42.375,200.2852 42.8,200.6852 Z " fill="#000000"/><text fill="#000000" font-family="sans-serif" font-size="9.6" lengthAdjust="spacing" textLength="42.4" x="52.4" y="207.4133">Company</text><line style="stroke:#A80036;stroke-width:1.2000000000000002;" x1="30" x2="96.4" y1="216.2852" y2="216.2852"/><text fill="#000000" font-family="sans-serif" font-size="8.8" lengthAdjust="spacing" textLength="47.2" x="34" y="228.6203">-designation</text><!--MD5=[e9a58730c562b34349daa605d1ed6662]
class Container--><rect codeLine="11" fill="#FEFECE" filter="url(#fgjsznspqqo22)" height="87.3438" id="Container" style="stroke:#A80036;stroke-width:1.2000000000000002;" width="68.8" x="587.2" y="654.2852"/><ellipse cx="599.2" cy="667.0852" fill="#ADD1B2" rx="8.8" ry="8.8" style="stroke:#A80036;stroke-width:0.8000000000000002;"/><path d="M600.8,664.2852 Q600.9625,663.8852 601.15,663.6852 Q601.3375,663.4852 601.55,663.4852 Q601.925,663.4852 602.1625,663.7102 Q602.4,663.9352 602.4,664.4602 L602.4,665.7102 Q602.4,666.2352 602.175,666.4602 Q601.95,666.6852 601.6,666.6852 Q601.2875,666.6852 601.0875,666.5477 Q600.8875,666.4102 600.8,666.0477 Q600.7625,665.7977 600.625,665.6602 Q600.375,665.3977 599.925,665.2477 Q599.475,665.0852 599.025,665.0852 Q598.4625,665.0852 597.9875,665.3102 Q597.525,665.5352 597.1625,666.0352 Q596.8,666.5352 596.8,667.2227 L596.8,667.9602 Q596.8,668.7852 597.475,669.3352 Q598.15,669.8852 599.35,669.8852 Q600.0625,669.8852 600.5625,669.7227 Q600.85,669.6352 601.175,669.3477 Q601.3875,669.1852 601.5,669.1352 Q601.6125,669.0852 601.75,669.0852 Q602.0125,669.0852 602.2,669.2977 Q602.4,669.4977 602.4,669.7852 Q602.4,670.0602 602.125,670.3852 Q601.725,670.8602 601.0875,671.1227 Q600.25,671.4852 599.225,671.4852 Q598.025,671.4852 597.0625,671.0102 Q596.2875,670.6352 595.7375,669.8227 Q595.2,669.0102 595.2,668.0477 L595.2,667.1727 Q595.2,666.1727 595.675,665.2977 Q596.1625,664.4227 597,663.9602 Q597.85,663.4852 598.8,663.4852 Q599.375,663.4852 599.875,663.6852 Q600.375,663.8852 600.8,664.2852 Z " fill="#000000"/><text fill="#000000" font-family="sans-serif" font-size="9.6" lengthAdjust="spacing" textLength="43.2" x="610.4" y="671.0133">Container</text><line style="stroke:#A80036;stroke-width:1.2000000000000002;" x1="588" x2="655.2" y1="679.8852" y2="679.8852"/><text fill="#000000" font-family="sans-serif" font-size="8.8" lengthAdjust="spacing" textLength="45.6" x="592" y="692.2203">-containerId</text><text fill="#000000" font-family="sans-serif" font-size="8.8" lengthAdjust="spacing" textLength="33.6" x="592" y="703.2891">-payload</text><text fill="#000000" font-family="sans-serif" font-size="8.8" lengthAdjust="spacing" textLength="18.4" x="592" y="714.3578">-tare</text><text fill="#000000" font-family="sans-serif" font-size="8.8" lengthAdjust="spacing" textLength="25.6" x="592" y="725.4266">-gross</text><text fill="#000000" font-family="sans-serif" font-size="8.8" lengthAdjust="spacing" textLength="34.4" x="592" y="736.4953">-isoCode</text><!--MD5=[ed6624c6556d5e7b1bd23032162d20b7]
class Client--><rect codeLine="24" fill="#FEFECE" filter="url(#fgjsznspqqo22)" height="25.6" id="Client" style="stroke:#A80036;stroke-width:1.2000000000000002;" width="51.2" x="389.2" y="645.8852"/><ellipse cx="401.2" cy="658.6852" fill="#ADD1B2" rx="8.8" ry="8.8" style="stroke:#A80036;stroke-width:0.8000000000000002;"/><path d="M402.8,655.8852 Q402.9625,655.4852 403.15,655.2852 Q403.3375,655.0852 403.55,655.0852 Q403.925,655.0852 404.1625,655.3102 Q404.4,655.5352 404.4,656.0602 L404.4,657.3102 Q404.4,657.8352 404.175,658.0602 Q403.95,658.2852 403.6,658.2852 Q403.2875,658.2852 403.0875,658.1477 Q402.8875,658.0102 402.8,657.6477 Q402.7625,657.3977 402.625,657.2602 Q402.375,656.9977 401.925,656.8477 Q401.475,656.6852 401.025,656.6852 Q400.4625,656.6852 399.9875,656.9102 Q399.525,657.1352 399.1625,657.6352 Q398.8,658.1352 398.8,658.8227 L398.8,659.5602 Q398.8,660.3852 399.475,660.9352 Q400.15,661.4852 401.35,661.4852 Q402.0625,661.4852 402.5625,661.3227 Q402.85,661.2352 403.175,660.9477 Q403.3875,660.7852 403.5,660.7352 Q403.6125,660.6852 403.75,660.6852 Q404.0125,660.6852 404.2,660.8977 Q404.4,661.0977 404.4,661.3852 Q404.4,661.6602 404.125,661.9852 Q403.725,662.4602 403.0875,662.7227 Q402.25,663.0852 401.225,663.0852 Q400.025,663.0852 399.0625,662.6102 Q398.2875,662.2352 397.7375,661.4227 Q397.2,660.6102 397.2,659.6477 L397.2,658.7727 Q397.2,657.7727 397.675,656.8977 Q398.1625,656.0227 399,655.5602 Q399.85,655.0852 400.8,655.0852 Q401.375,655.0852 401.875,655.2852 Q402.375,655.4852 402.8,655.8852 Z " fill="#000000"/><text fill="#000000" font-family="sans-serif" font-size="9.6" lengthAdjust="spacing" textLength="25.6" x="412.4" y="662.6133">Client</text><!--MD5=[ddaf6f62b0bc30921877ec9fb9463c9f]
class TrafficManager--><rect codeLine="28" fill="#FEFECE" filter="url(#fgjsznspqqo22)" height="25.6" id="TrafficManager" style="stroke:#A80036;stroke-width:1.2000000000000002;" width="90.4" x="18" y="577.8852"/><ellipse cx="30" cy="590.6852" fill="#ADD1B2" rx="8.8" ry="8.8" style="stroke:#A80036;stroke-width:0.8000000000000002;"/><path d="M31.6,587.8852 Q31.7625,587.4852 31.95,587.2852 Q32.1375,587.0852 32.35,587.0852 Q32.725,587.0852 32.9625,587.3102 Q33.2,587.5352 33.2,588.0602 L33.2,589.3102 Q33.2,589.8352 32.975,590.0602 Q32.75,590.2852 32.4,590.2852 Q32.0875,590.2852 31.8875,590.1477 Q31.6875,590.0102 31.6,589.6477 Q31.5625,589.3977 31.425,589.2602 Q31.175,588.9977 30.725,588.8477 Q30.275,588.6852 29.825,588.6852 Q29.2625,588.6852 28.7875,588.9102 Q28.325,589.1352 27.9625,589.6352 Q27.6,590.1352 27.6,590.8227 L27.6,591.5602 Q27.6,592.3852 28.275,592.9352 Q28.95,593.4852 30.15,593.4852 Q30.8625,593.4852 31.3625,593.3227 Q31.65,593.2352 31.975,592.9477 Q32.1875,592.7852 32.3,592.7352 Q32.4125,592.6852 32.55,592.6852 Q32.8125,592.6852 33,592.8977 Q33.2,593.0977 33.2,593.3852 Q33.2,593.6602 32.925,593.9852 Q32.525,594.4602 31.8875,594.7227 Q31.05,595.0852 30.025,595.0852 Q28.825,595.0852 27.8625,594.6102 Q27.0875,594.2352 26.5375,593.4227 Q26,592.6102 26,591.6477 L26,590.7727 Q26,589.7727 26.475,588.8977 Q26.9625,588.0227 27.8,587.5602 Q28.65,587.0852 29.6,587.0852 Q30.175,587.0852 30.675,587.2852 Q31.175,587.4852 31.6,587.8852 Z " fill="#000000"/><text fill="#000000" font-family="sans-serif" font-size="9.6" lengthAdjust="spacing" textLength="64.8" x="41.2" y="594.6133">TrafficManager</text><!--MD5=[5e1deb958606d83ef5f4988eb2b8f966]
class WarehouseManager--><rect codeLine="34" fill="#FEFECE" filter="url(#fgjsznspqqo22)" height="25.6" id="WarehouseManager" style="stroke:#A80036;stroke-width:1.2000000000000002;" width="115.2" x="5.6" y="51.4852"/><ellipse cx="17.6" cy="64.2852" fill="#ADD1B2" rx="8.8" ry="8.8" style="stroke:#A80036;stroke-width:0.8000000000000002;"/><path d="M19.2,61.4852 Q19.3625,61.0852 19.55,60.8852 Q19.7375,60.6852 19.95,60.6852 Q20.325,60.6852 20.5625,60.9102 Q20.8,61.1352 20.8,61.6602 L20.8,62.9102 Q20.8,63.4352 20.575,63.6602 Q20.35,63.8852 20,63.8852 Q19.6875,63.8852 19.4875,63.7477 Q19.2875,63.6102 19.2,63.2477 Q19.1625,62.9977 19.025,62.8602 Q18.775,62.5977 18.325,62.4477 Q17.875,62.2852 17.425,62.2852 Q16.8625,62.2852 16.3875,62.5102 Q15.925,62.7352 15.5625,63.2352 Q15.2,63.7352 15.2,64.4227 L15.2,65.1602 Q15.2,65.9852 15.875,66.5352 Q16.55,67.0852 17.75,67.0852 Q18.4625,67.0852 18.9625,66.9227 Q19.25,66.8352 19.575,66.5477 Q19.7875,66.3852 19.9,66.3352 Q20.0125,66.2852 20.15,66.2852 Q20.4125,66.2852 20.6,66.4977 Q20.8,66.6977 20.8,66.9852 Q20.8,67.2602 20.525,67.5852 Q20.125,68.0602 19.4875,68.3227 Q18.65,68.6852 17.625,68.6852 Q16.425,68.6852 15.4625,68.2102 Q14.6875,67.8352 14.1375,67.0227 Q13.6,66.2102 13.6,65.2477 L13.6,64.3727 Q13.6,63.3727 14.075,62.4977 Q14.5625,61.6227 15.4,61.1602 Q16.25,60.6852 17.2,60.6852 Q17.775,60.6852 18.275,60.8852 Q18.775,61.0852 19.2,61.4852 Z " fill="#000000"/><text fill="#000000" font-family="sans-serif" font-size="9.6" lengthAdjust="spacing" textLength="89.6" x="28.8" y="68.2133">WarehouseManager</text><!--MD5=[99d8f1361a72f685c413d1fd21efef1c]
class PortManager--><rect codeLine="38" fill="#FEFECE" filter="url(#fgjsznspqqo22)" height="25.6" id="PortManager" style="stroke:#A80036;stroke-width:1.2000000000000002;" width="81.6" x="22.4" y="804.2852"/><ellipse cx="34.4" cy="817.0852" fill="#ADD1B2" rx="8.8" ry="8.8" style="stroke:#A80036;stroke-width:0.8000000000000002;"/><path d="M36,814.2852 Q36.1625,813.8852 36.35,813.6852 Q36.5375,813.4852 36.75,813.4852 Q37.125,813.4852 37.3625,813.7102 Q37.6,813.9352 37.6,814.4602 L37.6,815.7102 Q37.6,816.2352 37.375,816.4602 Q37.15,816.6852 36.8,816.6852 Q36.4875,816.6852 36.2875,816.5477 Q36.0875,816.4102 36,816.0477 Q35.9625,815.7977 35.825,815.6602 Q35.575,815.3977 35.125,815.2477 Q34.675,815.0852 34.225,815.0852 Q33.6625,815.0852 33.1875,815.3102 Q32.725,815.5352 32.3625,816.0352 Q32,816.5352 32,817.2227 L32,817.9602 Q32,818.7852 32.675,819.3352 Q33.35,819.8852 34.55,819.8852 Q35.2625,819.8852 35.7625,819.7227 Q36.05,819.6352 36.375,819.3477 Q36.5875,819.1852 36.7,819.1352 Q36.8125,819.0852 36.95,819.0852 Q37.2125,819.0852 37.4,819.2977 Q37.6,819.4977 37.6,819.7852 Q37.6,820.0602 37.325,820.3852 Q36.925,820.8602 36.2875,821.1227 Q35.45,821.4852 34.425,821.4852 Q33.225,821.4852 32.2625,821.0102 Q31.4875,820.6352 30.9375,819.8227 Q30.4,819.0102 30.4,818.0477 L30.4,817.1727 Q30.4,816.1727 30.875,815.2977 Q31.3625,814.4227 32.2,813.9602 Q33.05,813.4852 34,813.4852 Q34.575,813.4852 35.075,813.6852 Q35.575,813.8852 36,814.2852 Z " fill="#000000"/><text fill="#000000" font-family="sans-serif" font-size="9.6" lengthAdjust="spacing" textLength="56" x="45.6" y="821.0133">PortManager</text><!--MD5=[76562047389981627aea27c31a97aff5]
class CargoManifest--><rect codeLine="47" fill="#FEFECE" filter="url(#fgjsznspqqo22)" height="43.0688" id="CargoManifest" style="stroke:#A80036;stroke-width:1.2000000000000002;" width="89.6" x="801.6" y="538.6852"/><ellipse cx="813.6" cy="551.4852" fill="#ADD1B2" rx="8.8" ry="8.8" style="stroke:#A80036;stroke-width:0.8000000000000002;"/><path d="M815.2,548.6852 Q815.3625,548.2852 815.55,548.0852 Q815.7375,547.8852 815.95,547.8852 Q816.325,547.8852 816.5625,548.1102 Q816.8,548.3352 816.8,548.8602 L816.8,550.1102 Q816.8,550.6352 816.575,550.8602 Q816.35,551.0852 816,551.0852 Q815.6875,551.0852 815.4875,550.9477 Q815.2875,550.8102 815.2,550.4477 Q815.1625,550.1977 815.025,550.0602 Q814.775,549.7977 814.325,549.6477 Q813.875,549.4852 813.425,549.4852 Q812.8625,549.4852 812.3875,549.7102 Q811.925,549.9352 811.5625,550.4352 Q811.2,550.9352 811.2,551.6227 L811.2,552.3602 Q811.2,553.1852 811.875,553.7352 Q812.55,554.2852 813.75,554.2852 Q814.4625,554.2852 814.9625,554.1227 Q815.25,554.0352 815.575,553.7477 Q815.7875,553.5852 815.9,553.5352 Q816.0125,553.4852 816.15,553.4852 Q816.4125,553.4852 816.6,553.6977 Q816.8,553.8977 816.8,554.1852 Q816.8,554.4602 816.525,554.7852 Q816.125,555.2602 815.4875,555.5227 Q814.65,555.8852 813.625,555.8852 Q812.425,555.8852 811.4625,555.4102 Q810.6875,555.0352 810.1375,554.2227 Q809.6,553.4102 809.6,552.4477 L809.6,551.5727 Q809.6,550.5727 810.075,549.6977 Q810.5625,548.8227 811.4,548.3602 Q812.25,547.8852 813.2,547.8852 Q813.775,547.8852 814.275,548.0852 Q814.775,548.2852 815.2,548.6852 Z " fill="#000000"/><text fill="#000000" font-family="sans-serif" font-size="9.6" lengthAdjust="spacing" textLength="64" x="824.8" y="555.4133">CargoManifest</text><line style="stroke:#A80036;stroke-width:1.2000000000000002;" x1="802.4" x2="890.4" y1="564.2852" y2="564.2852"/><text fill="#000000" font-family="sans-serif" font-size="8.8" lengthAdjust="spacing" textLength="64.8" x="806.4" y="576.6203">-cargoManifestId</text><!--MD5=[0dc7f2ddb409b58bcf52b12238c25399]
class Ship--><rect codeLine="52" fill="#FEFECE" filter="url(#fgjsznspqqo22)" height="87.3438" id="Ship" style="stroke:#A80036;stroke-width:1.2000000000000002;" width="58.4" x="224" y="547.0852"/><ellipse cx="241.76" cy="559.8852" fill="#ADD1B2" rx="8.8" ry="8.8" style="stroke:#A80036;stroke-width:0.8000000000000002;"/><path d="M243.36,557.0852 Q243.5225,556.6852 243.71,556.4852 Q243.8975,556.2852 244.11,556.2852 Q244.485,556.2852 244.7225,556.5102 Q244.96,556.7352 244.96,557.2602 L244.96,558.5102 Q244.96,559.0352 244.735,559.2602 Q244.51,559.4852 244.16,559.4852 Q243.8475,559.4852 243.6475,559.3477 Q243.4475,559.2102 243.36,558.8477 Q243.3225,558.5977 243.185,558.4602 Q242.935,558.1977 242.485,558.0477 Q242.035,557.8852 241.585,557.8852 Q241.0225,557.8852 240.5475,558.1102 Q240.085,558.3352 239.7225,558.8352 Q239.36,559.3352 239.36,560.0227 L239.36,560.7602 Q239.36,561.5852 240.035,562.1352 Q240.71,562.6852 241.91,562.6852 Q242.6225,562.6852 243.1225,562.5227 Q243.41,562.4352 243.735,562.1477 Q243.9475,561.9852 244.06,561.9352 Q244.1725,561.8852 244.31,561.8852 Q244.5725,561.8852 244.76,562.0977 Q244.96,562.2977 244.96,562.5852 Q244.96,562.8602 244.685,563.1852 Q244.285,563.6602 243.6475,563.9227 Q242.81,564.2852 241.785,564.2852 Q240.585,564.2852 239.6225,563.8102 Q238.8475,563.4352 238.2975,562.6227 Q237.76,561.8102 237.76,560.8477 L237.76,559.9727 Q237.76,558.9727 238.235,558.0977 Q238.7225,557.2227 239.56,556.7602 Q240.41,556.2852 241.36,556.2852 Q241.935,556.2852 242.435,556.4852 Q242.935,556.6852 243.36,557.0852 Z " fill="#000000"/><text fill="#000000" font-family="sans-serif" font-size="9.6" lengthAdjust="spacing" textLength="20" x="254.24" y="563.8133">Ship</text><line style="stroke:#A80036;stroke-width:1.2000000000000002;" x1="224.8" x2="281.6" y1="572.6852" y2="572.6852"/><text fill="#000000" font-family="sans-serif" font-size="8.8" lengthAdjust="spacing" textLength="48.8" x="228.8" y="585.0203">-mmmsiCode</text><text fill="#000000" font-family="sans-serif" font-size="8.8" lengthAdjust="spacing" textLength="40.8" x="228.8" y="596.0891">-shipName</text><text fill="#000000" font-family="sans-serif" font-size="8.8" lengthAdjust="spacing" textLength="36" x="228.8" y="607.1578">-imoCode</text><text fill="#000000" font-family="sans-serif" font-size="8.8" lengthAdjust="spacing" textLength="39.2" x="228.8" y="618.2266">-callSignId</text><text fill="#000000" font-family="sans-serif" font-size="8.8" lengthAdjust="spacing" textLength="21.6" x="228.8" y="629.2953">-draft</text><!--MD5=[c3595080bead4b0218f76e921c99c6ce]
class PositionInVehicle--><rect codeLine="61" fill="#FEFECE" filter="url(#fgjsznspqqo22)" height="65.2063" id="PositionInVehicle" style="stroke:#A80036;stroke-width:1.2000000000000002;" width="124.8" x="1003.2" y="901.8852"/><ellipse cx="1025.64" cy="914.6852" fill="#ADD1B2" rx="8.8" ry="8.8" style="stroke:#A80036;stroke-width:0.8000000000000002;"/><path d="M1027.24,911.8852 Q1027.4025,911.4852 1027.59,911.2852 Q1027.7775,911.0852 1027.99,911.0852 Q1028.365,911.0852 1028.6025,911.3102 Q1028.84,911.5352 1028.84,912.0602 L1028.84,913.3102 Q1028.84,913.8352 1028.615,914.0602 Q1028.39,914.2852 1028.04,914.2852 Q1027.7275,914.2852 1027.5275,914.1477 Q1027.3275,914.0102 1027.24,913.6477 Q1027.2025,913.3977 1027.065,913.2602 Q1026.815,912.9977 1026.365,912.8477 Q1025.915,912.6852 1025.465,912.6852 Q1024.9025,912.6852 1024.4275,912.9102 Q1023.965,913.1352 1023.6025,913.6352 Q1023.24,914.1352 1023.24,914.8227 L1023.24,915.5602 Q1023.24,916.3852 1023.915,916.9352 Q1024.59,917.4852 1025.79,917.4852 Q1026.5025,917.4852 1027.0025,917.3227 Q1027.29,917.2352 1027.615,916.9477 Q1027.8275,916.7852 1027.94,916.7352 Q1028.0525,916.6852 1028.19,916.6852 Q1028.4525,916.6852 1028.64,916.8977 Q1028.84,917.0977 1028.84,917.3852 Q1028.84,917.6602 1028.565,917.9852 Q1028.165,918.4602 1027.5275,918.7227 Q1026.69,919.0852 1025.665,919.0852 Q1024.465,919.0852 1023.5025,918.6102 Q1022.7275,918.2352 1022.1775,917.4227 Q1021.64,916.6102 1021.64,915.6477 L1021.64,914.7727 Q1021.64,913.7727 1022.115,912.8977 Q1022.6025,912.0227 1023.44,911.5602 Q1024.29,911.0852 1025.24,911.0852 Q1025.815,911.0852 1026.315,911.2852 Q1026.815,911.4852 1027.24,911.8852 Z " fill="#000000"/><text fill="#000000" font-family="sans-serif" font-size="9.6" lengthAdjust="spacing" textLength="76" x="1039.16" y="918.6133">PositionInVehicle</text><line style="stroke:#A80036;stroke-width:1.2000000000000002;" x1="1004" x2="1127.2" y1="927.4852" y2="927.4852"/><text fill="#000000" font-family="sans-serif" font-size="8.8" lengthAdjust="spacing" textLength="114.4" x="1008" y="939.8203">-containerPositionInVehiculeX</text><text fill="#000000" font-family="sans-serif" font-size="8.8" lengthAdjust="spacing" textLength="115.2" x="1008" y="950.8891">-containerPositionInVehiculeY</text><text fill="#000000" font-family="sans-serif" font-size="8.8" lengthAdjust="spacing" textLength="114.4" x="1008" y="961.9578">-containerPositionInVehiculeZ</text><!--MD5=[cf9c7d7c3da40397ddde4f51b7097da6]
class VesselType--><rect codeLine="67" fill="#FEFECE" filter="url(#fgjsznspqqo22)" height="76.275" id="VesselType" style="stroke:#A80036;stroke-width:1.2000000000000002;" width="76.8" x="376.4" y="251.8852"/><ellipse cx="388.4" cy="264.6852" fill="#ADD1B2" rx="8.8" ry="8.8" style="stroke:#A80036;stroke-width:0.8000000000000002;"/><path d="M390,261.8852 Q390.1625,261.4852 390.35,261.2852 Q390.5375,261.0852 390.75,261.0852 Q391.125,261.0852 391.3625,261.3102 Q391.6,261.5352 391.6,262.0602 L391.6,263.3102 Q391.6,263.8352 391.375,264.0602 Q391.15,264.2852 390.8,264.2852 Q390.4875,264.2852 390.2875,264.1477 Q390.0875,264.0102 390,263.6477 Q389.9625,263.3977 389.825,263.2602 Q389.575,262.9977 389.125,262.8477 Q388.675,262.6852 388.225,262.6852 Q387.6625,262.6852 387.1875,262.9102 Q386.725,263.1352 386.3625,263.6352 Q386,264.1352 386,264.8227 L386,265.5602 Q386,266.3852 386.675,266.9352 Q387.35,267.4852 388.55,267.4852 Q389.2625,267.4852 389.7625,267.3227 Q390.05,267.2352 390.375,266.9477 Q390.5875,266.7852 390.7,266.7352 Q390.8125,266.6852 390.95,266.6852 Q391.2125,266.6852 391.4,266.8977 Q391.6,267.0977 391.6,267.3852 Q391.6,267.6602 391.325,267.9852 Q390.925,268.4602 390.2875,268.7227 Q389.45,269.0852 388.425,269.0852 Q387.225,269.0852 386.2625,268.6102 Q385.4875,268.2352 384.9375,267.4227 Q384.4,266.6102 384.4,265.6477 L384.4,264.7727 Q384.4,263.7727 384.875,262.8977 Q385.3625,262.0227 386.2,261.5602 Q387.05,261.0852 388,261.0852 Q388.575,261.0852 389.075,261.2852 Q389.575,261.4852 390,261.8852 Z " fill="#000000"/><text fill="#000000" font-family="sans-serif" font-size="9.6" lengthAdjust="spacing" textLength="51.2" x="399.6" y="268.6133">VesselType</text><line style="stroke:#A80036;stroke-width:1.2000000000000002;" x1="377.2" x2="452.4" y1="277.4852" y2="277.4852"/><text fill="#000000" font-family="sans-serif" font-size="8.8" lengthAdjust="spacing" textLength="54.4" x="381.2" y="289.8203">-vesselTypeId</text><text fill="#000000" font-family="sans-serif" font-size="8.8" lengthAdjust="spacing" textLength="26.4" x="381.2" y="300.8891">-length</text><text fill="#000000" font-family="sans-serif" font-size="8.8" lengthAdjust="spacing" textLength="24.8" x="381.2" y="311.9578">-width</text><text fill="#000000" font-family="sans-serif" font-size="8.8" lengthAdjust="spacing" textLength="52.8" x="381.2" y="323.0266">-maxCapacity</text><!--MD5=[1c0c3765e68dc4575d559b566278b914]
class ShipPosition--><rect codeLine="74" fill="#FEFECE" filter="url(#fgjsznspqqo22)" height="120.55" id="ShipPosition" style="stroke:#A80036;stroke-width:1.2000000000000002;" width="81.6" x="374" y="827.0852"/><ellipse cx="386" cy="839.8852" fill="#ADD1B2" rx="8.8" ry="8.8" style="stroke:#A80036;stroke-width:0.8000000000000002;"/><path d="M387.6,837.0852 Q387.7625,836.6852 387.95,836.4852 Q388.1375,836.2852 388.35,836.2852 Q388.725,836.2852 388.9625,836.5102 Q389.2,836.7352 389.2,837.2602 L389.2,838.5102 Q389.2,839.0352 388.975,839.2602 Q388.75,839.4852 388.4,839.4852 Q388.0875,839.4852 387.8875,839.3477 Q387.6875,839.2102 387.6,838.8477 Q387.5625,838.5977 387.425,838.4602 Q387.175,838.1977 386.725,838.0477 Q386.275,837.8852 385.825,837.8852 Q385.2625,837.8852 384.7875,838.1102 Q384.325,838.3352 383.9625,838.8352 Q383.6,839.3352 383.6,840.0227 L383.6,840.7602 Q383.6,841.5852 384.275,842.1352 Q384.95,842.6852 386.15,842.6852 Q386.8625,842.6852 387.3625,842.5227 Q387.65,842.4352 387.975,842.1477 Q388.1875,841.9852 388.3,841.9352 Q388.4125,841.8852 388.55,841.8852 Q388.8125,841.8852 389,842.0977 Q389.2,842.2977 389.2,842.5852 Q389.2,842.8602 388.925,843.1852 Q388.525,843.6602 387.8875,843.9227 Q387.05,844.2852 386.025,844.2852 Q384.825,844.2852 383.8625,843.8102 Q383.0875,843.4352 382.5375,842.6227 Q382,841.8102 382,840.8477 L382,839.9727 Q382,838.9727 382.475,838.0977 Q382.9625,837.2227 383.8,836.7602 Q384.65,836.2852 385.6,836.2852 Q386.175,836.2852 386.675,836.4852 Q387.175,836.6852 387.6,837.0852 Z " fill="#000000"/><text fill="#000000" font-family="sans-serif" font-size="9.6" lengthAdjust="spacing" textLength="56" x="397.2" y="843.8133">ShipPosition</text><line style="stroke:#A80036;stroke-width:1.2000000000000002;" x1="374.8" x2="454.8" y1="852.6852" y2="852.6852"/><text fill="#000000" font-family="sans-serif" font-size="8.8" lengthAdjust="spacing" textLength="57.6" x="378.8" y="865.0203">-baseDateTime</text><text fill="#000000" font-family="sans-serif" font-size="8.8" lengthAdjust="spacing" textLength="30.4" x="378.8" y="876.0891">-latitude</text><text fill="#000000" font-family="sans-serif" font-size="8.8" lengthAdjust="spacing" textLength="37.6" x="378.8" y="887.1578">-longitude</text><text fill="#000000" font-family="sans-serif" font-size="8.8" lengthAdjust="spacing" textLength="17.6" x="378.8" y="898.2266">-sog</text><text fill="#000000" font-family="sans-serif" font-size="8.8" lengthAdjust="spacing" textLength="17.6" x="378.8" y="909.2953">-cog</text><text fill="#000000" font-family="sans-serif" font-size="8.8" lengthAdjust="spacing" textLength="33.6" x="378.8" y="920.3641">-heading</text><text fill="#000000" font-family="sans-serif" font-size="8.8" lengthAdjust="spacing" textLength="32.8" x="378.8" y="931.4328">-position</text><text fill="#000000" font-family="sans-serif" font-size="8.8" lengthAdjust="spacing" textLength="47.2" x="378.8" y="942.5016">-transceiver</text><!--MD5=[a0bfe97ac0a38e6e74cc1c7c7b744b71]
class Port--><rect codeLine="86" fill="#FEFECE" filter="url(#fgjsznspqqo22)" height="54.1375" id="Port" style="stroke:#A80036;stroke-width:1.2000000000000002;" width="60.8" x="1035.2" y="457.0852"/><ellipse cx="1055.12" cy="469.8852" fill="#ADD1B2" rx="8.8" ry="8.8" style="stroke:#A80036;stroke-width:0.8000000000000002;"/><path d="M1056.72,467.0852 Q1056.8825,466.6852 1057.07,466.4852 Q1057.2575,466.2852 1057.47,466.2852 Q1057.845,466.2852 1058.0825,466.5102 Q1058.32,466.7352 1058.32,467.2602 L1058.32,468.5102 Q1058.32,469.0352 1058.095,469.2602 Q1057.87,469.4852 1057.52,469.4852 Q1057.2075,469.4852 1057.0075,469.3477 Q1056.8075,469.2102 1056.72,468.8477 Q1056.6825,468.5977 1056.545,468.4602 Q1056.295,468.1977 1055.845,468.0477 Q1055.395,467.8852 1054.945,467.8852 Q1054.3825,467.8852 1053.9075,468.1102 Q1053.445,468.3352 1053.0825,468.8352 Q1052.72,469.3352 1052.72,470.0227 L1052.72,470.7602 Q1052.72,471.5852 1053.395,472.1352 Q1054.07,472.6852 1055.27,472.6852 Q1055.9825,472.6852 1056.4825,472.5227 Q1056.77,472.4352 1057.095,472.1477 Q1057.3075,471.9852 1057.42,471.9352 Q1057.5325,471.8852 1057.67,471.8852 Q1057.9325,471.8852 1058.12,472.0977 Q1058.32,472.2977 1058.32,472.5852 Q1058.32,472.8602 1058.045,473.1852 Q1057.645,473.6602 1057.0075,473.9227 Q1056.17,474.2852 1055.145,474.2852 Q1053.945,474.2852 1052.9825,473.8102 Q1052.2075,473.4352 1051.6575,472.6227 Q1051.12,471.8102 1051.12,470.8477 L1051.12,469.9727 Q1051.12,468.9727 1051.595,468.0977 Q1052.0825,467.2227 1052.92,466.7602 Q1053.77,466.2852 1054.72,466.2852 Q1055.295,466.2852 1055.795,466.4852 Q1056.295,466.6852 1056.72,467.0852 Z " fill="#000000"/><text fill="#000000" font-family="sans-serif" font-size="9.6" lengthAdjust="spacing" textLength="17.6" x="1068.08" y="473.8133">Port</text><line style="stroke:#A80036;stroke-width:1.2000000000000002;" x1="1036" x2="1095.2" y1="482.6852" y2="482.6852"/><text fill="#000000" font-family="sans-serif" font-size="8.8" lengthAdjust="spacing" textLength="51.2" x="1040" y="495.0203">-identification</text><text fill="#000000" font-family="sans-serif" font-size="8.8" lengthAdjust="spacing" textLength="24" x="1040" y="506.0891">-name</text><!--MD5=[c5149b4909ffd2688ff51a939867f774]
class Warehouse--><rect codeLine="91" fill="#FEFECE" filter="url(#fgjsznspqqo22)" height="54.1375" id="Warehouse" style="stroke:#A80036;stroke-width:1.2000000000000002;" width="76.8" x="1027.2" y="65.8852"/><ellipse cx="1039.2" cy="78.6852" fill="#ADD1B2" rx="8.8" ry="8.8" style="stroke:#A80036;stroke-width:0.8000000000000002;"/><path d="M1040.8,75.8852 Q1040.9625,75.4852 1041.15,75.2852 Q1041.3375,75.0852 1041.55,75.0852 Q1041.925,75.0852 1042.1625,75.3102 Q1042.4,75.5352 1042.4,76.0602 L1042.4,77.3102 Q1042.4,77.8352 1042.175,78.0602 Q1041.95,78.2852 1041.6,78.2852 Q1041.2875,78.2852 1041.0875,78.1477 Q1040.8875,78.0102 1040.8,77.6477 Q1040.7625,77.3977 1040.625,77.2602 Q1040.375,76.9977 1039.925,76.8477 Q1039.475,76.6852 1039.025,76.6852 Q1038.4625,76.6852 1037.9875,76.9102 Q1037.525,77.1352 1037.1625,77.6352 Q1036.8,78.1352 1036.8,78.8227 L1036.8,79.5602 Q1036.8,80.3852 1037.475,80.9352 Q1038.15,81.4852 1039.35,81.4852 Q1040.0625,81.4852 1040.5625,81.3227 Q1040.85,81.2352 1041.175,80.9477 Q1041.3875,80.7852 1041.5,80.7352 Q1041.6125,80.6852 1041.75,80.6852 Q1042.0125,80.6852 1042.2,80.8977 Q1042.4,81.0977 1042.4,81.3852 Q1042.4,81.6602 1042.125,81.9852 Q1041.725,82.4602 1041.0875,82.7227 Q1040.25,83.0852 1039.225,83.0852 Q1038.025,83.0852 1037.0625,82.6102 Q1036.2875,82.2352 1035.7375,81.4227 Q1035.2,80.6102 1035.2,79.6477 L1035.2,78.7727 Q1035.2,77.7727 1035.675,76.8977 Q1036.1625,76.0227 1037,75.5602 Q1037.85,75.0852 1038.8,75.0852 Q1039.375,75.0852 1039.875,75.2852 Q1040.375,75.4852 1040.8,75.8852 Z " fill="#000000"/><text fill="#000000" font-family="sans-serif" font-size="9.6" lengthAdjust="spacing" textLength="51.2" x="1050.4" y="82.6133">Warehouse</text><line style="stroke:#A80036;stroke-width:1.2000000000000002;" x1="1028" x2="1103.2" y1="91.4852" y2="91.4852"/><text fill="#000000" font-family="sans-serif" font-size="8.8" lengthAdjust="spacing" textLength="51.2" x="1032" y="103.8203">-identification</text><text fill="#000000" font-family="sans-serif" font-size="8.8" lengthAdjust="spacing" textLength="24" x="1032" y="114.8891">-name</text><!--MD5=[deb4e1f6eb1e3c1256fdb830f96abfbb]
class Country--><rect codeLine="96" fill="#FEFECE" filter="url(#fgjsznspqqo22)" height="54.1375" id="Country" style="stroke:#A80036;stroke-width:1.2000000000000002;" width="87.2" x="1409.6" y="231.4852"/><ellipse cx="1434.2" cy="244.2852" fill="#ADD1B2" rx="8.8" ry="8.8" style="stroke:#A80036;stroke-width:0.8000000000000002;"/><path d="M1435.8,241.4852 Q1435.9625,241.0852 1436.15,240.8852 Q1436.3375,240.6852 1436.55,240.6852 Q1436.925,240.6852 1437.1625,240.9102 Q1437.4,241.1352 1437.4,241.6602 L1437.4,242.9102 Q1437.4,243.4352 1437.175,243.6602 Q1436.95,243.8852 1436.6,243.8852 Q1436.2875,243.8852 1436.0875,243.7477 Q1435.8875,243.6102 1435.8,243.2477 Q1435.7625,242.9977 1435.625,242.8602 Q1435.375,242.5977 1434.925,242.4477 Q1434.475,242.2852 1434.025,242.2852 Q1433.4625,242.2852 1432.9875,242.5102 Q1432.525,242.7352 1432.1625,243.2352 Q1431.8,243.7352 1431.8,244.4227 L1431.8,245.1602 Q1431.8,245.9852 1432.475,246.5352 Q1433.15,247.0852 1434.35,247.0852 Q1435.0625,247.0852 1435.5625,246.9227 Q1435.85,246.8352 1436.175,246.5477 Q1436.3875,246.3852 1436.5,246.3352 Q1436.6125,246.2852 1436.75,246.2852 Q1437.0125,246.2852 1437.2,246.4977 Q1437.4,246.6977 1437.4,246.9852 Q1437.4,247.2602 1437.125,247.5852 Q1436.725,248.0602 1436.0875,248.3227 Q1435.25,248.6852 1434.225,248.6852 Q1433.025,248.6852 1432.0625,248.2102 Q1431.2875,247.8352 1430.7375,247.0227 Q1430.2,246.2102 1430.2,245.2477 L1430.2,244.3727 Q1430.2,243.3727 1430.675,242.4977 Q1431.1625,241.6227 1432,241.1602 Q1432.85,240.6852 1433.8,240.6852 Q1434.375,240.6852 1434.875,240.8852 Q1435.375,241.0852 1435.8,241.4852 Z " fill="#000000"/><text fill="#000000" font-family="sans-serif" font-size="9.6" lengthAdjust="spacing" textLength="33.6" x="1448.2" y="248.2133">Country</text><line style="stroke:#A80036;stroke-width:1.2000000000000002;" x1="1410.4" x2="1496" y1="257.0852" y2="257.0852"/><text fill="#000000" font-family="sans-serif" font-size="8.8" lengthAdjust="spacing" textLength="77.6" x="1414.4" y="269.4203">-countryDesignation</text><text fill="#000000" font-family="sans-serif" font-size="8.8" lengthAdjust="spacing" textLength="38.4" x="1414.4" y="280.4891">-continent</text><!--MD5=[9febfb2ff9adfe183e01ff702b9c1c02]
class PlaceLocation--><rect codeLine="101" fill="#FEFECE" filter="url(#fgjsznspqqo22)" height="54.1375" id="PlaceLocation" style="stroke:#A80036;stroke-width:1.2000000000000002;" width="88" x="1244.8" y="231.4852"/><ellipse cx="1256.8" cy="244.2852" fill="#ADD1B2" rx="8.8" ry="8.8" style="stroke:#A80036;stroke-width:0.8000000000000002;"/><path d="M1258.4,241.4852 Q1258.5625,241.0852 1258.75,240.8852 Q1258.9375,240.6852 1259.15,240.6852 Q1259.525,240.6852 1259.7625,240.9102 Q1260,241.1352 1260,241.6602 L1260,242.9102 Q1260,243.4352 1259.775,243.6602 Q1259.55,243.8852 1259.2,243.8852 Q1258.8875,243.8852 1258.6875,243.7477 Q1258.4875,243.6102 1258.4,243.2477 Q1258.3625,242.9977 1258.225,242.8602 Q1257.975,242.5977 1257.525,242.4477 Q1257.075,242.2852 1256.625,242.2852 Q1256.0625,242.2852 1255.5875,242.5102 Q1255.125,242.7352 1254.7625,243.2352 Q1254.4,243.7352 1254.4,244.4227 L1254.4,245.1602 Q1254.4,245.9852 1255.075,246.5352 Q1255.75,247.0852 1256.95,247.0852 Q1257.6625,247.0852 1258.1625,246.9227 Q1258.45,246.8352 1258.775,246.5477 Q1258.9875,246.3852 1259.1,246.3352 Q1259.2125,246.2852 1259.35,246.2852 Q1259.6125,246.2852 1259.8,246.4977 Q1260,246.6977 1260,246.9852 Q1260,247.2602 1259.725,247.5852 Q1259.325,248.0602 1258.6875,248.3227 Q1257.85,248.6852 1256.825,248.6852 Q1255.625,248.6852 1254.6625,248.2102 Q1253.8875,247.8352 1253.3375,247.0227 Q1252.8,246.2102 1252.8,245.2477 L1252.8,244.3727 Q1252.8,243.3727 1253.275,242.4977 Q1253.7625,241.6227 1254.6,241.1602 Q1255.45,240.6852 1256.4,240.6852 Q1256.975,240.6852 1257.475,240.8852 Q1257.975,241.0852 1258.4,241.4852 Z " fill="#000000"/><text fill="#000000" font-family="sans-serif" font-size="9.6" lengthAdjust="spacing" textLength="62.4" x="1268" y="248.2133">PlaceLocation</text><line style="stroke:#A80036;stroke-width:1.2000000000000002;" x1="1245.6" x2="1332" y1="257.0852" y2="257.0852"/><text fill="#000000" font-family="sans-serif" font-size="8.8" lengthAdjust="spacing" textLength="63.2" x="1249.6" y="269.4203">-locationLatitude</text><text fill="#000000" font-family="sans-serif" font-size="8.8" lengthAdjust="spacing" textLength="70.4" x="1249.6" y="280.4891">-locationLongitude</text><!--MD5=[236b5af2ac259ce183175d6cd13df6a1]
class EnergyPower--><rect codeLine="106" fill="#FEFECE" filter="url(#fgjsznspqqo22)" height="54.1375" id="EnergyPower" style="stroke:#A80036;stroke-width:1.2000000000000002;" width="100" x="364.8" y="563.4852"/><ellipse cx="384" cy="576.2852" fill="#ADD1B2" rx="8.8" ry="8.8" style="stroke:#A80036;stroke-width:0.8000000000000002;"/><path d="M385.6,573.4852 Q385.7625,573.0852 385.95,572.8852 Q386.1375,572.6852 386.35,572.6852 Q386.725,572.6852 386.9625,572.9102 Q387.2,573.1352 387.2,573.6602 L387.2,574.9102 Q387.2,575.4352 386.975,575.6602 Q386.75,575.8852 386.4,575.8852 Q386.0875,575.8852 385.8875,575.7477 Q385.6875,575.6102 385.6,575.2477 Q385.5625,574.9977 385.425,574.8602 Q385.175,574.5977 384.725,574.4477 Q384.275,574.2852 383.825,574.2852 Q383.2625,574.2852 382.7875,574.5102 Q382.325,574.7352 381.9625,575.2352 Q381.6,575.7352 381.6,576.4227 L381.6,577.1602 Q381.6,577.9852 382.275,578.5352 Q382.95,579.0852 384.15,579.0852 Q384.8625,579.0852 385.3625,578.9227 Q385.65,578.8352 385.975,578.5477 Q386.1875,578.3852 386.3,578.3352 Q386.4125,578.2852 386.55,578.2852 Q386.8125,578.2852 387,578.4977 Q387.2,578.6977 387.2,578.9852 Q387.2,579.2602 386.925,579.5852 Q386.525,580.0602 385.8875,580.3227 Q385.05,580.6852 384.025,580.6852 Q382.825,580.6852 381.8625,580.2102 Q381.0875,579.8352 380.5375,579.0227 Q380,578.2102 380,577.2477 L380,576.3727 Q380,575.3727 380.475,574.4977 Q380.9625,573.6227 381.8,573.1602 Q382.65,572.6852 383.6,572.6852 Q384.175,572.6852 384.675,572.8852 Q385.175,573.0852 385.6,573.4852 Z " fill="#000000"/><text fill="#000000" font-family="sans-serif" font-size="9.6" lengthAdjust="spacing" textLength="58.4" x="396.8" y="580.2133">EnergyPower</text><line style="stroke:#A80036;stroke-width:1.2000000000000002;" x1="365.6" x2="464" y1="589.0852" y2="589.0852"/><text fill="#000000" font-family="sans-serif" font-size="8.8" lengthAdjust="spacing" textLength="90.4" x="369.6" y="601.4203">-numEnergyGenerators</text><text fill="#000000" font-family="sans-serif" font-size="8.8" lengthAdjust="spacing" textLength="71.2" x="369.6" y="612.4891">-generatorsPower</text><!--MD5=[f2ba7f6ab60af8dd0d3e354f91729b14]
class Truck--><rect codeLine="111" fill="#FEFECE" filter="url(#fgjsznspqqo22)" height="54.1375" id="Truck" style="stroke:#A80036;stroke-width:1.2000000000000002;" width="49.6" x="228.4" y="400.2852"/><ellipse cx="240.4" cy="413.0852" fill="#ADD1B2" rx="8.8" ry="8.8" style="stroke:#A80036;stroke-width:0.8000000000000002;"/><path d="M242,410.2852 Q242.1625,409.8852 242.35,409.6852 Q242.5375,409.4852 242.75,409.4852 Q243.125,409.4852 243.3625,409.7102 Q243.6,409.9352 243.6,410.4602 L243.6,411.7102 Q243.6,412.2352 243.375,412.4602 Q243.15,412.6852 242.8,412.6852 Q242.4875,412.6852 242.2875,412.5477 Q242.0875,412.4102 242,412.0477 Q241.9625,411.7977 241.825,411.6602 Q241.575,411.3977 241.125,411.2477 Q240.675,411.0852 240.225,411.0852 Q239.6625,411.0852 239.1875,411.3102 Q238.725,411.5352 238.3625,412.0352 Q238,412.5352 238,413.2227 L238,413.9602 Q238,414.7852 238.675,415.3352 Q239.35,415.8852 240.55,415.8852 Q241.2625,415.8852 241.7625,415.7227 Q242.05,415.6352 242.375,415.3477 Q242.5875,415.1852 242.7,415.1352 Q242.8125,415.0852 242.95,415.0852 Q243.2125,415.0852 243.4,415.2977 Q243.6,415.4977 243.6,415.7852 Q243.6,416.0602 243.325,416.3852 Q242.925,416.8602 242.2875,417.1227 Q241.45,417.4852 240.425,417.4852 Q239.225,417.4852 238.2625,417.0102 Q237.4875,416.6352 236.9375,415.8227 Q236.4,415.0102 236.4,414.0477 L236.4,413.1727 Q236.4,412.1727 236.875,411.2977 Q237.3625,410.4227 238.2,409.9602 Q239.05,409.4852 240,409.4852 Q240.575,409.4852 241.075,409.6852 Q241.575,409.8852 242,410.2852 Z " fill="#000000"/><text fill="#000000" font-family="sans-serif" font-size="9.6" lengthAdjust="spacing" textLength="24" x="251.6" y="417.0133">Truck</text><line style="stroke:#A80036;stroke-width:1.2000000000000002;" x1="229.2" x2="277.2" y1="425.8852" y2="425.8852"/><text fill="#000000" font-family="sans-serif" font-size="8.8" lengthAdjust="spacing" textLength="28.8" x="233.2" y="438.2203">-truckId</text><text fill="#000000" font-family="sans-serif" font-size="8.8" lengthAdjust="spacing" textLength="24" x="233.2" y="449.2891">-name</text><!--MD5=[fc92a9f5bb5fae84dd7fa4034e6b4444]
class Route--><rect codeLine="116" fill="#FEFECE" filter="url(#fgjsznspqqo22)" height="43.0688" id="Route" style="stroke:#A80036;stroke-width:1.2000000000000002;" width="52" x="388.8" y="421.0852"/><ellipse cx="400.8" cy="433.8852" fill="#ADD1B2" rx="8.8" ry="8.8" style="stroke:#A80036;stroke-width:0.8000000000000002;"/><path d="M402.4,431.0852 Q402.5625,430.6852 402.75,430.4852 Q402.9375,430.2852 403.15,430.2852 Q403.525,430.2852 403.7625,430.5102 Q404,430.7352 404,431.2602 L404,432.5102 Q404,433.0352 403.775,433.2602 Q403.55,433.4852 403.2,433.4852 Q402.8875,433.4852 402.6875,433.3477 Q402.4875,433.2102 402.4,432.8477 Q402.3625,432.5977 402.225,432.4602 Q401.975,432.1977 401.525,432.0477 Q401.075,431.8852 400.625,431.8852 Q400.0625,431.8852 399.5875,432.1102 Q399.125,432.3352 398.7625,432.8352 Q398.4,433.3352 398.4,434.0227 L398.4,434.7602 Q398.4,435.5852 399.075,436.1352 Q399.75,436.6852 400.95,436.6852 Q401.6625,436.6852 402.1625,436.5227 Q402.45,436.4352 402.775,436.1477 Q402.9875,435.9852 403.1,435.9352 Q403.2125,435.8852 403.35,435.8852 Q403.6125,435.8852 403.8,436.0977 Q404,436.2977 404,436.5852 Q404,436.8602 403.725,437.1852 Q403.325,437.6602 402.6875,437.9227 Q401.85,438.2852 400.825,438.2852 Q399.625,438.2852 398.6625,437.8102 Q397.8875,437.4352 397.3375,436.6227 Q396.8,435.8102 396.8,434.8477 L396.8,433.9727 Q396.8,432.9727 397.275,432.0977 Q397.7625,431.2227 398.6,430.7602 Q399.45,430.2852 400.4,430.2852 Q400.975,430.2852 401.475,430.4852 Q401.975,430.6852 402.4,431.0852 Z " fill="#000000"/><text fill="#000000" font-family="sans-serif" font-size="9.6" lengthAdjust="spacing" textLength="26.4" x="412" y="437.8133">Route</text><line style="stroke:#A80036;stroke-width:1.2000000000000002;" x1="389.6" x2="440" y1="446.6852" y2="446.6852"/><text fill="#000000" font-family="sans-serif" font-size="8.8" lengthAdjust="spacing" textLength="34.4" x="393.6" y="459.0203">-route_id</text><!--MD5=[f73a60b75ec7157bd3f57c9b4918fddb]
class TruckTrip--><rect codeLine="120" fill="#FEFECE" filter="url(#fgjsznspqqo22)" height="142.6875" id="TruckTrip" style="stroke:#A80036;stroke-width:1.2000000000000002;" width="96" x="573.6" y="323.4852"/><ellipse cx="598.92" cy="336.2852" fill="#ADD1B2" rx="8.8" ry="8.8" style="stroke:#A80036;stroke-width:0.8000000000000002;"/><path d="M600.52,333.4852 Q600.6825,333.0852 600.87,332.8852 Q601.0575,332.6852 601.27,332.6852 Q601.645,332.6852 601.8825,332.9102 Q602.12,333.1352 602.12,333.6602 L602.12,334.9102 Q602.12,335.4352 601.895,335.6602 Q601.67,335.8852 601.32,335.8852 Q601.0075,335.8852 600.8075,335.7477 Q600.6075,335.6102 600.52,335.2477 Q600.4825,334.9977 600.345,334.8602 Q600.095,334.5977 599.645,334.4477 Q599.195,334.2852 598.745,334.2852 Q598.1825,334.2852 597.7075,334.5102 Q597.245,334.7352 596.8825,335.2352 Q596.52,335.7352 596.52,336.4227 L596.52,337.1602 Q596.52,337.9852 597.195,338.5352 Q597.87,339.0852 599.07,339.0852 Q599.7825,339.0852 600.2825,338.9227 Q600.57,338.8352 600.895,338.5477 Q601.1075,338.3852 601.22,338.3352 Q601.3325,338.2852 601.47,338.2852 Q601.7325,338.2852 601.92,338.4977 Q602.12,338.6977 602.12,338.9852 Q602.12,339.2602 601.845,339.5852 Q601.445,340.0602 600.8075,340.3227 Q599.97,340.6852 598.945,340.6852 Q597.745,340.6852 596.7825,340.2102 Q596.0075,339.8352 595.4575,339.0227 Q594.92,338.2102 594.92,337.2477 L594.92,336.3727 Q594.92,335.3727 595.395,334.4977 Q595.8825,333.6227 596.72,333.1602 Q597.57,332.6852 598.52,332.6852 Q599.095,332.6852 599.595,332.8852 Q600.095,333.0852 600.52,333.4852 Z " fill="#000000"/><text fill="#000000" font-family="sans-serif" font-size="9.6" lengthAdjust="spacing" textLength="40.8" x="613.08" y="340.2133">TruckTrip</text><line style="stroke:#A80036;stroke-width:1.2000000000000002;" x1="574.4" x2="668.8" y1="349.0852" y2="349.0852"/><text fill="#000000" font-family="sans-serif" font-size="8.8" lengthAdjust="spacing" textLength="34.4" x="578.4" y="361.4203">-route_id</text><text fill="#000000" font-family="sans-serif" font-size="8.8" lengthAdjust="spacing" textLength="33.6" x="578.4" y="372.4891">-truck_Id</text><text fill="#000000" font-family="sans-serif" font-size="8.8" lengthAdjust="spacing" textLength="86.4" x="578.4" y="383.5578">-departure_location_id</text><text fill="#000000" font-family="sans-serif" font-size="8.8" lengthAdjust="spacing" textLength="72.8" x="578.4" y="394.6266">-arrival_location_id</text><text fill="#000000" font-family="sans-serif" font-size="8.8" lengthAdjust="spacing" textLength="68.8" x="578.4" y="405.6953">-loading_cargo_id</text><text fill="#000000" font-family="sans-serif" font-size="8.8" lengthAdjust="spacing" textLength="78.4" x="578.4" y="416.7641">-unloading_cargo_id</text><text fill="#000000" font-family="sans-serif" font-size="8.8" lengthAdjust="spacing" textLength="79.2" x="578.4" y="427.8328">-est_departure_date</text><text fill="#000000" font-family="sans-serif" font-size="8.8" lengthAdjust="spacing" textLength="65.6" x="578.4" y="438.9016">-est_arrival_date</text><text fill="#000000" font-family="sans-serif" font-size="8.8" lengthAdjust="spacing" textLength="81.6" x="578.4" y="449.9703">-real_departure_date</text><text fill="#000000" font-family="sans-serif" font-size="8.8" lengthAdjust="spacing" textLength="68" x="578.4" y="461.0391">-real_arrival_date</text><!--MD5=[f8e092794d52bf9a252466252ae7bd1c]
class System--><rect codeLine="136" fill="#FEFECE" filter="url(#fgjsznspqqo22)" height="25.6" id="System" style="stroke:#A80036;stroke-width:1.2000000000000002;" width="58.4" x="385.6" y="197.8852"/><ellipse cx="397.6" cy="210.6852" fill="#ADD1B2" rx="8.8" ry="8.8" style="stroke:#A80036;stroke-width:0.8000000000000002;"/><path d="M399.2,207.8852 Q399.3625,207.4852 399.55,207.2852 Q399.7375,207.0852 399.95,207.0852 Q400.325,207.0852 400.5625,207.3102 Q400.8,207.5352 400.8,208.0602 L400.8,209.3102 Q400.8,209.8352 400.575,210.0602 Q400.35,210.2852 400,210.2852 Q399.6875,210.2852 399.4875,210.1477 Q399.2875,210.0102 399.2,209.6477 Q399.1625,209.3977 399.025,209.2602 Q398.775,208.9977 398.325,208.8477 Q397.875,208.6852 397.425,208.6852 Q396.8625,208.6852 396.3875,208.9102 Q395.925,209.1352 395.5625,209.6352 Q395.2,210.1352 395.2,210.8227 L395.2,211.5602 Q395.2,212.3852 395.875,212.9352 Q396.55,213.4852 397.75,213.4852 Q398.4625,213.4852 398.9625,213.3227 Q399.25,213.2352 399.575,212.9477 Q399.7875,212.7852 399.9,212.7352 Q400.0125,212.6852 400.15,212.6852 Q400.4125,212.6852 400.6,212.8977 Q400.8,213.0977 400.8,213.3852 Q400.8,213.6602 400.525,213.9852 Q400.125,214.4602 399.4875,214.7227 Q398.65,215.0852 397.625,215.0852 Q396.425,215.0852 395.4625,214.6102 Q394.6875,214.2352 394.1375,213.4227 Q393.6,212.6102 393.6,211.6477 L393.6,210.7727 Q393.6,209.7727 394.075,208.8977 Q394.5625,208.0227 395.4,207.5602 Q396.25,207.0852 397.2,207.0852 Q397.775,207.0852 398.275,207.2852 Q398.775,207.4852 399.2,207.8852 Z " fill="#000000"/><text fill="#000000" font-family="sans-serif" font-size="9.6" lengthAdjust="spacing" textLength="32.8" x="408.8" y="214.6133">System</text><!--MD5=[cd383c058592010a1996452fddaad790]
class ShipTrip--><rect codeLine="139" fill="#FEFECE" filter="url(#fgjsznspqqo22)" height="131.6188" id="ShipTrip" style="stroke:#A80036;stroke-width:1.2000000000000002;" width="96" x="573.6" y="494.2852"/><ellipse cx="600.72" cy="507.0852" fill="#ADD1B2" rx="8.8" ry="8.8" style="stroke:#A80036;stroke-width:0.8000000000000002;"/><path d="M602.32,504.2852 Q602.4825,503.8852 602.67,503.6852 Q602.8575,503.4852 603.07,503.4852 Q603.445,503.4852 603.6825,503.7102 Q603.92,503.9352 603.92,504.4602 L603.92,505.7102 Q603.92,506.2352 603.695,506.4602 Q603.47,506.6852 603.12,506.6852 Q602.8075,506.6852 602.6075,506.5477 Q602.4075,506.4102 602.32,506.0477 Q602.2825,505.7977 602.145,505.6602 Q601.895,505.3977 601.445,505.2477 Q600.995,505.0852 600.545,505.0852 Q599.9825,505.0852 599.5075,505.3102 Q599.045,505.5352 598.6825,506.0352 Q598.32,506.5352 598.32,507.2227 L598.32,507.9602 Q598.32,508.7852 598.995,509.3352 Q599.67,509.8852 600.87,509.8852 Q601.5825,509.8852 602.0825,509.7227 Q602.37,509.6352 602.695,509.3477 Q602.9075,509.1852 603.02,509.1352 Q603.1325,509.0852 603.27,509.0852 Q603.5325,509.0852 603.72,509.2977 Q603.92,509.4977 603.92,509.7852 Q603.92,510.0602 603.645,510.3852 Q603.245,510.8602 602.6075,511.1227 Q601.77,511.4852 600.745,511.4852 Q599.545,511.4852 598.5825,511.0102 Q597.8075,510.6352 597.2575,509.8227 Q596.72,509.0102 596.72,508.0477 L596.72,507.1727 Q596.72,506.1727 597.195,505.2977 Q597.6825,504.4227 598.52,503.9602 Q599.37,503.4852 600.32,503.4852 Q600.895,503.4852 601.395,503.6852 Q601.895,503.8852 602.32,504.2852 Z " fill="#000000"/><text fill="#000000" font-family="sans-serif" font-size="9.6" lengthAdjust="spacing" textLength="36.8" x="615.28" y="511.0133">ShipTrip</text><line style="stroke:#A80036;stroke-width:1.2000000000000002;" x1="574.4" x2="668.8" y1="519.8852" y2="519.8852"/><text fill="#000000" font-family="sans-serif" font-size="8.8" lengthAdjust="spacing" textLength="38.4" x="578.4" y="532.2203">-shipMmsi</text><text fill="#000000" font-family="sans-serif" font-size="8.8" lengthAdjust="spacing" textLength="86.4" x="578.4" y="543.2891">-departure_location_id</text><text fill="#000000" font-family="sans-serif" font-size="8.8" lengthAdjust="spacing" textLength="72.8" x="578.4" y="554.3578">-arrival_location_id</text><text fill="#000000" font-family="sans-serif" font-size="8.8" lengthAdjust="spacing" textLength="68.8" x="578.4" y="565.4266">-loading_cargo_id</text><text fill="#000000" font-family="sans-serif" font-size="8.8" lengthAdjust="spacing" textLength="78.4" x="578.4" y="576.4953">-unloading_cargo_id</text><text fill="#000000" font-family="sans-serif" font-size="8.8" lengthAdjust="spacing" textLength="79.2" x="578.4" y="587.5641">-est_departure_date</text><text fill="#000000" font-family="sans-serif" font-size="8.8" lengthAdjust="spacing" textLength="65.6" x="578.4" y="598.6328">-est_arrival_date</text><text fill="#000000" font-family="sans-serif" font-size="8.8" lengthAdjust="spacing" textLength="81.6" x="578.4" y="609.7016">-real_departure_date</text><text fill="#000000" font-family="sans-serif" font-size="8.8" lengthAdjust="spacing" textLength="68" x="578.4" y="620.7703">-real_arrival_date</text><!--MD5=[3fd616f346a44cd59a91eb10b19e157c]
class User--><rect fill="#FEFECE" filter="url(#fgjsznspqqo22)" height="25.6" id="User" style="stroke:#A80036;stroke-width:1.2000000000000002;" width="47.2" x="229.6" y="346.6852"/><ellipse cx="241.6" cy="359.4852" fill="#ADD1B2" rx="8.8" ry="8.8" style="stroke:#A80036;stroke-width:0.8000000000000002;"/><path d="M243.2,356.6852 Q243.3625,356.2852 243.55,356.0852 Q243.7375,355.8852 243.95,355.8852 Q244.325,355.8852 244.5625,356.1102 Q244.8,356.3352 244.8,356.8602 L244.8,358.1102 Q244.8,358.6352 244.575,358.8602 Q244.35,359.0852 244,359.0852 Q243.6875,359.0852 243.4875,358.9477 Q243.2875,358.8102 243.2,358.4477 Q243.1625,358.1977 243.025,358.0602 Q242.775,357.7977 242.325,357.6477 Q241.875,357.4852 241.425,357.4852 Q240.8625,357.4852 240.3875,357.7102 Q239.925,357.9352 239.5625,358.4352 Q239.2,358.9352 239.2,359.6227 L239.2,360.3602 Q239.2,361.1852 239.875,361.7352 Q240.55,362.2852 241.75,362.2852 Q242.4625,362.2852 242.9625,362.1227 Q243.25,362.0352 243.575,361.7477 Q243.7875,361.5852 243.9,361.5352 Q244.0125,361.4852 244.15,361.4852 Q244.4125,361.4852 244.6,361.6977 Q244.8,361.8977 244.8,362.1852 Q244.8,362.4602 244.525,362.7852 Q244.125,363.2602 243.4875,363.5227 Q242.65,363.8852 241.625,363.8852 Q240.425,363.8852 239.4625,363.4102 Q238.6875,363.0352 238.1375,362.2227 Q237.6,361.4102 237.6,360.4477 L237.6,359.5727 Q237.6,358.5727 238.075,357.6977 Q238.5625,356.8227 239.4,356.3602 Q240.25,355.8852 241.2,355.8852 Q241.775,355.8852 242.275,356.0852 Q242.775,356.2852 243.2,356.6852 Z " fill="#000000"/><text fill="#000000" font-family="sans-serif" font-size="9.6" lengthAdjust="spacing" textLength="21.6" x="252.8" y="363.4133">User</text><!--MD5=[a2a194d3aa0c5b34ec916a16bebf9a1a]
link Company to System--><path codeLine="153" d="M97.24,212.1332 C165.664,211.8212 321.216,211.1092 385.44,210.8132 " fill="none" id="Company-System" style="stroke:#A80036;stroke-width:0.8000000000000002;"/><polygon fill="#000000" points="246.8,204.4075,239.5532,202.0895,239.5747,206.7917,246.8,204.4075" style="stroke:#000000;stroke-width:0.8000000000000002;"/><text fill="#000000" font-family="sans-serif" font-size="10.4" lengthAdjust="spacing" textLength="16.8" x="250" y="208.6813">has</text><text fill="#000000" font-family="sans-serif" font-size="10.4" lengthAdjust="spacing" textLength="5.6" x="103.5719" y="220.2886">1</text><text fill="#000000" font-family="sans-serif" font-size="10.4" lengthAdjust="spacing" textLength="16" x="363.2523" y="222.7137">1..*</text><!--MD5=[4a0bbcdd6df460060db454e8e2c30a96]
link User to System--><path codeLine="154" d="M264.888,346.4932 C288.192,318.8852 342.552,255.4532 364.8,237.8852 C371.544,232.5652 379.464,227.6852 386.952,223.5732 " fill="none" id="User-System" style="stroke:#A80036;stroke-width:0.8000000000000002;"/><polygon fill="#000000" points="313.2185,252.7875,306.4515,256.2653,309.7881,259.5787,313.2185,252.7875" style="stroke:#000000;stroke-width:0.8000000000000002;"/><text fill="#000000" font-family="sans-serif" font-size="10.4" lengthAdjust="spacing" textLength="22.4" x="317.6" y="259.8813">uses</text><text fill="#000000" font-family="sans-serif" font-size="10.4" lengthAdjust="spacing" textLength="16" x="250.1097" y="338.1122">1..*</text><text fill="#000000" font-family="sans-serif" font-size="10.4" lengthAdjust="spacing" textLength="5.6" x="373.4985" y="239.3478">1</text><!--MD5=[d09fe284dff54f56f1e17acf5f33d2d7]
link TrafficManager to User--><path codeLine="156" d="M75.784,577.7652 C104.88,545.7252 179.28,463.0132 200,432.2852 C212.984,413.0372 209.96,404.3732 224,385.8852 C227.664,381.0612 232.264,376.3652 236.688,372.3012 " fill="none" id="TrafficManager-User" style="stroke:#A80036;stroke-width:0.8000000000000002;"/><polygon fill="#000000" points="151.2662,422.0766,144.9537,426.3239,148.6558,429.2232,151.2662,422.0766" style="stroke:#000000;stroke-width:0.8000000000000002;"/><text fill="#000000" font-family="sans-serif" font-size="10.4" lengthAdjust="spacing" textLength="43.2" x="156" y="429.4813">relates to</text><text fill="#000000" font-family="sans-serif" font-size="10.4" lengthAdjust="spacing" textLength="5.6" x="73.5473" y="569.1683">1</text><text fill="#000000" font-family="sans-serif" font-size="10.4" lengthAdjust="spacing" textLength="5.6" x="232.1459" y="389.5091">1</text><!--MD5=[eca22a17460c8f36ce6ba9a4df99eb35]
link WarehouseManager to User--><path codeLine="158" d="M71.056,77.1732 C92.408,115.8452 158.856,233.8772 224,325.0852 C229.224,332.3972 235.544,340.1412 240.896,346.4292 " fill="none" id="WarehouseManager-User" style="stroke:#A80036;stroke-width:0.8000000000000002;"/><polygon fill="#000000" points="150.934,203.009,149.0621,195.6344,145.085,198.1431,150.934,203.009" style="stroke:#000000;stroke-width:0.8000000000000002;"/><text fill="#000000" font-family="sans-serif" font-size="10.4" lengthAdjust="spacing" textLength="43.2" x="156" y="203.8813">relates to</text><text fill="#000000" font-family="sans-serif" font-size="10.4" lengthAdjust="spacing" textLength="5.6" x="67.0676" y="94.1621">1</text><text fill="#000000" font-family="sans-serif" font-size="10.4" lengthAdjust="spacing" textLength="5.6" x="230.2928" y="338.027">1</text><!--MD5=[f6e70140202ab1101eb6b424775e2f43]
link PortManager to User--><path codeLine="160" d="M67.32,804.1972 C78.976,759.4532 118.768,611.2532 144.8,569.8852 C162.888,541.1492 183.896,546.9732 200,517.0852 C228.12,464.9012 195.504,437.8692 224,385.8852 C226.72,380.9252 230.712,376.3812 234.848,372.5092 " fill="none" id="PortManager-User" style="stroke:#A80036;stroke-width:0.8000000000000002;"/><polygon fill="#000000" points="150.2472,506.2967,145.4374,512.192,149.8211,513.8933,150.2472,506.2967" style="stroke:#000000;stroke-width:0.8000000000000002;"/><text fill="#000000" font-family="sans-serif" font-size="10.4" lengthAdjust="spacing" textLength="43.2" x="156" y="514.2813">relates to</text><text fill="#000000" font-family="sans-serif" font-size="10.4" lengthAdjust="spacing" textLength="5.6" x="62.1738" y="795.6113">1</text><text fill="#000000" font-family="sans-serif" font-size="10.4" lengthAdjust="spacing" textLength="5.6" x="222.5058" y="389.5415">1</text><!--MD5=[a93f71c337684849482b0ec5675aa7db]
link CargoManifest to Container--><path codeLine="166" d="M837.176,582.0932 C826.816,605.8852 806.936,643.2852 777.6,663.4852 C741.232,688.5332 689.704,695.7092 656.168,697.5652 " fill="none" id="CargoManifest-Container" style="stroke:#A80036;stroke-width:0.8000000000000002;"/><text fill="#000000" font-family="sans-serif" font-size="10.4" lengthAdjust="spacing" textLength="5.6" x="828.9458" y="599.1049">1</text><text fill="#000000" font-family="sans-serif" font-size="10.4" lengthAdjust="spacing" textLength="16" x="662.4202" y="709.2643">1..*</text><!--MD5=[f0bdc6c669370d32d41c923ef98b5140]
link Container to CargoManifest--><path codeLine="202" d="M656.056,677.1332 C697.584,651.5332 767.872,608.2052 810.192,582.1172 " fill="none" id="Container-CargoManifest" style="stroke:#A80036;stroke-width:0.8000000000000002;"/><polygon fill="#000000" points="701.005,595.1268,693.6115,596.9225,696.079,600.9253,701.005,595.1268" style="stroke:#000000;stroke-width:0.8000000000000002;"/><text fill="#000000" font-family="sans-serif" font-size="10.4" lengthAdjust="spacing" textLength="72" x="704.8" y="601.4813">associated with</text><text fill="#000000" font-family="sans-serif" font-size="10.4" lengthAdjust="spacing" textLength="16" x="662.2917" y="685.8314">1..*</text><text fill="#000000" font-family="sans-serif" font-size="10.4" lengthAdjust="spacing" textLength="16" x="785.0741" y="598.7786">2..*</text><!--MD5=[e7fb3209ec5b0b32ba37b91769d7f861]
link CargoManifest to PositionInVehicle--><path codeLine="167" d="M859.84,582.0292 C896.352,644.8532 1002.12,826.8452 1045.696,901.8132 " fill="none" id="CargoManifest-PositionInVehicle" style="stroke:#A80036;stroke-width:0.8000000000000002;"/><polygon fill="#000000" points="927.61,677.4841,926.0067,670.0465,921.9412,672.4094,927.61,677.4841" style="stroke:#000000;stroke-width:0.8000000000000002;"/><text fill="#000000" font-family="sans-serif" font-size="10.4" lengthAdjust="spacing" textLength="39.2" x="932.8" y="678.2813">contains</text><text fill="#000000" font-family="sans-serif" font-size="10.4" lengthAdjust="spacing" textLength="5.6" x="856.5675" y="599.0269">1</text><text fill="#000000" font-family="sans-serif" font-size="10.4" lengthAdjust="spacing" textLength="16" x="1024.9" y="893.1174">1..*</text><!--MD5=[49c8bb1e2883d5513f9c89ff6f39a0c0]
link Container to PositionInVehicle--><path codeLine="170" d="M656.016,715.8772 C730.12,755.5412 908.448,850.9972 1003.208,901.7172 " fill="none" id="Container-PositionInVehicle" style="stroke:#A80036;stroke-width:0.8000000000000002;"/><polygon fill="#000000" points="839.5266,791.1134,834.2565,785.6258,832.0374,789.7715,839.5266,791.1134" style="stroke:#000000;stroke-width:0.8000000000000002;"/><text fill="#000000" font-family="sans-serif" font-size="10.4" lengthAdjust="spacing" textLength="16.8" x="843.2" y="793.4813">has</text><text fill="#000000" font-family="sans-serif" font-size="10.4" lengthAdjust="spacing" textLength="5.6" x="662.4125" y="730.8774">1</text><text fill="#000000" font-family="sans-serif" font-size="10.4" lengthAdjust="spacing" textLength="5.6" x="991.1907" y="895.8712">1</text><!--MD5=[c324832c0212842eac80843bc02aaded]
link Ship to VesselType--><path codeLine="171" d="M272.784,546.8692 C281.712,528.2532 293.304,506.7972 306.4,489.0852 C319.104,471.9012 328.616,473.0452 340.8,455.4852 C348.504,444.3812 378.904,373.4452 398.016,328.0852 " fill="none" id="Ship-VesselType" style="stroke:#A80036;stroke-width:0.8000000000000002;"/><polygon fill="#000000" points="313.9871,444.9543,308.3519,450.0663,312.4329,452.4023,313.9871,444.9543" style="stroke:#000000;stroke-width:0.8000000000000002;"/><text fill="#000000" font-family="sans-serif" font-size="10.4" lengthAdjust="spacing" textLength="19.2" x="319.2" y="452.6813">is of</text><text fill="#000000" font-family="sans-serif" font-size="10.4" lengthAdjust="spacing" textLength="4" x="271.037" y="538.4401">*</text><text fill="#000000" font-family="sans-serif" font-size="10.4" lengthAdjust="spacing" textLength="5.6" x="389.5396" y="345.4323">1</text><!--MD5=[f56e222e1748568825f030a9b791275e]
link Ship to ShipPosition--><path codeLine="172" d="M254.344,634.5012 C256.784,683.7412 267.128,764.0292 306.4,819.4852 C323.064,843.0212 350.704,860.2292 373.792,871.4532 " fill="none" id="Ship-ShipPosition" style="stroke:#A80036;stroke-width:0.8000000000000002;"/><polygon fill="#000000" points="315.0006,815.9976,313.8428,808.4778,309.6438,810.5945,315.0006,815.9976" style="stroke:#000000;stroke-width:0.8000000000000002;"/><text fill="#000000" font-family="sans-serif" font-size="10.4" lengthAdjust="spacing" textLength="16.8" x="320.4" y="816.6813">has</text><text fill="#000000" font-family="sans-serif" font-size="10.4" lengthAdjust="spacing" textLength="5.6" x="248.5318" y="651.74">1</text><text fill="#000000" font-family="sans-serif" font-size="10.4" lengthAdjust="spacing" textLength="16" x="351.5129" y="866.6092">1..*</text><!--MD5=[591625470abc4a5f324d9b49d40e13b3]
link Warehouse to PlaceLocation--><path codeLine="173" d="M1102.992,120.4292 C1144.048,151.1172 1210.272,200.5972 1251.352,231.3012 " fill="none" id="Warehouse-PlaceLocation" style="stroke:#A80036;stroke-width:0.8000000000000002;"/><polygon fill="#000000" points="1159.2041,156.4203,1154.8153,150.2053,1152.0004,153.9719,1159.2041,156.4203" style="stroke:#000000;stroke-width:0.8000000000000002;"/><text fill="#000000" font-family="sans-serif" font-size="10.4" lengthAdjust="spacing" textLength="56.8" x="1163.2" y="158.2813">is located at</text><text fill="#000000" font-family="sans-serif" font-size="10.4" lengthAdjust="spacing" textLength="5.6" x="1103.5537" y="137.2843">1</text><text fill="#000000" font-family="sans-serif" font-size="10.4" lengthAdjust="spacing" textLength="5.6" x="1237.8282" y="222.6996">1</text><!--MD5=[32131463044e3955b9920caf90450011]
link Port to PlaceLocation--><path codeLine="174" d="M1093.128,457.0692 C1135.72,413.7092 1218.52,329.4132 1261.176,285.9972 " fill="none" id="Port-PlaceLocation" style="stroke:#A80036;stroke-width:0.8000000000000002;"/><polygon fill="#000000" points="1158.8031,322.3722,1152.055,325.8867,1155.4095,329.182,1158.8031,322.3722" style="stroke:#000000;stroke-width:0.8000000000000002;"/><text fill="#000000" font-family="sans-serif" font-size="10.4" lengthAdjust="spacing" textLength="56.8" x="1163.2" y="329.4813">is located at</text><text fill="#000000" font-family="sans-serif" font-size="10.4" lengthAdjust="spacing" textLength="5.6" x="1092.3963" y="448.5006">1</text><text fill="#000000" font-family="sans-serif" font-size="10.4" lengthAdjust="spacing" textLength="5.6" x="1250.1567" y="302.8466">1</text><!--MD5=[3d04185e7085eaaeba7ebd93b9963be0]
link PlaceLocation to Country--><path codeLine="175" d="M1333.016,258.6852 C1356.656,258.6852 1385.808,258.6852 1409.392,258.6852 " fill="none" id="PlaceLocation-Country" style="stroke:#A80036;stroke-width:0.8000000000000002;"/><polygon fill="#000000" points="1364.8,251.6258,1357.5639,249.2746,1357.5639,253.9769,1364.8,251.6258" style="stroke:#000000;stroke-width:0.8000000000000002;"/><text fill="#000000" font-family="sans-serif" font-size="10.4" lengthAdjust="spacing" textLength="16.8" x="1368" y="255.8813">in a</text><text fill="#000000" font-family="sans-serif" font-size="10.4" lengthAdjust="spacing" textLength="4" x="1339.2263" y="270.3778">*</text><text fill="#000000" font-family="sans-serif" font-size="10.4" lengthAdjust="spacing" textLength="5.6" x="1397.5291" y="270.3778">1</text><!--MD5=[ba54223a31981c52d18c1dd571f5520c]
link Ship to Container--><path codeLine="176" d="M282.44,631.9652 C302.264,656.9012 331.144,686.4532 364.8,700.2852 C439.312,730.9092 536.64,716.9652 587.128,706.2132 " fill="none" id="Ship-Container" style="stroke:#A80036;stroke-width:0.8000000000000002;"/><polygon fill="#000000" points="393.4863,694.1728,387.0126,690.1753,385.8993,694.7439,393.4863,694.1728" style="stroke:#000000;stroke-width:0.8000000000000002;"/><text fill="#000000" font-family="sans-serif" font-size="10.4" lengthAdjust="spacing" textLength="46.4" x="396.8" y="697.4813">transports</text><text fill="#000000" font-family="sans-serif" font-size="10.4" lengthAdjust="spacing" textLength="5.6" x="288.3474" y="651.5649">1</text><text fill="#000000" font-family="sans-serif" font-size="10.4" lengthAdjust="spacing" textLength="4" x="576.8594" y="719.5524">*</text><!--MD5=[062871d5623378d71d4c490cb56733bb]
link Truck to Container--><path codeLine="177" d="M261.256,454.7972 C268.736,477.3492 282.712,508.2932 306.4,525.0852 C364.528,566.2932 400.864,518.4292 464.8,549.8852 C492.688,563.6052 550.288,622.0852 587.152,661.2932 " fill="none" id="Truck-Container" style="stroke:#A80036;stroke-width:0.8000000000000002;"/><polygon fill="#000000" points="392.9788,532.9667,388.1249,527.1077,385.6081,531.0798,392.9788,532.9667" style="stroke:#000000;stroke-width:0.8000000000000002;"/><text fill="#000000" font-family="sans-serif" font-size="10.4" lengthAdjust="spacing" textLength="46.4" x="396.8" y="535.0813">transports</text><text fill="#000000" font-family="sans-serif" font-size="10.4" lengthAdjust="spacing" textLength="4" x="258.3347" y="471.6466">*</text><text fill="#000000" font-family="sans-serif" font-size="10.4" lengthAdjust="spacing" textLength="5.6" x="575.15" y="666.9118">1</text><!--MD5=[1455ab4c2639af2370608c1bbf2a9850]
link Ship to CargoManifest--><path codeLine="180" d="M269.496,634.4132 C278.088,654.0852 290.32,676.5492 306.4,693.0852 C327.032,714.3092 336.736,715.6932 364.8,725.0852 C493.904,768.2852 537.336,787.7332 669.6,755.4852 C722.128,742.6772 739.824,738.1732 777.6,699.4852 C810.952,665.3252 830.744,611.6132 839.744,581.8852 " fill="none" id="Ship-CargoManifest" style="stroke:#A80036;stroke-width:0.8000000000000002;"/><text fill="#000000" font-family="sans-serif" font-size="10.4" lengthAdjust="spacing" textLength="5.6" x="265.6252" y="651.6407">1</text><text fill="#000000" font-family="sans-serif" font-size="10.4" lengthAdjust="spacing" textLength="4" x="838.7255" y="598.8514">*</text><!--MD5=[fbdfc46126a12876c1c014194abedede]
link Truck to CargoManifest--><path codeLine="181" d="M278.016,417.3172 C341.56,390.6372 513.32,319.8932 573.6,309.0852 C615.6,301.5572 630.568,291.8532 669.6,309.0852 C768.736,352.8372 821.48,485.7652 838.936,538.4452 " fill="none" id="Truck-CargoManifest" style="stroke:#A80036;stroke-width:0.8000000000000002;"/><!--MD5=[37a14a5de6d6fd738aee271300f4b5c8]
link Company to Ship--><path codeLine="189" d="M79.752,233.9092 C111.624,277.9492 182.264,377.0612 200,414.6852 C220.32,457.7972 234.776,510.5812 243.288,547.0292 " fill="none" id="Company-Ship" style="stroke:#A80036;stroke-width:0.8000000000000002;"/><polygon fill="#000000" points="151.0518,324.7713,149.7859,317.2689,145.6179,319.4458,151.0518,324.7713" style="stroke:#000000;stroke-width:0.8000000000000002;"/><text fill="#000000" font-family="sans-serif" font-size="10.4" lengthAdjust="spacing" textLength="42.4" x="156.4" y="325.4813">manages</text><text fill="#000000" font-family="sans-serif" font-size="10.4" lengthAdjust="spacing" textLength="5.6" x="77.1603" y="250.8806">1</text><text fill="#000000" font-family="sans-serif" font-size="10.4" lengthAdjust="spacing" textLength="16" x="224.8811" y="538.3082">1..*</text><!--MD5=[9d91f1df0c90718d85872c4ac6e523ca]
link Company to VesselType--><path codeLine="190" d="M97.504,221.7172 C144.072,234.5892 231.144,257.8052 306.4,273.0852 C329.472,277.7652 355.552,281.8692 376.256,284.8452 " fill="none" id="Company-VesselType" style="stroke:#A80036;stroke-width:0.8000000000000002;"/><polygon fill="#000000" points="243.1012,249.3093,236.5632,245.4179,235.5246,250.0041,243.1012,249.3093" style="stroke:#000000;stroke-width:0.8000000000000002;"/><text fill="#000000" font-family="sans-serif" font-size="10.4" lengthAdjust="spacing" textLength="24" x="246.4" y="252.6813">owns</text><text fill="#000000" font-family="sans-serif" font-size="10.4" lengthAdjust="spacing" textLength="5.6" x="103.6494" y="235.1696">1</text><text fill="#000000" font-family="sans-serif" font-size="10.4" lengthAdjust="spacing" textLength="16" x="354.0017" y="295.8244">1..*</text><!--MD5=[5fd98a8c03cc0e5a408f548eb1c0ace8]
link Company to Port--><path codeLine="191" d="M97.464,195.7012 C134.44,178.9412 196.2,155.4852 252.4,155.4852 C252.4,155.4852 252.4,155.4852 847.2,155.4852 C991.288,155.4852 1045.544,377.7972 1060.28,456.8212 " fill="none" id="Company-Port" style="stroke:#A80036;stroke-width:0.8000000000000002;"/><polygon fill="#000000" points="496.6605,149.4728,490.2922,145.3096,489.0613,149.8479,496.6605,149.4728" style="stroke:#000000;stroke-width:0.8000000000000002;"/><text fill="#000000" font-family="sans-serif" font-size="10.4" lengthAdjust="spacing" textLength="48.8" x="500" y="152.6813">works with</text><text fill="#000000" font-family="sans-serif" font-size="10.4" lengthAdjust="spacing" textLength="5.6" x="103.6027" y="204.8447">1</text><text fill="#000000" font-family="sans-serif" font-size="10.4" lengthAdjust="spacing" textLength="16" x="1041.7409" y="448.4138">1..*</text><!--MD5=[acda98ef2513d819683ba761a9c77b11]
link Company to Warehouse--><path codeLine="192" d="M79.368,190.4372 C108.4,151.9892 175.352,76.2852 252.4,76.2852 C252.4,76.2852 252.4,76.2852 847.2,76.2852 C910.48,76.2852 983.8,83.4372 1027.128,88.4052 " fill="none" id="Company-Warehouse" style="stroke:#A80036;stroke-width:0.8000000000000002;"/><polygon fill="#000000" points="512.777,68.7976,505.3309,67.2345,505.8342,71.9098,512.777,68.7976" style="stroke:#000000;stroke-width:0.8000000000000002;"/><text fill="#000000" font-family="sans-serif" font-size="10.4" lengthAdjust="spacing" textLength="16.8" x="516" y="73.4813">has</text><text fill="#000000" font-family="sans-serif" font-size="10.4" lengthAdjust="spacing" textLength="5.6" x="76.8594" y="181.9486">1</text><text fill="#000000" font-family="sans-serif" font-size="10.4" lengthAdjust="spacing" textLength="16" x="1004.8833" y="99.4689">1..*</text><!--MD5=[f500e957add76349bf6e8f151138488d]
link Client to Container--><path codeLine="193" d="M440.56,663.4532 C477.296,670.4692 546.032,683.6052 587.184,691.4612 " fill="none" id="Client-Container" style="stroke:#A80036;stroke-width:0.8000000000000002;"/><polygon fill="#000000" points="508.729,666.7763,502.0625,663.1092,501.1803,667.728,508.729,666.7763" style="stroke:#000000;stroke-width:0.8000000000000002;"/><text fill="#000000" font-family="sans-serif" font-size="10.4" lengthAdjust="spacing" textLength="24.8" x="512" y="670.2813">ships</text><text fill="#000000" font-family="sans-serif" font-size="10.4" lengthAdjust="spacing" textLength="5.6" x="446.8075" y="676.723">1</text><text fill="#000000" font-family="sans-serif" font-size="10.4" lengthAdjust="spacing" textLength="16" x="564.6891" y="702.2641">1..*</text><!--MD5=[0e32c7758dbd9763ef36bc86a30fd8c6]
link TrafficManager to ShipPosition--><path codeLine="194" d="M72.08,603.7812 C99.36,646.8772 192.704,785.5412 306.4,856.2852 C326.792,868.9732 352.552,876.6852 373.752,881.2612 " fill="none" id="TrafficManager-ShipPosition" style="stroke:#A80036;stroke-width:0.8000000000000002;"/><polygon fill="#000000" points="235.744,787.9337,232.0099,781.3046,228.8266,784.7655,235.744,787.9337" style="stroke:#000000;stroke-width:0.8000000000000002;"/><text fill="#000000" font-family="sans-serif" font-size="10.4" lengthAdjust="spacing" textLength="36.8" x="240" y="789.4813">controls</text><text fill="#000000" font-family="sans-serif" font-size="10.4" lengthAdjust="spacing" textLength="5.6" x="68.342" y="620.591">1</text><text fill="#000000" font-family="sans-serif" font-size="10.4" lengthAdjust="spacing" textLength="4" x="363.6984" y="892.1194">*</text><!--MD5=[40e2b5717560220ad35e84810a8f1b44]
link TrafficManager to Ship--><path codeLine="195" d="M108.408,590.6852 C144.088,590.6852 193.152,590.6852 223.8,590.6852 " fill="none" id="TrafficManager-Ship" style="stroke:#A80036;stroke-width:0.8000000000000002;"/><polygon fill="#000000" points="157.2,583.6258,149.9639,581.2746,149.9639,585.9769,157.2,583.6258" style="stroke:#000000;stroke-width:0.8000000000000002;"/><text fill="#000000" font-family="sans-serif" font-size="10.4" lengthAdjust="spacing" textLength="34.4" x="160.4" y="587.8813">imports</text><text fill="#000000" font-family="sans-serif" font-size="10.4" lengthAdjust="spacing" textLength="5.6" x="114.8591" y="602.3601">1</text><text fill="#000000" font-family="sans-serif" font-size="10.4" lengthAdjust="spacing" textLength="16" x="201.6056" y="602.5526">1..*</text><!--MD5=[641af49703b38e745c9a3976df66996b]
link WarehouseManager to Warehouse--><path codeLine="196" d="M97.128,51.4452 C134.32,38.2052 196.76,19.4852 252.4,19.4852 C252.4,19.4852 252.4,19.4852 847.2,19.4852 C913.2,19.4852 984.808,50.2452 1027.192,71.9972 " fill="none" id="WarehouseManager-Warehouse" style="stroke:#A80036;stroke-width:0.8000000000000002;"/><polygon fill="#000000" points="499.999,12.5141,492.8167,10.0037,492.7128,14.7049,499.999,12.5141" style="stroke:#000000;stroke-width:0.8000000000000002;"/><text fill="#000000" font-family="sans-serif" font-size="10.4" lengthAdjust="spacing" textLength="42.4" x="503.2" y="16.6813">manages</text><text fill="#000000" font-family="sans-serif" font-size="10.4" lengthAdjust="spacing" textLength="5.6" x="102.2283" y="42.8758">1</text><text fill="#000000" font-family="sans-serif" font-size="10.4" lengthAdjust="spacing" textLength="16" x="1004.6659" y="80.766">1..*</text><!--MD5=[9eb8cece74e91f217f5849e8308bf70d]
link PortManager to Port--><path codeLine="197" d="M70.144,830.1332 C90.152,870.5092 157.664,990.6852 252.4,990.6852 C252.4,990.6852 252.4,990.6852 622.4,990.6852 C750.816,990.6852 985.24,616.6932 1048.632,511.5092 " fill="none" id="PortManager-Port" style="stroke:#A80036;stroke-width:0.8000000000000002;"/><polygon fill="#000000" points="499.8034,982.3873,492.195,982.3922,493.6509,986.8634,499.8034,982.3873" style="stroke:#000000;stroke-width:0.8000000000000002;"/><text fill="#000000" font-family="sans-serif" font-size="10.4" lengthAdjust="spacing" textLength="42.4" x="503.2" y="987.8813">manages</text><text fill="#000000" font-family="sans-serif" font-size="10.4" lengthAdjust="spacing" textLength="5.6" x="65.8649" y="847.1731">1</text><text fill="#000000" font-family="sans-serif" font-size="10.4" lengthAdjust="spacing" textLength="16" x="1028.1846" y="528.343">1..*</text><!--MD5=[2f53b54d736e45d912a2707458432c0e]
link Ship to EnergyPower--><path codeLine="199" d="M282.608,590.6852 C305.344,590.6852 337.696,590.6852 364.608,590.6852 " fill="none" id="Ship-EnergyPower" style="stroke:#A80036;stroke-width:0.8000000000000002;"/><polygon fill="#000000" points="317.2,583.6258,309.9639,581.2746,309.9639,585.9769,317.2,583.6258" style="stroke:#000000;stroke-width:0.8000000000000002;"/><text fill="#000000" font-family="sans-serif" font-size="10.4" lengthAdjust="spacing" textLength="16.8" x="320.4" y="587.8813">has</text><text fill="#000000" font-family="sans-serif" font-size="10.4" lengthAdjust="spacing" textLength="5.6" x="288.7477" y="602.7144">1</text><text fill="#000000" font-family="sans-serif" font-size="10.4" lengthAdjust="spacing" textLength="5.6" x="352.8808" y="602.2527">1</text><!--MD5=[fe56967d49e095412a54b704daffd5d9]
link ShipTrip to CargoManifest--><path codeLine="206" d="M669.736,560.2852 C708.64,560.2852 763.344,560.2852 801.368,560.2852 " fill="none" id="ShipTrip-CargoManifest" style="stroke:#A80036;stroke-width:0.8000000000000002;"/><polygon fill="#000000" points="716,553.2258,708.7639,550.8746,708.7639,555.5769,716,553.2258" style="stroke:#000000;stroke-width:0.8000000000000002;"/><text fill="#000000" font-family="sans-serif" font-size="10.4" lengthAdjust="spacing" textLength="43.2" x="719.2" y="557.4813">relates to</text><text fill="#000000" font-family="sans-serif" font-size="10.4" lengthAdjust="spacing" textLength="5.6" x="675.9438" y="571.9016">1</text><text fill="#000000" font-family="sans-serif" font-size="10.4" lengthAdjust="spacing" textLength="5.6" x="789.6395" y="571.9277">2</text><!--MD5=[47296211a5450e6030aae792427ae68d]
link CargoManifest to Port--><path codeLine="209" d="M891.232,544.9092 C934.08,529.9412 997.992,507.6212 1035.128,494.6532 " fill="none" id="CargoManifest-Port" style="stroke:#A80036;stroke-width:0.8000000000000002;"/><polygon fill="#000000" points="922.9763,507.1069,915.3697,507.2731,916.9201,511.7124,922.9763,507.1069" style="stroke:#000000;stroke-width:0.8000000000000002;"/><text fill="#000000" font-family="sans-serif" font-size="10.4" lengthAdjust="spacing" textLength="52" x="926.4" y="512.6813">delivered at</text><text fill="#000000" font-family="sans-serif" font-size="10.4" lengthAdjust="spacing" textLength="16" x="897.6709" y="554.6364">1..*</text><text fill="#000000" font-family="sans-serif" font-size="10.4" lengthAdjust="spacing" textLength="17.6" x="1011.269" y="508.165">0..1</text><!--MD5=[1007fce2994c0804f23855fbfd3e6bbd]
link CargoManifest to Warehouse--><path codeLine="210" d="M857.4,538.3812 C893.152,461.6132 1012.72,204.9012 1052.104,120.3492 " fill="none" id="CargoManifest-Warehouse" style="stroke:#A80036;stroke-width:0.8000000000000002;"/><polygon fill="#000000" points="920.8889,274.3998,915.7024,279.9666,919.965,281.9519,920.8889,274.3998" style="stroke:#000000;stroke-width:0.8000000000000002;"/><text fill="#000000" font-family="sans-serif" font-size="10.4" lengthAdjust="spacing" textLength="52" x="926.4" y="282.2813">delivered at</text><text fill="#000000" font-family="sans-serif" font-size="10.4" lengthAdjust="spacing" textLength="4" x="855.4813" y="529.8796">*</text><text fill="#000000" font-family="sans-serif" font-size="10.4" lengthAdjust="spacing" textLength="17.6" x="1030.5325" y="137.1901">0..1</text><!--MD5=[bd668f20969913e971975f69d50ab766]
link Ship to Route--><path codeLine="211" d="M282.52,563.5572 C304.792,542.4612 336.592,512.5252 364.8,486.6852 C372.744,479.4052 381.488,471.5412 389.368,464.5012 " fill="none" id="Ship-Route" style="stroke:#A80036;stroke-width:0.8000000000000002;"/><polygon fill="#000000" points="313.3334,500.1063,306.4284,503.3017,309.6253,506.75,313.3334,500.1063" style="stroke:#000000;stroke-width:0.8000000000000002;"/><text fill="#000000" font-family="sans-serif" font-size="10.4" lengthAdjust="spacing" textLength="22.4" x="317.6" y="507.0813">does</text><text fill="#000000" font-family="sans-serif" font-size="10.4" lengthAdjust="spacing" textLength="5.6" x="288.8436" y="570.286">1</text><text fill="#000000" font-family="sans-serif" font-size="10.4" lengthAdjust="spacing" textLength="4" x="379.3673" y="481.5146">*</text><!--MD5=[ded2ff2f2e128334a9175b15f74cae8c]
link Route to ShipTrip--><path codeLine="212" d="M440.872,447.1732 C469.04,453.0132 515.152,465.1092 549.6,486.6852 C557.96,491.9252 566.048,498.3492 573.576,505.2052 " fill="none" id="Route-ShipTrip" style="stroke:#A80036;stroke-width:0.8000000000000002;"/><polygon fill="#000000" points="501.2649,454.8285,495.5771,449.775,493.693,454.0834,501.2649,454.8285" style="stroke:#000000;stroke-width:0.8000000000000002;"/><text fill="#000000" font-family="sans-serif" font-size="10.4" lengthAdjust="spacing" textLength="39.2" x="504.8" y="457.4813">contains</text><text fill="#000000" font-family="sans-serif" font-size="10.4" lengthAdjust="spacing" textLength="5.6" x="447.1878" y="460.3961">1</text><text fill="#000000" font-family="sans-serif" font-size="10.4" lengthAdjust="spacing" textLength="16" x="551.0982" y="510.4109">1..*</text><!--MD5=[56260c13595321035dca77dc75bae3c2]
link Truck to Route--><path codeLine="213" d="M278.336,429.3332 C295.744,430.6932 319.728,432.6612 340.8,434.6852 C356.704,436.2132 374.528,438.1572 388.608,439.7492 " fill="none" id="Truck-Route" style="stroke:#A80036;stroke-width:0.8000000000000002;"/><polygon fill="#000000" points="314.3823,425.6019,307.3994,422.5807,306.9572,427.2622,314.3823,425.6019" style="stroke:#000000;stroke-width:0.8000000000000002;"/><text fill="#000000" font-family="sans-serif" font-size="10.4" lengthAdjust="spacing" textLength="22.4" x="317.6" y="429.4813">does</text><text fill="#000000" font-family="sans-serif" font-size="10.4" lengthAdjust="spacing" textLength="5.6" x="284.447" y="441.993">1</text><text fill="#000000" font-family="sans-serif" font-size="10.4" lengthAdjust="spacing" textLength="4" x="378.441" y="451.3481">*</text><!--MD5=[5c8f7f71a7c38ff75f12b58bd2cf4c13]
link Route to TruckTrip--><path codeLine="214" d="M440.968,436.7492 C473.944,429.0372 532.176,415.4132 573.432,405.7652 " fill="none" id="Route-TruckTrip" style="stroke:#A80036;stroke-width:0.8000000000000002;"/><polygon fill="#000000" points="501.4949,404.3148,493.9135,403.6735,494.9845,408.2522,501.4949,404.3148" style="stroke:#000000;stroke-width:0.8000000000000002;"/><text fill="#000000" font-family="sans-serif" font-size="10.4" lengthAdjust="spacing" textLength="39.2" x="504.8" y="409.4813">contains</text><text fill="#000000" font-family="sans-serif" font-size="10.4" lengthAdjust="spacing" textLength="5.6" x="447.3048" y="447.6919">1</text><text fill="#000000" font-family="sans-serif" font-size="10.4" lengthAdjust="spacing" textLength="4" x="563.3178" y="418.6912">*</text><!--MD5=[896731a16f9957de4c0f9ccc51c43389]
link TruckTrip to CargoManifest--><path codeLine="215" d="M669.736,429.8052 C714.136,462.7492 779.136,510.9732 816.416,538.6292 " fill="none" id="TruckTrip-CargoManifest" style="stroke:#A80036;stroke-width:0.8000000000000002;"/><polygon fill="#000000" points="715.2124,443.6091,710.802,437.4094,708.0002,441.1858,715.2124,443.6091" style="stroke:#000000;stroke-width:0.8000000000000002;"/><text fill="#000000" font-family="sans-serif" font-size="10.4" lengthAdjust="spacing" textLength="43.2" x="719.2" y="445.4813">relates to</text><text fill="#000000" font-family="sans-serif" font-size="10.4" lengthAdjust="spacing" textLength="5.6" x="675.9438" y="445.6611">1</text><text fill="#000000" font-family="sans-serif" font-size="10.4" lengthAdjust="spacing" textLength="5.6" x="802.8249" y="529.8369">2</text><!--MD5=[cb921c62fe558f4d7653e0017be10985]
@startuml

skinparam classAttributeIconSize 0
hide empty methods
hide empty attributes
left to right direction

class Company {
    -designation
}

class Container {
   -containerId
   -payload
   -tare
   -gross
   -isoCode
   /'-isRefrigerated'/
   /'-temperatureKept' - ESTE TALVEZ ADEQUA-SE'/
}

/' Roles '/
/'class Employee {}'/

class Client {}

/'class FleetManager {}'/

class TrafficManager {}



/'class WarehouseStaff {}'/

class WarehouseManager {}

/'class PortStaff {}'/

class PortManager {}

/'class ShipCaptain {}

class ShipChiefElecEngineer {}

class TruckDriver {}'/
/' End Roles '/

class CargoManifest {
    -cargoManifestId
    /'-typeOfTransport'/
}

class Ship {
    -mmmsiCode
    -shipName
    -imoCode
    -callSignId
    -draft
}


class PositionInVehicle {
    -containerPositionInVehiculeX
    -containerPositionInVehiculeY
    -containerPositionInVehiculeZ
}

class VesselType {
    -vesselTypeId
    -length
    -width
    -maxCapacity
}

class ShipPosition {
    -baseDateTime
    -latitude
    -longitude
    -sog
    -cog
    -heading
    -position
    -transceiver
}

/'CONFIRM'/
class Port {
    -identification
    -name
}

class Warehouse {
    -identification
    -name
}

class Country {
    -countryDesignation
    -continent
}

class PlaceLocation {
    -locationLatitude
    -locationLongitude
}

class EnergyPower{
    -numEnergyGenerators
    -generatorsPower
}

class Truck {
    -truckId
    -name
}

class Route {
    -route_id
}

class TruckTrip{
    -route_id
    -truck_Id
    /'has attribute phase?'/
    -departure_location_id
    -arrival_location_id
    -loading_cargo_id
    -unloading_cargo_id
    -est_departure_date
    -est_arrival_date
    -real_departure_date
    -real_arrival_date
}

/'Classes not in the Data Model'/
/'class Quote {}'/
class System {}
/'End of Classes not in the Data Model'/

class ShipTrip{
    -shipMmsi
    /'has attribute phase?'/
    -departure_location_id
    -arrival_location_id
    -loading_cargo_id
    -unloading_cargo_id
    -est_departure_date
    -est_arrival_date
    -real_departure_date
    -real_arrival_date
}


Company "1" - - "1..*" System : has >
User "1..*" - - "1" System : uses >
/'FleetManager "1" - - "1" Employee : is of >'/
TrafficManager "1" - - "1" User : relates to >
/'WarehouseStaff "1" - - "1" Employee : is of >'/
WarehouseManager "1" - - "1" User : relates to >
/'PortStaff "1" - - "1" Employee : is of >'/
PortManager "1" - - "1" User : relates to >
/'ShipCaptain "1" - - "1" Employee : is of >'/
/'ShipChiefElecEngineer "1" - - "1" Employee : is of >'/
/'TruckDriver "1" - - "1" Employee : is of >'/

/'Relations that lack multiplicity'/
CargoManifest "1" - - "1..*" Container /'as this relation exists, CargoManifest already has Container gross weight'/
CargoManifest "1" - - "1..*" PositionInVehicle : contains >
/'End of relations that lack multiplicity'/

Container "1" - - "1" PositionInVehicle : has >
Ship "*" - - "1" VesselType : is of >
Ship "1" - - "1..*" ShipPosition : has >
Warehouse "1" - - "1" PlaceLocation : is located at >
Port "1" - - "1" PlaceLocation : is located at >
PlaceLocation "*" - - "1" Country : in a >
Ship "1" - - "*" Container : transports >
Truck "*" - - "1" Container : transports >

/'Relations that is in the Data Model but to be evaluated'/
Ship "1" - - "*" CargoManifest
Truck - - CargoManifest /' lacks multiplicity '/
/'PortsAndWareHouse "1" - - "*" CargoManifest : delivered at <'/
/'End of Relatiosn that is in the Data Model but to be evaluated'/

/'Relations not in the Data Model'/
/'Ship "1" - - "*" Message : sends >'/
/'USCoastGuard "1" - - "*" Message : receives >'/
/'Client "1" - - "1..*" Quote : wants >'/
Company "1" - - "1..*" Ship : manages >
Company "1" - - "1..*" VesselType : owns >
Company "1" - - "1..*" Port : works with >
Company "1" - - "1..*" Warehouse : has >
Client "1" - - "1..*" Container : ships >
TrafficManager "1" - - "*" ShipPosition : controls >
TrafficManager "1" - - "1..*" Ship : imports >
WarehouseManager "1" - - "1..*" Warehouse : manages >
PortManager "1" - - "1..*" Port : manages >

Ship "1" - - "1" EnergyPower : has >

/'US204'/
Container "1..*"- - "2..*" CargoManifest : associated with >
/'CargoManifest - - Port : delivered at >'/
/'Ship "1" - - "*" ShipTrip : does >'/
/'ShipTrip "*" - - "1" Port : to >'/
ShipTrip "1" - - "2" CargoManifest : relates to >

/'US305'/
CargoManifest "1..*" - - "0..1" Port : delivered at >
CargoManifest "*" - - "0..1" Warehouse : delivered at >
Ship "1" - - "*" Route : does >
Route "1" - - "1..*" ShipTrip : contains >
Truck "1" - - "*" Route : does >
Route "1" - - "*" TruckTrip : contains >
TruckTrip "1" - - "2" CargoManifest : relates to >






/'RELAES EM FALTA - DVIDAS
Company - - Quote?
'/


/' DVIDAS
- Containers can be transported by land or sea - representar?
- checkDigit - Container, para que serve?
- isRefrigerated vai ser um mtodo logo no se representa certo?
- estado do Cargo Manifest

- Ship sends Message - a Message contm info posicionamento, como representar?



- NO ESQUECER DE VER SLIDES ESOFT , USER E ROLE!

'/



@enduml

@startuml

skinparam classAttributeIconSize 0
hide empty methods
hide empty attributes
left to right direction

class Company {
    -designation
}

class Container {
   -containerId
   -payload
   -tare
   -gross
   -isoCode
}


class Client {}


class TrafficManager {}




class WarehouseManager {}


class PortManager {}


class CargoManifest {
    -cargoManifestId
}

class Ship {
    -mmmsiCode
    -shipName
    -imoCode
    -callSignId
    -draft
}


class PositionInVehicle {
    -containerPositionInVehiculeX
    -containerPositionInVehiculeY
    -containerPositionInVehiculeZ
}

class VesselType {
    -vesselTypeId
    -length
    -width
    -maxCapacity
}

class ShipPosition {
    -baseDateTime
    -latitude
    -longitude
    -sog
    -cog
    -heading
    -position
    -transceiver
}

class Port {
    -identification
    -name
}

class Warehouse {
    -identification
    -name
}

class Country {
    -countryDesignation
    -continent
}

class PlaceLocation {
    -locationLatitude
    -locationLongitude
}

class EnergyPower{
    -numEnergyGenerators
    -generatorsPower
}

class Truck {
    -truckId
    -name
}

class Route {
    -route_id
}

class TruckTrip{
    -route_id
    -truck_Id
    -departure_location_id
    -arrival_location_id
    -loading_cargo_id
    -unloading_cargo_id
    -est_departure_date
    -est_arrival_date
    -real_departure_date
    -real_arrival_date
}

class System {}

class ShipTrip{
    -shipMmsi
    -departure_location_id
    -arrival_location_id
    -loading_cargo_id
    -unloading_cargo_id
    -est_departure_date
    -est_arrival_date
    -real_departure_date
    -real_arrival_date
}


Company "1" - - "1..*" System : has >
User "1..*" - - "1" System : uses >
TrafficManager "1" - - "1" User : relates to >
WarehouseManager "1" - - "1" User : relates to >
PortManager "1" - - "1" User : relates to >

CargoManifest "1" - - "1..*" Container 
CargoManifest "1" - - "1..*" PositionInVehicle : contains >

Container "1" - - "1" PositionInVehicle : has >
Ship "*" - - "1" VesselType : is of >
Ship "1" - - "1..*" ShipPosition : has >
Warehouse "1" - - "1" PlaceLocation : is located at >
Port "1" - - "1" PlaceLocation : is located at >
PlaceLocation "*" - - "1" Country : in a >
Ship "1" - - "*" Container : transports >
Truck "*" - - "1" Container : transports >

Ship "1" - - "*" CargoManifest
Truck - - CargoManifest 

Company "1" - - "1..*" Ship : manages >
Company "1" - - "1..*" VesselType : owns >
Company "1" - - "1..*" Port : works with >
Company "1" - - "1..*" Warehouse : has >
Client "1" - - "1..*" Container : ships >
TrafficManager "1" - - "*" ShipPosition : controls >
TrafficManager "1" - - "1..*" Ship : imports >
WarehouseManager "1" - - "1..*" Warehouse : manages >
PortManager "1" - - "1..*" Port : manages >

Ship "1" - - "1" EnergyPower : has >

Container "1..*"- - "2..*" CargoManifest : associated with >
ShipTrip "1" - - "2" CargoManifest : relates to >

CargoManifest "1..*" - - "0..1" Port : delivered at >
CargoManifest "*" - - "0..1" Warehouse : delivered at >
Ship "1" - - "*" Route : does >
Route "1" - - "1..*" ShipTrip : contains >
Truck "1" - - "*" Route : does >
Route "1" - - "*" TruckTrip : contains >
TruckTrip "1" - - "2" CargoManifest : relates to >











@enduml

PlantUML version 1.2021.11(Sat Oct 02 14:26:11 BST 2021)
(GPL source distribution)
Java Runtime: OpenJDK Runtime Environment
JVM: OpenJDK 64-Bit Server VM
Default Encoding: Cp1252
Language: pt
Country: PT
--></g></svg>