<?xml version="1.0" encoding="UTF-8" standalone="no"?><svg xmlns="http://www.w3.org/2000/svg" xmlns:xlink="http://www.w3.org/1999/xlink" contentScriptType="application/ecmascript" contentStyleType="text/css" height="522.8px" preserveAspectRatio="none" style="width:672px;height:522px;background:#FFFFFF;" version="1.1" viewBox="0 0 672 522" width="672.8px" zoomAndPan="magnify"><defs><filter height="300%" id="fa097mcd98nm4" width="300%" x="-1" y="-1"><feGaussianBlur result="blurOut" stdDeviation="0.8000000000000002"/><feColorMatrix in="blurOut" result="blurOut2" type="matrix" values="0 0 0 0 0 0 0 0 0 0 0 0 0 0 0 0 0 0 .4 0"/><feOffset dx="1.6000000000000003" dy="1.6000000000000003" in="blurOut2" result="blurOut3"/><feBlend in="SourceGraphic" in2="blurOut3" mode="normal"/></filter></defs><g><!--MD5=[02e4b9b7573f1156f41e60aa5b4e25a4]
class Company--><rect codeLine="7" fill="#FEFECE" filter="url(#fa097mcd98nm4)" height="21.5344" id="Company" style="stroke:#A80036;stroke-width:0.6000000000000001;" width="34" x="14.6" y="152.5426"/><ellipse cx="20.6" cy="158.9426" fill="#ADD1B2" rx="4.4" ry="4.4" style="stroke:#A80036;stroke-width:0.4000000000000001;"/><path d="M21.4,157.5426 Q21.4813,157.3426 21.575,157.2426 Q21.6688,157.1426 21.775,157.1426 Q21.9625,157.1426 22.0813,157.2551 Q22.2,157.3676 22.2,157.6301 L22.2,158.2551 Q22.2,158.5176 22.0875,158.6301 Q21.975,158.7426 21.8,158.7426 Q21.6438,158.7426 21.5438,158.6738 Q21.4438,158.6051 21.4,158.4238 Q21.3813,158.2988 21.3125,158.2301 Q21.1875,158.0988 20.9625,158.0238 Q20.7375,157.9426 20.5125,157.9426 Q20.2313,157.9426 19.9938,158.0551 Q19.7625,158.1676 19.5813,158.4176 Q19.4,158.6676 19.4,159.0113 L19.4,159.3801 Q19.4,159.7926 19.7375,160.0676 Q20.075,160.3426 20.675,160.3426 Q21.0313,160.3426 21.2813,160.2613 Q21.425,160.2176 21.5875,160.0738 Q21.6938,159.9926 21.75,159.9676 Q21.8063,159.9426 21.875,159.9426 Q22.0063,159.9426 22.1,160.0488 Q22.2,160.1488 22.2,160.2926 Q22.2,160.4301 22.0625,160.5926 Q21.8625,160.8301 21.5438,160.9613 Q21.125,161.1426 20.6125,161.1426 Q20.0125,161.1426 19.5313,160.9051 Q19.1438,160.7176 18.8688,160.3113 Q18.6,159.9051 18.6,159.4238 L18.6,158.9863 Q18.6,158.4863 18.8375,158.0488 Q19.0813,157.6113 19.5,157.3801 Q19.925,157.1426 20.4,157.1426 Q20.6875,157.1426 20.9375,157.2426 Q21.1875,157.3426 21.4,157.5426 Z " fill="#000000"/><text fill="#000000" font-family="sans-serif" font-size="4.8" lengthAdjust="spacing" textLength="21.2" x="26.2" y="160.9066">Company</text><line style="stroke:#A80036;stroke-width:0.6000000000000001;" x1="15" x2="48.2" y1="165.3426" y2="165.3426"/><text fill="#000000" font-family="sans-serif" font-size="4.4" lengthAdjust="spacing" textLength="23.6" x="17" y="171.5102">-designation</text><!--MD5=[e9a58730c562b34349daa605d1ed6662]
class Container--><rect codeLine="11" fill="#FEFECE" filter="url(#fa097mcd98nm4)" height="43.6719" id="Container" style="stroke:#A80036;stroke-width:0.6000000000000001;" width="34.4" x="211.4" y="473.5426"/><ellipse cx="217.4" cy="479.9426" fill="#ADD1B2" rx="4.4" ry="4.4" style="stroke:#A80036;stroke-width:0.4000000000000001;"/><path d="M218.2,478.5426 Q218.2813,478.3426 218.375,478.2426 Q218.4688,478.1426 218.575,478.1426 Q218.7625,478.1426 218.8813,478.2551 Q219,478.3676 219,478.6301 L219,479.2551 Q219,479.5176 218.8875,479.6301 Q218.775,479.7426 218.6,479.7426 Q218.4438,479.7426 218.3438,479.6738 Q218.2438,479.6051 218.2,479.4238 Q218.1813,479.2988 218.1125,479.2301 Q217.9875,479.0988 217.7625,479.0238 Q217.5375,478.9426 217.3125,478.9426 Q217.0313,478.9426 216.7938,479.0551 Q216.5625,479.1676 216.3813,479.4176 Q216.2,479.6676 216.2,480.0113 L216.2,480.3801 Q216.2,480.7926 216.5375,481.0676 Q216.875,481.3426 217.475,481.3426 Q217.8313,481.3426 218.0813,481.2613 Q218.225,481.2176 218.3875,481.0738 Q218.4938,480.9926 218.55,480.9676 Q218.6063,480.9426 218.675,480.9426 Q218.8063,480.9426 218.9,481.0488 Q219,481.1488 219,481.2926 Q219,481.4301 218.8625,481.5926 Q218.6625,481.8301 218.3438,481.9613 Q217.925,482.1426 217.4125,482.1426 Q216.8125,482.1426 216.3313,481.9051 Q215.9438,481.7176 215.6688,481.3113 Q215.4,480.9051 215.4,480.4238 L215.4,479.9863 Q215.4,479.4863 215.6375,479.0488 Q215.8813,478.6113 216.3,478.3801 Q216.725,478.1426 217.2,478.1426 Q217.4875,478.1426 217.7375,478.2426 Q217.9875,478.3426 218.2,478.5426 Z " fill="#000000"/><text fill="#000000" font-family="sans-serif" font-size="4.8" lengthAdjust="spacing" textLength="21.6" x="223" y="481.9066">Container</text><line style="stroke:#A80036;stroke-width:0.6000000000000001;" x1="211.8" x2="245.4" y1="486.3426" y2="486.3426"/><text fill="#000000" font-family="sans-serif" font-size="4.4" lengthAdjust="spacing" textLength="22.8" x="213.8" y="492.5102">-containerId</text><text fill="#000000" font-family="sans-serif" font-size="4.4" lengthAdjust="spacing" textLength="16.8" x="213.8" y="498.0445">-payload</text><text fill="#000000" font-family="sans-serif" font-size="4.4" lengthAdjust="spacing" textLength="9.2" x="213.8" y="503.5789">-tare</text><text fill="#000000" font-family="sans-serif" font-size="4.4" lengthAdjust="spacing" textLength="12.8" x="213.8" y="509.1133">-gross</text><text fill="#000000" font-family="sans-serif" font-size="4.4" lengthAdjust="spacing" textLength="17.2" x="213.8" y="514.6477">-isoCode</text><!--MD5=[ed6624c6556d5e7b1bd23032162d20b7]
class Client--><rect codeLine="24" fill="#FEFECE" filter="url(#fa097mcd98nm4)" height="12.8" id="Client" style="stroke:#A80036;stroke-width:0.6000000000000001;" width="25.6" x="118.4" y="488.9426"/><ellipse cx="124.4" cy="495.3426" fill="#ADD1B2" rx="4.4" ry="4.4" style="stroke:#A80036;stroke-width:0.4000000000000001;"/><path d="M125.2,493.9426 Q125.2813,493.7426 125.375,493.6426 Q125.4688,493.5426 125.575,493.5426 Q125.7625,493.5426 125.8813,493.6551 Q126,493.7676 126,494.0301 L126,494.6551 Q126,494.9176 125.8875,495.0301 Q125.775,495.1426 125.6,495.1426 Q125.4438,495.1426 125.3438,495.0738 Q125.2438,495.0051 125.2,494.8238 Q125.1813,494.6988 125.1125,494.6301 Q124.9875,494.4988 124.7625,494.4238 Q124.5375,494.3426 124.3125,494.3426 Q124.0313,494.3426 123.7938,494.4551 Q123.5625,494.5676 123.3813,494.8176 Q123.2,495.0676 123.2,495.4113 L123.2,495.7801 Q123.2,496.1926 123.5375,496.4676 Q123.875,496.7426 124.475,496.7426 Q124.8313,496.7426 125.0813,496.6613 Q125.225,496.6176 125.3875,496.4738 Q125.4938,496.3926 125.55,496.3676 Q125.6063,496.3426 125.675,496.3426 Q125.8063,496.3426 125.9,496.4488 Q126,496.5488 126,496.6926 Q126,496.8301 125.8625,496.9926 Q125.6625,497.2301 125.3438,497.3613 Q124.925,497.5426 124.4125,497.5426 Q123.8125,497.5426 123.3313,497.3051 Q122.9438,497.1176 122.6688,496.7113 Q122.4,496.3051 122.4,495.8238 L122.4,495.3863 Q122.4,494.8863 122.6375,494.4488 Q122.8813,494.0113 123.3,493.7801 Q123.725,493.5426 124.2,493.5426 Q124.4875,493.5426 124.7375,493.6426 Q124.9875,493.7426 125.2,493.9426 Z " fill="#000000"/><text fill="#000000" font-family="sans-serif" font-size="4.8" lengthAdjust="spacing" textLength="12.8" x="130" y="497.3066">Client</text><!--MD5=[ddaf6f62b0bc30921877ec9fb9463c9f]
class TrafficManager--><rect codeLine="28" fill="#FEFECE" filter="url(#fa097mcd98nm4)" height="12.8" id="TrafficManager" style="stroke:#A80036;stroke-width:0.6000000000000001;" width="45.2" x="9" y="307.7426"/><ellipse cx="15" cy="314.1426" fill="#ADD1B2" rx="4.4" ry="4.4" style="stroke:#A80036;stroke-width:0.4000000000000001;"/><path d="M15.8,312.7426 Q15.8813,312.5426 15.975,312.4426 Q16.0688,312.3426 16.175,312.3426 Q16.3625,312.3426 16.4813,312.4551 Q16.6,312.5676 16.6,312.8301 L16.6,313.4551 Q16.6,313.7176 16.4875,313.8301 Q16.375,313.9426 16.2,313.9426 Q16.0438,313.9426 15.9438,313.8738 Q15.8438,313.8051 15.8,313.6238 Q15.7813,313.4988 15.7125,313.4301 Q15.5875,313.2988 15.3625,313.2238 Q15.1375,313.1426 14.9125,313.1426 Q14.6313,313.1426 14.3938,313.2551 Q14.1625,313.3676 13.9813,313.6176 Q13.8,313.8676 13.8,314.2113 L13.8,314.5801 Q13.8,314.9926 14.1375,315.2676 Q14.475,315.5426 15.075,315.5426 Q15.4313,315.5426 15.6813,315.4613 Q15.825,315.4176 15.9875,315.2738 Q16.0938,315.1926 16.15,315.1676 Q16.2063,315.1426 16.275,315.1426 Q16.4063,315.1426 16.5,315.2488 Q16.6,315.3488 16.6,315.4926 Q16.6,315.6301 16.4625,315.7926 Q16.2625,316.0301 15.9438,316.1613 Q15.525,316.3426 15.0125,316.3426 Q14.4125,316.3426 13.9313,316.1051 Q13.5438,315.9176 13.2688,315.5113 Q13,315.1051 13,314.6238 L13,314.1863 Q13,313.6863 13.2375,313.2488 Q13.4813,312.8113 13.9,312.5801 Q14.325,312.3426 14.8,312.3426 Q15.0875,312.3426 15.3375,312.4426 Q15.5875,312.5426 15.8,312.7426 Z " fill="#000000"/><text fill="#000000" font-family="sans-serif" font-size="4.8" lengthAdjust="spacing" textLength="32.4" x="20.6" y="316.1066">TrafficManager</text><!--MD5=[5e1deb958606d83ef5f4988eb2b8f966]
class WarehouseManager--><rect codeLine="34" fill="#FEFECE" filter="url(#fa097mcd98nm4)" height="12.8" id="WarehouseManager" style="stroke:#A80036;stroke-width:0.6000000000000001;" width="57.6" x="2.8" y="4.1426"/><ellipse cx="8.8" cy="10.5426" fill="#ADD1B2" rx="4.4" ry="4.4" style="stroke:#A80036;stroke-width:0.4000000000000001;"/><path d="M9.6,9.1426 Q9.6813,8.9426 9.775,8.8426 Q9.8688,8.7426 9.975,8.7426 Q10.1625,8.7426 10.2813,8.8551 Q10.4,8.9676 10.4,9.2301 L10.4,9.8551 Q10.4,10.1176 10.2875,10.2301 Q10.175,10.3426 10,10.3426 Q9.8438,10.3426 9.7438,10.2738 Q9.6438,10.2051 9.6,10.0238 Q9.5813,9.8988 9.5125,9.8301 Q9.3875,9.6988 9.1625,9.6238 Q8.9375,9.5426 8.7125,9.5426 Q8.4313,9.5426 8.1938,9.6551 Q7.9625,9.7676 7.7813,10.0176 Q7.6,10.2676 7.6,10.6113 L7.6,10.9801 Q7.6,11.3926 7.9375,11.6676 Q8.275,11.9426 8.875,11.9426 Q9.2313,11.9426 9.4813,11.8613 Q9.625,11.8176 9.7875,11.6738 Q9.8938,11.5926 9.95,11.5676 Q10.0063,11.5426 10.075,11.5426 Q10.2063,11.5426 10.3,11.6488 Q10.4,11.7488 10.4,11.8926 Q10.4,12.0301 10.2625,12.1926 Q10.0625,12.4301 9.7438,12.5613 Q9.325,12.7426 8.8125,12.7426 Q8.2125,12.7426 7.7313,12.5051 Q7.3438,12.3176 7.0688,11.9113 Q6.8,11.5051 6.8,11.0238 L6.8,10.5863 Q6.8,10.0863 7.0375,9.6488 Q7.2813,9.2113 7.7,8.9801 Q8.125,8.7426 8.6,8.7426 Q8.8875,8.7426 9.1375,8.8426 Q9.3875,8.9426 9.6,9.1426 Z " fill="#000000"/><text fill="#000000" font-family="sans-serif" font-size="4.8" lengthAdjust="spacing" textLength="44.8" x="14.4" y="12.5066">WarehouseManager</text><!--MD5=[99d8f1361a72f685c413d1fd21efef1c]
class PortManager--><rect codeLine="38" fill="#FEFECE" filter="url(#fa097mcd98nm4)" height="12.8" id="PortManager" style="stroke:#A80036;stroke-width:0.6000000000000001;" width="40.8" x="11.2" y="73.3426"/><ellipse cx="17.2" cy="79.7426" fill="#ADD1B2" rx="4.4" ry="4.4" style="stroke:#A80036;stroke-width:0.4000000000000001;"/><path d="M18,78.3426 Q18.0813,78.1426 18.175,78.0426 Q18.2688,77.9426 18.375,77.9426 Q18.5625,77.9426 18.6813,78.0551 Q18.8,78.1676 18.8,78.4301 L18.8,79.0551 Q18.8,79.3176 18.6875,79.4301 Q18.575,79.5426 18.4,79.5426 Q18.2438,79.5426 18.1438,79.4738 Q18.0438,79.4051 18,79.2238 Q17.9813,79.0988 17.9125,79.0301 Q17.7875,78.8988 17.5625,78.8238 Q17.3375,78.7426 17.1125,78.7426 Q16.8313,78.7426 16.5938,78.8551 Q16.3625,78.9676 16.1813,79.2176 Q16,79.4676 16,79.8113 L16,80.1801 Q16,80.5926 16.3375,80.8676 Q16.675,81.1426 17.275,81.1426 Q17.6313,81.1426 17.8813,81.0613 Q18.025,81.0176 18.1875,80.8738 Q18.2938,80.7926 18.35,80.7676 Q18.4063,80.7426 18.475,80.7426 Q18.6063,80.7426 18.7,80.8488 Q18.8,80.9488 18.8,81.0926 Q18.8,81.2301 18.6625,81.3926 Q18.4625,81.6301 18.1438,81.7613 Q17.725,81.9426 17.2125,81.9426 Q16.6125,81.9426 16.1313,81.7051 Q15.7438,81.5176 15.4688,81.1113 Q15.2,80.7051 15.2,80.2238 L15.2,79.7863 Q15.2,79.2863 15.4375,78.8488 Q15.6813,78.4113 16.1,78.1801 Q16.525,77.9426 17,77.9426 Q17.2875,77.9426 17.5375,78.0426 Q17.7875,78.1426 18,78.3426 Z " fill="#000000"/><text fill="#000000" font-family="sans-serif" font-size="4.8" lengthAdjust="spacing" textLength="28" x="22.8" y="81.7066">PortManager</text><!--MD5=[76562047389981627aea27c31a97aff5]
class CargoManifest--><rect codeLine="47" fill="#FEFECE" filter="url(#fa097mcd98nm4)" height="21.5344" id="CargoManifest" style="stroke:#A80036;stroke-width:0.6000000000000001;" width="44.8" x="319.6" y="441.3426"/><ellipse cx="325.6" cy="447.7426" fill="#ADD1B2" rx="4.4" ry="4.4" style="stroke:#A80036;stroke-width:0.4000000000000001;"/><path d="M326.4,446.3426 Q326.4813,446.1426 326.575,446.0426 Q326.6688,445.9426 326.775,445.9426 Q326.9625,445.9426 327.0813,446.0551 Q327.2,446.1676 327.2,446.4301 L327.2,447.0551 Q327.2,447.3176 327.0875,447.4301 Q326.975,447.5426 326.8,447.5426 Q326.6438,447.5426 326.5438,447.4738 Q326.4438,447.4051 326.4,447.2238 Q326.3813,447.0988 326.3125,447.0301 Q326.1875,446.8988 325.9625,446.8238 Q325.7375,446.7426 325.5125,446.7426 Q325.2313,446.7426 324.9938,446.8551 Q324.7625,446.9676 324.5813,447.2176 Q324.4,447.4676 324.4,447.8113 L324.4,448.1801 Q324.4,448.5926 324.7375,448.8676 Q325.075,449.1426 325.675,449.1426 Q326.0313,449.1426 326.2813,449.0613 Q326.425,449.0176 326.5875,448.8738 Q326.6938,448.7926 326.75,448.7676 Q326.8063,448.7426 326.875,448.7426 Q327.0063,448.7426 327.1,448.8488 Q327.2,448.9488 327.2,449.0926 Q327.2,449.2301 327.0625,449.3926 Q326.8625,449.6301 326.5438,449.7613 Q326.125,449.9426 325.6125,449.9426 Q325.0125,449.9426 324.5313,449.7051 Q324.1438,449.5176 323.8688,449.1113 Q323.6,448.7051 323.6,448.2238 L323.6,447.7863 Q323.6,447.2863 323.8375,446.8488 Q324.0813,446.4113 324.5,446.1801 Q324.925,445.9426 325.4,445.9426 Q325.6875,445.9426 325.9375,446.0426 Q326.1875,446.1426 326.4,446.3426 Z " fill="#000000"/><text fill="#000000" font-family="sans-serif" font-size="4.8" lengthAdjust="spacing" textLength="32" x="331.2" y="449.7066">CargoManifest</text><line style="stroke:#A80036;stroke-width:0.6000000000000001;" x1="320" x2="364" y1="454.1426" y2="454.1426"/><text fill="#000000" font-family="sans-serif" font-size="4.4" lengthAdjust="spacing" textLength="32.4" x="322" y="460.3102">-cargoManifestId</text><!--MD5=[0dc7f2ddb409b58bcf52b12238c25399]
class Ship--><rect codeLine="52" fill="#FEFECE" filter="url(#fa097mcd98nm4)" height="43.6719" id="Ship" style="stroke:#A80036;stroke-width:0.6000000000000001;" width="29.2" x="116.6" y="292.3426"/><ellipse cx="125.48" cy="298.7426" fill="#ADD1B2" rx="4.4" ry="4.4" style="stroke:#A80036;stroke-width:0.4000000000000001;"/><path d="M126.28,297.3426 Q126.3613,297.1426 126.455,297.0426 Q126.5488,296.9426 126.655,296.9426 Q126.8425,296.9426 126.9613,297.0551 Q127.08,297.1676 127.08,297.4301 L127.08,298.0551 Q127.08,298.3176 126.9675,298.4301 Q126.855,298.5426 126.68,298.5426 Q126.5238,298.5426 126.4238,298.4738 Q126.3238,298.4051 126.28,298.2238 Q126.2613,298.0988 126.1925,298.0301 Q126.0675,297.8988 125.8425,297.8238 Q125.6175,297.7426 125.3925,297.7426 Q125.1113,297.7426 124.8738,297.8551 Q124.6425,297.9676 124.4613,298.2176 Q124.28,298.4676 124.28,298.8113 L124.28,299.1801 Q124.28,299.5926 124.6175,299.8676 Q124.955,300.1426 125.555,300.1426 Q125.9113,300.1426 126.1613,300.0613 Q126.305,300.0176 126.4675,299.8738 Q126.5738,299.7926 126.63,299.7676 Q126.6863,299.7426 126.755,299.7426 Q126.8863,299.7426 126.98,299.8488 Q127.08,299.9488 127.08,300.0926 Q127.08,300.2301 126.9425,300.3926 Q126.7425,300.6301 126.4238,300.7613 Q126.005,300.9426 125.4925,300.9426 Q124.8925,300.9426 124.4113,300.7051 Q124.0238,300.5176 123.7488,300.1113 Q123.48,299.7051 123.48,299.2238 L123.48,298.7863 Q123.48,298.2863 123.7175,297.8488 Q123.9613,297.4113 124.38,297.1801 Q124.805,296.9426 125.28,296.9426 Q125.5675,296.9426 125.8175,297.0426 Q126.0675,297.1426 126.28,297.3426 Z " fill="#000000"/><text fill="#000000" font-family="sans-serif" font-size="4.8" lengthAdjust="spacing" textLength="10" x="131.72" y="300.7066">Ship</text><line style="stroke:#A80036;stroke-width:0.6000000000000001;" x1="117" x2="145.4" y1="305.1426" y2="305.1426"/><text fill="#000000" font-family="sans-serif" font-size="4.4" lengthAdjust="spacing" textLength="24.4" x="119" y="311.3102">-mmmsiCode</text><text fill="#000000" font-family="sans-serif" font-size="4.4" lengthAdjust="spacing" textLength="20.4" x="119" y="316.8445">-shipName</text><text fill="#000000" font-family="sans-serif" font-size="4.4" lengthAdjust="spacing" textLength="18" x="119" y="322.3789">-imoCode</text><text fill="#000000" font-family="sans-serif" font-size="4.4" lengthAdjust="spacing" textLength="19.6" x="119" y="327.9133">-callSignId</text><text fill="#000000" font-family="sans-serif" font-size="4.4" lengthAdjust="spacing" textLength="10.8" x="119" y="333.4477">-draft</text><!--MD5=[c3595080bead4b0218f76e921c99c6ce]
class PositionInVehicle--><rect codeLine="61" fill="#FEFECE" filter="url(#fa097mcd98nm4)" height="32.6031" id="PositionInVehicle" style="stroke:#A80036;stroke-width:0.6000000000000001;" width="62.4" x="420.4" y="471.7426"/><ellipse cx="431.62" cy="478.1426" fill="#ADD1B2" rx="4.4" ry="4.4" style="stroke:#A80036;stroke-width:0.4000000000000001;"/><path d="M432.42,476.7426 Q432.5013,476.5426 432.595,476.4426 Q432.6888,476.3426 432.795,476.3426 Q432.9825,476.3426 433.1013,476.4551 Q433.22,476.5676 433.22,476.8301 L433.22,477.4551 Q433.22,477.7176 433.1075,477.8301 Q432.995,477.9426 432.82,477.9426 Q432.6638,477.9426 432.5638,477.8738 Q432.4638,477.8051 432.42,477.6238 Q432.4013,477.4988 432.3325,477.4301 Q432.2075,477.2988 431.9825,477.2238 Q431.7575,477.1426 431.5325,477.1426 Q431.2513,477.1426 431.0138,477.2551 Q430.7825,477.3676 430.6013,477.6176 Q430.42,477.8676 430.42,478.2113 L430.42,478.5801 Q430.42,478.9926 430.7575,479.2676 Q431.095,479.5426 431.695,479.5426 Q432.0513,479.5426 432.3013,479.4613 Q432.445,479.4176 432.6075,479.2738 Q432.7138,479.1926 432.77,479.1676 Q432.8263,479.1426 432.895,479.1426 Q433.0263,479.1426 433.12,479.2488 Q433.22,479.3488 433.22,479.4926 Q433.22,479.6301 433.0825,479.7926 Q432.8825,480.0301 432.5638,480.1613 Q432.145,480.3426 431.6325,480.3426 Q431.0325,480.3426 430.5513,480.1051 Q430.1638,479.9176 429.8888,479.5113 Q429.62,479.1051 429.62,478.6238 L429.62,478.1863 Q429.62,477.6863 429.8575,477.2488 Q430.1013,476.8113 430.52,476.5801 Q430.945,476.3426 431.42,476.3426 Q431.7075,476.3426 431.9575,476.4426 Q432.2075,476.5426 432.42,476.7426 Z " fill="#000000"/><text fill="#000000" font-family="sans-serif" font-size="4.8" lengthAdjust="spacing" textLength="38" x="438.38" y="480.1066">PositionInVehicle</text><line style="stroke:#A80036;stroke-width:0.6000000000000001;" x1="420.8" x2="482.4" y1="484.5426" y2="484.5426"/><text fill="#000000" font-family="sans-serif" font-size="4.4" lengthAdjust="spacing" textLength="57.2" x="422.8" y="490.7102">-containerPositionInVehiculeX</text><text fill="#000000" font-family="sans-serif" font-size="4.4" lengthAdjust="spacing" textLength="57.6" x="422.8" y="496.2445">-containerPositionInVehiculeY</text><text fill="#000000" font-family="sans-serif" font-size="4.4" lengthAdjust="spacing" textLength="57.2" x="422.8" y="501.7789">-containerPositionInVehiculeZ</text><!--MD5=[cf9c7d7c3da40397ddde4f51b7097da6]
class VesselType--><rect codeLine="67" fill="#FEFECE" filter="url(#fa097mcd98nm4)" height="38.1375" id="VesselType" style="stroke:#A80036;stroke-width:0.6000000000000001;" width="38.4" x="209.4" y="168.3426"/><ellipse cx="215.4" cy="174.7426" fill="#ADD1B2" rx="4.4" ry="4.4" style="stroke:#A80036;stroke-width:0.4000000000000001;"/><path d="M216.2,173.3426 Q216.2813,173.1426 216.375,173.0426 Q216.4688,172.9426 216.575,172.9426 Q216.7625,172.9426 216.8813,173.0551 Q217,173.1676 217,173.4301 L217,174.0551 Q217,174.3176 216.8875,174.4301 Q216.775,174.5426 216.6,174.5426 Q216.4438,174.5426 216.3438,174.4738 Q216.2438,174.4051 216.2,174.2238 Q216.1813,174.0988 216.1125,174.0301 Q215.9875,173.8988 215.7625,173.8238 Q215.5375,173.7426 215.3125,173.7426 Q215.0313,173.7426 214.7938,173.8551 Q214.5625,173.9676 214.3813,174.2176 Q214.2,174.4676 214.2,174.8113 L214.2,175.1801 Q214.2,175.5926 214.5375,175.8676 Q214.875,176.1426 215.475,176.1426 Q215.8313,176.1426 216.0813,176.0613 Q216.225,176.0176 216.3875,175.8738 Q216.4938,175.7926 216.55,175.7676 Q216.6063,175.7426 216.675,175.7426 Q216.8063,175.7426 216.9,175.8488 Q217,175.9488 217,176.0926 Q217,176.2301 216.8625,176.3926 Q216.6625,176.6301 216.3438,176.7613 Q215.925,176.9426 215.4125,176.9426 Q214.8125,176.9426 214.3313,176.7051 Q213.9438,176.5176 213.6688,176.1113 Q213.4,175.7051 213.4,175.2238 L213.4,174.7863 Q213.4,174.2863 213.6375,173.8488 Q213.8813,173.4113 214.3,173.1801 Q214.725,172.9426 215.2,172.9426 Q215.4875,172.9426 215.7375,173.0426 Q215.9875,173.1426 216.2,173.3426 Z " fill="#000000"/><text fill="#000000" font-family="sans-serif" font-size="4.8" lengthAdjust="spacing" textLength="25.6" x="221" y="176.7066">VesselType</text><line style="stroke:#A80036;stroke-width:0.6000000000000001;" x1="209.8" x2="247.4" y1="181.1426" y2="181.1426"/><text fill="#000000" font-family="sans-serif" font-size="4.4" lengthAdjust="spacing" textLength="27.2" x="211.8" y="187.3102">-vesselTypeId</text><text fill="#000000" font-family="sans-serif" font-size="4.4" lengthAdjust="spacing" textLength="13.2" x="211.8" y="192.8445">-length</text><text fill="#000000" font-family="sans-serif" font-size="4.4" lengthAdjust="spacing" textLength="12.4" x="211.8" y="198.3789">-width</text><text fill="#000000" font-family="sans-serif" font-size="4.4" lengthAdjust="spacing" textLength="26.4" x="211.8" y="203.9133">-maxCapacity</text><!--MD5=[1c0c3765e68dc4575d559b566278b914]
class ShipPosition--><rect codeLine="74" fill="#FEFECE" filter="url(#fa097mcd98nm4)" height="60.275" id="ShipPosition" style="stroke:#A80036;stroke-width:0.6000000000000001;" width="40.8" x="208.2" y="370.3426"/><ellipse cx="214.2" cy="376.7426" fill="#ADD1B2" rx="4.4" ry="4.4" style="stroke:#A80036;stroke-width:0.4000000000000001;"/><path d="M215,375.3426 Q215.0813,375.1426 215.175,375.0426 Q215.2688,374.9426 215.375,374.9426 Q215.5625,374.9426 215.6813,375.0551 Q215.8,375.1676 215.8,375.4301 L215.8,376.0551 Q215.8,376.3176 215.6875,376.4301 Q215.575,376.5426 215.4,376.5426 Q215.2438,376.5426 215.1438,376.4738 Q215.0438,376.4051 215,376.2238 Q214.9813,376.0988 214.9125,376.0301 Q214.7875,375.8988 214.5625,375.8238 Q214.3375,375.7426 214.1125,375.7426 Q213.8313,375.7426 213.5938,375.8551 Q213.3625,375.9676 213.1813,376.2176 Q213,376.4676 213,376.8113 L213,377.1801 Q213,377.5926 213.3375,377.8676 Q213.675,378.1426 214.275,378.1426 Q214.6313,378.1426 214.8813,378.0613 Q215.025,378.0176 215.1875,377.8738 Q215.2938,377.7926 215.35,377.7676 Q215.4063,377.7426 215.475,377.7426 Q215.6063,377.7426 215.7,377.8488 Q215.8,377.9488 215.8,378.0926 Q215.8,378.2301 215.6625,378.3926 Q215.4625,378.6301 215.1438,378.7613 Q214.725,378.9426 214.2125,378.9426 Q213.6125,378.9426 213.1313,378.7051 Q212.7438,378.5176 212.4688,378.1113 Q212.2,377.7051 212.2,377.2238 L212.2,376.7863 Q212.2,376.2863 212.4375,375.8488 Q212.6813,375.4113 213.1,375.1801 Q213.525,374.9426 214,374.9426 Q214.2875,374.9426 214.5375,375.0426 Q214.7875,375.1426 215,375.3426 Z " fill="#000000"/><text fill="#000000" font-family="sans-serif" font-size="4.8" lengthAdjust="spacing" textLength="28" x="219.8" y="378.7066">ShipPosition</text><line style="stroke:#A80036;stroke-width:0.6000000000000001;" x1="208.6" x2="248.6" y1="383.1426" y2="383.1426"/><text fill="#000000" font-family="sans-serif" font-size="4.4" lengthAdjust="spacing" textLength="28.8" x="210.6" y="389.3102">-baseDateTime</text><text fill="#000000" font-family="sans-serif" font-size="4.4" lengthAdjust="spacing" textLength="15.2" x="210.6" y="394.8445">-latitude</text><text fill="#000000" font-family="sans-serif" font-size="4.4" lengthAdjust="spacing" textLength="18.8" x="210.6" y="400.3789">-longitude</text><text fill="#000000" font-family="sans-serif" font-size="4.4" lengthAdjust="spacing" textLength="8.8" x="210.6" y="405.9133">-sog</text><text fill="#000000" font-family="sans-serif" font-size="4.4" lengthAdjust="spacing" textLength="8.8" x="210.6" y="411.4477">-cog</text><text fill="#000000" font-family="sans-serif" font-size="4.4" lengthAdjust="spacing" textLength="16.8" x="210.6" y="416.982">-heading</text><text fill="#000000" font-family="sans-serif" font-size="4.4" lengthAdjust="spacing" textLength="16.4" x="210.6" y="422.5164">-position</text><text fill="#000000" font-family="sans-serif" font-size="4.4" lengthAdjust="spacing" textLength="23.6" x="210.6" y="428.0508">-transceiver</text><!--MD5=[a0bfe97ac0a38e6e74cc1c7c7b744b71]
class Port--><rect codeLine="86" fill="#FEFECE" filter="url(#fa097mcd98nm4)" height="27.0688" id="Port" style="stroke:#A80036;stroke-width:0.6000000000000001;" width="30.4" x="436.4" y="126.5426"/><ellipse cx="446.36" cy="132.9426" fill="#ADD1B2" rx="4.4" ry="4.4" style="stroke:#A80036;stroke-width:0.4000000000000001;"/><path d="M447.16,131.5426 Q447.2413,131.3426 447.335,131.2426 Q447.4288,131.1426 447.535,131.1426 Q447.7225,131.1426 447.8413,131.2551 Q447.96,131.3676 447.96,131.6301 L447.96,132.2551 Q447.96,132.5176 447.8475,132.6301 Q447.735,132.7426 447.56,132.7426 Q447.4038,132.7426 447.3038,132.6738 Q447.2038,132.6051 447.16,132.4238 Q447.1413,132.2988 447.0725,132.2301 Q446.9475,132.0988 446.7225,132.0238 Q446.4975,131.9426 446.2725,131.9426 Q445.9913,131.9426 445.7538,132.0551 Q445.5225,132.1676 445.3413,132.4176 Q445.16,132.6676 445.16,133.0113 L445.16,133.3801 Q445.16,133.7926 445.4975,134.0676 Q445.835,134.3426 446.435,134.3426 Q446.7913,134.3426 447.0413,134.2613 Q447.185,134.2176 447.3475,134.0738 Q447.4538,133.9926 447.51,133.9676 Q447.5663,133.9426 447.635,133.9426 Q447.7663,133.9426 447.86,134.0488 Q447.96,134.1488 447.96,134.2926 Q447.96,134.4301 447.8225,134.5926 Q447.6225,134.8301 447.3038,134.9613 Q446.885,135.1426 446.3725,135.1426 Q445.7725,135.1426 445.2913,134.9051 Q444.9038,134.7176 444.6288,134.3113 Q444.36,133.9051 444.36,133.4238 L444.36,132.9863 Q444.36,132.4863 444.5975,132.0488 Q444.8413,131.6113 445.26,131.3801 Q445.685,131.1426 446.16,131.1426 Q446.4475,131.1426 446.6975,131.2426 Q446.9475,131.3426 447.16,131.5426 Z " fill="#000000"/><text fill="#000000" font-family="sans-serif" font-size="4.8" lengthAdjust="spacing" textLength="8.8" x="452.84" y="134.9066">Port</text><line style="stroke:#A80036;stroke-width:0.6000000000000001;" x1="436.8" x2="466.4" y1="139.3426" y2="139.3426"/><text fill="#000000" font-family="sans-serif" font-size="4.4" lengthAdjust="spacing" textLength="25.6" x="438.8" y="145.5102">-identification</text><text fill="#000000" font-family="sans-serif" font-size="4.4" lengthAdjust="spacing" textLength="12" x="438.8" y="151.0445">-name</text><!--MD5=[c5149b4909ffd2688ff51a939867f774]
class Warehouse--><rect codeLine="91" fill="#FEFECE" filter="url(#fa097mcd98nm4)" height="27.0688" id="Warehouse" style="stroke:#A80036;stroke-width:0.6000000000000001;" width="38.4" x="112" y="19.7426"/><ellipse cx="118" cy="26.1426" fill="#ADD1B2" rx="4.4" ry="4.4" style="stroke:#A80036;stroke-width:0.4000000000000001;"/><path d="M118.8,24.7426 Q118.8813,24.5426 118.975,24.4426 Q119.0688,24.3426 119.175,24.3426 Q119.3625,24.3426 119.4813,24.4551 Q119.6,24.5676 119.6,24.8301 L119.6,25.4551 Q119.6,25.7176 119.4875,25.8301 Q119.375,25.9426 119.2,25.9426 Q119.0438,25.9426 118.9438,25.8738 Q118.8438,25.8051 118.8,25.6238 Q118.7813,25.4988 118.7125,25.4301 Q118.5875,25.2988 118.3625,25.2238 Q118.1375,25.1426 117.9125,25.1426 Q117.6313,25.1426 117.3938,25.2551 Q117.1625,25.3676 116.9813,25.6176 Q116.8,25.8676 116.8,26.2113 L116.8,26.5801 Q116.8,26.9926 117.1375,27.2676 Q117.475,27.5426 118.075,27.5426 Q118.4313,27.5426 118.6813,27.4613 Q118.825,27.4176 118.9875,27.2738 Q119.0938,27.1926 119.15,27.1676 Q119.2063,27.1426 119.275,27.1426 Q119.4063,27.1426 119.5,27.2488 Q119.6,27.3488 119.6,27.4926 Q119.6,27.6301 119.4625,27.7926 Q119.2625,28.0301 118.9438,28.1613 Q118.525,28.3426 118.0125,28.3426 Q117.4125,28.3426 116.9313,28.1051 Q116.5438,27.9176 116.2688,27.5113 Q116,27.1051 116,26.6238 L116,26.1863 Q116,25.6863 116.2375,25.2488 Q116.4813,24.8113 116.9,24.5801 Q117.325,24.3426 117.8,24.3426 Q118.0875,24.3426 118.3375,24.4426 Q118.5875,24.5426 118.8,24.7426 Z " fill="#000000"/><text fill="#000000" font-family="sans-serif" font-size="4.8" lengthAdjust="spacing" textLength="25.6" x="123.6" y="28.1066">Warehouse</text><line style="stroke:#A80036;stroke-width:0.6000000000000001;" x1="112.4" x2="150" y1="32.5426" y2="32.5426"/><text fill="#000000" font-family="sans-serif" font-size="4.4" lengthAdjust="spacing" textLength="25.6" x="114.4" y="38.7102">-identification</text><text fill="#000000" font-family="sans-serif" font-size="4.4" lengthAdjust="spacing" textLength="12" x="114.4" y="44.2445">-name</text><!--MD5=[deb4e1f6eb1e3c1256fdb830f96abfbb]
class Country--><rect codeLine="96" fill="#FEFECE" filter="url(#fa097mcd98nm4)" height="27.0688" id="Country" style="stroke:#A80036;stroke-width:0.6000000000000001;" width="43.6" x="623.6" y="73.3426"/><ellipse cx="635.9" cy="79.7426" fill="#ADD1B2" rx="4.4" ry="4.4" style="stroke:#A80036;stroke-width:0.4000000000000001;"/><path d="M636.7,78.3426 Q636.7813,78.1426 636.875,78.0426 Q636.9688,77.9426 637.075,77.9426 Q637.2625,77.9426 637.3813,78.0551 Q637.5,78.1676 637.5,78.4301 L637.5,79.0551 Q637.5,79.3176 637.3875,79.4301 Q637.275,79.5426 637.1,79.5426 Q636.9438,79.5426 636.8438,79.4738 Q636.7438,79.4051 636.7,79.2238 Q636.6813,79.0988 636.6125,79.0301 Q636.4875,78.8988 636.2625,78.8238 Q636.0375,78.7426 635.8125,78.7426 Q635.5313,78.7426 635.2938,78.8551 Q635.0625,78.9676 634.8813,79.2176 Q634.7,79.4676 634.7,79.8113 L634.7,80.1801 Q634.7,80.5926 635.0375,80.8676 Q635.375,81.1426 635.975,81.1426 Q636.3313,81.1426 636.5813,81.0613 Q636.725,81.0176 636.8875,80.8738 Q636.9938,80.7926 637.05,80.7676 Q637.1063,80.7426 637.175,80.7426 Q637.3063,80.7426 637.4,80.8488 Q637.5,80.9488 637.5,81.0926 Q637.5,81.2301 637.3625,81.3926 Q637.1625,81.6301 636.8438,81.7613 Q636.425,81.9426 635.9125,81.9426 Q635.3125,81.9426 634.8313,81.7051 Q634.4438,81.5176 634.1688,81.1113 Q633.9,80.7051 633.9,80.2238 L633.9,79.7863 Q633.9,79.2863 634.1375,78.8488 Q634.3813,78.4113 634.8,78.1801 Q635.225,77.9426 635.7,77.9426 Q635.9875,77.9426 636.2375,78.0426 Q636.4875,78.1426 636.7,78.3426 Z " fill="#000000"/><text fill="#000000" font-family="sans-serif" font-size="4.8" lengthAdjust="spacing" textLength="16.8" x="642.9" y="81.7066">Country</text><line style="stroke:#A80036;stroke-width:0.6000000000000001;" x1="624" x2="666.8" y1="86.1426" y2="86.1426"/><text fill="#000000" font-family="sans-serif" font-size="4.4" lengthAdjust="spacing" textLength="38.8" x="626" y="92.3102">-countryDesignation</text><text fill="#000000" font-family="sans-serif" font-size="4.4" lengthAdjust="spacing" textLength="19.2" x="626" y="97.8445">-continent</text><!--MD5=[9febfb2ff9adfe183e01ff702b9c1c02]
class PlaceLocation--><rect codeLine="101" fill="#FEFECE" filter="url(#fa097mcd98nm4)" height="27.0688" id="PlaceLocation" style="stroke:#A80036;stroke-width:0.6000000000000001;" width="44" x="541.2" y="73.3426"/><ellipse cx="547.2" cy="79.7426" fill="#ADD1B2" rx="4.4" ry="4.4" style="stroke:#A80036;stroke-width:0.4000000000000001;"/><path d="M548,78.3426 Q548.0813,78.1426 548.175,78.0426 Q548.2688,77.9426 548.375,77.9426 Q548.5625,77.9426 548.6813,78.0551 Q548.8,78.1676 548.8,78.4301 L548.8,79.0551 Q548.8,79.3176 548.6875,79.4301 Q548.575,79.5426 548.4,79.5426 Q548.2438,79.5426 548.1438,79.4738 Q548.0438,79.4051 548,79.2238 Q547.9813,79.0988 547.9125,79.0301 Q547.7875,78.8988 547.5625,78.8238 Q547.3375,78.7426 547.1125,78.7426 Q546.8313,78.7426 546.5938,78.8551 Q546.3625,78.9676 546.1813,79.2176 Q546,79.4676 546,79.8113 L546,80.1801 Q546,80.5926 546.3375,80.8676 Q546.675,81.1426 547.275,81.1426 Q547.6313,81.1426 547.8813,81.0613 Q548.025,81.0176 548.1875,80.8738 Q548.2938,80.7926 548.35,80.7676 Q548.4063,80.7426 548.475,80.7426 Q548.6063,80.7426 548.7,80.8488 Q548.8,80.9488 548.8,81.0926 Q548.8,81.2301 548.6625,81.3926 Q548.4625,81.6301 548.1438,81.7613 Q547.725,81.9426 547.2125,81.9426 Q546.6125,81.9426 546.1313,81.7051 Q545.7438,81.5176 545.4688,81.1113 Q545.2,80.7051 545.2,80.2238 L545.2,79.7863 Q545.2,79.2863 545.4375,78.8488 Q545.6813,78.4113 546.1,78.1801 Q546.525,77.9426 547,77.9426 Q547.2875,77.9426 547.5375,78.0426 Q547.7875,78.1426 548,78.3426 Z " fill="#000000"/><text fill="#000000" font-family="sans-serif" font-size="4.8" lengthAdjust="spacing" textLength="31.2" x="552.8" y="81.7066">PlaceLocation</text><line style="stroke:#A80036;stroke-width:0.6000000000000001;" x1="541.6" x2="584.8" y1="86.1426" y2="86.1426"/><text fill="#000000" font-family="sans-serif" font-size="4.4" lengthAdjust="spacing" textLength="31.6" x="543.6" y="92.3102">-locationLatitude</text><text fill="#000000" font-family="sans-serif" font-size="4.4" lengthAdjust="spacing" textLength="35.2" x="543.6" y="97.8445">-locationLongitude</text><!--MD5=[236b5af2ac259ce183175d6cd13df6a1]
class EnergyPower--><rect codeLine="106" fill="#FEFECE" filter="url(#fa097mcd98nm4)" height="27.0688" id="EnergyPower" style="stroke:#A80036;stroke-width:0.6000000000000001;" width="50" x="203.6" y="300.5426"/><ellipse cx="213.2" cy="306.9426" fill="#ADD1B2" rx="4.4" ry="4.4" style="stroke:#A80036;stroke-width:0.4000000000000001;"/><path d="M214,305.5426 Q214.0813,305.3426 214.175,305.2426 Q214.2688,305.1426 214.375,305.1426 Q214.5625,305.1426 214.6813,305.2551 Q214.8,305.3676 214.8,305.6301 L214.8,306.2551 Q214.8,306.5176 214.6875,306.6301 Q214.575,306.7426 214.4,306.7426 Q214.2438,306.7426 214.1438,306.6738 Q214.0438,306.6051 214,306.4238 Q213.9813,306.2988 213.9125,306.2301 Q213.7875,306.0988 213.5625,306.0238 Q213.3375,305.9426 213.1125,305.9426 Q212.8313,305.9426 212.5938,306.0551 Q212.3625,306.1676 212.1813,306.4176 Q212,306.6676 212,307.0113 L212,307.3801 Q212,307.7926 212.3375,308.0676 Q212.675,308.3426 213.275,308.3426 Q213.6313,308.3426 213.8813,308.2613 Q214.025,308.2176 214.1875,308.0738 Q214.2938,307.9926 214.35,307.9676 Q214.4063,307.9426 214.475,307.9426 Q214.6063,307.9426 214.7,308.0488 Q214.8,308.1488 214.8,308.2926 Q214.8,308.4301 214.6625,308.5926 Q214.4625,308.8301 214.1438,308.9613 Q213.725,309.1426 213.2125,309.1426 Q212.6125,309.1426 212.1313,308.9051 Q211.7438,308.7176 211.4688,308.3113 Q211.2,307.9051 211.2,307.4238 L211.2,306.9863 Q211.2,306.4863 211.4375,306.0488 Q211.6813,305.6113 212.1,305.3801 Q212.525,305.1426 213,305.1426 Q213.2875,305.1426 213.5375,305.2426 Q213.7875,305.3426 214,305.5426 Z " fill="#000000"/><text fill="#000000" font-family="sans-serif" font-size="4.8" lengthAdjust="spacing" textLength="29.2" x="219.6" y="308.9066">EnergyPower</text><line style="stroke:#A80036;stroke-width:0.6000000000000001;" x1="204" x2="253.2" y1="313.3426" y2="313.3426"/><text fill="#000000" font-family="sans-serif" font-size="4.4" lengthAdjust="spacing" textLength="45.2" x="206" y="319.5102">-numEnergyGenerators</text><text fill="#000000" font-family="sans-serif" font-size="4.4" lengthAdjust="spacing" textLength="35.6" x="206" y="325.0445">-generatorsPower</text><!--MD5=[f2ba7f6ab60af8dd0d3e354f91729b14]
class Truck--><rect codeLine="111" fill="#FEFECE" filter="url(#fa097mcd98nm4)" height="12.8" id="Truck" style="stroke:#A80036;stroke-width:0.6000000000000001;" width="24.8" x="118.8" y="453.7426"/><ellipse cx="124.8" cy="460.1426" fill="#ADD1B2" rx="4.4" ry="4.4" style="stroke:#A80036;stroke-width:0.4000000000000001;"/><path d="M125.6,458.7426 Q125.6813,458.5426 125.775,458.4426 Q125.8688,458.3426 125.975,458.3426 Q126.1625,458.3426 126.2813,458.4551 Q126.4,458.5676 126.4,458.8301 L126.4,459.4551 Q126.4,459.7176 126.2875,459.8301 Q126.175,459.9426 126,459.9426 Q125.8438,459.9426 125.7438,459.8738 Q125.6438,459.8051 125.6,459.6238 Q125.5813,459.4988 125.5125,459.4301 Q125.3875,459.2988 125.1625,459.2238 Q124.9375,459.1426 124.7125,459.1426 Q124.4313,459.1426 124.1938,459.2551 Q123.9625,459.3676 123.7813,459.6176 Q123.6,459.8676 123.6,460.2113 L123.6,460.5801 Q123.6,460.9926 123.9375,461.2676 Q124.275,461.5426 124.875,461.5426 Q125.2313,461.5426 125.4813,461.4613 Q125.625,461.4176 125.7875,461.2738 Q125.8938,461.1926 125.95,461.1676 Q126.0063,461.1426 126.075,461.1426 Q126.2063,461.1426 126.3,461.2488 Q126.4,461.3488 126.4,461.4926 Q126.4,461.6301 126.2625,461.7926 Q126.0625,462.0301 125.7438,462.1613 Q125.325,462.3426 124.8125,462.3426 Q124.2125,462.3426 123.7313,462.1051 Q123.3438,461.9176 123.0688,461.5113 Q122.8,461.1051 122.8,460.6238 L122.8,460.1863 Q122.8,459.6863 123.0375,459.2488 Q123.2813,458.8113 123.7,458.5801 Q124.125,458.3426 124.6,458.3426 Q124.8875,458.3426 125.1375,458.4426 Q125.3875,458.5426 125.6,458.7426 Z " fill="#000000"/><text fill="#000000" font-family="sans-serif" font-size="4.8" lengthAdjust="spacing" textLength="12" x="130.4" y="462.1066">Truck</text><!--MD5=[f8e092794d52bf9a252466252ae7bd1c]
class System--><rect codeLine="115" fill="#FEFECE" filter="url(#fa097mcd98nm4)" height="12.8" id="System" style="stroke:#A80036;stroke-width:0.6000000000000001;" width="29.2" x="214" y="101.3426"/><ellipse cx="220" cy="107.7426" fill="#ADD1B2" rx="4.4" ry="4.4" style="stroke:#A80036;stroke-width:0.4000000000000001;"/><path d="M220.8,106.3426 Q220.8813,106.1426 220.975,106.0426 Q221.0688,105.9426 221.175,105.9426 Q221.3625,105.9426 221.4813,106.0551 Q221.6,106.1676 221.6,106.4301 L221.6,107.0551 Q221.6,107.3176 221.4875,107.4301 Q221.375,107.5426 221.2,107.5426 Q221.0438,107.5426 220.9438,107.4738 Q220.8438,107.4051 220.8,107.2238 Q220.7813,107.0988 220.7125,107.0301 Q220.5875,106.8988 220.3625,106.8238 Q220.1375,106.7426 219.9125,106.7426 Q219.6313,106.7426 219.3938,106.8551 Q219.1625,106.9676 218.9813,107.2176 Q218.8,107.4676 218.8,107.8113 L218.8,108.1801 Q218.8,108.5926 219.1375,108.8676 Q219.475,109.1426 220.075,109.1426 Q220.4313,109.1426 220.6813,109.0613 Q220.825,109.0176 220.9875,108.8738 Q221.0938,108.7926 221.15,108.7676 Q221.2063,108.7426 221.275,108.7426 Q221.4063,108.7426 221.5,108.8488 Q221.6,108.9488 221.6,109.0926 Q221.6,109.2301 221.4625,109.3926 Q221.2625,109.6301 220.9438,109.7613 Q220.525,109.9426 220.0125,109.9426 Q219.4125,109.9426 218.9313,109.7051 Q218.5438,109.5176 218.2688,109.1113 Q218,108.7051 218,108.2238 L218,107.7863 Q218,107.2863 218.2375,106.8488 Q218.4813,106.4113 218.9,106.1801 Q219.325,105.9426 219.8,105.9426 Q220.0875,105.9426 220.3375,106.0426 Q220.5875,106.1426 220.8,106.3426 Z " fill="#000000"/><text fill="#000000" font-family="sans-serif" font-size="4.8" lengthAdjust="spacing" textLength="16.4" x="225.6" y="109.7066">System</text><!--MD5=[cd383c058592010a1996452fddaad790]
class ShipTrip--><rect codeLine="118" fill="#FEFECE" filter="url(#fa097mcd98nm4)" height="65.8094" id="ShipTrip" style="stroke:#A80036;stroke-width:0.6000000000000001;" width="48" x="204.6" y="220.3426"/><ellipse cx="218.16" cy="226.7426" fill="#ADD1B2" rx="4.4" ry="4.4" style="stroke:#A80036;stroke-width:0.4000000000000001;"/><path d="M218.96,225.3426 Q219.0413,225.1426 219.135,225.0426 Q219.2288,224.9426 219.335,224.9426 Q219.5225,224.9426 219.6413,225.0551 Q219.76,225.1676 219.76,225.4301 L219.76,226.0551 Q219.76,226.3176 219.6475,226.4301 Q219.535,226.5426 219.36,226.5426 Q219.2038,226.5426 219.1038,226.4738 Q219.0038,226.4051 218.96,226.2238 Q218.9413,226.0988 218.8725,226.0301 Q218.7475,225.8988 218.5225,225.8238 Q218.2975,225.7426 218.0725,225.7426 Q217.7913,225.7426 217.5538,225.8551 Q217.3225,225.9676 217.1413,226.2176 Q216.96,226.4676 216.96,226.8113 L216.96,227.1801 Q216.96,227.5926 217.2975,227.8676 Q217.635,228.1426 218.235,228.1426 Q218.5913,228.1426 218.8413,228.0613 Q218.985,228.0176 219.1475,227.8738 Q219.2538,227.7926 219.31,227.7676 Q219.3663,227.7426 219.435,227.7426 Q219.5663,227.7426 219.66,227.8488 Q219.76,227.9488 219.76,228.0926 Q219.76,228.2301 219.6225,228.3926 Q219.4225,228.6301 219.1038,228.7613 Q218.685,228.9426 218.1725,228.9426 Q217.5725,228.9426 217.0913,228.7051 Q216.7038,228.5176 216.4288,228.1113 Q216.16,227.7051 216.16,227.2238 L216.16,226.7863 Q216.16,226.2863 216.3975,225.8488 Q216.6413,225.4113 217.06,225.1801 Q217.485,224.9426 217.96,224.9426 Q218.2475,224.9426 218.4975,225.0426 Q218.7475,225.1426 218.96,225.3426 Z " fill="#000000"/><text fill="#000000" font-family="sans-serif" font-size="4.8" lengthAdjust="spacing" textLength="18.4" x="225.44" y="228.7066">ShipTrip</text><line style="stroke:#A80036;stroke-width:0.6000000000000001;" x1="205" x2="252.2" y1="233.1426" y2="233.1426"/><text fill="#000000" font-family="sans-serif" font-size="4.4" lengthAdjust="spacing" textLength="19.2" x="207" y="239.3102">-shipMmsi</text><text fill="#000000" font-family="sans-serif" font-size="4.4" lengthAdjust="spacing" textLength="43.2" x="207" y="244.8445">-departure_location_id</text><text fill="#000000" font-family="sans-serif" font-size="4.4" lengthAdjust="spacing" textLength="36.4" x="207" y="250.3789">-arrival_location_id</text><text fill="#000000" font-family="sans-serif" font-size="4.4" lengthAdjust="spacing" textLength="34.4" x="207" y="255.9133">-loading_cargo_id</text><text fill="#000000" font-family="sans-serif" font-size="4.4" lengthAdjust="spacing" textLength="39.2" x="207" y="261.4477">-unloading_cargo_id</text><text fill="#000000" font-family="sans-serif" font-size="4.4" lengthAdjust="spacing" textLength="39.6" x="207" y="266.982">-est_departure_date</text><text fill="#000000" font-family="sans-serif" font-size="4.4" lengthAdjust="spacing" textLength="32.8" x="207" y="272.5164">-est_arrival_date</text><text fill="#000000" font-family="sans-serif" font-size="4.4" lengthAdjust="spacing" textLength="40.8" x="207" y="278.0508">-real_departure_date</text><text fill="#000000" font-family="sans-serif" font-size="4.4" lengthAdjust="spacing" textLength="34" x="207" y="283.5852">-real_arrival_date</text><!--MD5=[3fd616f346a44cd59a91eb10b19e157c]
class User--><rect fill="#FEFECE" filter="url(#fa097mcd98nm4)" height="12.8" id="User" style="stroke:#A80036;stroke-width:0.6000000000000001;" width="23.6" x="119.4" y="89.7426"/><ellipse cx="125.4" cy="96.1426" fill="#ADD1B2" rx="4.4" ry="4.4" style="stroke:#A80036;stroke-width:0.4000000000000001;"/><path d="M126.2,94.7426 Q126.2813,94.5426 126.375,94.4426 Q126.4688,94.3426 126.575,94.3426 Q126.7625,94.3426 126.8813,94.4551 Q127,94.5676 127,94.8301 L127,95.4551 Q127,95.7176 126.8875,95.8301 Q126.775,95.9426 126.6,95.9426 Q126.4438,95.9426 126.3438,95.8738 Q126.2438,95.8051 126.2,95.6238 Q126.1813,95.4988 126.1125,95.4301 Q125.9875,95.2988 125.7625,95.2238 Q125.5375,95.1426 125.3125,95.1426 Q125.0313,95.1426 124.7938,95.2551 Q124.5625,95.3676 124.3813,95.6176 Q124.2,95.8676 124.2,96.2113 L124.2,96.5801 Q124.2,96.9926 124.5375,97.2676 Q124.875,97.5426 125.475,97.5426 Q125.8313,97.5426 126.0813,97.4613 Q126.225,97.4176 126.3875,97.2738 Q126.4938,97.1926 126.55,97.1676 Q126.6063,97.1426 126.675,97.1426 Q126.8063,97.1426 126.9,97.2488 Q127,97.3488 127,97.4926 Q127,97.6301 126.8625,97.7926 Q126.6625,98.0301 126.3438,98.1613 Q125.925,98.3426 125.4125,98.3426 Q124.8125,98.3426 124.3313,98.1051 Q123.9438,97.9176 123.6688,97.5113 Q123.4,97.1051 123.4,96.6238 L123.4,96.1863 Q123.4,95.6863 123.6375,95.2488 Q123.8813,94.8113 124.3,94.5801 Q124.725,94.3426 125.2,94.3426 Q125.4875,94.3426 125.7375,94.4426 Q125.9875,94.5426 126.2,94.7426 Z " fill="#000000"/><text fill="#000000" font-family="sans-serif" font-size="4.8" lengthAdjust="spacing" textLength="10.8" x="131" y="98.1066">User</text><!--MD5=[a2a194d3aa0c5b34ec916a16bebf9a1a]
link Company to System--><path codeLine="132" d="M43.04,152.4986 C50.66,145.6626 61.372,137.2626 72.4,132.5426 C97.892,121.6266 180.54,112.4626 213.972,109.1106 " fill="none" id="Company-System" style="stroke:#A80036;stroke-width:0.4000000000000001;"/><polygon fill="#000000" points="127.9385,112.9208,124.1425,112.6715,124.7209,114.9504,127.9385,112.9208" style="stroke:#000000;stroke-width:0.4000000000000001;"/><text fill="#000000" font-family="sans-serif" font-size="5.2" lengthAdjust="spacing" textLength="8.4" x="129.6" y="115.5406">has</text><text fill="#000000" font-family="sans-serif" font-size="5.2" lengthAdjust="spacing" textLength="2.8" x="42.5618" y="148.2728">1</text><text fill="#000000" font-family="sans-serif" font-size="5.2" lengthAdjust="spacing" textLength="8" x="202.7703" y="115.3058">1..*</text><!--MD5=[4a0bbcdd6df460060db454e8e2c30a96]
link User to System--><path codeLine="133" d="M143.06,97.5186 C160.752,99.6426 194.68,103.7186 213.936,106.0306 " fill="none" id="User-System" style="stroke:#A80036;stroke-width:0.4000000000000001;"/><polygon fill="#000000" points="172.3857,96.8514,168.9337,95.2528,168.6533,97.5871,172.3857,96.8514" style="stroke:#000000;stroke-width:0.4000000000000001;"/><text fill="#000000" font-family="sans-serif" font-size="5.2" lengthAdjust="spacing" textLength="11.2" x="174" y="98.7406">uses</text><text fill="#000000" font-family="sans-serif" font-size="5.2" lengthAdjust="spacing" textLength="8" x="146.1824" y="103.8314">1..*</text><text fill="#000000" font-family="sans-serif" font-size="5.2" lengthAdjust="spacing" textLength="2.8" x="207.9734" y="104.0754">1</text><!--MD5=[d09fe284dff54f56f1e17acf5f33d2d7]
link TrafficManager to User--><path codeLine="135" d="M33.436,307.7346 C39.492,281.6466 64.868,181.5786 112,113.3426 C114.764,109.3386 118.624,105.5986 122.128,102.6386 " fill="none" id="TrafficManager-User" style="stroke:#A80036;stroke-width:0.4000000000000001;"/><polygon fill="#000000" points="75.1938,127.9772,72.6788,130.8314,74.8368,131.7646,75.1938,127.9772" style="stroke:#000000;stroke-width:0.4000000000000001;"/><text fill="#000000" font-family="sans-serif" font-size="5.2" lengthAdjust="spacing" textLength="21.6" x="78" y="131.9406">relates to</text><text fill="#000000" font-family="sans-serif" font-size="5.2" lengthAdjust="spacing" textLength="2.8" x="30.7859" y="303.454">1</text><text fill="#000000" font-family="sans-serif" font-size="5.2" lengthAdjust="spacing" textLength="2.8" x="115.9901" y="111.1496">1</text><!--MD5=[eca22a17460c8f36ce6ba9a4df99eb35]
link WarehouseManager to User--><path codeLine="137" d="M49.852,16.9546 C68.652,23.8226 96.08,34.2106 100,37.7426 C108.432,45.3346 122.248,76.1186 128.072,89.6786 " fill="none" id="WarehouseManager-User" style="stroke:#A80036;stroke-width:0.4000000000000001;"/><polygon fill="#000000" points="75.8647,23.9747,74.0155,20.6502,72.4145,22.3721,75.8647,23.9747" style="stroke:#000000;stroke-width:0.4000000000000001;"/><text fill="#000000" font-family="sans-serif" font-size="5.2" lengthAdjust="spacing" textLength="21.6" x="78" y="24.7406">relates to</text><text fill="#000000" font-family="sans-serif" font-size="5.2" lengthAdjust="spacing" textLength="2.8" x="52.6342" y="25.5599">1</text><text fill="#000000" font-family="sans-serif" font-size="5.2" lengthAdjust="spacing" textLength="2.8" x="123.7155" y="85.3788">1</text><!--MD5=[f6e70140202ab1101eb6b424775e2f43]
link PortManager to User--><path codeLine="139" d="M52.112,83.0826 C72.368,86.4426 102.904,91.5106 119.344,94.2426 " fill="none" id="PortManager-User" style="stroke:#A80036;stroke-width:0.4000000000000001;"/><polygon fill="#000000" points="76.373,83.3404,72.9963,81.5882,72.6113,83.9076,76.373,83.3404" style="stroke:#000000;stroke-width:0.4000000000000001;"/><text fill="#000000" font-family="sans-serif" font-size="5.2" lengthAdjust="spacing" textLength="21.6" x="78" y="85.1406">relates to</text><text fill="#000000" font-family="sans-serif" font-size="5.2" lengthAdjust="spacing" textLength="2.8" x="55.1934" y="89.4102">1</text><text fill="#000000" font-family="sans-serif" font-size="5.2" lengthAdjust="spacing" textLength="2.8" x="113.4786" y="99.9575">1</text><!--MD5=[a93f71c337684849482b0ec5675aa7db]
link CargoManifest to Container--><path codeLine="145" d="M332.632,463.0186 C326.356,469.8666 317.372,478.2666 307.6,482.9426 C287.848,492.3946 262.424,494.8946 245.924,495.4306 " fill="none" id="CargoManifest-Container" style="stroke:#A80036;stroke-width:0.4000000000000001;"/><text fill="#000000" font-family="sans-serif" font-size="5.2" lengthAdjust="spacing" textLength="2.8" x="327.4765" y="471.5183">1</text><text fill="#000000" font-family="sans-serif" font-size="5.2" lengthAdjust="spacing" textLength="8" x="249.056" y="495.8116">1..*</text><!--MD5=[f0bdc6c669370d32d41c923ef98b5140]
link Container to CargoManifest--><path codeLine="181" d="M245.84,490.2106 C265.38,484.1946 296.348,474.4506 307.6,469.7426 C312.32,467.7666 317.28,465.3866 321.904,463.0266 " fill="none" id="Container-CargoManifest" style="stroke:#A80036;stroke-width:0.4000000000000001;"/><polygon fill="#000000" points="269.4833,465.5398,265.6807,465.6504,266.472,467.8644,269.4833,465.5398" style="stroke:#000000;stroke-width:0.4000000000000001;"/><text fill="#000000" font-family="sans-serif" font-size="5.2" lengthAdjust="spacing" textLength="36" x="271.2" y="468.3406">associated with</text><text fill="#000000" font-family="sans-serif" font-size="5.2" lengthAdjust="spacing" textLength="8" x="248.9596" y="487.9899">1..*</text><text fill="#000000" font-family="sans-serif" font-size="5.2" lengthAdjust="spacing" textLength="8" x="308.633" y="471.5281">2..*</text><!--MD5=[e7fb3209ec5b0b32ba37b91769d7f861]
link CargoManifest to PositionInVehicle--><path codeLine="146" d="M364.416,459.4266 C380.5,464.7506 402.52,472.0346 420.352,477.9346 " fill="none" id="CargoManifest-PositionInVehicle" style="stroke:#A80036;stroke-width:0.4000000000000001;"/><polygon fill="#000000" points="383.4988,460.8411,380.4332,458.5886,379.6946,460.8207,383.4988,460.8411" style="stroke:#000000;stroke-width:0.4000000000000001;"/><text fill="#000000" font-family="sans-serif" font-size="5.2" lengthAdjust="spacing" textLength="19.6" x="385.2" y="462.3406">contains</text><text fill="#000000" font-family="sans-serif" font-size="5.2" lengthAdjust="spacing" textLength="2.8" x="367.6163" y="466.2473">1</text><text fill="#000000" font-family="sans-serif" font-size="5.2" lengthAdjust="spacing" textLength="8" x="409.2127" y="482.7235">1..*</text><!--MD5=[49c8bb1e2883d5513f9c89ff6f39a0c0]
link Container to PositionInVehicle--><path codeLine="149" d="M245.94,496.2386 C252.128,496.5226 259.176,496.8026 265.6,496.9426 C284.264,497.3506 288.944,497.5146 307.6,496.9426 C346.484,495.7506 391.208,492.7546 420.272,490.5866 " fill="none" id="Container-PositionInVehicle" style="stroke:#A80036;stroke-width:0.4000000000000001;"/><polygon fill="#000000" points="338.7989,490.5481,335.1447,489.4904,335.2209,491.8403,338.7989,490.5481" style="stroke:#000000;stroke-width:0.4000000000000001;"/><text fill="#000000" font-family="sans-serif" font-size="5.2" lengthAdjust="spacing" textLength="8.4" x="340.4" y="492.7406">has</text><text fill="#000000" font-family="sans-serif" font-size="5.2" lengthAdjust="spacing" textLength="2.8" x="249.0438" y="502.3207">1</text><text fill="#000000" font-family="sans-serif" font-size="5.2" lengthAdjust="spacing" textLength="2.8" x="414.3526" y="496.5387">1</text><!--MD5=[c324832c0212842eac80843bc02aaded]
link Ship to VesselType--><path codeLine="150" d="M145.06,292.2386 C150.304,283.9506 156.476,274.5026 162.4,266.1426 C179.612,241.8586 184.192,235.9106 203.6,213.3426 C205.544,211.0826 207.624,208.7546 209.72,206.4626 " fill="none" id="Ship-VesselType" style="stroke:#A80036;stroke-width:0.4000000000000001;"/><polygon fill="#000000" points="172.4039,223.4158,169.2873,225.5973,171.1648,227.0126,172.4039,223.4158" style="stroke:#000000;stroke-width:0.4000000000000001;"/><text fill="#000000" font-family="sans-serif" font-size="5.2" lengthAdjust="spacing" textLength="9.6" x="174.8" y="227.1406">is of</text><text fill="#000000" font-family="sans-serif" font-size="5.2" lengthAdjust="spacing" textLength="2" x="144.7077" y="288.0246">*</text><text fill="#000000" font-family="sans-serif" font-size="5.2" lengthAdjust="spacing" textLength="2.8" x="203.9414" y="215.1391">1</text><!--MD5=[f56e222e1748568825f030a9b791275e]
link Ship to ShipPosition--><path codeLine="151" d="M140.848,336.0186 C146.024,346.2706 153.28,358.0666 162.4,366.5426 C173,376.3946 178.732,374.3266 191.6,380.9426 C196.984,383.7106 202.776,386.7746 208.128,389.6386 " fill="none" id="Ship-ShipPosition" style="stroke:#A80036;stroke-width:0.4000000000000001;"/><polygon fill="#000000" points="173.364,364.2594,171.2673,361.0851,169.802,362.9238,173.364,364.2594" style="stroke:#000000;stroke-width:0.4000000000000001;"/><text fill="#000000" font-family="sans-serif" font-size="5.2" lengthAdjust="spacing" textLength="8.4" x="175.4" y="365.1406">has</text><text fill="#000000" font-family="sans-serif" font-size="5.2" lengthAdjust="spacing" textLength="2.8" x="142.2635" y="344.6339">1</text><text fill="#000000" font-family="sans-serif" font-size="5.2" lengthAdjust="spacing" textLength="8" x="196.9925" y="394.0666">1..*</text><!--MD5=[591625470abc4a5f324d9b49d40e13b3]
link Warehouse to PlaceLocation--><path codeLine="152" d="M150.48,33.3426 C169.952,33.3426 201.2,33.3426 228.2,33.3426 C228.2,33.3426 228.2,33.3426 452,33.3426 C488.648,33.3426 525.92,57.3986 546.532,73.2786 " fill="none" id="Warehouse-PlaceLocation" style="stroke:#A80036;stroke-width:0.4000000000000001;"/><polygon fill="#000000" points="328.7899,30.0135,325.3081,28.4809,325.0722,30.8202,328.7899,30.0135" style="stroke:#000000;stroke-width:0.4000000000000001;"/><text fill="#000000" font-family="sans-serif" font-size="5.2" lengthAdjust="spacing" textLength="28.4" x="330.4" y="31.9406">is located at</text><text fill="#000000" font-family="sans-serif" font-size="5.2" lengthAdjust="spacing" textLength="2.8" x="153.6466" y="39.2514">1</text><text fill="#000000" font-family="sans-serif" font-size="5.2" lengthAdjust="spacing" textLength="2.8" x="540.1749" y="68.9833">1</text><!--MD5=[32131463044e3955b9920caf90450011]
link Port to PlaceLocation--><path codeLine="153" d="M466.828,133.0226 C485.904,123.8626 519.188,107.8826 541.112,97.3586 " fill="none" id="Port-PlaceLocation" style="stroke:#A80036;stroke-width:0.4000000000000001;"/><polygon fill="#000000" points="498.603,100.1473,494.8326,100.6534,495.8502,102.7729,498.603,100.1473" style="stroke:#000000;stroke-width:0.4000000000000001;"/><text fill="#000000" font-family="sans-serif" font-size="5.2" lengthAdjust="spacing" textLength="28.4" x="500.4" y="103.1406">is located at</text><text fill="#000000" font-family="sans-serif" font-size="5.2" lengthAdjust="spacing" textLength="2.8" x="469.9977" y="137.6993">1</text><text fill="#000000" font-family="sans-serif" font-size="5.2" lengthAdjust="spacing" textLength="2.8" x="535.1558" y="104.6045">1</text><!--MD5=[3d04185e7085eaaeba7ebd93b9963be0]
link PlaceLocation to Country--><path codeLine="154" d="M585.308,86.9426 C597.128,86.9426 611.704,86.9426 623.496,86.9426 " fill="none" id="PlaceLocation-Country" style="stroke:#A80036;stroke-width:0.4000000000000001;"/><polygon fill="#000000" points="601.2,83.4129,597.582,82.2373,597.582,84.5885,601.2,83.4129" style="stroke:#000000;stroke-width:0.4000000000000001;"/><text fill="#000000" font-family="sans-serif" font-size="5.2" lengthAdjust="spacing" textLength="8.4" x="602.8" y="85.5406">in a</text><text fill="#000000" font-family="sans-serif" font-size="5.2" lengthAdjust="spacing" textLength="2" x="588.4131" y="92.7889">*</text><text fill="#000000" font-family="sans-serif" font-size="5.2" lengthAdjust="spacing" textLength="2.8" x="617.5645" y="92.7889">1</text><!--MD5=[ba54223a31981c52d18c1dd571f5520c]
link Ship to Container--><path codeLine="155" d="M139.124,336.0786 C144.808,351.7946 153.184,373.2826 162.4,391.3426 C177.5,420.9346 198.536,452.9506 212.72,473.5266 " fill="none" id="Ship-Container" style="stroke:#A80036;stroke-width:0.4000000000000001;"/><polygon fill="#000000" points="165.3441,389.576,164.6726,385.8316,162.5999,386.9414,165.3441,389.576" style="stroke:#000000;stroke-width:0.4000000000000001;"/><text fill="#000000" font-family="sans-serif" font-size="5.2" lengthAdjust="spacing" textLength="23.2" x="168" y="389.9406">transports</text><text fill="#000000" font-family="sans-serif" font-size="5.2" lengthAdjust="spacing" textLength="2.8" x="137.1191" y="344.5443">1</text><text fill="#000000" font-family="sans-serif" font-size="5.2" lengthAdjust="spacing" textLength="2" x="208.4518" y="469.1677">*</text><!--MD5=[062871d5623378d71d4c490cb56733bb]
link Truck to Container--><path codeLine="156" d="M143.64,464.5306 C160.684,470.7386 191.924,482.1226 211.292,489.1826 " fill="none" id="Truck-Container" style="stroke:#A80036;stroke-width:0.4000000000000001;"/><polygon fill="#000000" points="166.2791,468.4976,163.2822,466.1544,162.4773,468.3634,166.2791,468.4976" style="stroke:#000000;stroke-width:0.4000000000000001;"/><text fill="#000000" font-family="sans-serif" font-size="5.2" lengthAdjust="spacing" textLength="23.2" x="168" y="469.9406">transports</text><text fill="#000000" font-family="sans-serif" font-size="5.2" lengthAdjust="spacing" textLength="2" x="146.748" y="471.6996">*</text><text fill="#000000" font-family="sans-serif" font-size="5.2" lengthAdjust="spacing" textLength="2.8" x="205.3935" y="486.6361">1</text><!--MD5=[1455ab4c2639af2370608c1bbf2a9850]
link Ship to CargoManifest--><path codeLine="159" d="M145.852,317.8386 C169.592,324.4266 218.128,339.7666 253.6,363.3426 C287.492,385.8706 318.944,423.0346 333.348,441.3106 " fill="none" id="Ship-CargoManifest" style="stroke:#A80036;stroke-width:0.4000000000000001;"/><text fill="#000000" font-family="sans-serif" font-size="5.2" lengthAdjust="spacing" textLength="2.8" x="149.0122" y="324.601">1</text><text fill="#000000" font-family="sans-serif" font-size="5.2" lengthAdjust="spacing" textLength="2" x="328.9953" y="436.9135">*</text><!--MD5=[fbdfc46126a12876c1c014194abedede]
link Truck to CargoManifest--><path codeLine="160" d="M143.644,459.6826 C177.764,458.3826 275.448,454.6626 319.536,452.9826 " fill="none" id="Truck-CargoManifest" style="stroke:#A80036;stroke-width:0.4000000000000001;"/><!--MD5=[37a14a5de6d6fd738aee271300f4b5c8]
link Company to Ship--><path codeLine="168" d="M39.104,174.1866 C55.276,198.8706 95.088,259.6346 116.548,292.3866 " fill="none" id="Company-Ship" style="stroke:#A80036;stroke-width:0.4000000000000001;"/><polygon fill="#000000" points="75.6961,223.4858,74.6966,219.8152,72.7299,221.1037,75.6961,223.4858" style="stroke:#000000;stroke-width:0.4000000000000001;"/><text fill="#000000" font-family="sans-serif" font-size="5.2" lengthAdjust="spacing" textLength="21.2" x="78.2" y="223.9406">manages</text><text fill="#000000" font-family="sans-serif" font-size="5.2" lengthAdjust="spacing" textLength="2.8" x="37.6393" y="182.6793">1</text><text fill="#000000" font-family="sans-serif" font-size="5.2" lengthAdjust="spacing" textLength="8" x="105.3422" y="294.6012">1..*</text><!--MD5=[9d91f1df0c90718d85872c4ac6e523ca]
link Company to VesselType--><path codeLine="169" d="M48.772,168.3226 C55.984,170.2906 64.548,172.3986 72.4,173.7426 C121.376,182.1266 179.944,185.4746 209.368,186.6986 " fill="none" id="Company-VesselType" style="stroke:#A80036;stroke-width:0.4000000000000001;"/><polygon fill="#000000" points="126.187,176.4403,122.7261,174.861,122.4588,177.1969,126.187,176.4403" style="stroke:#000000;stroke-width:0.4000000000000001;"/><text fill="#000000" font-family="sans-serif" font-size="5.2" lengthAdjust="spacing" textLength="12" x="127.8" y="178.3406">owns</text><text fill="#000000" font-family="sans-serif" font-size="5.2" lengthAdjust="spacing" textLength="2.8" x="51.848" y="175.0925">1</text><text fill="#000000" font-family="sans-serif" font-size="5.2" lengthAdjust="spacing" textLength="8" x="198.2462" y="192.4403">1..*</text><!--MD5=[5fd98a8c03cc0e5a408f548eb1c0ace8]
link Company to Port--><path codeLine="170" d="M48.692,162.4186 C116.644,158.6586 371.912,144.5306 436.352,140.9626 " fill="none" id="Company-Port" style="stroke:#A80036;stroke-width:0.4000000000000001;"/><polygon fill="#000000" points="217.3969,147.7024,213.7195,146.7285,213.8494,149.0761,217.3969,147.7024" style="stroke:#000000;stroke-width:0.4000000000000001;"/><text fill="#000000" font-family="sans-serif" font-size="5.2" lengthAdjust="spacing" textLength="24.4" x="219" y="149.9406">works with</text><text fill="#000000" font-family="sans-serif" font-size="5.2" lengthAdjust="spacing" textLength="2.8" x="51.7547" y="160.7507">1</text><text fill="#000000" font-family="sans-serif" font-size="5.2" lengthAdjust="spacing" textLength="8" x="425.1641" y="147.049">1..*</text><!--MD5=[acda98ef2513d819683ba761a9c77b11]
link Company to Warehouse--><path codeLine="171" d="M35.088,152.4506 C40.456,134.9266 52.844,100.0266 72.4,76.1426 C83.348,62.7706 99.384,51.4146 111.884,43.7666 " fill="none" id="Company-Warehouse" style="stroke:#A80036;stroke-width:0.4000000000000001;"/><polygon fill="#000000" points="82.1541,47.3795,79.1062,49.6559,81.0264,51.0127,82.1541,47.3795" style="stroke:#000000;stroke-width:0.4000000000000001;"/><text fill="#000000" font-family="sans-serif" font-size="5.2" lengthAdjust="spacing" textLength="8.4" x="84.6" y="51.1406">has</text><text fill="#000000" font-family="sans-serif" font-size="5.2" lengthAdjust="spacing" textLength="2.8" x="32.7709" y="148.2137">1</text><text fill="#000000" font-family="sans-serif" font-size="5.2" lengthAdjust="spacing" textLength="8" x="100.7509" y="51.0136">1..*</text><!--MD5=[f500e957add76349bf6e8f151138488d]
link Client to Container--><path codeLine="172" d="M144.032,495.3426 C161.152,495.3426 192.052,495.3426 211.268,495.3426 " fill="none" id="Client-Container" style="stroke:#A80036;stroke-width:0.4000000000000001;"/><polygon fill="#000000" points="171.8,491.8129,168.182,490.6373,168.182,492.9885,171.8,491.8129" style="stroke:#000000;stroke-width:0.4000000000000001;"/><text fill="#000000" font-family="sans-serif" font-size="5.2" lengthAdjust="spacing" textLength="12.4" x="173.4" y="493.9406">ships</text><text fill="#000000" font-family="sans-serif" font-size="5.2" lengthAdjust="spacing" textLength="2.8" x="147.1453" y="501.456">1</text><text fill="#000000" font-family="sans-serif" font-size="5.2" lengthAdjust="spacing" textLength="8" x="200.1349" y="501.2157">1..*</text><!--MD5=[0e32c7758dbd9763ef36bc86a30fd8c6]
link TrafficManager to ShipPosition--><path codeLine="173" d="M38.292,320.5666 C55.9,338.0306 107.956,386.1666 162.4,402.9426 C177.256,407.5226 194.9,406.5586 208.172,404.6466 " fill="none" id="TrafficManager-ShipPosition" style="stroke:#A80036;stroke-width:0.4000000000000001;"/><polygon fill="#000000" points="122.7925,376.7001,120.0713,374.0416,119.0284,376.1487,122.7925,376.7001" style="stroke:#000000;stroke-width:0.4000000000000001;"/><text fill="#000000" font-family="sans-serif" font-size="5.2" lengthAdjust="spacing" textLength="18.4" x="124.6" y="377.9406">controls</text><text fill="#000000" font-family="sans-serif" font-size="5.2" lengthAdjust="spacing" textLength="2.8" x="37.245" y="329.1759">1</text><text fill="#000000" font-family="sans-serif" font-size="5.2" lengthAdjust="spacing" textLength="2" x="203.0248" y="411.1369">*</text><!--MD5=[40e2b5717560220ad35e84810a8f1b44]
link TrafficManager to Ship--><path codeLine="174" d="M54.296,314.1426 C73.364,314.1426 100.232,314.1426 116.528,314.1426 " fill="none" id="TrafficManager-Ship" style="stroke:#A80036;stroke-width:0.4000000000000001;"/><polygon fill="#000000" points="78.6,310.6129,74.982,309.4373,74.982,311.7885,78.6,310.6129" style="stroke:#000000;stroke-width:0.4000000000000001;"/><text fill="#000000" font-family="sans-serif" font-size="5.2" lengthAdjust="spacing" textLength="17.2" x="80.2" y="312.7406">imports</text><text fill="#000000" font-family="sans-serif" font-size="5.2" lengthAdjust="spacing" textLength="2.8" x="57.3833" y="319.9596">1</text><text fill="#000000" font-family="sans-serif" font-size="5.2" lengthAdjust="spacing" textLength="8" x="105.4355" y="320.0763">1..*</text><!--MD5=[641af49703b38e745c9a3976df66996b]
link WarehouseManager to Warehouse--><path codeLine="175" d="M60.508,9.1626 C72.896,9.3346 87.416,10.6026 100,14.5426 C104.064,15.8146 108.144,17.7386 111.944,19.8746 " fill="none" id="WarehouseManager-Warehouse" style="stroke:#A80036;stroke-width:0.4000000000000001;"/><polygon fill="#000000" points="76.558,6.6207,73.2556,4.7321,72.7763,7.0339,76.558,6.6207" style="stroke:#000000;stroke-width:0.4000000000000001;"/><text fill="#000000" font-family="sans-serif" font-size="5.2" lengthAdjust="spacing" textLength="21.2" x="78.2" y="8.3406">manages</text><text fill="#000000" font-family="sans-serif" font-size="5.2" lengthAdjust="spacing" textLength="2.8" x="63.6335" y="14.7556">1</text><text fill="#000000" font-family="sans-serif" font-size="5.2" lengthAdjust="spacing" textLength="8" x="100.819" y="23.9111">1..*</text><!--MD5=[9eb8cece74e91f217f5849e8308bf70d]
link PortManager to Port--><path codeLine="176" d="M52.172,76.1066 C72.084,72.8346 103.44,68.5426 130.8,68.5426 C130.8,68.5426 130.8,68.5426 342.4,68.5426 C384.12,68.5426 422.216,105.7306 440.244,126.5066 " fill="none" id="PortManager-Port" style="stroke:#A80036;stroke-width:0.4000000000000001;"/><polygon fill="#000000" points="218.9833,65.2705,215.5468,63.6387,215.244,65.9703,218.9833,65.2705" style="stroke:#000000;stroke-width:0.4000000000000001;"/><text fill="#000000" font-family="sans-serif" font-size="5.2" lengthAdjust="spacing" textLength="21.2" x="220.6" y="67.1406">manages</text><text fill="#000000" font-family="sans-serif" font-size="5.2" lengthAdjust="spacing" textLength="2.8" x="55.2618" y="81.4532">1</text><text fill="#000000" font-family="sans-serif" font-size="5.2" lengthAdjust="spacing" textLength="8" x="429.2208" y="122.2168">1..*</text><!--MD5=[2f53b54d736e45d912a2707458432c0e]
link Ship to EnergyPower--><path codeLine="178" d="M145.852,314.1426 C161.02,314.1426 185.304,314.1426 203.576,314.1426 " fill="none" id="Ship-EnergyPower" style="stroke:#A80036;stroke-width:0.4000000000000001;"/><polygon fill="#000000" points="173.8,310.6129,170.182,309.4373,170.182,311.7885,173.8,310.6129" style="stroke:#000000;stroke-width:0.4000000000000001;"/><text fill="#000000" font-family="sans-serif" font-size="5.2" lengthAdjust="spacing" textLength="8.4" x="175.4" y="312.7406">has</text><text fill="#000000" font-family="sans-serif" font-size="5.2" lengthAdjust="spacing" textLength="2.8" x="149.0122" y="312.5174">1</text><text fill="#000000" font-family="sans-serif" font-size="5.2" lengthAdjust="spacing" textLength="2.8" x="197.5556" y="319.9472">1</text><!--MD5=[47296211a5450e6030aae792427ae68d]
link CargoManifest to Port--><path codeLine="182" d="M346.208,441.2226 C362.72,393.8746 428.104,206.3746 446.412,153.8706 " fill="none" id="CargoManifest-Port" style="stroke:#A80036;stroke-width:0.4000000000000001;"/><polygon fill="#000000" points="379.0585,263.1244,376.7572,266.1536,378.9772,266.9278,379.0585,263.1244" style="stroke:#000000;stroke-width:0.4000000000000001;"/><text fill="#000000" font-family="sans-serif" font-size="5.2" lengthAdjust="spacing" textLength="26" x="382" y="267.1406">delivered at</text><!--MD5=[64222e8dc32db9269c070a2ba1692d85]
link Ship to ShipTrip--><path codeLine="183" d="M145.852,305.1706 C161.284,295.4586 186.144,279.8106 204.52,268.2466 " fill="none" id="Ship-ShipTrip" style="stroke:#A80036;stroke-width:0.4000000000000001;"/><polygon fill="#000000" points="172.0927,271.9476,168.4044,272.8798,169.6568,274.8697,172.0927,271.9476" style="stroke:#000000;stroke-width:0.4000000000000001;"/><text fill="#000000" font-family="sans-serif" font-size="5.2" lengthAdjust="spacing" textLength="11.2" x="174" y="275.1406">does</text><text fill="#000000" font-family="sans-serif" font-size="5.2" lengthAdjust="spacing" textLength="2.8" x="149.0122" y="301.779">1</text><text fill="#000000" font-family="sans-serif" font-size="5.2" lengthAdjust="spacing" textLength="2" x="199.4634" y="275.8712">*</text><!--MD5=[44f05fe100d2ea1ea515bcefebfec01b]
link ShipTrip to Port--><path codeLine="184" d="M252.676,241.2826 C298.576,217.8946 398.488,166.9946 436.3,147.7346 " fill="none" id="ShipTrip-Port" style="stroke:#A80036;stroke-width:0.4000000000000001;"/><polygon fill="#000000" points="340.5821,181.305,336.8246,181.8999,337.8919,183.9949,340.5821,181.305" style="stroke:#000000;stroke-width:0.4000000000000001;"/><text fill="#000000" font-family="sans-serif" font-size="5.2" lengthAdjust="spacing" textLength="4.4" x="342.4" y="184.3406">to</text><text fill="#000000" font-family="sans-serif" font-size="5.2" lengthAdjust="spacing" textLength="2" x="255.7321" y="245.621">*</text><text fill="#000000" font-family="sans-serif" font-size="5.2" lengthAdjust="spacing" textLength="2.8" x="430.4209" y="155.1475">1</text><!--MD5=[fe56967d49e095412a54b704daffd5d9]
link ShipTrip to CargoManifest--><path codeLine="185" d="M252.732,273.5386 C270.176,289.5546 293.252,313.3626 307.6,338.5426 C327.324,373.1506 336.656,420.3426 340.036,441.3226 " fill="none" id="ShipTrip-CargoManifest" style="stroke:#A80036;stroke-width:0.4000000000000001;"/><polygon fill="#000000" points="275.7232,285.5871,275.096,281.8349,273.0103,282.9202,275.7232,285.5871" style="stroke:#000000;stroke-width:0.4000000000000001;"/><text fill="#000000" font-family="sans-serif" font-size="5.2" lengthAdjust="spacing" textLength="21.6" x="278.4" y="285.9406">relates to</text><text fill="#000000" font-family="sans-serif" font-size="5.2" lengthAdjust="spacing" textLength="2.8" x="255.8437" y="281.8082">1</text><text fill="#000000" font-family="sans-serif" font-size="5.2" lengthAdjust="spacing" textLength="2.8" x="336.416" y="436.9284">2</text><!--MD5=[46e6d029676c776e76554257eb4d2b6f]
@startuml

skinparam classAttributeIconSize 0
hide empty methods
hide empty attributes
left to right direction

class Company {
    -designation
}

class Container {
   -containerId
   -payload
   -tare
   -gross
   -isoCode
   /'-isRefrigerated'/
   /'-temperatureKept' - ESTE TALVEZ ADEQUA-SE'/
}

/' Roles '/
/'class Employee {}'/

class Client {}

/'class FleetManager {}'/

class TrafficManager {}



/'class WarehouseStaff {}'/

class WarehouseManager {}

/'class PortStaff {}'/

class PortManager {}

/'class ShipCaptain {}

class ShipChiefElecEngineer {}

class TruckDriver {}'/
/' End Roles '/

class CargoManifest {
    -cargoManifestId
    /'-typeOfTransport'/
}

class Ship {
    -mmmsiCode
    -shipName
    -imoCode
    -callSignId
    -draft
}


class PositionInVehicle {
    -containerPositionInVehiculeX
    -containerPositionInVehiculeY
    -containerPositionInVehiculeZ
}

class VesselType {
    -vesselTypeId
    -length
    -width
    -maxCapacity
}

class ShipPosition {
    -baseDateTime
    -latitude
    -longitude
    -sog
    -cog
    -heading
    -position
    -transceiver
}

/'CONFIRM'/
class Port {
    -identification
    -name
}

class Warehouse {
    -identification
    -name
}

class Country {
    -countryDesignation
    -continent
}

class PlaceLocation {
    -locationLatitude
    -locationLongitude
}

class EnergyPower{
    -numEnergyGenerators
    -generatorsPower
}

class Truck {}

/'Classes not in the Data Model'/
/'class Quote {}'/
class System {}
/'End of Classes not in the Data Model'/

class ShipTrip{
    -shipMmsi
    /'has attribute phase?'/
    -departure_location_id
    -arrival_location_id
    -loading_cargo_id
    -unloading_cargo_id
    -est_departure_date
    -est_arrival_date
    -real_departure_date
    -real_arrival_date
}


Company "1" - - "1..*" System : has >
User "1..*" - - "1" System : uses >
/'FleetManager "1" - - "1" Employee : is of >'/
TrafficManager "1" - - "1" User : relates to >
/'WarehouseStaff "1" - - "1" Employee : is of >'/
WarehouseManager "1" - - "1" User : relates to >
/'PortStaff "1" - - "1" Employee : is of >'/
PortManager "1" - - "1" User : relates to >
/'ShipCaptain "1" - - "1" Employee : is of >'/
/'ShipChiefElecEngineer "1" - - "1" Employee : is of >'/
/'TruckDriver "1" - - "1" Employee : is of >'/

/'Relations that lack multiplicity'/
CargoManifest "1" - - "1..*" Container /'as this relation exists, CargoManifest already has Container gross weight'/
CargoManifest "1" - - "1..*" PositionInVehicle : contains >
/'End of relations that lack multiplicity'/

Container "1" - - "1" PositionInVehicle : has >
Ship "*" - - "1" VesselType : is of >
Ship "1" - - "1..*" ShipPosition : has >
Warehouse "1" - - "1" PlaceLocation : is located at >
Port "1" - - "1" PlaceLocation : is located at >
PlaceLocation "*" - - "1" Country : in a >
Ship "1" - - "*" Container : transports >
Truck "*" - - "1" Container : transports >

/'Relations that is in the Data Model but to be evaluated'/
Ship "1" - - "*" CargoManifest
Truck - - CargoManifest /' lacks multiplicity '/
/'PortsAndWareHouse "1" - - "*" CargoManifest : delivered at <'/
/'End of Relatiosn that is in the Data Model but to be evaluated'/

/'Relations not in the Data Model'/
/'Ship "1" - - "*" Message : sends >'/
/'USCoastGuard "1" - - "*" Message : receives >'/
/'Client "1" - - "1..*" Quote : wants >'/
Company "1" - - "1..*" Ship : manages >
Company "1" - - "1..*" VesselType : owns >
Company "1" - - "1..*" Port : works with >
Company "1" - - "1..*" Warehouse : has >
Client "1" - - "1..*" Container : ships >
TrafficManager "1" - - "*" ShipPosition : controls >
TrafficManager "1" - - "1..*" Ship : imports >
WarehouseManager "1" - - "1..*" Warehouse : manages >
PortManager "1" - - "1..*" Port : manages >

Ship "1" - - "1" EnergyPower : has >

/'US204'/
Container "1..*"- - "2..*" CargoManifest : associated with >
CargoManifest - - Port : delivered at >
Ship "1" - - "*" ShipTrip : does >
ShipTrip "*" - - "1" Port : to >
ShipTrip "1" - - "2" CargoManifest : relates to >






/'RELAES EM FALTA - DVIDAS
Company - - Quote?
'/


/' DVIDAS
- Containers can be transported by land or sea - representar?
- checkDigit - Container, para que serve?
- isRefrigerated vai ser um mtodo logo no se representa certo?
- estado do Cargo Manifest

- Ship sends Message - a Message contm info posicionamento, como representar?



- NO ESQUECER DE VER SLIDES ESOFT , USER E ROLE!

'/



@enduml

@startuml

skinparam classAttributeIconSize 0
hide empty methods
hide empty attributes
left to right direction

class Company {
    -designation
}

class Container {
   -containerId
   -payload
   -tare
   -gross
   -isoCode
}


class Client {}


class TrafficManager {}




class WarehouseManager {}


class PortManager {}


class CargoManifest {
    -cargoManifestId
}

class Ship {
    -mmmsiCode
    -shipName
    -imoCode
    -callSignId
    -draft
}


class PositionInVehicle {
    -containerPositionInVehiculeX
    -containerPositionInVehiculeY
    -containerPositionInVehiculeZ
}

class VesselType {
    -vesselTypeId
    -length
    -width
    -maxCapacity
}

class ShipPosition {
    -baseDateTime
    -latitude
    -longitude
    -sog
    -cog
    -heading
    -position
    -transceiver
}

class Port {
    -identification
    -name
}

class Warehouse {
    -identification
    -name
}

class Country {
    -countryDesignation
    -continent
}

class PlaceLocation {
    -locationLatitude
    -locationLongitude
}

class EnergyPower{
    -numEnergyGenerators
    -generatorsPower
}

class Truck {}

class System {}

class ShipTrip{
    -shipMmsi
    -departure_location_id
    -arrival_location_id
    -loading_cargo_id
    -unloading_cargo_id
    -est_departure_date
    -est_arrival_date
    -real_departure_date
    -real_arrival_date
}


Company "1" - - "1..*" System : has >
User "1..*" - - "1" System : uses >
TrafficManager "1" - - "1" User : relates to >
WarehouseManager "1" - - "1" User : relates to >
PortManager "1" - - "1" User : relates to >

CargoManifest "1" - - "1..*" Container 
CargoManifest "1" - - "1..*" PositionInVehicle : contains >

Container "1" - - "1" PositionInVehicle : has >
Ship "*" - - "1" VesselType : is of >
Ship "1" - - "1..*" ShipPosition : has >
Warehouse "1" - - "1" PlaceLocation : is located at >
Port "1" - - "1" PlaceLocation : is located at >
PlaceLocation "*" - - "1" Country : in a >
Ship "1" - - "*" Container : transports >
Truck "*" - - "1" Container : transports >

Ship "1" - - "*" CargoManifest
Truck - - CargoManifest 

Company "1" - - "1..*" Ship : manages >
Company "1" - - "1..*" VesselType : owns >
Company "1" - - "1..*" Port : works with >
Company "1" - - "1..*" Warehouse : has >
Client "1" - - "1..*" Container : ships >
TrafficManager "1" - - "*" ShipPosition : controls >
TrafficManager "1" - - "1..*" Ship : imports >
WarehouseManager "1" - - "1..*" Warehouse : manages >
PortManager "1" - - "1..*" Port : manages >

Ship "1" - - "1" EnergyPower : has >

Container "1..*"- - "2..*" CargoManifest : associated with >
CargoManifest - - Port : delivered at >
Ship "1" - - "*" ShipTrip : does >
ShipTrip "*" - - "1" Port : to >
ShipTrip "1" - - "2" CargoManifest : relates to >











@enduml

PlantUML version 1.2021.11(Sat Oct 02 14:26:11 BST 2021)
(GPL source distribution)
Java Runtime: OpenJDK Runtime Environment
JVM: OpenJDK 64-Bit Server VM
Default Encoding: Cp1252
Language: pt
Country: PT
--></g></svg>