<?xml version="1.0" encoding="UTF-8" standalone="no"?><svg xmlns="http://www.w3.org/2000/svg" xmlns:xlink="http://www.w3.org/1999/xlink" contentScriptType="application/ecmascript" contentStyleType="text/css" height="1535px" preserveAspectRatio="none" style="width:896px;height:1535px;" version="1.1" viewBox="0 0 896 1535" width="896px" zoomAndPan="magnify"><defs><filter height="300%" id="fk2gmm7fv68ay" width="300%" x="-1" y="-1"><feGaussianBlur result="blurOut" stdDeviation="2.0"/><feColorMatrix in="blurOut" result="blurOut2" type="matrix" values="0 0 0 0 0 0 0 0 0 0 0 0 0 0 0 0 0 0 .4 0"/><feOffset dx="4.0" dy="4.0" in="blurOut2" result="blurOut3"/><feBlend in="SourceGraphic" in2="blurOut3" mode="normal"/></filter></defs><g><!--MD5=[02e4b9b7573f1156f41e60aa5b4e25a4]
class Company--><rect codeLine="7" fill="#FEFECE" filter="url(#fk2gmm7fv68ay)" height="53.8359" id="Company" style="stroke:#A80036;stroke-width:1.5;" width="85" x="44.5" y="847"/><ellipse cx="59.5" cy="863" fill="#ADD1B2" rx="11" ry="11" style="stroke:#A80036;stroke-width:1.0;"/><path d="M61.5,859.5 Q61.7031,859 61.9375,858.75 Q62.1719,858.5 62.4375,858.5 Q62.9063,858.5 63.2031,858.7813 Q63.5,859.0625 63.5,859.7188 L63.5,861.2813 Q63.5,861.9375 63.2188,862.2188 Q62.9375,862.5 62.5,862.5 Q62.1094,862.5 61.8594,862.3281 Q61.6094,862.1563 61.5,861.7031 Q61.4531,861.3906 61.2813,861.2188 Q60.9688,860.8906 60.4063,860.7031 Q59.8438,860.5 59.2813,860.5 Q58.5781,860.5 57.9844,860.7813 Q57.4063,861.0625 56.9531,861.6875 Q56.5,862.3125 56.5,863.1719 L56.5,864.0938 Q56.5,865.125 57.3438,865.8125 Q58.1875,866.5 59.6875,866.5 Q60.5781,866.5 61.2031,866.2969 Q61.5625,866.1875 61.9688,865.8281 Q62.2344,865.625 62.375,865.5625 Q62.5156,865.5 62.6875,865.5 Q63.0156,865.5 63.25,865.7656 Q63.5,866.0156 63.5,866.375 Q63.5,866.7188 63.1563,867.125 Q62.6563,867.7188 61.8594,868.0469 Q60.8125,868.5 59.5313,868.5 Q58.0313,868.5 56.8281,867.9063 Q55.8594,867.4375 55.1719,866.4219 Q54.5,865.4063 54.5,864.2031 L54.5,863.1094 Q54.5,861.8594 55.0938,860.7656 Q55.7031,859.6719 56.75,859.0938 Q57.8125,858.5 59,858.5 Q59.7188,858.5 60.3438,858.75 Q60.9688,859 61.5,859.5 Z " fill="#000000"/><text fill="#000000" font-family="sans-serif" font-size="12" lengthAdjust="spacing" textLength="53" x="73.5" y="867.9102">Company</text><line style="stroke:#A80036;stroke-width:1.5;" x1="45.5" x2="128.5" y1="879" y2="879"/><text fill="#000000" font-family="sans-serif" font-size="11" lengthAdjust="spacing" textLength="59" x="50.5" y="894.4189">-designation</text><!--MD5=[e9a58730c562b34349daa605d1ed6662]
class Container--><rect codeLine="11" fill="#FEFECE" filter="url(#fk2gmm7fv68ay)" height="109.1797" id="Container" style="stroke:#A80036;stroke-width:1.5;" width="86" x="532.5" y="552.5"/><ellipse cx="547.5" cy="568.5" fill="#ADD1B2" rx="11" ry="11" style="stroke:#A80036;stroke-width:1.0;"/><path d="M549.5,565 Q549.7031,564.5 549.9375,564.25 Q550.1719,564 550.4375,564 Q550.9063,564 551.2031,564.2813 Q551.5,564.5625 551.5,565.2188 L551.5,566.7813 Q551.5,567.4375 551.2188,567.7188 Q550.9375,568 550.5,568 Q550.1094,568 549.8594,567.8281 Q549.6094,567.6563 549.5,567.2031 Q549.4531,566.8906 549.2813,566.7188 Q548.9688,566.3906 548.4063,566.2031 Q547.8438,566 547.2813,566 Q546.5781,566 545.9844,566.2813 Q545.4063,566.5625 544.9531,567.1875 Q544.5,567.8125 544.5,568.6719 L544.5,569.5938 Q544.5,570.625 545.3438,571.3125 Q546.1875,572 547.6875,572 Q548.5781,572 549.2031,571.7969 Q549.5625,571.6875 549.9688,571.3281 Q550.2344,571.125 550.375,571.0625 Q550.5156,571 550.6875,571 Q551.0156,571 551.25,571.2656 Q551.5,571.5156 551.5,571.875 Q551.5,572.2188 551.1563,572.625 Q550.6563,573.2188 549.8594,573.5469 Q548.8125,574 547.5313,574 Q546.0313,574 544.8281,573.4063 Q543.8594,572.9375 543.1719,571.9219 Q542.5,570.9063 542.5,569.7031 L542.5,568.6094 Q542.5,567.3594 543.0938,566.2656 Q543.7031,565.1719 544.75,564.5938 Q545.8125,564 547,564 Q547.7188,564 548.3438,564.25 Q548.9688,564.5 549.5,565 Z " fill="#000000"/><text fill="#000000" font-family="sans-serif" font-size="12" lengthAdjust="spacing" textLength="54" x="561.5" y="573.4102">Container</text><line style="stroke:#A80036;stroke-width:1.5;" x1="533.5" x2="617.5" y1="584.5" y2="584.5"/><text fill="#000000" font-family="sans-serif" font-size="11" lengthAdjust="spacing" textLength="57" x="538.5" y="599.9189">-containerId</text><text fill="#000000" font-family="sans-serif" font-size="11" lengthAdjust="spacing" textLength="42" x="538.5" y="613.7549">-payload</text><text fill="#000000" font-family="sans-serif" font-size="11" lengthAdjust="spacing" textLength="23" x="538.5" y="627.5908">-tare</text><text fill="#000000" font-family="sans-serif" font-size="11" lengthAdjust="spacing" textLength="32" x="538.5" y="641.4268">-gross</text><text fill="#000000" font-family="sans-serif" font-size="11" lengthAdjust="spacing" textLength="43" x="538.5" y="655.2627">-isoCode</text><!--MD5=[7421f545a0d8420c5bec41e74b387d9c]
class Employee--><rect codeLine="22" fill="#FEFECE" filter="url(#fk2gmm7fv68ay)" height="32" id="Employee" style="stroke:#A80036;stroke-width:1.5;" width="87" x="325.5" y="1187"/><ellipse cx="340.5" cy="1203" fill="#ADD1B2" rx="11" ry="11" style="stroke:#A80036;stroke-width:1.0;"/><path d="M342.5,1199.5 Q342.7031,1199 342.9375,1198.75 Q343.1719,1198.5 343.4375,1198.5 Q343.9063,1198.5 344.2031,1198.7813 Q344.5,1199.0625 344.5,1199.7188 L344.5,1201.2813 Q344.5,1201.9375 344.2188,1202.2188 Q343.9375,1202.5 343.5,1202.5 Q343.1094,1202.5 342.8594,1202.3281 Q342.6094,1202.1563 342.5,1201.7031 Q342.4531,1201.3906 342.2813,1201.2188 Q341.9688,1200.8906 341.4063,1200.7031 Q340.8438,1200.5 340.2813,1200.5 Q339.5781,1200.5 338.9844,1200.7813 Q338.4063,1201.0625 337.9531,1201.6875 Q337.5,1202.3125 337.5,1203.1719 L337.5,1204.0938 Q337.5,1205.125 338.3438,1205.8125 Q339.1875,1206.5 340.6875,1206.5 Q341.5781,1206.5 342.2031,1206.2969 Q342.5625,1206.1875 342.9688,1205.8281 Q343.2344,1205.625 343.375,1205.5625 Q343.5156,1205.5 343.6875,1205.5 Q344.0156,1205.5 344.25,1205.7656 Q344.5,1206.0156 344.5,1206.375 Q344.5,1206.7188 344.1563,1207.125 Q343.6563,1207.7188 342.8594,1208.0469 Q341.8125,1208.5 340.5313,1208.5 Q339.0313,1208.5 337.8281,1207.9063 Q336.8594,1207.4375 336.1719,1206.4219 Q335.5,1205.4063 335.5,1204.2031 L335.5,1203.1094 Q335.5,1201.8594 336.0938,1200.7656 Q336.7031,1199.6719 337.75,1199.0938 Q338.8125,1198.5 340,1198.5 Q340.7188,1198.5 341.3438,1198.75 Q341.9688,1199 342.5,1199.5 Z " fill="#000000"/><text fill="#000000" font-family="sans-serif" font-size="12" lengthAdjust="spacing" textLength="55" x="354.5" y="1207.9102">Employee</text><!--MD5=[ed6624c6556d5e7b1bd23032162d20b7]
class Client--><rect codeLine="24" fill="#FEFECE" filter="url(#fk2gmm7fv68ay)" height="32" id="Client" style="stroke:#A80036;stroke-width:1.5;" width="64" x="55" y="110"/><ellipse cx="70" cy="126" fill="#ADD1B2" rx="11" ry="11" style="stroke:#A80036;stroke-width:1.0;"/><path d="M72,122.5 Q72.2031,122 72.4375,121.75 Q72.6719,121.5 72.9375,121.5 Q73.4063,121.5 73.7031,121.7813 Q74,122.0625 74,122.7188 L74,124.2813 Q74,124.9375 73.7188,125.2188 Q73.4375,125.5 73,125.5 Q72.6094,125.5 72.3594,125.3281 Q72.1094,125.1563 72,124.7031 Q71.9531,124.3906 71.7813,124.2188 Q71.4688,123.8906 70.9063,123.7031 Q70.3438,123.5 69.7813,123.5 Q69.0781,123.5 68.4844,123.7813 Q67.9063,124.0625 67.4531,124.6875 Q67,125.3125 67,126.1719 L67,127.0938 Q67,128.125 67.8438,128.8125 Q68.6875,129.5 70.1875,129.5 Q71.0781,129.5 71.7031,129.2969 Q72.0625,129.1875 72.4688,128.8281 Q72.7344,128.625 72.875,128.5625 Q73.0156,128.5 73.1875,128.5 Q73.5156,128.5 73.75,128.7656 Q74,129.0156 74,129.375 Q74,129.7188 73.6563,130.125 Q73.1563,130.7188 72.3594,131.0469 Q71.3125,131.5 70.0313,131.5 Q68.5313,131.5 67.3281,130.9063 Q66.3594,130.4375 65.6719,129.4219 Q65,128.4063 65,127.2031 L65,126.1094 Q65,124.8594 65.5938,123.7656 Q66.2031,122.6719 67.25,122.0938 Q68.3125,121.5 69.5,121.5 Q70.2188,121.5 70.8438,121.75 Q71.4688,122 72,122.5 Z " fill="#000000"/><text fill="#000000" font-family="sans-serif" font-size="12" lengthAdjust="spacing" textLength="32" x="84" y="130.9102">Client</text><!--MD5=[019a73386217e12d5bb8e34bf0b46b9e]
class FleetManager--><rect codeLine="26" fill="#FEFECE" filter="url(#fk2gmm7fv68ay)" height="32" id="FleetManager" style="stroke:#A80036;stroke-width:1.5;" width="107" x="33.5" y="953"/><ellipse cx="48.5" cy="969" fill="#ADD1B2" rx="11" ry="11" style="stroke:#A80036;stroke-width:1.0;"/><path d="M50.5,965.5 Q50.7031,965 50.9375,964.75 Q51.1719,964.5 51.4375,964.5 Q51.9063,964.5 52.2031,964.7813 Q52.5,965.0625 52.5,965.7188 L52.5,967.2813 Q52.5,967.9375 52.2188,968.2188 Q51.9375,968.5 51.5,968.5 Q51.1094,968.5 50.8594,968.3281 Q50.6094,968.1563 50.5,967.7031 Q50.4531,967.3906 50.2813,967.2188 Q49.9688,966.8906 49.4063,966.7031 Q48.8438,966.5 48.2813,966.5 Q47.5781,966.5 46.9844,966.7813 Q46.4063,967.0625 45.9531,967.6875 Q45.5,968.3125 45.5,969.1719 L45.5,970.0938 Q45.5,971.125 46.3438,971.8125 Q47.1875,972.5 48.6875,972.5 Q49.5781,972.5 50.2031,972.2969 Q50.5625,972.1875 50.9688,971.8281 Q51.2344,971.625 51.375,971.5625 Q51.5156,971.5 51.6875,971.5 Q52.0156,971.5 52.25,971.7656 Q52.5,972.0156 52.5,972.375 Q52.5,972.7188 52.1563,973.125 Q51.6563,973.7188 50.8594,974.0469 Q49.8125,974.5 48.5313,974.5 Q47.0313,974.5 45.8281,973.9063 Q44.8594,973.4375 44.1719,972.4219 Q43.5,971.4063 43.5,970.2031 L43.5,969.1094 Q43.5,967.8594 44.0938,966.7656 Q44.7031,965.6719 45.75,965.0938 Q46.8125,964.5 48,964.5 Q48.7188,964.5 49.3438,964.75 Q49.9688,965 50.5,965.5 Z " fill="#000000"/><text fill="#000000" font-family="sans-serif" font-size="12" lengthAdjust="spacing" textLength="75" x="62.5" y="973.9102">FleetManager</text><!--MD5=[ddaf6f62b0bc30921877ec9fb9463c9f]
class TrafficManager--><rect codeLine="28" fill="#FEFECE" filter="url(#fk2gmm7fv68ay)" height="32" id="TrafficManager" style="stroke:#A80036;stroke-width:1.5;" width="113" x="30.5" y="1020"/><ellipse cx="45.5" cy="1036" fill="#ADD1B2" rx="11" ry="11" style="stroke:#A80036;stroke-width:1.0;"/><path d="M47.5,1032.5 Q47.7031,1032 47.9375,1031.75 Q48.1719,1031.5 48.4375,1031.5 Q48.9063,1031.5 49.2031,1031.7813 Q49.5,1032.0625 49.5,1032.7188 L49.5,1034.2813 Q49.5,1034.9375 49.2188,1035.2188 Q48.9375,1035.5 48.5,1035.5 Q48.1094,1035.5 47.8594,1035.3281 Q47.6094,1035.1563 47.5,1034.7031 Q47.4531,1034.3906 47.2813,1034.2188 Q46.9688,1033.8906 46.4063,1033.7031 Q45.8438,1033.5 45.2813,1033.5 Q44.5781,1033.5 43.9844,1033.7813 Q43.4063,1034.0625 42.9531,1034.6875 Q42.5,1035.3125 42.5,1036.1719 L42.5,1037.0938 Q42.5,1038.125 43.3438,1038.8125 Q44.1875,1039.5 45.6875,1039.5 Q46.5781,1039.5 47.2031,1039.2969 Q47.5625,1039.1875 47.9688,1038.8281 Q48.2344,1038.625 48.375,1038.5625 Q48.5156,1038.5 48.6875,1038.5 Q49.0156,1038.5 49.25,1038.7656 Q49.5,1039.0156 49.5,1039.375 Q49.5,1039.7188 49.1563,1040.125 Q48.6563,1040.7188 47.8594,1041.0469 Q46.8125,1041.5 45.5313,1041.5 Q44.0313,1041.5 42.8281,1040.9063 Q41.8594,1040.4375 41.1719,1039.4219 Q40.5,1038.4063 40.5,1037.2031 L40.5,1036.1094 Q40.5,1034.8594 41.0938,1033.7656 Q41.7031,1032.6719 42.75,1032.0938 Q43.8125,1031.5 45,1031.5 Q45.7188,1031.5 46.3438,1031.75 Q46.9688,1032 47.5,1032.5 Z " fill="#000000"/><text fill="#000000" font-family="sans-serif" font-size="12" lengthAdjust="spacing" textLength="81" x="59.5" y="1040.9102">TrafficManager</text><!--MD5=[7fcbedb88579745280c367cebf31fce2]
class WarehouseStaff--><rect codeLine="32" fill="#FEFECE" filter="url(#fk2gmm7fv68ay)" height="32" id="WarehouseStaff" style="stroke:#A80036;stroke-width:1.5;" width="120" x="27" y="1087"/><ellipse cx="42" cy="1103" fill="#ADD1B2" rx="11" ry="11" style="stroke:#A80036;stroke-width:1.0;"/><path d="M44,1099.5 Q44.2031,1099 44.4375,1098.75 Q44.6719,1098.5 44.9375,1098.5 Q45.4063,1098.5 45.7031,1098.7813 Q46,1099.0625 46,1099.7188 L46,1101.2813 Q46,1101.9375 45.7188,1102.2188 Q45.4375,1102.5 45,1102.5 Q44.6094,1102.5 44.3594,1102.3281 Q44.1094,1102.1563 44,1101.7031 Q43.9531,1101.3906 43.7813,1101.2188 Q43.4688,1100.8906 42.9063,1100.7031 Q42.3438,1100.5 41.7813,1100.5 Q41.0781,1100.5 40.4844,1100.7813 Q39.9063,1101.0625 39.4531,1101.6875 Q39,1102.3125 39,1103.1719 L39,1104.0938 Q39,1105.125 39.8438,1105.8125 Q40.6875,1106.5 42.1875,1106.5 Q43.0781,1106.5 43.7031,1106.2969 Q44.0625,1106.1875 44.4688,1105.8281 Q44.7344,1105.625 44.875,1105.5625 Q45.0156,1105.5 45.1875,1105.5 Q45.5156,1105.5 45.75,1105.7656 Q46,1106.0156 46,1106.375 Q46,1106.7188 45.6563,1107.125 Q45.1563,1107.7188 44.3594,1108.0469 Q43.3125,1108.5 42.0313,1108.5 Q40.5313,1108.5 39.3281,1107.9063 Q38.3594,1107.4375 37.6719,1106.4219 Q37,1105.4063 37,1104.2031 L37,1103.1094 Q37,1101.8594 37.5938,1100.7656 Q38.2031,1099.6719 39.25,1099.0938 Q40.3125,1098.5 41.5,1098.5 Q42.2188,1098.5 42.8438,1098.75 Q43.4688,1099 44,1099.5 Z " fill="#000000"/><text fill="#000000" font-family="sans-serif" font-size="12" lengthAdjust="spacing" textLength="88" x="56" y="1107.9102">WarehouseStaff</text><!--MD5=[5e1deb958606d83ef5f4988eb2b8f966]
class WarehouseManager--><rect codeLine="34" fill="#FEFECE" filter="url(#fk2gmm7fv68ay)" height="32" id="WarehouseManager" style="stroke:#A80036;stroke-width:1.5;" width="144" x="15" y="1154"/><ellipse cx="30" cy="1170" fill="#ADD1B2" rx="11" ry="11" style="stroke:#A80036;stroke-width:1.0;"/><path d="M32,1166.5 Q32.2031,1166 32.4375,1165.75 Q32.6719,1165.5 32.9375,1165.5 Q33.4063,1165.5 33.7031,1165.7813 Q34,1166.0625 34,1166.7188 L34,1168.2813 Q34,1168.9375 33.7188,1169.2188 Q33.4375,1169.5 33,1169.5 Q32.6094,1169.5 32.3594,1169.3281 Q32.1094,1169.1563 32,1168.7031 Q31.9531,1168.3906 31.7813,1168.2188 Q31.4688,1167.8906 30.9063,1167.7031 Q30.3438,1167.5 29.7813,1167.5 Q29.0781,1167.5 28.4844,1167.7813 Q27.9063,1168.0625 27.4531,1168.6875 Q27,1169.3125 27,1170.1719 L27,1171.0938 Q27,1172.125 27.8438,1172.8125 Q28.6875,1173.5 30.1875,1173.5 Q31.0781,1173.5 31.7031,1173.2969 Q32.0625,1173.1875 32.4688,1172.8281 Q32.7344,1172.625 32.875,1172.5625 Q33.0156,1172.5 33.1875,1172.5 Q33.5156,1172.5 33.75,1172.7656 Q34,1173.0156 34,1173.375 Q34,1173.7188 33.6563,1174.125 Q33.1563,1174.7188 32.3594,1175.0469 Q31.3125,1175.5 30.0313,1175.5 Q28.5313,1175.5 27.3281,1174.9063 Q26.3594,1174.4375 25.6719,1173.4219 Q25,1172.4063 25,1171.2031 L25,1170.1094 Q25,1168.8594 25.5938,1167.7656 Q26.2031,1166.6719 27.25,1166.0938 Q28.3125,1165.5 29.5,1165.5 Q30.2188,1165.5 30.8438,1165.75 Q31.4688,1166 32,1166.5 Z " fill="#000000"/><text fill="#000000" font-family="sans-serif" font-size="12" lengthAdjust="spacing" textLength="112" x="44" y="1174.9102">WarehouseManager</text><!--MD5=[a0e14dc1c5f22798a4d68a7546a0e1d4]
class PortStaff--><rect codeLine="36" fill="#FEFECE" filter="url(#fk2gmm7fv68ay)" height="32" id="PortStaff" style="stroke:#A80036;stroke-width:1.5;" width="78" x="48" y="1221"/><ellipse cx="63" cy="1237" fill="#ADD1B2" rx="11" ry="11" style="stroke:#A80036;stroke-width:1.0;"/><path d="M65,1233.5 Q65.2031,1233 65.4375,1232.75 Q65.6719,1232.5 65.9375,1232.5 Q66.4063,1232.5 66.7031,1232.7813 Q67,1233.0625 67,1233.7188 L67,1235.2813 Q67,1235.9375 66.7188,1236.2188 Q66.4375,1236.5 66,1236.5 Q65.6094,1236.5 65.3594,1236.3281 Q65.1094,1236.1563 65,1235.7031 Q64.9531,1235.3906 64.7813,1235.2188 Q64.4688,1234.8906 63.9063,1234.7031 Q63.3438,1234.5 62.7813,1234.5 Q62.0781,1234.5 61.4844,1234.7813 Q60.9063,1235.0625 60.4531,1235.6875 Q60,1236.3125 60,1237.1719 L60,1238.0938 Q60,1239.125 60.8438,1239.8125 Q61.6875,1240.5 63.1875,1240.5 Q64.0781,1240.5 64.7031,1240.2969 Q65.0625,1240.1875 65.4688,1239.8281 Q65.7344,1239.625 65.875,1239.5625 Q66.0156,1239.5 66.1875,1239.5 Q66.5156,1239.5 66.75,1239.7656 Q67,1240.0156 67,1240.375 Q67,1240.7188 66.6563,1241.125 Q66.1563,1241.7188 65.3594,1242.0469 Q64.3125,1242.5 63.0313,1242.5 Q61.5313,1242.5 60.3281,1241.9063 Q59.3594,1241.4375 58.6719,1240.4219 Q58,1239.4063 58,1238.2031 L58,1237.1094 Q58,1235.8594 58.5938,1234.7656 Q59.2031,1233.6719 60.25,1233.0938 Q61.3125,1232.5 62.5,1232.5 Q63.2188,1232.5 63.8438,1232.75 Q64.4688,1233 65,1233.5 Z " fill="#000000"/><text fill="#000000" font-family="sans-serif" font-size="12" lengthAdjust="spacing" textLength="46" x="77" y="1241.9102">PortStaff</text><!--MD5=[99d8f1361a72f685c413d1fd21efef1c]
class PortManager--><rect codeLine="38" fill="#FEFECE" filter="url(#fk2gmm7fv68ay)" height="32" id="PortManager" style="stroke:#A80036;stroke-width:1.5;" width="102" x="36" y="1288"/><ellipse cx="51" cy="1304" fill="#ADD1B2" rx="11" ry="11" style="stroke:#A80036;stroke-width:1.0;"/><path d="M53,1300.5 Q53.2031,1300 53.4375,1299.75 Q53.6719,1299.5 53.9375,1299.5 Q54.4063,1299.5 54.7031,1299.7813 Q55,1300.0625 55,1300.7188 L55,1302.2813 Q55,1302.9375 54.7188,1303.2188 Q54.4375,1303.5 54,1303.5 Q53.6094,1303.5 53.3594,1303.3281 Q53.1094,1303.1563 53,1302.7031 Q52.9531,1302.3906 52.7813,1302.2188 Q52.4688,1301.8906 51.9063,1301.7031 Q51.3438,1301.5 50.7813,1301.5 Q50.0781,1301.5 49.4844,1301.7813 Q48.9063,1302.0625 48.4531,1302.6875 Q48,1303.3125 48,1304.1719 L48,1305.0938 Q48,1306.125 48.8438,1306.8125 Q49.6875,1307.5 51.1875,1307.5 Q52.0781,1307.5 52.7031,1307.2969 Q53.0625,1307.1875 53.4688,1306.8281 Q53.7344,1306.625 53.875,1306.5625 Q54.0156,1306.5 54.1875,1306.5 Q54.5156,1306.5 54.75,1306.7656 Q55,1307.0156 55,1307.375 Q55,1307.7188 54.6563,1308.125 Q54.1563,1308.7188 53.3594,1309.0469 Q52.3125,1309.5 51.0313,1309.5 Q49.5313,1309.5 48.3281,1308.9063 Q47.3594,1308.4375 46.6719,1307.4219 Q46,1306.4063 46,1305.2031 L46,1304.1094 Q46,1302.8594 46.5938,1301.7656 Q47.2031,1300.6719 48.25,1300.0938 Q49.3125,1299.5 50.5,1299.5 Q51.2188,1299.5 51.8438,1299.75 Q52.4688,1300 53,1300.5 Z " fill="#000000"/><text fill="#000000" font-family="sans-serif" font-size="12" lengthAdjust="spacing" textLength="70" x="65" y="1308.9102">PortManager</text><!--MD5=[e6b394b930674b2255938b8afe6bb7b4]
class ShipCaptain--><rect codeLine="40" fill="#FEFECE" filter="url(#fk2gmm7fv68ay)" height="32" id="ShipCaptain" style="stroke:#A80036;stroke-width:1.5;" width="100" x="37" y="1355"/><ellipse cx="52" cy="1371" fill="#ADD1B2" rx="11" ry="11" style="stroke:#A80036;stroke-width:1.0;"/><path d="M54,1367.5 Q54.2031,1367 54.4375,1366.75 Q54.6719,1366.5 54.9375,1366.5 Q55.4063,1366.5 55.7031,1366.7813 Q56,1367.0625 56,1367.7188 L56,1369.2813 Q56,1369.9375 55.7188,1370.2188 Q55.4375,1370.5 55,1370.5 Q54.6094,1370.5 54.3594,1370.3281 Q54.1094,1370.1563 54,1369.7031 Q53.9531,1369.3906 53.7813,1369.2188 Q53.4688,1368.8906 52.9063,1368.7031 Q52.3438,1368.5 51.7813,1368.5 Q51.0781,1368.5 50.4844,1368.7813 Q49.9063,1369.0625 49.4531,1369.6875 Q49,1370.3125 49,1371.1719 L49,1372.0938 Q49,1373.125 49.8438,1373.8125 Q50.6875,1374.5 52.1875,1374.5 Q53.0781,1374.5 53.7031,1374.2969 Q54.0625,1374.1875 54.4688,1373.8281 Q54.7344,1373.625 54.875,1373.5625 Q55.0156,1373.5 55.1875,1373.5 Q55.5156,1373.5 55.75,1373.7656 Q56,1374.0156 56,1374.375 Q56,1374.7188 55.6563,1375.125 Q55.1563,1375.7188 54.3594,1376.0469 Q53.3125,1376.5 52.0313,1376.5 Q50.5313,1376.5 49.3281,1375.9063 Q48.3594,1375.4375 47.6719,1374.4219 Q47,1373.4063 47,1372.2031 L47,1371.1094 Q47,1369.8594 47.5938,1368.7656 Q48.2031,1367.6719 49.25,1367.0938 Q50.3125,1366.5 51.5,1366.5 Q52.2188,1366.5 52.8438,1366.75 Q53.4688,1367 54,1367.5 Z " fill="#000000"/><text fill="#000000" font-family="sans-serif" font-size="12" lengthAdjust="spacing" textLength="68" x="66" y="1375.9102">ShipCaptain</text><!--MD5=[cef852d3ed054728923de7f400b9bc10]
class ShipChiefElecEngineer--><rect codeLine="42" fill="#FEFECE" filter="url(#fk2gmm7fv68ay)" height="32" id="ShipChiefElecEngineer" style="stroke:#A80036;stroke-width:1.5;" width="160" x="7" y="1422"/><ellipse cx="22" cy="1438" fill="#ADD1B2" rx="11" ry="11" style="stroke:#A80036;stroke-width:1.0;"/><path d="M24,1434.5 Q24.2031,1434 24.4375,1433.75 Q24.6719,1433.5 24.9375,1433.5 Q25.4063,1433.5 25.7031,1433.7813 Q26,1434.0625 26,1434.7188 L26,1436.2813 Q26,1436.9375 25.7188,1437.2188 Q25.4375,1437.5 25,1437.5 Q24.6094,1437.5 24.3594,1437.3281 Q24.1094,1437.1563 24,1436.7031 Q23.9531,1436.3906 23.7813,1436.2188 Q23.4688,1435.8906 22.9063,1435.7031 Q22.3438,1435.5 21.7813,1435.5 Q21.0781,1435.5 20.4844,1435.7813 Q19.9063,1436.0625 19.4531,1436.6875 Q19,1437.3125 19,1438.1719 L19,1439.0938 Q19,1440.125 19.8438,1440.8125 Q20.6875,1441.5 22.1875,1441.5 Q23.0781,1441.5 23.7031,1441.2969 Q24.0625,1441.1875 24.4688,1440.8281 Q24.7344,1440.625 24.875,1440.5625 Q25.0156,1440.5 25.1875,1440.5 Q25.5156,1440.5 25.75,1440.7656 Q26,1441.0156 26,1441.375 Q26,1441.7188 25.6563,1442.125 Q25.1563,1442.7188 24.3594,1443.0469 Q23.3125,1443.5 22.0313,1443.5 Q20.5313,1443.5 19.3281,1442.9063 Q18.3594,1442.4375 17.6719,1441.4219 Q17,1440.4063 17,1439.2031 L17,1438.1094 Q17,1436.8594 17.5938,1435.7656 Q18.2031,1434.6719 19.25,1434.0938 Q20.3125,1433.5 21.5,1433.5 Q22.2188,1433.5 22.8438,1433.75 Q23.4688,1434 24,1434.5 Z " fill="#000000"/><text fill="#000000" font-family="sans-serif" font-size="12" lengthAdjust="spacing" textLength="128" x="36" y="1442.9102">ShipChiefElecEngineer</text><!--MD5=[a93a86a91abc8796b23cdcc7cc3b17ff]
class TruckDriver--><rect codeLine="44" fill="#FEFECE" filter="url(#fk2gmm7fv68ay)" height="32" id="TruckDriver" style="stroke:#A80036;stroke-width:1.5;" width="94" x="40" y="1489"/><ellipse cx="55" cy="1505" fill="#ADD1B2" rx="11" ry="11" style="stroke:#A80036;stroke-width:1.0;"/><path d="M57,1501.5 Q57.2031,1501 57.4375,1500.75 Q57.6719,1500.5 57.9375,1500.5 Q58.4063,1500.5 58.7031,1500.7813 Q59,1501.0625 59,1501.7188 L59,1503.2813 Q59,1503.9375 58.7188,1504.2188 Q58.4375,1504.5 58,1504.5 Q57.6094,1504.5 57.3594,1504.3281 Q57.1094,1504.1563 57,1503.7031 Q56.9531,1503.3906 56.7813,1503.2188 Q56.4688,1502.8906 55.9063,1502.7031 Q55.3438,1502.5 54.7813,1502.5 Q54.0781,1502.5 53.4844,1502.7813 Q52.9063,1503.0625 52.4531,1503.6875 Q52,1504.3125 52,1505.1719 L52,1506.0938 Q52,1507.125 52.8438,1507.8125 Q53.6875,1508.5 55.1875,1508.5 Q56.0781,1508.5 56.7031,1508.2969 Q57.0625,1508.1875 57.4688,1507.8281 Q57.7344,1507.625 57.875,1507.5625 Q58.0156,1507.5 58.1875,1507.5 Q58.5156,1507.5 58.75,1507.7656 Q59,1508.0156 59,1508.375 Q59,1508.7188 58.6563,1509.125 Q58.1563,1509.7188 57.3594,1510.0469 Q56.3125,1510.5 55.0313,1510.5 Q53.5313,1510.5 52.3281,1509.9063 Q51.3594,1509.4375 50.6719,1508.4219 Q50,1507.4063 50,1506.2031 L50,1505.1094 Q50,1503.8594 50.5938,1502.7656 Q51.2031,1501.6719 52.25,1501.0938 Q53.3125,1500.5 54.5,1500.5 Q55.2188,1500.5 55.8438,1500.75 Q56.4688,1501 57,1501.5 Z " fill="#000000"/><text fill="#000000" font-family="sans-serif" font-size="12" lengthAdjust="spacing" textLength="62" x="69" y="1509.9102">TruckDriver</text><!--MD5=[76562047389981627aea27c31a97aff5]
class CargoManifest--><rect codeLine="47" fill="#FEFECE" filter="url(#fk2gmm7fv68ay)" height="53.8359" id="CargoManifest" style="stroke:#A80036;stroke-width:1.5;" width="112" x="313" y="661"/><ellipse cx="328" cy="677" fill="#ADD1B2" rx="11" ry="11" style="stroke:#A80036;stroke-width:1.0;"/><path d="M330,673.5 Q330.2031,673 330.4375,672.75 Q330.6719,672.5 330.9375,672.5 Q331.4063,672.5 331.7031,672.7813 Q332,673.0625 332,673.7188 L332,675.2813 Q332,675.9375 331.7188,676.2188 Q331.4375,676.5 331,676.5 Q330.6094,676.5 330.3594,676.3281 Q330.1094,676.1563 330,675.7031 Q329.9531,675.3906 329.7813,675.2188 Q329.4688,674.8906 328.9063,674.7031 Q328.3438,674.5 327.7813,674.5 Q327.0781,674.5 326.4844,674.7813 Q325.9063,675.0625 325.4531,675.6875 Q325,676.3125 325,677.1719 L325,678.0938 Q325,679.125 325.8438,679.8125 Q326.6875,680.5 328.1875,680.5 Q329.0781,680.5 329.7031,680.2969 Q330.0625,680.1875 330.4688,679.8281 Q330.7344,679.625 330.875,679.5625 Q331.0156,679.5 331.1875,679.5 Q331.5156,679.5 331.75,679.7656 Q332,680.0156 332,680.375 Q332,680.7188 331.6563,681.125 Q331.1563,681.7188 330.3594,682.0469 Q329.3125,682.5 328.0313,682.5 Q326.5313,682.5 325.3281,681.9063 Q324.3594,681.4375 323.6719,680.4219 Q323,679.4063 323,678.2031 L323,677.1094 Q323,675.8594 323.5938,674.7656 Q324.2031,673.6719 325.25,673.0938 Q326.3125,672.5 327.5,672.5 Q328.2188,672.5 328.8438,672.75 Q329.4688,673 330,673.5 Z " fill="#000000"/><text fill="#000000" font-family="sans-serif" font-size="12" lengthAdjust="spacing" textLength="80" x="342" y="681.9102">CargoManifest</text><line style="stroke:#A80036;stroke-width:1.5;" x1="314" x2="424" y1="693" y2="693"/><text fill="#000000" font-family="sans-serif" font-size="11" lengthAdjust="spacing" textLength="81" x="319" y="708.4189">-cargoManifestId</text><!--MD5=[0dc7f2ddb409b58bcf52b12238c25399]
class Ship--><rect codeLine="52" fill="#FEFECE" filter="url(#fk2gmm7fv68ay)" height="150.6875" id="Ship" style="stroke:#A80036;stroke-width:1.5;" width="125" x="24.5" y="386.5"/><ellipse cx="70.25" cy="402.5" fill="#ADD1B2" rx="11" ry="11" style="stroke:#A80036;stroke-width:1.0;"/><path d="M72.25,399 Q72.4531,398.5 72.6875,398.25 Q72.9219,398 73.1875,398 Q73.6563,398 73.9531,398.2813 Q74.25,398.5625 74.25,399.2188 L74.25,400.7813 Q74.25,401.4375 73.9688,401.7188 Q73.6875,402 73.25,402 Q72.8594,402 72.6094,401.8281 Q72.3594,401.6563 72.25,401.2031 Q72.2031,400.8906 72.0313,400.7188 Q71.7188,400.3906 71.1563,400.2031 Q70.5938,400 70.0313,400 Q69.3281,400 68.7344,400.2813 Q68.1563,400.5625 67.7031,401.1875 Q67.25,401.8125 67.25,402.6719 L67.25,403.5938 Q67.25,404.625 68.0938,405.3125 Q68.9375,406 70.4375,406 Q71.3281,406 71.9531,405.7969 Q72.3125,405.6875 72.7188,405.3281 Q72.9844,405.125 73.125,405.0625 Q73.2656,405 73.4375,405 Q73.7656,405 74,405.2656 Q74.25,405.5156 74.25,405.875 Q74.25,406.2188 73.9063,406.625 Q73.4063,407.2188 72.6094,407.5469 Q71.5625,408 70.2813,408 Q68.7813,408 67.5781,407.4063 Q66.6094,406.9375 65.9219,405.9219 Q65.25,404.9063 65.25,403.7031 L65.25,402.6094 Q65.25,401.3594 65.8438,400.2656 Q66.4531,399.1719 67.5,398.5938 Q68.5625,398 69.75,398 Q70.4688,398 71.0938,398.25 Q71.7188,398.5 72.25,399 Z " fill="#000000"/><text fill="#000000" font-family="sans-serif" font-size="12" lengthAdjust="spacing" textLength="25" x="90.75" y="407.4102">Ship</text><line style="stroke:#A80036;stroke-width:1.5;" x1="25.5" x2="148.5" y1="418.5" y2="418.5"/><text fill="#000000" font-family="sans-serif" font-size="11" lengthAdjust="spacing" textLength="61" x="30.5" y="433.9189">-mmmsiCode</text><text fill="#000000" font-family="sans-serif" font-size="11" lengthAdjust="spacing" textLength="51" x="30.5" y="447.7549">-shipName</text><text fill="#000000" font-family="sans-serif" font-size="11" lengthAdjust="spacing" textLength="45" x="30.5" y="461.5908">-imoCode</text><text fill="#000000" font-family="sans-serif" font-size="11" lengthAdjust="spacing" textLength="113" x="30.5" y="475.4268">-numEnergyGenerators</text><text fill="#000000" font-family="sans-serif" font-size="11" lengthAdjust="spacing" textLength="89" x="30.5" y="489.2627">-generatorsPower</text><text fill="#000000" font-family="sans-serif" font-size="11" lengthAdjust="spacing" textLength="49" x="30.5" y="503.0986">-callSignId</text><text fill="#000000" font-family="sans-serif" font-size="11" lengthAdjust="spacing" textLength="81" x="30.5" y="516.9346">-currentCapacity</text><text fill="#000000" font-family="sans-serif" font-size="11" lengthAdjust="spacing" textLength="27" x="30.5" y="530.7705">-draft</text><!--MD5=[c5149b4909ffd2688ff51a939867f774]
class Warehouse--><rect codeLine="63" fill="#FEFECE" filter="url(#fk2gmm7fv68ay)" height="32" id="Warehouse" style="stroke:#A80036;stroke-width:1.5;" width="96" x="321" y="842"/><ellipse cx="336" cy="858" fill="#ADD1B2" rx="11" ry="11" style="stroke:#A80036;stroke-width:1.0;"/><path d="M338,854.5 Q338.2031,854 338.4375,853.75 Q338.6719,853.5 338.9375,853.5 Q339.4063,853.5 339.7031,853.7813 Q340,854.0625 340,854.7188 L340,856.2813 Q340,856.9375 339.7188,857.2188 Q339.4375,857.5 339,857.5 Q338.6094,857.5 338.3594,857.3281 Q338.1094,857.1563 338,856.7031 Q337.9531,856.3906 337.7813,856.2188 Q337.4688,855.8906 336.9063,855.7031 Q336.3438,855.5 335.7813,855.5 Q335.0781,855.5 334.4844,855.7813 Q333.9063,856.0625 333.4531,856.6875 Q333,857.3125 333,858.1719 L333,859.0938 Q333,860.125 333.8438,860.8125 Q334.6875,861.5 336.1875,861.5 Q337.0781,861.5 337.7031,861.2969 Q338.0625,861.1875 338.4688,860.8281 Q338.7344,860.625 338.875,860.5625 Q339.0156,860.5 339.1875,860.5 Q339.5156,860.5 339.75,860.7656 Q340,861.0156 340,861.375 Q340,861.7188 339.6563,862.125 Q339.1563,862.7188 338.3594,863.0469 Q337.3125,863.5 336.0313,863.5 Q334.5313,863.5 333.3281,862.9063 Q332.3594,862.4375 331.6719,861.4219 Q331,860.4063 331,859.2031 L331,858.1094 Q331,856.8594 331.5938,855.7656 Q332.2031,854.6719 333.25,854.0938 Q334.3125,853.5 335.5,853.5 Q336.2188,853.5 336.8438,853.75 Q337.4688,854 338,854.5 Z " fill="#000000"/><text fill="#000000" font-family="sans-serif" font-size="12" lengthAdjust="spacing" textLength="64" x="350" y="862.9102">Warehouse</text><!--MD5=[c3595080bead4b0218f76e921c99c6ce]
class PositionInVehicle--><rect codeLine="65" fill="#FEFECE" filter="url(#fk2gmm7fv68ay)" height="81.5078" id="PositionInVehicle" style="stroke:#A80036;stroke-width:1.5;" width="156" x="726" y="645"/><ellipse cx="754.05" cy="661" fill="#ADD1B2" rx="11" ry="11" style="stroke:#A80036;stroke-width:1.0;"/><path d="M756.05,657.5 Q756.2531,657 756.4875,656.75 Q756.7219,656.5 756.9875,656.5 Q757.4563,656.5 757.7531,656.7813 Q758.05,657.0625 758.05,657.7188 L758.05,659.2813 Q758.05,659.9375 757.7688,660.2188 Q757.4875,660.5 757.05,660.5 Q756.6594,660.5 756.4094,660.3281 Q756.1594,660.1563 756.05,659.7031 Q756.0031,659.3906 755.8313,659.2188 Q755.5188,658.8906 754.9563,658.7031 Q754.3938,658.5 753.8313,658.5 Q753.1281,658.5 752.5344,658.7813 Q751.9563,659.0625 751.5031,659.6875 Q751.05,660.3125 751.05,661.1719 L751.05,662.0938 Q751.05,663.125 751.8938,663.8125 Q752.7375,664.5 754.2375,664.5 Q755.1281,664.5 755.7531,664.2969 Q756.1125,664.1875 756.5188,663.8281 Q756.7844,663.625 756.925,663.5625 Q757.0656,663.5 757.2375,663.5 Q757.5656,663.5 757.8,663.7656 Q758.05,664.0156 758.05,664.375 Q758.05,664.7188 757.7063,665.125 Q757.2063,665.7188 756.4094,666.0469 Q755.3625,666.5 754.0813,666.5 Q752.5813,666.5 751.3781,665.9063 Q750.4094,665.4375 749.7219,664.4219 Q749.05,663.4063 749.05,662.2031 L749.05,661.1094 Q749.05,659.8594 749.6438,658.7656 Q750.2531,657.6719 751.3,657.0938 Q752.3625,656.5 753.55,656.5 Q754.2688,656.5 754.8938,656.75 Q755.5188,657 756.05,657.5 Z " fill="#000000"/><text fill="#000000" font-family="sans-serif" font-size="12" lengthAdjust="spacing" textLength="95" x="770.95" y="665.9102">PositionInVehicle</text><line style="stroke:#A80036;stroke-width:1.5;" x1="727" x2="881" y1="677" y2="677"/><text fill="#000000" font-family="sans-serif" font-size="11" lengthAdjust="spacing" textLength="143" x="732" y="692.4189">-containerPositionInVehiculeX</text><text fill="#000000" font-family="sans-serif" font-size="11" lengthAdjust="spacing" textLength="144" x="732" y="706.2549">-containerPositionInVehiculeY</text><text fill="#000000" font-family="sans-serif" font-size="11" lengthAdjust="spacing" textLength="143" x="732" y="720.0908">-containerPositionInVehiculeZ</text><!--MD5=[cf9c7d7c3da40397ddde4f51b7097da6]
class VesselType--><rect codeLine="71" fill="#FEFECE" filter="url(#fk2gmm7fv68ay)" height="95.3438" id="VesselType" style="stroke:#A80036;stroke-width:1.5;" width="96" x="321" y="256.5"/><ellipse cx="336" cy="272.5" fill="#ADD1B2" rx="11" ry="11" style="stroke:#A80036;stroke-width:1.0;"/><path d="M338,269 Q338.2031,268.5 338.4375,268.25 Q338.6719,268 338.9375,268 Q339.4063,268 339.7031,268.2813 Q340,268.5625 340,269.2188 L340,270.7813 Q340,271.4375 339.7188,271.7188 Q339.4375,272 339,272 Q338.6094,272 338.3594,271.8281 Q338.1094,271.6563 338,271.2031 Q337.9531,270.8906 337.7813,270.7188 Q337.4688,270.3906 336.9063,270.2031 Q336.3438,270 335.7813,270 Q335.0781,270 334.4844,270.2813 Q333.9063,270.5625 333.4531,271.1875 Q333,271.8125 333,272.6719 L333,273.5938 Q333,274.625 333.8438,275.3125 Q334.6875,276 336.1875,276 Q337.0781,276 337.7031,275.7969 Q338.0625,275.6875 338.4688,275.3281 Q338.7344,275.125 338.875,275.0625 Q339.0156,275 339.1875,275 Q339.5156,275 339.75,275.2656 Q340,275.5156 340,275.875 Q340,276.2188 339.6563,276.625 Q339.1563,277.2188 338.3594,277.5469 Q337.3125,278 336.0313,278 Q334.5313,278 333.3281,277.4063 Q332.3594,276.9375 331.6719,275.9219 Q331,274.9063 331,273.7031 L331,272.6094 Q331,271.3594 331.5938,270.2656 Q332.2031,269.1719 333.25,268.5938 Q334.3125,268 335.5,268 Q336.2188,268 336.8438,268.25 Q337.4688,268.5 338,269 Z " fill="#000000"/><text fill="#000000" font-family="sans-serif" font-size="12" lengthAdjust="spacing" textLength="64" x="350" y="277.4102">VesselType</text><line style="stroke:#A80036;stroke-width:1.5;" x1="322" x2="416" y1="288.5" y2="288.5"/><text fill="#000000" font-family="sans-serif" font-size="11" lengthAdjust="spacing" textLength="68" x="327" y="303.9189">-vesselTypeId</text><text fill="#000000" font-family="sans-serif" font-size="11" lengthAdjust="spacing" textLength="33" x="327" y="317.7549">-length</text><text fill="#000000" font-family="sans-serif" font-size="11" lengthAdjust="spacing" textLength="31" x="327" y="331.5908">-width</text><text fill="#000000" font-family="sans-serif" font-size="11" lengthAdjust="spacing" textLength="66" x="327" y="345.4268">-maxCapacity</text><!--MD5=[1c0c3765e68dc4575d559b566278b914]
class ShipPosition--><rect codeLine="78" fill="#FEFECE" filter="url(#fk2gmm7fv68ay)" height="150.6875" id="ShipPosition" style="stroke:#A80036;stroke-width:1.5;" width="102" x="318" y="386.5"/><ellipse cx="333" cy="402.5" fill="#ADD1B2" rx="11" ry="11" style="stroke:#A80036;stroke-width:1.0;"/><path d="M335,399 Q335.2031,398.5 335.4375,398.25 Q335.6719,398 335.9375,398 Q336.4063,398 336.7031,398.2813 Q337,398.5625 337,399.2188 L337,400.7813 Q337,401.4375 336.7188,401.7188 Q336.4375,402 336,402 Q335.6094,402 335.3594,401.8281 Q335.1094,401.6563 335,401.2031 Q334.9531,400.8906 334.7813,400.7188 Q334.4688,400.3906 333.9063,400.2031 Q333.3438,400 332.7813,400 Q332.0781,400 331.4844,400.2813 Q330.9063,400.5625 330.4531,401.1875 Q330,401.8125 330,402.6719 L330,403.5938 Q330,404.625 330.8438,405.3125 Q331.6875,406 333.1875,406 Q334.0781,406 334.7031,405.7969 Q335.0625,405.6875 335.4688,405.3281 Q335.7344,405.125 335.875,405.0625 Q336.0156,405 336.1875,405 Q336.5156,405 336.75,405.2656 Q337,405.5156 337,405.875 Q337,406.2188 336.6563,406.625 Q336.1563,407.2188 335.3594,407.5469 Q334.3125,408 333.0313,408 Q331.5313,408 330.3281,407.4063 Q329.3594,406.9375 328.6719,405.9219 Q328,404.9063 328,403.7031 L328,402.6094 Q328,401.3594 328.5938,400.2656 Q329.2031,399.1719 330.25,398.5938 Q331.3125,398 332.5,398 Q333.2188,398 333.8438,398.25 Q334.4688,398.5 335,399 Z " fill="#000000"/><text fill="#000000" font-family="sans-serif" font-size="12" lengthAdjust="spacing" textLength="70" x="347" y="407.4102">ShipPosition</text><line style="stroke:#A80036;stroke-width:1.5;" x1="319" x2="419" y1="418.5" y2="418.5"/><text fill="#000000" font-family="sans-serif" font-size="11" lengthAdjust="spacing" textLength="72" x="324" y="433.9189">-baseDateTime</text><text fill="#000000" font-family="sans-serif" font-size="11" lengthAdjust="spacing" textLength="38" x="324" y="447.7549">-latitude</text><text fill="#000000" font-family="sans-serif" font-size="11" lengthAdjust="spacing" textLength="47" x="324" y="461.5908">-longitude</text><text fill="#000000" font-family="sans-serif" font-size="11" lengthAdjust="spacing" textLength="22" x="324" y="475.4268">-sog</text><text fill="#000000" font-family="sans-serif" font-size="11" lengthAdjust="spacing" textLength="22" x="324" y="489.2627">-cog</text><text fill="#000000" font-family="sans-serif" font-size="11" lengthAdjust="spacing" textLength="42" x="324" y="503.0986">-heading</text><text fill="#000000" font-family="sans-serif" font-size="11" lengthAdjust="spacing" textLength="41" x="324" y="516.9346">-position</text><text fill="#000000" font-family="sans-serif" font-size="11" lengthAdjust="spacing" textLength="59" x="324" y="530.7705">-transceiver</text><!--MD5=[43ff85ae920c80232f751cf2f6bc0f7a]
class PortsAndWarehouses--><rect codeLine="90" fill="#FEFECE" filter="url(#fk2gmm7fv68ay)" height="67.6719" id="PortsAndWarehouses" style="stroke:#A80036;stroke-width:1.5;" width="153" x="10.5" y="7"/><ellipse cx="25.5" cy="23" fill="#ADD1B2" rx="11" ry="11" style="stroke:#A80036;stroke-width:1.0;"/><path d="M27.5,19.5 Q27.7031,19 27.9375,18.75 Q28.1719,18.5 28.4375,18.5 Q28.9063,18.5 29.2031,18.7813 Q29.5,19.0625 29.5,19.7188 L29.5,21.2813 Q29.5,21.9375 29.2188,22.2188 Q28.9375,22.5 28.5,22.5 Q28.1094,22.5 27.8594,22.3281 Q27.6094,22.1563 27.5,21.7031 Q27.4531,21.3906 27.2813,21.2188 Q26.9688,20.8906 26.4063,20.7031 Q25.8438,20.5 25.2813,20.5 Q24.5781,20.5 23.9844,20.7813 Q23.4063,21.0625 22.9531,21.6875 Q22.5,22.3125 22.5,23.1719 L22.5,24.0938 Q22.5,25.125 23.3438,25.8125 Q24.1875,26.5 25.6875,26.5 Q26.5781,26.5 27.2031,26.2969 Q27.5625,26.1875 27.9688,25.8281 Q28.2344,25.625 28.375,25.5625 Q28.5156,25.5 28.6875,25.5 Q29.0156,25.5 29.25,25.7656 Q29.5,26.0156 29.5,26.375 Q29.5,26.7188 29.1563,27.125 Q28.6563,27.7188 27.8594,28.0469 Q26.8125,28.5 25.5313,28.5 Q24.0313,28.5 22.8281,27.9063 Q21.8594,27.4375 21.1719,26.4219 Q20.5,25.4063 20.5,24.2031 L20.5,23.1094 Q20.5,21.8594 21.0938,20.7656 Q21.7031,19.6719 22.75,19.0938 Q23.8125,18.5 25,18.5 Q25.7188,18.5 26.3438,18.75 Q26.9688,19 27.5,19.5 Z " fill="#000000"/><text fill="#000000" font-family="sans-serif" font-size="12" lengthAdjust="spacing" textLength="121" x="39.5" y="27.9102">PortsAndWarehouses</text><line style="stroke:#A80036;stroke-width:1.5;" x1="11.5" x2="162.5" y1="39" y2="39"/><text fill="#000000" font-family="sans-serif" font-size="11" lengthAdjust="spacing" textLength="64" x="16.5" y="54.4189">-identification</text><text fill="#000000" font-family="sans-serif" font-size="11" lengthAdjust="spacing" textLength="30" x="16.5" y="68.2549">-name</text><!--MD5=[deb4e1f6eb1e3c1256fdb830f96abfbb]
class Country--><rect codeLine="95" fill="#FEFECE" filter="url(#fk2gmm7fv68ay)" height="67.6719" id="Country" style="stroke:#A80036;stroke-width:1.5;" width="109" x="521" y="7"/><ellipse cx="551.75" cy="23" fill="#ADD1B2" rx="11" ry="11" style="stroke:#A80036;stroke-width:1.0;"/><path d="M553.75,19.5 Q553.9531,19 554.1875,18.75 Q554.4219,18.5 554.6875,18.5 Q555.1563,18.5 555.4531,18.7813 Q555.75,19.0625 555.75,19.7188 L555.75,21.2813 Q555.75,21.9375 555.4688,22.2188 Q555.1875,22.5 554.75,22.5 Q554.3594,22.5 554.1094,22.3281 Q553.8594,22.1563 553.75,21.7031 Q553.7031,21.3906 553.5313,21.2188 Q553.2188,20.8906 552.6563,20.7031 Q552.0938,20.5 551.5313,20.5 Q550.8281,20.5 550.2344,20.7813 Q549.6563,21.0625 549.2031,21.6875 Q548.75,22.3125 548.75,23.1719 L548.75,24.0938 Q548.75,25.125 549.5938,25.8125 Q550.4375,26.5 551.9375,26.5 Q552.8281,26.5 553.4531,26.2969 Q553.8125,26.1875 554.2188,25.8281 Q554.4844,25.625 554.625,25.5625 Q554.7656,25.5 554.9375,25.5 Q555.2656,25.5 555.5,25.7656 Q555.75,26.0156 555.75,26.375 Q555.75,26.7188 555.4063,27.125 Q554.9063,27.7188 554.1094,28.0469 Q553.0625,28.5 551.7813,28.5 Q550.2813,28.5 549.0781,27.9063 Q548.1094,27.4375 547.4219,26.4219 Q546.75,25.4063 546.75,24.2031 L546.75,23.1094 Q546.75,21.8594 547.3438,20.7656 Q547.9531,19.6719 549,19.0938 Q550.0625,18.5 551.25,18.5 Q551.9688,18.5 552.5938,18.75 Q553.2188,19 553.75,19.5 Z " fill="#000000"/><text fill="#000000" font-family="sans-serif" font-size="12" lengthAdjust="spacing" textLength="42" x="569.25" y="27.9102">Country</text><line style="stroke:#A80036;stroke-width:1.5;" x1="522" x2="629" y1="39" y2="39"/><text fill="#000000" font-family="sans-serif" font-size="11" lengthAdjust="spacing" textLength="97" x="527" y="54.4189">-countryDesignation</text><text fill="#000000" font-family="sans-serif" font-size="11" lengthAdjust="spacing" textLength="48" x="527" y="68.2549">-continent</text><!--MD5=[9febfb2ff9adfe183e01ff702b9c1c02]
class PlaceLocation--><rect codeLine="100" fill="#FEFECE" filter="url(#fk2gmm7fv68ay)" height="67.6719" id="PlaceLocation" style="stroke:#A80036;stroke-width:1.5;" width="110" x="314" y="7"/><ellipse cx="329" cy="23" fill="#ADD1B2" rx="11" ry="11" style="stroke:#A80036;stroke-width:1.0;"/><path d="M331,19.5 Q331.2031,19 331.4375,18.75 Q331.6719,18.5 331.9375,18.5 Q332.4063,18.5 332.7031,18.7813 Q333,19.0625 333,19.7188 L333,21.2813 Q333,21.9375 332.7188,22.2188 Q332.4375,22.5 332,22.5 Q331.6094,22.5 331.3594,22.3281 Q331.1094,22.1563 331,21.7031 Q330.9531,21.3906 330.7813,21.2188 Q330.4688,20.8906 329.9063,20.7031 Q329.3438,20.5 328.7813,20.5 Q328.0781,20.5 327.4844,20.7813 Q326.9063,21.0625 326.4531,21.6875 Q326,22.3125 326,23.1719 L326,24.0938 Q326,25.125 326.8438,25.8125 Q327.6875,26.5 329.1875,26.5 Q330.0781,26.5 330.7031,26.2969 Q331.0625,26.1875 331.4688,25.8281 Q331.7344,25.625 331.875,25.5625 Q332.0156,25.5 332.1875,25.5 Q332.5156,25.5 332.75,25.7656 Q333,26.0156 333,26.375 Q333,26.7188 332.6563,27.125 Q332.1563,27.7188 331.3594,28.0469 Q330.3125,28.5 329.0313,28.5 Q327.5313,28.5 326.3281,27.9063 Q325.3594,27.4375 324.6719,26.4219 Q324,25.4063 324,24.2031 L324,23.1094 Q324,21.8594 324.5938,20.7656 Q325.2031,19.6719 326.25,19.0938 Q327.3125,18.5 328.5,18.5 Q329.2188,18.5 329.8438,18.75 Q330.4688,19 331,19.5 Z " fill="#000000"/><text fill="#000000" font-family="sans-serif" font-size="12" lengthAdjust="spacing" textLength="78" x="343" y="27.9102">PlaceLocation</text><line style="stroke:#A80036;stroke-width:1.5;" x1="315" x2="423" y1="39" y2="39"/><text fill="#000000" font-family="sans-serif" font-size="11" lengthAdjust="spacing" textLength="79" x="320" y="54.4189">-locationLatitude</text><text fill="#000000" font-family="sans-serif" font-size="11" lengthAdjust="spacing" textLength="88" x="320" y="68.2549">-locationLongitude</text><!--MD5=[f2ba7f6ab60af8dd0d3e354f91729b14]
class Truck--><rect codeLine="105" fill="#FEFECE" filter="url(#fk2gmm7fv68ay)" height="32" id="Truck" style="stroke:#A80036;stroke-width:1.5;" width="62" x="56" y="740"/><ellipse cx="71" cy="756" fill="#ADD1B2" rx="11" ry="11" style="stroke:#A80036;stroke-width:1.0;"/><path d="M73,752.5 Q73.2031,752 73.4375,751.75 Q73.6719,751.5 73.9375,751.5 Q74.4063,751.5 74.7031,751.7813 Q75,752.0625 75,752.7188 L75,754.2813 Q75,754.9375 74.7188,755.2188 Q74.4375,755.5 74,755.5 Q73.6094,755.5 73.3594,755.3281 Q73.1094,755.1563 73,754.7031 Q72.9531,754.3906 72.7813,754.2188 Q72.4688,753.8906 71.9063,753.7031 Q71.3438,753.5 70.7813,753.5 Q70.0781,753.5 69.4844,753.7813 Q68.9063,754.0625 68.4531,754.6875 Q68,755.3125 68,756.1719 L68,757.0938 Q68,758.125 68.8438,758.8125 Q69.6875,759.5 71.1875,759.5 Q72.0781,759.5 72.7031,759.2969 Q73.0625,759.1875 73.4688,758.8281 Q73.7344,758.625 73.875,758.5625 Q74.0156,758.5 74.1875,758.5 Q74.5156,758.5 74.75,758.7656 Q75,759.0156 75,759.375 Q75,759.7188 74.6563,760.125 Q74.1563,760.7188 73.3594,761.0469 Q72.3125,761.5 71.0313,761.5 Q69.5313,761.5 68.3281,760.9063 Q67.3594,760.4375 66.6719,759.4219 Q66,758.4063 66,757.2031 L66,756.1094 Q66,754.8594 66.5938,753.7656 Q67.2031,752.6719 68.25,752.0938 Q69.3125,751.5 70.5,751.5 Q71.2188,751.5 71.8438,751.75 Q72.4688,752 73,752.5 Z " fill="#000000"/><text fill="#000000" font-family="sans-serif" font-size="12" lengthAdjust="spacing" textLength="30" x="85" y="760.9102">Truck</text><!--MD5=[bea5b0d46523efab5ea1c1d339f396f0]
class Message--><rect codeLine="108" fill="#FEFECE" filter="url(#fk2gmm7fv68ay)" height="32" id="Message" style="stroke:#A80036;stroke-width:1.5;" width="83" x="327.5" y="181"/><ellipse cx="342.5" cy="197" fill="#ADD1B2" rx="11" ry="11" style="stroke:#A80036;stroke-width:1.0;"/><path d="M344.5,193.5 Q344.7031,193 344.9375,192.75 Q345.1719,192.5 345.4375,192.5 Q345.9063,192.5 346.2031,192.7813 Q346.5,193.0625 346.5,193.7188 L346.5,195.2813 Q346.5,195.9375 346.2188,196.2188 Q345.9375,196.5 345.5,196.5 Q345.1094,196.5 344.8594,196.3281 Q344.6094,196.1563 344.5,195.7031 Q344.4531,195.3906 344.2813,195.2188 Q343.9688,194.8906 343.4063,194.7031 Q342.8438,194.5 342.2813,194.5 Q341.5781,194.5 340.9844,194.7813 Q340.4063,195.0625 339.9531,195.6875 Q339.5,196.3125 339.5,197.1719 L339.5,198.0938 Q339.5,199.125 340.3438,199.8125 Q341.1875,200.5 342.6875,200.5 Q343.5781,200.5 344.2031,200.2969 Q344.5625,200.1875 344.9688,199.8281 Q345.2344,199.625 345.375,199.5625 Q345.5156,199.5 345.6875,199.5 Q346.0156,199.5 346.25,199.7656 Q346.5,200.0156 346.5,200.375 Q346.5,200.7188 346.1563,201.125 Q345.6563,201.7188 344.8594,202.0469 Q343.8125,202.5 342.5313,202.5 Q341.0313,202.5 339.8281,201.9063 Q338.8594,201.4375 338.1719,200.4219 Q337.5,199.4063 337.5,198.2031 L337.5,197.1094 Q337.5,195.8594 338.0938,194.7656 Q338.7031,193.6719 339.75,193.0938 Q340.8125,192.5 342,192.5 Q342.7188,192.5 343.3438,192.75 Q343.9688,193 344.5,193.5 Z " fill="#000000"/><text fill="#000000" font-family="sans-serif" font-size="12" lengthAdjust="spacing" textLength="51" x="356.5" y="201.9102">Message</text><!--MD5=[47c5588f05961ae212567e183a99be10]
class USCoastGuard--><rect codeLine="110" fill="#FEFECE" filter="url(#fk2gmm7fv68ay)" height="32" id="USCoastGuard" style="stroke:#A80036;stroke-width:1.5;" width="116" x="29" y="177"/><ellipse cx="44" cy="193" fill="#ADD1B2" rx="11" ry="11" style="stroke:#A80036;stroke-width:1.0;"/><path d="M46,189.5 Q46.2031,189 46.4375,188.75 Q46.6719,188.5 46.9375,188.5 Q47.4063,188.5 47.7031,188.7813 Q48,189.0625 48,189.7188 L48,191.2813 Q48,191.9375 47.7188,192.2188 Q47.4375,192.5 47,192.5 Q46.6094,192.5 46.3594,192.3281 Q46.1094,192.1563 46,191.7031 Q45.9531,191.3906 45.7813,191.2188 Q45.4688,190.8906 44.9063,190.7031 Q44.3438,190.5 43.7813,190.5 Q43.0781,190.5 42.4844,190.7813 Q41.9063,191.0625 41.4531,191.6875 Q41,192.3125 41,193.1719 L41,194.0938 Q41,195.125 41.8438,195.8125 Q42.6875,196.5 44.1875,196.5 Q45.0781,196.5 45.7031,196.2969 Q46.0625,196.1875 46.4688,195.8281 Q46.7344,195.625 46.875,195.5625 Q47.0156,195.5 47.1875,195.5 Q47.5156,195.5 47.75,195.7656 Q48,196.0156 48,196.375 Q48,196.7188 47.6563,197.125 Q47.1563,197.7188 46.3594,198.0469 Q45.3125,198.5 44.0313,198.5 Q42.5313,198.5 41.3281,197.9063 Q40.3594,197.4375 39.6719,196.4219 Q39,195.4063 39,194.2031 L39,193.1094 Q39,191.8594 39.5938,190.7656 Q40.2031,189.6719 41.25,189.0938 Q42.3125,188.5 43.5,188.5 Q44.2188,188.5 44.8438,188.75 Q45.4688,189 46,189.5 Z " fill="#000000"/><text fill="#000000" font-family="sans-serif" font-size="12" lengthAdjust="spacing" textLength="84" x="58" y="197.9102">USCoastGuard</text><!--MD5=[19db92a680528e4f3f642ddf82f32312]
class Quote--><rect codeLine="112" fill="#FEFECE" filter="url(#fk2gmm7fv68ay)" height="32" id="Quote" style="stroke:#A80036;stroke-width:1.5;" width="65" x="336.5" y="110"/><ellipse cx="351.5" cy="126" fill="#ADD1B2" rx="11" ry="11" style="stroke:#A80036;stroke-width:1.0;"/><path d="M353.5,122.5 Q353.7031,122 353.9375,121.75 Q354.1719,121.5 354.4375,121.5 Q354.9063,121.5 355.2031,121.7813 Q355.5,122.0625 355.5,122.7188 L355.5,124.2813 Q355.5,124.9375 355.2188,125.2188 Q354.9375,125.5 354.5,125.5 Q354.1094,125.5 353.8594,125.3281 Q353.6094,125.1563 353.5,124.7031 Q353.4531,124.3906 353.2813,124.2188 Q352.9688,123.8906 352.4063,123.7031 Q351.8438,123.5 351.2813,123.5 Q350.5781,123.5 349.9844,123.7813 Q349.4063,124.0625 348.9531,124.6875 Q348.5,125.3125 348.5,126.1719 L348.5,127.0938 Q348.5,128.125 349.3438,128.8125 Q350.1875,129.5 351.6875,129.5 Q352.5781,129.5 353.2031,129.2969 Q353.5625,129.1875 353.9688,128.8281 Q354.2344,128.625 354.375,128.5625 Q354.5156,128.5 354.6875,128.5 Q355.0156,128.5 355.25,128.7656 Q355.5,129.0156 355.5,129.375 Q355.5,129.7188 355.1563,130.125 Q354.6563,130.7188 353.8594,131.0469 Q352.8125,131.5 351.5313,131.5 Q350.0313,131.5 348.8281,130.9063 Q347.8594,130.4375 347.1719,129.4219 Q346.5,128.4063 346.5,127.2031 L346.5,126.1094 Q346.5,124.8594 347.0938,123.7656 Q347.7031,122.6719 348.75,122.0938 Q349.8125,121.5 351,121.5 Q351.7188,121.5 352.3438,121.75 Q352.9688,122 353.5,122.5 Z " fill="#000000"/><text fill="#000000" font-family="sans-serif" font-size="12" lengthAdjust="spacing" textLength="33" x="365.5" y="130.9102">Quote</text><!--MD5=[f188c39ec8068cfe7abefffe0dd06a38]
class PortsAndWareHouse--><rect fill="#FEFECE" filter="url(#fk2gmm7fv68ay)" height="32" id="PortsAndWareHouse" style="stroke:#A80036;stroke-width:1.5;" width="148" x="13" y="657"/><ellipse cx="28" cy="673" fill="#ADD1B2" rx="11" ry="11" style="stroke:#A80036;stroke-width:1.0;"/><path d="M30,669.5 Q30.2031,669 30.4375,668.75 Q30.6719,668.5 30.9375,668.5 Q31.4063,668.5 31.7031,668.7813 Q32,669.0625 32,669.7188 L32,671.2813 Q32,671.9375 31.7188,672.2188 Q31.4375,672.5 31,672.5 Q30.6094,672.5 30.3594,672.3281 Q30.1094,672.1563 30,671.7031 Q29.9531,671.3906 29.7813,671.2188 Q29.4688,670.8906 28.9063,670.7031 Q28.3438,670.5 27.7813,670.5 Q27.0781,670.5 26.4844,670.7813 Q25.9063,671.0625 25.4531,671.6875 Q25,672.3125 25,673.1719 L25,674.0938 Q25,675.125 25.8438,675.8125 Q26.6875,676.5 28.1875,676.5 Q29.0781,676.5 29.7031,676.2969 Q30.0625,676.1875 30.4688,675.8281 Q30.7344,675.625 30.875,675.5625 Q31.0156,675.5 31.1875,675.5 Q31.5156,675.5 31.75,675.7656 Q32,676.0156 32,676.375 Q32,676.7188 31.6563,677.125 Q31.1563,677.7188 30.3594,678.0469 Q29.3125,678.5 28.0313,678.5 Q26.5313,678.5 25.3281,677.9063 Q24.3594,677.4375 23.6719,676.4219 Q23,675.4063 23,674.2031 L23,673.1094 Q23,671.8594 23.5938,670.7656 Q24.2031,669.6719 25.25,669.0938 Q26.3125,668.5 27.5,668.5 Q28.2188,668.5 28.8438,668.75 Q29.4688,669 30,669.5 Z " fill="#000000"/><text fill="#000000" font-family="sans-serif" font-size="12" lengthAdjust="spacing" textLength="116" x="42" y="677.9102">PortsAndWareHouse</text><!--MD5=[acda98ef2513d819683ba761a9c77b11]
link Company to Warehouse--><path codeLine="116" d="M129.62,871.62 C180.65,868.71 266.96,863.77 320.53,860.71 " fill="none" id="Company-Warehouse" style="stroke:#A80036;stroke-width:1.0;"/><polygon fill="#000000" points="231.9919,853.8905,222.7938,851.4724,223.1292,857.3407,231.9919,853.8905" style="stroke:#000000;stroke-width:1.0;"/><text fill="#000000" font-family="sans-serif" font-size="13" lengthAdjust="spacing" textLength="21" x="236" y="859.4951">has</text><text fill="#000000" font-family="sans-serif" font-size="13" lengthAdjust="spacing" textLength="7" x="137.5469" y="867.3754">1</text><text fill="#000000" font-family="sans-serif" font-size="13" lengthAdjust="spacing" textLength="5" x="308.0438" y="875.804">*</text><!--MD5=[09366576ee87d48d594df10cacc83f45]
link Company to Employee--><path codeLine="117" d="M129.87,883.37 C173.74,895.24 241.88,919.84 283,965 C343.85,1031.83 361.81,1145.22 366.5,1186.96 " fill="none" id="Company-Employee" style="stroke:#A80036;stroke-width:1.0;"/><polygon fill="#000000" points="219.5738,904.1194,216.3312,895.1786,211.6953,898.7921,219.5738,904.1194" style="stroke:#000000;stroke-width:1.0;"/><text fill="#000000" font-family="sans-serif" font-size="13" lengthAdjust="spacing" textLength="42" x="225.5" y="905.4951">employ</text><text fill="#000000" font-family="sans-serif" font-size="13" lengthAdjust="spacing" textLength="7" x="137.55" y="899.7847">1</text><text fill="#000000" font-family="sans-serif" font-size="13" lengthAdjust="spacing" textLength="20" x="369.0781" y="1176.2518">1..*</text><!--MD5=[9a4e768575b552da0962875ab5b0cd44]
link FleetManager to Employee--><path codeLine="118" d="M140.62,975.99 C183.29,984.06 242.74,1001.01 283,1036 C331.13,1077.83 355.39,1153.5 364.11,1186.67 " fill="none" id="FleetManager-Employee" style="stroke:#A80036;stroke-width:1.0;"/><polygon fill="#000000" points="229.1383,985.6055,224.5725,977.2626,220.5406,981.5396,229.1383,985.6055" style="stroke:#000000;stroke-width:1.0;"/><text fill="#000000" font-family="sans-serif" font-size="13" lengthAdjust="spacing" textLength="24" x="234.5" y="987.4951">is of</text><text fill="#000000" font-family="sans-serif" font-size="13" lengthAdjust="spacing" textLength="7" x="148.6525" y="991.6178">1</text><text fill="#000000" font-family="sans-serif" font-size="13" lengthAdjust="spacing" textLength="7" x="354.3308" y="1176.164">1</text><!--MD5=[d0fdf38ce0ab40c06b63ff62a6bd3812]
link TrafficManager to Employee--><path codeLine="119" d="M143.72,1046.78 C184.82,1056.63 240.71,1074.15 283,1103 C316.32,1125.73 344.2,1164.83 358.23,1186.8 " fill="none" id="TrafficManager-Employee" style="stroke:#A80036;stroke-width:1.0;"/><polygon fill="#000000" points="229.687,1055.9088,223.7191,1048.5037,220.5063,1053.4258,229.687,1055.9088" style="stroke:#000000;stroke-width:1.0;"/><text fill="#000000" font-family="sans-serif" font-size="13" lengthAdjust="spacing" textLength="24" x="234.5" y="1058.4951">is of</text><text fill="#000000" font-family="sans-serif" font-size="13" lengthAdjust="spacing" textLength="7" x="151.4357" y="1062.7038">1</text><text fill="#000000" font-family="sans-serif" font-size="13" lengthAdjust="spacing" textLength="7" x="346.3247" y="1176.0368">1</text><!--MD5=[12679376560c2198a8f6c90c7ad3af0d]
link WarehouseStaff to Employee--><path codeLine="120" d="M147.16,1115.7 C186.42,1125.02 238.69,1139.14 283,1157 C303.54,1165.28 325.5,1177.25 341.95,1186.91 " fill="none" id="WarehouseStaff-Employee" style="stroke:#A80036;stroke-width:1.0;"/><polygon fill="#000000" points="230.196,1121.8925,222.7099,1116.0266,220.6917,1121.5472,230.196,1121.8925" style="stroke:#000000;stroke-width:1.0;"/><text fill="#000000" font-family="sans-serif" font-size="13" lengthAdjust="spacing" textLength="24" x="234.5" y="1125.4951">is of</text><text fill="#000000" font-family="sans-serif" font-size="13" lengthAdjust="spacing" textLength="7" x="154.9186" y="1131.7394">1</text><text fill="#000000" font-family="sans-serif" font-size="13" lengthAdjust="spacing" textLength="7" x="324.4484" y="1176.1846">1</text><!--MD5=[c6743e109eb76d2d09cfa90f31e12a5a]
link WarehouseManager to Employee--><path codeLine="121" d="M159.02,1178.37 C211.51,1184.56 281.26,1192.78 325.4,1197.98 " fill="none" id="WarehouseManager-Employee" style="stroke:#A80036;stroke-width:1.0;"/><polygon fill="#000000" points="230.4656,1174.761,221.8267,1170.7836,221.1387,1176.621,230.4656,1174.761" style="stroke:#000000;stroke-width:1.0;"/><text fill="#000000" font-family="sans-serif" font-size="13" lengthAdjust="spacing" textLength="24" x="234.5" y="1179.4951">is of</text><text fill="#000000" font-family="sans-serif" font-size="13" lengthAdjust="spacing" textLength="7" x="166.808" y="1193.5714">1</text><text fill="#000000" font-family="sans-serif" font-size="13" lengthAdjust="spacing" textLength="7" x="310.5991" y="1193.3478">1</text><!--MD5=[f5746861a373316dbd4236e21f083a87]
link PortStaff to Employee--><path codeLine="122" d="M126.21,1234.16 C165.6,1231.02 228.74,1225.42 283,1218 C296.81,1216.11 311.8,1213.62 325.3,1211.2 " fill="none" id="PortStaff-Employee" style="stroke:#A80036;stroke-width:1.0;"/><polygon fill="#000000" points="230.4671,1208.603,221.1448,1206.7196,221.8182,1212.5588,230.4671,1208.603" style="stroke:#000000;stroke-width:1.0;"/><text fill="#000000" font-family="sans-serif" font-size="13" lengthAdjust="spacing" textLength="24" x="234.5" y="1214.4951">is of</text><text fill="#000000" font-family="sans-serif" font-size="13" lengthAdjust="spacing" textLength="7" x="134.0847" y="1248.6389">1</text><text fill="#000000" font-family="sans-serif" font-size="13" lengthAdjust="spacing" textLength="7" x="310.4825" y="1227.4074">1</text><!--MD5=[48227f72ac221aec730e009b463e942c]
link PortManager to Employee--><path codeLine="123" d="M138.12,1294.87 C178.25,1286.62 235.5,1272.74 283,1253 C304.98,1243.87 328.15,1229.91 344.74,1219.06 " fill="none" id="PortManager-Employee" style="stroke:#A80036;stroke-width:1.0;"/><polygon fill="#000000" points="230.194,1242.4535,220.6901,1242.81,222.7148,1248.3282,230.194,1242.4535" style="stroke:#000000;stroke-width:1.0;"/><text fill="#000000" font-family="sans-serif" font-size="13" lengthAdjust="spacing" textLength="24" x="234.5" y="1249.4951">is of</text><text fill="#000000" font-family="sans-serif" font-size="13" lengthAdjust="spacing" textLength="7" x="146.1423" y="1308.225">1</text><text fill="#000000" font-family="sans-serif" font-size="13" lengthAdjust="spacing" textLength="7" x="328.5445" y="1240.5832">1</text><!--MD5=[9bddb47a84a03ce1d0ae43016cf9175b]
link ShipCaptain to Employee--><path codeLine="124" d="M137.08,1362.55 C178.71,1353.62 238.57,1336.48 283,1306 C317.03,1282.65 344.83,1241.98 358.61,1219.36 " fill="none" id="ShipCaptain-Employee" style="stroke:#A80036;stroke-width:1.0;"/><polygon fill="#000000" points="229.6992,1294.4616,220.5074,1296.9034,223.6982,1301.8398,229.6992,1294.4616" style="stroke:#000000;stroke-width:1.0;"/><text fill="#000000" font-family="sans-serif" font-size="13" lengthAdjust="spacing" textLength="24" x="234.5" y="1302.4951">is of</text><text fill="#000000" font-family="sans-serif" font-size="13" lengthAdjust="spacing" textLength="7" x="144.9496" y="1376.0048">1</text><text fill="#000000" font-family="sans-serif" font-size="13" lengthAdjust="spacing" textLength="7" x="347.3562" y="1240.3692">1</text><!--MD5=[e67c79233c96d2f485869cb74fcff0c9]
link ShipChiefElecEngineer to Employee--><path codeLine="125" d="M167.22,1425.73 C205.76,1416.4 250.63,1400.14 283,1372 C331.83,1329.55 355.84,1252.36 364.32,1219.03 " fill="none" id="ShipChiefElecEngineer-Employee" style="stroke:#A80036;stroke-width:1.0;"/><polygon fill="#000000" points="228.9505,1359.5572,220.5815,1364.0751,224.8354,1368.1314,228.9505,1359.5572" style="stroke:#000000;stroke-width:1.0;"/><text fill="#000000" font-family="sans-serif" font-size="13" lengthAdjust="spacing" textLength="24" x="234.5" y="1368.4951">is of</text><text fill="#000000" font-family="sans-serif" font-size="13" lengthAdjust="spacing" textLength="7" x="174.9379" y="1438.8477">1</text><text fill="#000000" font-family="sans-serif" font-size="13" lengthAdjust="spacing" textLength="7" x="363.9291" y="1240.5433">1</text><!--MD5=[5df4b7c0471bb54995755fea498402e2]
link TruckDriver to Employee--><path codeLine="126" d="M134.12,1501.59 C177.85,1495.98 242.68,1481.16 283,1442 C348.24,1378.64 363.54,1261.99 367.01,1219.24 " fill="none" id="TruckDriver-Employee" style="stroke:#A80036;stroke-width:1.0;"/><polygon fill="#000000" points="228.6815,1429.3186,220.6589,1434.4263,225.1933,1438.1664,228.6815,1429.3186" style="stroke:#000000;stroke-width:1.0;"/><text fill="#000000" font-family="sans-serif" font-size="13" lengthAdjust="spacing" textLength="24" x="234.5" y="1438.4951">is of</text><text fill="#000000" font-family="sans-serif" font-size="13" lengthAdjust="spacing" textLength="7" x="141.8712" y="1515.8149">1</text><text fill="#000000" font-family="sans-serif" font-size="13" lengthAdjust="spacing" textLength="7" x="358.2601" y="1240.5176">1</text><!--MD5=[a93f71c337684849482b0ec5675aa7db]
link CargoManifest to Container--><path codeLine="129" d="M425.07,666.19 C458.79,652.83 501.27,636.01 532.31,623.71 " fill="none" id="CargoManifest-Container" style="stroke:#A80036;stroke-width:1.0;"/><!--MD5=[e7fb3209ec5b0b32ba37b91769d7f861]
link CargoManifest to PositionInVehicle--><path codeLine="130" d="M425.19,692.08 C453.77,693.99 489.24,696.05 521,697 C569.42,698.44 581.58,698.54 630,697 C661.43,696 696.03,693.99 725.97,691.95 " fill="none" id="CargoManifest-PositionInVehicle" style="stroke:#A80036;stroke-width:1.0;"/><polygon fill="#000000" points="553.5,688.1736,544.4536,685.2386,544.4562,691.1165,553.5,688.1736" style="stroke:#000000;stroke-width:1.0;"/><text fill="#000000" font-family="sans-serif" font-size="13" lengthAdjust="spacing" textLength="49" x="557.5" y="693.4951">contains</text><!--MD5=[49c8bb1e2883d5513f9c89ff6f39a0c0]
link Container to PositionInVehicle--><path codeLine="133" d="M618.57,621.67 C648.64,632.16 689.96,646.57 725.86,659.1 " fill="none" id="Container-PositionInVehicle" style="stroke:#A80036;stroke-width:1.0;"/><polygon fill="#000000" points="669.721,629.8228,662.1487,624.0684,660.2126,629.6182,669.721,629.8228" style="stroke:#000000;stroke-width:1.0;"/><text fill="#000000" font-family="sans-serif" font-size="13" lengthAdjust="spacing" textLength="21" x="674" y="633.4951">has</text><text fill="#000000" font-family="sans-serif" font-size="13" lengthAdjust="spacing" textLength="7" x="626.5742" y="639.0763">1</text><text fill="#000000" font-family="sans-serif" font-size="13" lengthAdjust="spacing" textLength="7" x="711.0787" y="670.8339">1</text><!--MD5=[c324832c0212842eac80843bc02aaded]
link Ship to VesselType--><path codeLine="134" d="M149.79,427.13 C201.33,398.05 273.68,357.22 320.7,330.69 " fill="none" id="Ship-VesselType" style="stroke:#A80036;stroke-width:1.0;"/><polygon fill="#000000" points="229.8546,343.7186,220.5328,345.6041,223.4214,350.7232,229.8546,343.7186" style="stroke:#000000;stroke-width:1.0;"/><text fill="#000000" font-family="sans-serif" font-size="13" lengthAdjust="spacing" textLength="24" x="234.5" y="351.4951">is of</text><text fill="#000000" font-family="sans-serif" font-size="13" lengthAdjust="spacing" textLength="5" x="157.3392" y="437.5567">*</text><text fill="#000000" font-family="sans-serif" font-size="13" lengthAdjust="spacing" textLength="7" x="306.0919" y="349.2808">1</text><!--MD5=[f56e222e1748568825f030a9b791275e]
link Ship to ShipPosition--><path codeLine="135" d="M149.79,462 C200.2,462 270.53,462 317.58,462 " fill="none" id="Ship-ShipPosition" style="stroke:#A80036;stroke-width:1.0;"/><polygon fill="#000000" points="232,453.1758,222.9549,450.2369,222.9549,456.1147,232,453.1758" style="stroke:#000000;stroke-width:1.0;"/><text fill="#000000" font-family="sans-serif" font-size="13" lengthAdjust="spacing" textLength="21" x="236" y="458.4951">has</text><text fill="#000000" font-family="sans-serif" font-size="13" lengthAdjust="spacing" textLength="7" x="157.4548" y="476.4585">1</text><text fill="#000000" font-family="sans-serif" font-size="13" lengthAdjust="spacing" textLength="7" x="302.8569" y="476.6668">1</text><!--MD5=[04497234c2931d84ca499a5725b63514]
link PortsAndWarehouses to PlaceLocation--><path codeLine="136" d="M163.77,41 C211.23,41 271.25,41 313.92,41 " fill="none" id="PortsAndWarehouses-PlaceLocation" style="stroke:#A80036;stroke-width:1.0;"/><polygon fill="#000000" points="207,32.1758,197.9549,29.2369,197.9549,35.1147,207,32.1758" style="stroke:#000000;stroke-width:1.0;"/><text fill="#000000" font-family="sans-serif" font-size="13" lengthAdjust="spacing" textLength="71" x="211" y="37.4951">is located at</text><text fill="#000000" font-family="sans-serif" font-size="13" lengthAdjust="spacing" textLength="7" x="171.4207" y="55.29">1</text><text fill="#000000" font-family="sans-serif" font-size="13" lengthAdjust="spacing" textLength="7" x="299.0483" y="55.6158">1</text><!--MD5=[3d04185e7085eaaeba7ebd93b9963be0]
link PlaceLocation to Country--><path codeLine="137" d="M424.27,41 C454.08,41 490.94,41 520.69,41 " fill="none" id="PlaceLocation-Country" style="stroke:#A80036;stroke-width:1.0;"/><polygon fill="#000000" points="465,32.1758,455.9549,29.2369,455.9549,35.1147,465,32.1758" style="stroke:#000000;stroke-width:1.0;"/><text fill="#000000" font-family="sans-serif" font-size="13" lengthAdjust="spacing" textLength="21" x="469" y="37.4951">in a</text><text fill="#000000" font-family="sans-serif" font-size="13" lengthAdjust="spacing" textLength="5" x="432.0328" y="55.6158">*</text><text fill="#000000" font-family="sans-serif" font-size="13" lengthAdjust="spacing" textLength="7" x="505.8546" y="55.6158">1</text><!--MD5=[ba54223a31981c52d18c1dd571f5520c]
link Ship to Container--><path codeLine="138" d="M149.72,499.38 C193.7,524.25 255.05,555.47 313,573 C388.15,595.74 479.97,603.27 532.4,605.76 " fill="none" id="Ship-Container" style="stroke:#A80036;stroke-width:1.0;"/><polygon fill="#000000" points="342.3173,565.5149,334.3898,560.2608,332.8156,565.9239,342.3173,565.5149" style="stroke:#000000;stroke-width:1.0;"/><text fill="#000000" font-family="sans-serif" font-size="13" lengthAdjust="spacing" textLength="58" x="346.5" y="569.4951">transports</text><text fill="#000000" font-family="sans-serif" font-size="13" lengthAdjust="spacing" textLength="7" x="157.3767" y="518.1606">1</text><text fill="#000000" font-family="sans-serif" font-size="13" lengthAdjust="spacing" textLength="5" x="519.5625" y="620.4318">*</text><!--MD5=[062871d5623378d71d4c490cb56733bb]
link Truck to Container--><path codeLine="139" d="M118.31,762.69 C179.19,774.61 319.5,794.46 425,751 C450.16,740.64 497.65,692.4 532.38,654.57 " fill="none" id="Truck-Container" style="stroke:#A80036;stroke-width:1.0;"/><polygon fill="#000000" points="342.3378,740.9126,332.8436,740.3542,334.3286,746.0413,342.3378,740.9126" style="stroke:#000000;stroke-width:1.0;"/><text fill="#000000" font-family="sans-serif" font-size="13" lengthAdjust="spacing" textLength="58" x="346.5" y="747.4951">transports</text><text fill="#000000" font-family="sans-serif" font-size="13" lengthAdjust="spacing" textLength="5" x="126.1286" y="779.6228">*</text><text fill="#000000" font-family="sans-serif" font-size="13" lengthAdjust="spacing" textLength="7" x="517.3672" y="677.631">1</text><!--MD5=[1455ab4c2639af2370608c1bbf2a9850]
link Ship to CargoManifest--><path codeLine="142" d="M132.77,537.87 C150.4,563.17 172.35,589.99 197,610 C215.81,625.27 270.34,649.07 312.81,666.37 " fill="none" id="Ship-CargoManifest" style="stroke:#A80036;stroke-width:1.0;"/><text fill="#000000" font-family="sans-serif" font-size="13" lengthAdjust="spacing" textLength="7" x="129.4026" y="558.6012">1</text><text fill="#000000" font-family="sans-serif" font-size="13" lengthAdjust="spacing" textLength="5" x="299.9235" y="678.0682">*</text><!--MD5=[fbdfc46126a12876c1c014194abedede]
link Truck to CargoManifest--><path codeLine="143" d="M118.23,748.66 C164.75,737.36 254.62,715.54 312.92,701.38 " fill="none" id="Truck-CargoManifest" style="stroke:#A80036;stroke-width:1.0;"/><!--MD5=[6268dbef1c5b4f78ab7639c68955ef0d]
link PortsAndWareHouse to CargoManifest--><path codeLine="144" d="M161.2,676.92 C208.68,679.46 269.54,682.73 312.92,685.05 " fill="none" id="PortsAndWareHouse-CargoManifest" style="stroke:#A80036;stroke-width:1.0;"/><polygon fill="#000000" points="209.9928,670.4433,201.118,667.0246,200.8035,672.894,209.9928,670.4433" style="stroke:#000000;stroke-width:1.0;"/><text fill="#000000" font-family="sans-serif" font-size="13" lengthAdjust="spacing" textLength="65" x="214" y="675.4951">delivered at</text><text fill="#000000" font-family="sans-serif" font-size="13" lengthAdjust="spacing" textLength="7" x="169.2128" y="691.6625">1</text><text fill="#000000" font-family="sans-serif" font-size="13" lengthAdjust="spacing" textLength="5" x="300.0483" y="699.2584">*</text><!--MD5=[1990cf715cc87f72d940fcce47c686f9]
link Ship to Message--><path codeLine="148" d="M145.16,386.25 C161.12,366.83 179.03,346.49 197,329 C243.75,283.48 261.29,278.8 313,239 C324.14,230.43 336.58,220.92 346.82,213.12 " fill="none" id="Ship-Message" style="stroke:#A80036;stroke-width:1.0;"/><polygon fill="#000000" points="223.7937,249.9188,215.0164,253.5809,218.8452,258.0406,223.7937,249.9188" style="stroke:#000000;stroke-width:1.0;"/><text fill="#000000" font-family="sans-serif" font-size="13" lengthAdjust="spacing" textLength="35" x="229" y="258.4951">sends</text><text fill="#000000" font-family="sans-serif" font-size="13" lengthAdjust="spacing" textLength="7" x="143.5406" y="375.5337">1</text><text fill="#000000" font-family="sans-serif" font-size="13" lengthAdjust="spacing" textLength="5" x="333.9532" y="234.3594">*</text><!--MD5=[ea53fe9558f27af30505bc15edbf8ffb]
link USCoastGuard to Message--><path codeLine="149" d="M145.34,193.82 C199.58,194.59 279.6,195.74 327.49,196.42 " fill="none" id="USCoastGuard-Message" style="stroke:#A80036;stroke-width:1.0;"/><polygon fill="#000000" points="218.9995,185.2471,209.9973,182.1794,209.9134,188.0567,218.9995,185.2471" style="stroke:#000000;stroke-width:1.0;"/><text fill="#000000" font-family="sans-serif" font-size="13" lengthAdjust="spacing" textLength="47" x="223" y="190.4951">receives</text><text fill="#000000" font-family="sans-serif" font-size="13" lengthAdjust="spacing" textLength="7" x="152.8768" y="208.4115">1</text><text fill="#000000" font-family="sans-serif" font-size="13" lengthAdjust="spacing" textLength="5" x="314.3757" y="211.3156">*</text><!--MD5=[c8857ce3491c76d5911c7d368ee8620f]
link Client to Quote--><path codeLine="150" d="M119.03,126 C172.71,126 282.33,126 336.4,126 " fill="none" id="Client-Quote" style="stroke:#A80036;stroke-width:1.0;"/><polygon fill="#000000" points="225.5,117.1758,216.4549,114.2369,216.4549,120.1147,225.5,117.1758" style="stroke:#000000;stroke-width:1.0;"/><text fill="#000000" font-family="sans-serif" font-size="13" lengthAdjust="spacing" textLength="34" x="229.5" y="122.4951">wants</text><!--MD5=[ada4a7aa8332639833b429b7350855b9]
@startuml

skinparam classAttributeIconSize 0
hide empty methods
hide empty attributes
left to right direction

class Company {
    -designation
}

class Container {
   -containerId
   -payload
   -tare
   -gross
   -isoCode
   /'-isRefrigerated'/
   /'-temperatureKept' - ESTE TALVEZ ADEQUA-SE'/
}

/' Roles '/
class Employee {}

class Client {}

class FleetManager {}

class TrafficManager {}



class WarehouseStaff {}

class WarehouseManager {}

class PortStaff {}

class PortManager {}

class ShipCaptain {}

class ShipChiefElecEngineer {}

class TruckDriver {}
/' End Roles '/

class CargoManifest {
    -cargoManifestId
    /'-typeOfTransport'/
}

class Ship {
    -mmmsiCode
    -shipName
    -imoCode
    -numEnergyGenerators
    -generatorsPower
    -callSignId
    -currentCapacity /'added by us'/
    -draft
}

class Warehouse {}

class PositionInVehicle {
    -containerPositionInVehiculeX
    -containerPositionInVehiculeY
    -containerPositionInVehiculeZ
}

class VesselType {
    -vesselTypeId
    -length
    -width
    -maxCapacity
}

class ShipPosition {
    -baseDateTime
    -latitude
    -longitude
    -sog
    -cog
    -heading
    -position
    -transceiver
}

/'CONFIRM'/
class PortsAndWarehouses {
    -identification
    -name
}

class Country {
    -countryDesignation
    -continent
}

class PlaceLocation {
    -locationLatitude
    -locationLongitude
}

class Truck {}

/'Classes not in the Data Model'/
class Message {}

class USCoastGuard {}

class Quote {}
/'End of Classes not in the Data Model'/


Company "1" - - "*" Warehouse : has >
Company "1" - - "1..*" Employee : employ >
FleetManager "1" - - "1" Employee : is of >
TrafficManager "1" - - "1" Employee : is of >
WarehouseStaff "1" - - "1" Employee : is of >
WarehouseManager "1" - - "1" Employee : is of >
PortStaff "1" - - "1" Employee : is of >
PortManager "1" - - "1" Employee : is of >
ShipCaptain "1" - - "1" Employee : is of >
ShipChiefElecEngineer "1" - - "1" Employee : is of >
TruckDriver "1" - - "1" Employee : is of >

/'Relations that lack multiplicity'/
CargoManifest  - - Container /'as this relation exists, CargoManifest already has Container gross weight'/
CargoManifest - - PositionInVehicle : contains >
/'End of relations that lack multiplicity'/

Container "1" - - "1" PositionInVehicle : has >
Ship "*" - - "1" VesselType : is of >
Ship "1" - - "1" ShipPosition : has >
PortsAndWarehouses "1" - - "1" PlaceLocation : is located at >
PlaceLocation "*" - - "1" Country : in a >
Ship "1" - - "*" Container : transports >
Truck "*" - - "1" Container : transports >

/'Relations that is in the Data Model but to be evaluated'/
Ship "1" - - "*" CargoManifest
Truck - - CargoManifest /' lacks multiplicity '/
PortsAndWareHouse "1" - - "*" CargoManifest : delivered at >
/'End of Relatiosn that is in the Data Model but to be evaluated'/

/'Relations not in the Data Model'/
Ship "1" - - "*" Message : sends >
USCoastGuard "1" - - "*" Message : receives >
Client - - Quote : wants >






/'RELAES EM FALTA - DVIDAS
Company - - Quote?
'/


/' DVIDAS
- Containers can be transported by land or sea - representar?
- checkDigit - Container, para que serve?
- isRefrigerated vai ser um mtodo logo no se representa certo?
- estado do Cargo Manifest

- Ship sends Message - a Message contm info posicionamento, como representar?



- NO ESQUECER DE VER SLIDES ESOFT , USER E ROLE!

'/



@enduml

@startuml

skinparam classAttributeIconSize 0
hide empty methods
hide empty attributes
left to right direction

class Company {
    -designation
}

class Container {
   -containerId
   -payload
   -tare
   -gross
   -isoCode
}

class Employee {}

class Client {}

class FleetManager {}

class TrafficManager {}



class WarehouseStaff {}

class WarehouseManager {}

class PortStaff {}

class PortManager {}

class ShipCaptain {}

class ShipChiefElecEngineer {}

class TruckDriver {}

class CargoManifest {
    -cargoManifestId
}

class Ship {
    -mmmsiCode
    -shipName
    -imoCode
    -numEnergyGenerators
    -generatorsPower
    -callSignId
    -currentCapacity 
    -draft
}

class Warehouse {}

class PositionInVehicle {
    -containerPositionInVehiculeX
    -containerPositionInVehiculeY
    -containerPositionInVehiculeZ
}

class VesselType {
    -vesselTypeId
    -length
    -width
    -maxCapacity
}

class ShipPosition {
    -baseDateTime
    -latitude
    -longitude
    -sog
    -cog
    -heading
    -position
    -transceiver
}

class PortsAndWarehouses {
    -identification
    -name
}

class Country {
    -countryDesignation
    -continent
}

class PlaceLocation {
    -locationLatitude
    -locationLongitude
}

class Truck {}

class Message {}

class USCoastGuard {}

class Quote {}


Company "1" - - "*" Warehouse : has >
Company "1" - - "1..*" Employee : employ >
FleetManager "1" - - "1" Employee : is of >
TrafficManager "1" - - "1" Employee : is of >
WarehouseStaff "1" - - "1" Employee : is of >
WarehouseManager "1" - - "1" Employee : is of >
PortStaff "1" - - "1" Employee : is of >
PortManager "1" - - "1" Employee : is of >
ShipCaptain "1" - - "1" Employee : is of >
ShipChiefElecEngineer "1" - - "1" Employee : is of >
TruckDriver "1" - - "1" Employee : is of >

CargoManifest  - - Container 
CargoManifest - - PositionInVehicle : contains >

Container "1" - - "1" PositionInVehicle : has >
Ship "*" - - "1" VesselType : is of >
Ship "1" - - "1" ShipPosition : has >
PortsAndWarehouses "1" - - "1" PlaceLocation : is located at >
PlaceLocation "*" - - "1" Country : in a >
Ship "1" - - "*" Container : transports >
Truck "*" - - "1" Container : transports >

Ship "1" - - "*" CargoManifest
Truck - - CargoManifest 
PortsAndWareHouse "1" - - "*" CargoManifest : delivered at >

Ship "1" - - "*" Message : sends >
USCoastGuard "1" - - "*" Message : receives >
Client - - Quote : wants >











@enduml

PlantUML version 1.2021.4(Sun Apr 04 09:49:39 BST 2021)
(GPL source distribution)
Java Runtime: OpenJDK Runtime Environment
JVM: OpenJDK 64-Bit Server VM
Default Encoding: Cp1252
Language: pt
Country: PT
--></g></svg>