<?xml version="1.0" encoding="UTF-8" standalone="no"?><svg xmlns="http://www.w3.org/2000/svg" xmlns:xlink="http://www.w3.org/1999/xlink" contentScriptType="application/ecmascript" contentStyleType="text/css" height="1015px" preserveAspectRatio="none" style="width:429px;height:1015px;background:#FFFFFF;" version="1.1" viewBox="0 0 429 1015" width="429px" zoomAndPan="magnify"><defs><filter height="300%" id="feebjvohhphdt" width="300%" x="-1" y="-1"><feGaussianBlur result="blurOut" stdDeviation="2.0"/><feColorMatrix in="blurOut" result="blurOut2" type="matrix" values="0 0 0 0 0 0 0 0 0 0 0 0 0 0 0 0 0 0 .4 0"/><feOffset dx="4.0" dy="4.0" in="blurOut2" result="blurOut3"/><feBlend in="SourceGraphic" in2="blurOut3" mode="normal"/></filter></defs><g><!--MD5=[0dc7f2ddb409b58bcf52b12238c25399]
class Ship--><rect codeLine="5" fill="#FEFECE" filter="url(#feebjvohhphdt)" height="172.5234" id="Ship" style="stroke:#A80036;stroke-width:1.5;" width="81" x="218" y="438"/><ellipse cx="243.8" cy="454" fill="#ADD1B2" rx="11" ry="11" style="stroke:#A80036;stroke-width:1.0;"/><path d="M245.8,450.5 Q246.0031,450 246.2375,449.75 Q246.4719,449.5 246.7375,449.5 Q247.2063,449.5 247.5031,449.7813 Q247.8,450.0625 247.8,450.7188 L247.8,452.2813 Q247.8,452.9375 247.5188,453.2188 Q247.2375,453.5 246.8,453.5 Q246.4094,453.5 246.1594,453.3281 Q245.9094,453.1563 245.8,452.7031 Q245.7531,452.3906 245.5813,452.2188 Q245.2688,451.8906 244.7063,451.7031 Q244.1438,451.5 243.5813,451.5 Q242.8781,451.5 242.2844,451.7813 Q241.7063,452.0625 241.2531,452.6875 Q240.8,453.3125 240.8,454.1719 L240.8,455.0938 Q240.8,456.125 241.6438,456.8125 Q242.4875,457.5 243.9875,457.5 Q244.8781,457.5 245.5031,457.2969 Q245.8625,457.1875 246.2688,456.8281 Q246.5344,456.625 246.675,456.5625 Q246.8156,456.5 246.9875,456.5 Q247.3156,456.5 247.55,456.7656 Q247.8,457.0156 247.8,457.375 Q247.8,457.7188 247.4563,458.125 Q246.9563,458.7188 246.1594,459.0469 Q245.1125,459.5 243.8313,459.5 Q242.3313,459.5 241.1281,458.9063 Q240.1594,458.4375 239.4719,457.4219 Q238.8,456.4063 238.8,455.2031 L238.8,454.1094 Q238.8,452.8594 239.3938,451.7656 Q240.0031,450.6719 241.05,450.0938 Q242.1125,449.5 243.3,449.5 Q244.0188,449.5 244.6438,449.75 Q245.2688,450 245.8,450.5 Z " fill="#000000"/><text fill="#000000" font-family="sans-serif" font-size="12" lengthAdjust="spacing" textLength="25" x="260.2" y="458.9102">Ship</text><line style="stroke:#A80036;stroke-width:1.5;" x1="219" x2="298" y1="470" y2="470"/><text fill="#000000" font-family="sans-serif" font-size="11" lengthAdjust="spacing" textLength="61" x="224" y="485.4189">-mmmsiCode</text><text fill="#000000" font-family="sans-serif" font-size="11" lengthAdjust="spacing" textLength="51" x="224" y="499.2549">-shipName</text><text fill="#000000" font-family="sans-serif" font-size="11" lengthAdjust="spacing" textLength="45" x="224" y="513.0908">-imoCode</text><text fill="#000000" font-family="sans-serif" font-size="11" lengthAdjust="spacing" textLength="49" x="224" y="526.9268">-callSignId</text><text fill="#000000" font-family="sans-serif" font-size="11" lengthAdjust="spacing" textLength="27" x="224" y="540.7627">-draft</text><text fill="#000000" font-family="sans-serif" font-size="11" lengthAdjust="spacing" textLength="69" x="224" y="554.5986">-vesselTypeID</text><text fill="#000000" font-family="sans-serif" font-size="11" lengthAdjust="spacing" textLength="33" x="224" y="568.4346">-length</text><text fill="#000000" font-family="sans-serif" font-size="11" lengthAdjust="spacing" textLength="31" x="224" y="582.2705">-width</text><text fill="#000000" font-family="sans-serif" font-size="11" lengthAdjust="spacing" textLength="32" x="224" y="596.1064">-cargo</text><line style="stroke:#A80036;stroke-width:1.5;" x1="219" x2="298" y1="602.5234" y2="602.5234"/><!--MD5=[1c0c3765e68dc4575d559b566278b914]
class ShipPosition--><rect codeLine="17" fill="#FEFECE" filter="url(#feebjvohhphdt)" height="172.5234" id="ShipPosition" style="stroke:#A80036;stroke-width:1.5;" width="104" x="66.5" y="829"/><ellipse cx="82.4" cy="845" fill="#ADD1B2" rx="11" ry="11" style="stroke:#A80036;stroke-width:1.0;"/><path d="M84.4,841.5 Q84.6031,841 84.8375,840.75 Q85.0719,840.5 85.3375,840.5 Q85.8063,840.5 86.1031,840.7813 Q86.4,841.0625 86.4,841.7188 L86.4,843.2813 Q86.4,843.9375 86.1188,844.2188 Q85.8375,844.5 85.4,844.5 Q85.0094,844.5 84.7594,844.3281 Q84.5094,844.1563 84.4,843.7031 Q84.3531,843.3906 84.1813,843.2188 Q83.8688,842.8906 83.3063,842.7031 Q82.7438,842.5 82.1813,842.5 Q81.4781,842.5 80.8844,842.7813 Q80.3063,843.0625 79.8531,843.6875 Q79.4,844.3125 79.4,845.1719 L79.4,846.0938 Q79.4,847.125 80.2438,847.8125 Q81.0875,848.5 82.5875,848.5 Q83.4781,848.5 84.1031,848.2969 Q84.4625,848.1875 84.8688,847.8281 Q85.1344,847.625 85.275,847.5625 Q85.4156,847.5 85.5875,847.5 Q85.9156,847.5 86.15,847.7656 Q86.4,848.0156 86.4,848.375 Q86.4,848.7188 86.0563,849.125 Q85.5563,849.7188 84.7594,850.0469 Q83.7125,850.5 82.4313,850.5 Q80.9313,850.5 79.7281,849.9063 Q78.7594,849.4375 78.0719,848.4219 Q77.4,847.4063 77.4,846.2031 L77.4,845.1094 Q77.4,843.8594 77.9938,842.7656 Q78.6031,841.6719 79.65,841.0938 Q80.7125,840.5 81.9,840.5 Q82.6188,840.5 83.2438,840.75 Q83.8688,841 84.4,841.5 Z " fill="#000000"/><text fill="#000000" font-family="sans-serif" font-size="12" lengthAdjust="spacing" textLength="70" x="96.6" y="849.9102">ShipPosition</text><line style="stroke:#A80036;stroke-width:1.5;" x1="67.5" x2="169.5" y1="861" y2="861"/><text fill="#000000" font-family="sans-serif" font-size="11" lengthAdjust="spacing" textLength="72" x="72.5" y="876.4189">-baseDateTime</text><text fill="#000000" font-family="sans-serif" font-size="11" lengthAdjust="spacing" textLength="38" x="72.5" y="890.2549">-latitude</text><text fill="#000000" font-family="sans-serif" font-size="11" lengthAdjust="spacing" textLength="47" x="72.5" y="904.0908">-longitude</text><text fill="#000000" font-family="sans-serif" font-size="11" lengthAdjust="spacing" textLength="22" x="72.5" y="917.9268">-sog</text><text fill="#000000" font-family="sans-serif" font-size="11" lengthAdjust="spacing" textLength="22" x="72.5" y="931.7627">-cog</text><text fill="#000000" font-family="sans-serif" font-size="11" lengthAdjust="spacing" textLength="42" x="72.5" y="945.5986">-heading</text><text fill="#000000" font-family="sans-serif" font-size="11" lengthAdjust="spacing" textLength="41" x="72.5" y="959.4346">-position</text><text fill="#000000" font-family="sans-serif" font-size="11" lengthAdjust="spacing" textLength="59" x="72.5" y="973.2705">-transceiver</text><line style="stroke:#A80036;stroke-width:1.5;" x1="67.5" x2="169.5" y1="979.6875" y2="979.6875"/><text fill="#000000" font-family="sans-serif" font-size="11" lengthAdjust="spacing" textLength="92" x="72.5" y="995.1064">+getPositionsBST()</text><!--MD5=[43adf079e4aaffd3a283c2c0454b404c]
class ShipsBST--><rect codeLine="29" fill="#FEFECE" filter="url(#feebjvohhphdt)" height="61.8359" id="ShipsBST" style="stroke:#A80036;stroke-width:1.5;" width="173" x="172" y="298"/><ellipse cx="226.75" cy="314" fill="#ADD1B2" rx="11" ry="11" style="stroke:#A80036;stroke-width:1.0;"/><path d="M228.75,310.5 Q228.9531,310 229.1875,309.75 Q229.4219,309.5 229.6875,309.5 Q230.1563,309.5 230.4531,309.7813 Q230.75,310.0625 230.75,310.7188 L230.75,312.2813 Q230.75,312.9375 230.4688,313.2188 Q230.1875,313.5 229.75,313.5 Q229.3594,313.5 229.1094,313.3281 Q228.8594,313.1563 228.75,312.7031 Q228.7031,312.3906 228.5313,312.2188 Q228.2188,311.8906 227.6563,311.7031 Q227.0938,311.5 226.5313,311.5 Q225.8281,311.5 225.2344,311.7813 Q224.6563,312.0625 224.2031,312.6875 Q223.75,313.3125 223.75,314.1719 L223.75,315.0938 Q223.75,316.125 224.5938,316.8125 Q225.4375,317.5 226.9375,317.5 Q227.8281,317.5 228.4531,317.2969 Q228.8125,317.1875 229.2188,316.8281 Q229.4844,316.625 229.625,316.5625 Q229.7656,316.5 229.9375,316.5 Q230.2656,316.5 230.5,316.7656 Q230.75,317.0156 230.75,317.375 Q230.75,317.7188 230.4063,318.125 Q229.9063,318.7188 229.1094,319.0469 Q228.0625,319.5 226.7813,319.5 Q225.2813,319.5 224.0781,318.9063 Q223.1094,318.4375 222.4219,317.4219 Q221.75,316.4063 221.75,315.2031 L221.75,314.1094 Q221.75,312.8594 222.3438,311.7656 Q222.9531,310.6719 224,310.0938 Q225.0625,309.5 226.25,309.5 Q226.9688,309.5 227.5938,309.75 Q228.2188,310 228.75,310.5 Z " fill="#000000"/><text fill="#000000" font-family="sans-serif" font-size="12" lengthAdjust="spacing" textLength="55" x="247.25" y="318.9102">ShipsBST</text><line style="stroke:#A80036;stroke-width:1.5;" x1="173" x2="344" y1="330" y2="330"/><line style="stroke:#A80036;stroke-width:1.5;" x1="173" x2="344" y1="338" y2="338"/><text fill="#000000" font-family="sans-serif" font-size="11" lengthAdjust="spacing" textLength="161" x="178" y="353.4189">+getShipByMmsiCode(mmsiCode)</text><!--MD5=[004e005a2edf96352d0772cab412880f]
class PositionsBST--><rect codeLine="33" fill="#FEFECE" filter="url(#feebjvohhphdt)" height="61.8359" id="PositionsBST" style="stroke:#A80036;stroke-width:1.5;" width="223" x="7" y="689"/><ellipse cx="76.75" cy="705" fill="#ADD1B2" rx="11" ry="11" style="stroke:#A80036;stroke-width:1.0;"/><path d="M78.75,701.5 Q78.9531,701 79.1875,700.75 Q79.4219,700.5 79.6875,700.5 Q80.1563,700.5 80.4531,700.7813 Q80.75,701.0625 80.75,701.7188 L80.75,703.2813 Q80.75,703.9375 80.4688,704.2188 Q80.1875,704.5 79.75,704.5 Q79.3594,704.5 79.1094,704.3281 Q78.8594,704.1563 78.75,703.7031 Q78.7031,703.3906 78.5313,703.2188 Q78.2188,702.8906 77.6563,702.7031 Q77.0938,702.5 76.5313,702.5 Q75.8281,702.5 75.2344,702.7813 Q74.6563,703.0625 74.2031,703.6875 Q73.75,704.3125 73.75,705.1719 L73.75,706.0938 Q73.75,707.125 74.5938,707.8125 Q75.4375,708.5 76.9375,708.5 Q77.8281,708.5 78.4531,708.2969 Q78.8125,708.1875 79.2188,707.8281 Q79.4844,707.625 79.625,707.5625 Q79.7656,707.5 79.9375,707.5 Q80.2656,707.5 80.5,707.7656 Q80.75,708.0156 80.75,708.375 Q80.75,708.7188 80.4063,709.125 Q79.9063,709.7188 79.1094,710.0469 Q78.0625,710.5 76.7813,710.5 Q75.2813,710.5 74.0781,709.9063 Q73.1094,709.4375 72.4219,708.4219 Q71.75,707.4063 71.75,706.2031 L71.75,705.1094 Q71.75,703.8594 72.3438,702.7656 Q72.9531,701.6719 74,701.0938 Q75.0625,700.5 76.25,700.5 Q76.9688,700.5 77.5938,700.75 Q78.2188,701 78.75,701.5 Z " fill="#000000"/><text fill="#000000" font-family="sans-serif" font-size="12" lengthAdjust="spacing" textLength="75" x="97.25" y="709.9102">PositionsBST</text><line style="stroke:#A80036;stroke-width:1.5;" x1="8" x2="229" y1="721" y2="721"/><line style="stroke:#A80036;stroke-width:1.5;" x1="8" x2="229" y1="729" y2="729"/><text fill="#000000" font-family="sans-serif" font-size="11" lengthAdjust="spacing" textLength="211" x="13" y="744.4189">+getPositinalMessages(initialDate, finalDate)</text><!--MD5=[0ac19ab3e3919ce943faa2e745f06aba]
class ShowPositionalMessagesController--><rect codeLine="39" fill="#FEFECE" filter="url(#feebjvohhphdt)" height="75.6719" id="ShowPositionalMessagesController" style="stroke:#A80036;stroke-width:1.5;" width="242" x="173.5" y="7"/><ellipse cx="193.9" cy="23" fill="#ADD1B2" rx="11" ry="11" style="stroke:#A80036;stroke-width:1.0;"/><path d="M195.9,19.5 Q196.1031,19 196.3375,18.75 Q196.5719,18.5 196.8375,18.5 Q197.3063,18.5 197.6031,18.7813 Q197.9,19.0625 197.9,19.7188 L197.9,21.2813 Q197.9,21.9375 197.6188,22.2188 Q197.3375,22.5 196.9,22.5 Q196.5094,22.5 196.2594,22.3281 Q196.0094,22.1563 195.9,21.7031 Q195.8531,21.3906 195.6813,21.2188 Q195.3688,20.8906 194.8063,20.7031 Q194.2438,20.5 193.6813,20.5 Q192.9781,20.5 192.3844,20.7813 Q191.8063,21.0625 191.3531,21.6875 Q190.9,22.3125 190.9,23.1719 L190.9,24.0938 Q190.9,25.125 191.7438,25.8125 Q192.5875,26.5 194.0875,26.5 Q194.9781,26.5 195.6031,26.2969 Q195.9625,26.1875 196.3688,25.8281 Q196.6344,25.625 196.775,25.5625 Q196.9156,25.5 197.0875,25.5 Q197.4156,25.5 197.65,25.7656 Q197.9,26.0156 197.9,26.375 Q197.9,26.7188 197.5563,27.125 Q197.0563,27.7188 196.2594,28.0469 Q195.2125,28.5 193.9313,28.5 Q192.4313,28.5 191.2281,27.9063 Q190.2594,27.4375 189.5719,26.4219 Q188.9,25.4063 188.9,24.2031 L188.9,23.1094 Q188.9,21.8594 189.4938,20.7656 Q190.1031,19.6719 191.15,19.0938 Q192.2125,18.5 193.4,18.5 Q194.1188,18.5 194.7438,18.75 Q195.3688,19 195.9,19.5 Z " fill="#000000"/><text fill="#000000" font-family="sans-serif" font-size="12" lengthAdjust="spacing" textLength="198" x="209.1" y="27.9102">ShowPositionalMessagesController</text><line style="stroke:#A80036;stroke-width:1.5;" x1="174.5" x2="414.5" y1="39" y2="39"/><line style="stroke:#A80036;stroke-width:1.5;" x1="174.5" x2="414.5" y1="47" y2="47"/><text fill="#000000" font-family="sans-serif" font-size="11" lengthAdjust="spacing" textLength="116" x="179.5" y="62.4189">+isValidShip(mmsiCode)</text><text fill="#000000" font-family="sans-serif" font-size="11" lengthAdjust="spacing" textLength="230" x="179.5" y="76.2549">+showPositionalMessages(initialDate, finalDate)</text><!--MD5=[02e4b9b7573f1156f41e60aa5b4e25a4]
class Company--><rect codeLine="44" fill="#FEFECE" filter="url(#feebjvohhphdt)" height="75.6719" id="Company" style="stroke:#A80036;stroke-width:1.5;" width="85" x="180" y="144"/><ellipse cx="195" cy="160" fill="#ADD1B2" rx="11" ry="11" style="stroke:#A80036;stroke-width:1.0;"/><path d="M197,156.5 Q197.2031,156 197.4375,155.75 Q197.6719,155.5 197.9375,155.5 Q198.4063,155.5 198.7031,155.7813 Q199,156.0625 199,156.7188 L199,158.2813 Q199,158.9375 198.7188,159.2188 Q198.4375,159.5 198,159.5 Q197.6094,159.5 197.3594,159.3281 Q197.1094,159.1563 197,158.7031 Q196.9531,158.3906 196.7813,158.2188 Q196.4688,157.8906 195.9063,157.7031 Q195.3438,157.5 194.7813,157.5 Q194.0781,157.5 193.4844,157.7813 Q192.9063,158.0625 192.4531,158.6875 Q192,159.3125 192,160.1719 L192,161.0938 Q192,162.125 192.8438,162.8125 Q193.6875,163.5 195.1875,163.5 Q196.0781,163.5 196.7031,163.2969 Q197.0625,163.1875 197.4688,162.8281 Q197.7344,162.625 197.875,162.5625 Q198.0156,162.5 198.1875,162.5 Q198.5156,162.5 198.75,162.7656 Q199,163.0156 199,163.375 Q199,163.7188 198.6563,164.125 Q198.1563,164.7188 197.3594,165.0469 Q196.3125,165.5 195.0313,165.5 Q193.5313,165.5 192.3281,164.9063 Q191.3594,164.4375 190.6719,163.4219 Q190,162.4063 190,161.2031 L190,160.1094 Q190,158.8594 190.5938,157.7656 Q191.2031,156.6719 192.25,156.0938 Q193.3125,155.5 194.5,155.5 Q195.2188,155.5 195.8438,155.75 Q196.4688,156 197,156.5 Z " fill="#000000"/><text fill="#000000" font-family="sans-serif" font-size="12" lengthAdjust="spacing" textLength="53" x="209" y="164.9102">Company</text><line style="stroke:#A80036;stroke-width:1.5;" x1="181" x2="264" y1="176" y2="176"/><text fill="#000000" font-family="sans-serif" font-size="11" lengthAdjust="spacing" textLength="59" x="186" y="191.4189">-designation</text><line style="stroke:#A80036;stroke-width:1.5;" x1="181" x2="264" y1="197.8359" y2="197.8359"/><text fill="#000000" font-family="sans-serif" font-size="11" lengthAdjust="spacing" textLength="66" x="186" y="213.2549">+getBstShip()</text><!--MD5=[b4a9ab6cffd58937cfea07eb2954e1bd]
class BST--><rect fill="#FEFECE" filter="url(#feebjvohhphdt)" height="48" id="BST" style="stroke:#A80036;stroke-width:1.5;" width="55" x="10" y="305"/><ellipse cx="25" cy="321" fill="#ADD1B2" rx="11" ry="11" style="stroke:#A80036;stroke-width:1.0;"/><path d="M27,317.5 Q27.2031,317 27.4375,316.75 Q27.6719,316.5 27.9375,316.5 Q28.4063,316.5 28.7031,316.7813 Q29,317.0625 29,317.7188 L29,319.2813 Q29,319.9375 28.7188,320.2188 Q28.4375,320.5 28,320.5 Q27.6094,320.5 27.3594,320.3281 Q27.1094,320.1563 27,319.7031 Q26.9531,319.3906 26.7813,319.2188 Q26.4688,318.8906 25.9063,318.7031 Q25.3438,318.5 24.7813,318.5 Q24.0781,318.5 23.4844,318.7813 Q22.9063,319.0625 22.4531,319.6875 Q22,320.3125 22,321.1719 L22,322.0938 Q22,323.125 22.8438,323.8125 Q23.6875,324.5 25.1875,324.5 Q26.0781,324.5 26.7031,324.2969 Q27.0625,324.1875 27.4688,323.8281 Q27.7344,323.625 27.875,323.5625 Q28.0156,323.5 28.1875,323.5 Q28.5156,323.5 28.75,323.7656 Q29,324.0156 29,324.375 Q29,324.7188 28.6563,325.125 Q28.1563,325.7188 27.3594,326.0469 Q26.3125,326.5 25.0313,326.5 Q23.5313,326.5 22.3281,325.9063 Q21.3594,325.4375 20.6719,324.4219 Q20,323.4063 20,322.2031 L20,321.1094 Q20,319.8594 20.5938,318.7656 Q21.2031,317.6719 22.25,317.0938 Q23.3125,316.5 24.5,316.5 Q25.2188,316.5 25.8438,316.75 Q26.4688,317 27,317.5 Z " fill="#000000"/><text fill="#000000" font-family="sans-serif" font-size="12" lengthAdjust="spacing" textLength="23" x="39" y="325.9102">BST</text><line style="stroke:#A80036;stroke-width:1.5;" x1="11" x2="64" y1="337" y2="337"/><line style="stroke:#A80036;stroke-width:1.5;" x1="11" x2="64" y1="345" y2="345"/><!--MD5=[1b046338fb2698c0e9f102f85676b8e2]
link Company to ShipsBST--><path codeLine="52" d="M231.77,220.34 C237.73,244.34 245.37,275.12 250.96,297.62 " fill="none" id="Company-ShipsBST" style="stroke:#A80036;stroke-width:1.0;"/><polygon fill="#000000" points="248.705,264.0284,249.3774,254.5416,243.6728,255.9582,248.705,264.0284" style="stroke:#000000;stroke-width:1.0;"/><text fill="#000000" font-family="sans-serif" font-size="13" lengthAdjust="spacing" textLength="28" x="256.5" y="264.4951">uses</text><text fill="#000000" font-family="sans-serif" font-size="13" lengthAdjust="spacing" textLength="7" x="225.6896" y="241.2747">1</text><text fill="#000000" font-family="sans-serif" font-size="13" lengthAdjust="spacing" textLength="7" x="241.683" y="287.0462">1</text><!--MD5=[b457ea32acbd230d0e22037aaab2ac98]
link ShipsBST to Ship--><path codeLine="53" d="M258.5,360.23 C258.5,381.17 258.5,410.17 258.5,437.92 " fill="none" id="ShipsBST-Ship" style="stroke:#A80036;stroke-width:1.0;"/><polygon fill="#000000" points="263.5,404.1758,266.4389,395.1307,260.5611,395.1307,263.5,404.1758" style="stroke:#000000;stroke-width:1.0;"/><text fill="#000000" font-family="sans-serif" font-size="13" lengthAdjust="spacing" textLength="30" x="272.5" y="404.4951">owns</text><text fill="#000000" font-family="sans-serif" font-size="13" lengthAdjust="spacing" textLength="7" x="250.8328" y="381.2525">1</text><text fill="#000000" font-family="sans-serif" font-size="13" lengthAdjust="spacing" textLength="20" x="237.6094" y="427.0285">1..*</text><!--MD5=[bd16fc4b2a08274ec71edc6d573c9239]
link Ship to PositionsBST--><path codeLine="54" d="M217.82,581.73 C192.55,616.65 161.06,660.18 140.4,688.74 " fill="none" id="Ship-PositionsBST" style="stroke:#A80036;stroke-width:1.0;"/><polygon fill="#000000" points="174.5692,654.2268,182.2522,648.6212,177.49,645.1758,174.5692,654.2268" style="stroke:#000000;stroke-width:1.0;"/><text fill="#000000" font-family="sans-serif" font-size="13" lengthAdjust="spacing" textLength="28" x="186.5" y="655.4951">uses</text><text fill="#000000" font-family="sans-serif" font-size="13" lengthAdjust="spacing" textLength="7" x="202.9504" y="588.068">1</text><text fill="#000000" font-family="sans-serif" font-size="13" lengthAdjust="spacing" textLength="7" x="137.195" y="678.1909">1</text><!--MD5=[34b80baad36b2d2bd6b6893c22d217b3]
link PositionsBST to ShipPosition--><path codeLine="55" d="M118.5,751.23 C118.5,772.17 118.5,801.17 118.5,828.92 " fill="none" id="PositionsBST-ShipPosition" style="stroke:#A80036;stroke-width:1.0;"/><polygon fill="#000000" points="123.5,795.1758,126.4389,786.1307,120.5611,786.1307,123.5,795.1758" style="stroke:#000000;stroke-width:1.0;"/><text fill="#000000" font-family="sans-serif" font-size="13" lengthAdjust="spacing" textLength="21" x="132.5" y="795.4951">has</text><text fill="#000000" font-family="sans-serif" font-size="13" lengthAdjust="spacing" textLength="7" x="110.8328" y="772.2525">1</text><text fill="#000000" font-family="sans-serif" font-size="13" lengthAdjust="spacing" textLength="20" x="97.6094" y="818.0285">1..*</text><!--MD5=[e561b603bbd8b6521a638dc78f755f9d]
link ShowPositionalMessagesController to Company--><path codeLine="57" d="M274.64,83.25 C265.35,100.66 254.26,121.46 244.7,139.38 " fill="none" id="ShowPositionalMessagesController-to-Company" style="stroke:#A80036;stroke-width:1.0;stroke-dasharray:7.0,7.0;"/><polygon fill="#A80036" points="242.3,143.87,250.0678,137.8151,244.6552,139.4594,243.0108,134.0468,242.3,143.87" style="stroke:#A80036;stroke-width:1.0;"/><!--MD5=[b8eba2630e1518c6d8b4949699d1900c]
link ShowPositionalMessagesController to ShipsBST--><path codeLine="58" d="M300.12,83.32 C305.56,128.09 310.69,204.97 293.5,268 C291.12,276.74 287.12,285.51 282.66,293.55 " fill="none" id="ShowPositionalMessagesController-to-ShipsBST" style="stroke:#A80036;stroke-width:1.0;stroke-dasharray:7.0,7.0;"/><polygon fill="#A80036" points="280.14,297.93,288.0906,292.1173,282.6299,293.5941,281.1531,288.1334,280.14,297.93" style="stroke:#A80036;stroke-width:1.0;"/><!--MD5=[8d5605e7226e951eefe0c75edc1e09c5]
link ShowPositionalMessagesController to Ship--><path codeLine="59" d="M315.7,83.09 C320.47,92.61 325.12,102.99 328.5,113 C363.95,217.99 393.47,253.6 362.5,360 C350.58,400.96 324.95,441.46 302.12,471.9 " fill="none" id="ShowPositionalMessagesController-to-Ship" style="stroke:#A80036;stroke-width:1.0;stroke-dasharray:7.0,7.0;"/><polygon fill="#A80036" points="299.06,475.94,307.6791,471.1745,302.076,471.952,301.2984,466.3489,299.06,475.94" style="stroke:#A80036;stroke-width:1.0;"/><!--MD5=[83fd222306ae45b6a45d0a4558a86fd1]
link ShowPositionalMessagesController to PositionsBST--><path codeLine="60" d="M193.91,83.02 C154.48,104.56 118.5,136.43 118.5,181 C118.5,181 118.5,181 118.5,525.5 C118.5,580.8 118.5,644.99 118.5,683.77 " fill="none" id="ShowPositionalMessagesController-to-PositionsBST" style="stroke:#A80036;stroke-width:1.0;stroke-dasharray:7.0,7.0;"/><polygon fill="#A80036" points="118.5,688.84,122.5257,679.8515,118.5143,683.84,114.5257,679.8286,118.5,688.84" style="stroke:#A80036;stroke-width:1.0;"/><!--MD5=[4f67294047c37ade415b9b594b2af08c]
reverse link BST to PositionsBST--><path codeLine="62" d="M41.33,373.08 C47.73,436.66 62.92,558.89 92.5,659 C95.43,668.91 99.56,679.35 103.67,688.7 " fill="none" id="BST-backto-PositionsBST" style="stroke:#A80036;stroke-width:1.0;"/><polygon fill="none" points="34.36,373.74,39.42,353.17,48.3,372.41,34.36,373.74" style="stroke:#A80036;stroke-width:1.0;"/><!--MD5=[c0487b7918f81e122b78f0155f13124a]
reverse link BST to ShipsBST--><path codeLine="63" d="M85.51,329 C114.22,329 142.93,329 171.63,329 " fill="none" id="BST-backto-ShipsBST" style="stroke:#A80036;stroke-width:1.0;"/><polygon fill="none" points="85.13,336,65.12,329,85.12,322,85.13,336" style="stroke:#A80036;stroke-width:1.0;"/><!--MD5=[6ec48eea57f2506b735d8618dee6c844]
@startuml

skinparam classAttributeIconSize 0


class Ship {
    -mmmsiCode
    -shipName
    -imoCode
    -callSignId
    -draft
    -vesselTypeID
    -length
    -width
    -cargo
}

class ShipPosition {
    -baseDateTime
    -latitude
    -longitude
    -sog
    -cog
    -heading
    -position
    -transceiver
    +getPositionsBST()
}

class ShipsBST {
    +getShipByMmsiCode(mmsiCode)
}

class PositionsBST {
    +getPositinalMessages(initialDate, finalDate)
}

/'class ShowPositionalMessagesUI {}'/

class ShowPositionalMessagesController {
    +isValidShip(mmsiCode)
    +showPositionalMessages(initialDate, finalDate)
}

class Company {
    -designation
    +getBstShip()
}

/'Ship "1" - - "1..*" ShipPosition : has >'/
/'Company "1" - - "1..*" Ship : owns >'/

Company "1" - - "1" ShipsBST : uses >
ShipsBST "1" - - "1..*" Ship : owns >
Ship "1" - - "1" PositionsBST : uses >
PositionsBST "1" - - "1..*" ShipPosition : has >
/'ShowPositionalMessagesUI ..> ShowPositionalMessagesController'/
ShowPositionalMessagesController ..> Company
ShowPositionalMessagesController ..> ShipsBST
ShowPositionalMessagesController ..> Ship
ShowPositionalMessagesController ..> PositionsBST

BST <|- PositionsBST
BST <|- ShipsBST


@enduml

@startuml

skinparam classAttributeIconSize 0


class Ship {
    -mmmsiCode
    -shipName
    -imoCode
    -callSignId
    -draft
    -vesselTypeID
    -length
    -width
    -cargo
}

class ShipPosition {
    -baseDateTime
    -latitude
    -longitude
    -sog
    -cog
    -heading
    -position
    -transceiver
    +getPositionsBST()
}

class ShipsBST {
    +getShipByMmsiCode(mmsiCode)
}

class PositionsBST {
    +getPositinalMessages(initialDate, finalDate)
}


class ShowPositionalMessagesController {
    +isValidShip(mmsiCode)
    +showPositionalMessages(initialDate, finalDate)
}

class Company {
    -designation
    +getBstShip()
}


Company "1" - - "1" ShipsBST : uses >
ShipsBST "1" - - "1..*" Ship : owns >
Ship "1" - - "1" PositionsBST : uses >
PositionsBST "1" - - "1..*" ShipPosition : has >
ShowPositionalMessagesController ..> Company
ShowPositionalMessagesController ..> ShipsBST
ShowPositionalMessagesController ..> Ship
ShowPositionalMessagesController ..> PositionsBST

BST <|- PositionsBST
BST <|- ShipsBST


@enduml

PlantUML version 1.2021.11(Sat Oct 02 14:26:11 BST 2021)
(GPL source distribution)
Java Runtime: OpenJDK Runtime Environment
JVM: OpenJDK 64-Bit Server VM
Default Encoding: Cp1252
Language: pt
Country: PT
--></g></svg>