<?xml version="1.0" encoding="UTF-8" standalone="no"?><svg xmlns="http://www.w3.org/2000/svg" xmlns:xlink="http://www.w3.org/1999/xlink" contentScriptType="application/ecmascript" contentStyleType="text/css" height="1015px" preserveAspectRatio="none" style="width:426px;height:1015px;background:#FFFFFF;" version="1.1" viewBox="0 0 426 1015" width="426px" zoomAndPan="magnify"><defs><filter height="300%" id="f3v01qgfqvucr" width="300%" x="-1" y="-1"><feGaussianBlur result="blurOut" stdDeviation="2.0"/><feColorMatrix in="blurOut" result="blurOut2" type="matrix" values="0 0 0 0 0 0 0 0 0 0 0 0 0 0 0 0 0 0 .4 0"/><feOffset dx="4.0" dy="4.0" in="blurOut2" result="blurOut3"/><feBlend in="SourceGraphic" in2="blurOut3" mode="normal"/></filter></defs><g><!--MD5=[0dc7f2ddb409b58bcf52b12238c25399]
class Ship--><rect codeLine="5" fill="#FEFECE" filter="url(#f3v01qgfqvucr)" height="172.5234" id="Ship" style="stroke:#A80036;stroke-width:1.5;" width="81" x="240" y="438"/><ellipse cx="265.8" cy="454" fill="#ADD1B2" rx="11" ry="11" style="stroke:#A80036;stroke-width:1.0;"/><path d="M267.8,450.5 Q268.0031,450 268.2375,449.75 Q268.4719,449.5 268.7375,449.5 Q269.2063,449.5 269.5031,449.7813 Q269.8,450.0625 269.8,450.7188 L269.8,452.2813 Q269.8,452.9375 269.5188,453.2188 Q269.2375,453.5 268.8,453.5 Q268.4094,453.5 268.1594,453.3281 Q267.9094,453.1563 267.8,452.7031 Q267.7531,452.3906 267.5813,452.2188 Q267.2688,451.8906 266.7063,451.7031 Q266.1438,451.5 265.5813,451.5 Q264.8781,451.5 264.2844,451.7813 Q263.7063,452.0625 263.2531,452.6875 Q262.8,453.3125 262.8,454.1719 L262.8,455.0938 Q262.8,456.125 263.6438,456.8125 Q264.4875,457.5 265.9875,457.5 Q266.8781,457.5 267.5031,457.2969 Q267.8625,457.1875 268.2688,456.8281 Q268.5344,456.625 268.675,456.5625 Q268.8156,456.5 268.9875,456.5 Q269.3156,456.5 269.55,456.7656 Q269.8,457.0156 269.8,457.375 Q269.8,457.7188 269.4563,458.125 Q268.9563,458.7188 268.1594,459.0469 Q267.1125,459.5 265.8313,459.5 Q264.3313,459.5 263.1281,458.9063 Q262.1594,458.4375 261.4719,457.4219 Q260.8,456.4063 260.8,455.2031 L260.8,454.1094 Q260.8,452.8594 261.3938,451.7656 Q262.0031,450.6719 263.05,450.0938 Q264.1125,449.5 265.3,449.5 Q266.0188,449.5 266.6438,449.75 Q267.2688,450 267.8,450.5 Z " fill="#000000"/><text fill="#000000" font-family="sans-serif" font-size="12" lengthAdjust="spacing" textLength="25" x="282.2" y="458.9102">Ship</text><line style="stroke:#A80036;stroke-width:1.5;" x1="241" x2="320" y1="470" y2="470"/><text fill="#000000" font-family="sans-serif" font-size="11" lengthAdjust="spacing" textLength="61" x="246" y="485.4189">-mmmsiCode</text><text fill="#000000" font-family="sans-serif" font-size="11" lengthAdjust="spacing" textLength="51" x="246" y="499.2549">-shipName</text><text fill="#000000" font-family="sans-serif" font-size="11" lengthAdjust="spacing" textLength="45" x="246" y="513.0908">-imoCode</text><text fill="#000000" font-family="sans-serif" font-size="11" lengthAdjust="spacing" textLength="49" x="246" y="526.9268">-callSignId</text><text fill="#000000" font-family="sans-serif" font-size="11" lengthAdjust="spacing" textLength="27" x="246" y="540.7627">-draft</text><text fill="#000000" font-family="sans-serif" font-size="11" lengthAdjust="spacing" textLength="69" x="246" y="554.5986">-vesselTypeID</text><text fill="#000000" font-family="sans-serif" font-size="11" lengthAdjust="spacing" textLength="33" x="246" y="568.4346">-length</text><text fill="#000000" font-family="sans-serif" font-size="11" lengthAdjust="spacing" textLength="31" x="246" y="582.2705">-width</text><text fill="#000000" font-family="sans-serif" font-size="11" lengthAdjust="spacing" textLength="32" x="246" y="596.1064">-cargo</text><line style="stroke:#A80036;stroke-width:1.5;" x1="241" x2="320" y1="602.5234" y2="602.5234"/><!--MD5=[1c0c3765e68dc4575d559b566278b914]
class ShipPosition--><rect codeLine="17" fill="#FEFECE" filter="url(#f3v01qgfqvucr)" height="172.5234" id="ShipPosition" style="stroke:#A80036;stroke-width:1.5;" width="104" x="98.5" y="829"/><ellipse cx="114.4" cy="845" fill="#ADD1B2" rx="11" ry="11" style="stroke:#A80036;stroke-width:1.0;"/><path d="M116.4,841.5 Q116.6031,841 116.8375,840.75 Q117.0719,840.5 117.3375,840.5 Q117.8063,840.5 118.1031,840.7813 Q118.4,841.0625 118.4,841.7188 L118.4,843.2813 Q118.4,843.9375 118.1188,844.2188 Q117.8375,844.5 117.4,844.5 Q117.0094,844.5 116.7594,844.3281 Q116.5094,844.1563 116.4,843.7031 Q116.3531,843.3906 116.1813,843.2188 Q115.8688,842.8906 115.3063,842.7031 Q114.7438,842.5 114.1813,842.5 Q113.4781,842.5 112.8844,842.7813 Q112.3063,843.0625 111.8531,843.6875 Q111.4,844.3125 111.4,845.1719 L111.4,846.0938 Q111.4,847.125 112.2438,847.8125 Q113.0875,848.5 114.5875,848.5 Q115.4781,848.5 116.1031,848.2969 Q116.4625,848.1875 116.8688,847.8281 Q117.1344,847.625 117.275,847.5625 Q117.4156,847.5 117.5875,847.5 Q117.9156,847.5 118.15,847.7656 Q118.4,848.0156 118.4,848.375 Q118.4,848.7188 118.0563,849.125 Q117.5563,849.7188 116.7594,850.0469 Q115.7125,850.5 114.4313,850.5 Q112.9313,850.5 111.7281,849.9063 Q110.7594,849.4375 110.0719,848.4219 Q109.4,847.4063 109.4,846.2031 L109.4,845.1094 Q109.4,843.8594 109.9938,842.7656 Q110.6031,841.6719 111.65,841.0938 Q112.7125,840.5 113.9,840.5 Q114.6188,840.5 115.2438,840.75 Q115.8688,841 116.4,841.5 Z " fill="#000000"/><text fill="#000000" font-family="sans-serif" font-size="12" lengthAdjust="spacing" textLength="70" x="128.6" y="849.9102">ShipPosition</text><line style="stroke:#A80036;stroke-width:1.5;" x1="99.5" x2="201.5" y1="861" y2="861"/><text fill="#000000" font-family="sans-serif" font-size="11" lengthAdjust="spacing" textLength="72" x="104.5" y="876.4189">-baseDateTime</text><text fill="#000000" font-family="sans-serif" font-size="11" lengthAdjust="spacing" textLength="38" x="104.5" y="890.2549">-latitude</text><text fill="#000000" font-family="sans-serif" font-size="11" lengthAdjust="spacing" textLength="47" x="104.5" y="904.0908">-longitude</text><text fill="#000000" font-family="sans-serif" font-size="11" lengthAdjust="spacing" textLength="22" x="104.5" y="917.9268">-sog</text><text fill="#000000" font-family="sans-serif" font-size="11" lengthAdjust="spacing" textLength="22" x="104.5" y="931.7627">-cog</text><text fill="#000000" font-family="sans-serif" font-size="11" lengthAdjust="spacing" textLength="42" x="104.5" y="945.5986">-heading</text><text fill="#000000" font-family="sans-serif" font-size="11" lengthAdjust="spacing" textLength="41" x="104.5" y="959.4346">-position</text><text fill="#000000" font-family="sans-serif" font-size="11" lengthAdjust="spacing" textLength="59" x="104.5" y="973.2705">-transceiver</text><line style="stroke:#A80036;stroke-width:1.5;" x1="99.5" x2="201.5" y1="979.6875" y2="979.6875"/><text fill="#000000" font-family="sans-serif" font-size="11" lengthAdjust="spacing" textLength="92" x="104.5" y="995.1064">+getPositionsBST()</text><!--MD5=[43adf079e4aaffd3a283c2c0454b404c]
class ShipsBST--><rect codeLine="29" fill="#FEFECE" filter="url(#f3v01qgfqvucr)" height="61.8359" id="ShipsBST" style="stroke:#A80036;stroke-width:1.5;" width="173" x="169" y="298"/><ellipse cx="223.75" cy="314" fill="#ADD1B2" rx="11" ry="11" style="stroke:#A80036;stroke-width:1.0;"/><path d="M225.75,310.5 Q225.9531,310 226.1875,309.75 Q226.4219,309.5 226.6875,309.5 Q227.1563,309.5 227.4531,309.7813 Q227.75,310.0625 227.75,310.7188 L227.75,312.2813 Q227.75,312.9375 227.4688,313.2188 Q227.1875,313.5 226.75,313.5 Q226.3594,313.5 226.1094,313.3281 Q225.8594,313.1563 225.75,312.7031 Q225.7031,312.3906 225.5313,312.2188 Q225.2188,311.8906 224.6563,311.7031 Q224.0938,311.5 223.5313,311.5 Q222.8281,311.5 222.2344,311.7813 Q221.6563,312.0625 221.2031,312.6875 Q220.75,313.3125 220.75,314.1719 L220.75,315.0938 Q220.75,316.125 221.5938,316.8125 Q222.4375,317.5 223.9375,317.5 Q224.8281,317.5 225.4531,317.2969 Q225.8125,317.1875 226.2188,316.8281 Q226.4844,316.625 226.625,316.5625 Q226.7656,316.5 226.9375,316.5 Q227.2656,316.5 227.5,316.7656 Q227.75,317.0156 227.75,317.375 Q227.75,317.7188 227.4063,318.125 Q226.9063,318.7188 226.1094,319.0469 Q225.0625,319.5 223.7813,319.5 Q222.2813,319.5 221.0781,318.9063 Q220.1094,318.4375 219.4219,317.4219 Q218.75,316.4063 218.75,315.2031 L218.75,314.1094 Q218.75,312.8594 219.3438,311.7656 Q219.9531,310.6719 221,310.0938 Q222.0625,309.5 223.25,309.5 Q223.9688,309.5 224.5938,309.75 Q225.2188,310 225.75,310.5 Z " fill="#000000"/><text fill="#000000" font-family="sans-serif" font-size="12" lengthAdjust="spacing" textLength="55" x="244.25" y="318.9102">ShipsBST</text><line style="stroke:#A80036;stroke-width:1.5;" x1="170" x2="341" y1="330" y2="330"/><line style="stroke:#A80036;stroke-width:1.5;" x1="170" x2="341" y1="338" y2="338"/><text fill="#000000" font-family="sans-serif" font-size="11" lengthAdjust="spacing" textLength="161" x="175" y="353.4189">+getShipByMmsiCode(mmsiCode)</text><!--MD5=[004e005a2edf96352d0772cab412880f]
class PositionsBST--><rect codeLine="33" fill="#FEFECE" filter="url(#f3v01qgfqvucr)" height="61.8359" id="PositionsBST" style="stroke:#A80036;stroke-width:1.5;" width="223" x="39" y="689"/><ellipse cx="108.75" cy="705" fill="#ADD1B2" rx="11" ry="11" style="stroke:#A80036;stroke-width:1.0;"/><path d="M110.75,701.5 Q110.9531,701 111.1875,700.75 Q111.4219,700.5 111.6875,700.5 Q112.1563,700.5 112.4531,700.7813 Q112.75,701.0625 112.75,701.7188 L112.75,703.2813 Q112.75,703.9375 112.4688,704.2188 Q112.1875,704.5 111.75,704.5 Q111.3594,704.5 111.1094,704.3281 Q110.8594,704.1563 110.75,703.7031 Q110.7031,703.3906 110.5313,703.2188 Q110.2188,702.8906 109.6563,702.7031 Q109.0938,702.5 108.5313,702.5 Q107.8281,702.5 107.2344,702.7813 Q106.6563,703.0625 106.2031,703.6875 Q105.75,704.3125 105.75,705.1719 L105.75,706.0938 Q105.75,707.125 106.5938,707.8125 Q107.4375,708.5 108.9375,708.5 Q109.8281,708.5 110.4531,708.2969 Q110.8125,708.1875 111.2188,707.8281 Q111.4844,707.625 111.625,707.5625 Q111.7656,707.5 111.9375,707.5 Q112.2656,707.5 112.5,707.7656 Q112.75,708.0156 112.75,708.375 Q112.75,708.7188 112.4063,709.125 Q111.9063,709.7188 111.1094,710.0469 Q110.0625,710.5 108.7813,710.5 Q107.2813,710.5 106.0781,709.9063 Q105.1094,709.4375 104.4219,708.4219 Q103.75,707.4063 103.75,706.2031 L103.75,705.1094 Q103.75,703.8594 104.3438,702.7656 Q104.9531,701.6719 106,701.0938 Q107.0625,700.5 108.25,700.5 Q108.9688,700.5 109.5938,700.75 Q110.2188,701 110.75,701.5 Z " fill="#000000"/><text fill="#000000" font-family="sans-serif" font-size="12" lengthAdjust="spacing" textLength="75" x="129.25" y="709.9102">PositionsBST</text><line style="stroke:#A80036;stroke-width:1.5;" x1="40" x2="261" y1="721" y2="721"/><line style="stroke:#A80036;stroke-width:1.5;" x1="40" x2="261" y1="729" y2="729"/><text fill="#000000" font-family="sans-serif" font-size="11" lengthAdjust="spacing" textLength="211" x="45" y="744.4189">+getPositinalMessages(initialDate, finalDate)</text><!--MD5=[0ac19ab3e3919ce943faa2e745f06aba]
class ShowPositionalMessagesController--><rect codeLine="39" fill="#FEFECE" filter="url(#f3v01qgfqvucr)" height="75.6719" id="ShowPositionalMessagesController" style="stroke:#A80036;stroke-width:1.5;" width="242" x="170.5" y="7"/><ellipse cx="190.9" cy="23" fill="#ADD1B2" rx="11" ry="11" style="stroke:#A80036;stroke-width:1.0;"/><path d="M192.9,19.5 Q193.1031,19 193.3375,18.75 Q193.5719,18.5 193.8375,18.5 Q194.3063,18.5 194.6031,18.7813 Q194.9,19.0625 194.9,19.7188 L194.9,21.2813 Q194.9,21.9375 194.6188,22.2188 Q194.3375,22.5 193.9,22.5 Q193.5094,22.5 193.2594,22.3281 Q193.0094,22.1563 192.9,21.7031 Q192.8531,21.3906 192.6813,21.2188 Q192.3688,20.8906 191.8063,20.7031 Q191.2438,20.5 190.6813,20.5 Q189.9781,20.5 189.3844,20.7813 Q188.8063,21.0625 188.3531,21.6875 Q187.9,22.3125 187.9,23.1719 L187.9,24.0938 Q187.9,25.125 188.7438,25.8125 Q189.5875,26.5 191.0875,26.5 Q191.9781,26.5 192.6031,26.2969 Q192.9625,26.1875 193.3688,25.8281 Q193.6344,25.625 193.775,25.5625 Q193.9156,25.5 194.0875,25.5 Q194.4156,25.5 194.65,25.7656 Q194.9,26.0156 194.9,26.375 Q194.9,26.7188 194.5563,27.125 Q194.0563,27.7188 193.2594,28.0469 Q192.2125,28.5 190.9313,28.5 Q189.4313,28.5 188.2281,27.9063 Q187.2594,27.4375 186.5719,26.4219 Q185.9,25.4063 185.9,24.2031 L185.9,23.1094 Q185.9,21.8594 186.4938,20.7656 Q187.1031,19.6719 188.15,19.0938 Q189.2125,18.5 190.4,18.5 Q191.1188,18.5 191.7438,18.75 Q192.3688,19 192.9,19.5 Z " fill="#000000"/><text fill="#000000" font-family="sans-serif" font-size="12" lengthAdjust="spacing" textLength="198" x="206.1" y="27.9102">ShowPositionalMessagesController</text><line style="stroke:#A80036;stroke-width:1.5;" x1="171.5" x2="411.5" y1="39" y2="39"/><line style="stroke:#A80036;stroke-width:1.5;" x1="171.5" x2="411.5" y1="47" y2="47"/><text fill="#000000" font-family="sans-serif" font-size="11" lengthAdjust="spacing" textLength="116" x="176.5" y="62.4189">+isValidShip(mmsiCode)</text><text fill="#000000" font-family="sans-serif" font-size="11" lengthAdjust="spacing" textLength="230" x="176.5" y="76.2549">+showPositionalMessages(initialDate, finalDate)</text><!--MD5=[02e4b9b7573f1156f41e60aa5b4e25a4]
class Company--><rect codeLine="44" fill="#FEFECE" filter="url(#f3v01qgfqvucr)" height="75.6719" id="Company" style="stroke:#A80036;stroke-width:1.5;" width="85" x="177" y="144"/><ellipse cx="192" cy="160" fill="#ADD1B2" rx="11" ry="11" style="stroke:#A80036;stroke-width:1.0;"/><path d="M194,156.5 Q194.2031,156 194.4375,155.75 Q194.6719,155.5 194.9375,155.5 Q195.4063,155.5 195.7031,155.7813 Q196,156.0625 196,156.7188 L196,158.2813 Q196,158.9375 195.7188,159.2188 Q195.4375,159.5 195,159.5 Q194.6094,159.5 194.3594,159.3281 Q194.1094,159.1563 194,158.7031 Q193.9531,158.3906 193.7813,158.2188 Q193.4688,157.8906 192.9063,157.7031 Q192.3438,157.5 191.7813,157.5 Q191.0781,157.5 190.4844,157.7813 Q189.9063,158.0625 189.4531,158.6875 Q189,159.3125 189,160.1719 L189,161.0938 Q189,162.125 189.8438,162.8125 Q190.6875,163.5 192.1875,163.5 Q193.0781,163.5 193.7031,163.2969 Q194.0625,163.1875 194.4688,162.8281 Q194.7344,162.625 194.875,162.5625 Q195.0156,162.5 195.1875,162.5 Q195.5156,162.5 195.75,162.7656 Q196,163.0156 196,163.375 Q196,163.7188 195.6563,164.125 Q195.1563,164.7188 194.3594,165.0469 Q193.3125,165.5 192.0313,165.5 Q190.5313,165.5 189.3281,164.9063 Q188.3594,164.4375 187.6719,163.4219 Q187,162.4063 187,161.2031 L187,160.1094 Q187,158.8594 187.5938,157.7656 Q188.2031,156.6719 189.25,156.0938 Q190.3125,155.5 191.5,155.5 Q192.2188,155.5 192.8438,155.75 Q193.4688,156 194,156.5 Z " fill="#000000"/><text fill="#000000" font-family="sans-serif" font-size="12" lengthAdjust="spacing" textLength="53" x="206" y="164.9102">Company</text><line style="stroke:#A80036;stroke-width:1.5;" x1="178" x2="261" y1="176" y2="176"/><text fill="#000000" font-family="sans-serif" font-size="11" lengthAdjust="spacing" textLength="59" x="183" y="191.4189">-designation</text><line style="stroke:#A80036;stroke-width:1.5;" x1="178" x2="261" y1="197.8359" y2="197.8359"/><text fill="#000000" font-family="sans-serif" font-size="11" lengthAdjust="spacing" textLength="66" x="183" y="213.2549">+getBstShip()</text><!--MD5=[b4a9ab6cffd58937cfea07eb2954e1bd]
class BST--><rect fill="#FEFECE" filter="url(#f3v01qgfqvucr)" height="48" id="BST" style="stroke:#A80036;stroke-width:1.5;" width="55" x="7" y="305"/><ellipse cx="22" cy="321" fill="#ADD1B2" rx="11" ry="11" style="stroke:#A80036;stroke-width:1.0;"/><path d="M24,317.5 Q24.2031,317 24.4375,316.75 Q24.6719,316.5 24.9375,316.5 Q25.4063,316.5 25.7031,316.7813 Q26,317.0625 26,317.7188 L26,319.2813 Q26,319.9375 25.7188,320.2188 Q25.4375,320.5 25,320.5 Q24.6094,320.5 24.3594,320.3281 Q24.1094,320.1563 24,319.7031 Q23.9531,319.3906 23.7813,319.2188 Q23.4688,318.8906 22.9063,318.7031 Q22.3438,318.5 21.7813,318.5 Q21.0781,318.5 20.4844,318.7813 Q19.9063,319.0625 19.4531,319.6875 Q19,320.3125 19,321.1719 L19,322.0938 Q19,323.125 19.8438,323.8125 Q20.6875,324.5 22.1875,324.5 Q23.0781,324.5 23.7031,324.2969 Q24.0625,324.1875 24.4688,323.8281 Q24.7344,323.625 24.875,323.5625 Q25.0156,323.5 25.1875,323.5 Q25.5156,323.5 25.75,323.7656 Q26,324.0156 26,324.375 Q26,324.7188 25.6563,325.125 Q25.1563,325.7188 24.3594,326.0469 Q23.3125,326.5 22.0313,326.5 Q20.5313,326.5 19.3281,325.9063 Q18.3594,325.4375 17.6719,324.4219 Q17,323.4063 17,322.2031 L17,321.1094 Q17,319.8594 17.5938,318.7656 Q18.2031,317.6719 19.25,317.0938 Q20.3125,316.5 21.5,316.5 Q22.2188,316.5 22.8438,316.75 Q23.4688,317 24,317.5 Z " fill="#000000"/><text fill="#000000" font-family="sans-serif" font-size="12" lengthAdjust="spacing" textLength="23" x="36" y="325.9102">BST</text><line style="stroke:#A80036;stroke-width:1.5;" x1="8" x2="61" y1="337" y2="337"/><line style="stroke:#A80036;stroke-width:1.5;" x1="8" x2="61" y1="345" y2="345"/><!--MD5=[1b046338fb2698c0e9f102f85676b8e2]
link Company to ShipsBST--><path codeLine="52" d="M228.77,220.34 C234.73,244.34 242.37,275.12 247.96,297.62 " fill="none" id="Company-ShipsBST" style="stroke:#A80036;stroke-width:1.0;"/><polygon fill="#000000" points="245.705,264.0284,246.3774,254.5416,240.6728,255.9582,245.705,264.0284" style="stroke:#000000;stroke-width:1.0;"/><text fill="#000000" font-family="sans-serif" font-size="13" lengthAdjust="spacing" textLength="28" x="253.5" y="264.4951">uses</text><text fill="#000000" font-family="sans-serif" font-size="13" lengthAdjust="spacing" textLength="7" x="222.6896" y="241.2747">1</text><text fill="#000000" font-family="sans-serif" font-size="13" lengthAdjust="spacing" textLength="7" x="238.683" y="287.0462">1</text><!--MD5=[b457ea32acbd230d0e22037aaab2ac98]
link ShipsBST to Ship--><path codeLine="53" d="M259.41,360.23 C262.11,381.17 265.86,410.17 269.44,437.92 " fill="none" id="ShipsBST-Ship" style="stroke:#A80036;stroke-width:1.0;"/><polygon fill="#000000" points="270.1402,404.1346,271.8968,394.7877,266.0673,395.5403,270.1402,404.1346" style="stroke:#000000;stroke-width:1.0;"/><text fill="#000000" font-family="sans-serif" font-size="13" lengthAdjust="spacing" textLength="30" x="278.5" y="404.4951">owns</text><text fill="#000000" font-family="sans-serif" font-size="13" lengthAdjust="spacing" textLength="7" x="252.4882" y="381.2525">1</text><text fill="#000000" font-family="sans-serif" font-size="13" lengthAdjust="spacing" textLength="20" x="247.5643" y="427.0285">1..*</text><!--MD5=[bd16fc4b2a08274ec71edc6d573c9239]
link Ship to PositionsBST--><path codeLine="54" d="M242.11,611.32 C233.31,627.74 223.32,644.36 212.5,659 C204.75,669.48 195.11,679.77 185.76,688.78 " fill="none" id="Ship-PositionsBST" style="stroke:#A80036;stroke-width:1.0;"/><polygon fill="#000000" points="226.5586,654.2191,234.2562,648.6336,229.503,645.1758,226.5586,654.2191" style="stroke:#000000;stroke-width:1.0;"/><text fill="#000000" font-family="sans-serif" font-size="13" lengthAdjust="spacing" textLength="28" x="238.5" y="655.4951">uses</text><text fill="#000000" font-family="sans-serif" font-size="13" lengthAdjust="spacing" textLength="7" x="231.9028" y="632.1065">1</text><text fill="#000000" font-family="sans-serif" font-size="13" lengthAdjust="spacing" textLength="7" x="185.3105" y="678.2392">1</text><!--MD5=[34b80baad36b2d2bd6b6893c22d217b3]
link PositionsBST to ShipPosition--><path codeLine="55" d="M150.5,751.23 C150.5,772.17 150.5,801.17 150.5,828.92 " fill="none" id="PositionsBST-ShipPosition" style="stroke:#A80036;stroke-width:1.0;"/><polygon fill="#000000" points="155.5,795.1758,158.4389,786.1307,152.5611,786.1307,155.5,795.1758" style="stroke:#000000;stroke-width:1.0;"/><text fill="#000000" font-family="sans-serif" font-size="13" lengthAdjust="spacing" textLength="21" x="164.5" y="795.4951">has</text><text fill="#000000" font-family="sans-serif" font-size="13" lengthAdjust="spacing" textLength="7" x="142.8328" y="772.2525">1</text><text fill="#000000" font-family="sans-serif" font-size="13" lengthAdjust="spacing" textLength="20" x="129.6094" y="818.0285">1..*</text><!--MD5=[e561b603bbd8b6521a638dc78f755f9d]
link ShowPositionalMessagesController to Company--><path codeLine="57" d="M271.64,83.25 C262.35,100.66 251.26,121.46 241.7,139.38 " fill="none" id="ShowPositionalMessagesController-to-Company" style="stroke:#A80036;stroke-width:1.0;stroke-dasharray:7.0,7.0;"/><polygon fill="#A80036" points="239.3,143.87,247.0678,137.8151,241.6552,139.4594,240.0108,134.0468,239.3,143.87" style="stroke:#A80036;stroke-width:1.0;"/><!--MD5=[b8eba2630e1518c6d8b4949699d1900c]
link ShowPositionalMessagesController to ShipsBST--><path codeLine="58" d="M297.12,83.32 C302.56,128.09 307.69,204.97 290.5,268 C288.12,276.74 284.12,285.51 279.66,293.55 " fill="none" id="ShowPositionalMessagesController-to-ShipsBST" style="stroke:#A80036;stroke-width:1.0;stroke-dasharray:7.0,7.0;"/><polygon fill="#A80036" points="277.14,297.93,285.0906,292.1173,279.6299,293.5941,278.1531,288.1334,277.14,297.93" style="stroke:#A80036;stroke-width:1.0;"/><!--MD5=[8d5605e7226e951eefe0c75edc1e09c5]
link ShowPositionalMessagesController to Ship--><path codeLine="59" d="M312.7,83.09 C317.47,92.61 322.12,102.99 325.5,113 C360.95,217.99 384.23,251.98 359.5,360 C352.25,391.66 338.04,424.33 323.64,452.05 " fill="none" id="ShowPositionalMessagesController-to-Ship" style="stroke:#A80036;stroke-width:1.0;stroke-dasharray:7.0,7.0;"/><polygon fill="#A80036" points="321.15,456.82,328.879,450.7156,323.477,452.3945,321.7981,446.9925,321.15,456.82" style="stroke:#A80036;stroke-width:1.0;"/><!--MD5=[83fd222306ae45b6a45d0a4558a86fd1]
link ShowPositionalMessagesController to PositionsBST--><path codeLine="60" d="M190.91,83.02 C151.48,104.56 115.5,136.43 115.5,181 C115.5,181 115.5,181 115.5,525.5 C115.5,581.53 129.89,645.26 140.21,683.77 " fill="none" id="ShowPositionalMessagesController-to-PositionsBST" style="stroke:#A80036;stroke-width:1.0;stroke-dasharray:7.0,7.0;"/><polygon fill="#A80036" points="141.58,688.81,143.0759,679.0754,140.2668,683.9855,135.3567,681.1765,141.58,688.81" style="stroke:#A80036;stroke-width:1.0;"/><!--MD5=[8527c01ae7f221c1f2007baa13df9fd5]
link ShipsBST to PositionsBST--><path codeLine="61" d="M245.88,360.15 C239.09,381.75 229.92,411.57 222.5,438 C197.78,526.07 171.89,630.63 158.94,683.94 " fill="none" id="ShipsBST-to-PositionsBST" style="stroke:#A80036;stroke-width:1.0;stroke-dasharray:7.0,7.0;"/><polygon fill="#A80036" points="157.72,688.94,163.7186,681.1287,158.8923,684.0794,155.9416,679.253,157.72,688.94" style="stroke:#A80036;stroke-width:1.0;"/><!--MD5=[4f67294047c37ade415b9b594b2af08c]
reverse link BST to PositionsBST--><path codeLine="63" d="M33.44,373.15 C33.58,438.67 40.87,565.5 89.5,659 C95.19,669.94 103.6,680.09 112.37,688.82 " fill="none" id="BST-backto-PositionsBST" style="stroke:#A80036;stroke-width:1.0;"/><polygon fill="none" points="26.44,372.99,33.62,353.06,40.44,373.12,26.44,372.99" style="stroke:#A80036;stroke-width:1.0;"/><!--MD5=[c0487b7918f81e122b78f0155f13124a]
reverse link BST to ShipsBST--><path codeLine="64" d="M82.51,329 C111.22,329 139.93,329 168.63,329 " fill="none" id="BST-backto-ShipsBST" style="stroke:#A80036;stroke-width:1.0;"/><polygon fill="none" points="82.13,336,62.12,329,82.12,322,82.13,336" style="stroke:#A80036;stroke-width:1.0;"/><!--MD5=[4d39d5b1482997dce925ef8c0b0a536d]
@startuml

skinparam classAttributeIconSize 0


class Ship {
    -mmmsiCode
    -shipName
    -imoCode
    -callSignId
    -draft
    -vesselTypeID
    -length
    -width
    -cargo
}

class ShipPosition {
    -baseDateTime
    -latitude
    -longitude
    -sog
    -cog
    -heading
    -position
    -transceiver
    +getPositionsBST()
}

class ShipsBST {
    +getShipByMmsiCode(mmsiCode)
}

class PositionsBST {
    +getPositinalMessages(initialDate, finalDate)
}

/'class ShowPositionalMessagesUI {}'/

class ShowPositionalMessagesController {
    +isValidShip(mmsiCode)
    +showPositionalMessages(initialDate, finalDate)
}

class Company {
    -designation
    +getBstShip()
}

/'Ship "1" - - "1..*" ShipPosition : has >'/
/'Company "1" - - "1..*" Ship : owns >'/

Company "1" - - "1" ShipsBST : uses >
ShipsBST "1" - - "1..*" Ship : owns >
Ship "1" - - "1" PositionsBST : uses >
PositionsBST "1" - - "1..*" ShipPosition : has >
/'ShowPositionalMessagesUI ..> ShowPositionalMessagesController'/
ShowPositionalMessagesController ..> Company
ShowPositionalMessagesController ..> ShipsBST
ShowPositionalMessagesController ..> Ship
ShowPositionalMessagesController ..> PositionsBST
ShipsBST ..> PositionsBST

BST <|- PositionsBST
BST <|- ShipsBST


@enduml

@startuml

skinparam classAttributeIconSize 0


class Ship {
    -mmmsiCode
    -shipName
    -imoCode
    -callSignId
    -draft
    -vesselTypeID
    -length
    -width
    -cargo
}

class ShipPosition {
    -baseDateTime
    -latitude
    -longitude
    -sog
    -cog
    -heading
    -position
    -transceiver
    +getPositionsBST()
}

class ShipsBST {
    +getShipByMmsiCode(mmsiCode)
}

class PositionsBST {
    +getPositinalMessages(initialDate, finalDate)
}


class ShowPositionalMessagesController {
    +isValidShip(mmsiCode)
    +showPositionalMessages(initialDate, finalDate)
}

class Company {
    -designation
    +getBstShip()
}


Company "1" - - "1" ShipsBST : uses >
ShipsBST "1" - - "1..*" Ship : owns >
Ship "1" - - "1" PositionsBST : uses >
PositionsBST "1" - - "1..*" ShipPosition : has >
ShowPositionalMessagesController ..> Company
ShowPositionalMessagesController ..> ShipsBST
ShowPositionalMessagesController ..> Ship
ShowPositionalMessagesController ..> PositionsBST
ShipsBST ..> PositionsBST

BST <|- PositionsBST
BST <|- ShipsBST


@enduml

PlantUML version 1.2021.11(Sat Oct 02 14:26:11 BST 2021)
(GPL source distribution)
Java Runtime: OpenJDK Runtime Environment
JVM: OpenJDK 64-Bit Server VM
Default Encoding: Cp1252
Language: pt
Country: PT
--></g></svg>