<?xml version="1.0" encoding="UTF-8" standalone="no"?><svg xmlns="http://www.w3.org/2000/svg" xmlns:xlink="http://www.w3.org/1999/xlink" contentScriptType="application/ecmascript" contentStyleType="text/css" height="778.4px" preserveAspectRatio="none" style="width:343px;height:778px;background:#FFFFFF;" version="1.1" viewBox="0 0 343 778" width="343.2px" zoomAndPan="magnify"><defs><filter height="300%" id="f156tiqno3zrmr" width="300%" x="-1" y="-1"><feGaussianBlur result="blurOut" stdDeviation="1.6000000000000003"/><feColorMatrix in="blurOut" result="blurOut2" type="matrix" values="0 0 0 0 0 0 0 0 0 0 0 0 0 0 0 0 0 0 .4 0"/><feOffset dx="3.2000000000000006" dy="3.2000000000000006" in="blurOut2" result="blurOut3"/><feBlend in="SourceGraphic" in2="blurOut3" mode="normal"/></filter></defs><g><!--MD5=[0dc7f2ddb409b58bcf52b12238c25399]
class Ship--><rect codeLine="5" fill="#FEFECE" filter="url(#f156tiqno3zrmr)" height="104.8125" id="Ship" style="stroke:#A80036;stroke-width:1.2000000000000002;" width="74.4" x="169.6" y="350.4"/><ellipse cx="194.56" cy="363.2" fill="#ADD1B2" rx="8.8" ry="8.8" style="stroke:#A80036;stroke-width:0.8000000000000002;"/><path d="M196.16,360.4 Q196.3225,360 196.51,359.8 Q196.6975,359.6 196.91,359.6 Q197.285,359.6 197.5225,359.825 Q197.76,360.05 197.76,360.575 L197.76,361.825 Q197.76,362.35 197.535,362.575 Q197.31,362.8 196.96,362.8 Q196.6475,362.8 196.4475,362.6625 Q196.2475,362.525 196.16,362.1625 Q196.1225,361.9125 195.985,361.775 Q195.735,361.5125 195.285,361.3625 Q194.835,361.2 194.385,361.2 Q193.8225,361.2 193.3475,361.425 Q192.885,361.65 192.5225,362.15 Q192.16,362.65 192.16,363.3375 L192.16,364.075 Q192.16,364.9 192.835,365.45 Q193.51,366 194.71,366 Q195.4225,366 195.9225,365.8375 Q196.21,365.75 196.535,365.4625 Q196.7475,365.3 196.86,365.25 Q196.9725,365.2 197.11,365.2 Q197.3725,365.2 197.56,365.4125 Q197.76,365.6125 197.76,365.9 Q197.76,366.175 197.485,366.5 Q197.085,366.975 196.4475,367.2375 Q195.61,367.6 194.585,367.6 Q193.385,367.6 192.4225,367.125 Q191.6475,366.75 191.0975,365.9375 Q190.56,365.125 190.56,364.1625 L190.56,363.2875 Q190.56,362.2875 191.035,361.4125 Q191.5225,360.5375 192.36,360.075 Q193.21,359.6 194.16,359.6 Q194.735,359.6 195.235,359.8 Q195.735,360 196.16,360.4 Z " fill="#000000"/><text fill="#000000" font-family="sans-serif" font-size="9.6" lengthAdjust="spacing" textLength="20" x="208.64" y="367.1281">Ship</text><line style="stroke:#A80036;stroke-width:1.2000000000000002;" x1="170.4" x2="243.2" y1="376" y2="376"/><text fill="#000000" font-family="sans-serif" font-size="8.8" lengthAdjust="spacing" textLength="48.8" x="174.4" y="388.3352">-mmmsiCode</text><text fill="#000000" font-family="sans-serif" font-size="8.8" lengthAdjust="spacing" textLength="40.8" x="174.4" y="399.4039">-shipName</text><text fill="#000000" font-family="sans-serif" font-size="8.8" lengthAdjust="spacing" textLength="36" x="174.4" y="410.4727">-imoCode</text><text fill="#000000" font-family="sans-serif" font-size="8.8" lengthAdjust="spacing" textLength="39.2" x="174.4" y="421.5414">-callSignId</text><text fill="#000000" font-family="sans-serif" font-size="8.8" lengthAdjust="spacing" textLength="64.8" x="174.4" y="432.6102">-currentCapacity</text><text fill="#000000" font-family="sans-serif" font-size="8.8" lengthAdjust="spacing" textLength="21.6" x="174.4" y="443.6789">-draft</text><line style="stroke:#A80036;stroke-width:1.2000000000000002;" x1="170.4" x2="243.2" y1="448.8125" y2="448.8125"/><!--MD5=[1c0c3765e68dc4575d559b566278b914]
class ShipPosition--><rect codeLine="14" fill="#FEFECE" filter="url(#f156tiqno3zrmr)" height="138.0188" id="ShipPosition" style="stroke:#A80036;stroke-width:1.2000000000000002;" width="83.2" x="53.2" y="629.6"/><ellipse cx="65.92" cy="642.4" fill="#ADD1B2" rx="8.8" ry="8.8" style="stroke:#A80036;stroke-width:0.8000000000000002;"/><path d="M67.52,639.6 Q67.6825,639.2 67.87,639 Q68.0575,638.8 68.27,638.8 Q68.645,638.8 68.8825,639.025 Q69.12,639.25 69.12,639.775 L69.12,641.025 Q69.12,641.55 68.895,641.775 Q68.67,642 68.32,642 Q68.0075,642 67.8075,641.8625 Q67.6075,641.725 67.52,641.3625 Q67.4825,641.1125 67.345,640.975 Q67.095,640.7125 66.645,640.5625 Q66.195,640.4 65.745,640.4 Q65.1825,640.4 64.7075,640.625 Q64.245,640.85 63.8825,641.35 Q63.52,641.85 63.52,642.5375 L63.52,643.275 Q63.52,644.1 64.195,644.65 Q64.87,645.2 66.07,645.2 Q66.7825,645.2 67.2825,645.0375 Q67.57,644.95 67.895,644.6625 Q68.1075,644.5 68.22,644.45 Q68.3325,644.4 68.47,644.4 Q68.7325,644.4 68.92,644.6125 Q69.12,644.8125 69.12,645.1 Q69.12,645.375 68.845,645.7 Q68.445,646.175 67.8075,646.4375 Q66.97,646.8 65.945,646.8 Q64.745,646.8 63.7825,646.325 Q63.0075,645.95 62.4575,645.1375 Q61.92,644.325 61.92,643.3625 L61.92,642.4875 Q61.92,641.4875 62.395,640.6125 Q62.8825,639.7375 63.72,639.275 Q64.57,638.8 65.52,638.8 Q66.095,638.8 66.595,639 Q67.095,639.2 67.52,639.6 Z " fill="#000000"/><text fill="#000000" font-family="sans-serif" font-size="9.6" lengthAdjust="spacing" textLength="56" x="77.28" y="646.3281">ShipPosition</text><line style="stroke:#A80036;stroke-width:1.2000000000000002;" x1="54" x2="135.6" y1="655.2" y2="655.2"/><text fill="#000000" font-family="sans-serif" font-size="8.8" lengthAdjust="spacing" textLength="57.6" x="58" y="667.5352">-baseDateTime</text><text fill="#000000" font-family="sans-serif" font-size="8.8" lengthAdjust="spacing" textLength="30.4" x="58" y="678.6039">-latitude</text><text fill="#000000" font-family="sans-serif" font-size="8.8" lengthAdjust="spacing" textLength="37.6" x="58" y="689.6727">-longitude</text><text fill="#000000" font-family="sans-serif" font-size="8.8" lengthAdjust="spacing" textLength="17.6" x="58" y="700.7414">-sog</text><text fill="#000000" font-family="sans-serif" font-size="8.8" lengthAdjust="spacing" textLength="17.6" x="58" y="711.8102">-cog</text><text fill="#000000" font-family="sans-serif" font-size="8.8" lengthAdjust="spacing" textLength="33.6" x="58" y="722.8789">-heading</text><text fill="#000000" font-family="sans-serif" font-size="8.8" lengthAdjust="spacing" textLength="32.8" x="58" y="733.9477">-position</text><text fill="#000000" font-family="sans-serif" font-size="8.8" lengthAdjust="spacing" textLength="47.2" x="58" y="745.0164">-transceiver</text><line style="stroke:#A80036;stroke-width:1.2000000000000002;" x1="54" x2="135.6" y1="750.15" y2="750.15"/><text fill="#000000" font-family="sans-serif" font-size="8.8" lengthAdjust="spacing" textLength="73.6" x="58" y="762.4852">+getPositionsBST()</text><!--MD5=[43adf079e4aaffd3a283c2c0454b404c]
class ShipsBST--><rect codeLine="26" fill="#FEFECE" filter="url(#f156tiqno3zrmr)" height="49.4688" id="ShipsBST" style="stroke:#A80036;stroke-width:1.2000000000000002;" width="138.4" x="137.6" y="238.4"/><ellipse cx="181.4" cy="251.2" fill="#ADD1B2" rx="8.8" ry="8.8" style="stroke:#A80036;stroke-width:0.8000000000000002;"/><path d="M183,248.4 Q183.1625,248 183.35,247.8 Q183.5375,247.6 183.75,247.6 Q184.125,247.6 184.3625,247.825 Q184.6,248.05 184.6,248.575 L184.6,249.825 Q184.6,250.35 184.375,250.575 Q184.15,250.8 183.8,250.8 Q183.4875,250.8 183.2875,250.6625 Q183.0875,250.525 183,250.1625 Q182.9625,249.9125 182.825,249.775 Q182.575,249.5125 182.125,249.3625 Q181.675,249.2 181.225,249.2 Q180.6625,249.2 180.1875,249.425 Q179.725,249.65 179.3625,250.15 Q179,250.65 179,251.3375 L179,252.075 Q179,252.9 179.675,253.45 Q180.35,254 181.55,254 Q182.2625,254 182.7625,253.8375 Q183.05,253.75 183.375,253.4625 Q183.5875,253.3 183.7,253.25 Q183.8125,253.2 183.95,253.2 Q184.2125,253.2 184.4,253.4125 Q184.6,253.6125 184.6,253.9 Q184.6,254.175 184.325,254.5 Q183.925,254.975 183.2875,255.2375 Q182.45,255.6 181.425,255.6 Q180.225,255.6 179.2625,255.125 Q178.4875,254.75 177.9375,253.9375 Q177.4,253.125 177.4,252.1625 L177.4,251.2875 Q177.4,250.2875 177.875,249.4125 Q178.3625,248.5375 179.2,248.075 Q180.05,247.6 181,247.6 Q181.575,247.6 182.075,247.8 Q182.575,248 183,248.4 Z " fill="#000000"/><text fill="#000000" font-family="sans-serif" font-size="9.6" lengthAdjust="spacing" textLength="44" x="197.8" y="255.1281">ShipsBST</text><line style="stroke:#A80036;stroke-width:1.2000000000000002;" x1="138.4" x2="275.2" y1="264" y2="264"/><line style="stroke:#A80036;stroke-width:1.2000000000000002;" x1="138.4" x2="275.2" y1="270.4" y2="270.4"/><text fill="#000000" font-family="sans-serif" font-size="8.8" lengthAdjust="spacing" textLength="128.8" x="142.4" y="282.7352">+getShipByMmsiCode(mmsiCode)</text><!--MD5=[004e005a2edf96352d0772cab412880f]
class PositionsBST--><rect codeLine="30" fill="#FEFECE" filter="url(#f156tiqno3zrmr)" height="49.4688" id="PositionsBST" style="stroke:#A80036;stroke-width:1.2000000000000002;" width="178.4" x="5.6" y="517.6"/><ellipse cx="61.4" cy="530.4" fill="#ADD1B2" rx="8.8" ry="8.8" style="stroke:#A80036;stroke-width:0.8000000000000002;"/><path d="M63,527.6 Q63.1625,527.2 63.35,527 Q63.5375,526.8 63.75,526.8 Q64.125,526.8 64.3625,527.025 Q64.6,527.25 64.6,527.775 L64.6,529.025 Q64.6,529.55 64.375,529.775 Q64.15,530 63.8,530 Q63.4875,530 63.2875,529.8625 Q63.0875,529.725 63,529.3625 Q62.9625,529.1125 62.825,528.975 Q62.575,528.7125 62.125,528.5625 Q61.675,528.4 61.225,528.4 Q60.6625,528.4 60.1875,528.625 Q59.725,528.85 59.3625,529.35 Q59,529.85 59,530.5375 L59,531.275 Q59,532.1 59.675,532.65 Q60.35,533.2 61.55,533.2 Q62.2625,533.2 62.7625,533.0375 Q63.05,532.95 63.375,532.6625 Q63.5875,532.5 63.7,532.45 Q63.8125,532.4 63.95,532.4 Q64.2125,532.4 64.4,532.6125 Q64.6,532.8125 64.6,533.1 Q64.6,533.375 64.325,533.7 Q63.925,534.175 63.2875,534.4375 Q62.45,534.8 61.425,534.8 Q60.225,534.8 59.2625,534.325 Q58.4875,533.95 57.9375,533.1375 Q57.4,532.325 57.4,531.3625 L57.4,530.4875 Q57.4,529.4875 57.875,528.6125 Q58.3625,527.7375 59.2,527.275 Q60.05,526.8 61,526.8 Q61.575,526.8 62.075,527 Q62.575,527.2 63,527.6 Z " fill="#000000"/><text fill="#000000" font-family="sans-serif" font-size="9.6" lengthAdjust="spacing" textLength="60" x="77.8" y="534.3281">PositionsBST</text><line style="stroke:#A80036;stroke-width:1.2000000000000002;" x1="6.4" x2="183.2" y1="543.2" y2="543.2"/><line style="stroke:#A80036;stroke-width:1.2000000000000002;" x1="6.4" x2="183.2" y1="549.6" y2="549.6"/><text fill="#000000" font-family="sans-serif" font-size="8.8" lengthAdjust="spacing" textLength="168.8" x="10.4" y="561.9352">+getPositinalMessages(initialDate, finalDate)</text><!--MD5=[0ac19ab3e3919ce943faa2e745f06aba]
class ShowPositionalMessagesController--><rect codeLine="36" fill="#FEFECE" filter="url(#f156tiqno3zrmr)" height="60.5375" id="ShowPositionalMessagesController" style="stroke:#A80036;stroke-width:1.2000000000000002;" width="193.6" x="138.8" y="5.6"/><ellipse cx="155.12" cy="18.4" fill="#ADD1B2" rx="8.8" ry="8.8" style="stroke:#A80036;stroke-width:0.8000000000000002;"/><path d="M156.72,15.6 Q156.8825,15.2 157.07,15 Q157.2575,14.8 157.47,14.8 Q157.845,14.8 158.0825,15.025 Q158.32,15.25 158.32,15.775 L158.32,17.025 Q158.32,17.55 158.095,17.775 Q157.87,18 157.52,18 Q157.2075,18 157.0075,17.8625 Q156.8075,17.725 156.72,17.3625 Q156.6825,17.1125 156.545,16.975 Q156.295,16.7125 155.845,16.5625 Q155.395,16.4 154.945,16.4 Q154.3825,16.4 153.9075,16.625 Q153.445,16.85 153.0825,17.35 Q152.72,17.85 152.72,18.5375 L152.72,19.275 Q152.72,20.1 153.395,20.65 Q154.07,21.2 155.27,21.2 Q155.9825,21.2 156.4825,21.0375 Q156.77,20.95 157.095,20.6625 Q157.3075,20.5 157.42,20.45 Q157.5325,20.4 157.67,20.4 Q157.9325,20.4 158.12,20.6125 Q158.32,20.8125 158.32,21.1 Q158.32,21.375 158.045,21.7 Q157.645,22.175 157.0075,22.4375 Q156.17,22.8 155.145,22.8 Q153.945,22.8 152.9825,22.325 Q152.2075,21.95 151.6575,21.1375 Q151.12,20.325 151.12,19.3625 L151.12,18.4875 Q151.12,17.4875 151.595,16.6125 Q152.0825,15.7375 152.92,15.275 Q153.77,14.8 154.72,14.8 Q155.295,14.8 155.795,15 Q156.295,15.2 156.72,15.6 Z " fill="#000000"/><text fill="#000000" font-family="sans-serif" font-size="9.6" lengthAdjust="spacing" textLength="158.4" x="167.28" y="22.3281">ShowPositionalMessagesController</text><line style="stroke:#A80036;stroke-width:1.2000000000000002;" x1="139.6" x2="331.6" y1="31.2" y2="31.2"/><line style="stroke:#A80036;stroke-width:1.2000000000000002;" x1="139.6" x2="331.6" y1="37.6" y2="37.6"/><text fill="#000000" font-family="sans-serif" font-size="8.8" lengthAdjust="spacing" textLength="92.8" x="143.6" y="49.9352">+isValidShip(mmsiCode)</text><text fill="#000000" font-family="sans-serif" font-size="8.8" lengthAdjust="spacing" textLength="184" x="143.6" y="61.0039">+showPositionalMessages(initialDate, finalDate)</text><!--MD5=[02e4b9b7573f1156f41e60aa5b4e25a4]
class Company--><rect codeLine="41" fill="#FEFECE" filter="url(#f156tiqno3zrmr)" height="60.5375" id="Company" style="stroke:#A80036;stroke-width:1.2000000000000002;" width="68" x="144" y="115.2"/><ellipse cx="156" cy="128" fill="#ADD1B2" rx="8.8" ry="8.8" style="stroke:#A80036;stroke-width:0.8000000000000002;"/><path d="M157.6,125.2 Q157.7625,124.8 157.95,124.6 Q158.1375,124.4 158.35,124.4 Q158.725,124.4 158.9625,124.625 Q159.2,124.85 159.2,125.375 L159.2,126.625 Q159.2,127.15 158.975,127.375 Q158.75,127.6 158.4,127.6 Q158.0875,127.6 157.8875,127.4625 Q157.6875,127.325 157.6,126.9625 Q157.5625,126.7125 157.425,126.575 Q157.175,126.3125 156.725,126.1625 Q156.275,126 155.825,126 Q155.2625,126 154.7875,126.225 Q154.325,126.45 153.9625,126.95 Q153.6,127.45 153.6,128.1375 L153.6,128.875 Q153.6,129.7 154.275,130.25 Q154.95,130.8 156.15,130.8 Q156.8625,130.8 157.3625,130.6375 Q157.65,130.55 157.975,130.2625 Q158.1875,130.1 158.3,130.05 Q158.4125,130 158.55,130 Q158.8125,130 159,130.2125 Q159.2,130.4125 159.2,130.7 Q159.2,130.975 158.925,131.3 Q158.525,131.775 157.8875,132.0375 Q157.05,132.4 156.025,132.4 Q154.825,132.4 153.8625,131.925 Q153.0875,131.55 152.5375,130.7375 Q152,129.925 152,128.9625 L152,128.0875 Q152,127.0875 152.475,126.2125 Q152.9625,125.3375 153.8,124.875 Q154.65,124.4 155.6,124.4 Q156.175,124.4 156.675,124.6 Q157.175,124.8 157.6,125.2 Z " fill="#000000"/><text fill="#000000" font-family="sans-serif" font-size="9.6" lengthAdjust="spacing" textLength="42.4" x="167.2" y="131.9281">Company</text><line style="stroke:#A80036;stroke-width:1.2000000000000002;" x1="144.8" x2="211.2" y1="140.8" y2="140.8"/><text fill="#000000" font-family="sans-serif" font-size="8.8" lengthAdjust="spacing" textLength="47.2" x="148.8" y="153.1352">-designation</text><line style="stroke:#A80036;stroke-width:1.2000000000000002;" x1="144.8" x2="211.2" y1="158.2688" y2="158.2688"/><text fill="#000000" font-family="sans-serif" font-size="8.8" lengthAdjust="spacing" textLength="52.8" x="148.8" y="170.6039">+getBstShip()</text><!--MD5=[b4a9ab6cffd58937cfea07eb2954e1bd]
class BST--><rect fill="#FEFECE" filter="url(#f156tiqno3zrmr)" height="38.4" id="BST" style="stroke:#A80036;stroke-width:1.2000000000000002;" width="44" x="8" y="244"/><ellipse cx="20" cy="256.8" fill="#ADD1B2" rx="8.8" ry="8.8" style="stroke:#A80036;stroke-width:0.8000000000000002;"/><path d="M21.6,254 Q21.7625,253.6 21.95,253.4 Q22.1375,253.2 22.35,253.2 Q22.725,253.2 22.9625,253.425 Q23.2,253.65 23.2,254.175 L23.2,255.425 Q23.2,255.95 22.975,256.175 Q22.75,256.4 22.4,256.4 Q22.0875,256.4 21.8875,256.2625 Q21.6875,256.125 21.6,255.7625 Q21.5625,255.5125 21.425,255.375 Q21.175,255.1125 20.725,254.9625 Q20.275,254.8 19.825,254.8 Q19.2625,254.8 18.7875,255.025 Q18.325,255.25 17.9625,255.75 Q17.6,256.25 17.6,256.9375 L17.6,257.675 Q17.6,258.5 18.275,259.05 Q18.95,259.6 20.15,259.6 Q20.8625,259.6 21.3625,259.4375 Q21.65,259.35 21.975,259.0625 Q22.1875,258.9 22.3,258.85 Q22.4125,258.8 22.55,258.8 Q22.8125,258.8 23,259.0125 Q23.2,259.2125 23.2,259.5 Q23.2,259.775 22.925,260.1 Q22.525,260.575 21.8875,260.8375 Q21.05,261.2 20.025,261.2 Q18.825,261.2 17.8625,260.725 Q17.0875,260.35 16.5375,259.5375 Q16,258.725 16,257.7625 L16,256.8875 Q16,255.8875 16.475,255.0125 Q16.9625,254.1375 17.8,253.675 Q18.65,253.2 19.6,253.2 Q20.175,253.2 20.675,253.4 Q21.175,253.6 21.6,254 Z " fill="#000000"/><text fill="#000000" font-family="sans-serif" font-size="9.6" lengthAdjust="spacing" textLength="18.4" x="31.2" y="260.7281">BST</text><line style="stroke:#A80036;stroke-width:1.2000000000000002;" x1="8.8" x2="51.2" y1="269.6" y2="269.6"/><line style="stroke:#A80036;stroke-width:1.2000000000000002;" x1="8.8" x2="51.2" y1="276" y2="276"/><!--MD5=[1b046338fb2698c0e9f102f85676b8e2]
link Company to ShipsBST--><path codeLine="49" d="M185.416,176.272 C190.184,195.472 196.296,220.096 200.768,238.096 " fill="none" id="Company-ShipsBST" style="stroke:#A80036;stroke-width:0.8000000000000002;"/><polygon fill="#000000" points="198.964,211.2227,199.502,203.6333,194.9383,204.7666,198.964,211.2227" style="stroke:#000000;stroke-width:0.8000000000000002;"/><text fill="#000000" font-family="sans-serif" font-size="10.4" lengthAdjust="spacing" textLength="22.4" x="205.2" y="211.5961">uses</text><text fill="#000000" font-family="sans-serif" font-size="10.4" lengthAdjust="spacing" textLength="5.6" x="180.5517" y="193.0198">1</text><text fill="#000000" font-family="sans-serif" font-size="10.4" lengthAdjust="spacing" textLength="5.6" x="193.3464" y="229.6369">1</text><!--MD5=[b457ea32acbd230d0e22037aaab2ac98]
link ShipsBST to Ship--><path codeLine="50" d="M206.8,288.04 C206.8,305.184 206.8,328.88 206.8,350.232 " fill="none" id="ShipsBST-Ship" style="stroke:#A80036;stroke-width:0.8000000000000002;"/><polygon fill="#000000" points="210.8,323.3406,213.1511,316.1046,208.4489,316.1046,210.8,323.3406" style="stroke:#000000;stroke-width:0.8000000000000002;"/><text fill="#000000" font-family="sans-serif" font-size="10.4" lengthAdjust="spacing" textLength="24" x="218" y="323.5961">owns</text><text fill="#000000" font-family="sans-serif" font-size="10.4" lengthAdjust="spacing" textLength="5.6" x="200.6488" y="305.0271">1</text><text fill="#000000" font-family="sans-serif" font-size="10.4" lengthAdjust="spacing" textLength="16" x="189.925" y="341.7932">1..*</text><!--MD5=[bd16fc4b2a08274ec71edc6d573c9239]
link Ship to PositionsBST--><path codeLine="51" d="M169.504,449.552 C151.048,472.288 129.536,498.8 114.344,517.512 " fill="none" id="Ship-PositionsBST" style="stroke:#A80036;stroke-width:0.8000000000000002;"/><polygon fill="#000000" points="145.8792,489.6464,152.2649,485.5097,148.6139,482.5463,145.8792,489.6464" style="stroke:#000000;stroke-width:0.8000000000000002;"/><text fill="#000000" font-family="sans-serif" font-size="10.4" lengthAdjust="spacing" textLength="22.4" x="155.6" y="490.7961">uses</text><text fill="#000000" font-family="sans-serif" font-size="10.4" lengthAdjust="spacing" textLength="5.6" x="157.5137" y="454.0006">1</text><text fill="#000000" font-family="sans-serif" font-size="10.4" lengthAdjust="spacing" textLength="5.6" x="112.1975" y="509.0975">1</text><!--MD5=[34b80baad36b2d2bd6b6893c22d217b3]
link PositionsBST to ShipPosition--><path codeLine="52" d="M94.8,567.384 C94.8,584.136 94.8,607.336 94.8,629.536 " fill="none" id="PositionsBST-ShipPosition" style="stroke:#A80036;stroke-width:0.8000000000000002;"/><polygon fill="#000000" points="98.8,602.5406,101.1511,595.3046,96.4489,595.3046,98.8,602.5406" style="stroke:#000000;stroke-width:0.8000000000000002;"/><text fill="#000000" font-family="sans-serif" font-size="10.4" lengthAdjust="spacing" textLength="16.8" x="106" y="602.7961">has</text><text fill="#000000" font-family="sans-serif" font-size="10.4" lengthAdjust="spacing" textLength="5.6" x="88.6663" y="584.202">1</text><text fill="#000000" font-family="sans-serif" font-size="10.4" lengthAdjust="spacing" textLength="16" x="78.0875" y="620.8228">1..*</text><!--MD5=[e561b603bbd8b6521a638dc78f755f9d]
link ShowPositionalMessagesController to Company--><path codeLine="54" d="M219.712,66.6 C212.28,80.528 203.408,97.168 195.76,111.504 " fill="none" id="ShowPositionalMessagesController-to-Company" style="stroke:#A80036;stroke-width:0.8000000000000002;stroke-dasharray:7.0,7.0;"/><polygon fill="#A80036" points="193.84,115.096,200.0542,110.2521,195.7241,111.5675,194.4087,107.2375,193.84,115.096" style="stroke:#A80036;stroke-width:0.8000000000000002;"/><!--MD5=[b8eba2630e1518c6d8b4949699d1900c]
link ShowPositionalMessagesController to ShipsBST--><path codeLine="55" d="M240.096,66.656 C244.448,102.472 248.552,163.976 234.8,214.4 C232.896,221.392 229.696,228.408 226.128,234.84 " fill="none" id="ShowPositionalMessagesController-to-ShipsBST" style="stroke:#A80036;stroke-width:0.8000000000000002;stroke-dasharray:7.0,7.0;"/><polygon fill="#A80036" points="224.112,238.344,230.4725,233.6938,226.1039,234.8753,224.9225,230.5067,224.112,238.344" style="stroke:#A80036;stroke-width:0.8000000000000002;"/><!--MD5=[8d5605e7226e951eefe0c75edc1e09c5]
link ShowPositionalMessagesController to Ship--><path codeLine="56" d="M252.128,66.712 C276.216,114.32 315.456,209.944 290,288 C281.272,314.752 263.632,340.448 246.832,360.648 " fill="none" id="ShowPositionalMessagesController-to-Ship" style="stroke:#A80036;stroke-width:0.8000000000000002;stroke-dasharray:7.0,7.0;"/><polygon fill="#A80036" points="244.144,363.848,251.2382,360.4198,246.7283,360.7949,246.3532,356.285,244.144,363.848" style="stroke:#A80036;stroke-width:0.8000000000000002;"/><!--MD5=[83fd222306ae45b6a45d0a4558a86fd1]
link ShowPositionalMessagesController to PositionsBST--><path codeLine="57" d="M155.128,66.416 C123.584,83.648 94.8,109.144 94.8,144.8 C94.8,144.8 94.8,144.8 94.8,403.6 C94.8,441.464 94.8,485.176 94.8,513.08 " fill="none" id="ShowPositionalMessagesController-to-PositionsBST" style="stroke:#A80036;stroke-width:0.8000000000000002;stroke-dasharray:7.0,7.0;"/><polygon fill="#A80036" points="94.8,517.416,98,510.216,94.8,513.416,91.6,510.216,94.8,517.416" style="stroke:#A80036;stroke-width:0.8000000000000002;"/><!--MD5=[4f67294047c37ade415b9b594b2af08c]
reverse link BST to PositionsBST--><path codeLine="59" d="M34.208,298.528 C40.288,343.96 53.144,425.976 74,493.6 C76.464,501.584 79.84,510.032 83.16,517.576 " fill="none" id="BST-backto-PositionsBST" style="stroke:#A80036;stroke-width:0.8000000000000002;"/><polygon fill="none" points="28.632,299.072,32.144,282.488,39.744,297.64,28.632,299.072" style="stroke:#A80036;stroke-width:0.8000000000000002;"/><!--MD5=[c0487b7918f81e122b78f0155f13124a]
reverse link BST to ShipsBST--><path codeLine="60" d="M68.408,263.2 C91.376,263.2 114.344,263.2 137.304,263.2 " fill="none" id="BST-backto-ShipsBST" style="stroke:#A80036;stroke-width:0.8000000000000002;"/><polygon fill="none" points="68.104,268.8,52.096,263.2,68.096,257.6,68.104,268.8" style="stroke:#A80036;stroke-width:0.8000000000000002;"/><!--MD5=[69998b641d8630c34836160fef6535dc]
@startuml

skinparam classAttributeIconSize 0


class Ship {
    -mmmsiCode
    -shipName
    -imoCode
    -callSignId
    -currentCapacity /'added by us'/
    -draft
}

class ShipPosition {
    -baseDateTime
    -latitude
    -longitude
    -sog
    -cog
    -heading
    -position
    -transceiver
    +getPositionsBST()
}

class ShipsBST {
    +getShipByMmsiCode(mmsiCode)
}

class PositionsBST {
    +getPositinalMessages(initialDate, finalDate)
}

/'class ShowPositionalMessagesUI {}'/

class ShowPositionalMessagesController {
    +isValidShip(mmsiCode)
    +showPositionalMessages(initialDate, finalDate)
}

class Company {
    -designation
    +getBstShip()
}

/'Ship "1" - - "1..*" ShipPosition : has >'/
/'Company "1" - - "1..*" Ship : owns >'/

Company "1" - - "1" ShipsBST : uses >
ShipsBST "1" - - "1..*" Ship : owns >
Ship "1" - - "1" PositionsBST : uses >
PositionsBST "1" - - "1..*" ShipPosition : has >
/'ShowPositionalMessagesUI ..> ShowPositionalMessagesController'/
ShowPositionalMessagesController ..> Company
ShowPositionalMessagesController ..> ShipsBST
ShowPositionalMessagesController ..> Ship
ShowPositionalMessagesController ..> PositionsBST

BST <|- PositionsBST
BST <|- ShipsBST


@enduml

@startuml

skinparam classAttributeIconSize 0


class Ship {
    -mmmsiCode
    -shipName
    -imoCode
    -callSignId
    -currentCapacity 
    -draft
}

class ShipPosition {
    -baseDateTime
    -latitude
    -longitude
    -sog
    -cog
    -heading
    -position
    -transceiver
    +getPositionsBST()
}

class ShipsBST {
    +getShipByMmsiCode(mmsiCode)
}

class PositionsBST {
    +getPositinalMessages(initialDate, finalDate)
}


class ShowPositionalMessagesController {
    +isValidShip(mmsiCode)
    +showPositionalMessages(initialDate, finalDate)
}

class Company {
    -designation
    +getBstShip()
}


Company "1" - - "1" ShipsBST : uses >
ShipsBST "1" - - "1..*" Ship : owns >
Ship "1" - - "1" PositionsBST : uses >
PositionsBST "1" - - "1..*" ShipPosition : has >
ShowPositionalMessagesController ..> Company
ShowPositionalMessagesController ..> ShipsBST
ShowPositionalMessagesController ..> Ship
ShowPositionalMessagesController ..> PositionsBST

BST <|- PositionsBST
BST <|- ShipsBST


@enduml

PlantUML version 1.2021.11(Sat Oct 02 14:26:11 BST 2021)
(GPL source distribution)
Java Runtime: OpenJDK Runtime Environment
JVM: OpenJDK 64-Bit Server VM
Default Encoding: Cp1252
Language: pt
Country: PT
--></g></svg>