<?xml version="1.0" encoding="UTF-8" standalone="no"?><svg xmlns="http://www.w3.org/2000/svg" xmlns:xlink="http://www.w3.org/1999/xlink" contentScriptType="application/ecmascript" contentStyleType="text/css" height="438px" preserveAspectRatio="none" style="width:544px;height:438px;" version="1.1" viewBox="0 0 544 438" width="544px" zoomAndPan="magnify"><defs><filter height="300%" id="fuwtdqy0cvx1w" width="300%" x="-1" y="-1"><feGaussianBlur result="blurOut" stdDeviation="2.0"/><feColorMatrix in="blurOut" result="blurOut2" type="matrix" values="0 0 0 0 0 0 0 0 0 0 0 0 0 0 0 0 0 0 .4 0"/><feOffset dx="4.0" dy="4.0" in="blurOut2" result="blurOut3"/><feBlend in="SourceGraphic" in2="blurOut3" mode="normal"/></filter></defs><g><rect fill="#FFFFFF" filter="url(#fuwtdqy0cvx1w)" height="234.8125" style="stroke:#A80036;stroke-width:1.0;" width="10" x="51" y="99.6094"/><rect fill="#FFFFFF" filter="url(#fuwtdqy0cvx1w)" height="30.3516" style="stroke:#A80036;stroke-width:1.0;" width="10" x="495" y="121.9609"/><rect fill="#FFFFFF" filter="url(#fuwtdqy0cvx1w)" height="30.3516" style="stroke:#A80036;stroke-width:1.0;" width="10" x="495" y="182.6641"/><rect fill="#FFFFFF" filter="url(#fuwtdqy0cvx1w)" height="30.3516" style="stroke:#A80036;stroke-width:1.0;" width="10" x="495" y="243.3672"/><rect fill="#FFFFFF" filter="url(#fuwtdqy0cvx1w)" height="30.3516" style="stroke:#A80036;stroke-width:1.0;" width="10" x="495" y="304.0703"/><line style="stroke:#A80036;stroke-width:1.0;stroke-dasharray:5.0,5.0;" x1="56" x2="56" y1="89.6094" y2="352.4219"/><line style="stroke:#A80036;stroke-width:1.0;stroke-dasharray:5.0,5.0;" x1="500" x2="500" y1="89.6094" y2="352.4219"/><text fill="#000000" font-family="sans-serif" font-size="14" lengthAdjust="spacing" textLength="96" x="5" y="86.5332">TrafficManager</text><ellipse cx="56" cy="15" fill="#FEFECE" filter="url(#fuwtdqy0cvx1w)" rx="8" ry="8" style="stroke:#A80036;stroke-width:2.0;"/><path d="M56,23 L56,50 M43,31 L69,31 M56,50 L43,65 M56,50 L69,65 " fill="none" filter="url(#fuwtdqy0cvx1w)" style="stroke:#A80036;stroke-width:2.0;"/><text fill="#000000" font-family="sans-serif" font-size="14" lengthAdjust="spacing" textLength="96" x="5" y="365.9551">TrafficManager</text><ellipse cx="56" cy="379.0313" fill="#FEFECE" filter="url(#fuwtdqy0cvx1w)" rx="8" ry="8" style="stroke:#A80036;stroke-width:2.0;"/><path d="M56,387.0313 L56,414.0313 M43,395.0313 L69,395.0313 M56,414.0313 L43,429.0313 M56,414.0313 L69,429.0313 " fill="none" filter="url(#fuwtdqy0cvx1w)" style="stroke:#A80036;stroke-width:2.0;"/><rect fill="#FEFECE" filter="url(#fuwtdqy0cvx1w)" height="31.6094" style="stroke:#A80036;stroke-width:1.5;" width="64" x="466" y="53"/><text fill="#000000" font-family="sans-serif" font-size="14" lengthAdjust="spacing" textLength="50" x="473" y="74.5332">:System</text><rect fill="#FEFECE" filter="url(#fuwtdqy0cvx1w)" height="31.6094" style="stroke:#A80036;stroke-width:1.5;" width="64" x="466" y="351.4219"/><text fill="#000000" font-family="sans-serif" font-size="14" lengthAdjust="spacing" textLength="50" x="473" y="372.9551">:System</text><rect fill="#FFFFFF" filter="url(#fuwtdqy0cvx1w)" height="234.8125" style="stroke:#A80036;stroke-width:1.0;" width="10" x="51" y="99.6094"/><rect fill="#FFFFFF" filter="url(#fuwtdqy0cvx1w)" height="30.3516" style="stroke:#A80036;stroke-width:1.0;" width="10" x="495" y="121.9609"/><rect fill="#FFFFFF" filter="url(#fuwtdqy0cvx1w)" height="30.3516" style="stroke:#A80036;stroke-width:1.0;" width="10" x="495" y="182.6641"/><rect fill="#FFFFFF" filter="url(#fuwtdqy0cvx1w)" height="30.3516" style="stroke:#A80036;stroke-width:1.0;" width="10" x="495" y="243.3672"/><rect fill="#FFFFFF" filter="url(#fuwtdqy0cvx1w)" height="30.3516" style="stroke:#A80036;stroke-width:1.0;" width="10" x="495" y="304.0703"/><polygon fill="#A80036" points="483,117.9609,493,121.9609,483,125.9609,487,121.9609" style="stroke:#A80036;stroke-width:1.0;"/><line style="stroke:#A80036;stroke-width:1.0;" x1="61" x2="489" y1="121.9609" y2="121.9609"/><text fill="#000000" font-family="sans-serif" font-size="13" font-weight="bold" lengthAdjust="spacing" textLength="7" x="68" y="117.1045">1</text><text fill="#000000" font-family="sans-serif" font-size="13" lengthAdjust="spacing" textLength="404" x="79" y="117.1045">asks to obtain the positional messages temporally organized of a ship</text><polygon fill="#A80036" points="72,148.3125,62,152.3125,72,156.3125,68,152.3125" style="stroke:#A80036;stroke-width:1.0;"/><line style="stroke:#A80036;stroke-width:1.0;stroke-dasharray:2.0,2.0;" x1="66" x2="499" y1="152.3125" y2="152.3125"/><text fill="#000000" font-family="sans-serif" font-size="13" font-weight="bold" lengthAdjust="spacing" textLength="7" x="78" y="147.4561">2</text><text fill="#000000" font-family="sans-serif" font-size="13" lengthAdjust="spacing" textLength="179" x="89" y="147.4561">requests the ship's MMSI code</text><polygon fill="#A80036" points="483,178.6641,493,182.6641,483,186.6641,487,182.6641" style="stroke:#A80036;stroke-width:1.0;"/><line style="stroke:#A80036;stroke-width:1.0;" x1="61" x2="489" y1="182.6641" y2="182.6641"/><text fill="#000000" font-family="sans-serif" font-size="13" font-weight="bold" lengthAdjust="spacing" textLength="7" x="68" y="177.8076">3</text><text fill="#000000" font-family="sans-serif" font-size="13" lengthAdjust="spacing" textLength="124" x="79" y="177.8076">types the MMSI code</text><polygon fill="#A80036" points="72,209.0156,62,213.0156,72,217.0156,68,213.0156" style="stroke:#A80036;stroke-width:1.0;"/><line style="stroke:#A80036;stroke-width:1.0;stroke-dasharray:2.0,2.0;" x1="66" x2="499" y1="213.0156" y2="213.0156"/><text fill="#000000" font-family="sans-serif" font-size="13" font-weight="bold" lengthAdjust="spacing" textLength="7" x="78" y="208.1592">4</text><text fill="#000000" font-family="sans-serif" font-size="13" lengthAdjust="spacing" textLength="235" x="89" y="208.1592">requests initial date of the ship's position</text><polygon fill="#A80036" points="483,239.3672,493,243.3672,483,247.3672,487,243.3672" style="stroke:#A80036;stroke-width:1.0;"/><line style="stroke:#A80036;stroke-width:1.0;" x1="61" x2="489" y1="243.3672" y2="243.3672"/><text fill="#000000" font-family="sans-serif" font-size="13" font-weight="bold" lengthAdjust="spacing" textLength="7" x="68" y="238.5107">5</text><text fill="#000000" font-family="sans-serif" font-size="13" lengthAdjust="spacing" textLength="95" x="79" y="238.5107">types initial date</text><polygon fill="#A80036" points="72,269.7188,62,273.7188,72,277.7188,68,273.7188" style="stroke:#A80036;stroke-width:1.0;"/><line style="stroke:#A80036;stroke-width:1.0;stroke-dasharray:2.0,2.0;" x1="66" x2="499" y1="273.7188" y2="273.7188"/><text fill="#000000" font-family="sans-serif" font-size="13" font-weight="bold" lengthAdjust="spacing" textLength="7" x="78" y="268.8623">6</text><text fill="#000000" font-family="sans-serif" font-size="13" lengthAdjust="spacing" textLength="228" x="89" y="268.8623">requests final date of the ship's position</text><polygon fill="#A80036" points="483,300.0703,493,304.0703,483,308.0703,487,304.0703" style="stroke:#A80036;stroke-width:1.0;"/><line style="stroke:#A80036;stroke-width:1.0;" x1="61" x2="489" y1="304.0703" y2="304.0703"/><text fill="#000000" font-family="sans-serif" font-size="13" font-weight="bold" lengthAdjust="spacing" textLength="7" x="68" y="299.2139">7</text><text fill="#000000" font-family="sans-serif" font-size="13" lengthAdjust="spacing" textLength="110" x="79" y="299.2139">types the final date</text><polygon fill="#A80036" points="67,330.4219,57,334.4219,67,338.4219,63,334.4219" style="stroke:#A80036;stroke-width:1.0;"/><line style="stroke:#A80036;stroke-width:1.0;stroke-dasharray:2.0,2.0;" x1="61" x2="499" y1="334.4219" y2="334.4219"/><text fill="#000000" font-family="sans-serif" font-size="13" font-weight="bold" lengthAdjust="spacing" textLength="7" x="73" y="329.5654">8</text><text fill="#000000" font-family="sans-serif" font-size="13" lengthAdjust="spacing" textLength="195" x="84" y="329.5654">sends ship's positional messages</text><!--MD5=[6139839aa420216394890f0e80ef317f]
@startuml
autonumber
actor TrafficManager as TM

activate TM
TM -> ":System" : asks to obtain the positional messages temporally organized of a ship
activate ":System"
":System" - -> TM : requests the ship's MMSI code
deactivate ":System"
TM -> ":System" : types the MMSI code
activate ":System"
":System" - -> TM : requests initial date of the ship's position
deactivate ":System"
TM -> ":System" : types initial date
activate ":System"
":System" - -> TM : requests final date of the ship's position
deactivate ":System"
TM -> ":System" : types the final date
activate ":System"
":System" - -> TM : sends ship's positional messages
deactivate ":System"

deactivate TM

@enduml

PlantUML version 1.2021.4(Sun Apr 04 09:49:39 BST 2021)
(GPL source distribution)
Java Runtime: OpenJDK Runtime Environment
JVM: OpenJDK 64-Bit Server VM
Default Encoding: Cp1252
Language: pt
Country: PT
--></g></svg>