<?xml version="1.0" encoding="UTF-8" standalone="no"?><svg xmlns="http://www.w3.org/2000/svg" xmlns:xlink="http://www.w3.org/1999/xlink" contentScriptType="application/ecmascript" contentStyleType="text/css" height="1082px" preserveAspectRatio="none" style="width:505px;height:1082px;background:#FFFFFF;" version="1.1" viewBox="0 0 505 1082" width="505px" zoomAndPan="magnify"><defs><filter height="300%" id="f85lyc4o1tbti" width="300%" x="-1" y="-1"><feGaussianBlur result="blurOut" stdDeviation="2.0"/><feColorMatrix in="blurOut" result="blurOut2" type="matrix" values="0 0 0 0 0 0 0 0 0 0 0 0 0 0 0 0 0 0 .4 0"/><feOffset dx="4.0" dy="4.0" in="blurOut2" result="blurOut3"/><feBlend in="SourceGraphic" in2="blurOut3" mode="normal"/></filter></defs><g><!--MD5=[0dc7f2ddb409b58bcf52b12238c25399]
class Ship--><rect codeLine="5" fill="#FEFECE" filter="url(#f85lyc4o1tbti)" height="131.0156" id="Ship" style="stroke:#A80036;stroke-width:1.5;" width="93" x="222" y="547"/><ellipse cx="253.2" cy="563" fill="#ADD1B2" rx="11" ry="11" style="stroke:#A80036;stroke-width:1.0;"/><path d="M255.2,559.5 Q255.4031,559 255.6375,558.75 Q255.8719,558.5 256.1375,558.5 Q256.6063,558.5 256.9031,558.7813 Q257.2,559.0625 257.2,559.7188 L257.2,561.2813 Q257.2,561.9375 256.9188,562.2188 Q256.6375,562.5 256.2,562.5 Q255.8094,562.5 255.5594,562.3281 Q255.3094,562.1563 255.2,561.7031 Q255.1531,561.3906 254.9813,561.2188 Q254.6688,560.8906 254.1063,560.7031 Q253.5438,560.5 252.9813,560.5 Q252.2781,560.5 251.6844,560.7813 Q251.1063,561.0625 250.6531,561.6875 Q250.2,562.3125 250.2,563.1719 L250.2,564.0938 Q250.2,565.125 251.0438,565.8125 Q251.8875,566.5 253.3875,566.5 Q254.2781,566.5 254.9031,566.2969 Q255.2625,566.1875 255.6688,565.8281 Q255.9344,565.625 256.075,565.5625 Q256.2156,565.5 256.3875,565.5 Q256.7156,565.5 256.95,565.7656 Q257.2,566.0156 257.2,566.375 Q257.2,566.7188 256.8563,567.125 Q256.3563,567.7188 255.5594,568.0469 Q254.5125,568.5 253.2313,568.5 Q251.7313,568.5 250.5281,567.9063 Q249.5594,567.4375 248.8719,566.4219 Q248.2,565.4063 248.2,564.2031 L248.2,563.1094 Q248.2,561.8594 248.7938,560.7656 Q249.4031,559.6719 250.45,559.0938 Q251.5125,558.5 252.7,558.5 Q253.4188,558.5 254.0438,558.75 Q254.6688,559 255.2,559.5 Z " fill="#000000"/><text fill="#000000" font-family="sans-serif" font-size="12" lengthAdjust="spacing" textLength="25" x="270.8" y="567.9102">Ship</text><line style="stroke:#A80036;stroke-width:1.5;" x1="223" x2="314" y1="579" y2="579"/><text fill="#000000" font-family="sans-serif" font-size="11" lengthAdjust="spacing" textLength="61" x="228" y="594.4189">-mmmsiCode</text><text fill="#000000" font-family="sans-serif" font-size="11" lengthAdjust="spacing" textLength="51" x="228" y="608.2549">-shipName</text><text fill="#000000" font-family="sans-serif" font-size="11" lengthAdjust="spacing" textLength="45" x="228" y="622.0908">-imoCode</text><text fill="#000000" font-family="sans-serif" font-size="11" lengthAdjust="spacing" textLength="49" x="228" y="635.9268">-callSignId</text><text fill="#000000" font-family="sans-serif" font-size="11" lengthAdjust="spacing" textLength="81" x="228" y="649.7627">-currentCapacity</text><text fill="#000000" font-family="sans-serif" font-size="11" lengthAdjust="spacing" textLength="27" x="228" y="663.5986">-draft</text><line style="stroke:#A80036;stroke-width:1.5;" x1="223" x2="314" y1="670.0156" y2="670.0156"/><!--MD5=[1c0c3765e68dc4575d559b566278b914]
class ShipPosition--><rect codeLine="14" fill="#FEFECE" filter="url(#f85lyc4o1tbti)" height="172.5234" id="ShipPosition" style="stroke:#A80036;stroke-width:1.5;" width="104" x="156.5" y="896"/><ellipse cx="172.4" cy="912" fill="#ADD1B2" rx="11" ry="11" style="stroke:#A80036;stroke-width:1.0;"/><path d="M174.4,908.5 Q174.6031,908 174.8375,907.75 Q175.0719,907.5 175.3375,907.5 Q175.8063,907.5 176.1031,907.7813 Q176.4,908.0625 176.4,908.7188 L176.4,910.2813 Q176.4,910.9375 176.1188,911.2188 Q175.8375,911.5 175.4,911.5 Q175.0094,911.5 174.7594,911.3281 Q174.5094,911.1563 174.4,910.7031 Q174.3531,910.3906 174.1813,910.2188 Q173.8688,909.8906 173.3063,909.7031 Q172.7438,909.5 172.1813,909.5 Q171.4781,909.5 170.8844,909.7813 Q170.3063,910.0625 169.8531,910.6875 Q169.4,911.3125 169.4,912.1719 L169.4,913.0938 Q169.4,914.125 170.2438,914.8125 Q171.0875,915.5 172.5875,915.5 Q173.4781,915.5 174.1031,915.2969 Q174.4625,915.1875 174.8688,914.8281 Q175.1344,914.625 175.275,914.5625 Q175.4156,914.5 175.5875,914.5 Q175.9156,914.5 176.15,914.7656 Q176.4,915.0156 176.4,915.375 Q176.4,915.7188 176.0563,916.125 Q175.5563,916.7188 174.7594,917.0469 Q173.7125,917.5 172.4313,917.5 Q170.9313,917.5 169.7281,916.9063 Q168.7594,916.4375 168.0719,915.4219 Q167.4,914.4063 167.4,913.2031 L167.4,912.1094 Q167.4,910.8594 167.9938,909.7656 Q168.6031,908.6719 169.65,908.0938 Q170.7125,907.5 171.9,907.5 Q172.6188,907.5 173.2438,907.75 Q173.8688,908 174.4,908.5 Z " fill="#000000"/><text fill="#000000" font-family="sans-serif" font-size="12" lengthAdjust="spacing" textLength="70" x="186.6" y="916.9102">ShipPosition</text><line style="stroke:#A80036;stroke-width:1.5;" x1="157.5" x2="259.5" y1="928" y2="928"/><text fill="#000000" font-family="sans-serif" font-size="11" lengthAdjust="spacing" textLength="72" x="162.5" y="943.4189">-baseDateTime</text><text fill="#000000" font-family="sans-serif" font-size="11" lengthAdjust="spacing" textLength="38" x="162.5" y="957.2549">-latitude</text><text fill="#000000" font-family="sans-serif" font-size="11" lengthAdjust="spacing" textLength="47" x="162.5" y="971.0908">-longitude</text><text fill="#000000" font-family="sans-serif" font-size="11" lengthAdjust="spacing" textLength="22" x="162.5" y="984.9268">-sog</text><text fill="#000000" font-family="sans-serif" font-size="11" lengthAdjust="spacing" textLength="22" x="162.5" y="998.7627">-cog</text><text fill="#000000" font-family="sans-serif" font-size="11" lengthAdjust="spacing" textLength="42" x="162.5" y="1012.5986">-heading</text><text fill="#000000" font-family="sans-serif" font-size="11" lengthAdjust="spacing" textLength="41" x="162.5" y="1026.4346">-position</text><text fill="#000000" font-family="sans-serif" font-size="11" lengthAdjust="spacing" textLength="59" x="162.5" y="1040.2705">-transceiver</text><line style="stroke:#A80036;stroke-width:1.5;" x1="157.5" x2="259.5" y1="1046.6875" y2="1046.6875"/><text fill="#000000" font-family="sans-serif" font-size="11" lengthAdjust="spacing" textLength="92" x="162.5" y="1062.1064">+getPositionsBST()</text><!--MD5=[43adf079e4aaffd3a283c2c0454b404c]
class ShipsBST--><rect codeLine="26" fill="#FEFECE" filter="url(#f85lyc4o1tbti)" height="61.8359" id="ShipsBST" style="stroke:#A80036;stroke-width:1.5;" width="173" x="293" y="407"/><ellipse cx="347.75" cy="423" fill="#ADD1B2" rx="11" ry="11" style="stroke:#A80036;stroke-width:1.0;"/><path d="M349.75,419.5 Q349.9531,419 350.1875,418.75 Q350.4219,418.5 350.6875,418.5 Q351.1563,418.5 351.4531,418.7813 Q351.75,419.0625 351.75,419.7188 L351.75,421.2813 Q351.75,421.9375 351.4688,422.2188 Q351.1875,422.5 350.75,422.5 Q350.3594,422.5 350.1094,422.3281 Q349.8594,422.1563 349.75,421.7031 Q349.7031,421.3906 349.5313,421.2188 Q349.2188,420.8906 348.6563,420.7031 Q348.0938,420.5 347.5313,420.5 Q346.8281,420.5 346.2344,420.7813 Q345.6563,421.0625 345.2031,421.6875 Q344.75,422.3125 344.75,423.1719 L344.75,424.0938 Q344.75,425.125 345.5938,425.8125 Q346.4375,426.5 347.9375,426.5 Q348.8281,426.5 349.4531,426.2969 Q349.8125,426.1875 350.2188,425.8281 Q350.4844,425.625 350.625,425.5625 Q350.7656,425.5 350.9375,425.5 Q351.2656,425.5 351.5,425.7656 Q351.75,426.0156 351.75,426.375 Q351.75,426.7188 351.4063,427.125 Q350.9063,427.7188 350.1094,428.0469 Q349.0625,428.5 347.7813,428.5 Q346.2813,428.5 345.0781,427.9063 Q344.1094,427.4375 343.4219,426.4219 Q342.75,425.4063 342.75,424.2031 L342.75,423.1094 Q342.75,421.8594 343.3438,420.7656 Q343.9531,419.6719 345,419.0938 Q346.0625,418.5 347.25,418.5 Q347.9688,418.5 348.5938,418.75 Q349.2188,419 349.75,419.5 Z " fill="#000000"/><text fill="#000000" font-family="sans-serif" font-size="12" lengthAdjust="spacing" textLength="55" x="368.25" y="427.9102">ShipsBST</text><line style="stroke:#A80036;stroke-width:1.5;" x1="294" x2="465" y1="439" y2="439"/><line style="stroke:#A80036;stroke-width:1.5;" x1="294" x2="465" y1="447" y2="447"/><text fill="#000000" font-family="sans-serif" font-size="11" lengthAdjust="spacing" textLength="161" x="299" y="462.4189">+getShipByMmsiCode(mmsiCode)</text><!--MD5=[004e005a2edf96352d0772cab412880f]
class PositionsBST--><rect codeLine="30" fill="#FEFECE" filter="url(#f85lyc4o1tbti)" height="61.8359" id="PositionsBST" style="stroke:#A80036;stroke-width:1.5;" width="223" x="97" y="756"/><ellipse cx="166.75" cy="772" fill="#ADD1B2" rx="11" ry="11" style="stroke:#A80036;stroke-width:1.0;"/><path d="M168.75,768.5 Q168.9531,768 169.1875,767.75 Q169.4219,767.5 169.6875,767.5 Q170.1563,767.5 170.4531,767.7813 Q170.75,768.0625 170.75,768.7188 L170.75,770.2813 Q170.75,770.9375 170.4688,771.2188 Q170.1875,771.5 169.75,771.5 Q169.3594,771.5 169.1094,771.3281 Q168.8594,771.1563 168.75,770.7031 Q168.7031,770.3906 168.5313,770.2188 Q168.2188,769.8906 167.6563,769.7031 Q167.0938,769.5 166.5313,769.5 Q165.8281,769.5 165.2344,769.7813 Q164.6563,770.0625 164.2031,770.6875 Q163.75,771.3125 163.75,772.1719 L163.75,773.0938 Q163.75,774.125 164.5938,774.8125 Q165.4375,775.5 166.9375,775.5 Q167.8281,775.5 168.4531,775.2969 Q168.8125,775.1875 169.2188,774.8281 Q169.4844,774.625 169.625,774.5625 Q169.7656,774.5 169.9375,774.5 Q170.2656,774.5 170.5,774.7656 Q170.75,775.0156 170.75,775.375 Q170.75,775.7188 170.4063,776.125 Q169.9063,776.7188 169.1094,777.0469 Q168.0625,777.5 166.7813,777.5 Q165.2813,777.5 164.0781,776.9063 Q163.1094,776.4375 162.4219,775.4219 Q161.75,774.4063 161.75,773.2031 L161.75,772.1094 Q161.75,770.8594 162.3438,769.7656 Q162.9531,768.6719 164,768.0938 Q165.0625,767.5 166.25,767.5 Q166.9688,767.5 167.5938,767.75 Q168.2188,768 168.75,768.5 Z " fill="#000000"/><text fill="#000000" font-family="sans-serif" font-size="12" lengthAdjust="spacing" textLength="75" x="187.25" y="776.9102">PositionsBST</text><line style="stroke:#A80036;stroke-width:1.5;" x1="98" x2="319" y1="788" y2="788"/><line style="stroke:#A80036;stroke-width:1.5;" x1="98" x2="319" y1="796" y2="796"/><text fill="#000000" font-family="sans-serif" font-size="11" lengthAdjust="spacing" textLength="211" x="103" y="811.4189">+getPositinalMessages(initialDate, finalDate)</text><!--MD5=[7b354142ed57bf82880e26038debff4b]
class ShowPositionalMessagesUI--><rect codeLine="34" fill="#FEFECE" filter="url(#f85lyc4o1tbti)" height="48" id="ShowPositionalMessagesUI" style="stroke:#A80036;stroke-width:1.5;" width="188" x="180.5" y="7"/><ellipse cx="195.5" cy="23" fill="#ADD1B2" rx="11" ry="11" style="stroke:#A80036;stroke-width:1.0;"/><path d="M197.5,19.5 Q197.7031,19 197.9375,18.75 Q198.1719,18.5 198.4375,18.5 Q198.9063,18.5 199.2031,18.7813 Q199.5,19.0625 199.5,19.7188 L199.5,21.2813 Q199.5,21.9375 199.2188,22.2188 Q198.9375,22.5 198.5,22.5 Q198.1094,22.5 197.8594,22.3281 Q197.6094,22.1563 197.5,21.7031 Q197.4531,21.3906 197.2813,21.2188 Q196.9688,20.8906 196.4063,20.7031 Q195.8438,20.5 195.2813,20.5 Q194.5781,20.5 193.9844,20.7813 Q193.4063,21.0625 192.9531,21.6875 Q192.5,22.3125 192.5,23.1719 L192.5,24.0938 Q192.5,25.125 193.3438,25.8125 Q194.1875,26.5 195.6875,26.5 Q196.5781,26.5 197.2031,26.2969 Q197.5625,26.1875 197.9688,25.8281 Q198.2344,25.625 198.375,25.5625 Q198.5156,25.5 198.6875,25.5 Q199.0156,25.5 199.25,25.7656 Q199.5,26.0156 199.5,26.375 Q199.5,26.7188 199.1563,27.125 Q198.6563,27.7188 197.8594,28.0469 Q196.8125,28.5 195.5313,28.5 Q194.0313,28.5 192.8281,27.9063 Q191.8594,27.4375 191.1719,26.4219 Q190.5,25.4063 190.5,24.2031 L190.5,23.1094 Q190.5,21.8594 191.0938,20.7656 Q191.7031,19.6719 192.75,19.0938 Q193.8125,18.5 195,18.5 Q195.7188,18.5 196.3438,18.75 Q196.9688,19 197.5,19.5 Z " fill="#000000"/><text fill="#000000" font-family="sans-serif" font-size="12" lengthAdjust="spacing" textLength="156" x="209.5" y="27.9102">ShowPositionalMessagesUI</text><line style="stroke:#A80036;stroke-width:1.5;" x1="181.5" x2="367.5" y1="39" y2="39"/><line style="stroke:#A80036;stroke-width:1.5;" x1="181.5" x2="367.5" y1="47" y2="47"/><!--MD5=[0ac19ab3e3919ce943faa2e745f06aba]
class ShowPositionalMessagesController--><rect codeLine="36" fill="#FEFECE" filter="url(#f85lyc4o1tbti)" height="75.6719" id="ShowPositionalMessagesController" style="stroke:#A80036;stroke-width:1.5;" width="242" x="153.5" y="116"/><ellipse cx="173.9" cy="132" fill="#ADD1B2" rx="11" ry="11" style="stroke:#A80036;stroke-width:1.0;"/><path d="M175.9,128.5 Q176.1031,128 176.3375,127.75 Q176.5719,127.5 176.8375,127.5 Q177.3063,127.5 177.6031,127.7813 Q177.9,128.0625 177.9,128.7188 L177.9,130.2813 Q177.9,130.9375 177.6188,131.2188 Q177.3375,131.5 176.9,131.5 Q176.5094,131.5 176.2594,131.3281 Q176.0094,131.1563 175.9,130.7031 Q175.8531,130.3906 175.6813,130.2188 Q175.3688,129.8906 174.8063,129.7031 Q174.2438,129.5 173.6813,129.5 Q172.9781,129.5 172.3844,129.7813 Q171.8063,130.0625 171.3531,130.6875 Q170.9,131.3125 170.9,132.1719 L170.9,133.0938 Q170.9,134.125 171.7438,134.8125 Q172.5875,135.5 174.0875,135.5 Q174.9781,135.5 175.6031,135.2969 Q175.9625,135.1875 176.3688,134.8281 Q176.6344,134.625 176.775,134.5625 Q176.9156,134.5 177.0875,134.5 Q177.4156,134.5 177.65,134.7656 Q177.9,135.0156 177.9,135.375 Q177.9,135.7188 177.5563,136.125 Q177.0563,136.7188 176.2594,137.0469 Q175.2125,137.5 173.9313,137.5 Q172.4313,137.5 171.2281,136.9063 Q170.2594,136.4375 169.5719,135.4219 Q168.9,134.4063 168.9,133.2031 L168.9,132.1094 Q168.9,130.8594 169.4938,129.7656 Q170.1031,128.6719 171.15,128.0938 Q172.2125,127.5 173.4,127.5 Q174.1188,127.5 174.7438,127.75 Q175.3688,128 175.9,128.5 Z " fill="#000000"/><text fill="#000000" font-family="sans-serif" font-size="12" lengthAdjust="spacing" textLength="198" x="189.1" y="136.9102">ShowPositionalMessagesController</text><line style="stroke:#A80036;stroke-width:1.5;" x1="154.5" x2="394.5" y1="148" y2="148"/><line style="stroke:#A80036;stroke-width:1.5;" x1="154.5" x2="394.5" y1="156" y2="156"/><text fill="#000000" font-family="sans-serif" font-size="11" lengthAdjust="spacing" textLength="116" x="159.5" y="171.4189">+isValidShip(mmsiCode)</text><text fill="#000000" font-family="sans-serif" font-size="11" lengthAdjust="spacing" textLength="230" x="159.5" y="185.2549">+showPositionalMessages(initialDate, finalDate)</text><!--MD5=[02e4b9b7573f1156f41e60aa5b4e25a4]
class Company--><rect codeLine="41" fill="#FEFECE" filter="url(#f85lyc4o1tbti)" height="75.6719" id="Company" style="stroke:#A80036;stroke-width:1.5;" width="127" x="364" y="253"/><ellipse cx="397.9" cy="269" fill="#ADD1B2" rx="11" ry="11" style="stroke:#A80036;stroke-width:1.0;"/><path d="M399.9,265.5 Q400.1031,265 400.3375,264.75 Q400.5719,264.5 400.8375,264.5 Q401.3063,264.5 401.6031,264.7813 Q401.9,265.0625 401.9,265.7188 L401.9,267.2813 Q401.9,267.9375 401.6188,268.2188 Q401.3375,268.5 400.9,268.5 Q400.5094,268.5 400.2594,268.3281 Q400.0094,268.1563 399.9,267.7031 Q399.8531,267.3906 399.6813,267.2188 Q399.3688,266.8906 398.8063,266.7031 Q398.2438,266.5 397.6813,266.5 Q396.9781,266.5 396.3844,266.7813 Q395.8063,267.0625 395.3531,267.6875 Q394.9,268.3125 394.9,269.1719 L394.9,270.0938 Q394.9,271.125 395.7438,271.8125 Q396.5875,272.5 398.0875,272.5 Q398.9781,272.5 399.6031,272.2969 Q399.9625,272.1875 400.3688,271.8281 Q400.6344,271.625 400.775,271.5625 Q400.9156,271.5 401.0875,271.5 Q401.4156,271.5 401.65,271.7656 Q401.9,272.0156 401.9,272.375 Q401.9,272.7188 401.5563,273.125 Q401.0563,273.7188 400.2594,274.0469 Q399.2125,274.5 397.9313,274.5 Q396.4313,274.5 395.2281,273.9063 Q394.2594,273.4375 393.5719,272.4219 Q392.9,271.4063 392.9,270.2031 L392.9,269.1094 Q392.9,267.8594 393.4938,266.7656 Q394.1031,265.6719 395.15,265.0938 Q396.2125,264.5 397.4,264.5 Q398.1188,264.5 398.7438,264.75 Q399.3688,265 399.9,265.5 Z " fill="#000000"/><text fill="#000000" font-family="sans-serif" font-size="12" lengthAdjust="spacing" textLength="53" x="416.1" y="273.9102">Company</text><line style="stroke:#A80036;stroke-width:1.5;" x1="365" x2="490" y1="285" y2="285"/><text fill="#000000" font-family="sans-serif" font-size="11" lengthAdjust="spacing" textLength="59" x="370" y="300.4189">-designation</text><line style="stroke:#A80036;stroke-width:1.5;" x1="365" x2="490" y1="306.8359" y2="306.8359"/><text fill="#000000" font-family="sans-serif" font-size="11" lengthAdjust="spacing" textLength="115" x="370" y="322.2549">+getBstShip(mmsiCode)</text><!--MD5=[b4a9ab6cffd58937cfea07eb2954e1bd]
class BST--><rect fill="#FEFECE" filter="url(#f85lyc4o1tbti)" height="48" id="BST" style="stroke:#A80036;stroke-width:1.5;" width="55" x="7" y="763"/><ellipse cx="22" cy="779" fill="#ADD1B2" rx="11" ry="11" style="stroke:#A80036;stroke-width:1.0;"/><path d="M24,775.5 Q24.2031,775 24.4375,774.75 Q24.6719,774.5 24.9375,774.5 Q25.4063,774.5 25.7031,774.7813 Q26,775.0625 26,775.7188 L26,777.2813 Q26,777.9375 25.7188,778.2188 Q25.4375,778.5 25,778.5 Q24.6094,778.5 24.3594,778.3281 Q24.1094,778.1563 24,777.7031 Q23.9531,777.3906 23.7813,777.2188 Q23.4688,776.8906 22.9063,776.7031 Q22.3438,776.5 21.7813,776.5 Q21.0781,776.5 20.4844,776.7813 Q19.9063,777.0625 19.4531,777.6875 Q19,778.3125 19,779.1719 L19,780.0938 Q19,781.125 19.8438,781.8125 Q20.6875,782.5 22.1875,782.5 Q23.0781,782.5 23.7031,782.2969 Q24.0625,782.1875 24.4688,781.8281 Q24.7344,781.625 24.875,781.5625 Q25.0156,781.5 25.1875,781.5 Q25.5156,781.5 25.75,781.7656 Q26,782.0156 26,782.375 Q26,782.7188 25.6563,783.125 Q25.1563,783.7188 24.3594,784.0469 Q23.3125,784.5 22.0313,784.5 Q20.5313,784.5 19.3281,783.9063 Q18.3594,783.4375 17.6719,782.4219 Q17,781.4063 17,780.2031 L17,779.1094 Q17,777.8594 17.5938,776.7656 Q18.2031,775.6719 19.25,775.0938 Q20.3125,774.5 21.5,774.5 Q22.2188,774.5 22.8438,774.75 Q23.4688,775 24,775.5 Z " fill="#000000"/><text fill="#000000" font-family="sans-serif" font-size="12" lengthAdjust="spacing" textLength="23" x="36" y="783.9102">BST</text><line style="stroke:#A80036;stroke-width:1.5;" x1="8" x2="61" y1="795" y2="795"/><line style="stroke:#A80036;stroke-width:1.5;" x1="8" x2="61" y1="803" y2="803"/><!--MD5=[1b046338fb2698c0e9f102f85676b8e2]
link Company to ShipsBST--><path codeLine="49" d="M415.14,329.34 C407.19,353.34 397.01,384.12 389.56,406.62 " fill="none" id="Company-ShipsBST" style="stroke:#A80036;stroke-width:1.0;"/><polygon fill="#000000" points="408.9288,372.9225,414.5612,365.2591,408.9811,363.4121,408.9288,372.9225" style="stroke:#000000;stroke-width:1.0;"/><text fill="#000000" font-family="sans-serif" font-size="13" lengthAdjust="spacing" textLength="28" x="419.5" y="373.4951">uses</text><text fill="#000000" font-family="sans-serif" font-size="13" lengthAdjust="spacing" textLength="7" x="405.6123" y="350.2747">1</text><text fill="#000000" font-family="sans-serif" font-size="13" lengthAdjust="spacing" textLength="7" x="383.913" y="396.0462">1</text><!--MD5=[b457ea32acbd230d0e22037aaab2ac98]
link ShipsBST to Ship--><path codeLine="50" d="M360.17,469.05 C346.38,490.48 327.31,520.1 310.14,546.79 " fill="none" id="ShipsBST-Ship" style="stroke:#A80036;stroke-width:1.0;"/><polygon fill="#000000" points="342.7941,512.3803,350.1605,506.3647,345.2177,503.1838,342.7941,512.3803" style="stroke:#000000;stroke-width:1.0;"/><text fill="#000000" font-family="sans-serif" font-size="13" lengthAdjust="spacing" textLength="30" x="354.5" y="513.4951">owns</text><text fill="#000000" font-family="sans-serif" font-size="13" lengthAdjust="spacing" textLength="7" x="348.6753" y="490.2838">1</text><text fill="#000000" font-family="sans-serif" font-size="13" lengthAdjust="spacing" textLength="20" x="293.6006" y="536.2415">1..*</text><!--MD5=[bd16fc4b2a08274ec71edc6d573c9239]
link Ship to PositionsBST--><path codeLine="51" d="M245.99,678.22 C236.74,704.8 226.49,734.29 219.04,755.7 " fill="none" id="Ship-PositionsBST" style="stroke:#A80036;stroke-width:1.0;"/><polygon fill="#000000" points="238.8574,721.8983,244.6047,714.3207,239.0531,712.3897,238.8574,721.8983" style="stroke:#000000;stroke-width:1.0;"/><text fill="#000000" font-family="sans-serif" font-size="13" lengthAdjust="spacing" textLength="28" x="249.5" y="722.4951">uses</text><text fill="#000000" font-family="sans-serif" font-size="13" lengthAdjust="spacing" textLength="7" x="236.3077" y="699.3348">1</text><text fill="#000000" font-family="sans-serif" font-size="13" lengthAdjust="spacing" textLength="7" x="213.492" y="745.1427">1</text><!--MD5=[34b80baad36b2d2bd6b6893c22d217b3]
link PositionsBST to ShipPosition--><path codeLine="52" d="M208.5,818.23 C208.5,839.17 208.5,868.17 208.5,895.92 " fill="none" id="PositionsBST-ShipPosition" style="stroke:#A80036;stroke-width:1.0;"/><polygon fill="#000000" points="213.5,862.1758,216.4389,853.1307,210.5611,853.1307,213.5,862.1758" style="stroke:#000000;stroke-width:1.0;"/><text fill="#000000" font-family="sans-serif" font-size="13" lengthAdjust="spacing" textLength="21" x="222.5" y="862.4951">has</text><text fill="#000000" font-family="sans-serif" font-size="13" lengthAdjust="spacing" textLength="7" x="200.8328" y="839.2525">1</text><text fill="#000000" font-family="sans-serif" font-size="13" lengthAdjust="spacing" textLength="20" x="187.6094" y="885.0285">1..*</text><!--MD5=[53dfa0943cd28e51f39eb655119d414f]
link ShowPositionalMessagesUI to ShowPositionalMessagesController--><path codeLine="53" d="M274.5,55.04 C274.5,70.71 274.5,91.91 274.5,110.58 " fill="none" id="ShowPositionalMessagesUI-to-ShowPositionalMessagesController" style="stroke:#A80036;stroke-width:1.0;stroke-dasharray:7.0,7.0;"/><polygon fill="#A80036" points="274.5,115.77,278.5,106.77,274.5,110.77,270.5,106.77,274.5,115.77" style="stroke:#A80036;stroke-width:1.0;"/><!--MD5=[e561b603bbd8b6521a638dc78f755f9d]
link ShowPositionalMessagesController to Company--><path codeLine="54" d="M316.71,192.25 C336.86,210.03 361.02,231.34 381.62,249.52 " fill="none" id="ShowPositionalMessagesController-to-Company" style="stroke:#A80036;stroke-width:1.0;stroke-dasharray:7.0,7.0;"/><polygon fill="#A80036" points="385.42,252.87,381.2976,243.9254,381.6633,249.5704,376.0183,249.9361,385.42,252.87" style="stroke:#A80036;stroke-width:1.0;"/><!--MD5=[b8eba2630e1518c6d8b4949699d1900c]
link ShowPositionalMessagesController to ShipsBST--><path codeLine="55" d="M288.33,192.16 C308.71,246.89 346.54,348.47 366.45,401.96 " fill="none" id="ShowPositionalMessagesController-to-ShipsBST" style="stroke:#A80036;stroke-width:1.0;stroke-dasharray:7.0,7.0;"/><polygon fill="#A80036" points="368.21,406.67,368.8215,396.8401,366.4669,401.9837,361.3234,399.6291,368.21,406.67" style="stroke:#A80036;stroke-width:1.0;"/><!--MD5=[8d5605e7226e951eefe0c75edc1e09c5]
link ShowPositionalMessagesController to Ship--><path codeLine="56" d="M274.01,192.36 C273.01,268.71 270.71,443.71 269.42,541.72 " fill="none" id="ShowPositionalMessagesController-to-Ship" style="stroke:#A80036;stroke-width:1.0;stroke-dasharray:7.0,7.0;"/><polygon fill="#A80036" points="269.35,546.91,273.4526,537.9563,269.4071,541.9103,265.4531,537.8649,269.35,546.91" style="stroke:#A80036;stroke-width:1.0;"/><!--MD5=[83fd222306ae45b6a45d0a4558a86fd1]
link ShowPositionalMessagesController to PositionsBST--><path codeLine="57" d="M223.36,192.21 C196.26,216.53 168.5,250.96 168.5,290 C168.5,290 168.5,290 168.5,613.5 C168.5,662.14 183.78,716.55 195.45,751.01 " fill="none" id="ShowPositionalMessagesController-to-PositionsBST" style="stroke:#A80036;stroke-width:1.0;stroke-dasharray:7.0,7.0;"/><polygon fill="#A80036" points="197.14,755.95,197.9912,746.138,195.5118,751.2225,190.4273,748.7431,197.14,755.95" style="stroke:#A80036;stroke-width:1.0;"/><!--MD5=[4f67294047c37ade415b9b594b2af08c]
reverse link BST to PositionsBST--><path codeLine="59" d="M82.2,787 C87.11,787 92.02,787 96.93,787 " fill="none" id="BST-backto-PositionsBST" style="stroke:#A80036;stroke-width:1.0;"/><polygon fill="none" points="82.03,794,62.03,787,82.03,780,82.03,794" style="stroke:#A80036;stroke-width:1.0;"/><!--MD5=[9eecbab51d2c9b30a6f32c2f443ec261]
@startuml

skinparam classAttributeIconSize 0


class Ship {
    -mmmsiCode
    -shipName
    -imoCode
    -callSignId
    -currentCapacity /'added by us'/
    -draft
}

class ShipPosition {
    -baseDateTime
    -latitude
    -longitude
    -sog
    -cog
    -heading
    -position
    -transceiver
    +getPositionsBST()
}

class ShipsBST {
    +getShipByMmsiCode(mmsiCode)
}

class PositionsBST {
    +getPositinalMessages(initialDate, finalDate)
}

class ShowPositionalMessagesUI {}

class ShowPositionalMessagesController {
    +isValidShip(mmsiCode)
    +showPositionalMessages(initialDate, finalDate)
}

class Company {
    -designation
    +getBstShip(mmsiCode)
}

/'Ship "1" - - "1..*" ShipPosition : has >'/
/'Company "1" - - "1..*" Ship : owns >'/

Company "1" - - "1" ShipsBST : uses >
ShipsBST "1" - - "1..*" Ship : owns >
Ship "1" - - "1" PositionsBST : uses >
PositionsBST "1" - - "1..*" ShipPosition : has >
ShowPositionalMessagesUI ..> ShowPositionalMessagesController
ShowPositionalMessagesController ..> Company
ShowPositionalMessagesController ..> ShipsBST
ShowPositionalMessagesController ..> Ship
ShowPositionalMessagesController ..> PositionsBST

BST <|- PositionsBST


@enduml

@startuml

skinparam classAttributeIconSize 0


class Ship {
    -mmmsiCode
    -shipName
    -imoCode
    -callSignId
    -currentCapacity 
    -draft
}

class ShipPosition {
    -baseDateTime
    -latitude
    -longitude
    -sog
    -cog
    -heading
    -position
    -transceiver
    +getPositionsBST()
}

class ShipsBST {
    +getShipByMmsiCode(mmsiCode)
}

class PositionsBST {
    +getPositinalMessages(initialDate, finalDate)
}

class ShowPositionalMessagesUI {}

class ShowPositionalMessagesController {
    +isValidShip(mmsiCode)
    +showPositionalMessages(initialDate, finalDate)
}

class Company {
    -designation
    +getBstShip(mmsiCode)
}


Company "1" - - "1" ShipsBST : uses >
ShipsBST "1" - - "1..*" Ship : owns >
Ship "1" - - "1" PositionsBST : uses >
PositionsBST "1" - - "1..*" ShipPosition : has >
ShowPositionalMessagesUI ..> ShowPositionalMessagesController
ShowPositionalMessagesController ..> Company
ShowPositionalMessagesController ..> ShipsBST
ShowPositionalMessagesController ..> Ship
ShowPositionalMessagesController ..> PositionsBST

BST <|- PositionsBST


@enduml

PlantUML version 1.2021.11(Sat Oct 02 14:26:11 BST 2021)
(GPL source distribution)
Java Runtime: OpenJDK Runtime Environment
JVM: OpenJDK 64-Bit Server VM
Default Encoding: Cp1252
Language: pt
Country: PT
--></g></svg>